%TF.GenerationSoftware,KiCad,Pcbnew,7.0.8-7.0.8~ubuntu23.04.1*%
%TF.CreationDate,2023-11-12T20:22:20+00:00*%
%TF.ProjectId,AIRDOS04_sensor,41495244-4f53-4303-945f-73656e736f72,REV*%
%TF.SameCoordinates,PX66dd020PY81342c0*%
%TF.FileFunction,Soldermask,Top*%
%TF.FilePolarity,Negative*%
%FSLAX46Y46*%
G04 Gerber Fmt 4.6, Leading zero omitted, Abs format (unit mm)*
G04 Created by KiCad (PCBNEW 7.0.8-7.0.8~ubuntu23.04.1) date 2023-11-12 20:22:20*
%MOMM*%
%LPD*%
G01*
G04 APERTURE LIST*
G04 Aperture macros list*
%AMRoundRect*
0 Rectangle with rounded corners*
0 $1 Rounding radius*
0 $2 $3 $4 $5 $6 $7 $8 $9 X,Y pos of 4 corners*
0 Add a 4 corners polygon primitive as box body*
4,1,4,$2,$3,$4,$5,$6,$7,$8,$9,$2,$3,0*
0 Add four circle primitives for the rounded corners*
1,1,$1+$1,$2,$3*
1,1,$1+$1,$4,$5*
1,1,$1+$1,$6,$7*
1,1,$1+$1,$8,$9*
0 Add four rect primitives between the rounded corners*
20,1,$1+$1,$2,$3,$4,$5,0*
20,1,$1+$1,$4,$5,$6,$7,0*
20,1,$1+$1,$6,$7,$8,$9,0*
20,1,$1+$1,$8,$9,$2,$3,0*%
G04 Aperture macros list end*
%ADD10C,6.160000*%
%ADD11C,1.160000*%
%ADD12RoundRect,0.080000X0.762000X-0.762000X0.762000X0.762000X-0.762000X0.762000X-0.762000X-0.762000X0*%
%ADD13C,1.684000*%
G04 APERTURE END LIST*
D10*
%TO.C,M1*%
X10160000Y50800000D03*
%TD*%
%TO.C,M2*%
X71120000Y50800000D03*
%TD*%
%TO.C,M3*%
X10160000Y10160000D03*
%TD*%
%TO.C,M4*%
X71120000Y10160000D03*
%TD*%
D11*
%TO.C,TP3*%
X25439200Y20265600D03*
%TD*%
%TO.C,TP2*%
X25439200Y22602400D03*
%TD*%
%TO.C,TP1*%
X25693200Y16506400D03*
%TD*%
D12*
%TO.C,J1*%
X22860000Y50800000D03*
X22860000Y53340000D03*
X25400000Y50800000D03*
X25400000Y53340000D03*
X27940000Y50800000D03*
X27940000Y53340000D03*
X30480000Y50800000D03*
X30480000Y53340000D03*
X33020000Y50800000D03*
X33020000Y53340000D03*
X35560000Y50800000D03*
X35560000Y53340000D03*
X38100000Y50800000D03*
X38100000Y53340000D03*
X40640000Y50800000D03*
X40640000Y53340000D03*
X43180000Y50800000D03*
X43180000Y53340000D03*
X45720000Y50800000D03*
X45720000Y53340000D03*
X48260000Y50800000D03*
X48260000Y53340000D03*
X50800000Y50800000D03*
X50800000Y53340000D03*
X53340000Y50800000D03*
X53340000Y53340000D03*
X55880000Y50800000D03*
X55880000Y53340000D03*
X58420000Y50800000D03*
X58420000Y53340000D03*
%TD*%
D13*
%TO.C,D1*%
X59424400Y23266400D03*
X59424400Y28266400D03*
%TD*%
G36*
X69920039Y40874315D02*
G01*
X69965794Y40821511D01*
X69977000Y40770000D01*
X69977000Y10792000D01*
X69957315Y10724961D01*
X69904511Y10679206D01*
X69853000Y10668000D01*
X27048000Y10668000D01*
X26980961Y10687685D01*
X26935206Y10740489D01*
X26924000Y10792000D01*
X26924000Y40770000D01*
X26943685Y40837039D01*
X26996489Y40882794D01*
X27048000Y40894000D01*
X69853000Y40894000D01*
X69920039Y40874315D01*
G37*
M02*
