%TF.GenerationSoftware,KiCad,Pcbnew,7.0.8-7.0.8~ubuntu23.04.1*%
%TF.CreationDate,2023-11-12T20:22:20+00:00*%
%TF.ProjectId,AIRDOS04_sensor,41495244-4f53-4303-945f-73656e736f72,REV*%
%TF.SameCoordinates,PX66dd020PY81342c0*%
%TF.FileFunction,Copper,L1,Top*%
%TF.FilePolarity,Positive*%
%FSLAX46Y46*%
G04 Gerber Fmt 4.6, Leading zero omitted, Abs format (unit mm)*
G04 Created by KiCad (PCBNEW 7.0.8-7.0.8~ubuntu23.04.1) date 2023-11-12 20:22:20*
%MOMM*%
%LPD*%
G01*
G04 APERTURE LIST*
%ADD10C,0.200000*%
%ADD11C,0.300000*%
%TA.AperFunction,ComponentPad*%
%ADD12C,6.000000*%
%TD*%
%TA.AperFunction,SMDPad,CuDef*%
%ADD13C,1.000000*%
%TD*%
%TA.AperFunction,ComponentPad*%
%ADD14R,1.524000X1.524000*%
%TD*%
%TA.AperFunction,ViaPad*%
%ADD15C,0.800000*%
%TD*%
%TA.AperFunction,Conductor*%
%ADD16C,0.300000*%
%TD*%
%TA.AperFunction,Conductor*%
%ADD17C,0.600000*%
%TD*%
%TA.AperFunction,Conductor*%
%ADD18C,0.400000*%
%TD*%
%TA.AperFunction,Conductor*%
%ADD19C,0.700000*%
%TD*%
%TA.AperFunction,Conductor*%
%ADD20C,0.450000*%
%TD*%
G04 APERTURE END LIST*
D10*
G36*
X74612928Y19774623D02*
G01*
X74612928Y19464693D01*
X74566964Y19372765D01*
X74475035Y19326801D01*
X74379392Y19326801D01*
X74287463Y19372765D01*
X74241500Y19464693D01*
X74241500Y19798229D01*
X74234376Y19820153D01*
X74231224Y19841086D01*
X74579696Y19841086D01*
X74612928Y19774623D01*
G37*
G36*
X75027214Y17769657D02*
G01*
X72899873Y17769657D01*
X72899873Y18053041D01*
X73117822Y18053041D01*
X73154149Y18003041D01*
X73212928Y17983943D01*
X74712928Y17983943D01*
X74771707Y18003041D01*
X74808034Y18053041D01*
X74808034Y18114845D01*
X74771707Y18164845D01*
X74712928Y18183943D01*
X74325778Y18183943D01*
X74293740Y18215981D01*
X74772928Y18575372D01*
X74808493Y18625918D01*
X74807554Y18687714D01*
X74770472Y18737158D01*
X74711410Y18755361D01*
X74652928Y18735372D01*
X74150883Y18358838D01*
X73783639Y18726083D01*
X73728571Y18754141D01*
X73667529Y18744473D01*
X73623827Y18700771D01*
X73614159Y18639729D01*
X73642217Y18584661D01*
X74042936Y18183943D01*
X73212928Y18183943D01*
X73154149Y18164845D01*
X73117822Y18114845D01*
X73117822Y18053041D01*
X72899873Y18053041D01*
X72899873Y19441086D01*
X73612928Y19441086D01*
X73620051Y19419163D01*
X73623485Y19396364D01*
X73694914Y19253508D01*
X73738283Y19209475D01*
X73799250Y19199344D01*
X73854529Y19226984D01*
X73883005Y19281836D01*
X73873800Y19342951D01*
X73812928Y19464695D01*
X73812928Y19703193D01*
X73858893Y19795123D01*
X73950821Y19841086D01*
X74008267Y19841086D01*
X74041500Y19774622D01*
X74041500Y19441086D01*
X74048623Y19419163D01*
X74052057Y19396365D01*
X74123485Y19253508D01*
X74124043Y19252942D01*
X74124174Y19252155D01*
X74145676Y19230978D01*
X74166854Y19209475D01*
X74167640Y19209345D01*
X74168207Y19208786D01*
X74311064Y19137358D01*
X74333861Y19133925D01*
X74355785Y19126801D01*
X74498642Y19126801D01*
X74520565Y19133925D01*
X74543363Y19137358D01*
X74686221Y19208786D01*
X74686787Y19209345D01*
X74687574Y19209475D01*
X74708735Y19230961D01*
X74730254Y19252154D01*
X74730384Y19252942D01*
X74730943Y19253508D01*
X74802371Y19396365D01*
X74805804Y19419163D01*
X74812928Y19441086D01*
X74812928Y19798229D01*
X74805804Y19820153D01*
X74802371Y19842950D01*
X74784766Y19878160D01*
X74808034Y19910184D01*
X74808034Y19971988D01*
X74771707Y20021988D01*
X74712928Y20041086D01*
X73927214Y20041086D01*
X73905290Y20033963D01*
X73882493Y20030529D01*
X73739636Y19959101D01*
X73739069Y19958543D01*
X73738283Y19958412D01*
X73717105Y19936910D01*
X73695603Y19915732D01*
X73695472Y19914946D01*
X73694914Y19914379D01*
X73623485Y19771523D01*
X73620051Y19748725D01*
X73612928Y19726801D01*
X73612928Y19441086D01*
X72899873Y19441086D01*
X72899873Y20624470D01*
X73117822Y20624470D01*
X73154149Y20574470D01*
X73212928Y20555372D01*
X74712928Y20555372D01*
X74771707Y20574470D01*
X74808034Y20624470D01*
X74808034Y20686274D01*
X74771707Y20736274D01*
X74712928Y20755372D01*
X74325778Y20755372D01*
X74293740Y20787410D01*
X74772928Y21146801D01*
X74808493Y21197347D01*
X74807554Y21259143D01*
X74770472Y21308587D01*
X74711410Y21326790D01*
X74652928Y21306801D01*
X74150883Y20930267D01*
X73783639Y21297512D01*
X73728571Y21325570D01*
X73667529Y21315902D01*
X73623827Y21272200D01*
X73614159Y21211158D01*
X73642217Y21156090D01*
X74042936Y20755372D01*
X73212928Y20755372D01*
X73154149Y20736274D01*
X73117822Y20686274D01*
X73117822Y20624470D01*
X72899873Y20624470D01*
X72899873Y21838756D01*
X73117822Y21838756D01*
X73154149Y21788756D01*
X73212928Y21769658D01*
X74498642Y21769658D01*
X74520565Y21776782D01*
X74543363Y21780215D01*
X74686221Y21851644D01*
X74686787Y21852203D01*
X74687574Y21852333D01*
X74708751Y21873836D01*
X74730254Y21895013D01*
X74730384Y21895800D01*
X74730943Y21896366D01*
X74802371Y22039223D01*
X74811576Y22100338D01*
X74783100Y22155190D01*
X74727821Y22182829D01*
X74666854Y22172698D01*
X74623485Y22128665D01*
X74566964Y22015623D01*
X74475035Y21969658D01*
X73212928Y21969658D01*
X73154149Y21950560D01*
X73117822Y21900560D01*
X73117822Y21838756D01*
X72899873Y21838756D01*
X72899873Y22639728D01*
X73114159Y22639728D01*
X73117822Y22632540D01*
X73117822Y22624470D01*
X73122564Y22617943D01*
X73123827Y22609973D01*
X73135027Y22598773D01*
X73142218Y22584661D01*
X73213647Y22513233D01*
X73227757Y22506044D01*
X73238958Y22494843D01*
X73254602Y22492366D01*
X73268714Y22485175D01*
X73284357Y22487653D01*
X73300000Y22485175D01*
X73314111Y22492366D01*
X73329757Y22494843D01*
X73340956Y22506043D01*
X73355068Y22513233D01*
X73426495Y22584661D01*
X73433684Y22598772D01*
X73444886Y22609972D01*
X73446148Y22617943D01*
X73450891Y22624470D01*
X73617822Y22624470D01*
X73654149Y22574470D01*
X73712928Y22555372D01*
X74712928Y22555372D01*
X74771707Y22574470D01*
X74808034Y22624470D01*
X74808034Y22686274D01*
X74771707Y22736274D01*
X74712928Y22755372D01*
X73712928Y22755372D01*
X73654149Y22736274D01*
X73617822Y22686274D01*
X73617822Y22624470D01*
X73450891Y22624470D01*
X73450891Y22632540D01*
X73454554Y22639728D01*
X73452076Y22655372D01*
X73454554Y22671015D01*
X73450891Y22678205D01*
X73450891Y22686274D01*
X73446148Y22692803D01*
X73444886Y22700771D01*
X73433685Y22711972D01*
X73426496Y22726082D01*
X73355068Y22797511D01*
X73340956Y22804702D01*
X73329756Y22815902D01*
X73314112Y22818380D01*
X73300001Y22825570D01*
X73284357Y22823093D01*
X73268714Y22825570D01*
X73254601Y22818380D01*
X73238959Y22815902D01*
X73227759Y22804704D01*
X73213646Y22797512D01*
X73142217Y22726083D01*
X73135025Y22711970D01*
X73123827Y22700770D01*
X73122565Y22692803D01*
X73117822Y22686274D01*
X73117822Y22678205D01*
X73114159Y22671015D01*
X73116636Y22655372D01*
X73114159Y22639728D01*
X72899873Y22639728D01*
X72899873Y23338756D01*
X73117822Y23338756D01*
X73154149Y23288756D01*
X73212928Y23269658D01*
X74712928Y23269658D01*
X74771707Y23288756D01*
X74808034Y23338756D01*
X74808034Y23400560D01*
X74771707Y23450560D01*
X74712928Y23469658D01*
X74325778Y23469658D01*
X74293740Y23501696D01*
X74772928Y23861087D01*
X74808493Y23911633D01*
X74807554Y23973429D01*
X74770472Y24022873D01*
X74711410Y24041076D01*
X74652928Y24021087D01*
X74150883Y23644553D01*
X73783639Y24011798D01*
X73728571Y24039856D01*
X73667529Y24030188D01*
X73623827Y23986486D01*
X73614159Y23925444D01*
X73642217Y23870376D01*
X74042936Y23469658D01*
X73212928Y23469658D01*
X73154149Y23450560D01*
X73117822Y23400560D01*
X73117822Y23338756D01*
X72899873Y23338756D01*
X72899873Y24255362D01*
X75027214Y24255362D01*
X75027214Y17769657D01*
G37*
D11*
G36*
X67340829Y52750986D02*
G01*
X60540827Y52750986D01*
X60540827Y53329558D01*
X60755113Y53329558D01*
X60764036Y53296257D01*
X60770949Y53262476D01*
X60842378Y53119618D01*
X60848463Y53112756D01*
X60851365Y53104051D01*
X60873905Y53084064D01*
X60893893Y53061523D01*
X60902597Y53058622D01*
X60909460Y53052536D01*
X61052318Y52981108D01*
X61086093Y52974197D01*
X61119399Y52965272D01*
X61333685Y52965272D01*
X61366988Y52974196D01*
X61400767Y52981108D01*
X61451743Y53006596D01*
X61472971Y52985368D01*
X61547971Y52965272D01*
X61622971Y52985368D01*
X61677875Y53040272D01*
X61697971Y53115272D01*
X61697971Y53829558D01*
X62040828Y53829558D01*
X62049752Y53796253D01*
X62056664Y53762477D01*
X62128092Y53619618D01*
X62134179Y53612754D01*
X62137080Y53604051D01*
X62159615Y53584068D01*
X62179607Y53561523D01*
X62188312Y53558622D01*
X62195175Y53552536D01*
X62338033Y53481107D01*
X62371817Y53474194D01*
X62405114Y53465272D01*
X62583989Y53465272D01*
X62650453Y53432040D01*
X62683685Y53365576D01*
X62683685Y53364968D01*
X62650452Y53298504D01*
X62583989Y53265272D01*
X62369095Y53265272D01*
X62257910Y53320864D01*
X62181840Y53336431D01*
X62108179Y53311877D01*
X62056664Y53253782D01*
X62041097Y53177712D01*
X62065651Y53104051D01*
X62123746Y53052536D01*
X62266604Y52981108D01*
X62300379Y52974197D01*
X62333685Y52965272D01*
X62619399Y52965272D01*
X62652702Y52974196D01*
X62686481Y52981108D01*
X62829338Y53052536D01*
X62836200Y53058622D01*
X62844905Y53061523D01*
X62864892Y53084064D01*
X62887433Y53104051D01*
X62890334Y53112756D01*
X62896420Y53119618D01*
X62967849Y53262476D01*
X62974761Y53296257D01*
X62983685Y53329558D01*
X62983685Y53400986D01*
X62974762Y53434287D01*
X62967849Y53468069D01*
X62896420Y53610925D01*
X62890333Y53617789D01*
X62887433Y53626491D01*
X62864892Y53646480D01*
X62844904Y53669020D01*
X62836201Y53671921D01*
X62829338Y53678007D01*
X62686481Y53749436D01*
X62652700Y53756349D01*
X62619399Y53765272D01*
X62440523Y53765272D01*
X62374060Y53798503D01*
X62340828Y53864967D01*
X62340828Y53865577D01*
X62374059Y53932040D01*
X62440524Y53965272D01*
X62583989Y53965272D01*
X62695173Y53909679D01*
X62771243Y53894112D01*
X62844904Y53918666D01*
X62896420Y53976761D01*
X62911987Y54052830D01*
X62891173Y54115272D01*
X63112257Y54115272D01*
X63132353Y54040272D01*
X63187257Y53985368D01*
X63262257Y53965272D01*
X63326542Y53965272D01*
X63326542Y53329558D01*
X63335465Y53296257D01*
X63342378Y53262476D01*
X63413807Y53119618D01*
X63419892Y53112756D01*
X63422794Y53104051D01*
X63445334Y53084064D01*
X63465322Y53061523D01*
X63474026Y53058622D01*
X63480889Y53052536D01*
X63623747Y52981108D01*
X63657522Y52974197D01*
X63690828Y52965272D01*
X63833685Y52965272D01*
X63908685Y52985368D01*
X63963589Y53040272D01*
X63983685Y53115272D01*
X63974949Y53147876D01*
X64117368Y53147876D01*
X64133683Y53119618D01*
X64156191Y53080634D01*
X64227619Y53009206D01*
X64227621Y53009205D01*
X64244720Y52999333D01*
X64258685Y52985368D01*
X64277758Y52980258D01*
X64294861Y52970383D01*
X64294862Y52970383D01*
X64314610Y52970383D01*
X64333685Y52965272D01*
X64352760Y52970383D01*
X64372508Y52970383D01*
X64389610Y52980257D01*
X64408685Y52985368D01*
X64422648Y52999332D01*
X64439750Y53009205D01*
X64511179Y53080633D01*
X64511181Y53080635D01*
X64533688Y53119618D01*
X64550003Y53147876D01*
X64550003Y53225522D01*
X64550003Y53225523D01*
X64511180Y53292766D01*
X64439751Y53364195D01*
X64439750Y53364196D01*
X64422648Y53374070D01*
X64408685Y53388033D01*
X64389610Y53393145D01*
X64376028Y53400986D01*
X64826543Y53400986D01*
X64835466Y53367683D01*
X64842379Y53333904D01*
X64913807Y53191047D01*
X64929830Y53172978D01*
X64941905Y53152063D01*
X65013334Y53080634D01*
X65034248Y53068560D01*
X65052318Y53052536D01*
X65195176Y52981108D01*
X65228951Y52974197D01*
X65262257Y52965272D01*
X65547971Y52965272D01*
X65581276Y52974197D01*
X65615052Y52981108D01*
X65757911Y53052536D01*
X65816006Y53104051D01*
X65819746Y53115272D01*
X66040828Y53115272D01*
X66048202Y53087752D01*
X66051597Y53059463D01*
X66058111Y53050769D01*
X66060924Y53040272D01*
X66081071Y53020125D01*
X66098155Y52997324D01*
X66108144Y52993052D01*
X66115828Y52985368D01*
X66143345Y52977995D01*
X66169544Y52966789D01*
X66180333Y52968084D01*
X66190828Y52965272D01*
X66976543Y52965272D01*
X67051543Y52985368D01*
X67106447Y53040272D01*
X67126543Y53115272D01*
X67106447Y53190272D01*
X67051543Y53245176D01*
X66976543Y53265272D01*
X66499448Y53265272D01*
X67094491Y54022599D01*
X67098763Y54032589D01*
X67106447Y54040272D01*
X67113820Y54067790D01*
X67125026Y54093988D01*
X67123731Y54104778D01*
X67126543Y54115272D01*
X67119168Y54142793D01*
X67115774Y54171081D01*
X67109259Y54179776D01*
X67106447Y54190272D01*
X67086299Y54210420D01*
X67069216Y54233220D01*
X67059226Y54237493D01*
X67051543Y54245176D01*
X67024025Y54252550D01*
X66997827Y54263755D01*
X66987037Y54262461D01*
X66976543Y54265272D01*
X66190828Y54265272D01*
X66115828Y54245176D01*
X66060924Y54190272D01*
X66040828Y54115272D01*
X66060924Y54040272D01*
X66115828Y53985368D01*
X66190828Y53965272D01*
X66667923Y53965272D01*
X66072880Y53207945D01*
X66068607Y53197956D01*
X66060924Y53190272D01*
X66053550Y53162755D01*
X66042345Y53136556D01*
X66043639Y53125767D01*
X66040828Y53115272D01*
X65819746Y53115272D01*
X65840560Y53177712D01*
X65824994Y53253781D01*
X65773479Y53311877D01*
X65699817Y53336431D01*
X65623748Y53320865D01*
X65512562Y53265272D01*
X65297667Y53265272D01*
X65208253Y53309979D01*
X65171248Y53346984D01*
X65126543Y53436396D01*
X65126543Y53794149D01*
X65171248Y53883560D01*
X65208253Y53920565D01*
X65297667Y53965272D01*
X65512561Y53965272D01*
X65623747Y53909679D01*
X65699816Y53894112D01*
X65773478Y53918666D01*
X65824993Y53976761D01*
X65840560Y54052830D01*
X65816006Y54126492D01*
X65757911Y54178007D01*
X65615053Y54249436D01*
X65581272Y54256349D01*
X65547971Y54265272D01*
X65262257Y54265272D01*
X65228956Y54256350D01*
X65195174Y54249436D01*
X65052318Y54178007D01*
X65034249Y54161985D01*
X65013335Y54149910D01*
X64941906Y54078482D01*
X64929830Y54057567D01*
X64913807Y54039497D01*
X64842379Y53896640D01*
X64835466Y53862862D01*
X64826543Y53829558D01*
X64826543Y53400986D01*
X64376028Y53400986D01*
X64372508Y53403018D01*
X64372507Y53403018D01*
X64352760Y53403018D01*
X64333685Y53408129D01*
X64314610Y53403018D01*
X64294861Y53403018D01*
X64277758Y53393144D01*
X64258685Y53388033D01*
X64244720Y53374069D01*
X64227619Y53364195D01*
X64227618Y53364195D01*
X64227618Y53364194D01*
X64156191Y53292766D01*
X64117368Y53225523D01*
X64117368Y53225522D01*
X64117368Y53147876D01*
X63974949Y53147876D01*
X63963589Y53190272D01*
X63908685Y53245176D01*
X63833685Y53265272D01*
X63726238Y53265272D01*
X63659774Y53298504D01*
X63626542Y53364968D01*
X63626542Y53965272D01*
X63833685Y53965272D01*
X63908685Y53985368D01*
X63963589Y54040272D01*
X63983685Y54115272D01*
X63963589Y54190272D01*
X63908685Y54245176D01*
X63833685Y54265272D01*
X63626542Y54265272D01*
X63626542Y54615272D01*
X63606446Y54690272D01*
X63551542Y54745176D01*
X63476542Y54765272D01*
X63401542Y54745176D01*
X63346638Y54690272D01*
X63326542Y54615272D01*
X63326542Y54265272D01*
X63262257Y54265272D01*
X63187257Y54245176D01*
X63132353Y54190272D01*
X63112257Y54115272D01*
X62891173Y54115272D01*
X62887433Y54126491D01*
X62829338Y54178007D01*
X62686481Y54249436D01*
X62652700Y54256349D01*
X62619399Y54265272D01*
X62405114Y54265272D01*
X62371812Y54256349D01*
X62338032Y54249436D01*
X62195174Y54178007D01*
X62188311Y54171922D01*
X62179607Y54169020D01*
X62159619Y54146480D01*
X62137079Y54126492D01*
X62134177Y54117788D01*
X62128092Y54110925D01*
X62056664Y53968068D01*
X62049751Y53934290D01*
X62040828Y53900986D01*
X62040828Y53829558D01*
X61697971Y53829558D01*
X61697971Y54115272D01*
X61677875Y54190272D01*
X61622971Y54245176D01*
X61547971Y54265272D01*
X61472971Y54245176D01*
X61418067Y54190272D01*
X61397971Y54115272D01*
X61397971Y53320261D01*
X61387687Y53309978D01*
X61298275Y53265272D01*
X61154809Y53265272D01*
X61088345Y53298504D01*
X61055113Y53364968D01*
X61055113Y54115272D01*
X61035017Y54190272D01*
X60980113Y54245176D01*
X60905113Y54265272D01*
X60830113Y54245176D01*
X60775209Y54190272D01*
X60755113Y54115272D01*
X60755113Y53329558D01*
X60540827Y53329558D01*
X60540827Y54979558D01*
X67340829Y54979558D01*
X67340829Y52750986D01*
G37*
D10*
G36*
X74468507Y36527308D02*
G01*
X74587037Y36468042D01*
X74635514Y36419566D01*
X74689128Y36312338D01*
X74689128Y36216694D01*
X74635513Y36109465D01*
X74587037Y36060989D01*
X74468507Y36001723D01*
X74205391Y35935944D01*
X73872866Y35935944D01*
X73609747Y36001723D01*
X73491219Y36060988D01*
X73442742Y36109466D01*
X73389128Y36216694D01*
X73389128Y36312336D01*
X73442743Y36419566D01*
X73491219Y36468043D01*
X73609746Y36527307D01*
X73872866Y36593087D01*
X74205390Y36593087D01*
X74468507Y36527308D01*
G37*
G36*
X75103414Y34022889D02*
G01*
X72974842Y34022889D01*
X72974842Y34621658D01*
X73189128Y34621658D01*
X73196251Y34599735D01*
X73199685Y34576936D01*
X73271114Y34434080D01*
X73282487Y34422533D01*
X73289846Y34408090D01*
X73361274Y34336663D01*
X73416341Y34308604D01*
X73477384Y34318272D01*
X73521086Y34361974D01*
X73530754Y34423017D01*
X73502695Y34478084D01*
X73442743Y34538037D01*
X73389128Y34645267D01*
X73389128Y34955193D01*
X73442744Y35062425D01*
X73491219Y35110901D01*
X73598449Y35164516D01*
X73701473Y35164516D01*
X73877965Y35105685D01*
X74718417Y34265234D01*
X74739278Y34254605D01*
X74758226Y34240838D01*
X74766295Y34240838D01*
X74773484Y34237175D01*
X74796612Y34240838D01*
X74820030Y34240838D01*
X74826558Y34245581D01*
X74834527Y34246843D01*
X74851083Y34263400D01*
X74870030Y34277165D01*
X74872523Y34284840D01*
X74878229Y34290545D01*
X74881892Y34313674D01*
X74889128Y34335944D01*
X74889128Y35264516D01*
X74870030Y35323295D01*
X74820030Y35359622D01*
X74758226Y35359622D01*
X74708226Y35323295D01*
X74689128Y35264516D01*
X74689128Y34577366D01*
X74002696Y35263798D01*
X73982154Y35274265D01*
X73963608Y35287955D01*
X73749323Y35359384D01*
X73733115Y35359508D01*
X73717700Y35364516D01*
X73574842Y35364516D01*
X73552918Y35357393D01*
X73530120Y35353959D01*
X73387263Y35282530D01*
X73375713Y35271155D01*
X73361274Y35263797D01*
X73289846Y35192368D01*
X73282488Y35177928D01*
X73271114Y35166379D01*
X73199685Y35023523D01*
X73196251Y35000725D01*
X73189128Y34978801D01*
X73189128Y34621658D01*
X72974842Y34621658D01*
X72974842Y36193087D01*
X73189128Y36193087D01*
X73196251Y36171164D01*
X73199685Y36148366D01*
X73271114Y36005508D01*
X73282487Y35993961D01*
X73289846Y35979518D01*
X73361274Y35908091D01*
X73375713Y35900734D01*
X73387263Y35889358D01*
X73530120Y35817929D01*
X73541142Y35816269D01*
X73550589Y35810358D01*
X73836304Y35738930D01*
X73848719Y35739791D01*
X73860557Y35735944D01*
X74217700Y35735944D01*
X74229537Y35739791D01*
X74241953Y35738930D01*
X74527667Y35810358D01*
X74537113Y35816269D01*
X74548136Y35817929D01*
X74690992Y35889358D01*
X74702540Y35900733D01*
X74716981Y35908090D01*
X74788410Y35979518D01*
X74795768Y35993959D01*
X74807143Y36005508D01*
X74878571Y36148366D01*
X74882004Y36171164D01*
X74889128Y36193087D01*
X74889128Y36335944D01*
X74882004Y36357868D01*
X74878571Y36380665D01*
X74807143Y36523522D01*
X74795768Y36535071D01*
X74788410Y36549512D01*
X74716981Y36620940D01*
X74702540Y36628298D01*
X74690992Y36639672D01*
X74548136Y36711101D01*
X74537112Y36712762D01*
X74527667Y36718672D01*
X74241954Y36790101D01*
X74229537Y36789241D01*
X74217700Y36793087D01*
X73860557Y36793087D01*
X73848719Y36789241D01*
X73836303Y36790101D01*
X73550588Y36718672D01*
X73541141Y36712762D01*
X73530120Y36711101D01*
X73387263Y36639672D01*
X73375713Y36628297D01*
X73361274Y36620939D01*
X73289846Y36549512D01*
X73282487Y36535070D01*
X73271114Y36523522D01*
X73199685Y36380666D01*
X73196251Y36357868D01*
X73189128Y36335944D01*
X73189128Y36193087D01*
X72974842Y36193087D01*
X72974842Y37478800D01*
X73189128Y37478800D01*
X73196251Y37456877D01*
X73199685Y37434078D01*
X73271114Y37291222D01*
X73282487Y37279675D01*
X73289846Y37265232D01*
X73361274Y37193805D01*
X73416341Y37165746D01*
X73477384Y37175414D01*
X73521086Y37219116D01*
X73530754Y37280159D01*
X73502695Y37335226D01*
X73442743Y37395179D01*
X73389128Y37502409D01*
X73389128Y37812335D01*
X73442744Y37919567D01*
X73491219Y37968043D01*
X73598449Y38021658D01*
X73701473Y38021658D01*
X73877965Y37962827D01*
X74718417Y37122376D01*
X74739278Y37111747D01*
X74758226Y37097980D01*
X74766295Y37097980D01*
X74773484Y37094317D01*
X74796612Y37097980D01*
X74820030Y37097980D01*
X74826558Y37102723D01*
X74834527Y37103985D01*
X74851083Y37120542D01*
X74870030Y37134307D01*
X74872523Y37141982D01*
X74878229Y37147687D01*
X74881892Y37170816D01*
X74889128Y37193086D01*
X74889128Y38121658D01*
X74870030Y38180437D01*
X74820030Y38216764D01*
X74758226Y38216764D01*
X74708226Y38180437D01*
X74689128Y38121658D01*
X74689128Y37434508D01*
X74002696Y38120940D01*
X73982154Y38131407D01*
X73963608Y38145097D01*
X73749323Y38216526D01*
X73733115Y38216650D01*
X73717700Y38221658D01*
X73574842Y38221658D01*
X73552918Y38214535D01*
X73530120Y38211101D01*
X73387263Y38139672D01*
X73375713Y38128297D01*
X73361274Y38120939D01*
X73289846Y38049510D01*
X73282488Y38035070D01*
X73271114Y38023521D01*
X73199685Y37880665D01*
X73196251Y37857867D01*
X73189128Y37835943D01*
X73189128Y37478800D01*
X72974842Y37478800D01*
X72974842Y38621657D01*
X73189128Y38621657D01*
X73208226Y38562878D01*
X73258226Y38526551D01*
X73320030Y38526551D01*
X73370030Y38562878D01*
X73389128Y38621657D01*
X73389128Y39329853D01*
X73794706Y38974972D01*
X73813292Y38967011D01*
X73829655Y38955123D01*
X73841047Y38955123D01*
X73851518Y38950638D01*
X73871237Y38955123D01*
X73891459Y38955123D01*
X73900674Y38961819D01*
X73911782Y38964345D01*
X73925096Y38979563D01*
X73941459Y38991450D01*
X73944979Y39002287D01*
X73952480Y39010858D01*
X73954307Y39030996D01*
X73960557Y39050229D01*
X73960557Y39240908D01*
X74014170Y39348135D01*
X74062650Y39396615D01*
X74169878Y39450229D01*
X74479806Y39450229D01*
X74587034Y39396615D01*
X74635514Y39348135D01*
X74689128Y39240908D01*
X74689128Y38859550D01*
X74635514Y38752323D01*
X74575560Y38692368D01*
X74547502Y38637300D01*
X74557170Y38576258D01*
X74600872Y38532556D01*
X74661914Y38522888D01*
X74716982Y38550946D01*
X74788411Y38622375D01*
X74795769Y38636818D01*
X74807143Y38648365D01*
X74878571Y38791222D01*
X74882004Y38814020D01*
X74889128Y38835943D01*
X74889128Y39264514D01*
X74882004Y39286438D01*
X74878571Y39309235D01*
X74807143Y39452092D01*
X74795769Y39463640D01*
X74788411Y39478082D01*
X74716982Y39549511D01*
X74702539Y39556870D01*
X74690992Y39568243D01*
X74548136Y39639672D01*
X74525337Y39643106D01*
X74503414Y39650229D01*
X74146271Y39650229D01*
X74124347Y39643106D01*
X74101549Y39639672D01*
X73958692Y39568243D01*
X73947144Y39556869D01*
X73932703Y39549511D01*
X73861274Y39478082D01*
X73853915Y39463640D01*
X73842542Y39452092D01*
X73771114Y39309235D01*
X73767680Y39286438D01*
X73762098Y39269258D01*
X73354978Y39625487D01*
X73336390Y39633449D01*
X73320030Y39645335D01*
X73308638Y39645335D01*
X73298167Y39649820D01*
X73278448Y39645335D01*
X73258226Y39645335D01*
X73249010Y39638640D01*
X73237903Y39636113D01*
X73224586Y39620895D01*
X73208226Y39609008D01*
X73204706Y39598175D01*
X73197204Y39589601D01*
X73195376Y39569459D01*
X73189128Y39550229D01*
X73189128Y38621657D01*
X72974842Y38621657D01*
X72974842Y39864515D01*
X75103414Y39864515D01*
X75103414Y34022889D01*
G37*
D12*
%TO.P,M1,1*%
%TO.N,GND*%
X10160000Y50800000D03*
%TD*%
%TO.P,M2,1*%
%TO.N,GND*%
X71120000Y50800000D03*
%TD*%
%TO.P,M3,1*%
%TO.N,GND*%
X10160000Y10160000D03*
%TD*%
%TO.P,M4,1*%
%TO.N,GND*%
X71120000Y10160000D03*
%TD*%
D13*
%TO.P,TP3,1,1*%
%TO.N,Net-(U2--)*%
X25439200Y20265600D03*
%TD*%
%TO.P,TP2,1,1*%
%TO.N,GNDA*%
X25439200Y22602400D03*
%TD*%
%TO.P,TP1,1,1*%
%TO.N,Net-(U6--)*%
X25693200Y16506400D03*
%TD*%
D14*
%TO.P,J1,1*%
%TO.N,GND*%
X22860000Y50800000D03*
%TO.P,J1,2*%
X22860000Y53340000D03*
%TO.P,J1,3*%
%TO.N,+5VD*%
X25400000Y50800000D03*
%TO.P,J1,4*%
X25400000Y53340000D03*
%TO.P,J1,5*%
%TO.N,/interface/3v3*%
X27940000Y50800000D03*
%TO.P,J1,6*%
X27940000Y53340000D03*
%TO.P,J1,7*%
%TO.N,Net-(J1-Pad7)*%
X30480000Y50800000D03*
%TO.P,J1,8*%
X30480000Y53340000D03*
%TO.P,J1,9*%
%TO.N,unconnected-(J1-Pad9)*%
X33020000Y50800000D03*
%TO.P,J1,10*%
%TO.N,/interface/A0*%
X33020000Y53340000D03*
%TO.P,J1,11*%
%TO.N,/interface/RX*%
X35560000Y50800000D03*
%TO.P,J1,12*%
%TO.N,/interface/A1*%
X35560000Y53340000D03*
%TO.P,J1,13*%
%TO.N,/interface/TX*%
X38100000Y50800000D03*
%TO.P,J1,14*%
%TO.N,/interface/B1*%
X38100000Y53340000D03*
%TO.P,J1,15*%
%TO.N,/interface/SOCKET_MOSI*%
X40640000Y50800000D03*
%TO.P,J1,16*%
%TO.N,/interface/B0*%
X40640000Y53340000D03*
%TO.P,J1,17*%
%TO.N,/interface/SOCKET_MISO*%
X43180000Y50800000D03*
%TO.P,J1,18*%
%TO.N,/interface/C1*%
X43180000Y53340000D03*
%TO.P,J1,19*%
%TO.N,/interface/SOCKET_SCLK*%
X45720000Y50800000D03*
%TO.P,J1,20*%
%TO.N,/interface/C0*%
X45720000Y53340000D03*
%TO.P,J1,21*%
%TO.N,GND*%
X48260000Y50800000D03*
%TO.P,J1,22*%
X48260000Y53340000D03*
%TO.P,J1,23*%
%TO.N,/interface/SCL*%
X50800000Y50800000D03*
%TO.P,J1,24*%
X50800000Y53340000D03*
%TO.P,J1,25*%
%TO.N,VDD*%
X53340000Y50800000D03*
%TO.P,J1,26*%
X53340000Y53340000D03*
%TO.P,J1,27*%
%TO.N,/interface/SDA*%
X55880000Y50800000D03*
%TO.P,J1,28*%
X55880000Y53340000D03*
%TO.P,J1,29*%
%TO.N,GND*%
X58420000Y50800000D03*
%TO.P,J1,30*%
X58420000Y53340000D03*
%TD*%
D15*
%TO.N,GND*%
X17209600Y34845200D03*
X13120200Y21992800D03*
X11367600Y32813200D03*
X12561400Y36470800D03*
X69469000Y26771600D03*
X39124728Y43574825D03*
X26339552Y24419848D03*
X21240000Y31351375D03*
X13792200Y19608800D03*
X35243600Y48713600D03*
X43337200Y48476000D03*
X10312400Y26746200D03*
X28157000Y48535800D03*
X15977065Y26624964D03*
X13411200Y15367000D03*
X13487400Y26568400D03*
X15544800Y20777200D03*
%TO.N,GNDA*%
X50165000Y30505400D03*
X47675800Y24942800D03*
X55651399Y32359599D03*
X25820200Y35708800D03*
X54229000Y23012400D03*
X38684234Y23301099D03*
X38887400Y19050000D03*
X24931200Y23669200D03*
X59232800Y32410400D03*
X26353600Y28342798D03*
X35382200Y20243800D03*
%TO.N,Net-(U6--)*%
X26252000Y17827000D03*
%TO.N,/PIN_detector/REF*%
X44905860Y27877115D03*
X44350700Y22021800D03*
X38756600Y26543000D03*
X33096200Y25654000D03*
%TO.N,VDD*%
X52654200Y42519600D03*
X58814800Y42541400D03*
%TO.N,/interface/3v3*%
X40719797Y47969882D03*
X15798800Y32461200D03*
X34748309Y44815698D03*
%TO.N,/interface/C0*%
X40044200Y44497200D03*
%TO.N,/interface/SDA*%
X55893800Y44344800D03*
X69528500Y43628500D03*
X71120006Y29718000D03*
%TO.N,Net-(U2--)*%
X26353600Y20527000D03*
%TO.N,/analogue_backend/Set*%
X8243400Y19605200D03*
X10935798Y45741800D03*
%TO.N,+5VD*%
X12584994Y17269571D03*
X14732000Y29235400D03*
X10505400Y18563800D03*
X14196386Y22957709D03*
X15431600Y41550800D03*
%TD*%
D16*
%TO.N,GND*%
X26339552Y24038848D02*
X26339552Y24419848D01*
X26582200Y23796200D02*
X26339552Y24038848D01*
D17*
%TO.N,GNDA*%
X37693600Y20243800D02*
X38887400Y19050000D01*
X50165000Y26314400D02*
X50165000Y30505400D01*
X54229000Y23012400D02*
X50952400Y26289000D01*
X24931200Y23669200D02*
X24931200Y26920398D01*
X37693600Y20243800D02*
X38684234Y21234434D01*
X24931200Y23669200D02*
X24931200Y23110400D01*
X35382200Y20243800D02*
X37693600Y20243800D01*
X59232800Y32410400D02*
X55702200Y32410400D01*
X26379000Y28368198D02*
X26353600Y28342798D01*
X49022000Y26289000D02*
X47675800Y24942800D01*
X26379000Y35150000D02*
X26379000Y28368198D01*
X24931200Y26920398D02*
X26353600Y28342798D01*
X24931200Y23110400D02*
X25439200Y22602400D01*
X38684234Y21234434D02*
X38684234Y23301099D01*
D18*
X55702200Y32410400D02*
X55651399Y32359599D01*
D17*
X25820200Y35708800D02*
X26379000Y35150000D01*
X50952400Y26289000D02*
X49022000Y26289000D01*
D18*
%TO.N,Net-(U6--)*%
X25693200Y16506400D02*
X26252000Y17065200D01*
X26252000Y17065200D02*
X26252000Y17827000D01*
D17*
%TO.N,/PIN_detector/REF*%
X33985200Y26543000D02*
X33096200Y25654000D01*
X44905860Y27877115D02*
X44350700Y27321955D01*
X44350700Y27321955D02*
X44350700Y22021800D01*
X38756600Y26543000D02*
X33985200Y26543000D01*
D19*
%TO.N,VDD*%
X52642600Y42531200D02*
X52654200Y42519600D01*
X52642600Y50102600D02*
X52642600Y42531200D01*
X53340000Y50800000D02*
X52642600Y50102600D01*
X58793000Y42519600D02*
X58814800Y42541400D01*
X52654200Y42519600D02*
X58793000Y42519600D01*
D20*
%TO.N,/interface/3v3*%
X27940000Y50800000D02*
X18059400Y40919400D01*
X15798800Y38658800D02*
X15798800Y32461200D01*
X37594098Y44815698D02*
X40719797Y47941397D01*
X40719797Y47941397D02*
X40719797Y47969882D01*
X18059400Y40919400D02*
X15798800Y38658800D01*
X27940000Y50800000D02*
X33924302Y44815698D01*
X33924302Y44815698D02*
X34748309Y44815698D01*
X34748309Y44815698D02*
X37594098Y44815698D01*
%TO.N,/interface/C0*%
X42711200Y44497200D02*
X40044200Y44497200D01*
X44413000Y46199000D02*
X42711200Y44497200D01*
X44413000Y52033000D02*
X44413000Y46199000D01*
X45720000Y53340000D02*
X44413000Y52033000D01*
D16*
%TO.N,/interface/SDA*%
X55880000Y44358600D02*
X55893800Y44344800D01*
D20*
X55885000Y50800000D02*
X55885000Y44353600D01*
X69528500Y43628500D02*
X71120006Y42036994D01*
X71120006Y38100000D02*
X71120006Y29718000D01*
X55893800Y44344800D02*
X68812200Y44344800D01*
X55880000Y50800000D02*
X55880000Y44358600D01*
X68812200Y44344800D02*
X69528500Y43628500D01*
X55885000Y44353600D02*
X55893800Y44344800D01*
X71120006Y42036994D02*
X71120006Y38100000D01*
D18*
%TO.N,Net-(U2--)*%
X26092200Y20265600D02*
X26353600Y20527000D01*
X25439200Y20265600D02*
X26092200Y20265600D01*
D20*
%TO.N,/analogue_backend/Set*%
X10885000Y45741800D02*
X10935798Y45741800D01*
X8243400Y43100200D02*
X10885000Y45741800D01*
X8243400Y19605200D02*
X8243400Y43100200D01*
%TO.N,+5VD*%
X12560229Y17269571D02*
X11266000Y18563800D01*
X11266000Y18563800D02*
X10505400Y18563800D01*
D16*
X12584994Y17269571D02*
X12560229Y17269571D01*
D20*
X14224000Y21521800D02*
X11266000Y18563800D01*
X14732000Y23493323D02*
X14732000Y29235400D01*
X25400000Y50800000D02*
X16150800Y41550800D01*
X16150800Y41550800D02*
X15431600Y41550800D01*
X14732000Y40851200D02*
X15431600Y41550800D01*
X14196386Y22957709D02*
X14732000Y23493323D01*
X14732000Y29235400D02*
X14732000Y40851200D01*
X14196386Y22957709D02*
X14196386Y22743948D01*
X14224000Y22716334D02*
X14224000Y21521800D01*
X14196386Y22743948D02*
X14224000Y22716334D01*
%TD*%
%TA.AperFunction,Conductor*%
%TO.N,GND*%
G36*
X60487936Y55105498D02*
G01*
X60534429Y55051842D01*
X60545815Y54999500D01*
X60545815Y54974849D01*
X60545815Y52755695D01*
X67336120Y52755695D01*
X67336120Y54999500D01*
X67356122Y55067621D01*
X67409778Y55114114D01*
X67462120Y55125500D01*
X75319500Y55125500D01*
X75387621Y55105498D01*
X75434114Y55051842D01*
X75445500Y54999500D01*
X75445500Y5960501D01*
X75425498Y5892380D01*
X75371842Y5845887D01*
X75319500Y5834501D01*
X5960500Y5834501D01*
X5892379Y5854503D01*
X5845886Y5908159D01*
X5834500Y5960501D01*
X5834500Y18563800D01*
X9699835Y18563800D01*
X9720032Y18384545D01*
X9741144Y18324211D01*
X9779611Y18214278D01*
X9779612Y18214275D01*
X9875582Y18061540D01*
X9875583Y18061538D01*
X10003137Y17933984D01*
X10003139Y17933983D01*
X10155874Y17838013D01*
X10155875Y17838013D01*
X10155878Y17838011D01*
X10326145Y17778432D01*
X10505400Y17758235D01*
X10684655Y17778432D01*
X10854922Y17838011D01*
X10922559Y17880510D01*
X10924770Y17881899D01*
X10993091Y17901205D01*
X11061004Y17880510D01*
X11080901Y17864307D01*
X11761431Y17183777D01*
X11795457Y17121465D01*
X11797543Y17108796D01*
X11799625Y17090319D01*
X11799626Y17090314D01*
X11859204Y16920051D01*
X11859206Y16920046D01*
X11955176Y16767311D01*
X11955177Y16767309D01*
X12082731Y16639755D01*
X12082733Y16639754D01*
X12235468Y16543784D01*
X12235469Y16543784D01*
X12235472Y16543782D01*
X12405739Y16484203D01*
X12584994Y16464006D01*
X12764249Y16484203D01*
X12827684Y16506400D01*
X24787740Y16506400D01*
X24807525Y16318144D01*
X24866018Y16138122D01*
X24866022Y16138114D01*
X24960665Y15974186D01*
X24960666Y15974184D01*
X25087326Y15833514D01*
X25240467Y15722251D01*
X25240467Y15722250D01*
X25287812Y15701171D01*
X25413397Y15645256D01*
X25598554Y15605900D01*
X25787846Y15605900D01*
X25973003Y15645256D01*
X26145930Y15722249D01*
X26145930Y15722250D01*
X26145932Y15722250D01*
X26145932Y15722251D01*
X26299071Y15833512D01*
X26425733Y15974184D01*
X26520379Y16138116D01*
X26578874Y16318144D01*
X26598660Y16506400D01*
X26598660Y16506402D01*
X26598660Y16510436D01*
X26599320Y16512686D01*
X26599350Y16512967D01*
X26599401Y16512962D01*
X26618662Y16578557D01*
X26635559Y16599525D01*
X26645867Y16609834D01*
X26652047Y16615255D01*
X26680282Y16636918D01*
X26776536Y16762359D01*
X26837044Y16908438D01*
X26838573Y16920046D01*
X26838574Y16920051D01*
X26857683Y17065200D01*
X26857683Y17065201D01*
X26853040Y17100470D01*
X26852500Y17108702D01*
X26852500Y17243888D01*
X26872502Y17312009D01*
X26879996Y17322457D01*
X26881811Y17324734D01*
X26881816Y17324738D01*
X26881819Y17324744D01*
X26881823Y17324748D01*
X26977787Y17477475D01*
X26977786Y17477475D01*
X26977789Y17477478D01*
X27037368Y17647745D01*
X27057565Y17827000D01*
X27037368Y18006255D01*
X26977789Y18176522D01*
X26977787Y18176525D01*
X26977787Y18176526D01*
X26881817Y18329261D01*
X26881816Y18329263D01*
X26754262Y18456817D01*
X26754260Y18456818D01*
X26601525Y18552788D01*
X26601522Y18552789D01*
X26570054Y18563800D01*
X26431255Y18612368D01*
X26252000Y18632565D01*
X26072745Y18612368D01*
X26072742Y18612368D01*
X26072742Y18612367D01*
X25902477Y18552789D01*
X25902474Y18552788D01*
X25749739Y18456818D01*
X25749737Y18456817D01*
X25622183Y18329263D01*
X25622182Y18329261D01*
X25526212Y18176526D01*
X25526211Y18176523D01*
X25526211Y18176522D01*
X25466632Y18006255D01*
X25446435Y17827000D01*
X25466632Y17647745D01*
X25476658Y17619093D01*
X25506931Y17532577D01*
X25510551Y17461673D01*
X25475261Y17400068D01*
X25419397Y17370468D01*
X25419683Y17369587D01*
X25414648Y17367951D01*
X25414209Y17367718D01*
X25413406Y17367548D01*
X25413403Y17367547D01*
X25240467Y17290551D01*
X25240467Y17290550D01*
X25087326Y17179287D01*
X24960666Y17038617D01*
X24960665Y17038615D01*
X24866022Y16874687D01*
X24866018Y16874679D01*
X24807525Y16694657D01*
X24787740Y16506400D01*
X12827684Y16506400D01*
X12934516Y16543782D01*
X13087256Y16639755D01*
X13214810Y16767309D01*
X13310783Y16920049D01*
X13370362Y17090316D01*
X13390559Y17269571D01*
X13370362Y17448826D01*
X13310783Y17619093D01*
X13310781Y17619096D01*
X13310781Y17619097D01*
X13214811Y17771832D01*
X13214810Y17771834D01*
X13087256Y17899388D01*
X13087254Y17899389D01*
X12934519Y17995359D01*
X12934516Y17995360D01*
X12764254Y18054938D01*
X12764240Y18054941D01*
X12689952Y18063312D01*
X12624500Y18090816D01*
X12614967Y18099424D01*
X12239685Y18474706D01*
X12205659Y18537018D01*
X12210724Y18607833D01*
X12239685Y18652896D01*
X13408144Y19821355D01*
X13852389Y20265600D01*
X24533740Y20265600D01*
X24553525Y20077344D01*
X24612018Y19897322D01*
X24612022Y19897314D01*
X24706665Y19733386D01*
X24706666Y19733384D01*
X24833326Y19592714D01*
X24986467Y19481451D01*
X24986467Y19481450D01*
X25033812Y19460371D01*
X25159397Y19404456D01*
X25344554Y19365100D01*
X25533846Y19365100D01*
X25719003Y19404456D01*
X25891930Y19481449D01*
X25891930Y19481450D01*
X25891932Y19481450D01*
X25891932Y19481451D01*
X26045071Y19592712D01*
X26076279Y19627374D01*
X26136724Y19664613D01*
X26153464Y19667984D01*
X26248962Y19680556D01*
X26328995Y19713707D01*
X26363101Y19722506D01*
X26532855Y19741632D01*
X26703122Y19801211D01*
X26855862Y19897184D01*
X26983416Y20024738D01*
X27079389Y20177478D01*
X27102596Y20243800D01*
X34576635Y20243800D01*
X34596832Y20064545D01*
X34656411Y19894278D01*
X34656412Y19894275D01*
X34752382Y19741540D01*
X34752383Y19741538D01*
X34879937Y19613984D01*
X34879939Y19613983D01*
X35032674Y19518013D01*
X35032675Y19518013D01*
X35032678Y19518011D01*
X35202945Y19458432D01*
X35382200Y19438235D01*
X35561455Y19458432D01*
X35731722Y19518011D01*
X35741231Y19523987D01*
X35808269Y19543300D01*
X37351253Y19543300D01*
X37419374Y19523298D01*
X37440348Y19506395D01*
X38095709Y18851034D01*
X38125543Y18803554D01*
X38161611Y18700478D01*
X38161612Y18700475D01*
X38257582Y18547740D01*
X38257583Y18547738D01*
X38385137Y18420184D01*
X38385139Y18420183D01*
X38537874Y18324213D01*
X38537875Y18324213D01*
X38537878Y18324211D01*
X38708145Y18264632D01*
X38887400Y18244435D01*
X39066655Y18264632D01*
X39236922Y18324211D01*
X39389662Y18420184D01*
X39517216Y18547738D01*
X39613189Y18700478D01*
X39672768Y18870745D01*
X39692965Y19050000D01*
X39672768Y19229255D01*
X39613189Y19399522D01*
X39613187Y19399525D01*
X39613187Y19399526D01*
X39517217Y19552261D01*
X39517216Y19552263D01*
X39389662Y19679817D01*
X39389660Y19679818D01*
X39236925Y19775788D01*
X39236922Y19775789D01*
X39133846Y19811857D01*
X39086366Y19841691D01*
X38773352Y20154705D01*
X38739326Y20217017D01*
X38744391Y20287832D01*
X38773349Y20332893D01*
X39163275Y20722820D01*
X39166005Y20725390D01*
X39212417Y20766505D01*
X39247651Y20817552D01*
X39249855Y20820547D01*
X39288112Y20869377D01*
X39292195Y20878452D01*
X39303399Y20898317D01*
X39309052Y20906504D01*
X39331042Y20964489D01*
X39332474Y20967947D01*
X39357929Y21024502D01*
X39359724Y21034299D01*
X39365846Y21056262D01*
X39369374Y21065562D01*
X39376844Y21127092D01*
X39377415Y21130839D01*
X39388592Y21191828D01*
X39384849Y21253701D01*
X39384734Y21257506D01*
X39384734Y22021800D01*
X43545135Y22021800D01*
X43565332Y21842545D01*
X43573833Y21818251D01*
X43624911Y21672278D01*
X43624912Y21672275D01*
X43720882Y21519540D01*
X43720883Y21519538D01*
X43848437Y21391984D01*
X43848439Y21391983D01*
X44001174Y21296013D01*
X44001175Y21296013D01*
X44001178Y21296011D01*
X44171445Y21236432D01*
X44350700Y21216235D01*
X44529955Y21236432D01*
X44700222Y21296011D01*
X44852962Y21391984D01*
X44980516Y21519538D01*
X45076489Y21672278D01*
X45136068Y21842545D01*
X45156265Y22021800D01*
X45136068Y22201055D01*
X45076489Y22371322D01*
X45070510Y22380838D01*
X45051200Y22447870D01*
X45051200Y24942800D01*
X46870235Y24942800D01*
X46890432Y24763545D01*
X46936129Y24632951D01*
X46950011Y24593278D01*
X46950012Y24593275D01*
X47045982Y24440540D01*
X47045983Y24440538D01*
X47173537Y24312984D01*
X47173539Y24312983D01*
X47326274Y24217013D01*
X47326275Y24217013D01*
X47326278Y24217011D01*
X47496545Y24157432D01*
X47675800Y24137235D01*
X47855055Y24157432D01*
X48025322Y24217011D01*
X48178062Y24312984D01*
X48305616Y24440538D01*
X48401589Y24593278D01*
X48437656Y24696356D01*
X48467488Y24743833D01*
X49275253Y25551596D01*
X49337565Y25585621D01*
X49364348Y25588500D01*
X50610053Y25588500D01*
X50678174Y25568498D01*
X50699148Y25551595D01*
X53437309Y22813434D01*
X53467143Y22765954D01*
X53503211Y22662878D01*
X53503212Y22662875D01*
X53599182Y22510140D01*
X53599183Y22510138D01*
X53726737Y22382584D01*
X53726739Y22382583D01*
X53879474Y22286613D01*
X53879475Y22286613D01*
X53879478Y22286611D01*
X54049745Y22227032D01*
X54229000Y22206835D01*
X54408255Y22227032D01*
X54578522Y22286611D01*
X54731262Y22382584D01*
X54858816Y22510138D01*
X54954789Y22662878D01*
X55014368Y22833145D01*
X55034565Y23012400D01*
X55014368Y23191655D01*
X54967625Y23325238D01*
X58039153Y23325238D01*
X58049134Y23090296D01*
X58049136Y23090283D01*
X58098680Y22860401D01*
X58178052Y22662878D01*
X58186363Y22642195D01*
X58309662Y22441944D01*
X58465030Y22265411D01*
X58647998Y22117676D01*
X58853301Y22002986D01*
X58911378Y21982466D01*
X59075026Y21924645D01*
X59075030Y21924645D01*
X59075034Y21924643D01*
X59306817Y21884900D01*
X59306820Y21884900D01*
X59483089Y21884900D01*
X59570903Y21892374D01*
X59658719Y21899848D01*
X59820677Y21942019D01*
X59886290Y21959103D01*
X59886290Y21959104D01*
X59886297Y21959105D01*
X60100587Y22055970D01*
X60295424Y22187657D01*
X60465203Y22350378D01*
X60605041Y22539451D01*
X60710913Y22749436D01*
X60779775Y22974294D01*
X60779775Y22974299D01*
X60779777Y22974305D01*
X60809646Y23207555D01*
X60809646Y23207563D01*
X60799665Y23442505D01*
X60799665Y23442510D01*
X60750120Y23672397D01*
X60662437Y23890605D01*
X60539138Y24090856D01*
X60398628Y24250507D01*
X72904791Y24250507D01*
X72904791Y17775805D01*
X75020938Y17775805D01*
X75020938Y24250507D01*
X72904791Y24250507D01*
X60398628Y24250507D01*
X60383770Y24267389D01*
X60200802Y24415124D01*
X60200800Y24415125D01*
X60200799Y24415126D01*
X59995503Y24529812D01*
X59995500Y24529814D01*
X59773773Y24608156D01*
X59708819Y24619294D01*
X59541983Y24647900D01*
X59365712Y24647900D01*
X59365711Y24647900D01*
X59190081Y24632953D01*
X59190074Y24632951D01*
X58962509Y24573698D01*
X58748218Y24476833D01*
X58748212Y24476830D01*
X58553377Y24345144D01*
X58553369Y24345138D01*
X58383602Y24182429D01*
X58243757Y23993347D01*
X58137888Y23783366D01*
X58137883Y23783354D01*
X58069024Y23558505D01*
X58069022Y23558496D01*
X58039153Y23325246D01*
X58039153Y23325238D01*
X54967625Y23325238D01*
X54954789Y23361922D01*
X54954787Y23361925D01*
X54954787Y23361926D01*
X54858817Y23514661D01*
X54858816Y23514663D01*
X54731262Y23642217D01*
X54731260Y23642218D01*
X54578525Y23738188D01*
X54578522Y23738189D01*
X54475446Y23774257D01*
X54427966Y23804091D01*
X53080317Y25151740D01*
X51464029Y26768028D01*
X51461445Y26770773D01*
X51420329Y26817183D01*
X51420326Y26817186D01*
X51369314Y26852397D01*
X51366248Y26854653D01*
X51317459Y26892877D01*
X51317457Y26892878D01*
X51317455Y26892879D01*
X51308381Y26896963D01*
X51288520Y26908165D01*
X51280330Y26913818D01*
X51280328Y26913819D01*
X51222383Y26935795D01*
X51218869Y26937251D01*
X51162333Y26962695D01*
X51162329Y26962696D01*
X51152530Y26964492D01*
X51130576Y26970612D01*
X51121268Y26974142D01*
X51059748Y26981611D01*
X51055986Y26982184D01*
X50995007Y26993359D01*
X50987400Y26993818D01*
X50987547Y26996255D01*
X50929903Y27009459D01*
X50880256Y27060209D01*
X50865500Y27119376D01*
X50865500Y28325238D01*
X58039153Y28325238D01*
X58049134Y28090296D01*
X58049136Y28090283D01*
X58098680Y27860401D01*
X58183273Y27649885D01*
X58186363Y27642195D01*
X58309662Y27441944D01*
X58390250Y27350378D01*
X58464563Y27265941D01*
X58465030Y27265411D01*
X58647998Y27117676D01*
X58853301Y27002986D01*
X58911378Y26982466D01*
X59075026Y26924645D01*
X59075030Y26924645D01*
X59075034Y26924643D01*
X59306817Y26884900D01*
X59306820Y26884900D01*
X59483089Y26884900D01*
X59576837Y26892879D01*
X59658719Y26899848D01*
X59820677Y26942019D01*
X59886290Y26959103D01*
X59886290Y26959104D01*
X59886297Y26959105D01*
X60100587Y27055970D01*
X60295424Y27187657D01*
X60397467Y27285458D01*
X60465197Y27350372D01*
X60465197Y27350373D01*
X60465203Y27350378D01*
X60605041Y27539451D01*
X60710913Y27749436D01*
X60779775Y27974294D01*
X60779775Y27974299D01*
X60779777Y27974305D01*
X60809646Y28207555D01*
X60809646Y28207563D01*
X60799665Y28442505D01*
X60799665Y28442510D01*
X60750120Y28672397D01*
X60662437Y28890605D01*
X60539138Y29090856D01*
X60383770Y29267389D01*
X60200802Y29415124D01*
X60200800Y29415125D01*
X60200799Y29415126D01*
X59995503Y29529812D01*
X59995500Y29529814D01*
X59773773Y29608156D01*
X59708819Y29619294D01*
X59541983Y29647900D01*
X59365712Y29647900D01*
X59365711Y29647900D01*
X59190081Y29632953D01*
X59190074Y29632951D01*
X58962509Y29573698D01*
X58748218Y29476833D01*
X58748212Y29476830D01*
X58553377Y29345144D01*
X58553369Y29345138D01*
X58383602Y29182429D01*
X58243757Y28993347D01*
X58137888Y28783366D01*
X58137883Y28783354D01*
X58069024Y28558505D01*
X58069022Y28558496D01*
X58039153Y28325246D01*
X58039153Y28325238D01*
X50865500Y28325238D01*
X50865500Y30079331D01*
X50884814Y30146369D01*
X50890789Y30155878D01*
X50950368Y30326145D01*
X50970565Y30505400D01*
X50950368Y30684655D01*
X50890789Y30854922D01*
X50890787Y30854925D01*
X50890787Y30854926D01*
X50794817Y31007661D01*
X50794816Y31007663D01*
X50667262Y31135217D01*
X50667260Y31135218D01*
X50514525Y31231188D01*
X50514522Y31231189D01*
X50344255Y31290768D01*
X50165000Y31310965D01*
X49985745Y31290768D01*
X49985742Y31290768D01*
X49985742Y31290767D01*
X49815477Y31231189D01*
X49815474Y31231188D01*
X49662739Y31135218D01*
X49662737Y31135217D01*
X49535183Y31007663D01*
X49535182Y31007661D01*
X49439212Y30854926D01*
X49439211Y30854923D01*
X49439211Y30854922D01*
X49379632Y30684655D01*
X49359435Y30505400D01*
X49379632Y30326145D01*
X49379633Y30326143D01*
X49439211Y30155878D01*
X49439210Y30155878D01*
X49445186Y30146369D01*
X49464500Y30079331D01*
X49464500Y27115500D01*
X49444498Y27047379D01*
X49390842Y27000886D01*
X49338500Y26989500D01*
X49045061Y26989500D01*
X49041259Y26989615D01*
X48979394Y26993357D01*
X48979393Y26993357D01*
X48979392Y26993357D01*
X48918430Y26982186D01*
X48914671Y26981614D01*
X48910370Y26981092D01*
X48853134Y26974142D01*
X48853132Y26974141D01*
X48853130Y26974141D01*
X48853128Y26974140D01*
X48843817Y26970609D01*
X48821863Y26964490D01*
X48812072Y26962696D01*
X48812068Y26962695D01*
X48755549Y26937258D01*
X48752035Y26935802D01*
X48694071Y26913819D01*
X48694069Y26913818D01*
X48685872Y26908160D01*
X48666018Y26896962D01*
X48656946Y26892879D01*
X48656944Y26892878D01*
X48608152Y26854653D01*
X48605088Y26852399D01*
X48554069Y26817182D01*
X48512961Y26770782D01*
X48510353Y26768011D01*
X47476832Y25734491D01*
X47429353Y25704657D01*
X47326275Y25668588D01*
X47326274Y25668588D01*
X47173539Y25572618D01*
X47173537Y25572617D01*
X47045983Y25445063D01*
X47045982Y25445061D01*
X46950012Y25292326D01*
X46950011Y25292323D01*
X46900818Y25151736D01*
X46890432Y25122055D01*
X46870235Y24942800D01*
X45051200Y24942800D01*
X45051200Y26979608D01*
X45071202Y27047729D01*
X45088099Y27068699D01*
X45104826Y27085426D01*
X45152304Y27115259D01*
X45255382Y27151326D01*
X45408122Y27247299D01*
X45535676Y27374853D01*
X45631649Y27527593D01*
X45691228Y27697860D01*
X45711425Y27877115D01*
X45691228Y28056370D01*
X45631649Y28226637D01*
X45631647Y28226640D01*
X45631647Y28226641D01*
X45535677Y28379376D01*
X45535676Y28379378D01*
X45408122Y28506932D01*
X45408120Y28506933D01*
X45255385Y28602903D01*
X45255382Y28602904D01*
X45085115Y28662483D01*
X44905860Y28682680D01*
X44726605Y28662483D01*
X44726602Y28662483D01*
X44726602Y28662482D01*
X44556337Y28602904D01*
X44556334Y28602903D01*
X44403599Y28506933D01*
X44403597Y28506932D01*
X44276043Y28379378D01*
X44276042Y28379376D01*
X44180072Y28226641D01*
X44180072Y28226640D01*
X44144003Y28123562D01*
X44114169Y28076083D01*
X43871689Y27833602D01*
X43868918Y27830994D01*
X43822516Y27789884D01*
X43822515Y27789884D01*
X43787298Y27738864D01*
X43785044Y27735801D01*
X43746824Y27687015D01*
X43746819Y27687008D01*
X43742738Y27677939D01*
X43731540Y27658083D01*
X43725882Y27649886D01*
X43703901Y27591929D01*
X43702445Y27588414D01*
X43677004Y27531887D01*
X43677004Y27531886D01*
X43675208Y27522086D01*
X43669088Y27500134D01*
X43665560Y27490832D01*
X43665559Y27490825D01*
X43658089Y27429303D01*
X43657516Y27425541D01*
X43646342Y27364561D01*
X43648531Y27328368D01*
X43650085Y27302690D01*
X43650200Y27298885D01*
X43650200Y22447870D01*
X43630889Y22380838D01*
X43624911Y22371322D01*
X43587851Y22265411D01*
X43567355Y22206835D01*
X43565332Y22201055D01*
X43545135Y22021800D01*
X39384734Y22021800D01*
X39384734Y22875030D01*
X39404048Y22942068D01*
X39410023Y22951577D01*
X39469602Y23121844D01*
X39489799Y23301099D01*
X39469602Y23480354D01*
X39410023Y23650621D01*
X39410021Y23650624D01*
X39410021Y23650625D01*
X39314051Y23803360D01*
X39314050Y23803362D01*
X39186496Y23930916D01*
X39186494Y23930917D01*
X39033759Y24026887D01*
X39033756Y24026888D01*
X39029898Y24028238D01*
X38863489Y24086467D01*
X38684234Y24106664D01*
X38504979Y24086467D01*
X38504976Y24086467D01*
X38504976Y24086466D01*
X38334711Y24026888D01*
X38334708Y24026887D01*
X38181973Y23930917D01*
X38181971Y23930916D01*
X38054417Y23803362D01*
X38054416Y23803360D01*
X37958446Y23650625D01*
X37958445Y23650622D01*
X37902222Y23489945D01*
X37898866Y23480354D01*
X37878669Y23301099D01*
X37898866Y23121844D01*
X37917779Y23067795D01*
X37958445Y22951577D01*
X37958444Y22951577D01*
X37964420Y22942068D01*
X37983734Y22875030D01*
X37983734Y21576781D01*
X37963732Y21508660D01*
X37946829Y21487686D01*
X37440348Y20981205D01*
X37378036Y20947179D01*
X37351253Y20944300D01*
X35808269Y20944300D01*
X35741231Y20963614D01*
X35739908Y20964445D01*
X35731722Y20969589D01*
X35561455Y21029168D01*
X35382200Y21049365D01*
X35202945Y21029168D01*
X35202942Y21029168D01*
X35202942Y21029167D01*
X35032677Y20969589D01*
X35032674Y20969588D01*
X34879939Y20873618D01*
X34879937Y20873617D01*
X34752383Y20746063D01*
X34752382Y20746061D01*
X34656412Y20593326D01*
X34656411Y20593323D01*
X34656411Y20593322D01*
X34596832Y20423055D01*
X34576635Y20243800D01*
X27102596Y20243800D01*
X27138968Y20347745D01*
X27159165Y20527000D01*
X27138968Y20706255D01*
X27079389Y20876522D01*
X27079387Y20876525D01*
X27079387Y20876526D01*
X26983417Y21029261D01*
X26983416Y21029263D01*
X26855862Y21156817D01*
X26855860Y21156818D01*
X26703125Y21252788D01*
X26703122Y21252789D01*
X26689642Y21257506D01*
X26532855Y21312368D01*
X26353600Y21332565D01*
X26174345Y21312368D01*
X26174342Y21312368D01*
X26174342Y21312367D01*
X26004077Y21252789D01*
X26004075Y21252788D01*
X25851340Y21156818D01*
X25851333Y21156813D01*
X25850777Y21156256D01*
X25850329Y21156012D01*
X25845811Y21152408D01*
X25845179Y21153201D01*
X25788462Y21122236D01*
X25725465Y21125390D01*
X25725462Y21125371D01*
X25725347Y21125396D01*
X25722757Y21125525D01*
X25719009Y21126743D01*
X25533846Y21166100D01*
X25344554Y21166100D01*
X25159399Y21126745D01*
X24986467Y21049751D01*
X24986467Y21049750D01*
X24833326Y20938487D01*
X24706666Y20797817D01*
X24706665Y20797815D01*
X24612022Y20633887D01*
X24612018Y20633879D01*
X24553525Y20453857D01*
X24533740Y20265600D01*
X13852389Y20265600D01*
X14607631Y21020843D01*
X14619968Y21030724D01*
X14619770Y21030963D01*
X14625870Y21036011D01*
X14625877Y21036014D01*
X14673241Y21086452D01*
X14694120Y21107330D01*
X14698347Y21112781D01*
X14702182Y21117272D01*
X14734062Y21151218D01*
X14743637Y21168638D01*
X14754493Y21185161D01*
X14766674Y21200864D01*
X14785170Y21243611D01*
X14787760Y21248899D01*
X14810197Y21289708D01*
X14815139Y21308959D01*
X14821538Y21327650D01*
X14829438Y21345905D01*
X14836721Y21391899D01*
X14837923Y21397695D01*
X14849499Y21442775D01*
X14849500Y21442782D01*
X14849500Y21462656D01*
X14851051Y21482366D01*
X14851321Y21484073D01*
X14854160Y21501996D01*
X14852024Y21524591D01*
X14849780Y21548337D01*
X14849500Y21554269D01*
X14849500Y22456227D01*
X14868812Y22523261D01*
X14922175Y22608187D01*
X14981754Y22778454D01*
X14982207Y22782470D01*
X14986980Y22824839D01*
X15014483Y22890292D01*
X15023083Y22899818D01*
X15115631Y22992366D01*
X15127968Y23002247D01*
X15127770Y23002486D01*
X15133870Y23007534D01*
X15133877Y23007537D01*
X15181241Y23057975D01*
X15202120Y23078853D01*
X15206347Y23084304D01*
X15210182Y23088795D01*
X15242062Y23122741D01*
X15251637Y23140161D01*
X15262493Y23156684D01*
X15274674Y23172387D01*
X15293170Y23215134D01*
X15295760Y23220422D01*
X15318197Y23261231D01*
X15323139Y23280482D01*
X15329538Y23299173D01*
X15337438Y23317428D01*
X15344721Y23363422D01*
X15345923Y23369218D01*
X15357499Y23414298D01*
X15357500Y23414305D01*
X15357500Y23434179D01*
X15359051Y23453889D01*
X15360580Y23463544D01*
X15362160Y23473519D01*
X15361514Y23480357D01*
X15357780Y23519860D01*
X15357500Y23525792D01*
X15357500Y23669200D01*
X24125635Y23669200D01*
X24145832Y23489945D01*
X24188076Y23369218D01*
X24205411Y23319678D01*
X24205410Y23319678D01*
X24211386Y23310169D01*
X24230700Y23243131D01*
X24230700Y23133472D01*
X24230585Y23129667D01*
X24226842Y23067795D01*
X24238016Y23006814D01*
X24238589Y23003052D01*
X24246058Y22941532D01*
X24249588Y22932224D01*
X24255708Y22910270D01*
X24257504Y22900471D01*
X24257505Y22900467D01*
X24282949Y22843931D01*
X24284405Y22840417D01*
X24294638Y22813434D01*
X24306382Y22782470D01*
X24312035Y22774280D01*
X24323237Y22754419D01*
X24327322Y22745343D01*
X24327323Y22745341D01*
X24365547Y22696552D01*
X24367803Y22693486D01*
X24403014Y22642474D01*
X24403018Y22642470D01*
X24411131Y22635283D01*
X24449427Y22601355D01*
X24452172Y22598771D01*
X24511489Y22539454D01*
X24512194Y22538749D01*
X24546220Y22476437D01*
X24548408Y22462827D01*
X24553525Y22414146D01*
X24553526Y22414140D01*
X24612018Y22234122D01*
X24612022Y22234114D01*
X24706665Y22070186D01*
X24706666Y22070184D01*
X24833326Y21929514D01*
X24986467Y21818251D01*
X24986467Y21818250D01*
X25033812Y21797171D01*
X25159397Y21741256D01*
X25344554Y21701900D01*
X25533846Y21701900D01*
X25719003Y21741256D01*
X25891930Y21818249D01*
X25891930Y21818250D01*
X25891932Y21818250D01*
X25891932Y21818251D01*
X26045071Y21929512D01*
X26111228Y22002986D01*
X26171733Y22070184D01*
X26171734Y22070186D01*
X26199152Y22117676D01*
X26266379Y22234116D01*
X26324874Y22414144D01*
X26344660Y22602400D01*
X26324874Y22790656D01*
X26317473Y22813434D01*
X26266381Y22970679D01*
X26266377Y22970687D01*
X26264293Y22974296D01*
X26203933Y23078844D01*
X26171734Y23134615D01*
X26171733Y23134617D01*
X26045073Y23275287D01*
X25891932Y23386550D01*
X25891927Y23386553D01*
X25798139Y23428311D01*
X25744044Y23474291D01*
X25723395Y23542218D01*
X25724179Y23557503D01*
X25736765Y23669200D01*
X25716568Y23848455D01*
X25656989Y24018722D01*
X25651010Y24028238D01*
X25631700Y24095270D01*
X25631700Y25654000D01*
X32290635Y25654000D01*
X32310832Y25474745D01*
X32370410Y25304480D01*
X32370411Y25304478D01*
X32370412Y25304475D01*
X32466382Y25151740D01*
X32466383Y25151738D01*
X32593937Y25024184D01*
X32593939Y25024183D01*
X32746674Y24928213D01*
X32746675Y24928213D01*
X32746678Y24928211D01*
X32916945Y24868632D01*
X33096200Y24848435D01*
X33275455Y24868632D01*
X33445722Y24928211D01*
X33598462Y25024184D01*
X33726016Y25151738D01*
X33821989Y25304478D01*
X33858056Y25407556D01*
X33887888Y25455033D01*
X34238453Y25805596D01*
X34300765Y25839621D01*
X34327548Y25842500D01*
X38330531Y25842500D01*
X38397568Y25823187D01*
X38407078Y25817211D01*
X38577345Y25757632D01*
X38756600Y25737435D01*
X38935855Y25757632D01*
X39106122Y25817211D01*
X39258862Y25913184D01*
X39386416Y26040738D01*
X39482389Y26193478D01*
X39541968Y26363745D01*
X39562165Y26543000D01*
X39541968Y26722255D01*
X39482389Y26892522D01*
X39482387Y26892525D01*
X39482387Y26892526D01*
X39386417Y27045261D01*
X39386416Y27045263D01*
X39258862Y27172817D01*
X39258860Y27172818D01*
X39106125Y27268788D01*
X39106122Y27268789D01*
X39084422Y27276382D01*
X38935855Y27328368D01*
X38756600Y27348565D01*
X38577345Y27328368D01*
X38577342Y27328368D01*
X38577342Y27328367D01*
X38407077Y27268789D01*
X38397569Y27262814D01*
X38330531Y27243500D01*
X34008272Y27243500D01*
X34004468Y27243615D01*
X33942594Y27247358D01*
X33942593Y27247358D01*
X33942591Y27247358D01*
X33881612Y27236184D01*
X33877850Y27235611D01*
X33816328Y27228141D01*
X33807017Y27224610D01*
X33785063Y27218491D01*
X33775273Y27216697D01*
X33718738Y27191254D01*
X33715224Y27189798D01*
X33657268Y27167818D01*
X33649072Y27162160D01*
X33629216Y27150962D01*
X33620147Y27146881D01*
X33620140Y27146876D01*
X33571354Y27108656D01*
X33568291Y27106402D01*
X33517271Y27071185D01*
X33517271Y27071184D01*
X33476161Y27024782D01*
X33473553Y27022011D01*
X32897232Y26445691D01*
X32849753Y26415857D01*
X32746675Y26379788D01*
X32746674Y26379788D01*
X32593939Y26283818D01*
X32593937Y26283817D01*
X32466383Y26156263D01*
X32466382Y26156261D01*
X32370412Y26003526D01*
X32370411Y26003523D01*
X32310833Y25833258D01*
X32310832Y25833255D01*
X32290635Y25654000D01*
X25631700Y25654000D01*
X25631700Y26578051D01*
X25651702Y26646172D01*
X25668600Y26667142D01*
X26552567Y27551110D01*
X26600044Y27580942D01*
X26703122Y27617009D01*
X26855862Y27712982D01*
X26983416Y27840536D01*
X27079389Y27993276D01*
X27138968Y28163543D01*
X27159165Y28342798D01*
X27138968Y28522053D01*
X27089830Y28662482D01*
X27086571Y28671796D01*
X27079500Y28713411D01*
X27079500Y32359599D01*
X54845834Y32359599D01*
X54866031Y32180344D01*
X54907834Y32060878D01*
X54925610Y32010077D01*
X54925611Y32010074D01*
X55021581Y31857339D01*
X55021582Y31857337D01*
X55149136Y31729783D01*
X55149138Y31729782D01*
X55301873Y31633812D01*
X55301874Y31633812D01*
X55301877Y31633810D01*
X55472144Y31574231D01*
X55651399Y31554034D01*
X55830654Y31574231D01*
X56000921Y31633810D01*
X56091281Y31690588D01*
X56158317Y31709900D01*
X58806731Y31709900D01*
X58873768Y31690587D01*
X58883278Y31684611D01*
X59053545Y31625032D01*
X59232800Y31604835D01*
X59412055Y31625032D01*
X59582322Y31684611D01*
X59735062Y31780584D01*
X59862616Y31908138D01*
X59958589Y32060878D01*
X60018168Y32231145D01*
X60038365Y32410400D01*
X60018168Y32589655D01*
X59958589Y32759922D01*
X59958587Y32759925D01*
X59958587Y32759926D01*
X59862617Y32912661D01*
X59862616Y32912663D01*
X59735062Y33040217D01*
X59735060Y33040218D01*
X59582325Y33136188D01*
X59582322Y33136189D01*
X59499516Y33165164D01*
X59412055Y33195768D01*
X59232800Y33215965D01*
X59053545Y33195768D01*
X59053542Y33195768D01*
X59053542Y33195767D01*
X58883277Y33136189D01*
X58873769Y33130214D01*
X58806731Y33110900D01*
X55949419Y33110900D01*
X55907804Y33117971D01*
X55830654Y33144967D01*
X55651399Y33165164D01*
X55472144Y33144967D01*
X55472141Y33144967D01*
X55472141Y33144966D01*
X55301876Y33085388D01*
X55301873Y33085387D01*
X55149138Y32989417D01*
X55149136Y32989416D01*
X55021582Y32861862D01*
X55021581Y32861860D01*
X54925611Y32709125D01*
X54925610Y32709122D01*
X54883808Y32589658D01*
X54866031Y32538854D01*
X54845834Y32359599D01*
X27079500Y32359599D01*
X27079500Y35126930D01*
X27079615Y35130735D01*
X27083358Y35192606D01*
X27072181Y35253596D01*
X27071610Y35257343D01*
X27064140Y35318872D01*
X27060610Y35328178D01*
X27054488Y35350146D01*
X27052695Y35359931D01*
X27027240Y35416488D01*
X27025805Y35419952D01*
X27003818Y35477930D01*
X26998162Y35486124D01*
X26986961Y35505984D01*
X26982878Y35515056D01*
X26963082Y35540324D01*
X26944653Y35563847D01*
X26942397Y35566913D01*
X26907184Y35617927D01*
X26907185Y35617927D01*
X26860789Y35659030D01*
X26858017Y35661639D01*
X26611889Y35907768D01*
X26582056Y35955248D01*
X26545989Y36058322D01*
X26545987Y36058325D01*
X26545987Y36058326D01*
X26450017Y36211061D01*
X26450016Y36211063D01*
X26322462Y36338617D01*
X26322460Y36338618D01*
X26169725Y36434588D01*
X26169722Y36434589D01*
X25999455Y36494168D01*
X25820200Y36514365D01*
X25640945Y36494168D01*
X25640942Y36494168D01*
X25640942Y36494167D01*
X25470677Y36434589D01*
X25470674Y36434588D01*
X25317939Y36338618D01*
X25317937Y36338617D01*
X25190383Y36211063D01*
X25190382Y36211061D01*
X25094412Y36058326D01*
X25094411Y36058323D01*
X25094411Y36058322D01*
X25034832Y35888055D01*
X25014635Y35708800D01*
X25034832Y35529545D01*
X25043075Y35505989D01*
X25094411Y35359278D01*
X25094412Y35359275D01*
X25190382Y35206540D01*
X25190383Y35206538D01*
X25317937Y35078984D01*
X25317939Y35078983D01*
X25470674Y34983013D01*
X25470675Y34983013D01*
X25470678Y34983011D01*
X25573752Y34946944D01*
X25621230Y34917113D01*
X25641593Y34896751D01*
X25675620Y34834439D01*
X25678500Y34807653D01*
X25678500Y28809291D01*
X25659187Y28742254D01*
X25627811Y28692321D01*
X25591743Y28589245D01*
X25561909Y28541766D01*
X24452189Y27432045D01*
X24449418Y27429437D01*
X24403016Y27388327D01*
X24403015Y27388327D01*
X24367798Y27337307D01*
X24365544Y27334244D01*
X24327324Y27285458D01*
X24327319Y27285451D01*
X24323238Y27276382D01*
X24312040Y27256526D01*
X24306382Y27248329D01*
X24284401Y27190372D01*
X24282945Y27186857D01*
X24257504Y27130330D01*
X24257504Y27130329D01*
X24255708Y27120529D01*
X24249588Y27098577D01*
X24246060Y27089275D01*
X24246059Y27089268D01*
X24238589Y27027746D01*
X24238016Y27023984D01*
X24227115Y26964492D01*
X24226842Y26963004D01*
X24229817Y26913819D01*
X24230585Y26901133D01*
X24230700Y26897328D01*
X24230700Y24095270D01*
X24211390Y24028238D01*
X24205410Y24018722D01*
X24160581Y23890606D01*
X24145832Y23848455D01*
X24125635Y23669200D01*
X15357500Y23669200D01*
X15357500Y28689969D01*
X15376813Y28757005D01*
X15409666Y28809291D01*
X15457789Y28885878D01*
X15517368Y29056145D01*
X15537565Y29235400D01*
X15517368Y29414655D01*
X15457789Y29584922D01*
X15457787Y29584925D01*
X15457787Y29584926D01*
X15376813Y29713796D01*
X15357500Y29780832D01*
X15357500Y31589946D01*
X15377502Y31658067D01*
X15431158Y31704560D01*
X15501432Y31714664D01*
X15525107Y31708878D01*
X15619545Y31675832D01*
X15798800Y31655635D01*
X15978055Y31675832D01*
X16148322Y31735411D01*
X16301062Y31831384D01*
X16428616Y31958938D01*
X16524589Y32111678D01*
X16584168Y32281945D01*
X16604365Y32461200D01*
X16584168Y32640455D01*
X16524589Y32810722D01*
X16524587Y32810725D01*
X16524587Y32810726D01*
X16443613Y32939596D01*
X16424300Y33006632D01*
X16424300Y38347520D01*
X16444302Y38415641D01*
X16461205Y38436615D01*
X18534971Y40510380D01*
X18534986Y40510398D01*
X27625185Y49600596D01*
X27687497Y49634622D01*
X27714280Y49637501D01*
X28165719Y49637501D01*
X28233840Y49617499D01*
X28254814Y49600596D01*
X33423342Y44432067D01*
X33433226Y44419732D01*
X33433464Y44419928D01*
X33438516Y44413821D01*
X33488937Y44366472D01*
X33509825Y44345583D01*
X33509833Y44345576D01*
X33515273Y44341356D01*
X33519787Y44337501D01*
X33553720Y44305636D01*
X33571141Y44296059D01*
X33587654Y44285213D01*
X33603366Y44273025D01*
X33603369Y44273023D01*
X33646084Y44254539D01*
X33651417Y44251926D01*
X33692207Y44229502D01*
X33692209Y44229502D01*
X33692210Y44229501D01*
X33711456Y44224560D01*
X33730158Y44218157D01*
X33748406Y44210260D01*
X33775962Y44205896D01*
X33794389Y44202977D01*
X33800185Y44201778D01*
X33845283Y44190198D01*
X33865158Y44190198D01*
X33884867Y44188648D01*
X33904498Y44185538D01*
X33938699Y44188771D01*
X33950837Y44189918D01*
X33956770Y44190198D01*
X34202877Y44190198D01*
X34269913Y44170885D01*
X34398783Y44089911D01*
X34398784Y44089911D01*
X34398787Y44089909D01*
X34569054Y44030330D01*
X34748309Y44010133D01*
X34927564Y44030330D01*
X35097831Y44089909D01*
X35162847Y44130761D01*
X35226705Y44170885D01*
X35293741Y44190198D01*
X37511132Y44190198D01*
X37526841Y44188464D01*
X37526871Y44188771D01*
X37534763Y44188025D01*
X37534764Y44188026D01*
X37534765Y44188025D01*
X37603912Y44190198D01*
X37633448Y44190198D01*
X37640277Y44191062D01*
X37646186Y44191527D01*
X37692725Y44192989D01*
X37711809Y44198535D01*
X37731168Y44202544D01*
X37750890Y44205034D01*
X37794178Y44222174D01*
X37799778Y44224092D01*
X37844488Y44237080D01*
X37861596Y44247199D01*
X37879343Y44255893D01*
X37897830Y44263212D01*
X37935494Y44290578D01*
X37940442Y44293829D01*
X37980518Y44317528D01*
X37994573Y44331584D01*
X38009609Y44344425D01*
X38025685Y44356104D01*
X38055368Y44391987D01*
X38059335Y44396347D01*
X40809783Y47146794D01*
X40872093Y47180818D01*
X40884771Y47182905D01*
X40899044Y47184513D01*
X40899044Y47184514D01*
X40899052Y47184514D01*
X41069319Y47244093D01*
X41222059Y47340066D01*
X41349613Y47467620D01*
X41445586Y47620360D01*
X41505165Y47790627D01*
X41525362Y47969882D01*
X41505165Y48149137D01*
X41445586Y48319404D01*
X41445584Y48319407D01*
X41445584Y48319408D01*
X41349614Y48472143D01*
X41349613Y48472145D01*
X41222059Y48599699D01*
X41222057Y48599700D01*
X41069322Y48695670D01*
X41069319Y48695671D01*
X40899052Y48755250D01*
X40719797Y48775447D01*
X40540542Y48755250D01*
X40540539Y48755250D01*
X40540539Y48755249D01*
X40370274Y48695671D01*
X40370271Y48695670D01*
X40217536Y48599700D01*
X40217534Y48599699D01*
X40089980Y48472145D01*
X40089979Y48472143D01*
X39994009Y48319408D01*
X39994008Y48319405D01*
X39934429Y48149140D01*
X39934428Y48149133D01*
X39925584Y48070649D01*
X39898080Y48005197D01*
X39889472Y47995664D01*
X37371912Y45478103D01*
X37309600Y45444078D01*
X37282817Y45441198D01*
X35293741Y45441198D01*
X35226705Y45460511D01*
X35097834Y45541486D01*
X35097831Y45541487D01*
X35037656Y45562543D01*
X34927564Y45601066D01*
X34748309Y45621263D01*
X34569054Y45601066D01*
X34569051Y45601066D01*
X34569051Y45601065D01*
X34398786Y45541487D01*
X34398785Y45541487D01*
X34289996Y45473131D01*
X34221675Y45453826D01*
X34153762Y45474522D01*
X34133866Y45490724D01*
X30202185Y49422406D01*
X30168159Y49484718D01*
X30173224Y49555534D01*
X30215771Y49612369D01*
X30282291Y49637180D01*
X30291280Y49637501D01*
X31273516Y49637501D01*
X31273518Y49637501D01*
X31367304Y49652354D01*
X31480342Y49709950D01*
X31570050Y49799658D01*
X31627646Y49912696D01*
X31627647Y49912709D01*
X31630163Y49920447D01*
X31670232Y49979055D01*
X31735627Y50006697D01*
X31805585Y49994595D01*
X31857894Y49946593D01*
X31869831Y49920459D01*
X31872352Y49912699D01*
X31929949Y49799658D01*
X32019657Y49709950D01*
X32058299Y49690262D01*
X32132696Y49652354D01*
X32226481Y49637500D01*
X33813518Y49637501D01*
X33907304Y49652354D01*
X34020342Y49709950D01*
X34110050Y49799658D01*
X34167646Y49912696D01*
X34167647Y49912709D01*
X34170163Y49920447D01*
X34210232Y49979055D01*
X34275627Y50006697D01*
X34345585Y49994595D01*
X34397894Y49946593D01*
X34409831Y49920459D01*
X34412352Y49912699D01*
X34469949Y49799658D01*
X34559657Y49709950D01*
X34598299Y49690262D01*
X34672696Y49652354D01*
X34766481Y49637500D01*
X36353518Y49637501D01*
X36447304Y49652354D01*
X36560342Y49709950D01*
X36650050Y49799658D01*
X36707646Y49912696D01*
X36707647Y49912709D01*
X36710163Y49920447D01*
X36750232Y49979055D01*
X36815627Y50006697D01*
X36885585Y49994595D01*
X36937894Y49946593D01*
X36949831Y49920459D01*
X36952352Y49912699D01*
X37009949Y49799658D01*
X37099657Y49709950D01*
X37138299Y49690262D01*
X37212696Y49652354D01*
X37306481Y49637500D01*
X38893518Y49637501D01*
X38987304Y49652354D01*
X39100342Y49709950D01*
X39190050Y49799658D01*
X39247646Y49912696D01*
X39247647Y49912709D01*
X39250163Y49920447D01*
X39290232Y49979055D01*
X39355627Y50006697D01*
X39425585Y49994595D01*
X39477894Y49946593D01*
X39489831Y49920459D01*
X39492352Y49912699D01*
X39549949Y49799658D01*
X39639657Y49709950D01*
X39678299Y49690262D01*
X39752696Y49652354D01*
X39846481Y49637500D01*
X41433518Y49637501D01*
X41527304Y49652354D01*
X41640342Y49709950D01*
X41730050Y49799658D01*
X41787646Y49912696D01*
X41787647Y49912709D01*
X41790163Y49920447D01*
X41830232Y49979055D01*
X41895627Y50006697D01*
X41965585Y49994595D01*
X42017894Y49946593D01*
X42029831Y49920459D01*
X42032352Y49912699D01*
X42089949Y49799658D01*
X42179657Y49709950D01*
X42218299Y49690262D01*
X42292696Y49652354D01*
X42386481Y49637500D01*
X43661500Y49637501D01*
X43729621Y49617499D01*
X43776114Y49563843D01*
X43787500Y49511501D01*
X43787500Y46510281D01*
X43767498Y46442160D01*
X43750595Y46421186D01*
X42489014Y45159605D01*
X42426702Y45125579D01*
X42399919Y45122700D01*
X40589632Y45122700D01*
X40522596Y45142013D01*
X40393725Y45222988D01*
X40393722Y45222989D01*
X40223455Y45282568D01*
X40044200Y45302765D01*
X39864945Y45282568D01*
X39864942Y45282568D01*
X39864942Y45282567D01*
X39694677Y45222989D01*
X39694674Y45222988D01*
X39541939Y45127018D01*
X39541937Y45127017D01*
X39414383Y44999463D01*
X39414382Y44999461D01*
X39318412Y44846726D01*
X39318411Y44846723D01*
X39299972Y44794027D01*
X39258832Y44676455D01*
X39238635Y44497200D01*
X39258832Y44317945D01*
X39299482Y44201773D01*
X39318411Y44147678D01*
X39318412Y44147675D01*
X39414382Y43994940D01*
X39414383Y43994938D01*
X39541937Y43867384D01*
X39541939Y43867383D01*
X39694674Y43771413D01*
X39694675Y43771413D01*
X39694678Y43771411D01*
X39864945Y43711832D01*
X40044200Y43691635D01*
X40223455Y43711832D01*
X40393722Y43771411D01*
X40407218Y43779892D01*
X40522596Y43852387D01*
X40589632Y43871700D01*
X42628234Y43871700D01*
X42643943Y43869966D01*
X42643973Y43870273D01*
X42651865Y43869527D01*
X42651866Y43869528D01*
X42651867Y43869527D01*
X42721014Y43871700D01*
X42750550Y43871700D01*
X42757379Y43872564D01*
X42763288Y43873029D01*
X42809827Y43874491D01*
X42828911Y43880037D01*
X42848270Y43884046D01*
X42867992Y43886536D01*
X42911280Y43903676D01*
X42916880Y43905594D01*
X42961590Y43918582D01*
X42978698Y43928701D01*
X42996445Y43937395D01*
X43014932Y43944714D01*
X43052596Y43972080D01*
X43057544Y43975331D01*
X43097620Y43999030D01*
X43111675Y44013086D01*
X43126711Y44025927D01*
X43142787Y44037606D01*
X43172470Y44073489D01*
X43176437Y44077849D01*
X44796631Y45698043D01*
X44808968Y45707924D01*
X44808770Y45708163D01*
X44814870Y45713211D01*
X44814877Y45713214D01*
X44862241Y45763652D01*
X44883120Y45784530D01*
X44887347Y45789981D01*
X44891182Y45794472D01*
X44923062Y45828418D01*
X44932637Y45845838D01*
X44943493Y45862361D01*
X44955674Y45878064D01*
X44974170Y45920811D01*
X44976760Y45926099D01*
X44999197Y45966908D01*
X45004139Y45986159D01*
X45010538Y46004850D01*
X45018438Y46023105D01*
X45025721Y46069099D01*
X45026923Y46074895D01*
X45038499Y46119975D01*
X45038500Y46119982D01*
X45038500Y46139856D01*
X45040051Y46159566D01*
X45040321Y46161273D01*
X45043160Y46179196D01*
X45043160Y46179197D01*
X45038780Y46225537D01*
X45038500Y46231469D01*
X45038500Y49511501D01*
X45058502Y49579622D01*
X45112158Y49626115D01*
X45164500Y49637501D01*
X46513516Y49637501D01*
X46513518Y49637501D01*
X46607304Y49652354D01*
X46720342Y49709950D01*
X46810050Y49799658D01*
X46867646Y49912696D01*
X46882500Y50006481D01*
X46882500Y50006484D01*
X49637500Y50006484D01*
X49652353Y49912698D01*
X49709949Y49799658D01*
X49799657Y49709950D01*
X49838299Y49690262D01*
X49912696Y49652354D01*
X50006481Y49637500D01*
X51593518Y49637501D01*
X51687304Y49652354D01*
X51708897Y49663357D01*
X51778672Y49676461D01*
X51844457Y49649762D01*
X51885364Y49591735D01*
X51892100Y49551090D01*
X51892100Y42786759D01*
X51885030Y42745150D01*
X51868832Y42698855D01*
X51848635Y42519600D01*
X51868832Y42340345D01*
X51920115Y42193787D01*
X51928411Y42170078D01*
X51928412Y42170075D01*
X52024382Y42017340D01*
X52024383Y42017338D01*
X52151937Y41889784D01*
X52151939Y41889783D01*
X52304674Y41793813D01*
X52304675Y41793813D01*
X52304678Y41793811D01*
X52474945Y41734232D01*
X52654200Y41714035D01*
X52833455Y41734232D01*
X52912894Y41762030D01*
X52954509Y41769100D01*
X58576792Y41769100D01*
X58618406Y41762030D01*
X58635545Y41756032D01*
X58814800Y41735835D01*
X58994055Y41756032D01*
X59164322Y41815611D01*
X59317062Y41911584D01*
X59444616Y42039138D01*
X59540589Y42191878D01*
X59600168Y42362145D01*
X59620365Y42541400D01*
X59600168Y42720655D01*
X59540589Y42890922D01*
X59540587Y42890925D01*
X59540587Y42890926D01*
X59444617Y43043661D01*
X59444616Y43043663D01*
X59317062Y43171217D01*
X59317060Y43171218D01*
X59164325Y43267188D01*
X59164322Y43267189D01*
X59135795Y43277171D01*
X58994055Y43326768D01*
X58814800Y43346965D01*
X58635545Y43326768D01*
X58498961Y43278975D01*
X58493805Y43277171D01*
X58452190Y43270100D01*
X53519100Y43270100D01*
X53450979Y43290102D01*
X53404486Y43343758D01*
X53393100Y43396100D01*
X53393100Y49511501D01*
X53413102Y49579622D01*
X53466758Y49626115D01*
X53519100Y49637501D01*
X54133516Y49637501D01*
X54133518Y49637501D01*
X54227304Y49652354D01*
X54340342Y49709950D01*
X54430050Y49799658D01*
X54487646Y49912696D01*
X54487647Y49912709D01*
X54490163Y49920447D01*
X54530232Y49979055D01*
X54595627Y50006697D01*
X54665585Y49994595D01*
X54717894Y49946593D01*
X54729831Y49920459D01*
X54732352Y49912699D01*
X54789949Y49799658D01*
X54879657Y49709950D01*
X54918299Y49690262D01*
X54992696Y49652354D01*
X55086481Y49637500D01*
X55128499Y49637501D01*
X55196618Y49617500D01*
X55243113Y49563846D01*
X55254500Y49511501D01*
X55254500Y44868269D01*
X55235188Y44801235D01*
X55197071Y44740571D01*
X55168009Y44694319D01*
X55108433Y44524058D01*
X55108432Y44524055D01*
X55088235Y44344800D01*
X55108432Y44165545D01*
X55159327Y44020095D01*
X55168011Y43995278D01*
X55168012Y43995275D01*
X55263982Y43842540D01*
X55263983Y43842538D01*
X55391537Y43714984D01*
X55391539Y43714983D01*
X55544274Y43619013D01*
X55544275Y43619013D01*
X55544278Y43619011D01*
X55714545Y43559432D01*
X55893800Y43539235D01*
X56073055Y43559432D01*
X56243322Y43619011D01*
X56256818Y43627492D01*
X56372196Y43699987D01*
X56439232Y43719300D01*
X68500919Y43719300D01*
X68569040Y43699298D01*
X68590015Y43682395D01*
X68701793Y43570616D01*
X68735818Y43508304D01*
X68737904Y43495632D01*
X68743130Y43449253D01*
X68743133Y43449240D01*
X68802711Y43278978D01*
X68802712Y43278975D01*
X68898682Y43126240D01*
X68898683Y43126238D01*
X69026237Y42998684D01*
X69026239Y42998683D01*
X69178974Y42902713D01*
X69178975Y42902713D01*
X69178978Y42902711D01*
X69349245Y42843132D01*
X69392203Y42838292D01*
X69395629Y42837906D01*
X69461082Y42810403D01*
X69470617Y42801793D01*
X70457601Y41814809D01*
X70491627Y41752497D01*
X70494506Y41725714D01*
X70494506Y30263432D01*
X70475193Y30196396D01*
X70394218Y30067526D01*
X70394217Y30067523D01*
X70394217Y30067522D01*
X70334638Y29897255D01*
X70314441Y29718000D01*
X70334638Y29538745D01*
X70334639Y29538743D01*
X70394217Y29368478D01*
X70394218Y29368475D01*
X70490188Y29215740D01*
X70490189Y29215738D01*
X70617743Y29088184D01*
X70617745Y29088183D01*
X70770480Y28992213D01*
X70770481Y28992213D01*
X70770484Y28992211D01*
X70940751Y28932632D01*
X71120006Y28912435D01*
X71299261Y28932632D01*
X71469528Y28992211D01*
X71622268Y29088184D01*
X71749822Y29215738D01*
X71845795Y29368478D01*
X71905374Y29538745D01*
X71925571Y29718000D01*
X71905374Y29897255D01*
X71845795Y30067522D01*
X71845793Y30067525D01*
X71845793Y30067526D01*
X71764819Y30196396D01*
X71745506Y30263432D01*
X71745506Y39859231D01*
X72981118Y39859231D01*
X72981118Y34027807D01*
X75097265Y34027807D01*
X75097265Y39859231D01*
X72981118Y39859231D01*
X71745506Y39859231D01*
X71745506Y41954036D01*
X71747240Y41969746D01*
X71746932Y41969775D01*
X71747678Y41977663D01*
X71745506Y42046792D01*
X71745506Y42076340D01*
X71745506Y42076344D01*
X71744640Y42083193D01*
X71744177Y42089077D01*
X71742715Y42135622D01*
X71737169Y42154707D01*
X71733160Y42174065D01*
X71730670Y42193786D01*
X71713528Y42237080D01*
X71711608Y42242691D01*
X71709600Y42249600D01*
X71698623Y42287384D01*
X71688503Y42304495D01*
X71679810Y42322241D01*
X71672492Y42340726D01*
X71645121Y42378399D01*
X71641872Y42383346D01*
X71618176Y42423415D01*
X71618174Y42423418D01*
X71604123Y42437469D01*
X71591283Y42452502D01*
X71579601Y42468580D01*
X71579599Y42468582D01*
X71572404Y42474534D01*
X71543724Y42498260D01*
X71539351Y42502240D01*
X70355207Y43686384D01*
X70321181Y43748696D01*
X70319094Y43761372D01*
X70313868Y43807754D01*
X70313868Y43807755D01*
X70254289Y43978022D01*
X70254287Y43978025D01*
X70254287Y43978026D01*
X70158317Y44130761D01*
X70158316Y44130763D01*
X70030762Y44258317D01*
X70030760Y44258318D01*
X69878025Y44354288D01*
X69878022Y44354289D01*
X69707760Y44413867D01*
X69707747Y44413870D01*
X69661367Y44419096D01*
X69595915Y44446601D01*
X69586383Y44455208D01*
X69313160Y44728431D01*
X69303276Y44740769D01*
X69303037Y44740571D01*
X69297983Y44746681D01*
X69247564Y44794027D01*
X69226677Y44814915D01*
X69226669Y44814922D01*
X69221223Y44819148D01*
X69216714Y44822999D01*
X69182783Y44854862D01*
X69182781Y44854863D01*
X69165357Y44864442D01*
X69148833Y44875297D01*
X69133137Y44887472D01*
X69133136Y44887473D01*
X69110792Y44897143D01*
X69090406Y44905965D01*
X69085075Y44908577D01*
X69044294Y44930996D01*
X69044290Y44930998D01*
X69025046Y44935939D01*
X69006343Y44942342D01*
X68988096Y44950238D01*
X68988093Y44950239D01*
X68942123Y44957520D01*
X68936311Y44958724D01*
X68891220Y44970300D01*
X68891219Y44970300D01*
X68871344Y44970300D01*
X68851634Y44971851D01*
X68832004Y44974960D01*
X68832003Y44974960D01*
X68785665Y44970580D01*
X68779732Y44970300D01*
X56636500Y44970300D01*
X56568379Y44990302D01*
X56521886Y45043958D01*
X56510500Y45096300D01*
X56510500Y49511501D01*
X56530502Y49579622D01*
X56584158Y49626115D01*
X56636500Y49637501D01*
X56673516Y49637501D01*
X56673518Y49637501D01*
X56767304Y49652354D01*
X56880342Y49709950D01*
X56970050Y49799658D01*
X57027646Y49912696D01*
X57042500Y50006481D01*
X57042499Y51593518D01*
X57027646Y51687304D01*
X56998848Y51743823D01*
X56970050Y51800343D01*
X56880342Y51890051D01*
X56767304Y51947646D01*
X56759547Y51950166D01*
X56700941Y51990239D01*
X56673303Y52055635D01*
X56685408Y52125592D01*
X56733413Y52177899D01*
X56759547Y52189834D01*
X56767297Y52192354D01*
X56767304Y52192354D01*
X56880342Y52249950D01*
X56970050Y52339658D01*
X57027646Y52452696D01*
X57042500Y52546481D01*
X57042499Y54133518D01*
X57027646Y54227304D01*
X56998848Y54283823D01*
X56970050Y54340343D01*
X56880342Y54430051D01*
X56804502Y54468693D01*
X56767304Y54487646D01*
X56673519Y54502500D01*
X56673515Y54502500D01*
X55086483Y54502500D01*
X54992697Y54487647D01*
X54879657Y54430051D01*
X54789949Y54340343D01*
X54732352Y54227302D01*
X54729833Y54219546D01*
X54689760Y54160940D01*
X54624363Y54133303D01*
X54554406Y54145410D01*
X54502100Y54193416D01*
X54490167Y54219546D01*
X54487647Y54227302D01*
X54430050Y54340343D01*
X54340342Y54430051D01*
X54264502Y54468693D01*
X54227304Y54487646D01*
X54133519Y54502500D01*
X54133515Y54502500D01*
X52546483Y54502500D01*
X52452697Y54487647D01*
X52339657Y54430051D01*
X52249949Y54340343D01*
X52192352Y54227302D01*
X52189833Y54219546D01*
X52149760Y54160940D01*
X52084363Y54133303D01*
X52014406Y54145410D01*
X51962100Y54193416D01*
X51950167Y54219546D01*
X51947647Y54227302D01*
X51890050Y54340343D01*
X51800342Y54430051D01*
X51724502Y54468693D01*
X51687304Y54487646D01*
X51593519Y54502500D01*
X51593515Y54502500D01*
X50006483Y54502500D01*
X49912697Y54487647D01*
X49799657Y54430051D01*
X49709949Y54340343D01*
X49652355Y54227306D01*
X49652354Y54227304D01*
X49637500Y54133519D01*
X49637500Y54133516D01*
X49637500Y52546484D01*
X49652353Y52452698D01*
X49709949Y52339658D01*
X49799657Y52249950D01*
X49857253Y52220604D01*
X49912696Y52192354D01*
X49912700Y52192354D01*
X49920448Y52189836D01*
X49979055Y52149766D01*
X50006696Y52084371D01*
X49994593Y52014413D01*
X49946590Y51962105D01*
X49920460Y51950170D01*
X49912701Y51947649D01*
X49799657Y51890051D01*
X49709949Y51800343D01*
X49652355Y51687306D01*
X49652354Y51687304D01*
X49637500Y51593519D01*
X49637500Y51593516D01*
X49637500Y50006484D01*
X46882500Y50006484D01*
X46882499Y51593518D01*
X46867646Y51687304D01*
X46838848Y51743823D01*
X46810050Y51800343D01*
X46720342Y51890051D01*
X46607304Y51947646D01*
X46599547Y51950166D01*
X46540941Y51990239D01*
X46513303Y52055635D01*
X46525408Y52125592D01*
X46573413Y52177899D01*
X46599547Y52189834D01*
X46607297Y52192354D01*
X46607304Y52192354D01*
X46720342Y52249950D01*
X46810050Y52339658D01*
X46867646Y52452696D01*
X46882500Y52546481D01*
X46882499Y54133518D01*
X46867646Y54227304D01*
X46838848Y54283823D01*
X46810050Y54340343D01*
X46720342Y54430051D01*
X46644502Y54468693D01*
X46607304Y54487646D01*
X46513519Y54502500D01*
X46513515Y54502500D01*
X44926483Y54502500D01*
X44832697Y54487647D01*
X44719657Y54430051D01*
X44629949Y54340343D01*
X44572352Y54227302D01*
X44569833Y54219546D01*
X44529760Y54160940D01*
X44464363Y54133303D01*
X44394406Y54145410D01*
X44342100Y54193416D01*
X44330167Y54219546D01*
X44327647Y54227302D01*
X44270050Y54340343D01*
X44180342Y54430051D01*
X44104502Y54468693D01*
X44067304Y54487646D01*
X43973519Y54502500D01*
X43973515Y54502500D01*
X42386483Y54502500D01*
X42292697Y54487647D01*
X42179657Y54430051D01*
X42089949Y54340343D01*
X42032352Y54227302D01*
X42029833Y54219546D01*
X41989760Y54160940D01*
X41924363Y54133303D01*
X41854406Y54145410D01*
X41802100Y54193416D01*
X41790167Y54219546D01*
X41787647Y54227302D01*
X41730050Y54340343D01*
X41640342Y54430051D01*
X41564502Y54468693D01*
X41527304Y54487646D01*
X41433519Y54502500D01*
X41433515Y54502500D01*
X39846483Y54502500D01*
X39752697Y54487647D01*
X39639657Y54430051D01*
X39549949Y54340343D01*
X39492352Y54227302D01*
X39489833Y54219546D01*
X39449760Y54160940D01*
X39384363Y54133303D01*
X39314406Y54145410D01*
X39262100Y54193416D01*
X39250167Y54219546D01*
X39247647Y54227302D01*
X39190050Y54340343D01*
X39100342Y54430051D01*
X39024502Y54468693D01*
X38987304Y54487646D01*
X38893519Y54502500D01*
X38893515Y54502500D01*
X37306483Y54502500D01*
X37212697Y54487647D01*
X37099657Y54430051D01*
X37009949Y54340343D01*
X36952352Y54227302D01*
X36949833Y54219546D01*
X36909760Y54160940D01*
X36844363Y54133303D01*
X36774406Y54145410D01*
X36722100Y54193416D01*
X36710167Y54219546D01*
X36707647Y54227302D01*
X36650050Y54340343D01*
X36560342Y54430051D01*
X36484502Y54468693D01*
X36447304Y54487646D01*
X36353519Y54502500D01*
X36353515Y54502500D01*
X34766483Y54502500D01*
X34672697Y54487647D01*
X34559657Y54430051D01*
X34469949Y54340343D01*
X34412352Y54227302D01*
X34409833Y54219546D01*
X34369760Y54160940D01*
X34304363Y54133303D01*
X34234406Y54145410D01*
X34182100Y54193416D01*
X34170167Y54219546D01*
X34167647Y54227302D01*
X34110050Y54340343D01*
X34020342Y54430051D01*
X33944502Y54468693D01*
X33907304Y54487646D01*
X33813519Y54502500D01*
X33813515Y54502500D01*
X32226483Y54502500D01*
X32132697Y54487647D01*
X32019657Y54430051D01*
X31929949Y54340343D01*
X31872352Y54227302D01*
X31869833Y54219546D01*
X31829760Y54160940D01*
X31764363Y54133303D01*
X31694406Y54145410D01*
X31642100Y54193416D01*
X31630167Y54219546D01*
X31627647Y54227302D01*
X31570050Y54340343D01*
X31480342Y54430051D01*
X31404502Y54468693D01*
X31367304Y54487646D01*
X31273519Y54502500D01*
X31273515Y54502500D01*
X29686483Y54502500D01*
X29592697Y54487647D01*
X29479657Y54430051D01*
X29389949Y54340343D01*
X29332352Y54227302D01*
X29329833Y54219546D01*
X29289760Y54160940D01*
X29224363Y54133303D01*
X29154406Y54145410D01*
X29102100Y54193416D01*
X29090167Y54219546D01*
X29087647Y54227302D01*
X29030050Y54340343D01*
X28940342Y54430051D01*
X28864502Y54468693D01*
X28827304Y54487646D01*
X28733519Y54502500D01*
X28733515Y54502500D01*
X27146483Y54502500D01*
X27052697Y54487647D01*
X26939657Y54430051D01*
X26849949Y54340343D01*
X26792352Y54227302D01*
X26789833Y54219546D01*
X26749760Y54160940D01*
X26684363Y54133303D01*
X26614406Y54145410D01*
X26562100Y54193416D01*
X26550167Y54219546D01*
X26547647Y54227302D01*
X26490050Y54340343D01*
X26400342Y54430051D01*
X26324502Y54468693D01*
X26287304Y54487646D01*
X26193519Y54502500D01*
X26193515Y54502500D01*
X24606483Y54502500D01*
X24512697Y54487647D01*
X24399657Y54430051D01*
X24309949Y54340343D01*
X24252355Y54227306D01*
X24252354Y54227304D01*
X24237500Y54133519D01*
X24237500Y54133516D01*
X24237500Y52546484D01*
X24252353Y52452698D01*
X24309949Y52339658D01*
X24399657Y52249950D01*
X24457253Y52220604D01*
X24512696Y52192354D01*
X24512700Y52192354D01*
X24520448Y52189836D01*
X24579055Y52149766D01*
X24606696Y52084371D01*
X24594593Y52014413D01*
X24546590Y51962105D01*
X24520460Y51950170D01*
X24512701Y51947649D01*
X24399657Y51890051D01*
X24309949Y51800343D01*
X24252355Y51687306D01*
X24252354Y51687304D01*
X24237500Y51593519D01*
X24237500Y51593516D01*
X24237500Y50574282D01*
X24217498Y50506161D01*
X24200595Y50485187D01*
X15981676Y42266269D01*
X15919364Y42232243D01*
X15848549Y42237308D01*
X15825545Y42248677D01*
X15781125Y42276588D01*
X15781122Y42276589D01*
X15701391Y42304488D01*
X15610855Y42336168D01*
X15431600Y42356365D01*
X15252345Y42336168D01*
X15252342Y42336168D01*
X15252342Y42336167D01*
X15082077Y42276589D01*
X15082074Y42276588D01*
X14929339Y42180618D01*
X14929337Y42180617D01*
X14801783Y42053063D01*
X14801782Y42053061D01*
X14705812Y41900326D01*
X14705811Y41900323D01*
X14646233Y41730061D01*
X14646230Y41730048D01*
X14641004Y41683669D01*
X14613499Y41618217D01*
X14604892Y41608685D01*
X14348365Y41352158D01*
X14336031Y41342275D01*
X14336228Y41342037D01*
X14330124Y41336988D01*
X14307984Y41313412D01*
X14282773Y41286565D01*
X14272326Y41276118D01*
X14261877Y41265669D01*
X14257647Y41260217D01*
X14253800Y41255714D01*
X14221940Y41221786D01*
X14221935Y41221779D01*
X14212357Y41204357D01*
X14201508Y41187842D01*
X14189331Y41172144D01*
X14189327Y41172136D01*
X14170839Y41129416D01*
X14168228Y41124086D01*
X14145802Y41083291D01*
X14140860Y41064042D01*
X14134458Y41045343D01*
X14126561Y41027095D01*
X14119279Y40981121D01*
X14118075Y40975310D01*
X14106500Y40930219D01*
X14106500Y40910345D01*
X14104949Y40890635D01*
X14101840Y40871005D01*
X14101840Y40871004D01*
X14106220Y40824666D01*
X14106500Y40818733D01*
X14106500Y29780832D01*
X14087187Y29713796D01*
X14006212Y29584926D01*
X14006211Y29584923D01*
X13990053Y29538745D01*
X13946632Y29414655D01*
X13926435Y29235400D01*
X13946632Y29056145D01*
X13989850Y28932634D01*
X14006211Y28885878D01*
X14006212Y28885876D01*
X14087187Y28757005D01*
X14106500Y28689969D01*
X14106500Y23863750D01*
X14086498Y23795629D01*
X14032842Y23749136D01*
X14022115Y23744821D01*
X13846863Y23683498D01*
X13846860Y23683497D01*
X13694125Y23587527D01*
X13694123Y23587526D01*
X13566569Y23459972D01*
X13566568Y23459970D01*
X13470598Y23307235D01*
X13470597Y23307232D01*
X13435719Y23207555D01*
X13411018Y23136964D01*
X13390821Y22957709D01*
X13411018Y22778454D01*
X13458601Y22642471D01*
X13470597Y22608187D01*
X13470598Y22608184D01*
X13566568Y22455449D01*
X13570978Y22449919D01*
X13568157Y22447670D01*
X13595132Y22400266D01*
X13598500Y22371327D01*
X13598500Y21833082D01*
X13578498Y21764961D01*
X13561595Y21743987D01*
X11080901Y19263294D01*
X11018589Y19229268D01*
X10947773Y19234333D01*
X10924771Y19245701D01*
X10854922Y19289589D01*
X10684655Y19349168D01*
X10505400Y19369365D01*
X10326145Y19349168D01*
X10326142Y19349168D01*
X10326142Y19349167D01*
X10155877Y19289589D01*
X10155874Y19289588D01*
X10003139Y19193618D01*
X10003137Y19193617D01*
X9875583Y19066063D01*
X9875582Y19066061D01*
X9779612Y18913326D01*
X9779611Y18913323D01*
X9739830Y18799635D01*
X9720032Y18743055D01*
X9699835Y18563800D01*
X5834500Y18563800D01*
X5834500Y19605200D01*
X7437835Y19605200D01*
X7458032Y19425945D01*
X7484898Y19349167D01*
X7517611Y19255678D01*
X7517612Y19255675D01*
X7613582Y19102940D01*
X7613583Y19102938D01*
X7741137Y18975384D01*
X7741139Y18975383D01*
X7893874Y18879413D01*
X7893875Y18879413D01*
X7893878Y18879411D01*
X8064145Y18819832D01*
X8243400Y18799635D01*
X8422655Y18819832D01*
X8592922Y18879411D01*
X8745662Y18975384D01*
X8873216Y19102938D01*
X8969189Y19255678D01*
X9028768Y19425945D01*
X9048965Y19605200D01*
X9028768Y19784455D01*
X8969189Y19954722D01*
X8969187Y19954725D01*
X8969187Y19954726D01*
X8888213Y20083596D01*
X8868900Y20150632D01*
X8868900Y42788921D01*
X8888902Y42857042D01*
X8905800Y42878011D01*
X10936432Y44908644D01*
X10998744Y44942669D01*
X11011420Y44944756D01*
X11015485Y44945215D01*
X11115053Y44956432D01*
X11285320Y45016011D01*
X11438060Y45111984D01*
X11565614Y45239538D01*
X11661587Y45392278D01*
X11721166Y45562545D01*
X11741363Y45741800D01*
X11721166Y45921055D01*
X11661587Y46091322D01*
X11661585Y46091325D01*
X11661585Y46091326D01*
X11565615Y46244061D01*
X11565614Y46244063D01*
X11438060Y46371617D01*
X11438058Y46371618D01*
X11285323Y46467588D01*
X11285320Y46467589D01*
X11163313Y46510281D01*
X11115053Y46527168D01*
X10935798Y46547365D01*
X10756543Y46527168D01*
X10756540Y46527168D01*
X10756540Y46527167D01*
X10586275Y46467589D01*
X10586272Y46467588D01*
X10433537Y46371618D01*
X10433535Y46371617D01*
X10305981Y46244063D01*
X10305980Y46244061D01*
X10210010Y46091326D01*
X10210009Y46091323D01*
X10150430Y45921058D01*
X10149859Y45918554D01*
X10149029Y45917054D01*
X10148093Y45914377D01*
X10147638Y45914537D01*
X10116115Y45857507D01*
X7859765Y43601158D01*
X7847431Y43591275D01*
X7847628Y43591037D01*
X7841524Y43585988D01*
X7827089Y43570616D01*
X7794173Y43535565D01*
X7783726Y43525118D01*
X7773277Y43514669D01*
X7769047Y43509217D01*
X7765200Y43504714D01*
X7733340Y43470786D01*
X7733335Y43470779D01*
X7723757Y43453357D01*
X7712908Y43436842D01*
X7700731Y43421144D01*
X7700727Y43421136D01*
X7682239Y43378416D01*
X7679628Y43373086D01*
X7657202Y43332291D01*
X7652260Y43313042D01*
X7645858Y43294343D01*
X7637961Y43276095D01*
X7630679Y43230121D01*
X7629475Y43224310D01*
X7617900Y43179219D01*
X7617900Y43159345D01*
X7616349Y43139635D01*
X7613240Y43120005D01*
X7613240Y43120004D01*
X7617620Y43073666D01*
X7617900Y43067733D01*
X7617900Y20150632D01*
X7598587Y20083596D01*
X7517612Y19954726D01*
X7517611Y19954723D01*
X7463895Y19801211D01*
X7458032Y19784455D01*
X7437835Y19605200D01*
X5834500Y19605200D01*
X5834500Y54999500D01*
X5854502Y55067621D01*
X5908158Y55114114D01*
X5960500Y55125500D01*
X60419815Y55125500D01*
X60487936Y55105498D01*
G37*
%TD.AperFunction*%
%TD*%
M02*
