M48
; DRILL file {KiCad 7.0.8-7.0.8~ubuntu23.04.1} date Thu Nov  9 23:42:43 2023
; FORMAT={-:-/ absolute / metric / decimal}
; #@! TF.CreationDate,2023-11-09T23:42:43+00:00
; #@! TF.GenerationSoftware,Kicad,Pcbnew,7.0.8-7.0.8~ubuntu23.04.1
; #@! TF.FileFunction,Plated,1,2,PTH
FMAT,2
METRIC
; #@! TA.AperFunction,Plated,PTH,ViaDrill
T1C0.400
; #@! TA.AperFunction,Plated,PTH,ComponentDrill
T2C0.762
; #@! TA.AperFunction,Plated,PTH,ComponentDrill
T3C0.889
; #@! TA.AperFunction,Plated,PTH,ComponentDrill
T4C3.000
%
G90
G05
T1
X48.158Y27.711
X50.836Y26.756
X54.229Y23.012
X71.12Y29.718
T2
X59.424Y28.266
X59.424Y23.266
T3
X22.86Y53.34
X22.86Y50.8
X25.4Y53.34
X25.4Y50.8
X27.94Y53.34
X27.94Y50.8
X30.48Y53.34
X30.48Y50.8
X33.02Y53.34
X33.02Y50.8
X35.56Y53.34
X35.56Y50.8
X38.1Y53.34
X38.1Y50.8
X40.64Y53.34
X40.64Y50.8
X43.18Y53.34
X43.18Y50.8
X45.72Y53.34
X45.72Y50.8
X48.26Y53.34
X48.26Y50.8
X50.8Y53.34
X50.8Y50.8
X53.34Y53.34
X53.34Y50.8
X55.88Y53.34
X55.88Y50.8
X58.42Y53.34
X58.42Y50.8
T4
X10.16Y50.8
X10.16Y10.16
X71.12Y50.8
X71.12Y10.16
T0
M30
