%TF.GenerationSoftware,KiCad,Pcbnew,7.0.8-7.0.8~ubuntu23.04.1*%
%TF.CreationDate,2023-11-09T23:42:43+00:00*%
%TF.ProjectId,AIRDOS04_base,41495244-4f53-4303-945f-626173652e6b,REV*%
%TF.SameCoordinates,PX66dd020PY81342c0*%
%TF.FileFunction,Legend,Top*%
%TF.FilePolarity,Positive*%
%FSLAX46Y46*%
G04 Gerber Fmt 4.6, Leading zero omitted, Abs format (unit mm)*
G04 Created by KiCad (PCBNEW 7.0.8-7.0.8~ubuntu23.04.1) date 2023-11-09 23:42:43*
%MOMM*%
%LPD*%
G01*
G04 APERTURE LIST*
%ADD10C,0.300000*%
%ADD11C,0.150000*%
%ADD12C,0.100000*%
G04 APERTURE END LIST*
D10*
X7790328Y14379143D02*
X6290328Y14379143D01*
X7218900Y14522000D02*
X7790328Y14950572D01*
X6790328Y14950572D02*
X7361757Y14379143D01*
X7790328Y16236286D02*
X7004614Y16236286D01*
X7004614Y16236286D02*
X6861757Y16164858D01*
X6861757Y16164858D02*
X6790328Y16022001D01*
X6790328Y16022001D02*
X6790328Y15736286D01*
X6790328Y15736286D02*
X6861757Y15593429D01*
X7718900Y16236286D02*
X7790328Y16093429D01*
X7790328Y16093429D02*
X7790328Y15736286D01*
X7790328Y15736286D02*
X7718900Y15593429D01*
X7718900Y15593429D02*
X7576042Y15522001D01*
X7576042Y15522001D02*
X7433185Y15522001D01*
X7433185Y15522001D02*
X7290328Y15593429D01*
X7290328Y15593429D02*
X7218900Y15736286D01*
X7218900Y15736286D02*
X7218900Y16093429D01*
X7218900Y16093429D02*
X7147471Y16236286D01*
X7790328Y16950572D02*
X6290328Y16950572D01*
X7218900Y17093429D02*
X7790328Y17522001D01*
X6790328Y17522001D02*
X7361757Y16950572D01*
X7790328Y18379144D02*
X7718900Y18236287D01*
X7718900Y18236287D02*
X7576042Y18164858D01*
X7576042Y18164858D02*
X6290328Y18164858D01*
X7790328Y18950572D02*
X6790328Y18950572D01*
X6290328Y18950572D02*
X6361757Y18879144D01*
X6361757Y18879144D02*
X6433185Y18950572D01*
X6433185Y18950572D02*
X6361757Y19022001D01*
X6361757Y19022001D02*
X6290328Y18950572D01*
X6290328Y18950572D02*
X6433185Y18950572D01*
X7790328Y19664858D02*
X6290328Y19664858D01*
X7218900Y19807715D02*
X7790328Y20236287D01*
X6790328Y20236287D02*
X7361757Y19664858D01*
X72969957Y16216316D02*
X72969957Y16930601D01*
X73398528Y16073459D02*
X71898528Y16573459D01*
X71898528Y16573459D02*
X73398528Y17073459D01*
X73398528Y17573458D02*
X71898528Y17573458D01*
X73398528Y19144887D02*
X72684242Y18644887D01*
X73398528Y18287744D02*
X71898528Y18287744D01*
X71898528Y18287744D02*
X71898528Y18859173D01*
X71898528Y18859173D02*
X71969957Y19002030D01*
X71969957Y19002030D02*
X72041385Y19073459D01*
X72041385Y19073459D02*
X72184242Y19144887D01*
X72184242Y19144887D02*
X72398528Y19144887D01*
X72398528Y19144887D02*
X72541385Y19073459D01*
X72541385Y19073459D02*
X72612814Y19002030D01*
X72612814Y19002030D02*
X72684242Y18859173D01*
X72684242Y18859173D02*
X72684242Y18287744D01*
X73398528Y19787744D02*
X71898528Y19787744D01*
X71898528Y19787744D02*
X71898528Y20144887D01*
X71898528Y20144887D02*
X71969957Y20359173D01*
X71969957Y20359173D02*
X72112814Y20502030D01*
X72112814Y20502030D02*
X72255671Y20573459D01*
X72255671Y20573459D02*
X72541385Y20644887D01*
X72541385Y20644887D02*
X72755671Y20644887D01*
X72755671Y20644887D02*
X73041385Y20573459D01*
X73041385Y20573459D02*
X73184242Y20502030D01*
X73184242Y20502030D02*
X73327100Y20359173D01*
X73327100Y20359173D02*
X73398528Y20144887D01*
X73398528Y20144887D02*
X73398528Y19787744D01*
X71898528Y21573459D02*
X71898528Y21859173D01*
X71898528Y21859173D02*
X71969957Y22002030D01*
X71969957Y22002030D02*
X72112814Y22144887D01*
X72112814Y22144887D02*
X72398528Y22216316D01*
X72398528Y22216316D02*
X72898528Y22216316D01*
X72898528Y22216316D02*
X73184242Y22144887D01*
X73184242Y22144887D02*
X73327100Y22002030D01*
X73327100Y22002030D02*
X73398528Y21859173D01*
X73398528Y21859173D02*
X73398528Y21573459D01*
X73398528Y21573459D02*
X73327100Y21430601D01*
X73327100Y21430601D02*
X73184242Y21287744D01*
X73184242Y21287744D02*
X72898528Y21216316D01*
X72898528Y21216316D02*
X72398528Y21216316D01*
X72398528Y21216316D02*
X72112814Y21287744D01*
X72112814Y21287744D02*
X71969957Y21430601D01*
X71969957Y21430601D02*
X71898528Y21573459D01*
X73327100Y22787745D02*
X73398528Y23002030D01*
X73398528Y23002030D02*
X73398528Y23359173D01*
X73398528Y23359173D02*
X73327100Y23502030D01*
X73327100Y23502030D02*
X73255671Y23573459D01*
X73255671Y23573459D02*
X73112814Y23644888D01*
X73112814Y23644888D02*
X72969957Y23644888D01*
X72969957Y23644888D02*
X72827100Y23573459D01*
X72827100Y23573459D02*
X72755671Y23502030D01*
X72755671Y23502030D02*
X72684242Y23359173D01*
X72684242Y23359173D02*
X72612814Y23073459D01*
X72612814Y23073459D02*
X72541385Y22930602D01*
X72541385Y22930602D02*
X72469957Y22859173D01*
X72469957Y22859173D02*
X72327100Y22787745D01*
X72327100Y22787745D02*
X72184242Y22787745D01*
X72184242Y22787745D02*
X72041385Y22859173D01*
X72041385Y22859173D02*
X71969957Y22930602D01*
X71969957Y22930602D02*
X71898528Y23073459D01*
X71898528Y23073459D02*
X71898528Y23430602D01*
X71898528Y23430602D02*
X71969957Y23644888D01*
X71898528Y24573459D02*
X71898528Y24716316D01*
X71898528Y24716316D02*
X71969957Y24859173D01*
X71969957Y24859173D02*
X72041385Y24930601D01*
X72041385Y24930601D02*
X72184242Y25002030D01*
X72184242Y25002030D02*
X72469957Y25073459D01*
X72469957Y25073459D02*
X72827100Y25073459D01*
X72827100Y25073459D02*
X73112814Y25002030D01*
X73112814Y25002030D02*
X73255671Y24930601D01*
X73255671Y24930601D02*
X73327100Y24859173D01*
X73327100Y24859173D02*
X73398528Y24716316D01*
X73398528Y24716316D02*
X73398528Y24573459D01*
X73398528Y24573459D02*
X73327100Y24430601D01*
X73327100Y24430601D02*
X73255671Y24359173D01*
X73255671Y24359173D02*
X73112814Y24287744D01*
X73112814Y24287744D02*
X72827100Y24216316D01*
X72827100Y24216316D02*
X72469957Y24216316D01*
X72469957Y24216316D02*
X72184242Y24287744D01*
X72184242Y24287744D02*
X72041385Y24359173D01*
X72041385Y24359173D02*
X71969957Y24430601D01*
X71969957Y24430601D02*
X71898528Y24573459D01*
X72398528Y26359172D02*
X73398528Y26359172D01*
X71827100Y26002030D02*
X72898528Y25644887D01*
X72898528Y25644887D02*
X72898528Y26573458D01*
X72969957Y27073458D02*
X72969957Y27787743D01*
X73398528Y26930601D02*
X71898528Y27430601D01*
X71898528Y27430601D02*
X73398528Y27930601D01*
X73398528Y29573457D02*
X71898528Y29573457D01*
X72469957Y29573457D02*
X72398528Y29716314D01*
X72398528Y29716314D02*
X72398528Y30002029D01*
X72398528Y30002029D02*
X72469957Y30144886D01*
X72469957Y30144886D02*
X72541385Y30216314D01*
X72541385Y30216314D02*
X72684242Y30287743D01*
X72684242Y30287743D02*
X73112814Y30287743D01*
X73112814Y30287743D02*
X73255671Y30216314D01*
X73255671Y30216314D02*
X73327100Y30144886D01*
X73327100Y30144886D02*
X73398528Y30002029D01*
X73398528Y30002029D02*
X73398528Y29716314D01*
X73398528Y29716314D02*
X73327100Y29573457D01*
X73398528Y31573457D02*
X72612814Y31573457D01*
X72612814Y31573457D02*
X72469957Y31502029D01*
X72469957Y31502029D02*
X72398528Y31359172D01*
X72398528Y31359172D02*
X72398528Y31073457D01*
X72398528Y31073457D02*
X72469957Y30930600D01*
X73327100Y31573457D02*
X73398528Y31430600D01*
X73398528Y31430600D02*
X73398528Y31073457D01*
X73398528Y31073457D02*
X73327100Y30930600D01*
X73327100Y30930600D02*
X73184242Y30859172D01*
X73184242Y30859172D02*
X73041385Y30859172D01*
X73041385Y30859172D02*
X72898528Y30930600D01*
X72898528Y30930600D02*
X72827100Y31073457D01*
X72827100Y31073457D02*
X72827100Y31430600D01*
X72827100Y31430600D02*
X72755671Y31573457D01*
X73327100Y32216315D02*
X73398528Y32359172D01*
X73398528Y32359172D02*
X73398528Y32644886D01*
X73398528Y32644886D02*
X73327100Y32787743D01*
X73327100Y32787743D02*
X73184242Y32859172D01*
X73184242Y32859172D02*
X73112814Y32859172D01*
X73112814Y32859172D02*
X72969957Y32787743D01*
X72969957Y32787743D02*
X72898528Y32644886D01*
X72898528Y32644886D02*
X72898528Y32430600D01*
X72898528Y32430600D02*
X72827100Y32287743D01*
X72827100Y32287743D02*
X72684242Y32216315D01*
X72684242Y32216315D02*
X72612814Y32216315D01*
X72612814Y32216315D02*
X72469957Y32287743D01*
X72469957Y32287743D02*
X72398528Y32430600D01*
X72398528Y32430600D02*
X72398528Y32644886D01*
X72398528Y32644886D02*
X72469957Y32787743D01*
X73327100Y34073458D02*
X73398528Y33930601D01*
X73398528Y33930601D02*
X73398528Y33644886D01*
X73398528Y33644886D02*
X73327100Y33502029D01*
X73327100Y33502029D02*
X73184242Y33430601D01*
X73184242Y33430601D02*
X72612814Y33430601D01*
X72612814Y33430601D02*
X72469957Y33502029D01*
X72469957Y33502029D02*
X72398528Y33644886D01*
X72398528Y33644886D02*
X72398528Y33930601D01*
X72398528Y33930601D02*
X72469957Y34073458D01*
X72469957Y34073458D02*
X72612814Y34144886D01*
X72612814Y34144886D02*
X72755671Y34144886D01*
X72755671Y34144886D02*
X72898528Y33430601D01*
X73398528Y35930600D02*
X71898528Y35930600D01*
X72469957Y35930600D02*
X72398528Y36073457D01*
X72398528Y36073457D02*
X72398528Y36359172D01*
X72398528Y36359172D02*
X72469957Y36502029D01*
X72469957Y36502029D02*
X72541385Y36573457D01*
X72541385Y36573457D02*
X72684242Y36644886D01*
X72684242Y36644886D02*
X73112814Y36644886D01*
X73112814Y36644886D02*
X73255671Y36573457D01*
X73255671Y36573457D02*
X73327100Y36502029D01*
X73327100Y36502029D02*
X73398528Y36359172D01*
X73398528Y36359172D02*
X73398528Y36073457D01*
X73398528Y36073457D02*
X73327100Y35930600D01*
X73398528Y37502029D02*
X73327100Y37359172D01*
X73327100Y37359172D02*
X73255671Y37287743D01*
X73255671Y37287743D02*
X73112814Y37216315D01*
X73112814Y37216315D02*
X72684242Y37216315D01*
X72684242Y37216315D02*
X72541385Y37287743D01*
X72541385Y37287743D02*
X72469957Y37359172D01*
X72469957Y37359172D02*
X72398528Y37502029D01*
X72398528Y37502029D02*
X72398528Y37716315D01*
X72398528Y37716315D02*
X72469957Y37859172D01*
X72469957Y37859172D02*
X72541385Y37930600D01*
X72541385Y37930600D02*
X72684242Y38002029D01*
X72684242Y38002029D02*
X73112814Y38002029D01*
X73112814Y38002029D02*
X73255671Y37930600D01*
X73255671Y37930600D02*
X73327100Y37859172D01*
X73327100Y37859172D02*
X73398528Y37716315D01*
X73398528Y37716315D02*
X73398528Y37502029D01*
X73398528Y39287743D02*
X72612814Y39287743D01*
X72612814Y39287743D02*
X72469957Y39216315D01*
X72469957Y39216315D02*
X72398528Y39073458D01*
X72398528Y39073458D02*
X72398528Y38787743D01*
X72398528Y38787743D02*
X72469957Y38644886D01*
X73327100Y39287743D02*
X73398528Y39144886D01*
X73398528Y39144886D02*
X73398528Y38787743D01*
X73398528Y38787743D02*
X73327100Y38644886D01*
X73327100Y38644886D02*
X73184242Y38573458D01*
X73184242Y38573458D02*
X73041385Y38573458D01*
X73041385Y38573458D02*
X72898528Y38644886D01*
X72898528Y38644886D02*
X72827100Y38787743D01*
X72827100Y38787743D02*
X72827100Y39144886D01*
X72827100Y39144886D02*
X72755671Y39287743D01*
X73398528Y40002029D02*
X72398528Y40002029D01*
X72684242Y40002029D02*
X72541385Y40073458D01*
X72541385Y40073458D02*
X72469957Y40144886D01*
X72469957Y40144886D02*
X72398528Y40287744D01*
X72398528Y40287744D02*
X72398528Y40430601D01*
X73398528Y41573457D02*
X71898528Y41573457D01*
X73327100Y41573457D02*
X73398528Y41430600D01*
X73398528Y41430600D02*
X73398528Y41144886D01*
X73398528Y41144886D02*
X73327100Y41002029D01*
X73327100Y41002029D02*
X73255671Y40930600D01*
X73255671Y40930600D02*
X73112814Y40859172D01*
X73112814Y40859172D02*
X72684242Y40859172D01*
X72684242Y40859172D02*
X72541385Y40930600D01*
X72541385Y40930600D02*
X72469957Y41002029D01*
X72469957Y41002029D02*
X72398528Y41144886D01*
X72398528Y41144886D02*
X72398528Y41430600D01*
X72398528Y41430600D02*
X72469957Y41573457D01*
X61686571Y54068072D02*
X61686571Y53068072D01*
X61043713Y54068072D02*
X61043713Y53282358D01*
X61043713Y53282358D02*
X61115142Y53139500D01*
X61115142Y53139500D02*
X61257999Y53068072D01*
X61257999Y53068072D02*
X61472285Y53068072D01*
X61472285Y53068072D02*
X61615142Y53139500D01*
X61615142Y53139500D02*
X61686571Y53210929D01*
X62329428Y53139500D02*
X62472285Y53068072D01*
X62472285Y53068072D02*
X62757999Y53068072D01*
X62757999Y53068072D02*
X62900856Y53139500D01*
X62900856Y53139500D02*
X62972285Y53282358D01*
X62972285Y53282358D02*
X62972285Y53353786D01*
X62972285Y53353786D02*
X62900856Y53496643D01*
X62900856Y53496643D02*
X62757999Y53568072D01*
X62757999Y53568072D02*
X62543714Y53568072D01*
X62543714Y53568072D02*
X62400856Y53639500D01*
X62400856Y53639500D02*
X62329428Y53782358D01*
X62329428Y53782358D02*
X62329428Y53853786D01*
X62329428Y53853786D02*
X62400856Y53996643D01*
X62400856Y53996643D02*
X62543714Y54068072D01*
X62543714Y54068072D02*
X62757999Y54068072D01*
X62757999Y54068072D02*
X62900856Y53996643D01*
X63400857Y54068072D02*
X63972285Y54068072D01*
X63615142Y54568072D02*
X63615142Y53282358D01*
X63615142Y53282358D02*
X63686571Y53139500D01*
X63686571Y53139500D02*
X63829428Y53068072D01*
X63829428Y53068072D02*
X63972285Y53068072D01*
X64472285Y53210929D02*
X64543714Y53139500D01*
X64543714Y53139500D02*
X64472285Y53068072D01*
X64472285Y53068072D02*
X64400857Y53139500D01*
X64400857Y53139500D02*
X64472285Y53210929D01*
X64472285Y53210929D02*
X64472285Y53068072D01*
X65829429Y53139500D02*
X65686571Y53068072D01*
X65686571Y53068072D02*
X65400857Y53068072D01*
X65400857Y53068072D02*
X65258000Y53139500D01*
X65258000Y53139500D02*
X65186571Y53210929D01*
X65186571Y53210929D02*
X65115143Y53353786D01*
X65115143Y53353786D02*
X65115143Y53782358D01*
X65115143Y53782358D02*
X65186571Y53925215D01*
X65186571Y53925215D02*
X65258000Y53996643D01*
X65258000Y53996643D02*
X65400857Y54068072D01*
X65400857Y54068072D02*
X65686571Y54068072D01*
X65686571Y54068072D02*
X65829429Y53996643D01*
X66329428Y54068072D02*
X67115143Y54068072D01*
X67115143Y54068072D02*
X66329428Y53068072D01*
X66329428Y53068072D02*
X67115143Y53068072D01*
X6433185Y22828573D02*
X6361757Y22900001D01*
X6361757Y22900001D02*
X6290328Y23042858D01*
X6290328Y23042858D02*
X6290328Y23400001D01*
X6290328Y23400001D02*
X6361757Y23542858D01*
X6361757Y23542858D02*
X6433185Y23614287D01*
X6433185Y23614287D02*
X6576042Y23685716D01*
X6576042Y23685716D02*
X6718900Y23685716D01*
X6718900Y23685716D02*
X6933185Y23614287D01*
X6933185Y23614287D02*
X7790328Y22757144D01*
X7790328Y22757144D02*
X7790328Y23685716D01*
X6290328Y24614287D02*
X6290328Y24757144D01*
X6290328Y24757144D02*
X6361757Y24900001D01*
X6361757Y24900001D02*
X6433185Y24971429D01*
X6433185Y24971429D02*
X6576042Y25042858D01*
X6576042Y25042858D02*
X6861757Y25114287D01*
X6861757Y25114287D02*
X7218900Y25114287D01*
X7218900Y25114287D02*
X7504614Y25042858D01*
X7504614Y25042858D02*
X7647471Y24971429D01*
X7647471Y24971429D02*
X7718900Y24900001D01*
X7718900Y24900001D02*
X7790328Y24757144D01*
X7790328Y24757144D02*
X7790328Y24614287D01*
X7790328Y24614287D02*
X7718900Y24471429D01*
X7718900Y24471429D02*
X7647471Y24400001D01*
X7647471Y24400001D02*
X7504614Y24328572D01*
X7504614Y24328572D02*
X7218900Y24257144D01*
X7218900Y24257144D02*
X6861757Y24257144D01*
X6861757Y24257144D02*
X6576042Y24328572D01*
X6576042Y24328572D02*
X6433185Y24400001D01*
X6433185Y24400001D02*
X6361757Y24471429D01*
X6361757Y24471429D02*
X6290328Y24614287D01*
X6433185Y25685715D02*
X6361757Y25757143D01*
X6361757Y25757143D02*
X6290328Y25900000D01*
X6290328Y25900000D02*
X6290328Y26257143D01*
X6290328Y26257143D02*
X6361757Y26400000D01*
X6361757Y26400000D02*
X6433185Y26471429D01*
X6433185Y26471429D02*
X6576042Y26542858D01*
X6576042Y26542858D02*
X6718900Y26542858D01*
X6718900Y26542858D02*
X6933185Y26471429D01*
X6933185Y26471429D02*
X7790328Y25614286D01*
X7790328Y25614286D02*
X7790328Y26542858D01*
X6290328Y27042857D02*
X6290328Y27971429D01*
X6290328Y27971429D02*
X6861757Y27471429D01*
X6861757Y27471429D02*
X6861757Y27685714D01*
X6861757Y27685714D02*
X6933185Y27828571D01*
X6933185Y27828571D02*
X7004614Y27900000D01*
X7004614Y27900000D02*
X7147471Y27971429D01*
X7147471Y27971429D02*
X7504614Y27971429D01*
X7504614Y27971429D02*
X7647471Y27900000D01*
X7647471Y27900000D02*
X7718900Y27828571D01*
X7718900Y27828571D02*
X7790328Y27685714D01*
X7790328Y27685714D02*
X7790328Y27257143D01*
X7790328Y27257143D02*
X7718900Y27114286D01*
X7718900Y27114286D02*
X7647471Y27042857D01*
D11*
X54759219Y25028306D02*
X53759219Y25028306D01*
X53759219Y25028306D02*
X53759219Y25266401D01*
X53759219Y25266401D02*
X53806838Y25409258D01*
X53806838Y25409258D02*
X53902076Y25504496D01*
X53902076Y25504496D02*
X53997314Y25552115D01*
X53997314Y25552115D02*
X54187790Y25599734D01*
X54187790Y25599734D02*
X54330647Y25599734D01*
X54330647Y25599734D02*
X54521123Y25552115D01*
X54521123Y25552115D02*
X54616361Y25504496D01*
X54616361Y25504496D02*
X54711600Y25409258D01*
X54711600Y25409258D02*
X54759219Y25266401D01*
X54759219Y25266401D02*
X54759219Y25028306D01*
X54759219Y26552115D02*
X54759219Y25980687D01*
X54759219Y26266401D02*
X53759219Y26266401D01*
X53759219Y26266401D02*
X53902076Y26171163D01*
X53902076Y26171163D02*
X53997314Y26075925D01*
X53997314Y26075925D02*
X54044933Y25980687D01*
X58569219Y21694496D02*
X57569219Y21694496D01*
X58569219Y22265924D02*
X57997790Y21837353D01*
X57569219Y22265924D02*
X58140647Y21694496D01*
D12*
%TO.C,D1*%
X61924400Y18666400D02*
X61924400Y32866400D01*
X34924400Y18666400D02*
X61924400Y18666400D01*
X34924400Y18666400D02*
X34924400Y32866400D01*
X34924400Y32866400D02*
X61924400Y32866400D01*
%TD*%
M02*
