%TF.GenerationSoftware,KiCad,Pcbnew,7.0.8-7.0.8~ubuntu23.04.1*%
%TF.CreationDate,2023-11-09T23:49:29+00:00*%
%TF.ProjectId,AIRDOS04_base,41495244-4f53-4303-945f-626173652e6b,REV*%
%TF.SameCoordinates,PX66dd020PY81342c0*%
%TF.FileFunction,Copper,L1,Top*%
%TF.FilePolarity,Positive*%
%FSLAX46Y46*%
G04 Gerber Fmt 4.6, Leading zero omitted, Abs format (unit mm)*
G04 Created by KiCad (PCBNEW 7.0.8-7.0.8~ubuntu23.04.1) date 2023-11-09 23:49:29*
%MOMM*%
%LPD*%
G01*
G04 APERTURE LIST*
%TA.AperFunction,ComponentPad*%
%ADD10C,6.000000*%
%TD*%
%TA.AperFunction,ComponentPad*%
%ADD11C,1.524000*%
%TD*%
%TA.AperFunction,ComponentPad*%
%ADD12R,1.524000X1.524000*%
%TD*%
%TA.AperFunction,ViaPad*%
%ADD13C,0.800000*%
%TD*%
%TA.AperFunction,Conductor*%
%ADD14C,0.450000*%
%TD*%
G04 APERTURE END LIST*
D10*
%TO.P,M1,1*%
%TO.N,GND*%
X10160000Y50800000D03*
%TD*%
%TO.P,M2,1*%
%TO.N,GND*%
X71120000Y50800000D03*
%TD*%
%TO.P,M3,1*%
%TO.N,GND*%
X10160000Y10160000D03*
%TD*%
%TO.P,M4,1*%
%TO.N,GND*%
X71120000Y10160000D03*
%TD*%
D11*
%TO.P,D1,1,K*%
%TO.N,/PIN_detector/K*%
X59424400Y23266400D03*
%TO.P,D1,2,A*%
%TO.N,/PIN_detector/A*%
X59424400Y28266400D03*
%TD*%
D12*
%TO.P,J1,1*%
%TO.N,GND*%
X22860000Y53340000D03*
%TO.P,J1,2*%
X22860000Y50800000D03*
%TO.P,J1,3*%
%TO.N,/interface/5v*%
X25400000Y53340000D03*
%TO.P,J1,4*%
X25400000Y50800000D03*
%TO.P,J1,5*%
%TO.N,/interface/3v3*%
X27940000Y53340000D03*
%TO.P,J1,6*%
X27940000Y50800000D03*
%TO.P,J1,7*%
%TO.N,Net-(J1-Pad7)*%
X30480000Y53340000D03*
%TO.P,J1,8*%
X30480000Y50800000D03*
%TO.P,J1,9*%
%TO.N,unconnected-(J1-Pad9)*%
X33020000Y53340000D03*
%TO.P,J1,10*%
%TO.N,/interface/A0*%
X33020000Y50800000D03*
%TO.P,J1,11*%
%TO.N,/interface/RX*%
X35560000Y53340000D03*
%TO.P,J1,12*%
%TO.N,/interface/A1*%
X35560000Y50800000D03*
%TO.P,J1,13*%
%TO.N,/interface/TX*%
X38100000Y53340000D03*
%TO.P,J1,14*%
%TO.N,/interface/B1*%
X38100000Y50800000D03*
%TO.P,J1,15*%
%TO.N,/interface/MOSI*%
X40640000Y53340000D03*
%TO.P,J1,16*%
%TO.N,/interface/B0*%
X40640000Y50800000D03*
%TO.P,J1,17*%
%TO.N,/interface/MISO*%
X43180000Y53340000D03*
%TO.P,J1,18*%
%TO.N,/interface/C1*%
X43180000Y50800000D03*
%TO.P,J1,19*%
%TO.N,/interface/SCLK*%
X45720000Y53340000D03*
%TO.P,J1,20*%
%TO.N,/interface/C0*%
X45720000Y50800000D03*
%TO.P,J1,21*%
%TO.N,GND*%
X48260000Y53340000D03*
%TO.P,J1,22*%
X48260000Y50800000D03*
%TO.P,J1,23*%
%TO.N,/interface/SCL*%
X50800000Y53340000D03*
%TO.P,J1,24*%
X50800000Y50800000D03*
%TO.P,J1,25*%
%TO.N,VDD*%
X53340000Y53340000D03*
%TO.P,J1,26*%
X53340000Y50800000D03*
%TO.P,J1,27*%
%TO.N,/interface/SDA*%
X55880000Y53340000D03*
%TO.P,J1,28*%
X55880000Y50800000D03*
%TO.P,J1,29*%
%TO.N,GND*%
X58420000Y53340000D03*
%TO.P,J1,30*%
X58420000Y50800000D03*
%TD*%
D13*
%TO.N,GNDA*%
X54229000Y23012400D03*
%TO.N,/PIN_detector/REF*%
X50835600Y26756400D03*
X48158400Y27711400D03*
%TO.N,/interface/SDA*%
X71120006Y29718000D03*
%TD*%
D14*
%TO.N,/PIN_detector/REF*%
X48158400Y27711400D02*
X49880600Y27711400D01*
X49880600Y27711400D02*
X50835600Y26756400D01*
%TO.N,/interface/SDA*%
X71120006Y42036994D02*
X71120006Y29718000D01*
X57272000Y49413000D02*
X63744000Y49413000D01*
X63744000Y49413000D02*
X71120006Y42036994D01*
X55885000Y50800000D02*
X57272000Y49413000D01*
%TD*%
%TA.AperFunction,Conductor*%
%TO.N,GND*%
G36*
X75387621Y55105498D02*
G01*
X75434114Y55051842D01*
X75445500Y54999500D01*
X75445500Y5960501D01*
X75425498Y5892380D01*
X75371842Y5845887D01*
X75319500Y5834501D01*
X5960500Y5834501D01*
X5892379Y5854503D01*
X5845886Y5908159D01*
X5834500Y5960501D01*
X5834500Y23012400D01*
X53423435Y23012400D01*
X53443632Y22833145D01*
X53503211Y22662878D01*
X53503212Y22662875D01*
X53599182Y22510140D01*
X53599183Y22510138D01*
X53726737Y22382584D01*
X53726739Y22382583D01*
X53879474Y22286613D01*
X53879475Y22286613D01*
X53879478Y22286611D01*
X54049745Y22227032D01*
X54229000Y22206835D01*
X54408255Y22227032D01*
X54578522Y22286611D01*
X54731262Y22382584D01*
X54858816Y22510138D01*
X54954789Y22662878D01*
X55014368Y22833145D01*
X55034565Y23012400D01*
X55014368Y23191655D01*
X54988214Y23266400D01*
X57656958Y23266400D01*
X57676699Y23002976D01*
X57676700Y23002972D01*
X57735479Y22745440D01*
X57831988Y22499540D01*
X57831991Y22499532D01*
X57964068Y22270768D01*
X57964070Y22270765D01*
X57964071Y22270764D01*
X58128773Y22064234D01*
X58322418Y21884558D01*
X58322424Y21884554D01*
X58540676Y21735752D01*
X58540684Y21735747D01*
X58778672Y21621139D01*
X58778673Y21621139D01*
X58778681Y21621135D01*
X59002036Y21552239D01*
X59031100Y21543273D01*
X59031107Y21543271D01*
X59292319Y21503900D01*
X59292323Y21503900D01*
X59556477Y21503900D01*
X59556481Y21503900D01*
X59817693Y21543271D01*
X60070119Y21621135D01*
X60308121Y21735750D01*
X60526382Y21884558D01*
X60720027Y22064234D01*
X60884729Y22270764D01*
X61016810Y22499536D01*
X61113320Y22745437D01*
X61172101Y23002976D01*
X61191842Y23266400D01*
X61172101Y23529824D01*
X61113320Y23787363D01*
X61016810Y24033264D01*
X61016809Y24033265D01*
X61016808Y24033269D01*
X60884731Y24262033D01*
X60884729Y24262036D01*
X60720027Y24468566D01*
X60526382Y24648242D01*
X60526375Y24648247D01*
X60308123Y24797049D01*
X60308115Y24797054D01*
X60070127Y24911662D01*
X60070122Y24911664D01*
X60070119Y24911665D01*
X59972976Y24941630D01*
X59817699Y24989528D01*
X59817694Y24989529D01*
X59817693Y24989529D01*
X59556481Y25028900D01*
X59292319Y25028900D01*
X59031107Y24989529D01*
X59031106Y24989529D01*
X59031100Y24989528D01*
X58819524Y24924264D01*
X58778681Y24911665D01*
X58778679Y24911665D01*
X58778672Y24911662D01*
X58540684Y24797054D01*
X58540676Y24797049D01*
X58322424Y24648247D01*
X58322419Y24648243D01*
X58128774Y24468567D01*
X57964068Y24262033D01*
X57831991Y24033269D01*
X57831988Y24033261D01*
X57735479Y23787361D01*
X57702351Y23642216D01*
X57676699Y23529824D01*
X57656958Y23266400D01*
X54988214Y23266400D01*
X54954789Y23361922D01*
X54954787Y23361925D01*
X54954787Y23361926D01*
X54858817Y23514661D01*
X54858816Y23514663D01*
X54731262Y23642217D01*
X54731260Y23642218D01*
X54578525Y23738188D01*
X54578522Y23738189D01*
X54437996Y23787361D01*
X54408255Y23797768D01*
X54229000Y23817965D01*
X54049745Y23797768D01*
X54049742Y23797768D01*
X54049742Y23797767D01*
X53879477Y23738189D01*
X53879474Y23738188D01*
X53726739Y23642218D01*
X53726737Y23642217D01*
X53599183Y23514663D01*
X53599182Y23514661D01*
X53503212Y23361926D01*
X53503211Y23361923D01*
X53503211Y23361922D01*
X53443632Y23191655D01*
X53423435Y23012400D01*
X5834500Y23012400D01*
X5834500Y27711400D01*
X47352835Y27711400D01*
X47373032Y27532145D01*
X47390513Y27482188D01*
X47432611Y27361878D01*
X47432612Y27361875D01*
X47528582Y27209140D01*
X47528583Y27209138D01*
X47656137Y27081584D01*
X47656139Y27081583D01*
X47808874Y26985613D01*
X47808875Y26985613D01*
X47808878Y26985611D01*
X47979145Y26926032D01*
X48158400Y26905835D01*
X48337655Y26926032D01*
X48507922Y26985611D01*
X48521418Y26994092D01*
X48636796Y27066587D01*
X48703832Y27085900D01*
X49569319Y27085900D01*
X49637440Y27065898D01*
X49658415Y27048995D01*
X50008893Y26698516D01*
X50042918Y26636204D01*
X50045004Y26623532D01*
X50050230Y26577153D01*
X50050233Y26577140D01*
X50109811Y26406878D01*
X50109812Y26406875D01*
X50205782Y26254140D01*
X50205783Y26254138D01*
X50333337Y26126584D01*
X50333339Y26126583D01*
X50486074Y26030613D01*
X50486075Y26030613D01*
X50486078Y26030611D01*
X50656345Y25971032D01*
X50835600Y25950835D01*
X51014855Y25971032D01*
X51185122Y26030611D01*
X51337862Y26126584D01*
X51465416Y26254138D01*
X51561389Y26406878D01*
X51620968Y26577145D01*
X51641165Y26756400D01*
X51620968Y26935655D01*
X51561389Y27105922D01*
X51561387Y27105925D01*
X51561387Y27105926D01*
X51465417Y27258661D01*
X51465416Y27258663D01*
X51337862Y27386217D01*
X51337860Y27386218D01*
X51185125Y27482188D01*
X51185122Y27482189D01*
X51014857Y27541768D01*
X51014851Y27541769D01*
X50968468Y27546996D01*
X50903016Y27574501D01*
X50893484Y27583108D01*
X50381559Y28095033D01*
X50371676Y28107369D01*
X50371437Y28107171D01*
X50366383Y28113281D01*
X50315964Y28160627D01*
X50295077Y28181515D01*
X50295069Y28181522D01*
X50289623Y28185748D01*
X50285114Y28189599D01*
X50251183Y28221462D01*
X50251181Y28221463D01*
X50233757Y28231042D01*
X50217233Y28241897D01*
X50201537Y28254072D01*
X50201536Y28254073D01*
X50173051Y28266400D01*
X57656958Y28266400D01*
X57676699Y28002976D01*
X57676700Y28002972D01*
X57735479Y27745440D01*
X57831988Y27499540D01*
X57831991Y27499532D01*
X57964068Y27270768D01*
X57964070Y27270765D01*
X57964071Y27270764D01*
X58128773Y27064234D01*
X58322418Y26884558D01*
X58322424Y26884554D01*
X58540676Y26735752D01*
X58540684Y26735747D01*
X58778672Y26621139D01*
X58778673Y26621139D01*
X58778681Y26621135D01*
X59002036Y26552239D01*
X59031100Y26543273D01*
X59031107Y26543271D01*
X59292319Y26503900D01*
X59292323Y26503900D01*
X59556477Y26503900D01*
X59556481Y26503900D01*
X59817693Y26543271D01*
X60070119Y26621135D01*
X60308121Y26735750D01*
X60526382Y26884558D01*
X60720027Y27064234D01*
X60884729Y27270764D01*
X61016810Y27499536D01*
X61113320Y27745437D01*
X61172101Y28002976D01*
X61191842Y28266400D01*
X61172101Y28529824D01*
X61113320Y28787363D01*
X61016810Y29033264D01*
X61016809Y29033265D01*
X61016808Y29033269D01*
X60884731Y29262033D01*
X60884729Y29262036D01*
X60720027Y29468566D01*
X60526382Y29648242D01*
X60424066Y29718000D01*
X60308123Y29797049D01*
X60308115Y29797054D01*
X60070127Y29911662D01*
X60070122Y29911664D01*
X60070119Y29911665D01*
X59972976Y29941630D01*
X59817699Y29989528D01*
X59817694Y29989529D01*
X59817693Y29989529D01*
X59556481Y30028900D01*
X59292319Y30028900D01*
X59031107Y29989529D01*
X59031106Y29989529D01*
X59031100Y29989528D01*
X58819524Y29924264D01*
X58778681Y29911665D01*
X58778679Y29911665D01*
X58778672Y29911662D01*
X58540684Y29797054D01*
X58540676Y29797049D01*
X58322424Y29648247D01*
X58322419Y29648243D01*
X58128774Y29468567D01*
X57964068Y29262033D01*
X57831991Y29033269D01*
X57831988Y29033261D01*
X57735479Y28787361D01*
X57676700Y28529829D01*
X57676699Y28529824D01*
X57656958Y28266400D01*
X50173051Y28266400D01*
X50158806Y28272565D01*
X50153475Y28275177D01*
X50112694Y28297596D01*
X50112690Y28297598D01*
X50093446Y28302539D01*
X50074743Y28308942D01*
X50056496Y28316838D01*
X50056493Y28316839D01*
X50010523Y28324120D01*
X50004711Y28325324D01*
X49959620Y28336900D01*
X49959619Y28336900D01*
X49939744Y28336900D01*
X49920034Y28338451D01*
X49900404Y28341560D01*
X49900403Y28341560D01*
X49854065Y28337180D01*
X49848132Y28336900D01*
X48703832Y28336900D01*
X48636796Y28356213D01*
X48507925Y28437188D01*
X48507922Y28437189D01*
X48337655Y28496768D01*
X48158400Y28516965D01*
X47979145Y28496768D01*
X47979142Y28496768D01*
X47979142Y28496767D01*
X47808877Y28437189D01*
X47808874Y28437188D01*
X47656139Y28341218D01*
X47656137Y28341217D01*
X47528583Y28213663D01*
X47528582Y28213661D01*
X47432612Y28060926D01*
X47432611Y28060923D01*
X47432611Y28060922D01*
X47373032Y27890655D01*
X47352835Y27711400D01*
X5834500Y27711400D01*
X5834500Y50006484D01*
X24237500Y50006484D01*
X24252353Y49912698D01*
X24309949Y49799658D01*
X24399657Y49709950D01*
X24438299Y49690262D01*
X24512696Y49652354D01*
X24606481Y49637500D01*
X26193518Y49637501D01*
X26287304Y49652354D01*
X26400342Y49709950D01*
X26490050Y49799658D01*
X26547646Y49912696D01*
X26547647Y49912709D01*
X26550163Y49920447D01*
X26590232Y49979055D01*
X26655627Y50006697D01*
X26725585Y49994595D01*
X26777894Y49946593D01*
X26789831Y49920459D01*
X26792352Y49912699D01*
X26849949Y49799658D01*
X26939657Y49709950D01*
X26978299Y49690262D01*
X27052696Y49652354D01*
X27146481Y49637500D01*
X28733518Y49637501D01*
X28827304Y49652354D01*
X28940342Y49709950D01*
X29030050Y49799658D01*
X29087646Y49912696D01*
X29087647Y49912709D01*
X29090163Y49920447D01*
X29130232Y49979055D01*
X29195627Y50006697D01*
X29265585Y49994595D01*
X29317894Y49946593D01*
X29329831Y49920459D01*
X29332352Y49912699D01*
X29389949Y49799658D01*
X29479657Y49709950D01*
X29518299Y49690262D01*
X29592696Y49652354D01*
X29686481Y49637500D01*
X31273518Y49637501D01*
X31367304Y49652354D01*
X31480342Y49709950D01*
X31570050Y49799658D01*
X31627646Y49912696D01*
X31627647Y49912709D01*
X31630163Y49920447D01*
X31670232Y49979055D01*
X31735627Y50006697D01*
X31805585Y49994595D01*
X31857894Y49946593D01*
X31869831Y49920459D01*
X31872352Y49912699D01*
X31929949Y49799658D01*
X32019657Y49709950D01*
X32058299Y49690262D01*
X32132696Y49652354D01*
X32226481Y49637500D01*
X33813518Y49637501D01*
X33907304Y49652354D01*
X34020342Y49709950D01*
X34110050Y49799658D01*
X34167646Y49912696D01*
X34167647Y49912709D01*
X34170163Y49920447D01*
X34210232Y49979055D01*
X34275627Y50006697D01*
X34345585Y49994595D01*
X34397894Y49946593D01*
X34409831Y49920459D01*
X34412352Y49912699D01*
X34469949Y49799658D01*
X34559657Y49709950D01*
X34598299Y49690262D01*
X34672696Y49652354D01*
X34766481Y49637500D01*
X36353518Y49637501D01*
X36447304Y49652354D01*
X36560342Y49709950D01*
X36650050Y49799658D01*
X36707646Y49912696D01*
X36707647Y49912709D01*
X36710163Y49920447D01*
X36750232Y49979055D01*
X36815627Y50006697D01*
X36885585Y49994595D01*
X36937894Y49946593D01*
X36949831Y49920459D01*
X36952352Y49912699D01*
X37009949Y49799658D01*
X37099657Y49709950D01*
X37138299Y49690262D01*
X37212696Y49652354D01*
X37306481Y49637500D01*
X38893518Y49637501D01*
X38987304Y49652354D01*
X39100342Y49709950D01*
X39190050Y49799658D01*
X39247646Y49912696D01*
X39247647Y49912709D01*
X39250163Y49920447D01*
X39290232Y49979055D01*
X39355627Y50006697D01*
X39425585Y49994595D01*
X39477894Y49946593D01*
X39489831Y49920459D01*
X39492352Y49912699D01*
X39549949Y49799658D01*
X39639657Y49709950D01*
X39678299Y49690262D01*
X39752696Y49652354D01*
X39846481Y49637500D01*
X41433518Y49637501D01*
X41527304Y49652354D01*
X41640342Y49709950D01*
X41730050Y49799658D01*
X41787646Y49912696D01*
X41787647Y49912709D01*
X41790163Y49920447D01*
X41830232Y49979055D01*
X41895627Y50006697D01*
X41965585Y49994595D01*
X42017894Y49946593D01*
X42029831Y49920459D01*
X42032352Y49912699D01*
X42089949Y49799658D01*
X42179657Y49709950D01*
X42218299Y49690262D01*
X42292696Y49652354D01*
X42386481Y49637500D01*
X43973518Y49637501D01*
X44067304Y49652354D01*
X44180342Y49709950D01*
X44270050Y49799658D01*
X44327646Y49912696D01*
X44327647Y49912709D01*
X44330163Y49920447D01*
X44370232Y49979055D01*
X44435627Y50006697D01*
X44505585Y49994595D01*
X44557894Y49946593D01*
X44569831Y49920459D01*
X44572352Y49912699D01*
X44629949Y49799658D01*
X44719657Y49709950D01*
X44758299Y49690262D01*
X44832696Y49652354D01*
X44926481Y49637500D01*
X46513518Y49637501D01*
X46607304Y49652354D01*
X46720342Y49709950D01*
X46810050Y49799658D01*
X46867646Y49912696D01*
X46882500Y50006481D01*
X46882500Y50006484D01*
X49637500Y50006484D01*
X49652353Y49912698D01*
X49709949Y49799658D01*
X49799657Y49709950D01*
X49838299Y49690262D01*
X49912696Y49652354D01*
X50006481Y49637500D01*
X51593518Y49637501D01*
X51687304Y49652354D01*
X51800342Y49709950D01*
X51890050Y49799658D01*
X51947646Y49912696D01*
X51947647Y49912709D01*
X51950163Y49920447D01*
X51990232Y49979055D01*
X52055627Y50006697D01*
X52125585Y49994595D01*
X52177894Y49946593D01*
X52189831Y49920459D01*
X52192352Y49912699D01*
X52249949Y49799658D01*
X52339657Y49709950D01*
X52378299Y49690262D01*
X52452696Y49652354D01*
X52546481Y49637500D01*
X54133518Y49637501D01*
X54227304Y49652354D01*
X54340342Y49709950D01*
X54430050Y49799658D01*
X54487646Y49912696D01*
X54487647Y49912709D01*
X54490163Y49920447D01*
X54530232Y49979055D01*
X54595627Y50006697D01*
X54665585Y49994595D01*
X54717894Y49946593D01*
X54729831Y49920459D01*
X54732352Y49912699D01*
X54789949Y49799658D01*
X54879657Y49709950D01*
X54918299Y49690262D01*
X54992696Y49652354D01*
X55086481Y49637500D01*
X56110718Y49637501D01*
X56178839Y49617499D01*
X56199813Y49600596D01*
X56771040Y49029369D01*
X56780924Y49017034D01*
X56781162Y49017230D01*
X56786214Y49011123D01*
X56836635Y48963774D01*
X56857523Y48942885D01*
X56857531Y48942878D01*
X56862971Y48938658D01*
X56867485Y48934803D01*
X56901418Y48902938D01*
X56918839Y48893361D01*
X56935352Y48882515D01*
X56951064Y48870327D01*
X56992224Y48852516D01*
X56993784Y48851841D01*
X56999114Y48849230D01*
X57039908Y48826803D01*
X57059164Y48821859D01*
X57077857Y48815459D01*
X57096104Y48807563D01*
X57142083Y48800281D01*
X57147864Y48799085D01*
X57192981Y48787500D01*
X57212856Y48787500D01*
X57232566Y48785949D01*
X57234561Y48785634D01*
X57252196Y48782840D01*
X57285702Y48786008D01*
X57298535Y48787220D01*
X57304468Y48787500D01*
X63432720Y48787500D01*
X63500841Y48767498D01*
X63521815Y48750595D01*
X70457601Y41814809D01*
X70491627Y41752497D01*
X70494506Y41725714D01*
X70494506Y30263432D01*
X70475193Y30196396D01*
X70394218Y30067526D01*
X70394217Y30067523D01*
X70366926Y29989529D01*
X70334638Y29897255D01*
X70314441Y29718000D01*
X70334638Y29538745D01*
X70359195Y29468566D01*
X70394217Y29368478D01*
X70394218Y29368475D01*
X70490188Y29215740D01*
X70490189Y29215738D01*
X70617743Y29088184D01*
X70617745Y29088183D01*
X70770480Y28992213D01*
X70770481Y28992213D01*
X70770484Y28992211D01*
X70940751Y28932632D01*
X71120006Y28912435D01*
X71299261Y28932632D01*
X71469528Y28992211D01*
X71622268Y29088184D01*
X71749822Y29215738D01*
X71845795Y29368478D01*
X71905374Y29538745D01*
X71925571Y29718000D01*
X71905374Y29897255D01*
X71845795Y30067522D01*
X71845793Y30067525D01*
X71845793Y30067526D01*
X71764819Y30196396D01*
X71745506Y30263432D01*
X71745506Y41954028D01*
X71747240Y41969738D01*
X71746933Y41969767D01*
X71747679Y41977660D01*
X71745506Y42046823D01*
X71745506Y42076344D01*
X71744643Y42083172D01*
X71744178Y42089077D01*
X71742716Y42135621D01*
X71737170Y42154709D01*
X71733160Y42174070D01*
X71730670Y42193786D01*
X71713531Y42237072D01*
X71711610Y42242686D01*
X71711219Y42244029D01*
X71698624Y42287384D01*
X71696511Y42290957D01*
X71688505Y42304496D01*
X71679809Y42322246D01*
X71672493Y42340723D01*
X71672492Y42340726D01*
X71645127Y42378391D01*
X71641871Y42383347D01*
X71618176Y42423414D01*
X71618174Y42423416D01*
X71618173Y42423418D01*
X71604125Y42437466D01*
X71591284Y42452500D01*
X71579601Y42468580D01*
X71579600Y42468581D01*
X71543728Y42498257D01*
X71539346Y42502244D01*
X64244960Y49796631D01*
X64235076Y49808969D01*
X64234837Y49808771D01*
X64229783Y49814881D01*
X64179364Y49862227D01*
X64158477Y49883115D01*
X64158469Y49883122D01*
X64153023Y49887348D01*
X64148514Y49891199D01*
X64114583Y49923062D01*
X64114581Y49923063D01*
X64097157Y49932642D01*
X64080633Y49943497D01*
X64064937Y49955672D01*
X64064936Y49955673D01*
X64042592Y49965343D01*
X64022206Y49974165D01*
X64016875Y49976777D01*
X63976094Y49999196D01*
X63976090Y49999198D01*
X63956846Y50004139D01*
X63938143Y50010542D01*
X63919896Y50018438D01*
X63919893Y50018439D01*
X63873923Y50025720D01*
X63868111Y50026924D01*
X63823020Y50038500D01*
X63823019Y50038500D01*
X63803144Y50038500D01*
X63783434Y50040051D01*
X63763804Y50043160D01*
X63763803Y50043160D01*
X63717465Y50038780D01*
X63711532Y50038500D01*
X57583281Y50038500D01*
X57515160Y50058502D01*
X57494186Y50075405D01*
X57079404Y50490187D01*
X57045378Y50552499D01*
X57042499Y50579282D01*
X57042499Y51593517D01*
X57040616Y51605410D01*
X57027646Y51687304D01*
X56998848Y51743823D01*
X56970050Y51800343D01*
X56880342Y51890051D01*
X56767304Y51947646D01*
X56759547Y51950166D01*
X56700941Y51990239D01*
X56673303Y52055635D01*
X56685408Y52125592D01*
X56733413Y52177899D01*
X56759547Y52189834D01*
X56767297Y52192354D01*
X56767304Y52192354D01*
X56880342Y52249950D01*
X56970050Y52339658D01*
X57027646Y52452696D01*
X57042500Y52546481D01*
X57042499Y54133518D01*
X57027646Y54227304D01*
X56998848Y54283823D01*
X56970050Y54340343D01*
X56880342Y54430051D01*
X56804502Y54468693D01*
X56767304Y54487646D01*
X56673519Y54502500D01*
X56673515Y54502500D01*
X55086483Y54502500D01*
X54992697Y54487647D01*
X54879657Y54430051D01*
X54789949Y54340343D01*
X54732352Y54227302D01*
X54729833Y54219546D01*
X54689760Y54160940D01*
X54624363Y54133303D01*
X54554406Y54145410D01*
X54502100Y54193416D01*
X54490167Y54219546D01*
X54487647Y54227302D01*
X54430050Y54340343D01*
X54340342Y54430051D01*
X54264502Y54468693D01*
X54227304Y54487646D01*
X54133519Y54502500D01*
X54133515Y54502500D01*
X52546483Y54502500D01*
X52452697Y54487647D01*
X52339657Y54430051D01*
X52249949Y54340343D01*
X52192352Y54227302D01*
X52189833Y54219546D01*
X52149760Y54160940D01*
X52084363Y54133303D01*
X52014406Y54145410D01*
X51962100Y54193416D01*
X51950167Y54219546D01*
X51947647Y54227302D01*
X51890050Y54340343D01*
X51800342Y54430051D01*
X51724502Y54468693D01*
X51687304Y54487646D01*
X51593519Y54502500D01*
X51593515Y54502500D01*
X50006483Y54502500D01*
X49912697Y54487647D01*
X49799657Y54430051D01*
X49709949Y54340343D01*
X49652355Y54227306D01*
X49652354Y54227304D01*
X49637500Y54133519D01*
X49637500Y54133516D01*
X49637500Y52546484D01*
X49652353Y52452698D01*
X49709949Y52339658D01*
X49799657Y52249950D01*
X49857253Y52220604D01*
X49912696Y52192354D01*
X49912700Y52192354D01*
X49920448Y52189836D01*
X49979055Y52149766D01*
X50006696Y52084371D01*
X49994593Y52014413D01*
X49946590Y51962105D01*
X49920460Y51950170D01*
X49912701Y51947649D01*
X49799657Y51890051D01*
X49709949Y51800343D01*
X49652355Y51687306D01*
X49652354Y51687304D01*
X49637500Y51593519D01*
X49637500Y51593516D01*
X49637500Y50006484D01*
X46882500Y50006484D01*
X46882499Y51593518D01*
X46867646Y51687304D01*
X46838848Y51743823D01*
X46810050Y51800343D01*
X46720342Y51890051D01*
X46607304Y51947646D01*
X46599547Y51950166D01*
X46540941Y51990239D01*
X46513303Y52055635D01*
X46525408Y52125592D01*
X46573413Y52177899D01*
X46599547Y52189834D01*
X46607297Y52192354D01*
X46607304Y52192354D01*
X46720342Y52249950D01*
X46810050Y52339658D01*
X46867646Y52452696D01*
X46882500Y52546481D01*
X46882499Y54133518D01*
X46867646Y54227304D01*
X46838848Y54283823D01*
X46810050Y54340343D01*
X46720342Y54430051D01*
X46644502Y54468693D01*
X46607304Y54487646D01*
X46513519Y54502500D01*
X46513515Y54502500D01*
X44926483Y54502500D01*
X44832697Y54487647D01*
X44719657Y54430051D01*
X44629949Y54340343D01*
X44572352Y54227302D01*
X44569833Y54219546D01*
X44529760Y54160940D01*
X44464363Y54133303D01*
X44394406Y54145410D01*
X44342100Y54193416D01*
X44330167Y54219546D01*
X44327647Y54227302D01*
X44270050Y54340343D01*
X44180342Y54430051D01*
X44104502Y54468693D01*
X44067304Y54487646D01*
X43973519Y54502500D01*
X43973515Y54502500D01*
X42386483Y54502500D01*
X42292697Y54487647D01*
X42179657Y54430051D01*
X42089949Y54340343D01*
X42032352Y54227302D01*
X42029833Y54219546D01*
X41989760Y54160940D01*
X41924363Y54133303D01*
X41854406Y54145410D01*
X41802100Y54193416D01*
X41790167Y54219546D01*
X41787647Y54227302D01*
X41730050Y54340343D01*
X41640342Y54430051D01*
X41564502Y54468693D01*
X41527304Y54487646D01*
X41433519Y54502500D01*
X41433515Y54502500D01*
X39846483Y54502500D01*
X39752697Y54487647D01*
X39639657Y54430051D01*
X39549949Y54340343D01*
X39492352Y54227302D01*
X39489833Y54219546D01*
X39449760Y54160940D01*
X39384363Y54133303D01*
X39314406Y54145410D01*
X39262100Y54193416D01*
X39250167Y54219546D01*
X39247647Y54227302D01*
X39190050Y54340343D01*
X39100342Y54430051D01*
X39024502Y54468693D01*
X38987304Y54487646D01*
X38893519Y54502500D01*
X38893515Y54502500D01*
X37306483Y54502500D01*
X37212697Y54487647D01*
X37099657Y54430051D01*
X37009949Y54340343D01*
X36952352Y54227302D01*
X36949833Y54219546D01*
X36909760Y54160940D01*
X36844363Y54133303D01*
X36774406Y54145410D01*
X36722100Y54193416D01*
X36710167Y54219546D01*
X36707647Y54227302D01*
X36650050Y54340343D01*
X36560342Y54430051D01*
X36484502Y54468693D01*
X36447304Y54487646D01*
X36353519Y54502500D01*
X36353515Y54502500D01*
X34766483Y54502500D01*
X34672697Y54487647D01*
X34559657Y54430051D01*
X34469949Y54340343D01*
X34412352Y54227302D01*
X34409833Y54219546D01*
X34369760Y54160940D01*
X34304363Y54133303D01*
X34234406Y54145410D01*
X34182100Y54193416D01*
X34170167Y54219546D01*
X34167647Y54227302D01*
X34110050Y54340343D01*
X34020342Y54430051D01*
X33944502Y54468693D01*
X33907304Y54487646D01*
X33813519Y54502500D01*
X33813515Y54502500D01*
X32226483Y54502500D01*
X32132697Y54487647D01*
X32019657Y54430051D01*
X31929949Y54340343D01*
X31872352Y54227302D01*
X31869833Y54219546D01*
X31829760Y54160940D01*
X31764363Y54133303D01*
X31694406Y54145410D01*
X31642100Y54193416D01*
X31630167Y54219546D01*
X31627647Y54227302D01*
X31570050Y54340343D01*
X31480342Y54430051D01*
X31404502Y54468693D01*
X31367304Y54487646D01*
X31273519Y54502500D01*
X31273515Y54502500D01*
X29686483Y54502500D01*
X29592697Y54487647D01*
X29479657Y54430051D01*
X29389949Y54340343D01*
X29332352Y54227302D01*
X29329833Y54219546D01*
X29289760Y54160940D01*
X29224363Y54133303D01*
X29154406Y54145410D01*
X29102100Y54193416D01*
X29090167Y54219546D01*
X29087647Y54227302D01*
X29030050Y54340343D01*
X28940342Y54430051D01*
X28864502Y54468693D01*
X28827304Y54487646D01*
X28733519Y54502500D01*
X28733515Y54502500D01*
X27146483Y54502500D01*
X27052697Y54487647D01*
X26939657Y54430051D01*
X26849949Y54340343D01*
X26792352Y54227302D01*
X26789833Y54219546D01*
X26749760Y54160940D01*
X26684363Y54133303D01*
X26614406Y54145410D01*
X26562100Y54193416D01*
X26550167Y54219546D01*
X26547647Y54227302D01*
X26490050Y54340343D01*
X26400342Y54430051D01*
X26324502Y54468693D01*
X26287304Y54487646D01*
X26193519Y54502500D01*
X26193515Y54502500D01*
X24606483Y54502500D01*
X24512697Y54487647D01*
X24399657Y54430051D01*
X24309949Y54340343D01*
X24252355Y54227306D01*
X24252354Y54227304D01*
X24237500Y54133519D01*
X24237500Y54133516D01*
X24237500Y52546484D01*
X24252353Y52452698D01*
X24309949Y52339658D01*
X24399657Y52249950D01*
X24457253Y52220604D01*
X24512696Y52192354D01*
X24512700Y52192354D01*
X24520448Y52189836D01*
X24579055Y52149766D01*
X24606696Y52084371D01*
X24594593Y52014413D01*
X24546590Y51962105D01*
X24520460Y51950170D01*
X24512701Y51947649D01*
X24399657Y51890051D01*
X24309949Y51800343D01*
X24252355Y51687306D01*
X24252354Y51687304D01*
X24237500Y51593519D01*
X24237500Y51593516D01*
X24237500Y50006484D01*
X5834500Y50006484D01*
X5834500Y54999500D01*
X5854502Y55067621D01*
X5908158Y55114114D01*
X5960500Y55125500D01*
X75319500Y55125500D01*
X75387621Y55105498D01*
G37*
%TD.AperFunction*%
%TD*%
M02*
