  0
SECTION
  2
HEADER
  9
$ANGBASE
  50
0.0
  9
$ANGDIR
  70
1
  9
$MEASUREMENT
  70
0
  0
ENDSEC
  0
SECTION
  2
TABLES
  0
TABLE
  2
LTYPE
  70
4
  0
LTYPE
  5
40F
  2
CONTINUOUS
  70
0
  3
Solid line
  72
65
  73
0
  40
0.0
  0
LTYPE
  5
410
  2
DASHDOT
 70
0
  3
Dash Dot ____ _ ____ _
 72
65
 73
4
 40
2.0
 49
1.25
 49
-0.25
 49
0.25
 49
-0.25
  0
LTYPE
  5
411
  2
DASHED
 70
0
  3
Dashed __ __ __ __ __
 72
65
 73
2
 40
0.75
 49
0.5
 49
-0.25
  0
LTYPE
  5
43B
  2
DOTTED
 70
0
  3
Dotted .  .  .  .
 72
65
 73
2
 40
0.2
 49
0.0
 49
-0.2
  0
ENDTAB
  0
TABLE
  2
STYLE
  70
4
  0
STYLE
  2
KICAD
  70
0
  40
0
  41
1
  42
1
  50
0
  71
0
  3
isocp.shx
  0
STYLE
  2
KICADB
  70
0
  40
0
  41
1
  42
1
  50
0
  71
0
  3
isocp.shx
  0
STYLE
  2
KICADI
  70
0
  40
0
  41
1
  42
1
  50
15
  71
0
  3
isocp.shx
  0
STYLE
  2
KICADBI
  70
0
  40
0
  41
1
  42
1
  50
15
  71
0
  3
isocp.shx
  0
ENDTAB
  0
TABLE
  2
LAYER
  70
1
  0
LAYER
  2
BLACK
  70
0
  62
7
  6
CONTINUOUS
  0
ENDTAB
  0
ENDSEC
  0
SECTION
  2
ENTITIES
0
LINE
8
BLACK
6
CONTINUOUS
10
0.62726
20
0.351293
11
0.635712
21
0.349028
0
LINE
8
BLACK
6
CONTINUOUS
10
0.635712
20
0.349028
11
0.643642
21
0.34533
0
LINE
8
BLACK
6
CONTINUOUS
10
0.643642
20
0.34533
11
0.650809
21
0.340311
0
LINE
8
BLACK
6
CONTINUOUS
10
0.650809
20
0.340311
11
0.656996
21
0.334124
0
LINE
8
BLACK
6
CONTINUOUS
10
0.656996
20
0.334124
11
0.662015
21
0.326957
0
LINE
8
BLACK
6
CONTINUOUS
10
0.662015
20
0.326957
11
0.665713
21
0.319027
0
LINE
8
BLACK
6
CONTINUOUS
10
0.665713
20
0.319027
11
0.667978
21
0.310575
0
LINE
8
BLACK
6
CONTINUOUS
10
0.667978
20
0.310575
11
0.66874
21
0.301858
0
LINE
8
BLACK
6
CONTINUOUS
10
0.66874
20
0.301858
11
0.667978
21
0.293142
0
LINE
8
BLACK
6
CONTINUOUS
10
0.667978
20
0.293142
11
0.665713
21
0.28469
0
LINE
8
BLACK
6
CONTINUOUS
10
0.665713
20
0.28469
11
0.662015
21
0.27676
0
LINE
8
BLACK
6
CONTINUOUS
10
0.662015
20
0.27676
11
0.656996
21
0.269592
0
LINE
8
BLACK
6
CONTINUOUS
10
0.656996
20
0.269592
11
0.650809
21
0.263405
0
LINE
8
BLACK
6
CONTINUOUS
10
0.650809
20
0.263405
11
0.643642
21
0.258387
0
LINE
8
BLACK
6
CONTINUOUS
10
0.643642
20
0.258387
11
0.635712
21
0.254689
0
LINE
8
BLACK
6
CONTINUOUS
10
0.635712
20
0.254689
11
0.62726
21
0.252424
0
LINE
8
BLACK
6
CONTINUOUS
10
0.62726
20
0.252424
11
0.618543
21
0.251661
0
LINE
8
BLACK
6
CONTINUOUS
10
0.618543
20
0.251661
11
0.609827
21
0.252424
0
LINE
8
BLACK
6
CONTINUOUS
10
0.609827
20
0.252424
11
0.601375
21
0.254689
0
LINE
8
BLACK
6
CONTINUOUS
10
0.601375
20
0.254689
11
0.593445
21
0.258387
0
LINE
8
BLACK
6
CONTINUOUS
10
0.593445
20
0.258387
11
0.586277
21
0.263405
0
LINE
8
BLACK
6
CONTINUOUS
10
0.586277
20
0.263405
11
0.58009
21
0.269592
0
LINE
8
BLACK
6
CONTINUOUS
10
0.58009
20
0.269592
11
0.575072
21
0.27676
0
LINE
8
BLACK
6
CONTINUOUS
10
0.575072
20
0.27676
11
0.571374
21
0.28469
0
LINE
8
BLACK
6
CONTINUOUS
10
0.571374
20
0.28469
11
0.569109
21
0.293142
0
LINE
8
BLACK
6
CONTINUOUS
10
0.569109
20
0.293142
11
0.568346
21
0.301858
0
LINE
8
BLACK
6
CONTINUOUS
10
0.568346
20
0.301858
11
0.569109
21
0.310575
0
LINE
8
BLACK
6
CONTINUOUS
10
0.569109
20
0.310575
11
0.571374
21
0.319027
0
LINE
8
BLACK
6
CONTINUOUS
10
0.571374
20
0.319027
11
0.575072
21
0.326957
0
LINE
8
BLACK
6
CONTINUOUS
10
0.575072
20
0.326957
11
0.58009
21
0.334124
0
LINE
8
BLACK
6
CONTINUOUS
10
0.58009
20
0.334124
11
0.586277
21
0.340311
0
LINE
8
BLACK
6
CONTINUOUS
10
0.586277
20
0.340311
11
0.593445
21
0.34533
0
LINE
8
BLACK
6
CONTINUOUS
10
0.593445
20
0.34533
11
0.601375
21
0.349028
0
LINE
8
BLACK
6
CONTINUOUS
10
0.601375
20
0.349028
11
0.609827
21
0.351293
0
LINE
8
BLACK
6
CONTINUOUS
10
0.609827
20
0.351293
11
0.618543
21
0.352055
0
LINE
8
BLACK
6
CONTINUOUS
10
0.618543
20
0.352055
11
0.62726
21
0.351293
0
LINE
8
BLACK
6
CONTINUOUS
10
0.570866
20
0.293451
11
0.57305
21
0.2853
0
LINE
8
BLACK
6
CONTINUOUS
10
0.57305
20
0.2853
11
0.576617
21
0.277652
0
LINE
8
BLACK
6
CONTINUOUS
10
0.576617
20
0.277652
11
0.581457
21
0.270739
0
LINE
8
BLACK
6
CONTINUOUS
10
0.581457
20
0.270739
11
0.587424
21
0.264772
0
LINE
8
BLACK
6
CONTINUOUS
10
0.587424
20
0.264772
11
0.594337
21
0.259932
0
LINE
8
BLACK
6
CONTINUOUS
10
0.594337
20
0.259932
11
0.601985
21
0.256365
0
LINE
8
BLACK
6
CONTINUOUS
10
0.601985
20
0.256365
11
0.610137
21
0.254181
0
LINE
8
BLACK
6
CONTINUOUS
10
0.610137
20
0.254181
11
0.618543
21
0.253446
0
LINE
8
BLACK
6
CONTINUOUS
10
0.618543
20
0.253446
11
0.62695
21
0.254181
0
LINE
8
BLACK
6
CONTINUOUS
10
0.62695
20
0.254181
11
0.635101
21
0.256365
0
LINE
8
BLACK
6
CONTINUOUS
10
0.635101
20
0.256365
11
0.64275
21
0.259932
0
LINE
8
BLACK
6
CONTINUOUS
10
0.64275
20
0.259932
11
0.649662
21
0.264772
0
LINE
8
BLACK
6
CONTINUOUS
10
0.649662
20
0.264772
11
0.655629
21
0.270739
0
LINE
8
BLACK
6
CONTINUOUS
10
0.655629
20
0.270739
11
0.66047
21
0.277652
0
LINE
8
BLACK
6
CONTINUOUS
10
0.66047
20
0.277652
11
0.664036
21
0.2853
0
LINE
8
BLACK
6
CONTINUOUS
10
0.664036
20
0.2853
11
0.66622
21
0.293451
0
LINE
8
BLACK
6
CONTINUOUS
10
0.66622
20
0.293451
11
0.666956
21
0.301858
0
LINE
8
BLACK
6
CONTINUOUS
10
0.666956
20
0.301858
11
0.66622
21
0.310265
0
LINE
8
BLACK
6
CONTINUOUS
10
0.66622
20
0.310265
11
0.664036
21
0.318416
0
LINE
8
BLACK
6
CONTINUOUS
10
0.664036
20
0.318416
11
0.66047
21
0.326065
0
LINE
8
BLACK
6
CONTINUOUS
10
0.66047
20
0.326065
11
0.655629
21
0.332977
0
LINE
8
BLACK
6
CONTINUOUS
10
0.655629
20
0.332977
11
0.649662
21
0.338944
0
LINE
8
BLACK
6
CONTINUOUS
10
0.649662
20
0.338944
11
0.64275
21
0.343785
0
LINE
8
BLACK
6
CONTINUOUS
10
0.64275
20
0.343785
11
0.635101
21
0.347351
0
LINE
8
BLACK
6
CONTINUOUS
10
0.635101
20
0.347351
11
0.62695
21
0.349535
0
LINE
8
BLACK
6
CONTINUOUS
10
0.62695
20
0.349535
11
0.618543
21
0.350271
0
LINE
8
BLACK
6
CONTINUOUS
10
0.618543
20
0.350271
11
0.610137
21
0.349535
0
LINE
8
BLACK
6
CONTINUOUS
10
0.610137
20
0.349535
11
0.601985
21
0.347351
0
LINE
8
BLACK
6
CONTINUOUS
10
0.601985
20
0.347351
11
0.594337
21
0.343785
0
LINE
8
BLACK
6
CONTINUOUS
10
0.594337
20
0.343785
11
0.587424
21
0.338944
0
LINE
8
BLACK
6
CONTINUOUS
10
0.587424
20
0.338944
11
0.581457
21
0.332977
0
LINE
8
BLACK
6
CONTINUOUS
10
0.581457
20
0.332977
11
0.576617
21
0.326065
0
LINE
8
BLACK
6
CONTINUOUS
10
0.576617
20
0.326065
11
0.57305
21
0.318416
0
LINE
8
BLACK
6
CONTINUOUS
10
0.57305
20
0.318416
11
0.570866
21
0.310265
0
LINE
8
BLACK
6
CONTINUOUS
10
0.570866
20
0.310265
11
0.570131
21
0.301858
0
LINE
8
BLACK
6
CONTINUOUS
10
0.570131
20
0.301858
11
0.570866
21
0.293451
0
LINE
8
BLACK
6
CONTINUOUS
10
2.1133
20
0.54637
11
2.114
21
0.546082
0
LINE
8
BLACK
6
CONTINUOUS
10
2.114
20
0.546082
11
2.11428
21
0.545386
0
LINE
8
BLACK
6
CONTINUOUS
10
2.11428
20
0.545386
11
2.11428
21
0.470583
0
LINE
8
BLACK
6
CONTINUOUS
10
2.11428
20
0.470583
11
2.114
21
0.469887
0
LINE
8
BLACK
6
CONTINUOUS
10
2.114
20
0.469887
11
2.1133
21
0.469598
0
LINE
8
BLACK
6
CONTINUOUS
10
2.1133
20
0.469598
11
1.98102
21
0.469598
0
LINE
8
BLACK
6
CONTINUOUS
10
1.98102
20
0.469598
11
1.98032
21
0.469887
0
LINE
8
BLACK
6
CONTINUOUS
10
1.98032
20
0.469887
11
1.98003
21
0.470583
0
LINE
8
BLACK
6
CONTINUOUS
10
1.98003
20
0.470583
11
1.98003
21
0.545386
0
LINE
8
BLACK
6
CONTINUOUS
10
1.98003
20
0.545386
11
1.98032
21
0.546082
0
LINE
8
BLACK
6
CONTINUOUS
10
1.98032
20
0.546082
11
1.98102
21
0.54637
0
LINE
8
BLACK
6
CONTINUOUS
10
1.98102
20
0.54637
11
2.1133
21
0.54637
0
LINE
8
BLACK
6
CONTINUOUS
10
1.982
20
0.544402
11
1.982
21
0.471567
0
LINE
8
BLACK
6
CONTINUOUS
10
1.982
20
0.471567
11
2.11231
21
0.471567
0
LINE
8
BLACK
6
CONTINUOUS
10
2.11231
20
0.471567
11
2.11231
21
0.544402
0
LINE
8
BLACK
6
CONTINUOUS
10
2.11231
20
0.544402
11
1.982
21
0.544402
0
LINE
8
BLACK
6
CONTINUOUS
10
2.2085
20
0.65452
11
2.20919
21
0.654231
0
LINE
8
BLACK
6
CONTINUOUS
10
2.20919
20
0.654231
11
2.20948
21
0.653535
0
LINE
8
BLACK
6
CONTINUOUS
10
2.20948
20
0.653535
11
2.20948
21
0.472433
0
LINE
8
BLACK
6
CONTINUOUS
10
2.20948
20
0.472433
11
2.20919
21
0.471737
0
LINE
8
BLACK
6
CONTINUOUS
10
2.20919
20
0.471737
11
2.2085
21
0.471449
0
LINE
8
BLACK
6
CONTINUOUS
10
2.2085
20
0.471449
11
2.12582
21
0.471449
0
LINE
8
BLACK
6
CONTINUOUS
10
2.12582
20
0.471449
11
2.12512
21
0.471737
0
LINE
8
BLACK
6
CONTINUOUS
10
2.12512
20
0.471737
11
2.12483
21
0.472433
0
LINE
8
BLACK
6
CONTINUOUS
10
2.12483
20
0.472433
11
2.12483
21
0.653535
0
LINE
8
BLACK
6
CONTINUOUS
10
2.12483
20
0.653535
11
2.12512
21
0.654231
0
LINE
8
BLACK
6
CONTINUOUS
10
2.12512
20
0.654231
11
2.12582
21
0.65452
0
LINE
8
BLACK
6
CONTINUOUS
10
2.12582
20
0.65452
11
2.2085
21
0.65452
0
LINE
8
BLACK
6
CONTINUOUS
10
2.1268
20
0.652551
11
2.1268
21
0.473417
0
LINE
8
BLACK
6
CONTINUOUS
10
2.1268
20
0.473417
11
2.20751
21
0.473417
0
LINE
8
BLACK
6
CONTINUOUS
10
2.20751
20
0.473417
11
2.20751
21
0.652551
0
LINE
8
BLACK
6
CONTINUOUS
10
2.20751
20
0.652551
11
2.1268
21
0.652551
0
LINE
8
BLACK
6
CONTINUOUS
10
1.97218
20
0.65552
11
1.97288
21
0.655231
0
LINE
8
BLACK
6
CONTINUOUS
10
1.97288
20
0.655231
11
1.97317
21
0.654535
0
LINE
8
BLACK
6
CONTINUOUS
10
1.97317
20
0.654535
11
1.97317
21
0.473433
0
LINE
8
BLACK
6
CONTINUOUS
10
1.97317
20
0.473433
11
1.97288
21
0.472737
0
LINE
8
BLACK
6
CONTINUOUS
10
1.97288
20
0.472737
11
1.97218
21
0.472449
0
LINE
8
BLACK
6
CONTINUOUS
10
1.97218
20
0.472449
11
1.8895
21
0.472449
0
LINE
8
BLACK
6
CONTINUOUS
10
1.8895
20
0.472449
11
1.88881
21
0.472737
0
LINE
8
BLACK
6
CONTINUOUS
10
1.88881
20
0.472737
11
1.88852
21
0.473433
0
LINE
8
BLACK
6
CONTINUOUS
10
1.88852
20
0.473433
11
1.88852
21
0.654535
0
LINE
8
BLACK
6
CONTINUOUS
10
1.88852
20
0.654535
11
1.88881
21
0.655231
0
LINE
8
BLACK
6
CONTINUOUS
10
1.88881
20
0.655231
11
1.8895
21
0.65552
0
LINE
8
BLACK
6
CONTINUOUS
10
1.8895
20
0.65552
11
1.97218
21
0.65552
0
LINE
8
BLACK
6
CONTINUOUS
10
1.89049
20
0.653551
11
1.89049
21
0.474417
0
LINE
8
BLACK
6
CONTINUOUS
10
1.89049
20
0.474417
11
1.9712
21
0.474417
0
LINE
8
BLACK
6
CONTINUOUS
10
1.9712
20
0.474417
11
1.9712
21
0.653551
0
LINE
8
BLACK
6
CONTINUOUS
10
1.9712
20
0.653551
11
1.89049
21
0.653551
0
LINE
8
BLACK
6
CONTINUOUS
10
1.87798
20
0.55137
11
1.87868
21
0.551082
0
LINE
8
BLACK
6
CONTINUOUS
10
1.87868
20
0.551082
11
1.87897
21
0.550386
0
LINE
8
BLACK
6
CONTINUOUS
10
1.87897
20
0.550386
11
1.87897
21
0.475583
0
LINE
8
BLACK
6
CONTINUOUS
10
1.87897
20
0.475583
11
1.87868
21
0.474887
0
LINE
8
BLACK
6
CONTINUOUS
10
1.87868
20
0.474887
11
1.87798
21
0.474598
0
LINE
8
BLACK
6
CONTINUOUS
10
1.87798
20
0.474598
11
1.7457
21
0.474598
0
LINE
8
BLACK
6
CONTINUOUS
10
1.7457
20
0.474598
11
1.745
21
0.474887
0
LINE
8
BLACK
6
CONTINUOUS
10
1.745
20
0.474887
11
1.74472
21
0.475583
0
LINE
8
BLACK
6
CONTINUOUS
10
1.74472
20
0.475583
11
1.74472
21
0.550386
0
LINE
8
BLACK
6
CONTINUOUS
10
1.74472
20
0.550386
11
1.745
21
0.551082
0
LINE
8
BLACK
6
CONTINUOUS
10
1.745
20
0.551082
11
1.7457
21
0.55137
0
LINE
8
BLACK
6
CONTINUOUS
10
1.7457
20
0.55137
11
1.87798
21
0.55137
0
LINE
8
BLACK
6
CONTINUOUS
10
1.74669
20
0.549402
11
1.74669
21
0.476567
0
LINE
8
BLACK
6
CONTINUOUS
10
1.74669
20
0.476567
11
1.877
21
0.476567
0
LINE
8
BLACK
6
CONTINUOUS
10
1.877
20
0.476567
11
1.877
21
0.549402
0
LINE
8
BLACK
6
CONTINUOUS
10
1.877
20
0.549402
11
1.74669
21
0.549402
0
LINE
8
BLACK
6
CONTINUOUS
10
2.30074
20
0.610898
11
2.30144
21
0.610609
0
LINE
8
BLACK
6
CONTINUOUS
10
2.30144
20
0.610609
11
2.30172
21
0.609913
0
LINE
8
BLACK
6
CONTINUOUS
10
2.30172
20
0.609913
11
2.30172
21
0.476055
0
LINE
8
BLACK
6
CONTINUOUS
10
2.30172
20
0.476055
11
2.30144
21
0.475359
0
LINE
8
BLACK
6
CONTINUOUS
10
2.30144
20
0.475359
11
2.30074
21
0.475071
0
LINE
8
BLACK
6
CONTINUOUS
10
2.30074
20
0.475071
11
2.22357
21
0.475071
0
LINE
8
BLACK
6
CONTINUOUS
10
2.22357
20
0.475071
11
2.22288
21
0.475359
0
LINE
8
BLACK
6
CONTINUOUS
10
2.22288
20
0.475359
11
2.22259
21
0.476055
0
LINE
8
BLACK
6
CONTINUOUS
10
2.22259
20
0.476055
11
2.22259
21
0.609913
0
LINE
8
BLACK
6
CONTINUOUS
10
2.22259
20
0.609913
11
2.22288
21
0.610609
0
LINE
8
BLACK
6
CONTINUOUS
10
2.22288
20
0.610609
11
2.22357
21
0.610898
0
LINE
8
BLACK
6
CONTINUOUS
10
2.22357
20
0.610898
11
2.30074
21
0.610898
0
LINE
8
BLACK
6
CONTINUOUS
10
2.22456
20
0.608929
11
2.22456
21
0.477039
0
LINE
8
BLACK
6
CONTINUOUS
10
2.22456
20
0.477039
11
2.29976
21
0.477039
0
LINE
8
BLACK
6
CONTINUOUS
10
2.29976
20
0.477039
11
2.29976
21
0.608929
0
LINE
8
BLACK
6
CONTINUOUS
10
2.29976
20
0.608929
11
2.22456
21
0.608929
0
LINE
8
BLACK
6
CONTINUOUS
10
2.38956
20
0.61011
11
2.39026
21
0.609822
0
LINE
8
BLACK
6
CONTINUOUS
10
2.39026
20
0.609822
11
2.39054
21
0.609126
0
LINE
8
BLACK
6
CONTINUOUS
10
2.39054
20
0.609126
11
2.39054
21
0.476843
0
LINE
8
BLACK
6
CONTINUOUS
10
2.39054
20
0.476843
11
2.39026
21
0.476147
0
LINE
8
BLACK
6
CONTINUOUS
10
2.39026
20
0.476147
11
2.38956
21
0.475858
0
LINE
8
BLACK
6
CONTINUOUS
10
2.38956
20
0.475858
11
2.31476
21
0.475858
0
LINE
8
BLACK
6
CONTINUOUS
10
2.31476
20
0.475858
11
2.31406
21
0.476147
0
LINE
8
BLACK
6
CONTINUOUS
10
2.31406
20
0.476147
11
2.31377
21
0.476843
0
LINE
8
BLACK
6
CONTINUOUS
10
2.31377
20
0.476843
11
2.31377
21
0.609126
0
LINE
8
BLACK
6
CONTINUOUS
10
2.31377
20
0.609126
11
2.31406
21
0.609822
0
LINE
8
BLACK
6
CONTINUOUS
10
2.31406
20
0.609822
11
2.31476
21
0.61011
0
LINE
8
BLACK
6
CONTINUOUS
10
2.31476
20
0.61011
11
2.38956
21
0.61011
0
LINE
8
BLACK
6
CONTINUOUS
10
2.31574
20
0.608142
11
2.31574
21
0.477827
0
LINE
8
BLACK
6
CONTINUOUS
10
2.31574
20
0.477827
11
2.38857
21
0.477827
0
LINE
8
BLACK
6
CONTINUOUS
10
2.38857
20
0.477827
11
2.38857
21
0.608142
0
LINE
8
BLACK
6
CONTINUOUS
10
2.38857
20
0.608142
11
2.31574
21
0.608142
0
LINE
8
BLACK
6
CONTINUOUS
10
0.969551
20
0.563323
11
0.970247
21
0.563035
0
LINE
8
BLACK
6
CONTINUOUS
10
0.970247
20
0.563035
11
0.970535
21
0.562339
0
LINE
8
BLACK
6
CONTINUOUS
10
0.970535
20
0.562339
11
0.970535
21
0.479661
0
LINE
8
BLACK
6
CONTINUOUS
10
0.970535
20
0.479661
11
0.970247
21
0.478965
0
LINE
8
BLACK
6
CONTINUOUS
10
0.970247
20
0.478965
11
0.969551
21
0.478677
0
LINE
8
BLACK
6
CONTINUOUS
10
0.969551
20
0.478677
11
0.788449
21
0.478677
0
LINE
8
BLACK
6
CONTINUOUS
10
0.788449
20
0.478677
11
0.787753
21
0.478965
0
LINE
8
BLACK
6
CONTINUOUS
10
0.787753
20
0.478965
11
0.787465
21
0.479661
0
LINE
8
BLACK
6
CONTINUOUS
10
0.787465
20
0.479661
11
0.787465
21
0.562339
0
LINE
8
BLACK
6
CONTINUOUS
10
0.787465
20
0.562339
11
0.787753
21
0.563035
0
LINE
8
BLACK
6
CONTINUOUS
10
0.787753
20
0.563035
11
0.788449
21
0.563323
0
LINE
8
BLACK
6
CONTINUOUS
10
0.788449
20
0.563323
11
0.969551
21
0.563323
0
LINE
8
BLACK
6
CONTINUOUS
10
0.789433
20
0.561354
11
0.789433
21
0.480646
0
LINE
8
BLACK
6
CONTINUOUS
10
0.789433
20
0.480646
11
0.968567
21
0.480646
0
LINE
8
BLACK
6
CONTINUOUS
10
0.968567
20
0.480646
11
0.968567
21
0.561354
0
LINE
8
BLACK
6
CONTINUOUS
10
0.968567
20
0.561354
11
0.789433
21
0.561354
0
LINE
8
BLACK
6
CONTINUOUS
10
1.72374
20
0.615898
11
1.72444
21
0.615609
0
LINE
8
BLACK
6
CONTINUOUS
10
1.72444
20
0.615609
11
1.72472
21
0.614913
0
LINE
8
BLACK
6
CONTINUOUS
10
1.72472
20
0.614913
11
1.72472
21
0.481055
0
LINE
8
BLACK
6
CONTINUOUS
10
1.72472
20
0.481055
11
1.72444
21
0.480359
0
LINE
8
BLACK
6
CONTINUOUS
10
1.72444
20
0.480359
11
1.72374
21
0.480071
0
LINE
8
BLACK
6
CONTINUOUS
10
1.72374
20
0.480071
11
1.64657
21
0.480071
0
LINE
8
BLACK
6
CONTINUOUS
10
1.64657
20
0.480071
11
1.64588
21
0.480359
0
LINE
8
BLACK
6
CONTINUOUS
10
1.64588
20
0.480359
11
1.64559
21
0.481055
0
LINE
8
BLACK
6
CONTINUOUS
10
1.64559
20
0.481055
11
1.64559
21
0.614913
0
LINE
8
BLACK
6
CONTINUOUS
10
1.64559
20
0.614913
11
1.64588
21
0.615609
0
LINE
8
BLACK
6
CONTINUOUS
10
1.64588
20
0.615609
11
1.64657
21
0.615898
0
LINE
8
BLACK
6
CONTINUOUS
10
1.64657
20
0.615898
11
1.72374
21
0.615898
0
LINE
8
BLACK
6
CONTINUOUS
10
1.64756
20
0.613929
11
1.64756
21
0.482039
0
LINE
8
BLACK
6
CONTINUOUS
10
1.64756
20
0.482039
11
1.72276
21
0.482039
0
LINE
8
BLACK
6
CONTINUOUS
10
1.72276
20
0.482039
11
1.72276
21
0.613929
0
LINE
8
BLACK
6
CONTINUOUS
10
1.72276
20
0.613929
11
1.64756
21
0.613929
0
LINE
8
BLACK
6
CONTINUOUS
10
1.12014
20
0.558386
11
1.12084
21
0.558098
0
LINE
8
BLACK
6
CONTINUOUS
10
1.12084
20
0.558098
11
1.12113
21
0.557402
0
LINE
8
BLACK
6
CONTINUOUS
10
1.12113
20
0.557402
11
1.12113
21
0.482598
0
LINE
8
BLACK
6
CONTINUOUS
10
1.12113
20
0.482598
11
1.12084
21
0.481902
0
LINE
8
BLACK
6
CONTINUOUS
10
1.12084
20
0.481902
11
1.12014
21
0.481614
0
LINE
8
BLACK
6
CONTINUOUS
10
1.12014
20
0.481614
11
0.987858
21
0.481614
0
LINE
8
BLACK
6
CONTINUOUS
10
0.987858
20
0.481614
11
0.987162
21
0.481902
0
LINE
8
BLACK
6
CONTINUOUS
10
0.987162
20
0.481902
11
0.986874
21
0.482598
0
LINE
8
BLACK
6
CONTINUOUS
10
0.986874
20
0.482598
11
0.986874
21
0.557402
0
LINE
8
BLACK
6
CONTINUOUS
10
0.986874
20
0.557402
11
0.987162
21
0.558098
0
LINE
8
BLACK
6
CONTINUOUS
10
0.987162
20
0.558098
11
0.987858
21
0.558386
0
LINE
8
BLACK
6
CONTINUOUS
10
0.987858
20
0.558386
11
1.12014
21
0.558386
0
LINE
8
BLACK
6
CONTINUOUS
10
0.988843
20
0.556417
11
0.988843
21
0.483583
0
LINE
8
BLACK
6
CONTINUOUS
10
0.988843
20
0.483583
11
1.11916
21
0.483583
0
LINE
8
BLACK
6
CONTINUOUS
10
1.11916
20
0.483583
11
1.11916
21
0.556417
0
LINE
8
BLACK
6
CONTINUOUS
10
1.11916
20
0.556417
11
0.988843
21
0.556417
0
LINE
8
BLACK
6
CONTINUOUS
10
1.5674
20
0.676126
11
1.5681
21
0.675838
0
LINE
8
BLACK
6
CONTINUOUS
10
1.5681
20
0.675838
11
1.56839
21
0.675142
0
LINE
8
BLACK
6
CONTINUOUS
10
1.56839
20
0.675142
11
1.56839
21
0.542858
0
LINE
8
BLACK
6
CONTINUOUS
10
1.56839
20
0.542858
11
1.5681
21
0.542162
0
LINE
8
BLACK
6
CONTINUOUS
10
1.5681
20
0.542162
11
1.5674
21
0.541874
0
LINE
8
BLACK
6
CONTINUOUS
10
1.5674
20
0.541874
11
1.4926
21
0.541874
0
LINE
8
BLACK
6
CONTINUOUS
10
1.4926
20
0.541874
11
1.4919
21
0.542162
0
LINE
8
BLACK
6
CONTINUOUS
10
1.4919
20
0.542162
11
1.49161
21
0.542858
0
LINE
8
BLACK
6
CONTINUOUS
10
1.49161
20
0.542858
11
1.49161
21
0.675142
0
LINE
8
BLACK
6
CONTINUOUS
10
1.49161
20
0.675142
11
1.4919
21
0.675838
0
LINE
8
BLACK
6
CONTINUOUS
10
1.4919
20
0.675838
11
1.4926
21
0.676126
0
LINE
8
BLACK
6
CONTINUOUS
10
1.4926
20
0.676126
11
1.5674
21
0.676126
0
LINE
8
BLACK
6
CONTINUOUS
10
1.49358
20
0.674157
11
1.49358
21
0.543843
0
LINE
8
BLACK
6
CONTINUOUS
10
1.49358
20
0.543843
11
1.56642
21
0.543843
0
LINE
8
BLACK
6
CONTINUOUS
10
1.56642
20
0.543843
11
1.56642
21
0.674157
0
LINE
8
BLACK
6
CONTINUOUS
10
1.56642
20
0.674157
11
1.49358
21
0.674157
0
LINE
8
BLACK
6
CONTINUOUS
10
2.0874
20
0.699126
11
2.0881
21
0.698838
0
LINE
8
BLACK
6
CONTINUOUS
10
2.0881
20
0.698838
11
2.08839
21
0.698142
0
LINE
8
BLACK
6
CONTINUOUS
10
2.08839
20
0.698142
11
2.08839
21
0.565858
0
LINE
8
BLACK
6
CONTINUOUS
10
2.08839
20
0.565858
11
2.0881
21
0.565162
0
LINE
8
BLACK
6
CONTINUOUS
10
2.0881
20
0.565162
11
2.0874
21
0.564874
0
LINE
8
BLACK
6
CONTINUOUS
10
2.0874
20
0.564874
11
2.0126
21
0.564874
0
LINE
8
BLACK
6
CONTINUOUS
10
2.0126
20
0.564874
11
2.0119
21
0.565162
0
LINE
8
BLACK
6
CONTINUOUS
10
2.0119
20
0.565162
11
2.01161
21
0.565858
0
LINE
8
BLACK
6
CONTINUOUS
10
2.01161
20
0.565858
11
2.01161
21
0.698142
0
LINE
8
BLACK
6
CONTINUOUS
10
2.01161
20
0.698142
11
2.0119
21
0.698838
0
LINE
8
BLACK
6
CONTINUOUS
10
2.0119
20
0.698838
11
2.0126
21
0.699126
0
LINE
8
BLACK
6
CONTINUOUS
10
2.0126
20
0.699126
11
2.0874
21
0.699126
0
LINE
8
BLACK
6
CONTINUOUS
10
2.01358
20
0.697157
11
2.01358
21
0.566843
0
LINE
8
BLACK
6
CONTINUOUS
10
2.01358
20
0.566843
11
2.08642
21
0.566843
0
LINE
8
BLACK
6
CONTINUOUS
10
2.08642
20
0.566843
11
2.08642
21
0.697157
0
LINE
8
BLACK
6
CONTINUOUS
10
2.08642
20
0.697157
11
2.01358
21
0.697157
0
LINE
8
BLACK
6
CONTINUOUS
10
0.968929
20
0.645567
11
0.969625
21
0.645279
0
LINE
8
BLACK
6
CONTINUOUS
10
0.969625
20
0.645279
11
0.969913
21
0.644583
0
LINE
8
BLACK
6
CONTINUOUS
10
0.969913
20
0.644583
11
0.969913
21
0.567417
0
LINE
8
BLACK
6
CONTINUOUS
10
0.969913
20
0.567417
11
0.969625
21
0.566721
0
LINE
8
BLACK
6
CONTINUOUS
10
0.969625
20
0.566721
11
0.968929
21
0.566433
0
LINE
8
BLACK
6
CONTINUOUS
10
0.968929
20
0.566433
11
0.835071
21
0.566433
0
LINE
8
BLACK
6
CONTINUOUS
10
0.835071
20
0.566433
11
0.834375
21
0.566721
0
LINE
8
BLACK
6
CONTINUOUS
10
0.834375
20
0.566721
11
0.834087
21
0.567417
0
LINE
8
BLACK
6
CONTINUOUS
10
0.834087
20
0.567417
11
0.834087
21
0.644583
0
LINE
8
BLACK
6
CONTINUOUS
10
0.834087
20
0.644583
11
0.834375
21
0.645279
0
LINE
8
BLACK
6
CONTINUOUS
10
0.834375
20
0.645279
11
0.835071
21
0.645567
0
LINE
8
BLACK
6
CONTINUOUS
10
0.835071
20
0.645567
11
0.968929
21
0.645567
0
LINE
8
BLACK
6
CONTINUOUS
10
0.836055
20
0.643598
11
0.836055
21
0.568402
0
LINE
8
BLACK
6
CONTINUOUS
10
0.836055
20
0.568402
11
0.967945
21
0.568402
0
LINE
8
BLACK
6
CONTINUOUS
10
0.967945
20
0.568402
11
0.967945
21
0.643598
0
LINE
8
BLACK
6
CONTINUOUS
10
0.967945
20
0.643598
11
0.836055
21
0.643598
0
LINE
8
BLACK
6
CONTINUOUS
10
1.88358
20
0.718913
11
1.88428
21
0.718625
0
LINE
8
BLACK
6
CONTINUOUS
10
1.88428
20
0.718625
11
1.88457
21
0.717929
0
LINE
8
BLACK
6
CONTINUOUS
10
1.88457
20
0.717929
11
1.88457
21
0.584071
0
LINE
8
BLACK
6
CONTINUOUS
10
1.88457
20
0.584071
11
1.88428
21
0.583375
0
LINE
8
BLACK
6
CONTINUOUS
10
1.88428
20
0.583375
11
1.88358
21
0.583087
0
LINE
8
BLACK
6
CONTINUOUS
10
1.88358
20
0.583087
11
1.80642
21
0.583087
0
LINE
8
BLACK
6
CONTINUOUS
10
1.80642
20
0.583087
11
1.80572
21
0.583375
0
LINE
8
BLACK
6
CONTINUOUS
10
1.80572
20
0.583375
11
1.80543
21
0.584071
0
LINE
8
BLACK
6
CONTINUOUS
10
1.80543
20
0.584071
11
1.80543
21
0.717929
0
LINE
8
BLACK
6
CONTINUOUS
10
1.80543
20
0.717929
11
1.80572
21
0.718625
0
LINE
8
BLACK
6
CONTINUOUS
10
1.80572
20
0.718625
11
1.80642
21
0.718913
0
LINE
8
BLACK
6
CONTINUOUS
10
1.80642
20
0.718913
11
1.88358
21
0.718913
0
LINE
8
BLACK
6
CONTINUOUS
10
1.8074
20
0.716945
11
1.8074
21
0.585055
0
LINE
8
BLACK
6
CONTINUOUS
10
1.8074
20
0.585055
11
1.8826
21
0.585055
0
LINE
8
BLACK
6
CONTINUOUS
10
1.8826
20
0.585055
11
1.8826
21
0.716945
0
LINE
8
BLACK
6
CONTINUOUS
10
1.8826
20
0.716945
11
1.8074
21
0.716945
0
LINE
8
BLACK
6
CONTINUOUS
10
1.47955
20
0.691323
11
1.48025
21
0.691035
0
LINE
8
BLACK
6
CONTINUOUS
10
1.48025
20
0.691035
11
1.48054
21
0.690339
0
LINE
8
BLACK
6
CONTINUOUS
10
1.48054
20
0.690339
11
1.48054
21
0.607661
0
LINE
8
BLACK
6
CONTINUOUS
10
1.48054
20
0.607661
11
1.48025
21
0.606965
0
LINE
8
BLACK
6
CONTINUOUS
10
1.48025
20
0.606965
11
1.47955
21
0.606677
0
LINE
8
BLACK
6
CONTINUOUS
10
1.47955
20
0.606677
11
1.29845
21
0.606677
0
LINE
8
BLACK
6
CONTINUOUS
10
1.29845
20
0.606677
11
1.29775
21
0.606965
0
LINE
8
BLACK
6
CONTINUOUS
10
1.29775
20
0.606965
11
1.29746
21
0.607661
0
LINE
8
BLACK
6
CONTINUOUS
10
1.29746
20
0.607661
11
1.29746
21
0.690339
0
LINE
8
BLACK
6
CONTINUOUS
10
1.29746
20
0.690339
11
1.29775
21
0.691035
0
LINE
8
BLACK
6
CONTINUOUS
10
1.29775
20
0.691035
11
1.29845
21
0.691323
0
LINE
8
BLACK
6
CONTINUOUS
10
1.29845
20
0.691323
11
1.47955
21
0.691323
0
LINE
8
BLACK
6
CONTINUOUS
10
1.29943
20
0.689354
11
1.29943
21
0.608646
0
LINE
8
BLACK
6
CONTINUOUS
10
1.29943
20
0.608646
11
1.47857
21
0.608646
0
LINE
8
BLACK
6
CONTINUOUS
10
1.47857
20
0.608646
11
1.47857
21
0.689354
0
LINE
8
BLACK
6
CONTINUOUS
10
1.47857
20
0.689354
11
1.29943
21
0.689354
0
LINE
8
BLACK
6
CONTINUOUS
10
2.39814
20
0.701386
11
2.39884
21
0.701098
0
LINE
8
BLACK
6
CONTINUOUS
10
2.39884
20
0.701098
11
2.39913
21
0.700402
0
LINE
8
BLACK
6
CONTINUOUS
10
2.39913
20
0.700402
11
2.39913
21
0.625598
0
LINE
8
BLACK
6
CONTINUOUS
10
2.39913
20
0.625598
11
2.39884
21
0.624902
0
LINE
8
BLACK
6
CONTINUOUS
10
2.39884
20
0.624902
11
2.39814
21
0.624614
0
LINE
8
BLACK
6
CONTINUOUS
10
2.39814
20
0.624614
11
2.26586
21
0.624614
0
LINE
8
BLACK
6
CONTINUOUS
10
2.26586
20
0.624614
11
2.26516
21
0.624902
0
LINE
8
BLACK
6
CONTINUOUS
10
2.26516
20
0.624902
11
2.26487
21
0.625598
0
LINE
8
BLACK
6
CONTINUOUS
10
2.26487
20
0.625598
11
2.26487
21
0.700402
0
LINE
8
BLACK
6
CONTINUOUS
10
2.26487
20
0.700402
11
2.26516
21
0.701098
0
LINE
8
BLACK
6
CONTINUOUS
10
2.26516
20
0.701098
11
2.26586
21
0.701386
0
LINE
8
BLACK
6
CONTINUOUS
10
2.26586
20
0.701386
11
2.39814
21
0.701386
0
LINE
8
BLACK
6
CONTINUOUS
10
2.26684
20
0.699417
11
2.26684
21
0.626583
0
LINE
8
BLACK
6
CONTINUOUS
10
2.26684
20
0.626583
11
2.39716
21
0.626583
0
LINE
8
BLACK
6
CONTINUOUS
10
2.39716
20
0.626583
11
2.39716
21
0.699417
0
LINE
8
BLACK
6
CONTINUOUS
10
2.39716
20
0.699417
11
2.26684
21
0.699417
0
LINE
8
BLACK
6
CONTINUOUS
10
1.80022
20
0.718386
11
1.80091
21
0.718098
0
LINE
8
BLACK
6
CONTINUOUS
10
1.80091
20
0.718098
11
1.8012
21
0.717402
0
LINE
8
BLACK
6
CONTINUOUS
10
1.8012
20
0.717402
11
1.8012
21
0.642598
0
LINE
8
BLACK
6
CONTINUOUS
10
1.8012
20
0.642598
11
1.80091
21
0.641902
0
LINE
8
BLACK
6
CONTINUOUS
10
1.80091
20
0.641902
11
1.80022
21
0.641614
0
LINE
8
BLACK
6
CONTINUOUS
10
1.80022
20
0.641614
11
1.66793
21
0.641614
0
LINE
8
BLACK
6
CONTINUOUS
10
1.66793
20
0.641614
11
1.66724
21
0.641902
0
LINE
8
BLACK
6
CONTINUOUS
10
1.66724
20
0.641902
11
1.66695
21
0.642598
0
LINE
8
BLACK
6
CONTINUOUS
10
1.66695
20
0.642598
11
1.66695
21
0.717402
0
LINE
8
BLACK
6
CONTINUOUS
10
1.66695
20
0.717402
11
1.66724
21
0.718098
0
LINE
8
BLACK
6
CONTINUOUS
10
1.66724
20
0.718098
11
1.66793
21
0.718386
0
LINE
8
BLACK
6
CONTINUOUS
10
1.66793
20
0.718386
11
1.80022
21
0.718386
0
LINE
8
BLACK
6
CONTINUOUS
10
1.66892
20
0.716417
11
1.66892
21
0.643583
0
LINE
8
BLACK
6
CONTINUOUS
10
1.66892
20
0.643583
11
1.79923
21
0.643583
0
LINE
8
BLACK
6
CONTINUOUS
10
1.79923
20
0.643583
11
1.79923
21
0.716417
0
LINE
8
BLACK
6
CONTINUOUS
10
1.79923
20
0.716417
11
1.66892
21
0.716417
0
LINE
8
BLACK
6
CONTINUOUS
10
1.03887
20
0.849685
11
1.03956
21
0.849397
0
LINE
8
BLACK
6
CONTINUOUS
10
1.03956
20
0.849397
11
1.03985
21
0.848701
0
LINE
8
BLACK
6
CONTINUOUS
10
1.03985
20
0.848701
11
1.03985
21
0.661299
0
LINE
8
BLACK
6
CONTINUOUS
10
1.03985
20
0.661299
11
1.03956
21
0.660603
0
LINE
8
BLACK
6
CONTINUOUS
10
1.03956
20
0.660603
11
1.03887
21
0.660315
0
LINE
8
BLACK
6
CONTINUOUS
10
1.03887
20
0.660315
11
0.897134
21
0.660315
0
LINE
8
BLACK
6
CONTINUOUS
10
0.897134
20
0.660315
11
0.896438
21
0.660603
0
LINE
8
BLACK
6
CONTINUOUS
10
0.896438
20
0.660603
11
0.89615
21
0.661299
0
LINE
8
BLACK
6
CONTINUOUS
10
0.89615
20
0.661299
11
0.89615
21
0.848701
0
LINE
8
BLACK
6
CONTINUOUS
10
0.89615
20
0.848701
11
0.896438
21
0.849397
0
LINE
8
BLACK
6
CONTINUOUS
10
0.896438
20
0.849397
11
0.897134
21
0.849685
0
LINE
8
BLACK
6
CONTINUOUS
10
0.897134
20
0.849685
11
1.03887
21
0.849685
0
LINE
8
BLACK
6
CONTINUOUS
10
0.898118
20
0.847717
11
0.898118
21
0.662283
0
LINE
8
BLACK
6
CONTINUOUS
10
0.898118
20
0.662283
11
1.03788
21
0.662283
0
LINE
8
BLACK
6
CONTINUOUS
10
1.03788
20
0.662283
11
1.03788
21
0.847717
0
LINE
8
BLACK
6
CONTINUOUS
10
1.03788
20
0.847717
11
0.898118
21
0.847717
0
LINE
8
BLACK
6
CONTINUOUS
10
1.47993
20
0.781567
11
1.48063
21
0.781279
0
LINE
8
BLACK
6
CONTINUOUS
10
1.48063
20
0.781279
11
1.48091
21
0.780583
0
LINE
8
BLACK
6
CONTINUOUS
10
1.48091
20
0.780583
11
1.48091
21
0.703417
0
LINE
8
BLACK
6
CONTINUOUS
10
1.48091
20
0.703417
11
1.48063
21
0.702721
0
LINE
8
BLACK
6
CONTINUOUS
10
1.48063
20
0.702721
11
1.47993
21
0.702433
0
LINE
8
BLACK
6
CONTINUOUS
10
1.47993
20
0.702433
11
1.34607
21
0.702433
0
LINE
8
BLACK
6
CONTINUOUS
10
1.34607
20
0.702433
11
1.34537
21
0.702721
0
LINE
8
BLACK
6
CONTINUOUS
10
1.34537
20
0.702721
11
1.34509
21
0.703417
0
LINE
8
BLACK
6
CONTINUOUS
10
1.34509
20
0.703417
11
1.34509
21
0.780583
0
LINE
8
BLACK
6
CONTINUOUS
10
1.34509
20
0.780583
11
1.34537
21
0.781279
0
LINE
8
BLACK
6
CONTINUOUS
10
1.34537
20
0.781279
11
1.34607
21
0.781567
0
LINE
8
BLACK
6
CONTINUOUS
10
1.34607
20
0.781567
11
1.47993
21
0.781567
0
LINE
8
BLACK
6
CONTINUOUS
10
1.34706
20
0.779598
11
1.34706
21
0.704402
0
LINE
8
BLACK
6
CONTINUOUS
10
1.34706
20
0.704402
11
1.47894
21
0.704402
0
LINE
8
BLACK
6
CONTINUOUS
10
1.47894
20
0.704402
11
1.47894
21
0.779598
0
LINE
8
BLACK
6
CONTINUOUS
10
1.47894
20
0.779598
11
1.34706
21
0.779598
0
LINE
8
BLACK
6
CONTINUOUS
10
2.40755
20
0.838976
11
2.40825
21
0.838688
0
LINE
8
BLACK
6
CONTINUOUS
10
2.40825
20
0.838688
11
2.40854
21
0.837992
0
LINE
8
BLACK
6
CONTINUOUS
10
2.40854
20
0.837992
11
2.40854
21
0.712008
0
LINE
8
BLACK
6
CONTINUOUS
10
2.40854
20
0.712008
11
2.40825
21
0.711312
0
LINE
8
BLACK
6
CONTINUOUS
10
2.40825
20
0.711312
11
2.40755
21
0.711024
0
LINE
8
BLACK
6
CONTINUOUS
10
2.40755
20
0.711024
11
2.22645
21
0.711024
0
LINE
8
BLACK
6
CONTINUOUS
10
2.22645
20
0.711024
11
2.22575
21
0.711312
0
LINE
8
BLACK
6
CONTINUOUS
10
2.22575
20
0.711312
11
2.22546
21
0.712008
0
LINE
8
BLACK
6
CONTINUOUS
10
2.22546
20
0.712008
11
2.22546
21
0.837992
0
LINE
8
BLACK
6
CONTINUOUS
10
2.22546
20
0.837992
11
2.22575
21
0.838688
0
LINE
8
BLACK
6
CONTINUOUS
10
2.22575
20
0.838688
11
2.22645
21
0.838976
0
LINE
8
BLACK
6
CONTINUOUS
10
2.22645
20
0.838976
11
2.40755
21
0.838976
0
LINE
8
BLACK
6
CONTINUOUS
10
2.22743
20
0.837008
11
2.22743
21
0.712992
0
LINE
8
BLACK
6
CONTINUOUS
10
2.22743
20
0.712992
11
2.40657
21
0.712992
0
LINE
8
BLACK
6
CONTINUOUS
10
2.40657
20
0.712992
11
2.40657
21
0.837008
0
LINE
8
BLACK
6
CONTINUOUS
10
2.40657
20
0.837008
11
2.22743
21
0.837008
0
LINE
8
BLACK
6
CONTINUOUS
10
2.13955
20
0.842976
11
2.14025
21
0.842688
0
LINE
8
BLACK
6
CONTINUOUS
10
2.14025
20
0.842688
11
2.14054
21
0.841992
0
LINE
8
BLACK
6
CONTINUOUS
10
2.14054
20
0.841992
11
2.14054
21
0.716008
0
LINE
8
BLACK
6
CONTINUOUS
10
2.14054
20
0.716008
11
2.14025
21
0.715312
0
LINE
8
BLACK
6
CONTINUOUS
10
2.14025
20
0.715312
11
2.13955
21
0.715024
0
LINE
8
BLACK
6
CONTINUOUS
10
2.13955
20
0.715024
11
1.95845
21
0.715024
0
LINE
8
BLACK
6
CONTINUOUS
10
1.95845
20
0.715024
11
1.95775
21
0.715312
0
LINE
8
BLACK
6
CONTINUOUS
10
1.95775
20
0.715312
11
1.95746
21
0.716008
0
LINE
8
BLACK
6
CONTINUOUS
10
1.95746
20
0.716008
11
1.95746
21
0.841992
0
LINE
8
BLACK
6
CONTINUOUS
10
1.95746
20
0.841992
11
1.95775
21
0.842688
0
LINE
8
BLACK
6
CONTINUOUS
10
1.95775
20
0.842688
11
1.95845
21
0.842976
0
LINE
8
BLACK
6
CONTINUOUS
10
1.95845
20
0.842976
11
2.13955
21
0.842976
0
LINE
8
BLACK
6
CONTINUOUS
10
1.95943
20
0.841008
11
1.95943
21
0.716992
0
LINE
8
BLACK
6
CONTINUOUS
10
1.95943
20
0.716992
11
2.13857
21
0.716992
0
LINE
8
BLACK
6
CONTINUOUS
10
2.13857
20
0.716992
11
2.13857
21
0.841008
0
LINE
8
BLACK
6
CONTINUOUS
10
2.13857
20
0.841008
11
1.95943
21
0.841008
0
LINE
8
BLACK
6
CONTINUOUS
10
1.85859
20
0.855913
11
1.85929
21
0.855625
0
LINE
8
BLACK
6
CONTINUOUS
10
1.85929
20
0.855625
11
1.85957
21
0.854929
0
LINE
8
BLACK
6
CONTINUOUS
10
1.85957
20
0.854929
11
1.85957
21
0.721071
0
LINE
8
BLACK
6
CONTINUOUS
10
1.85957
20
0.721071
11
1.85929
21
0.720375
0
LINE
8
BLACK
6
CONTINUOUS
10
1.85929
20
0.720375
11
1.85859
21
0.720087
0
LINE
8
BLACK
6
CONTINUOUS
10
1.85859
20
0.720087
11
1.70741
21
0.720087
0
LINE
8
BLACK
6
CONTINUOUS
10
1.70741
20
0.720087
11
1.70671
21
0.720375
0
LINE
8
BLACK
6
CONTINUOUS
10
1.70671
20
0.720375
11
1.70643
21
0.721071
0
LINE
8
BLACK
6
CONTINUOUS
10
1.70643
20
0.721071
11
1.70643
21
0.854929
0
LINE
8
BLACK
6
CONTINUOUS
10
1.70643
20
0.854929
11
1.70671
21
0.855625
0
LINE
8
BLACK
6
CONTINUOUS
10
1.70671
20
0.855625
11
1.70741
21
0.855913
0
LINE
8
BLACK
6
CONTINUOUS
10
1.70741
20
0.855913
11
1.85859
21
0.855913
0
LINE
8
BLACK
6
CONTINUOUS
10
1.70839
20
0.853945
11
1.70839
21
0.722055
0
LINE
8
BLACK
6
CONTINUOUS
10
1.70839
20
0.722055
11
1.85761
21
0.722055
0
LINE
8
BLACK
6
CONTINUOUS
10
1.85761
20
0.722055
11
1.85761
21
0.853945
0
LINE
8
BLACK
6
CONTINUOUS
10
1.85761
20
0.853945
11
1.70839
21
0.853945
0
LINE
8
BLACK
6
CONTINUOUS
10
1.55538
20
1.03054
11
1.55607
21
1.03025
0
LINE
8
BLACK
6
CONTINUOUS
10
1.55607
20
1.03025
11
1.55636
21
1.02955
0
LINE
8
BLACK
6
CONTINUOUS
10
1.55636
20
1.02955
11
1.55636
21
0.79648
0
LINE
8
BLACK
6
CONTINUOUS
10
1.55636
20
0.79648
11
1.55607
21
0.795784
0
LINE
8
BLACK
6
CONTINUOUS
10
1.55607
20
0.795784
11
1.55538
21
0.795496
0
LINE
8
BLACK
6
CONTINUOUS
10
1.55538
20
0.795496
11
1.42152
21
0.795496
0
LINE
8
BLACK
6
CONTINUOUS
10
1.42152
20
0.795496
11
1.42082
21
0.795784
0
LINE
8
BLACK
6
CONTINUOUS
10
1.42082
20
0.795784
11
1.42054
21
0.79648
0
LINE
8
BLACK
6
CONTINUOUS
10
1.42054
20
0.79648
11
1.42054
21
1.02955
0
LINE
8
BLACK
6
CONTINUOUS
10
1.42054
20
1.02955
11
1.42082
21
1.03025
0
LINE
8
BLACK
6
CONTINUOUS
10
1.42082
20
1.03025
11
1.42152
21
1.03054
0
LINE
8
BLACK
6
CONTINUOUS
10
1.42152
20
1.03054
11
1.55538
21
1.03054
0
LINE
8
BLACK
6
CONTINUOUS
10
1.4225
20
1.02857
11
1.4225
21
0.797465
0
LINE
8
BLACK
6
CONTINUOUS
10
1.4225
20
0.797465
11
1.55439
21
0.797465
0
LINE
8
BLACK
6
CONTINUOUS
10
1.55439
20
0.797465
11
1.55439
21
1.02857
0
LINE
8
BLACK
6
CONTINUOUS
10
1.55439
20
1.02857
11
1.4225
21
1.02857
0
LINE
8
BLACK
6
CONTINUOUS
10
1.41358
20
0.961913
11
1.41428
21
0.961625
0
LINE
8
BLACK
6
CONTINUOUS
10
1.41428
20
0.961625
11
1.41457
21
0.960929
0
LINE
8
BLACK
6
CONTINUOUS
10
1.41457
20
0.960929
11
1.41457
21
0.827071
0
LINE
8
BLACK
6
CONTINUOUS
10
1.41457
20
0.827071
11
1.41428
21
0.826375
0
LINE
8
BLACK
6
CONTINUOUS
10
1.41428
20
0.826375
11
1.41358
21
0.826087
0
LINE
8
BLACK
6
CONTINUOUS
10
1.41358
20
0.826087
11
1.33642
21
0.826087
0
LINE
8
BLACK
6
CONTINUOUS
10
1.33642
20
0.826087
11
1.33572
21
0.826375
0
LINE
8
BLACK
6
CONTINUOUS
10
1.33572
20
0.826375
11
1.33543
21
0.827071
0
LINE
8
BLACK
6
CONTINUOUS
10
1.33543
20
0.827071
11
1.33543
21
0.960929
0
LINE
8
BLACK
6
CONTINUOUS
10
1.33543
20
0.960929
11
1.33572
21
0.961625
0
LINE
8
BLACK
6
CONTINUOUS
10
1.33572
20
0.961625
11
1.33642
21
0.961913
0
LINE
8
BLACK
6
CONTINUOUS
10
1.33642
20
0.961913
11
1.41358
21
0.961913
0
LINE
8
BLACK
6
CONTINUOUS
10
1.3374
20
0.959945
11
1.3374
21
0.828055
0
LINE
8
BLACK
6
CONTINUOUS
10
1.3374
20
0.828055
11
1.4126
21
0.828055
0
LINE
8
BLACK
6
CONTINUOUS
10
1.4126
20
0.828055
11
1.4126
21
0.959945
0
LINE
8
BLACK
6
CONTINUOUS
10
1.4126
20
0.959945
11
1.3374
21
0.959945
0
LINE
8
BLACK
6
CONTINUOUS
10
1.33285
20
0.961717
11
1.33355
21
0.961428
0
LINE
8
BLACK
6
CONTINUOUS
10
1.33355
20
0.961428
11
1.33383
21
0.960732
0
LINE
8
BLACK
6
CONTINUOUS
10
1.33383
20
0.960732
11
1.33383
21
0.828449
0
LINE
8
BLACK
6
CONTINUOUS
10
1.33383
20
0.828449
11
1.33355
21
0.827753
0
LINE
8
BLACK
6
CONTINUOUS
10
1.33355
20
0.827753
11
1.33285
21
0.827465
0
LINE
8
BLACK
6
CONTINUOUS
10
1.33285
20
0.827465
11
1.25805
21
0.827465
0
LINE
8
BLACK
6
CONTINUOUS
10
1.25805
20
0.827465
11
1.25735
21
0.827753
0
LINE
8
BLACK
6
CONTINUOUS
10
1.25735
20
0.827753
11
1.25706
21
0.828449
0
LINE
8
BLACK
6
CONTINUOUS
10
1.25706
20
0.828449
11
1.25706
21
0.960732
0
LINE
8
BLACK
6
CONTINUOUS
10
1.25706
20
0.960732
11
1.25735
21
0.961428
0
LINE
8
BLACK
6
CONTINUOUS
10
1.25735
20
0.961428
11
1.25805
21
0.961717
0
LINE
8
BLACK
6
CONTINUOUS
10
1.25805
20
0.961717
11
1.33285
21
0.961717
0
LINE
8
BLACK
6
CONTINUOUS
10
1.25903
20
0.959748
11
1.25903
21
0.829433
0
LINE
8
BLACK
6
CONTINUOUS
10
1.25903
20
0.829433
11
1.33187
21
0.829433
0
LINE
8
BLACK
6
CONTINUOUS
10
1.33187
20
0.829433
11
1.33187
21
0.959748
0
LINE
8
BLACK
6
CONTINUOUS
10
1.33187
20
0.959748
11
1.25903
21
0.959748
0
LINE
8
BLACK
6
CONTINUOUS
10
1.99355
20
0.942323
11
1.99425
21
0.942035
0
LINE
8
BLACK
6
CONTINUOUS
10
1.99425
20
0.942035
11
1.99454
21
0.941339
0
LINE
8
BLACK
6
CONTINUOUS
10
1.99454
20
0.941339
11
1.99454
21
0.858661
0
LINE
8
BLACK
6
CONTINUOUS
10
1.99454
20
0.858661
11
1.99425
21
0.857965
0
LINE
8
BLACK
6
CONTINUOUS
10
1.99425
20
0.857965
11
1.99355
21
0.857677
0
LINE
8
BLACK
6
CONTINUOUS
10
1.99355
20
0.857677
11
1.81245
21
0.857677
0
LINE
8
BLACK
6
CONTINUOUS
10
1.81245
20
0.857677
11
1.81175
21
0.857965
0
LINE
8
BLACK
6
CONTINUOUS
10
1.81175
20
0.857965
11
1.81146
21
0.858661
0
LINE
8
BLACK
6
CONTINUOUS
10
1.81146
20
0.858661
11
1.81146
21
0.941339
0
LINE
8
BLACK
6
CONTINUOUS
10
1.81146
20
0.941339
11
1.81175
21
0.942035
0
LINE
8
BLACK
6
CONTINUOUS
10
1.81175
20
0.942035
11
1.81245
21
0.942323
0
LINE
8
BLACK
6
CONTINUOUS
10
1.81245
20
0.942323
11
1.99355
21
0.942323
0
LINE
8
BLACK
6
CONTINUOUS
10
1.81343
20
0.940354
11
1.81343
21
0.859646
0
LINE
8
BLACK
6
CONTINUOUS
10
1.81343
20
0.859646
11
1.99257
21
0.859646
0
LINE
8
BLACK
6
CONTINUOUS
10
1.99257
20
0.859646
11
1.99257
21
0.940354
0
LINE
8
BLACK
6
CONTINUOUS
10
1.99257
20
0.940354
11
1.81343
21
0.940354
0
LINE
8
BLACK
6
CONTINUOUS
10
2.13552
20
0.946268
11
2.13622
21
0.945979
0
LINE
8
BLACK
6
CONTINUOUS
10
2.13622
20
0.945979
11
2.1365
21
0.945283
0
LINE
8
BLACK
6
CONTINUOUS
10
2.1365
20
0.945283
11
2.1365
21
0.868118
0
LINE
8
BLACK
6
CONTINUOUS
10
2.1365
20
0.868118
11
2.13622
21
0.867422
0
LINE
8
BLACK
6
CONTINUOUS
10
2.13622
20
0.867422
11
2.13552
21
0.867134
0
LINE
8
BLACK
6
CONTINUOUS
10
2.13552
20
0.867134
11
2.00166
21
0.867134
0
LINE
8
BLACK
6
CONTINUOUS
10
2.00166
20
0.867134
11
2.00097
21
0.867422
0
LINE
8
BLACK
6
CONTINUOUS
10
2.00097
20
0.867422
11
2.00068
21
0.868118
0
LINE
8
BLACK
6
CONTINUOUS
10
2.00068
20
0.868118
11
2.00068
21
0.945283
0
LINE
8
BLACK
6
CONTINUOUS
10
2.00068
20
0.945283
11
2.00097
21
0.945979
0
LINE
8
BLACK
6
CONTINUOUS
10
2.00097
20
0.945979
11
2.00166
21
0.946268
0
LINE
8
BLACK
6
CONTINUOUS
10
2.00166
20
0.946268
11
2.13552
21
0.946268
0
LINE
8
BLACK
6
CONTINUOUS
10
2.00265
20
0.944299
11
2.00265
21
0.869102
0
LINE
8
BLACK
6
CONTINUOUS
10
2.00265
20
0.869102
11
2.13454
21
0.869102
0
LINE
8
BLACK
6
CONTINUOUS
10
2.13454
20
0.869102
11
2.13454
21
0.944299
0
LINE
8
BLACK
6
CONTINUOUS
10
2.13454
20
0.944299
11
2.00265
21
0.944299
0
LINE
8
BLACK
6
CONTINUOUS
10
2.27414
20
0.944386
11
2.27484
21
0.944098
0
LINE
8
BLACK
6
CONTINUOUS
10
2.27484
20
0.944098
11
2.27513
21
0.943402
0
LINE
8
BLACK
6
CONTINUOUS
10
2.27513
20
0.943402
11
2.27513
21
0.868598
0
LINE
8
BLACK
6
CONTINUOUS
10
2.27513
20
0.868598
11
2.27484
21
0.867902
0
LINE
8
BLACK
6
CONTINUOUS
10
2.27484
20
0.867902
11
2.27414
21
0.867614
0
LINE
8
BLACK
6
CONTINUOUS
10
2.27414
20
0.867614
11
2.14186
21
0.867614
0
LINE
8
BLACK
6
CONTINUOUS
10
2.14186
20
0.867614
11
2.14116
21
0.867902
0
LINE
8
BLACK
6
CONTINUOUS
10
2.14116
20
0.867902
11
2.14087
21
0.868598
0
LINE
8
BLACK
6
CONTINUOUS
10
2.14087
20
0.868598
11
2.14087
21
0.943402
0
LINE
8
BLACK
6
CONTINUOUS
10
2.14087
20
0.943402
11
2.14116
21
0.944098
0
LINE
8
BLACK
6
CONTINUOUS
10
2.14116
20
0.944098
11
2.14186
21
0.944386
0
LINE
8
BLACK
6
CONTINUOUS
10
2.14186
20
0.944386
11
2.27414
21
0.944386
0
LINE
8
BLACK
6
CONTINUOUS
10
2.14284
20
0.942417
11
2.14284
21
0.869583
0
LINE
8
BLACK
6
CONTINUOUS
10
2.14284
20
0.869583
11
2.27316
21
0.869583
0
LINE
8
BLACK
6
CONTINUOUS
10
2.27316
20
0.869583
11
2.27316
21
0.942417
0
LINE
8
BLACK
6
CONTINUOUS
10
2.27316
20
0.942417
11
2.14284
21
0.942417
0
LINE
8
BLACK
6
CONTINUOUS
10
1.6474
20
1.02013
11
1.6481
21
1.01984
0
LINE
8
BLACK
6
CONTINUOUS
10
1.6481
20
1.01984
11
1.64839
21
1.01914
0
LINE
8
BLACK
6
CONTINUOUS
10
1.64839
20
1.01914
11
1.64839
21
0.886858
0
LINE
8
BLACK
6
CONTINUOUS
10
1.64839
20
0.886858
11
1.6481
21
0.886162
0
LINE
8
BLACK
6
CONTINUOUS
10
1.6481
20
0.886162
11
1.6474
21
0.885874
0
LINE
8
BLACK
6
CONTINUOUS
10
1.6474
20
0.885874
11
1.5726
21
0.885874
0
LINE
8
BLACK
6
CONTINUOUS
10
1.5726
20
0.885874
11
1.5719
21
0.886162
0
LINE
8
BLACK
6
CONTINUOUS
10
1.5719
20
0.886162
11
1.57161
21
0.886858
0
LINE
8
BLACK
6
CONTINUOUS
10
1.57161
20
0.886858
11
1.57161
21
1.01914
0
LINE
8
BLACK
6
CONTINUOUS
10
1.57161
20
1.01914
11
1.5719
21
1.01984
0
LINE
8
BLACK
6
CONTINUOUS
10
1.5719
20
1.01984
11
1.5726
21
1.02013
0
LINE
8
BLACK
6
CONTINUOUS
10
1.5726
20
1.02013
11
1.6474
21
1.02013
0
LINE
8
BLACK
6
CONTINUOUS
10
1.57358
20
1.01816
11
1.57358
21
0.887843
0
LINE
8
BLACK
6
CONTINUOUS
10
1.57358
20
0.887843
11
1.64642
21
0.887843
0
LINE
8
BLACK
6
CONTINUOUS
10
1.64642
20
0.887843
11
1.64642
21
1.01816
0
LINE
8
BLACK
6
CONTINUOUS
10
1.64642
20
1.01816
11
1.57358
21
1.01816
0
LINE
8
BLACK
6
CONTINUOUS
10
1.21458
20
1.02391
11
1.21528
21
1.02363
0
LINE
8
BLACK
6
CONTINUOUS
10
1.21528
20
1.02363
11
1.21557
21
1.02293
0
LINE
8
BLACK
6
CONTINUOUS
10
1.21557
20
1.02293
11
1.21557
21
0.889071
0
LINE
8
BLACK
6
CONTINUOUS
10
1.21557
20
0.889071
11
1.21528
21
0.888375
0
LINE
8
BLACK
6
CONTINUOUS
10
1.21528
20
0.888375
11
1.21458
21
0.888087
0
LINE
8
BLACK
6
CONTINUOUS
10
1.21458
20
0.888087
11
1.13742
21
0.888087
0
LINE
8
BLACK
6
CONTINUOUS
10
1.13742
20
0.888087
11
1.13672
21
0.888375
0
LINE
8
BLACK
6
CONTINUOUS
10
1.13672
20
0.888375
11
1.13643
21
0.889071
0
LINE
8
BLACK
6
CONTINUOUS
10
1.13643
20
0.889071
11
1.13643
21
1.02293
0
LINE
8
BLACK
6
CONTINUOUS
10
1.13643
20
1.02293
11
1.13672
21
1.02363
0
LINE
8
BLACK
6
CONTINUOUS
10
1.13672
20
1.02363
11
1.13742
21
1.02391
0
LINE
8
BLACK
6
CONTINUOUS
10
1.13742
20
1.02391
11
1.21458
21
1.02391
0
LINE
8
BLACK
6
CONTINUOUS
10
1.1384
20
1.02194
11
1.1384
21
0.890055
0
LINE
8
BLACK
6
CONTINUOUS
10
1.1384
20
0.890055
11
1.2136
21
0.890055
0
LINE
8
BLACK
6
CONTINUOUS
10
1.2136
20
0.890055
11
1.2136
21
1.02194
0
LINE
8
BLACK
6
CONTINUOUS
10
1.2136
20
1.02194
11
1.1384
21
1.02194
0
LINE
8
BLACK
6
CONTINUOUS
10
1.99355
20
1.07298
11
1.99425
21
1.07269
0
LINE
8
BLACK
6
CONTINUOUS
10
1.99425
20
1.07269
11
1.99454
21
1.07199
0
LINE
8
BLACK
6
CONTINUOUS
10
1.99454
20
1.07199
11
1.99454
21
0.946008
0
LINE
8
BLACK
6
CONTINUOUS
10
1.99454
20
0.946008
11
1.99425
21
0.945312
0
LINE
8
BLACK
6
CONTINUOUS
10
1.99425
20
0.945312
11
1.99355
21
0.945024
0
LINE
8
BLACK
6
CONTINUOUS
10
1.99355
20
0.945024
11
1.81245
21
0.945024
0
LINE
8
BLACK
6
CONTINUOUS
10
1.81245
20
0.945024
11
1.81175
21
0.945312
0
LINE
8
BLACK
6
CONTINUOUS
10
1.81175
20
0.945312
11
1.81146
21
0.946008
0
LINE
8
BLACK
6
CONTINUOUS
10
1.81146
20
0.946008
11
1.81146
21
1.07199
0
LINE
8
BLACK
6
CONTINUOUS
10
1.81146
20
1.07199
11
1.81175
21
1.07269
0
LINE
8
BLACK
6
CONTINUOUS
10
1.81175
20
1.07269
11
1.81245
21
1.07298
0
LINE
8
BLACK
6
CONTINUOUS
10
1.81245
20
1.07298
11
1.99355
21
1.07298
0
LINE
8
BLACK
6
CONTINUOUS
10
1.81343
20
1.07101
11
1.81343
21
0.946992
0
LINE
8
BLACK
6
CONTINUOUS
10
1.81343
20
0.946992
11
1.99257
21
0.946992
0
LINE
8
BLACK
6
CONTINUOUS
10
1.99257
20
0.946992
11
1.99257
21
1.07101
0
LINE
8
BLACK
6
CONTINUOUS
10
1.99257
20
1.07101
11
1.81343
21
1.07101
0
LINE
8
BLACK
6
CONTINUOUS
10
2.16971
20
1.08391
11
2.1704
21
1.08363
0
LINE
8
BLACK
6
CONTINUOUS
10
2.1704
20
1.08363
11
2.17069
21
1.08293
0
LINE
8
BLACK
6
CONTINUOUS
10
2.17069
20
1.08293
11
2.17069
21
0.949071
0
LINE
8
BLACK
6
CONTINUOUS
10
2.17069
20
0.949071
11
2.1704
21
0.948375
0
LINE
8
BLACK
6
CONTINUOUS
10
2.1704
20
0.948375
11
2.16971
21
0.948087
0
LINE
8
BLACK
6
CONTINUOUS
10
2.16971
20
0.948087
11
2.00829
21
0.948087
0
LINE
8
BLACK
6
CONTINUOUS
10
2.00829
20
0.948087
11
2.0076
21
0.948375
0
LINE
8
BLACK
6
CONTINUOUS
10
2.0076
20
0.948375
11
2.00731
21
0.949071
0
LINE
8
BLACK
6
CONTINUOUS
10
2.00731
20
0.949071
11
2.00731
21
1.08293
0
LINE
8
BLACK
6
CONTINUOUS
10
2.00731
20
1.08293
11
2.0076
21
1.08363
0
LINE
8
BLACK
6
CONTINUOUS
10
2.0076
20
1.08363
11
2.00829
21
1.08391
0
LINE
8
BLACK
6
CONTINUOUS
10
2.00829
20
1.08391
11
2.16971
21
1.08391
0
LINE
8
BLACK
6
CONTINUOUS
10
2.00928
20
1.08194
11
2.00928
21
0.950055
0
LINE
8
BLACK
6
CONTINUOUS
10
2.00928
20
0.950055
11
2.16872
21
0.950055
0
LINE
8
BLACK
6
CONTINUOUS
10
2.16872
20
0.950055
11
2.16872
21
1.08194
0
LINE
8
BLACK
6
CONTINUOUS
10
2.16872
20
1.08194
11
2.00928
21
1.08194
0
LINE
8
BLACK
6
CONTINUOUS
10
2.33159
20
1.08391
11
2.33229
21
1.08363
0
LINE
8
BLACK
6
CONTINUOUS
10
2.33229
20
1.08363
11
2.33257
21
1.08293
0
LINE
8
BLACK
6
CONTINUOUS
10
2.33257
20
1.08293
11
2.33257
21
0.949071
0
LINE
8
BLACK
6
CONTINUOUS
10
2.33257
20
0.949071
11
2.33229
21
0.948375
0
LINE
8
BLACK
6
CONTINUOUS
10
2.33229
20
0.948375
11
2.33159
21
0.948087
0
LINE
8
BLACK
6
CONTINUOUS
10
2.33159
20
0.948087
11
2.18041
21
0.948087
0
LINE
8
BLACK
6
CONTINUOUS
10
2.18041
20
0.948087
11
2.17971
21
0.948375
0
LINE
8
BLACK
6
CONTINUOUS
10
2.17971
20
0.948375
11
2.17943
21
0.949071
0
LINE
8
BLACK
6
CONTINUOUS
10
2.17943
20
0.949071
11
2.17943
21
1.08293
0
LINE
8
BLACK
6
CONTINUOUS
10
2.17943
20
1.08293
11
2.17971
21
1.08363
0
LINE
8
BLACK
6
CONTINUOUS
10
2.17971
20
1.08363
11
2.18041
21
1.08391
0
LINE
8
BLACK
6
CONTINUOUS
10
2.18041
20
1.08391
11
2.33159
21
1.08391
0
LINE
8
BLACK
6
CONTINUOUS
10
2.18139
20
1.08194
11
2.18139
21
0.950055
0
LINE
8
BLACK
6
CONTINUOUS
10
2.18139
20
0.950055
11
2.33061
21
0.950055
0
LINE
8
BLACK
6
CONTINUOUS
10
2.33061
20
0.950055
11
2.33061
21
1.08194
0
LINE
8
BLACK
6
CONTINUOUS
10
2.33061
20
1.08194
11
2.18139
21
1.08194
0
LINE
8
BLACK
6
CONTINUOUS
10
1.12602
20
1.10782
11
1.12671
21
1.10753
0
LINE
8
BLACK
6
CONTINUOUS
10
1.12671
20
1.10753
11
1.127
21
1.10683
0
LINE
8
BLACK
6
CONTINUOUS
10
1.127
20
1.10683
11
1.127
21
0.961165
0
LINE
8
BLACK
6
CONTINUOUS
10
1.127
20
0.961165
11
1.12671
21
0.960469
0
LINE
8
BLACK
6
CONTINUOUS
10
1.12671
20
0.960469
11
1.12602
21
0.960181
0
LINE
8
BLACK
6
CONTINUOUS
10
1.12602
20
0.960181
11
0.877984
21
0.960181
0
LINE
8
BLACK
6
CONTINUOUS
10
0.877984
20
0.960181
11
0.877288
21
0.960469
0
LINE
8
BLACK
6
CONTINUOUS
10
0.877288
20
0.960469
11
0.877
21
0.961165
0
LINE
8
BLACK
6
CONTINUOUS
10
0.877
20
0.961165
11
0.877
21
1.10683
0
LINE
8
BLACK
6
CONTINUOUS
10
0.877
20
1.10683
11
0.877288
21
1.10753
0
LINE
8
BLACK
6
CONTINUOUS
10
0.877288
20
1.10753
11
0.877984
21
1.10782
0
LINE
8
BLACK
6
CONTINUOUS
10
0.877984
20
1.10782
11
1.12602
21
1.10782
0
LINE
8
BLACK
6
CONTINUOUS
10
0.878969
20
1.10585
11
0.878969
21
0.96215
0
LINE
8
BLACK
6
CONTINUOUS
10
0.878969
20
0.96215
11
1.12503
21
0.96215
0
LINE
8
BLACK
6
CONTINUOUS
10
1.12503
20
0.96215
11
1.12503
21
1.10585
0
LINE
8
BLACK
6
CONTINUOUS
10
1.12503
20
1.10585
11
0.878969
21
1.10585
0
LINE
8
BLACK
6
CONTINUOUS
10
1.27114
20
1.11339
11
1.27184
21
1.1131
0
LINE
8
BLACK
6
CONTINUOUS
10
1.27184
20
1.1131
11
1.27213
21
1.1124
0
LINE
8
BLACK
6
CONTINUOUS
10
1.27213
20
1.1124
11
1.27213
21
1.0376
0
LINE
8
BLACK
6
CONTINUOUS
10
1.27213
20
1.0376
11
1.27184
21
1.0369
0
LINE
8
BLACK
6
CONTINUOUS
10
1.27184
20
1.0369
11
1.27114
21
1.03661
0
LINE
8
BLACK
6
CONTINUOUS
10
1.27114
20
1.03661
11
1.13886
21
1.03661
0
LINE
8
BLACK
6
CONTINUOUS
10
1.13886
20
1.03661
11
1.13816
21
1.0369
0
LINE
8
BLACK
6
CONTINUOUS
10
1.13816
20
1.0369
11
1.13787
21
1.0376
0
LINE
8
BLACK
6
CONTINUOUS
10
1.13787
20
1.0376
11
1.13787
21
1.1124
0
LINE
8
BLACK
6
CONTINUOUS
10
1.13787
20
1.1124
11
1.13816
21
1.1131
0
LINE
8
BLACK
6
CONTINUOUS
10
1.13816
20
1.1131
11
1.13886
21
1.11339
0
LINE
8
BLACK
6
CONTINUOUS
10
1.13886
20
1.11339
11
1.27114
21
1.11339
0
LINE
8
BLACK
6
CONTINUOUS
10
1.13984
20
1.11142
11
1.13984
21
1.03858
0
LINE
8
BLACK
6
CONTINUOUS
10
1.13984
20
1.03858
11
1.27016
21
1.03858
0
LINE
8
BLACK
6
CONTINUOUS
10
1.27016
20
1.03858
11
1.27016
21
1.11142
0
LINE
8
BLACK
6
CONTINUOUS
10
1.27016
20
1.11142
11
1.13984
21
1.11142
0
LINE
8
BLACK
6
CONTINUOUS
10
1.37058
20
1.19591
11
1.37128
21
1.19563
0
LINE
8
BLACK
6
CONTINUOUS
10
1.37128
20
1.19563
11
1.37157
21
1.19493
0
LINE
8
BLACK
6
CONTINUOUS
10
1.37157
20
1.19493
11
1.37157
21
1.06107
0
LINE
8
BLACK
6
CONTINUOUS
10
1.37157
20
1.06107
11
1.37128
21
1.06037
0
LINE
8
BLACK
6
CONTINUOUS
10
1.37128
20
1.06037
11
1.37058
21
1.06009
0
LINE
8
BLACK
6
CONTINUOUS
10
1.37058
20
1.06009
11
1.29342
21
1.06009
0
LINE
8
BLACK
6
CONTINUOUS
10
1.29342
20
1.06009
11
1.29272
21
1.06037
0
LINE
8
BLACK
6
CONTINUOUS
10
1.29272
20
1.06037
11
1.29243
21
1.06107
0
LINE
8
BLACK
6
CONTINUOUS
10
1.29243
20
1.06107
11
1.29243
21
1.19493
0
LINE
8
BLACK
6
CONTINUOUS
10
1.29243
20
1.19493
11
1.29272
21
1.19563
0
LINE
8
BLACK
6
CONTINUOUS
10
1.29272
20
1.19563
11
1.29342
21
1.19591
0
LINE
8
BLACK
6
CONTINUOUS
10
1.29342
20
1.19591
11
1.37058
21
1.19591
0
LINE
8
BLACK
6
CONTINUOUS
10
1.2944
20
1.19394
11
1.2944
21
1.06206
0
LINE
8
BLACK
6
CONTINUOUS
10
1.2944
20
1.06206
11
1.3696
21
1.06206
0
LINE
8
BLACK
6
CONTINUOUS
10
1.3696
20
1.06206
11
1.3696
21
1.19394
0
LINE
8
BLACK
6
CONTINUOUS
10
1.3696
20
1.19394
11
1.2944
21
1.19394
0
LINE
8
BLACK
6
CONTINUOUS
10
1.4524
20
1.19555
11
1.4531
21
1.19526
0
LINE
8
BLACK
6
CONTINUOUS
10
1.4531
20
1.19526
11
1.45339
21
1.19457
0
LINE
8
BLACK
6
CONTINUOUS
10
1.45339
20
1.19457
11
1.45339
21
1.06228
0
LINE
8
BLACK
6
CONTINUOUS
10
1.45339
20
1.06228
11
1.4531
21
1.06159
0
LINE
8
BLACK
6
CONTINUOUS
10
1.4531
20
1.06159
11
1.4524
21
1.0613
0
LINE
8
BLACK
6
CONTINUOUS
10
1.4524
20
1.0613
11
1.3776
21
1.0613
0
LINE
8
BLACK
6
CONTINUOUS
10
1.3776
20
1.0613
11
1.3769
21
1.06159
0
LINE
8
BLACK
6
CONTINUOUS
10
1.3769
20
1.06159
11
1.37661
21
1.06228
0
LINE
8
BLACK
6
CONTINUOUS
10
1.37661
20
1.06228
11
1.37661
21
1.19457
0
LINE
8
BLACK
6
CONTINUOUS
10
1.37661
20
1.19457
11
1.3769
21
1.19526
0
LINE
8
BLACK
6
CONTINUOUS
10
1.3769
20
1.19526
11
1.3776
21
1.19555
0
LINE
8
BLACK
6
CONTINUOUS
10
1.3776
20
1.19555
11
1.4524
21
1.19555
0
LINE
8
BLACK
6
CONTINUOUS
10
1.37858
20
1.19358
11
1.37858
21
1.06327
0
LINE
8
BLACK
6
CONTINUOUS
10
1.37858
20
1.06327
11
1.45142
21
1.06327
0
LINE
8
BLACK
6
CONTINUOUS
10
1.45142
20
1.06327
11
1.45142
21
1.19358
0
LINE
8
BLACK
6
CONTINUOUS
10
1.45142
20
1.19358
11
1.37858
21
1.19358
0
LINE
8
BLACK
6
CONTINUOUS
10
1.68258
20
1.19834
11
1.68328
21
1.19805
0
LINE
8
BLACK
6
CONTINUOUS
10
1.68328
20
1.19805
11
1.68357
21
1.19735
0
LINE
8
BLACK
6
CONTINUOUS
10
1.68357
20
1.19735
11
1.68357
21
1.0635
0
LINE
8
BLACK
6
CONTINUOUS
10
1.68357
20
1.0635
11
1.68328
21
1.0628
0
LINE
8
BLACK
6
CONTINUOUS
10
1.68328
20
1.0628
11
1.68258
21
1.06251
0
LINE
8
BLACK
6
CONTINUOUS
10
1.68258
20
1.06251
11
1.60542
21
1.06251
0
LINE
8
BLACK
6
CONTINUOUS
10
1.60542
20
1.06251
11
1.60472
21
1.0628
0
LINE
8
BLACK
6
CONTINUOUS
10
1.60472
20
1.0628
11
1.60443
21
1.0635
0
LINE
8
BLACK
6
CONTINUOUS
10
1.60443
20
1.0635
11
1.60443
21
1.19735
0
LINE
8
BLACK
6
CONTINUOUS
10
1.60443
20
1.19735
11
1.60472
21
1.19805
0
LINE
8
BLACK
6
CONTINUOUS
10
1.60472
20
1.19805
11
1.60542
21
1.19834
0
LINE
8
BLACK
6
CONTINUOUS
10
1.60542
20
1.19834
11
1.68258
21
1.19834
0
LINE
8
BLACK
6
CONTINUOUS
10
1.6064
20
1.19637
11
1.6064
21
1.06448
0
LINE
8
BLACK
6
CONTINUOUS
10
1.6064
20
1.06448
11
1.6816
21
1.06448
0
LINE
8
BLACK
6
CONTINUOUS
10
1.6816
20
1.06448
11
1.6816
21
1.19637
0
LINE
8
BLACK
6
CONTINUOUS
10
1.6816
20
1.19637
11
1.6064
21
1.19637
0
LINE
8
BLACK
6
CONTINUOUS
10
1.59593
20
1.16499
11
1.59663
21
1.1647
0
LINE
8
BLACK
6
CONTINUOUS
10
1.59663
20
1.1647
11
1.59691
21
1.16401
0
LINE
8
BLACK
6
CONTINUOUS
10
1.59691
20
1.16401
11
1.59691
21
1.08684
0
LINE
8
BLACK
6
CONTINUOUS
10
1.59691
20
1.08684
11
1.59663
21
1.08615
0
LINE
8
BLACK
6
CONTINUOUS
10
1.59663
20
1.08615
11
1.59593
21
1.08586
0
LINE
8
BLACK
6
CONTINUOUS
10
1.59593
20
1.08586
11
1.46207
21
1.08586
0
LINE
8
BLACK
6
CONTINUOUS
10
1.46207
20
1.08586
11
1.46137
21
1.08615
0
LINE
8
BLACK
6
CONTINUOUS
10
1.46137
20
1.08615
11
1.46109
21
1.08684
0
LINE
8
BLACK
6
CONTINUOUS
10
1.46109
20
1.08684
11
1.46109
21
1.16401
0
LINE
8
BLACK
6
CONTINUOUS
10
1.46109
20
1.16401
11
1.46137
21
1.1647
0
LINE
8
BLACK
6
CONTINUOUS
10
1.46137
20
1.1647
11
1.46207
21
1.16499
0
LINE
8
BLACK
6
CONTINUOUS
10
1.46207
20
1.16499
11
1.59593
21
1.16499
0
LINE
8
BLACK
6
CONTINUOUS
10
1.46306
20
1.16302
11
1.46306
21
1.08783
0
LINE
8
BLACK
6
CONTINUOUS
10
1.46306
20
1.08783
11
1.59494
21
1.08783
0
LINE
8
BLACK
6
CONTINUOUS
10
1.59494
20
1.08783
11
1.59494
21
1.16302
0
LINE
8
BLACK
6
CONTINUOUS
10
1.59494
20
1.16302
11
1.46306
21
1.16302
0
LINE
8
BLACK
6
CONTINUOUS
10
2.14152
20
1.17127
11
2.14222
21
1.17098
0
LINE
8
BLACK
6
CONTINUOUS
10
2.14222
20
1.17098
11
2.1425
21
1.17028
0
LINE
8
BLACK
6
CONTINUOUS
10
2.1425
20
1.17028
11
2.1425
21
1.09312
0
LINE
8
BLACK
6
CONTINUOUS
10
2.1425
20
1.09312
11
2.14222
21
1.09242
0
LINE
8
BLACK
6
CONTINUOUS
10
2.14222
20
1.09242
11
2.14152
21
1.09213
0
LINE
8
BLACK
6
CONTINUOUS
10
2.14152
20
1.09213
11
2.00766
21
1.09213
0
LINE
8
BLACK
6
CONTINUOUS
10
2.00766
20
1.09213
11
2.00697
21
1.09242
0
LINE
8
BLACK
6
CONTINUOUS
10
2.00697
20
1.09242
11
2.00668
21
1.09312
0
LINE
8
BLACK
6
CONTINUOUS
10
2.00668
20
1.09312
11
2.00668
21
1.17028
0
LINE
8
BLACK
6
CONTINUOUS
10
2.00668
20
1.17028
11
2.00697
21
1.17098
0
LINE
8
BLACK
6
CONTINUOUS
10
2.00697
20
1.17098
11
2.00766
21
1.17127
0
LINE
8
BLACK
6
CONTINUOUS
10
2.00766
20
1.17127
11
2.14152
21
1.17127
0
LINE
8
BLACK
6
CONTINUOUS
10
2.00865
20
1.1693
11
2.00865
21
1.0941
0
LINE
8
BLACK
6
CONTINUOUS
10
2.00865
20
1.0941
11
2.14054
21
1.0941
0
LINE
8
BLACK
6
CONTINUOUS
10
2.14054
20
1.0941
11
2.14054
21
1.1693
0
LINE
8
BLACK
6
CONTINUOUS
10
2.14054
20
1.1693
11
2.00865
21
1.1693
0
LINE
8
BLACK
6
CONTINUOUS
10
2.27847
20
1.17143
11
2.27917
21
1.17114
0
LINE
8
BLACK
6
CONTINUOUS
10
2.27917
20
1.17114
11
2.27946
21
1.17044
0
LINE
8
BLACK
6
CONTINUOUS
10
2.27946
20
1.17044
11
2.27946
21
1.09328
0
LINE
8
BLACK
6
CONTINUOUS
10
2.27946
20
1.09328
11
2.27917
21
1.09258
0
LINE
8
BLACK
6
CONTINUOUS
10
2.27917
20
1.09258
11
2.27847
21
1.09229
0
LINE
8
BLACK
6
CONTINUOUS
10
2.27847
20
1.09229
11
2.14461
21
1.09229
0
LINE
8
BLACK
6
CONTINUOUS
10
2.14461
20
1.09229
11
2.14392
21
1.09258
0
LINE
8
BLACK
6
CONTINUOUS
10
2.14392
20
1.09258
11
2.14363
21
1.09328
0
LINE
8
BLACK
6
CONTINUOUS
10
2.14363
20
1.09328
11
2.14363
21
1.17044
0
LINE
8
BLACK
6
CONTINUOUS
10
2.14363
20
1.17044
11
2.14392
21
1.17114
0
LINE
8
BLACK
6
CONTINUOUS
10
2.14392
20
1.17114
11
2.14461
21
1.17143
0
LINE
8
BLACK
6
CONTINUOUS
10
2.14461
20
1.17143
11
2.27847
21
1.17143
0
LINE
8
BLACK
6
CONTINUOUS
10
2.1456
20
1.16946
11
2.1456
21
1.09426
0
LINE
8
BLACK
6
CONTINUOUS
10
2.1456
20
1.09426
11
2.27749
21
1.09426
0
LINE
8
BLACK
6
CONTINUOUS
10
2.27749
20
1.09426
11
2.27749
21
1.16946
0
LINE
8
BLACK
6
CONTINUOUS
10
2.27749
20
1.16946
11
2.1456
21
1.16946
0
LINE
8
BLACK
6
CONTINUOUS
10
1.99793
20
1.17157
11
1.99863
21
1.17128
0
LINE
8
BLACK
6
CONTINUOUS
10
1.99863
20
1.17128
11
1.99891
21
1.17058
0
LINE
8
BLACK
6
CONTINUOUS
10
1.99891
20
1.17058
11
1.99891
21
1.09342
0
LINE
8
BLACK
6
CONTINUOUS
10
1.99891
20
1.09342
11
1.99863
21
1.09272
0
LINE
8
BLACK
6
CONTINUOUS
10
1.99863
20
1.09272
11
1.99793
21
1.09243
0
LINE
8
BLACK
6
CONTINUOUS
10
1.99793
20
1.09243
11
1.86407
21
1.09243
0
LINE
8
BLACK
6
CONTINUOUS
10
1.86407
20
1.09243
11
1.86337
21
1.09272
0
LINE
8
BLACK
6
CONTINUOUS
10
1.86337
20
1.09272
11
1.86309
21
1.09342
0
LINE
8
BLACK
6
CONTINUOUS
10
1.86309
20
1.09342
11
1.86309
21
1.17058
0
LINE
8
BLACK
6
CONTINUOUS
10
1.86309
20
1.17058
11
1.86337
21
1.17128
0
LINE
8
BLACK
6
CONTINUOUS
10
1.86337
20
1.17128
11
1.86407
21
1.17157
0
LINE
8
BLACK
6
CONTINUOUS
10
1.86407
20
1.17157
11
1.99793
21
1.17157
0
LINE
8
BLACK
6
CONTINUOUS
10
1.86506
20
1.1696
11
1.86506
21
1.0944
0
LINE
8
BLACK
6
CONTINUOUS
10
1.86506
20
1.0944
11
1.99694
21
1.0944
0
LINE
8
BLACK
6
CONTINUOUS
10
1.99694
20
1.0944
11
1.99694
21
1.1696
0
LINE
8
BLACK
6
CONTINUOUS
10
1.99694
20
1.1696
11
1.86506
21
1.1696
0
LINE
8
BLACK
6
CONTINUOUS
10
1.83814
20
1.16939
11
1.83884
21
1.1691
0
LINE
8
BLACK
6
CONTINUOUS
10
1.83884
20
1.1691
11
1.83913
21
1.1684
0
LINE
8
BLACK
6
CONTINUOUS
10
1.83913
20
1.1684
11
1.83913
21
1.0936
0
LINE
8
BLACK
6
CONTINUOUS
10
1.83913
20
1.0936
11
1.83884
21
1.0929
0
LINE
8
BLACK
6
CONTINUOUS
10
1.83884
20
1.0929
11
1.83814
21
1.09261
0
LINE
8
BLACK
6
CONTINUOUS
10
1.83814
20
1.09261
11
1.70586
21
1.09261
0
LINE
8
BLACK
6
CONTINUOUS
10
1.70586
20
1.09261
11
1.70516
21
1.0929
0
LINE
8
BLACK
6
CONTINUOUS
10
1.70516
20
1.0929
11
1.70487
21
1.0936
0
LINE
8
BLACK
6
CONTINUOUS
10
1.70487
20
1.0936
11
1.70487
21
1.1684
0
LINE
8
BLACK
6
CONTINUOUS
10
1.70487
20
1.1684
11
1.70516
21
1.1691
0
LINE
8
BLACK
6
CONTINUOUS
10
1.70516
20
1.1691
11
1.70586
21
1.16939
0
LINE
8
BLACK
6
CONTINUOUS
10
1.70586
20
1.16939
11
1.83814
21
1.16939
0
LINE
8
BLACK
6
CONTINUOUS
10
1.70684
20
1.16742
11
1.70684
21
1.09458
0
LINE
8
BLACK
6
CONTINUOUS
10
1.70684
20
1.09458
11
1.83716
21
1.09458
0
LINE
8
BLACK
6
CONTINUOUS
10
1.83716
20
1.09458
11
1.83716
21
1.16742
0
LINE
8
BLACK
6
CONTINUOUS
10
1.83716
20
1.16742
11
1.70684
21
1.16742
0
LINE
8
BLACK
6
CONTINUOUS
10
1.23293
20
1.19957
11
1.23363
21
1.19928
0
LINE
8
BLACK
6
CONTINUOUS
10
1.23363
20
1.19928
11
1.23391
21
1.19858
0
LINE
8
BLACK
6
CONTINUOUS
10
1.23391
20
1.19858
11
1.23391
21
1.12142
0
LINE
8
BLACK
6
CONTINUOUS
10
1.23391
20
1.12142
11
1.23363
21
1.12072
0
LINE
8
BLACK
6
CONTINUOUS
10
1.23363
20
1.12072
11
1.23293
21
1.12043
0
LINE
8
BLACK
6
CONTINUOUS
10
1.23293
20
1.12043
11
1.09907
21
1.12043
0
LINE
8
BLACK
6
CONTINUOUS
10
1.09907
20
1.12043
11
1.09837
21
1.12072
0
LINE
8
BLACK
6
CONTINUOUS
10
1.09837
20
1.12072
11
1.09809
21
1.12142
0
LINE
8
BLACK
6
CONTINUOUS
10
1.09809
20
1.12142
11
1.09809
21
1.19858
0
LINE
8
BLACK
6
CONTINUOUS
10
1.09809
20
1.19858
11
1.09837
21
1.19928
0
LINE
8
BLACK
6
CONTINUOUS
10
1.09837
20
1.19928
11
1.09907
21
1.19957
0
LINE
8
BLACK
6
CONTINUOUS
10
1.09907
20
1.19957
11
1.23293
21
1.19957
0
LINE
8
BLACK
6
CONTINUOUS
10
1.10006
20
1.1976
11
1.10006
21
1.1224
0
LINE
8
BLACK
6
CONTINUOUS
10
1.10006
20
1.1224
11
1.23194
21
1.1224
0
LINE
8
BLACK
6
CONTINUOUS
10
1.23194
20
1.1224
11
1.23194
21
1.1976
0
LINE
8
BLACK
6
CONTINUOUS
10
1.23194
20
1.1976
11
1.10006
21
1.1976
0
LINE
8
BLACK
6
CONTINUOUS
10
1.09193
20
1.20057
11
1.09263
21
1.20028
0
LINE
8
BLACK
6
CONTINUOUS
10
1.09263
20
1.20028
11
1.09291
21
1.19958
0
LINE
8
BLACK
6
CONTINUOUS
10
1.09291
20
1.19958
11
1.09291
21
1.12242
0
LINE
8
BLACK
6
CONTINUOUS
10
1.09291
20
1.12242
11
1.09263
21
1.12172
0
LINE
8
BLACK
6
CONTINUOUS
10
1.09263
20
1.12172
11
1.09193
21
1.12143
0
LINE
8
BLACK
6
CONTINUOUS
10
1.09193
20
1.12143
11
0.958071
21
1.12143
0
LINE
8
BLACK
6
CONTINUOUS
10
0.958071
20
1.12143
11
0.957375
21
1.12172
0
LINE
8
BLACK
6
CONTINUOUS
10
0.957375
20
1.12172
11
0.957087
21
1.12242
0
LINE
8
BLACK
6
CONTINUOUS
10
0.957087
20
1.12242
11
0.957087
21
1.19958
0
LINE
8
BLACK
6
CONTINUOUS
10
0.957087
20
1.19958
11
0.957375
21
1.20028
0
LINE
8
BLACK
6
CONTINUOUS
10
0.957375
20
1.20028
11
0.958071
21
1.20057
0
LINE
8
BLACK
6
CONTINUOUS
10
0.958071
20
1.20057
11
1.09193
21
1.20057
0
LINE
8
BLACK
6
CONTINUOUS
10
0.959055
20
1.1986
11
0.959055
21
1.1234
0
LINE
8
BLACK
6
CONTINUOUS
10
0.959055
20
1.1234
11
1.09094
21
1.1234
0
LINE
8
BLACK
6
CONTINUOUS
10
1.09094
20
1.1234
11
1.09094
21
1.1986
0
LINE
8
BLACK
6
CONTINUOUS
10
1.09094
20
1.1986
11
0.959055
21
1.1986
0
LINE
8
BLACK
6
CONTINUOUS
10
0.951929
20
1.20157
11
0.952625
21
1.20128
0
LINE
8
BLACK
6
CONTINUOUS
10
0.952625
20
1.20128
11
0.952913
21
1.20058
0
LINE
8
BLACK
6
CONTINUOUS
10
0.952913
20
1.20058
11
0.952913
21
1.12342
0
LINE
8
BLACK
6
CONTINUOUS
10
0.952913
20
1.12342
11
0.952625
21
1.12272
0
LINE
8
BLACK
6
CONTINUOUS
10
0.952625
20
1.12272
11
0.951929
21
1.12243
0
LINE
8
BLACK
6
CONTINUOUS
10
0.951929
20
1.12243
11
0.818071
21
1.12243
0
LINE
8
BLACK
6
CONTINUOUS
10
0.818071
20
1.12243
11
0.817375
21
1.12272
0
LINE
8
BLACK
6
CONTINUOUS
10
0.817375
20
1.12272
11
0.817087
21
1.12342
0
LINE
8
BLACK
6
CONTINUOUS
10
0.817087
20
1.12342
11
0.817087
21
1.20058
0
LINE
8
BLACK
6
CONTINUOUS
10
0.817087
20
1.20058
11
0.817375
21
1.20128
0
LINE
8
BLACK
6
CONTINUOUS
10
0.817375
20
1.20128
11
0.818071
21
1.20157
0
LINE
8
BLACK
6
CONTINUOUS
10
0.818071
20
1.20157
11
0.951929
21
1.20157
0
LINE
8
BLACK
6
CONTINUOUS
10
0.819055
20
1.1996
11
0.819055
21
1.1244
0
LINE
8
BLACK
6
CONTINUOUS
10
0.819055
20
1.1244
11
0.950945
21
1.1244
0
LINE
8
BLACK
6
CONTINUOUS
10
0.950945
20
1.1244
11
0.950945
21
1.1996
0
LINE
8
BLACK
6
CONTINUOUS
10
0.950945
20
1.1996
11
0.819055
21
1.1996
0
LINE
8
BLACK
6
CONTINUOUS
10
2.14014
20
1.25339
11
2.14084
21
1.2531
0
LINE
8
BLACK
6
CONTINUOUS
10
2.14084
20
1.2531
11
2.14113
21
1.2524
0
LINE
8
BLACK
6
CONTINUOUS
10
2.14113
20
1.2524
11
2.14113
21
1.1776
0
LINE
8
BLACK
6
CONTINUOUS
10
2.14113
20
1.1776
11
2.14084
21
1.1769
0
LINE
8
BLACK
6
CONTINUOUS
10
2.14084
20
1.1769
11
2.14014
21
1.17661
0
LINE
8
BLACK
6
CONTINUOUS
10
2.14014
20
1.17661
11
2.00786
21
1.17661
0
LINE
8
BLACK
6
CONTINUOUS
10
2.00786
20
1.17661
11
2.00716
21
1.1769
0
LINE
8
BLACK
6
CONTINUOUS
10
2.00716
20
1.1769
11
2.00687
21
1.1776
0
LINE
8
BLACK
6
CONTINUOUS
10
2.00687
20
1.1776
11
2.00687
21
1.2524
0
LINE
8
BLACK
6
CONTINUOUS
10
2.00687
20
1.2524
11
2.00716
21
1.2531
0
LINE
8
BLACK
6
CONTINUOUS
10
2.00716
20
1.2531
11
2.00786
21
1.25339
0
LINE
8
BLACK
6
CONTINUOUS
10
2.00786
20
1.25339
11
2.14014
21
1.25339
0
LINE
8
BLACK
6
CONTINUOUS
10
2.00884
20
1.25142
11
2.00884
21
1.17858
0
LINE
8
BLACK
6
CONTINUOUS
10
2.00884
20
1.17858
11
2.13916
21
1.17858
0
LINE
8
BLACK
6
CONTINUOUS
10
2.13916
20
1.17858
11
2.13916
21
1.25142
0
LINE
8
BLACK
6
CONTINUOUS
10
2.13916
20
1.25142
11
2.00884
21
1.25142
0
LINE
8
BLACK
6
CONTINUOUS
10
2.39155
20
1.27032
11
2.39225
21
1.27003
0
LINE
8
BLACK
6
CONTINUOUS
10
2.39225
20
1.27003
11
2.39254
21
1.26934
0
LINE
8
BLACK
6
CONTINUOUS
10
2.39254
20
1.26934
11
2.39254
21
1.18666
0
LINE
8
BLACK
6
CONTINUOUS
10
2.39254
20
1.18666
11
2.39225
21
1.18597
0
LINE
8
BLACK
6
CONTINUOUS
10
2.39225
20
1.18597
11
2.39155
21
1.18568
0
LINE
8
BLACK
6
CONTINUOUS
10
2.39155
20
1.18568
11
2.21045
21
1.18568
0
LINE
8
BLACK
6
CONTINUOUS
10
2.21045
20
1.18568
11
2.20975
21
1.18597
0
LINE
8
BLACK
6
CONTINUOUS
10
2.20975
20
1.18597
11
2.20946
21
1.18666
0
LINE
8
BLACK
6
CONTINUOUS
10
2.20946
20
1.18666
11
2.20946
21
1.26934
0
LINE
8
BLACK
6
CONTINUOUS
10
2.20946
20
1.26934
11
2.20975
21
1.27003
0
LINE
8
BLACK
6
CONTINUOUS
10
2.20975
20
1.27003
11
2.21045
21
1.27032
0
LINE
8
BLACK
6
CONTINUOUS
10
2.21045
20
1.27032
11
2.39155
21
1.27032
0
LINE
8
BLACK
6
CONTINUOUS
10
2.21143
20
1.26835
11
2.21143
21
1.18765
0
LINE
8
BLACK
6
CONTINUOUS
10
2.21143
20
1.18765
11
2.39057
21
1.18765
0
LINE
8
BLACK
6
CONTINUOUS
10
2.39057
20
1.18765
11
2.39057
21
1.26835
0
LINE
8
BLACK
6
CONTINUOUS
10
2.39057
20
1.26835
11
2.21143
21
1.26835
0
LINE
8
BLACK
6
CONTINUOUS
10
1.96475
20
1.39626
11
1.96544
21
1.39597
0
LINE
8
BLACK
6
CONTINUOUS
10
1.96544
20
1.39597
11
1.96573
21
1.39528
0
LINE
8
BLACK
6
CONTINUOUS
10
1.96573
20
1.39528
11
1.96573
21
1.21417
0
LINE
8
BLACK
6
CONTINUOUS
10
1.96573
20
1.21417
11
1.96544
21
1.21348
0
LINE
8
BLACK
6
CONTINUOUS
10
1.96544
20
1.21348
11
1.96475
21
1.21319
0
LINE
8
BLACK
6
CONTINUOUS
10
1.96475
20
1.21319
11
1.88207
21
1.21319
0
LINE
8
BLACK
6
CONTINUOUS
10
1.88207
20
1.21319
11
1.88137
21
1.21348
0
LINE
8
BLACK
6
CONTINUOUS
10
1.88137
20
1.21348
11
1.88109
21
1.21417
0
LINE
8
BLACK
6
CONTINUOUS
10
1.88109
20
1.21417
11
1.88109
21
1.39528
0
LINE
8
BLACK
6
CONTINUOUS
10
1.88109
20
1.39528
11
1.88137
21
1.39597
0
LINE
8
BLACK
6
CONTINUOUS
10
1.88137
20
1.39597
11
1.88207
21
1.39626
0
LINE
8
BLACK
6
CONTINUOUS
10
1.88207
20
1.39626
11
1.96475
21
1.39626
0
LINE
8
BLACK
6
CONTINUOUS
10
1.88306
20
1.39429
11
1.88306
21
1.21516
0
LINE
8
BLACK
6
CONTINUOUS
10
1.88306
20
1.21516
11
1.96376
21
1.21516
0
LINE
8
BLACK
6
CONTINUOUS
10
1.96376
20
1.21516
11
1.96376
21
1.39429
0
LINE
8
BLACK
6
CONTINUOUS
10
1.96376
20
1.39429
11
1.88306
21
1.39429
0
LINE
8
BLACK
6
CONTINUOUS
10
1.87634
20
1.44924
11
1.87703
21
1.44896
0
LINE
8
BLACK
6
CONTINUOUS
10
1.87703
20
1.44896
11
1.87732
21
1.44826
0
LINE
8
BLACK
6
CONTINUOUS
10
1.87732
20
1.44826
11
1.87732
21
1.21519
0
LINE
8
BLACK
6
CONTINUOUS
10
1.87732
20
1.21519
11
1.87703
21
1.21449
0
LINE
8
BLACK
6
CONTINUOUS
10
1.87703
20
1.21449
11
1.87634
21
1.2142
0
LINE
8
BLACK
6
CONTINUOUS
10
1.87634
20
1.2142
11
1.74248
21
1.2142
0
LINE
8
BLACK
6
CONTINUOUS
10
1.74248
20
1.2142
11
1.74178
21
1.21449
0
LINE
8
BLACK
6
CONTINUOUS
10
1.74178
20
1.21449
11
1.7415
21
1.21519
0
LINE
8
BLACK
6
CONTINUOUS
10
1.7415
20
1.21519
11
1.7415
21
1.44826
0
LINE
8
BLACK
6
CONTINUOUS
10
1.7415
20
1.44826
11
1.74178
21
1.44896
0
LINE
8
BLACK
6
CONTINUOUS
10
1.74178
20
1.44896
11
1.74248
21
1.44924
0
LINE
8
BLACK
6
CONTINUOUS
10
1.74248
20
1.44924
11
1.87634
21
1.44924
0
LINE
8
BLACK
6
CONTINUOUS
10
1.74346
20
1.44728
11
1.74346
21
1.21617
0
LINE
8
BLACK
6
CONTINUOUS
10
1.74346
20
1.21617
11
1.87535
21
1.21617
0
LINE
8
BLACK
6
CONTINUOUS
10
1.87535
20
1.21617
11
1.87535
21
1.44728
0
LINE
8
BLACK
6
CONTINUOUS
10
1.87535
20
1.44728
11
1.74346
21
1.44728
0
LINE
8
BLACK
6
CONTINUOUS
10
1.20893
20
1.36757
11
1.20963
21
1.36729
0
LINE
8
BLACK
6
CONTINUOUS
10
1.20963
20
1.36729
11
1.20991
21
1.36659
0
LINE
8
BLACK
6
CONTINUOUS
10
1.20991
20
1.36659
11
1.20991
21
1.21541
0
LINE
8
BLACK
6
CONTINUOUS
10
1.20991
20
1.21541
11
1.20963
21
1.21471
0
LINE
8
BLACK
6
CONTINUOUS
10
1.20963
20
1.21471
11
1.20893
21
1.21443
0
LINE
8
BLACK
6
CONTINUOUS
10
1.20893
20
1.21443
11
1.07507
21
1.21443
0
LINE
8
BLACK
6
CONTINUOUS
10
1.07507
20
1.21443
11
1.07437
21
1.21471
0
LINE
8
BLACK
6
CONTINUOUS
10
1.07437
20
1.21471
11
1.07409
21
1.21541
0
LINE
8
BLACK
6
CONTINUOUS
10
1.07409
20
1.21541
11
1.07409
21
1.36659
0
LINE
8
BLACK
6
CONTINUOUS
10
1.07409
20
1.36659
11
1.07437
21
1.36729
0
LINE
8
BLACK
6
CONTINUOUS
10
1.07437
20
1.36729
11
1.07507
21
1.36757
0
LINE
8
BLACK
6
CONTINUOUS
10
1.07507
20
1.36757
11
1.20893
21
1.36757
0
LINE
8
BLACK
6
CONTINUOUS
10
1.07606
20
1.36561
11
1.07606
21
1.21639
0
LINE
8
BLACK
6
CONTINUOUS
10
1.07606
20
1.21639
11
1.20794
21
1.21639
0
LINE
8
BLACK
6
CONTINUOUS
10
1.20794
20
1.21639
11
1.20794
21
1.36561
0
LINE
8
BLACK
6
CONTINUOUS
10
1.20794
20
1.36561
11
1.07606
21
1.36561
0
LINE
8
BLACK
6
CONTINUOUS
10
1.44754
20
1.35119
11
1.44823
21
1.3509
0
LINE
8
BLACK
6
CONTINUOUS
10
1.44823
20
1.3509
11
1.44852
21
1.3502
0
LINE
8
BLACK
6
CONTINUOUS
10
1.44852
20
1.3502
11
1.44852
21
1.21635
0
LINE
8
BLACK
6
CONTINUOUS
10
1.44852
20
1.21635
11
1.44823
21
1.21565
0
LINE
8
BLACK
6
CONTINUOUS
10
1.44823
20
1.21565
11
1.44754
21
1.21536
0
LINE
8
BLACK
6
CONTINUOUS
10
1.44754
20
1.21536
11
1.21446
21
1.21536
0
LINE
8
BLACK
6
CONTINUOUS
10
1.21446
20
1.21536
11
1.21377
21
1.21565
0
LINE
8
BLACK
6
CONTINUOUS
10
1.21377
20
1.21565
11
1.21348
21
1.21635
0
LINE
8
BLACK
6
CONTINUOUS
10
1.21348
20
1.21635
11
1.21348
21
1.3502
0
LINE
8
BLACK
6
CONTINUOUS
10
1.21348
20
1.3502
11
1.21377
21
1.3509
0
LINE
8
BLACK
6
CONTINUOUS
10
1.21377
20
1.3509
11
1.21446
21
1.35119
0
LINE
8
BLACK
6
CONTINUOUS
10
1.21446
20
1.35119
11
1.44754
21
1.35119
0
LINE
8
BLACK
6
CONTINUOUS
10
1.21545
20
1.34922
11
1.21545
21
1.21733
0
LINE
8
BLACK
6
CONTINUOUS
10
1.21545
20
1.21733
11
1.44655
21
1.21733
0
LINE
8
BLACK
6
CONTINUOUS
10
1.44655
20
1.21733
11
1.44655
21
1.34922
0
LINE
8
BLACK
6
CONTINUOUS
10
1.44655
20
1.34922
11
1.21545
21
1.34922
0
LINE
8
BLACK
6
CONTINUOUS
10
1.07134
20
1.39854
11
1.07203
21
1.39825
0
LINE
8
BLACK
6
CONTINUOUS
10
1.07203
20
1.39825
11
1.07232
21
1.39755
0
LINE
8
BLACK
6
CONTINUOUS
10
1.07232
20
1.39755
11
1.07232
21
1.21645
0
LINE
8
BLACK
6
CONTINUOUS
10
1.07232
20
1.21645
11
1.07203
21
1.21575
0
LINE
8
BLACK
6
CONTINUOUS
10
1.07203
20
1.21575
11
1.07134
21
1.21546
0
LINE
8
BLACK
6
CONTINUOUS
10
1.07134
20
1.21546
11
0.988661
21
1.21546
0
LINE
8
BLACK
6
CONTINUOUS
10
0.988661
20
1.21546
11
0.987965
21
1.21575
0
LINE
8
BLACK
6
CONTINUOUS
10
0.987965
20
1.21575
11
0.987677
21
1.21645
0
LINE
8
BLACK
6
CONTINUOUS
10
0.987677
20
1.21645
11
0.987677
21
1.39755
0
LINE
8
BLACK
6
CONTINUOUS
10
0.987677
20
1.39755
11
0.987965
21
1.39825
0
LINE
8
BLACK
6
CONTINUOUS
10
0.987965
20
1.39825
11
0.988661
21
1.39854
0
LINE
8
BLACK
6
CONTINUOUS
10
0.988661
20
1.39854
11
1.07134
21
1.39854
0
LINE
8
BLACK
6
CONTINUOUS
10
0.989646
20
1.39657
11
0.989646
21
1.21743
0
LINE
8
BLACK
6
CONTINUOUS
10
0.989646
20
1.21743
11
1.07035
21
1.21743
0
LINE
8
BLACK
6
CONTINUOUS
10
1.07035
20
1.21743
11
1.07035
21
1.39657
0
LINE
8
BLACK
6
CONTINUOUS
10
1.07035
20
1.39657
11
0.989646
21
1.39657
0
LINE
8
BLACK
6
CONTINUOUS
10
1.57458
20
1.37134
11
1.57528
21
1.37105
0
LINE
8
BLACK
6
CONTINUOUS
10
1.57528
20
1.37105
11
1.57557
21
1.37035
0
LINE
8
BLACK
6
CONTINUOUS
10
1.57557
20
1.37035
11
1.57557
21
1.2365
0
LINE
8
BLACK
6
CONTINUOUS
10
1.57557
20
1.2365
11
1.57528
21
1.2358
0
LINE
8
BLACK
6
CONTINUOUS
10
1.57528
20
1.2358
11
1.57458
21
1.23551
0
LINE
8
BLACK
6
CONTINUOUS
10
1.57458
20
1.23551
11
1.49742
21
1.23551
0
LINE
8
BLACK
6
CONTINUOUS
10
1.49742
20
1.23551
11
1.49672
21
1.2358
0
LINE
8
BLACK
6
CONTINUOUS
10
1.49672
20
1.2358
11
1.49643
21
1.2365
0
LINE
8
BLACK
6
CONTINUOUS
10
1.49643
20
1.2365
11
1.49643
21
1.37035
0
LINE
8
BLACK
6
CONTINUOUS
10
1.49643
20
1.37035
11
1.49672
21
1.37105
0
LINE
8
BLACK
6
CONTINUOUS
10
1.49672
20
1.37105
11
1.49742
21
1.37134
0
LINE
8
BLACK
6
CONTINUOUS
10
1.49742
20
1.37134
11
1.57458
21
1.37134
0
LINE
8
BLACK
6
CONTINUOUS
10
1.4984
20
1.36937
11
1.4984
21
1.23748
0
LINE
8
BLACK
6
CONTINUOUS
10
1.4984
20
1.23748
11
1.5736
21
1.23748
0
LINE
8
BLACK
6
CONTINUOUS
10
1.5736
20
1.23748
11
1.5736
21
1.36937
0
LINE
8
BLACK
6
CONTINUOUS
10
1.5736
20
1.36937
11
1.4984
21
1.36937
0
LINE
8
BLACK
6
CONTINUOUS
10
1.6554
20
1.37055
11
1.6561
21
1.37026
0
LINE
8
BLACK
6
CONTINUOUS
10
1.6561
20
1.37026
11
1.65639
21
1.36957
0
LINE
8
BLACK
6
CONTINUOUS
10
1.65639
20
1.36957
11
1.65639
21
1.23728
0
LINE
8
BLACK
6
CONTINUOUS
10
1.65639
20
1.23728
11
1.6561
21
1.23659
0
LINE
8
BLACK
6
CONTINUOUS
10
1.6561
20
1.23659
11
1.6554
21
1.2363
0
LINE
8
BLACK
6
CONTINUOUS
10
1.6554
20
1.2363
11
1.5806
21
1.2363
0
LINE
8
BLACK
6
CONTINUOUS
10
1.5806
20
1.2363
11
1.5799
21
1.23659
0
LINE
8
BLACK
6
CONTINUOUS
10
1.5799
20
1.23659
11
1.57961
21
1.23728
0
LINE
8
BLACK
6
CONTINUOUS
10
1.57961
20
1.23728
11
1.57961
21
1.36957
0
LINE
8
BLACK
6
CONTINUOUS
10
1.57961
20
1.36957
11
1.5799
21
1.37026
0
LINE
8
BLACK
6
CONTINUOUS
10
1.5799
20
1.37026
11
1.5806
21
1.37055
0
LINE
8
BLACK
6
CONTINUOUS
10
1.5806
20
1.37055
11
1.6554
21
1.37055
0
LINE
8
BLACK
6
CONTINUOUS
10
1.58158
20
1.36858
11
1.58158
21
1.23827
0
LINE
8
BLACK
6
CONTINUOUS
10
1.58158
20
1.23827
11
1.65442
21
1.23827
0
LINE
8
BLACK
6
CONTINUOUS
10
1.65442
20
1.23827
11
1.65442
21
1.36858
0
LINE
8
BLACK
6
CONTINUOUS
10
1.65442
20
1.36858
11
1.58158
21
1.36858
0
LINE
8
BLACK
6
CONTINUOUS
10
1.7374
20
1.37055
11
1.7381
21
1.37026
0
LINE
8
BLACK
6
CONTINUOUS
10
1.7381
20
1.37026
11
1.73839
21
1.36957
0
LINE
8
BLACK
6
CONTINUOUS
10
1.73839
20
1.36957
11
1.73839
21
1.23728
0
LINE
8
BLACK
6
CONTINUOUS
10
1.73839
20
1.23728
11
1.7381
21
1.23659
0
LINE
8
BLACK
6
CONTINUOUS
10
1.7381
20
1.23659
11
1.7374
21
1.2363
0
LINE
8
BLACK
6
CONTINUOUS
10
1.7374
20
1.2363
11
1.6626
21
1.2363
0
LINE
8
BLACK
6
CONTINUOUS
10
1.6626
20
1.2363
11
1.6619
21
1.23659
0
LINE
8
BLACK
6
CONTINUOUS
10
1.6619
20
1.23659
11
1.66161
21
1.23728
0
LINE
8
BLACK
6
CONTINUOUS
10
1.66161
20
1.23728
11
1.66161
21
1.36957
0
LINE
8
BLACK
6
CONTINUOUS
10
1.66161
20
1.36957
11
1.6619
21
1.37026
0
LINE
8
BLACK
6
CONTINUOUS
10
1.6619
20
1.37026
11
1.6626
21
1.37055
0
LINE
8
BLACK
6
CONTINUOUS
10
1.6626
20
1.37055
11
1.7374
21
1.37055
0
LINE
8
BLACK
6
CONTINUOUS
10
1.66358
20
1.36858
11
1.66358
21
1.23827
0
LINE
8
BLACK
6
CONTINUOUS
10
1.66358
20
1.23827
11
1.73642
21
1.23827
0
LINE
8
BLACK
6
CONTINUOUS
10
1.73642
20
1.23827
11
1.73642
21
1.36858
0
LINE
8
BLACK
6
CONTINUOUS
10
1.73642
20
1.36858
11
1.66358
21
1.36858
0
LINE
8
BLACK
6
CONTINUOUS
10
0.974551
20
1.34832
11
0.975247
21
1.34803
0
LINE
8
BLACK
6
CONTINUOUS
10
0.975247
20
1.34803
11
0.975535
21
1.34734
0
LINE
8
BLACK
6
CONTINUOUS
10
0.975535
20
1.34734
11
0.975535
21
1.26466
0
LINE
8
BLACK
6
CONTINUOUS
10
0.975535
20
1.26466
11
0.975247
21
1.26397
0
LINE
8
BLACK
6
CONTINUOUS
10
0.975247
20
1.26397
11
0.974551
21
1.26368
0
LINE
8
BLACK
6
CONTINUOUS
10
0.974551
20
1.26368
11
0.793449
21
1.26368
0
LINE
8
BLACK
6
CONTINUOUS
10
0.793449
20
1.26368
11
0.792753
21
1.26397
0
LINE
8
BLACK
6
CONTINUOUS
10
0.792753
20
1.26397
11
0.792465
21
1.26466
0
LINE
8
BLACK
6
CONTINUOUS
10
0.792465
20
1.26466
11
0.792465
21
1.34734
0
LINE
8
BLACK
6
CONTINUOUS
10
0.792465
20
1.34734
11
0.792753
21
1.34803
0
LINE
8
BLACK
6
CONTINUOUS
10
0.792753
20
1.34803
11
0.793449
21
1.34832
0
LINE
8
BLACK
6
CONTINUOUS
10
0.793449
20
1.34832
11
0.974551
21
1.34832
0
LINE
8
BLACK
6
CONTINUOUS
10
0.794433
20
1.34635
11
0.794433
21
1.26565
0
LINE
8
BLACK
6
CONTINUOUS
10
0.794433
20
1.26565
11
0.973567
21
1.26565
0
LINE
8
BLACK
6
CONTINUOUS
10
0.973567
20
1.26565
11
0.973567
21
1.34635
0
LINE
8
BLACK
6
CONTINUOUS
10
0.973567
20
1.34635
11
0.794433
21
1.34635
0
LINE
8
BLACK
6
CONTINUOUS
10
2.3064
20
1.41313
11
2.3071
21
1.41284
0
LINE
8
BLACK
6
CONTINUOUS
10
2.3071
20
1.41284
11
2.30739
21
1.41214
0
LINE
8
BLACK
6
CONTINUOUS
10
2.30739
20
1.41214
11
2.30739
21
1.27986
0
LINE
8
BLACK
6
CONTINUOUS
10
2.30739
20
1.27986
11
2.3071
21
1.27916
0
LINE
8
BLACK
6
CONTINUOUS
10
2.3071
20
1.27916
11
2.3064
21
1.27887
0
LINE
8
BLACK
6
CONTINUOUS
10
2.3064
20
1.27887
11
2.2316
21
1.27887
0
LINE
8
BLACK
6
CONTINUOUS
10
2.2316
20
1.27887
11
2.2309
21
1.27916
0
LINE
8
BLACK
6
CONTINUOUS
10
2.2309
20
1.27916
11
2.23061
21
1.27986
0
LINE
8
BLACK
6
CONTINUOUS
10
2.23061
20
1.27986
11
2.23061
21
1.41214
0
LINE
8
BLACK
6
CONTINUOUS
10
2.23061
20
1.41214
11
2.2309
21
1.41284
0
LINE
8
BLACK
6
CONTINUOUS
10
2.2309
20
1.41284
11
2.2316
21
1.41313
0
LINE
8
BLACK
6
CONTINUOUS
10
2.2316
20
1.41313
11
2.3064
21
1.41313
0
LINE
8
BLACK
6
CONTINUOUS
10
2.23258
20
1.41116
11
2.23258
21
1.28084
0
LINE
8
BLACK
6
CONTINUOUS
10
2.23258
20
1.28084
11
2.30542
21
1.28084
0
LINE
8
BLACK
6
CONTINUOUS
10
2.30542
20
1.28084
11
2.30542
21
1.41116
0
LINE
8
BLACK
6
CONTINUOUS
10
2.30542
20
1.41116
11
2.23258
21
1.41116
0
LINE
8
BLACK
6
CONTINUOUS
10
2.05558
20
1.44191
11
2.05628
21
1.44163
0
LINE
8
BLACK
6
CONTINUOUS
10
2.05628
20
1.44163
11
2.05657
21
1.44093
0
LINE
8
BLACK
6
CONTINUOUS
10
2.05657
20
1.44093
11
2.05657
21
1.30707
0
LINE
8
BLACK
6
CONTINUOUS
10
2.05657
20
1.30707
11
2.05628
21
1.30637
0
LINE
8
BLACK
6
CONTINUOUS
10
2.05628
20
1.30637
11
2.05558
21
1.30609
0
LINE
8
BLACK
6
CONTINUOUS
10
2.05558
20
1.30609
11
1.97842
21
1.30609
0
LINE
8
BLACK
6
CONTINUOUS
10
1.97842
20
1.30609
11
1.97772
21
1.30637
0
LINE
8
BLACK
6
CONTINUOUS
10
1.97772
20
1.30637
11
1.97743
21
1.30707
0
LINE
8
BLACK
6
CONTINUOUS
10
1.97743
20
1.30707
11
1.97743
21
1.44093
0
LINE
8
BLACK
6
CONTINUOUS
10
1.97743
20
1.44093
11
1.97772
21
1.44163
0
LINE
8
BLACK
6
CONTINUOUS
10
1.97772
20
1.44163
11
1.97842
21
1.44191
0
LINE
8
BLACK
6
CONTINUOUS
10
1.97842
20
1.44191
11
2.05558
21
1.44191
0
LINE
8
BLACK
6
CONTINUOUS
10
1.9794
20
1.43994
11
1.9794
21
1.30806
0
LINE
8
BLACK
6
CONTINUOUS
10
1.9794
20
1.30806
11
2.0546
21
1.30806
0
LINE
8
BLACK
6
CONTINUOUS
10
2.0546
20
1.30806
11
2.0546
21
1.43994
0
LINE
8
BLACK
6
CONTINUOUS
10
2.0546
20
1.43994
11
1.9794
21
1.43994
0
LINE
8
BLACK
6
CONTINUOUS
10
1.35993
20
1.43684
11
1.36063
21
1.43655
0
LINE
8
BLACK
6
CONTINUOUS
10
1.36063
20
1.43655
11
1.36091
21
1.43586
0
LINE
8
BLACK
6
CONTINUOUS
10
1.36091
20
1.43586
11
1.36091
21
1.35869
0
LINE
8
BLACK
6
CONTINUOUS
10
1.36091
20
1.35869
11
1.36063
21
1.358
0
LINE
8
BLACK
6
CONTINUOUS
10
1.36063
20
1.358
11
1.35993
21
1.35771
0
LINE
8
BLACK
6
CONTINUOUS
10
1.35993
20
1.35771
11
1.22607
21
1.35771
0
LINE
8
BLACK
6
CONTINUOUS
10
1.22607
20
1.35771
11
1.22537
21
1.358
0
LINE
8
BLACK
6
CONTINUOUS
10
1.22537
20
1.358
11
1.22509
21
1.35869
0
LINE
8
BLACK
6
CONTINUOUS
10
1.22509
20
1.35869
11
1.22509
21
1.43586
0
LINE
8
BLACK
6
CONTINUOUS
10
1.22509
20
1.43586
11
1.22537
21
1.43655
0
LINE
8
BLACK
6
CONTINUOUS
10
1.22537
20
1.43655
11
1.22607
21
1.43684
0
LINE
8
BLACK
6
CONTINUOUS
10
1.22607
20
1.43684
11
1.35993
21
1.43684
0
LINE
8
BLACK
6
CONTINUOUS
10
1.22706
20
1.43487
11
1.22706
21
1.35968
0
LINE
8
BLACK
6
CONTINUOUS
10
1.22706
20
1.35968
11
1.35894
21
1.35968
0
LINE
8
BLACK
6
CONTINUOUS
10
1.35894
20
1.35968
11
1.35894
21
1.43487
0
LINE
8
BLACK
6
CONTINUOUS
10
1.35894
20
1.43487
11
1.22706
21
1.43487
0
LINE
8
BLACK
6
CONTINUOUS
10
1.01658
20
1.53591
11
1.01728
21
1.53563
0
LINE
8
BLACK
6
CONTINUOUS
10
1.01728
20
1.53563
11
1.01757
21
1.53493
0
LINE
8
BLACK
6
CONTINUOUS
10
1.01757
20
1.53493
11
1.01757
21
1.40107
0
LINE
8
BLACK
6
CONTINUOUS
10
1.01757
20
1.40107
11
1.01728
21
1.40037
0
LINE
8
BLACK
6
CONTINUOUS
10
1.01728
20
1.40037
11
1.01658
21
1.40009
0
LINE
8
BLACK
6
CONTINUOUS
10
1.01658
20
1.40009
11
0.939417
21
1.40009
0
LINE
8
BLACK
6
CONTINUOUS
10
0.939417
20
1.40009
11
0.938721
21
1.40037
0
LINE
8
BLACK
6
CONTINUOUS
10
0.938721
20
1.40037
11
0.938433
21
1.40107
0
LINE
8
BLACK
6
CONTINUOUS
10
0.938433
20
1.40107
11
0.938433
21
1.53493
0
LINE
8
BLACK
6
CONTINUOUS
10
0.938433
20
1.53493
11
0.938721
21
1.53563
0
LINE
8
BLACK
6
CONTINUOUS
10
0.938721
20
1.53563
11
0.939417
21
1.53591
0
LINE
8
BLACK
6
CONTINUOUS
10
0.939417
20
1.53591
11
1.01658
21
1.53591
0
LINE
8
BLACK
6
CONTINUOUS
10
0.940402
20
1.53394
11
0.940402
21
1.40206
0
LINE
8
BLACK
6
CONTINUOUS
10
0.940402
20
1.40206
11
1.0156
21
1.40206
0
LINE
8
BLACK
6
CONTINUOUS
10
1.0156
20
1.40206
11
1.0156
21
1.53394
0
LINE
8
BLACK
6
CONTINUOUS
10
1.0156
20
1.53394
11
0.940402
21
1.53394
0
LINE
8
BLACK
6
CONTINUOUS
10
1.95681
20
1.53485
11
1.95751
21
1.53456
0
LINE
8
BLACK
6
CONTINUOUS
10
1.95751
20
1.53456
11
1.9578
21
1.53387
0
LINE
8
BLACK
6
CONTINUOUS
10
1.9578
20
1.53387
11
1.9578
21
1.40158
0
LINE
8
BLACK
6
CONTINUOUS
10
1.9578
20
1.40158
11
1.95751
21
1.40089
0
LINE
8
BLACK
6
CONTINUOUS
10
1.95751
20
1.40089
11
1.95681
21
1.4006
0
LINE
8
BLACK
6
CONTINUOUS
10
1.95681
20
1.4006
11
1.88201
21
1.4006
0
LINE
8
BLACK
6
CONTINUOUS
10
1.88201
20
1.4006
11
1.88131
21
1.40089
0
LINE
8
BLACK
6
CONTINUOUS
10
1.88131
20
1.40089
11
1.88102
21
1.40158
0
LINE
8
BLACK
6
CONTINUOUS
10
1.88102
20
1.40158
11
1.88102
21
1.53387
0
LINE
8
BLACK
6
CONTINUOUS
10
1.88102
20
1.53387
11
1.88131
21
1.53456
0
LINE
8
BLACK
6
CONTINUOUS
10
1.88131
20
1.53456
11
1.88201
21
1.53485
0
LINE
8
BLACK
6
CONTINUOUS
10
1.88201
20
1.53485
11
1.95681
21
1.53485
0
LINE
8
BLACK
6
CONTINUOUS
10
1.88299
20
1.53288
11
1.88299
21
1.40257
0
LINE
8
BLACK
6
CONTINUOUS
10
1.88299
20
1.40257
11
1.95583
21
1.40257
0
LINE
8
BLACK
6
CONTINUOUS
10
1.95583
20
1.40257
11
1.95583
21
1.53288
0
LINE
8
BLACK
6
CONTINUOUS
10
1.95583
20
1.53288
11
1.88299
21
1.53288
0
LINE
8
BLACK
6
CONTINUOUS
10
2.22432
20
1.55842
11
2.22502
21
1.55813
0
LINE
8
BLACK
6
CONTINUOUS
10
2.22502
20
1.55813
11
2.22531
21
1.55743
0
LINE
8
BLACK
6
CONTINUOUS
10
2.22531
20
1.55743
11
2.22531
21
1.42357
0
LINE
8
BLACK
6
CONTINUOUS
10
2.22531
20
1.42357
11
2.22502
21
1.42288
0
LINE
8
BLACK
6
CONTINUOUS
10
2.22502
20
1.42288
11
2.22432
21
1.42259
0
LINE
8
BLACK
6
CONTINUOUS
10
2.22432
20
1.42259
11
2.14716
21
1.42259
0
LINE
8
BLACK
6
CONTINUOUS
10
2.14716
20
1.42259
11
2.14646
21
1.42288
0
LINE
8
BLACK
6
CONTINUOUS
10
2.14646
20
1.42288
11
2.14617
21
1.42357
0
LINE
8
BLACK
6
CONTINUOUS
10
2.14617
20
1.42357
11
2.14617
21
1.55743
0
LINE
8
BLACK
6
CONTINUOUS
10
2.14617
20
1.55743
11
2.14646
21
1.55813
0
LINE
8
BLACK
6
CONTINUOUS
10
2.14646
20
1.55813
11
2.14716
21
1.55842
0
LINE
8
BLACK
6
CONTINUOUS
10
2.14716
20
1.55842
11
2.22432
21
1.55842
0
LINE
8
BLACK
6
CONTINUOUS
10
2.14814
20
1.55645
11
2.14814
21
1.42456
0
LINE
8
BLACK
6
CONTINUOUS
10
2.14814
20
1.42456
11
2.22334
21
1.42456
0
LINE
8
BLACK
6
CONTINUOUS
10
2.22334
20
1.42456
11
2.22334
21
1.55645
0
LINE
8
BLACK
6
CONTINUOUS
10
2.22334
20
1.55645
11
2.14814
21
1.55645
0
LINE
8
BLACK
6
CONTINUOUS
10
2.36967
20
1.54554
11
2.37037
21
1.54526
0
LINE
8
BLACK
6
CONTINUOUS
10
2.37037
20
1.54526
11
2.37065
21
1.54456
0
LINE
8
BLACK
6
CONTINUOUS
10
2.37065
20
1.54456
11
2.37065
21
1.42645
0
LINE
8
BLACK
6
CONTINUOUS
10
2.37065
20
1.42645
11
2.37037
21
1.42575
0
LINE
8
BLACK
6
CONTINUOUS
10
2.37037
20
1.42575
11
2.36967
21
1.42546
0
LINE
8
BLACK
6
CONTINUOUS
10
2.36967
20
1.42546
11
2.23581
21
1.42546
0
LINE
8
BLACK
6
CONTINUOUS
10
2.23581
20
1.42546
11
2.23512
21
1.42575
0
LINE
8
BLACK
6
CONTINUOUS
10
2.23512
20
1.42575
11
2.23483
21
1.42645
0
LINE
8
BLACK
6
CONTINUOUS
10
2.23483
20
1.42645
11
2.23483
21
1.54456
0
LINE
8
BLACK
6
CONTINUOUS
10
2.23483
20
1.54456
11
2.23512
21
1.54526
0
LINE
8
BLACK
6
CONTINUOUS
10
2.23512
20
1.54526
11
2.23581
21
1.54554
0
LINE
8
BLACK
6
CONTINUOUS
10
2.23581
20
1.54554
11
2.36967
21
1.54554
0
LINE
8
BLACK
6
CONTINUOUS
10
2.2368
20
1.54357
11
2.2368
21
1.42743
0
LINE
8
BLACK
6
CONTINUOUS
10
2.2368
20
1.42743
11
2.36869
21
1.42743
0
LINE
8
BLACK
6
CONTINUOUS
10
2.36869
20
1.42743
11
2.36869
21
1.54357
0
LINE
8
BLACK
6
CONTINUOUS
10
2.36869
20
1.54357
11
2.2368
21
1.54357
0
LINE
8
BLACK
6
CONTINUOUS
10
1.40855
20
1.52775
11
1.40925
21
1.52746
0
LINE
8
BLACK
6
CONTINUOUS
10
1.40925
20
1.52746
11
1.40954
21
1.52676
0
LINE
8
BLACK
6
CONTINUOUS
10
1.40954
20
1.52676
11
1.40954
21
1.44409
0
LINE
8
BLACK
6
CONTINUOUS
10
1.40954
20
1.44409
11
1.40925
21
1.44339
0
LINE
8
BLACK
6
CONTINUOUS
10
1.40925
20
1.44339
11
1.40855
21
1.4431
0
LINE
8
BLACK
6
CONTINUOUS
10
1.40855
20
1.4431
11
1.22745
21
1.4431
0
LINE
8
BLACK
6
CONTINUOUS
10
1.22745
20
1.4431
11
1.22675
21
1.44339
0
LINE
8
BLACK
6
CONTINUOUS
10
1.22675
20
1.44339
11
1.22646
21
1.44409
0
LINE
8
BLACK
6
CONTINUOUS
10
1.22646
20
1.44409
11
1.22646
21
1.52676
0
LINE
8
BLACK
6
CONTINUOUS
10
1.22646
20
1.52676
11
1.22675
21
1.52746
0
LINE
8
BLACK
6
CONTINUOUS
10
1.22675
20
1.52746
11
1.22745
21
1.52775
0
LINE
8
BLACK
6
CONTINUOUS
10
1.22745
20
1.52775
11
1.40855
21
1.52775
0
LINE
8
BLACK
6
CONTINUOUS
10
1.22843
20
1.52578
11
1.22843
21
1.44507
0
LINE
8
BLACK
6
CONTINUOUS
10
1.22843
20
1.44507
11
1.40757
21
1.44507
0
LINE
8
BLACK
6
CONTINUOUS
10
1.40757
20
1.44507
11
1.40757
21
1.52578
0
LINE
8
BLACK
6
CONTINUOUS
10
1.40757
20
1.52578
11
1.22843
21
1.52578
0
LINE
8
BLACK
6
CONTINUOUS
10
1.19814
20
1.52239
11
1.19884
21
1.5221
0
LINE
8
BLACK
6
CONTINUOUS
10
1.19884
20
1.5221
11
1.19913
21
1.5214
0
LINE
8
BLACK
6
CONTINUOUS
10
1.19913
20
1.5214
11
1.19913
21
1.4466
0
LINE
8
BLACK
6
CONTINUOUS
10
1.19913
20
1.4466
11
1.19884
21
1.4459
0
LINE
8
BLACK
6
CONTINUOUS
10
1.19884
20
1.4459
11
1.19814
21
1.44561
0
LINE
8
BLACK
6
CONTINUOUS
10
1.19814
20
1.44561
11
1.06586
21
1.44561
0
LINE
8
BLACK
6
CONTINUOUS
10
1.06586
20
1.44561
11
1.06516
21
1.4459
0
LINE
8
BLACK
6
CONTINUOUS
10
1.06516
20
1.4459
11
1.06487
21
1.4466
0
LINE
8
BLACK
6
CONTINUOUS
10
1.06487
20
1.4466
11
1.06487
21
1.5214
0
LINE
8
BLACK
6
CONTINUOUS
10
1.06487
20
1.5214
11
1.06516
21
1.5221
0
LINE
8
BLACK
6
CONTINUOUS
10
1.06516
20
1.5221
11
1.06586
21
1.52239
0
LINE
8
BLACK
6
CONTINUOUS
10
1.06586
20
1.52239
11
1.19814
21
1.52239
0
LINE
8
BLACK
6
CONTINUOUS
10
1.06684
20
1.52042
11
1.06684
21
1.44758
0
LINE
8
BLACK
6
CONTINUOUS
10
1.06684
20
1.44758
11
1.19716
21
1.44758
0
LINE
8
BLACK
6
CONTINUOUS
10
1.19716
20
1.44758
11
1.19716
21
1.52042
0
LINE
8
BLACK
6
CONTINUOUS
10
1.19716
20
1.52042
11
1.06684
21
1.52042
0
LINE
8
BLACK
6
CONTINUOUS
10
0.903961
20
1.51015
11
0.904657
21
1.50986
0
LINE
8
BLACK
6
CONTINUOUS
10
0.904657
20
1.50986
11
0.904945
21
1.50917
0
LINE
8
BLACK
6
CONTINUOUS
10
0.904945
20
1.50917
11
0.904945
21
1.45169
0
LINE
8
BLACK
6
CONTINUOUS
10
0.904945
20
1.45169
11
0.904657
21
1.45099
0
LINE
8
BLACK
6
CONTINUOUS
10
0.904657
20
1.45099
11
0.903961
21
1.4507
0
LINE
8
BLACK
6
CONTINUOUS
10
0.903961
20
1.4507
11
0.774039
21
1.4507
0
LINE
8
BLACK
6
CONTINUOUS
10
0.774039
20
1.4507
11
0.773343
21
1.45099
0
LINE
8
BLACK
6
CONTINUOUS
10
0.773343
20
1.45099
11
0.773055
21
1.45169
0
LINE
8
BLACK
6
CONTINUOUS
10
0.773055
20
1.45169
11
0.773055
21
1.50917
0
LINE
8
BLACK
6
CONTINUOUS
10
0.773055
20
1.50917
11
0.773343
21
1.50986
0
LINE
8
BLACK
6
CONTINUOUS
10
0.773343
20
1.50986
11
0.774039
21
1.51015
0
LINE
8
BLACK
6
CONTINUOUS
10
0.774039
20
1.51015
11
0.903961
21
1.51015
0
LINE
8
BLACK
6
CONTINUOUS
10
0.775024
20
1.50818
11
0.775024
21
1.45267
0
LINE
8
BLACK
6
CONTINUOUS
10
0.775024
20
1.45267
11
0.902976
21
1.45267
0
LINE
8
BLACK
6
CONTINUOUS
10
0.902976
20
1.45267
11
0.902976
21
1.50818
0
LINE
8
BLACK
6
CONTINUOUS
10
0.902976
20
1.50818
11
0.775024
21
1.50818
0
LINE
8
BLACK
6
CONTINUOUS
10
1.87334
20
1.54329
11
1.87403
21
1.543
0
LINE
8
BLACK
6
CONTINUOUS
10
1.87403
20
1.543
11
1.87432
21
1.54231
0
LINE
8
BLACK
6
CONTINUOUS
10
1.87432
20
1.54231
11
1.87432
21
1.46514
0
LINE
8
BLACK
6
CONTINUOUS
10
1.87432
20
1.46514
11
1.87403
21
1.46445
0
LINE
8
BLACK
6
CONTINUOUS
10
1.87403
20
1.46445
11
1.87334
21
1.46416
0
LINE
8
BLACK
6
CONTINUOUS
10
1.87334
20
1.46416
11
1.73948
21
1.46416
0
LINE
8
BLACK
6
CONTINUOUS
10
1.73948
20
1.46416
11
1.73878
21
1.46445
0
LINE
8
BLACK
6
CONTINUOUS
10
1.73878
20
1.46445
11
1.7385
21
1.46514
0
LINE
8
BLACK
6
CONTINUOUS
10
1.7385
20
1.46514
11
1.7385
21
1.54231
0
LINE
8
BLACK
6
CONTINUOUS
10
1.7385
20
1.54231
11
1.73878
21
1.543
0
LINE
8
BLACK
6
CONTINUOUS
10
1.73878
20
1.543
11
1.73948
21
1.54329
0
LINE
8
BLACK
6
CONTINUOUS
10
1.73948
20
1.54329
11
1.87334
21
1.54329
0
LINE
8
BLACK
6
CONTINUOUS
10
1.74046
20
1.54132
11
1.74046
21
1.46613
0
LINE
8
BLACK
6
CONTINUOUS
10
1.74046
20
1.46613
11
1.87235
21
1.46613
0
LINE
8
BLACK
6
CONTINUOUS
10
1.87235
20
1.46613
11
1.87235
21
1.54132
0
LINE
8
BLACK
6
CONTINUOUS
10
1.87235
20
1.54132
11
1.74046
21
1.54132
0
LINE
8
BLACK
6
CONTINUOUS
10
2.43268
20
1.58234
11
2.43337
21
1.58205
0
LINE
8
BLACK
6
CONTINUOUS
10
2.43337
20
1.58205
11
2.43366
21
1.58135
0
LINE
8
BLACK
6
CONTINUOUS
10
2.43366
20
1.58135
11
2.43366
21
0.447496
0
LINE
8
BLACK
6
CONTINUOUS
10
2.43366
20
0.447496
11
2.43337
21
0.4468
0
LINE
8
BLACK
6
CONTINUOUS
10
2.43337
20
0.4468
11
2.43268
21
0.446512
0
LINE
8
BLACK
6
CONTINUOUS
10
2.43268
20
0.446512
11
0.767323
21
0.446512
0
LINE
8
BLACK
6
CONTINUOUS
10
0.767323
20
0.446512
11
0.766627
21
0.4468
0
LINE
8
BLACK
6
CONTINUOUS
10
0.766627
20
0.4468
11
0.766339
21
0.447496
0
LINE
8
BLACK
6
CONTINUOUS
10
0.766339
20
0.447496
11
0.766339
21
1.58135
0
LINE
8
BLACK
6
CONTINUOUS
10
0.766339
20
1.58135
11
0.766627
21
1.58205
0
LINE
8
BLACK
6
CONTINUOUS
10
0.766627
20
1.58205
11
0.767323
21
1.58234
0
LINE
8
BLACK
6
CONTINUOUS
10
0.767323
20
1.58234
11
2.43268
21
1.58234
0
LINE
8
BLACK
6
CONTINUOUS
10
0.768307
20
1.58037
11
0.768307
21
0.44848
0
LINE
8
BLACK
6
CONTINUOUS
10
0.768307
20
0.44848
11
2.43169
21
0.44848
0
LINE
8
BLACK
6
CONTINUOUS
10
2.43169
20
0.44848
11
2.43169
21
1.58037
0
LINE
8
BLACK
6
CONTINUOUS
10
2.43169
20
1.58037
11
0.768307
21
1.58037
0
LINE
8
BLACK
6
CONTINUOUS
10
2.49173
20
1.64139
11
2.49243
21
1.64111
0
LINE
8
BLACK
6
CONTINUOUS
10
2.49243
20
1.64111
11
2.49272
21
1.64041
0
LINE
8
BLACK
6
CONTINUOUS
10
2.49272
20
1.64041
11
2.49272
21
0.388441
0
LINE
8
BLACK
6
CONTINUOUS
10
2.49272
20
0.388441
11
2.49243
21
0.387745
0
LINE
8
BLACK
6
CONTINUOUS
10
2.49243
20
0.387745
11
2.49173
21
0.387457
0
LINE
8
BLACK
6
CONTINUOUS
10
2.49173
20
0.387457
11
0.708268
21
0.387457
0
LINE
8
BLACK
6
CONTINUOUS
10
0.708268
20
0.387457
11
0.707572
21
0.387745
0
LINE
8
BLACK
6
CONTINUOUS
10
0.707572
20
0.387745
11
0.707283
21
0.388441
0
LINE
8
BLACK
6
CONTINUOUS
10
0.707283
20
0.388441
11
0.707283
21
1.64041
0
LINE
8
BLACK
6
CONTINUOUS
10
0.707283
20
1.64041
11
0.707572
21
1.64111
0
LINE
8
BLACK
6
CONTINUOUS
10
0.707572
20
1.64111
11
0.708268
21
1.64139
0
LINE
8
BLACK
6
CONTINUOUS
10
0.708268
20
1.64139
11
2.49173
21
1.64139
0
LINE
8
BLACK
6
CONTINUOUS
10
0.709252
20
1.63943
11
0.709252
21
0.389425
0
LINE
8
BLACK
6
CONTINUOUS
10
0.709252
20
0.389425
11
2.49075
21
0.389425
0
LINE
8
BLACK
6
CONTINUOUS
10
2.49075
20
0.389425
11
2.49075
21
1.63943
0
LINE
8
BLACK
6
CONTINUOUS
10
2.49075
20
1.63943
11
0.709252
21
1.63943
0
LINE
8
BLACK
6
CONTINUOUS
10
2.88626
20
0.682293
11
2.89471
21
0.680028
0
LINE
8
BLACK
6
CONTINUOUS
10
2.89471
20
0.680028
11
2.90264
21
0.67633
0
LINE
8
BLACK
6
CONTINUOUS
10
2.90264
20
0.67633
11
2.90981
21
0.671311
0
LINE
8
BLACK
6
CONTINUOUS
10
2.90981
20
0.671311
11
2.916
21
0.665124
0
LINE
8
BLACK
6
CONTINUOUS
10
2.916
20
0.665124
11
2.92102
21
0.657957
0
LINE
8
BLACK
6
CONTINUOUS
10
2.92102
20
0.657957
11
2.92471
21
0.650027
0
LINE
8
BLACK
6
CONTINUOUS
10
2.92471
20
0.650027
11
2.92698
21
0.641575
0
LINE
8
BLACK
6
CONTINUOUS
10
2.92698
20
0.641575
11
2.92774
21
0.632858
0
LINE
8
BLACK
6
CONTINUOUS
10
2.92774
20
0.632858
11
2.92698
21
0.624142
0
LINE
8
BLACK
6
CONTINUOUS
10
2.92698
20
0.624142
11
2.92471
21
0.61569
0
LINE
8
BLACK
6
CONTINUOUS
10
2.92471
20
0.61569
11
2.92102
21
0.60776
0
LINE
8
BLACK
6
CONTINUOUS
10
2.92102
20
0.60776
11
2.916
21
0.600592
0
LINE
8
BLACK
6
CONTINUOUS
10
2.916
20
0.600592
11
2.90981
21
0.594405
0
LINE
8
BLACK
6
CONTINUOUS
10
2.90981
20
0.594405
11
2.90264
21
0.589387
0
LINE
8
BLACK
6
CONTINUOUS
10
2.90264
20
0.589387
11
2.89471
21
0.585689
0
LINE
8
BLACK
6
CONTINUOUS
10
2.89471
20
0.585689
11
2.88626
21
0.583424
0
LINE
8
BLACK
6
CONTINUOUS
10
2.88626
20
0.583424
11
2.87754
21
0.582661
0
LINE
8
BLACK
6
CONTINUOUS
10
2.87754
20
0.582661
11
2.86883
21
0.583424
0
LINE
8
BLACK
6
CONTINUOUS
10
2.86883
20
0.583424
11
2.86037
21
0.585689
0
LINE
8
BLACK
6
CONTINUOUS
10
2.86037
20
0.585689
11
2.85244
21
0.589387
0
LINE
8
BLACK
6
CONTINUOUS
10
2.85244
20
0.589387
11
2.84528
21
0.594405
0
LINE
8
BLACK
6
CONTINUOUS
10
2.84528
20
0.594405
11
2.83909
21
0.600592
0
LINE
8
BLACK
6
CONTINUOUS
10
2.83909
20
0.600592
11
2.83407
21
0.60776
0
LINE
8
BLACK
6
CONTINUOUS
10
2.83407
20
0.60776
11
2.83037
21
0.61569
0
LINE
8
BLACK
6
CONTINUOUS
10
2.83037
20
0.61569
11
2.82811
21
0.624142
0
LINE
8
BLACK
6
CONTINUOUS
10
2.82811
20
0.624142
11
2.82735
21
0.632858
0
LINE
8
BLACK
6
CONTINUOUS
10
2.82735
20
0.632858
11
2.82811
21
0.641575
0
LINE
8
BLACK
6
CONTINUOUS
10
2.82811
20
0.641575
11
2.83037
21
0.650027
0
LINE
8
BLACK
6
CONTINUOUS
10
2.83037
20
0.650027
11
2.83407
21
0.657957
0
LINE
8
BLACK
6
CONTINUOUS
10
2.83407
20
0.657957
11
2.83909
21
0.665124
0
LINE
8
BLACK
6
CONTINUOUS
10
2.83909
20
0.665124
11
2.84528
21
0.671311
0
LINE
8
BLACK
6
CONTINUOUS
10
2.84528
20
0.671311
11
2.85244
21
0.67633
0
LINE
8
BLACK
6
CONTINUOUS
10
2.85244
20
0.67633
11
2.86037
21
0.680028
0
LINE
8
BLACK
6
CONTINUOUS
10
2.86037
20
0.680028
11
2.86883
21
0.682293
0
LINE
8
BLACK
6
CONTINUOUS
10
2.86883
20
0.682293
11
2.87754
21
0.683055
0
LINE
8
BLACK
6
CONTINUOUS
10
2.87754
20
0.683055
11
2.88626
21
0.682293
0
LINE
8
BLACK
6
CONTINUOUS
10
2.82987
20
0.624451
11
2.83205
21
0.6163
0
LINE
8
BLACK
6
CONTINUOUS
10
2.83205
20
0.6163
11
2.83562
21
0.608652
0
LINE
8
BLACK
6
CONTINUOUS
10
2.83562
20
0.608652
11
2.84046
21
0.601739
0
LINE
8
BLACK
6
CONTINUOUS
10
2.84046
20
0.601739
11
2.84642
21
0.595772
0
LINE
8
BLACK
6
CONTINUOUS
10
2.84642
20
0.595772
11
2.85334
21
0.590932
0
LINE
8
BLACK
6
CONTINUOUS
10
2.85334
20
0.590932
11
2.86099
21
0.587365
0
LINE
8
BLACK
6
CONTINUOUS
10
2.86099
20
0.587365
11
2.86914
21
0.585181
0
LINE
8
BLACK
6
CONTINUOUS
10
2.86914
20
0.585181
11
2.87754
21
0.584446
0
LINE
8
BLACK
6
CONTINUOUS
10
2.87754
20
0.584446
11
2.88595
21
0.585181
0
LINE
8
BLACK
6
CONTINUOUS
10
2.88595
20
0.585181
11
2.8941
21
0.587365
0
LINE
8
BLACK
6
CONTINUOUS
10
2.8941
20
0.587365
11
2.90175
21
0.590932
0
LINE
8
BLACK
6
CONTINUOUS
10
2.90175
20
0.590932
11
2.90866
21
0.595772
0
LINE
8
BLACK
6
CONTINUOUS
10
2.90866
20
0.595772
11
2.91463
21
0.601739
0
LINE
8
BLACK
6
CONTINUOUS
10
2.91463
20
0.601739
11
2.91947
21
0.608652
0
LINE
8
BLACK
6
CONTINUOUS
10
2.91947
20
0.608652
11
2.92304
21
0.6163
0
LINE
8
BLACK
6
CONTINUOUS
10
2.92304
20
0.6163
11
2.92522
21
0.624451
0
LINE
8
BLACK
6
CONTINUOUS
10
2.92522
20
0.624451
11
2.92596
21
0.632858
0
LINE
8
BLACK
6
CONTINUOUS
10
2.92596
20
0.632858
11
2.92522
21
0.641265
0
LINE
8
BLACK
6
CONTINUOUS
10
2.92522
20
0.641265
11
2.92304
21
0.649416
0
LINE
8
BLACK
6
CONTINUOUS
10
2.92304
20
0.649416
11
2.91947
21
0.657065
0
LINE
8
BLACK
6
CONTINUOUS
10
2.91947
20
0.657065
11
2.91463
21
0.663977
0
LINE
8
BLACK
6
CONTINUOUS
10
2.91463
20
0.663977
11
2.90866
21
0.669944
0
LINE
8
BLACK
6
CONTINUOUS
10
2.90866
20
0.669944
11
2.90175
21
0.674785
0
LINE
8
BLACK
6
CONTINUOUS
10
2.90175
20
0.674785
11
2.8941
21
0.678351
0
LINE
8
BLACK
6
CONTINUOUS
10
2.8941
20
0.678351
11
2.88595
21
0.680535
0
LINE
8
BLACK
6
CONTINUOUS
10
2.88595
20
0.680535
11
2.87754
21
0.681271
0
LINE
8
BLACK
6
CONTINUOUS
10
2.87754
20
0.681271
11
2.86914
21
0.680535
0
LINE
8
BLACK
6
CONTINUOUS
10
2.86914
20
0.680535
11
2.86099
21
0.678351
0
LINE
8
BLACK
6
CONTINUOUS
10
2.86099
20
0.678351
11
2.85334
21
0.674785
0
LINE
8
BLACK
6
CONTINUOUS
10
2.85334
20
0.674785
11
2.84642
21
0.669944
0
LINE
8
BLACK
6
CONTINUOUS
10
2.84642
20
0.669944
11
2.84046
21
0.663977
0
LINE
8
BLACK
6
CONTINUOUS
10
2.84046
20
0.663977
11
2.83562
21
0.657065
0
LINE
8
BLACK
6
CONTINUOUS
10
2.83562
20
0.657065
11
2.83205
21
0.649416
0
LINE
8
BLACK
6
CONTINUOUS
10
2.83205
20
0.649416
11
2.82987
21
0.641265
0
LINE
8
BLACK
6
CONTINUOUS
10
2.82987
20
0.641265
11
2.82913
21
0.632858
0
LINE
8
BLACK
6
CONTINUOUS
10
2.82913
20
0.632858
11
2.82987
21
0.624451
0
LINE
8
BLACK
6
CONTINUOUS
10
0.558583
20
0.721197
11
0.559279
21
0.720909
0
LINE
8
BLACK
6
CONTINUOUS
10
0.559279
20
0.720909
11
0.559567
21
0.720213
0
LINE
8
BLACK
6
CONTINUOUS
10
0.559567
20
0.720213
11
0.559567
21
0.621787
0
LINE
8
BLACK
6
CONTINUOUS
10
0.559567
20
0.621787
11
0.559279
21
0.621091
0
LINE
8
BLACK
6
CONTINUOUS
10
0.559279
20
0.621091
11
0.558583
21
0.620803
0
LINE
8
BLACK
6
CONTINUOUS
10
0.558583
20
0.620803
11
0.381417
21
0.620803
0
LINE
8
BLACK
6
CONTINUOUS
10
0.381417
20
0.620803
11
0.380721
21
0.621091
0
LINE
8
BLACK
6
CONTINUOUS
10
0.380721
20
0.621091
11
0.380433
21
0.621787
0
LINE
8
BLACK
6
CONTINUOUS
10
0.380433
20
0.621787
11
0.380433
21
0.720213
0
LINE
8
BLACK
6
CONTINUOUS
10
0.380433
20
0.720213
11
0.380721
21
0.720909
0
LINE
8
BLACK
6
CONTINUOUS
10
0.380721
20
0.720909
11
0.381417
21
0.721197
0
LINE
8
BLACK
6
CONTINUOUS
10
0.381417
20
0.721197
11
0.558583
21
0.721197
0
LINE
8
BLACK
6
CONTINUOUS
10
0.382402
20
0.719228
11
0.382402
21
0.622772
0
LINE
8
BLACK
6
CONTINUOUS
10
0.382402
20
0.622772
11
0.557598
21
0.622772
0
LINE
8
BLACK
6
CONTINUOUS
10
0.557598
20
0.622772
11
0.557598
21
0.719228
0
LINE
8
BLACK
6
CONTINUOUS
10
0.557598
20
0.719228
11
0.382402
21
0.719228
0
LINE
8
BLACK
6
CONTINUOUS
10
0.517929
20
0.809567
11
0.518625
21
0.809279
0
LINE
8
BLACK
6
CONTINUOUS
10
0.518625
20
0.809279
11
0.518913
21
0.808583
0
LINE
8
BLACK
6
CONTINUOUS
10
0.518913
20
0.808583
11
0.518913
21
0.731417
0
LINE
8
BLACK
6
CONTINUOUS
10
0.518913
20
0.731417
11
0.518625
21
0.730721
0
LINE
8
BLACK
6
CONTINUOUS
10
0.518625
20
0.730721
11
0.517929
21
0.730433
0
LINE
8
BLACK
6
CONTINUOUS
10
0.517929
20
0.730433
11
0.384071
21
0.730433
0
LINE
8
BLACK
6
CONTINUOUS
10
0.384071
20
0.730433
11
0.383375
21
0.730721
0
LINE
8
BLACK
6
CONTINUOUS
10
0.383375
20
0.730721
11
0.383087
21
0.731417
0
LINE
8
BLACK
6
CONTINUOUS
10
0.383087
20
0.731417
11
0.383087
21
0.808583
0
LINE
8
BLACK
6
CONTINUOUS
10
0.383087
20
0.808583
11
0.383375
21
0.809279
0
LINE
8
BLACK
6
CONTINUOUS
10
0.383375
20
0.809279
11
0.384071
21
0.809567
0
LINE
8
BLACK
6
CONTINUOUS
10
0.384071
20
0.809567
11
0.517929
21
0.809567
0
LINE
8
BLACK
6
CONTINUOUS
10
0.385055
20
0.807598
11
0.385055
21
0.732402
0
LINE
8
BLACK
6
CONTINUOUS
10
0.385055
20
0.732402
11
0.516945
21
0.732402
0
LINE
8
BLACK
6
CONTINUOUS
10
0.516945
20
0.732402
11
0.516945
21
0.807598
0
LINE
8
BLACK
6
CONTINUOUS
10
0.516945
20
0.807598
11
0.385055
21
0.807598
0
LINE
8
BLACK
6
CONTINUOUS
10
0.649583
20
0.974913
11
0.650279
21
0.974625
0
LINE
8
BLACK
6
CONTINUOUS
10
0.650279
20
0.974625
11
0.650567
21
0.973929
0
LINE
8
BLACK
6
CONTINUOUS
10
0.650567
20
0.973929
11
0.650567
21
0.840071
0
LINE
8
BLACK
6
CONTINUOUS
10
0.650567
20
0.840071
11
0.650279
21
0.839375
0
LINE
8
BLACK
6
CONTINUOUS
10
0.650279
20
0.839375
11
0.649583
21
0.839087
0
LINE
8
BLACK
6
CONTINUOUS
10
0.649583
20
0.839087
11
0.572417
21
0.839087
0
LINE
8
BLACK
6
CONTINUOUS
10
0.572417
20
0.839087
11
0.571721
21
0.839375
0
LINE
8
BLACK
6
CONTINUOUS
10
0.571721
20
0.839375
11
0.571433
21
0.840071
0
LINE
8
BLACK
6
CONTINUOUS
10
0.571433
20
0.840071
11
0.571433
21
0.973929
0
LINE
8
BLACK
6
CONTINUOUS
10
0.571433
20
0.973929
11
0.571721
21
0.974625
0
LINE
8
BLACK
6
CONTINUOUS
10
0.571721
20
0.974625
11
0.572417
21
0.974913
0
LINE
8
BLACK
6
CONTINUOUS
10
0.572417
20
0.974913
11
0.649583
21
0.974913
0
LINE
8
BLACK
6
CONTINUOUS
10
0.573402
20
0.972945
11
0.573402
21
0.841055
0
LINE
8
BLACK
6
CONTINUOUS
10
0.573402
20
0.841055
11
0.648598
21
0.841055
0
LINE
8
BLACK
6
CONTINUOUS
10
0.648598
20
0.841055
11
0.648598
21
0.972945
0
LINE
8
BLACK
6
CONTINUOUS
10
0.648598
20
0.972945
11
0.573402
21
0.972945
0
LINE
8
BLACK
6
CONTINUOUS
10
0.518929
20
0.924567
11
0.519625
21
0.924279
0
LINE
8
BLACK
6
CONTINUOUS
10
0.519625
20
0.924279
11
0.519913
21
0.923583
0
LINE
8
BLACK
6
CONTINUOUS
10
0.519913
20
0.923583
11
0.519913
21
0.846417
0
LINE
8
BLACK
6
CONTINUOUS
10
0.519913
20
0.846417
11
0.519625
21
0.845721
0
LINE
8
BLACK
6
CONTINUOUS
10
0.519625
20
0.845721
11
0.518929
21
0.845433
0
LINE
8
BLACK
6
CONTINUOUS
10
0.518929
20
0.845433
11
0.385071
21
0.845433
0
LINE
8
BLACK
6
CONTINUOUS
10
0.385071
20
0.845433
11
0.384375
21
0.845721
0
LINE
8
BLACK
6
CONTINUOUS
10
0.384375
20
0.845721
11
0.384087
21
0.846417
0
LINE
8
BLACK
6
CONTINUOUS
10
0.384087
20
0.846417
11
0.384087
21
0.923583
0
LINE
8
BLACK
6
CONTINUOUS
10
0.384087
20
0.923583
11
0.384375
21
0.924279
0
LINE
8
BLACK
6
CONTINUOUS
10
0.384375
20
0.924279
11
0.385071
21
0.924567
0
LINE
8
BLACK
6
CONTINUOUS
10
0.385071
20
0.924567
11
0.518929
21
0.924567
0
LINE
8
BLACK
6
CONTINUOUS
10
0.386055
20
0.922598
11
0.386055
21
0.847402
0
LINE
8
BLACK
6
CONTINUOUS
10
0.386055
20
0.847402
11
0.517945
21
0.847402
0
LINE
8
BLACK
6
CONTINUOUS
10
0.517945
20
0.847402
11
0.517945
21
0.922598
0
LINE
8
BLACK
6
CONTINUOUS
10
0.517945
20
0.922598
11
0.386055
21
0.922598
0
LINE
8
BLACK
6
CONTINUOUS
10
2.69793
20
1.00357
11
2.69863
21
1.00328
0
LINE
8
BLACK
6
CONTINUOUS
10
2.69863
20
1.00328
11
2.69891
21
1.00258
0
LINE
8
BLACK
6
CONTINUOUS
10
2.69891
20
1.00258
11
2.69891
21
0.925417
0
LINE
8
BLACK
6
CONTINUOUS
10
2.69891
20
0.925417
11
2.69863
21
0.924721
0
LINE
8
BLACK
6
CONTINUOUS
10
2.69863
20
0.924721
11
2.69793
21
0.924433
0
LINE
8
BLACK
6
CONTINUOUS
10
2.69793
20
0.924433
11
2.56407
21
0.924433
0
LINE
8
BLACK
6
CONTINUOUS
10
2.56407
20
0.924433
11
2.56337
21
0.924721
0
LINE
8
BLACK
6
CONTINUOUS
10
2.56337
20
0.924721
11
2.56309
21
0.925417
0
LINE
8
BLACK
6
CONTINUOUS
10
2.56309
20
0.925417
11
2.56309
21
1.00258
0
LINE
8
BLACK
6
CONTINUOUS
10
2.56309
20
1.00258
11
2.56337
21
1.00328
0
LINE
8
BLACK
6
CONTINUOUS
10
2.56337
20
1.00328
11
2.56407
21
1.00357
0
LINE
8
BLACK
6
CONTINUOUS
10
2.56407
20
1.00357
11
2.69793
21
1.00357
0
LINE
8
BLACK
6
CONTINUOUS
10
2.56506
20
1.0016
11
2.56506
21
0.926402
0
LINE
8
BLACK
6
CONTINUOUS
10
2.56506
20
0.926402
11
2.69694
21
0.926402
0
LINE
8
BLACK
6
CONTINUOUS
10
2.69694
20
0.926402
11
2.69694
21
1.0016
0
LINE
8
BLACK
6
CONTINUOUS
10
2.69694
20
1.0016
11
2.56506
21
1.0016
0
LINE
8
BLACK
6
CONTINUOUS
10
0.562583
20
1.0352
11
0.563279
21
1.03491
0
LINE
8
BLACK
6
CONTINUOUS
10
0.563279
20
1.03491
11
0.563567
21
1.03421
0
LINE
8
BLACK
6
CONTINUOUS
10
0.563567
20
1.03421
11
0.563567
21
0.935787
0
LINE
8
BLACK
6
CONTINUOUS
10
0.563567
20
0.935787
11
0.563279
21
0.935091
0
LINE
8
BLACK
6
CONTINUOUS
10
0.563279
20
0.935091
11
0.562583
21
0.934803
0
LINE
8
BLACK
6
CONTINUOUS
10
0.562583
20
0.934803
11
0.385417
21
0.934803
0
LINE
8
BLACK
6
CONTINUOUS
10
0.385417
20
0.934803
11
0.384721
21
0.935091
0
LINE
8
BLACK
6
CONTINUOUS
10
0.384721
20
0.935091
11
0.384433
21
0.935787
0
LINE
8
BLACK
6
CONTINUOUS
10
0.384433
20
0.935787
11
0.384433
21
1.03421
0
LINE
8
BLACK
6
CONTINUOUS
10
0.384433
20
1.03421
11
0.384721
21
1.03491
0
LINE
8
BLACK
6
CONTINUOUS
10
0.384721
20
1.03491
11
0.385417
21
1.0352
0
LINE
8
BLACK
6
CONTINUOUS
10
0.385417
20
1.0352
11
0.562583
21
1.0352
0
LINE
8
BLACK
6
CONTINUOUS
10
0.386402
20
1.03323
11
0.386402
21
0.936772
0
LINE
8
BLACK
6
CONTINUOUS
10
0.386402
20
0.936772
11
0.561598
21
0.936772
0
LINE
8
BLACK
6
CONTINUOUS
10
0.561598
20
0.936772
11
0.561598
21
1.03323
0
LINE
8
BLACK
6
CONTINUOUS
10
0.561598
20
1.03323
11
0.386402
21
1.03323
0
LINE
8
BLACK
6
CONTINUOUS
10
2.69793
20
1.09557
11
2.69863
21
1.09528
0
LINE
8
BLACK
6
CONTINUOUS
10
2.69863
20
1.09528
11
2.69891
21
1.09458
0
LINE
8
BLACK
6
CONTINUOUS
10
2.69891
20
1.09458
11
2.69891
21
1.01742
0
LINE
8
BLACK
6
CONTINUOUS
10
2.69891
20
1.01742
11
2.69863
21
1.01672
0
LINE
8
BLACK
6
CONTINUOUS
10
2.69863
20
1.01672
11
2.69793
21
1.01643
0
LINE
8
BLACK
6
CONTINUOUS
10
2.69793
20
1.01643
11
2.56407
21
1.01643
0
LINE
8
BLACK
6
CONTINUOUS
10
2.56407
20
1.01643
11
2.56337
21
1.01672
0
LINE
8
BLACK
6
CONTINUOUS
10
2.56337
20
1.01672
11
2.56309
21
1.01742
0
LINE
8
BLACK
6
CONTINUOUS
10
2.56309
20
1.01742
11
2.56309
21
1.09458
0
LINE
8
BLACK
6
CONTINUOUS
10
2.56309
20
1.09458
11
2.56337
21
1.09528
0
LINE
8
BLACK
6
CONTINUOUS
10
2.56337
20
1.09528
11
2.56407
21
1.09557
0
LINE
8
BLACK
6
CONTINUOUS
10
2.56407
20
1.09557
11
2.69793
21
1.09557
0
LINE
8
BLACK
6
CONTINUOUS
10
2.56506
20
1.0936
11
2.56506
21
1.0184
0
LINE
8
BLACK
6
CONTINUOUS
10
2.56506
20
1.0184
11
2.69694
21
1.0184
0
LINE
8
BLACK
6
CONTINUOUS
10
2.69694
20
1.0184
11
2.69694
21
1.0936
0
LINE
8
BLACK
6
CONTINUOUS
10
2.69694
20
1.0936
11
2.56506
21
1.0936
0
LINE
8
BLACK
6
CONTINUOUS
10
0.667583
20
1.20291
11
0.668279
21
1.20263
0
LINE
8
BLACK
6
CONTINUOUS
10
0.668279
20
1.20263
11
0.668567
21
1.20193
0
LINE
8
BLACK
6
CONTINUOUS
10
0.668567
20
1.20193
11
0.668567
21
1.06807
0
LINE
8
BLACK
6
CONTINUOUS
10
0.668567
20
1.06807
11
0.668279
21
1.06737
0
LINE
8
BLACK
6
CONTINUOUS
10
0.668279
20
1.06737
11
0.667583
21
1.06709
0
LINE
8
BLACK
6
CONTINUOUS
10
0.667583
20
1.06709
11
0.590417
21
1.06709
0
LINE
8
BLACK
6
CONTINUOUS
10
0.590417
20
1.06709
11
0.589721
21
1.06737
0
LINE
8
BLACK
6
CONTINUOUS
10
0.589721
20
1.06737
11
0.589433
21
1.06807
0
LINE
8
BLACK
6
CONTINUOUS
10
0.589433
20
1.06807
11
0.589433
21
1.20193
0
LINE
8
BLACK
6
CONTINUOUS
10
0.589433
20
1.20193
11
0.589721
21
1.20263
0
LINE
8
BLACK
6
CONTINUOUS
10
0.589721
20
1.20263
11
0.590417
21
1.20291
0
LINE
8
BLACK
6
CONTINUOUS
10
0.590417
20
1.20291
11
0.667583
21
1.20291
0
LINE
8
BLACK
6
CONTINUOUS
10
0.591402
20
1.20094
11
0.591402
21
1.06906
0
LINE
8
BLACK
6
CONTINUOUS
10
0.591402
20
1.06906
11
0.666598
21
1.06906
0
LINE
8
BLACK
6
CONTINUOUS
10
0.666598
20
1.06906
11
0.666598
21
1.20094
0
LINE
8
BLACK
6
CONTINUOUS
10
0.666598
20
1.20094
11
0.591402
21
1.20094
0
LINE
8
BLACK
6
CONTINUOUS
10
0.536472
20
1.16143
11
0.537168
21
1.16114
0
LINE
8
BLACK
6
CONTINUOUS
10
0.537168
20
1.16114
11
0.537457
21
1.16044
0
LINE
8
BLACK
6
CONTINUOUS
10
0.537457
20
1.16044
11
0.537457
21
1.08328
0
LINE
8
BLACK
6
CONTINUOUS
10
0.537457
20
1.08328
11
0.537168
21
1.08258
0
LINE
8
BLACK
6
CONTINUOUS
10
0.537168
20
1.08258
11
0.536472
21
1.08229
0
LINE
8
BLACK
6
CONTINUOUS
10
0.536472
20
1.08229
11
0.402614
21
1.08229
0
LINE
8
BLACK
6
CONTINUOUS
10
0.402614
20
1.08229
11
0.401918
21
1.08258
0
LINE
8
BLACK
6
CONTINUOUS
10
0.401918
20
1.08258
11
0.40163
21
1.08328
0
LINE
8
BLACK
6
CONTINUOUS
10
0.40163
20
1.08328
11
0.40163
21
1.16044
0
LINE
8
BLACK
6
CONTINUOUS
10
0.40163
20
1.16044
11
0.401918
21
1.16114
0
LINE
8
BLACK
6
CONTINUOUS
10
0.401918
20
1.16114
11
0.402614
21
1.16143
0
LINE
8
BLACK
6
CONTINUOUS
10
0.402614
20
1.16143
11
0.536472
21
1.16143
0
LINE
8
BLACK
6
CONTINUOUS
10
0.403598
20
1.15946
11
0.403598
21
1.08426
0
LINE
8
BLACK
6
CONTINUOUS
10
0.403598
20
1.08426
11
0.535488
21
1.08426
0
LINE
8
BLACK
6
CONTINUOUS
10
0.535488
20
1.08426
11
0.535488
21
1.15946
0
LINE
8
BLACK
6
CONTINUOUS
10
0.535488
20
1.15946
11
0.403598
21
1.15946
0
LINE
8
BLACK
6
CONTINUOUS
10
2.7773
20
1.41021
11
2.778
21
1.40992
0
LINE
8
BLACK
6
CONTINUOUS
10
2.778
20
1.40992
11
2.77828
21
1.40923
0
LINE
8
BLACK
6
CONTINUOUS
10
2.77828
20
1.40923
11
2.77828
21
1.11789
0
LINE
8
BLACK
6
CONTINUOUS
10
2.77828
20
1.11789
11
2.778
21
1.11719
0
LINE
8
BLACK
6
CONTINUOUS
10
2.778
20
1.11719
11
2.7773
21
1.11691
0
LINE
8
BLACK
6
CONTINUOUS
10
2.7773
20
1.11691
11
2.5647
21
1.11691
0
LINE
8
BLACK
6
CONTINUOUS
10
2.5647
20
1.11691
11
2.564
21
1.11719
0
LINE
8
BLACK
6
CONTINUOUS
10
2.564
20
1.11719
11
2.56372
21
1.11789
0
LINE
8
BLACK
6
CONTINUOUS
10
2.56372
20
1.11789
11
2.56372
21
1.40923
0
LINE
8
BLACK
6
CONTINUOUS
10
2.56372
20
1.40923
11
2.564
21
1.40992
0
LINE
8
BLACK
6
CONTINUOUS
10
2.564
20
1.40992
11
2.5647
21
1.41021
0
LINE
8
BLACK
6
CONTINUOUS
10
2.5647
20
1.41021
11
2.7773
21
1.41021
0
LINE
8
BLACK
6
CONTINUOUS
10
2.56569
20
1.40824
11
2.56569
21
1.11887
0
LINE
8
BLACK
6
CONTINUOUS
10
2.56569
20
1.11887
11
2.77631
21
1.11887
0
LINE
8
BLACK
6
CONTINUOUS
10
2.77631
20
1.11887
11
2.77631
21
1.40824
0
LINE
8
BLACK
6
CONTINUOUS
10
2.77631
20
1.40824
11
2.56569
21
1.40824
0
LINE
8
BLACK
6
CONTINUOUS
10
0.582583
20
1.2692
11
0.583279
21
1.26891
0
LINE
8
BLACK
6
CONTINUOUS
10
0.583279
20
1.26891
11
0.583567
21
1.26821
0
LINE
8
BLACK
6
CONTINUOUS
10
0.583567
20
1.26821
11
0.583567
21
1.16979
0
LINE
8
BLACK
6
CONTINUOUS
10
0.583567
20
1.16979
11
0.583279
21
1.16909
0
LINE
8
BLACK
6
CONTINUOUS
10
0.583279
20
1.16909
11
0.582583
21
1.1688
0
LINE
8
BLACK
6
CONTINUOUS
10
0.582583
20
1.1688
11
0.405417
21
1.1688
0
LINE
8
BLACK
6
CONTINUOUS
10
0.405417
20
1.1688
11
0.404721
21
1.16909
0
LINE
8
BLACK
6
CONTINUOUS
10
0.404721
20
1.16909
11
0.404433
21
1.16979
0
LINE
8
BLACK
6
CONTINUOUS
10
0.404433
20
1.16979
11
0.404433
21
1.26821
0
LINE
8
BLACK
6
CONTINUOUS
10
0.404433
20
1.26821
11
0.404721
21
1.26891
0
LINE
8
BLACK
6
CONTINUOUS
10
0.404721
20
1.26891
11
0.405417
21
1.2692
0
LINE
8
BLACK
6
CONTINUOUS
10
0.405417
20
1.2692
11
0.582583
21
1.2692
0
LINE
8
BLACK
6
CONTINUOUS
10
0.406402
20
1.26723
11
0.406402
21
1.17077
0
LINE
8
BLACK
6
CONTINUOUS
10
0.406402
20
1.17077
11
0.581598
21
1.17077
0
LINE
8
BLACK
6
CONTINUOUS
10
0.581598
20
1.17077
11
0.581598
21
1.26723
0
LINE
8
BLACK
6
CONTINUOUS
10
0.581598
20
1.26723
11
0.406402
21
1.26723
0
LINE
8
BLACK
6
CONTINUOUS
10
0.532126
20
1.60577
11
0.532822
21
1.60548
0
LINE
8
BLACK
6
CONTINUOUS
10
0.532822
20
1.60548
11
0.53311
21
1.60479
0
LINE
8
BLACK
6
CONTINUOUS
10
0.53311
20
1.60479
11
0.53311
21
1.47093
0
LINE
8
BLACK
6
CONTINUOUS
10
0.53311
20
1.47093
11
0.532822
21
1.47023
0
LINE
8
BLACK
6
CONTINUOUS
10
0.532822
20
1.47023
11
0.532126
21
1.46994
0
LINE
8
BLACK
6
CONTINUOUS
10
0.532126
20
1.46994
11
0.454961
21
1.46994
0
LINE
8
BLACK
6
CONTINUOUS
10
0.454961
20
1.46994
11
0.454265
21
1.47023
0
LINE
8
BLACK
6
CONTINUOUS
10
0.454265
20
1.47023
11
0.453976
21
1.47093
0
LINE
8
BLACK
6
CONTINUOUS
10
0.453976
20
1.47093
11
0.453976
21
1.60479
0
LINE
8
BLACK
6
CONTINUOUS
10
0.453976
20
1.60479
11
0.454265
21
1.60548
0
LINE
8
BLACK
6
CONTINUOUS
10
0.454265
20
1.60548
11
0.454961
21
1.60577
0
LINE
8
BLACK
6
CONTINUOUS
10
0.454961
20
1.60577
11
0.532126
21
1.60577
0
LINE
8
BLACK
6
CONTINUOUS
10
0.455945
20
1.6038
11
0.455945
21
1.47191
0
LINE
8
BLACK
6
CONTINUOUS
10
0.455945
20
1.47191
11
0.531142
21
1.47191
0
LINE
8
BLACK
6
CONTINUOUS
10
0.531142
20
1.47191
11
0.531142
21
1.6038
0
LINE
8
BLACK
6
CONTINUOUS
10
0.531142
20
1.6038
11
0.455945
21
1.6038
0
LINE
8
BLACK
6
CONTINUOUS
10
2.69914
20
1.74739
11
2.69984
21
1.7471
0
LINE
8
BLACK
6
CONTINUOUS
10
2.69984
20
1.7471
11
2.70013
21
1.7464
0
LINE
8
BLACK
6
CONTINUOUS
10
2.70013
20
1.7464
11
2.70013
21
1.6716
0
LINE
8
BLACK
6
CONTINUOUS
10
2.70013
20
1.6716
11
2.69984
21
1.6709
0
LINE
8
BLACK
6
CONTINUOUS
10
2.69984
20
1.6709
11
2.69914
21
1.67061
0
LINE
8
BLACK
6
CONTINUOUS
10
2.69914
20
1.67061
11
2.56686
21
1.67061
0
LINE
8
BLACK
6
CONTINUOUS
10
2.56686
20
1.67061
11
2.56616
21
1.6709
0
LINE
8
BLACK
6
CONTINUOUS
10
2.56616
20
1.6709
11
2.56587
21
1.6716
0
LINE
8
BLACK
6
CONTINUOUS
10
2.56587
20
1.6716
11
2.56587
21
1.7464
0
LINE
8
BLACK
6
CONTINUOUS
10
2.56587
20
1.7464
11
2.56616
21
1.7471
0
LINE
8
BLACK
6
CONTINUOUS
10
2.56616
20
1.7471
11
2.56686
21
1.74739
0
LINE
8
BLACK
6
CONTINUOUS
10
2.56686
20
1.74739
11
2.69914
21
1.74739
0
LINE
8
BLACK
6
CONTINUOUS
10
2.56784
20
1.74542
11
2.56784
21
1.67258
0
LINE
8
BLACK
6
CONTINUOUS
10
2.56784
20
1.67258
11
2.69816
21
1.67258
0
LINE
8
BLACK
6
CONTINUOUS
10
2.69816
20
1.67258
11
2.69816
21
1.74542
0
LINE
8
BLACK
6
CONTINUOUS
10
2.69816
20
1.74542
11
2.56784
21
1.74542
0
LINE
8
BLACK
6
CONTINUOUS
10
2.88672
20
1.80743
11
2.89517
21
1.80517
0
LINE
8
BLACK
6
CONTINUOUS
10
2.89517
20
1.80517
11
2.9031
21
1.80147
0
LINE
8
BLACK
6
CONTINUOUS
10
2.9031
20
1.80147
11
2.91027
21
1.79645
0
LINE
8
BLACK
6
CONTINUOUS
10
2.91027
20
1.79645
11
2.91645
21
1.79027
0
LINE
8
BLACK
6
CONTINUOUS
10
2.91645
20
1.79027
11
2.92147
21
1.7831
0
LINE
8
BLACK
6
CONTINUOUS
10
2.92147
20
1.7831
11
2.92517
21
1.77517
0
LINE
8
BLACK
6
CONTINUOUS
10
2.92517
20
1.77517
11
2.92743
21
1.76672
0
LINE
8
BLACK
6
CONTINUOUS
10
2.92743
20
1.76672
11
2.9282
21
1.758
0
LINE
8
BLACK
6
CONTINUOUS
10
2.9282
20
1.758
11
2.92743
21
1.74928
0
LINE
8
BLACK
6
CONTINUOUS
10
2.92743
20
1.74928
11
2.92517
21
1.74083
0
LINE
8
BLACK
6
CONTINUOUS
10
2.92517
20
1.74083
11
2.92147
21
1.7329
0
LINE
8
BLACK
6
CONTINUOUS
10
2.92147
20
1.7329
11
2.91645
21
1.72573
0
LINE
8
BLACK
6
CONTINUOUS
10
2.91645
20
1.72573
11
2.91027
21
1.71955
0
LINE
8
BLACK
6
CONTINUOUS
10
2.91027
20
1.71955
11
2.9031
21
1.71453
0
LINE
8
BLACK
6
CONTINUOUS
10
2.9031
20
1.71453
11
2.89517
21
1.71083
0
LINE
8
BLACK
6
CONTINUOUS
10
2.89517
20
1.71083
11
2.88672
21
1.70857
0
LINE
8
BLACK
6
CONTINUOUS
10
2.88672
20
1.70857
11
2.878
21
1.7078
0
LINE
8
BLACK
6
CONTINUOUS
10
2.878
20
1.7078
11
2.86928
21
1.70857
0
LINE
8
BLACK
6
CONTINUOUS
10
2.86928
20
1.70857
11
2.86083
21
1.71083
0
LINE
8
BLACK
6
CONTINUOUS
10
2.86083
20
1.71083
11
2.8529
21
1.71453
0
LINE
8
BLACK
6
CONTINUOUS
10
2.8529
20
1.71453
11
2.84573
21
1.71955
0
LINE
8
BLACK
6
CONTINUOUS
10
2.84573
20
1.71955
11
2.83955
21
1.72573
0
LINE
8
BLACK
6
CONTINUOUS
10
2.83955
20
1.72573
11
2.83453
21
1.7329
0
LINE
8
BLACK
6
CONTINUOUS
10
2.83453
20
1.7329
11
2.83083
21
1.74083
0
LINE
8
BLACK
6
CONTINUOUS
10
2.83083
20
1.74083
11
2.82857
21
1.74928
0
LINE
8
BLACK
6
CONTINUOUS
10
2.82857
20
1.74928
11
2.8278
21
1.758
0
LINE
8
BLACK
6
CONTINUOUS
10
2.8278
20
1.758
11
2.82857
21
1.76672
0
LINE
8
BLACK
6
CONTINUOUS
10
2.82857
20
1.76672
11
2.83083
21
1.77517
0
LINE
8
BLACK
6
CONTINUOUS
10
2.83083
20
1.77517
11
2.83453
21
1.7831
0
LINE
8
BLACK
6
CONTINUOUS
10
2.83453
20
1.7831
11
2.83955
21
1.79027
0
LINE
8
BLACK
6
CONTINUOUS
10
2.83955
20
1.79027
11
2.84573
21
1.79645
0
LINE
8
BLACK
6
CONTINUOUS
10
2.84573
20
1.79645
11
2.8529
21
1.80147
0
LINE
8
BLACK
6
CONTINUOUS
10
2.8529
20
1.80147
11
2.86083
21
1.80517
0
LINE
8
BLACK
6
CONTINUOUS
10
2.86083
20
1.80517
11
2.86928
21
1.80743
0
LINE
8
BLACK
6
CONTINUOUS
10
2.86928
20
1.80743
11
2.878
21
1.8082
0
LINE
8
BLACK
6
CONTINUOUS
10
2.878
20
1.8082
11
2.88672
21
1.80743
0
LINE
8
BLACK
6
CONTINUOUS
10
2.83032
20
1.74959
11
2.83251
21
1.74144
0
LINE
8
BLACK
6
CONTINUOUS
10
2.83251
20
1.74144
11
2.83607
21
1.73379
0
LINE
8
BLACK
6
CONTINUOUS
10
2.83607
20
1.73379
11
2.84091
21
1.72688
0
LINE
8
BLACK
6
CONTINUOUS
10
2.84091
20
1.72688
11
2.84688
21
1.72091
0
LINE
8
BLACK
6
CONTINUOUS
10
2.84688
20
1.72091
11
2.85379
21
1.71607
0
LINE
8
BLACK
6
CONTINUOUS
10
2.85379
20
1.71607
11
2.86144
21
1.71251
0
LINE
8
BLACK
6
CONTINUOUS
10
2.86144
20
1.71251
11
2.86959
21
1.71032
0
LINE
8
BLACK
6
CONTINUOUS
10
2.86959
20
1.71032
11
2.878
21
1.70959
0
LINE
8
BLACK
6
CONTINUOUS
10
2.878
20
1.70959
11
2.88641
21
1.71032
0
LINE
8
BLACK
6
CONTINUOUS
10
2.88641
20
1.71032
11
2.89456
21
1.71251
0
LINE
8
BLACK
6
CONTINUOUS
10
2.89456
20
1.71251
11
2.90221
21
1.71607
0
LINE
8
BLACK
6
CONTINUOUS
10
2.90221
20
1.71607
11
2.90912
21
1.72091
0
LINE
8
BLACK
6
CONTINUOUS
10
2.90912
20
1.72091
11
2.91509
21
1.72688
0
LINE
8
BLACK
6
CONTINUOUS
10
2.91509
20
1.72688
11
2.91993
21
1.73379
0
LINE
8
BLACK
6
CONTINUOUS
10
2.91993
20
1.73379
11
2.92349
21
1.74144
0
LINE
8
BLACK
6
CONTINUOUS
10
2.92349
20
1.74144
11
2.92568
21
1.74959
0
LINE
8
BLACK
6
CONTINUOUS
10
2.92568
20
1.74959
11
2.92641
21
1.758
0
LINE
8
BLACK
6
CONTINUOUS
10
2.92641
20
1.758
11
2.92568
21
1.76641
0
LINE
8
BLACK
6
CONTINUOUS
10
2.92568
20
1.76641
11
2.92349
21
1.77456
0
LINE
8
BLACK
6
CONTINUOUS
10
2.92349
20
1.77456
11
2.91993
21
1.78221
0
LINE
8
BLACK
6
CONTINUOUS
10
2.91993
20
1.78221
11
2.91509
21
1.78912
0
LINE
8
BLACK
6
CONTINUOUS
10
2.91509
20
1.78912
11
2.90912
21
1.79509
0
LINE
8
BLACK
6
CONTINUOUS
10
2.90912
20
1.79509
11
2.90221
21
1.79993
0
LINE
8
BLACK
6
CONTINUOUS
10
2.90221
20
1.79993
11
2.89456
21
1.80349
0
LINE
8
BLACK
6
CONTINUOUS
10
2.89456
20
1.80349
11
2.88641
21
1.80568
0
LINE
8
BLACK
6
CONTINUOUS
10
2.88641
20
1.80568
11
2.878
21
1.80641
0
LINE
8
BLACK
6
CONTINUOUS
10
2.878
20
1.80641
11
2.86959
21
1.80568
0
LINE
8
BLACK
6
CONTINUOUS
10
2.86959
20
1.80568
11
2.86144
21
1.80349
0
LINE
8
BLACK
6
CONTINUOUS
10
2.86144
20
1.80349
11
2.85379
21
1.79993
0
LINE
8
BLACK
6
CONTINUOUS
10
2.85379
20
1.79993
11
2.84688
21
1.79509
0
LINE
8
BLACK
6
CONTINUOUS
10
2.84688
20
1.79509
11
2.84091
21
1.78912
0
LINE
8
BLACK
6
CONTINUOUS
10
2.84091
20
1.78912
11
2.83607
21
1.78221
0
LINE
8
BLACK
6
CONTINUOUS
10
2.83607
20
1.78221
11
2.83251
21
1.77456
0
LINE
8
BLACK
6
CONTINUOUS
10
2.83251
20
1.77456
11
2.83032
21
1.76641
0
LINE
8
BLACK
6
CONTINUOUS
10
2.83032
20
1.76641
11
2.82959
21
1.758
0
LINE
8
BLACK
6
CONTINUOUS
10
2.82959
20
1.758
11
2.83032
21
1.74959
0
LINE
8
BLACK
6
CONTINUOUS
10
1.55258
20
1.8662
11
1.55328
21
1.86591
0
LINE
8
BLACK
6
CONTINUOUS
10
1.55328
20
1.86591
11
1.55357
21
1.86521
0
LINE
8
BLACK
6
CONTINUOUS
10
1.55357
20
1.86521
11
1.55357
21
1.76679
0
LINE
8
BLACK
6
CONTINUOUS
10
1.55357
20
1.76679
11
1.55328
21
1.76609
0
LINE
8
BLACK
6
CONTINUOUS
10
1.55328
20
1.76609
11
1.55258
21
1.7658
0
LINE
8
BLACK
6
CONTINUOUS
10
1.55258
20
1.7658
11
1.37542
21
1.7658
0
LINE
8
BLACK
6
CONTINUOUS
10
1.37542
20
1.7658
11
1.37472
21
1.76609
0
LINE
8
BLACK
6
CONTINUOUS
10
1.37472
20
1.76609
11
1.37443
21
1.76679
0
LINE
8
BLACK
6
CONTINUOUS
10
1.37443
20
1.76679
11
1.37443
21
1.86521
0
LINE
8
BLACK
6
CONTINUOUS
10
1.37443
20
1.86521
11
1.37472
21
1.86591
0
LINE
8
BLACK
6
CONTINUOUS
10
1.37472
20
1.86591
11
1.37542
21
1.8662
0
LINE
8
BLACK
6
CONTINUOUS
10
1.37542
20
1.8662
11
1.55258
21
1.8662
0
LINE
8
BLACK
6
CONTINUOUS
10
1.3764
20
1.86423
11
1.3764
21
1.76777
0
LINE
8
BLACK
6
CONTINUOUS
10
1.3764
20
1.76777
11
1.5516
21
1.76777
0
LINE
8
BLACK
6
CONTINUOUS
10
1.5516
20
1.76777
11
1.5516
21
1.86423
0
LINE
8
BLACK
6
CONTINUOUS
10
1.5516
20
1.86423
11
1.3764
21
1.86423
0
LINE
8
BLACK
6
CONTINUOUS
10
2.3454
20
1.92213
11
2.3461
21
1.92184
0
LINE
8
BLACK
6
CONTINUOUS
10
2.3461
20
1.92184
11
2.34639
21
1.92114
0
LINE
8
BLACK
6
CONTINUOUS
10
2.34639
20
1.92114
11
2.34639
21
1.78886
0
LINE
8
BLACK
6
CONTINUOUS
10
2.34639
20
1.78886
11
2.3461
21
1.78816
0
LINE
8
BLACK
6
CONTINUOUS
10
2.3461
20
1.78816
11
2.3454
21
1.78787
0
LINE
8
BLACK
6
CONTINUOUS
10
2.3454
20
1.78787
11
2.2706
21
1.78787
0
LINE
8
BLACK
6
CONTINUOUS
10
2.2706
20
1.78787
11
2.2699
21
1.78816
0
LINE
8
BLACK
6
CONTINUOUS
10
2.2699
20
1.78816
11
2.26961
21
1.78886
0
LINE
8
BLACK
6
CONTINUOUS
10
2.26961
20
1.78886
11
2.26961
21
1.92114
0
LINE
8
BLACK
6
CONTINUOUS
10
2.26961
20
1.92114
11
2.2699
21
1.92184
0
LINE
8
BLACK
6
CONTINUOUS
10
2.2699
20
1.92184
11
2.2706
21
1.92213
0
LINE
8
BLACK
6
CONTINUOUS
10
2.2706
20
1.92213
11
2.3454
21
1.92213
0
LINE
8
BLACK
6
CONTINUOUS
10
2.27158
20
1.92016
11
2.27158
21
1.78984
0
LINE
8
BLACK
6
CONTINUOUS
10
2.27158
20
1.78984
11
2.34442
21
1.78984
0
LINE
8
BLACK
6
CONTINUOUS
10
2.34442
20
1.78984
11
2.34442
21
1.92016
0
LINE
8
BLACK
6
CONTINUOUS
10
2.34442
20
1.92016
11
2.27158
21
1.92016
0
LINE
8
BLACK
6
CONTINUOUS
10
1.70747
20
1.89143
11
1.70817
21
1.89114
0
LINE
8
BLACK
6
CONTINUOUS
10
1.70817
20
1.89114
11
1.70846
21
1.89044
0
LINE
8
BLACK
6
CONTINUOUS
10
1.70846
20
1.89044
11
1.70846
21
1.81328
0
LINE
8
BLACK
6
CONTINUOUS
10
1.70846
20
1.81328
11
1.70817
21
1.81258
0
LINE
8
BLACK
6
CONTINUOUS
10
1.70817
20
1.81258
11
1.70747
21
1.81229
0
LINE
8
BLACK
6
CONTINUOUS
10
1.70747
20
1.81229
11
1.57361
21
1.81229
0
LINE
8
BLACK
6
CONTINUOUS
10
1.57361
20
1.81229
11
1.57292
21
1.81258
0
LINE
8
BLACK
6
CONTINUOUS
10
1.57292
20
1.81258
11
1.57263
21
1.81328
0
LINE
8
BLACK
6
CONTINUOUS
10
1.57263
20
1.81328
11
1.57263
21
1.89044
0
LINE
8
BLACK
6
CONTINUOUS
10
1.57263
20
1.89044
11
1.57292
21
1.89114
0
LINE
8
BLACK
6
CONTINUOUS
10
1.57292
20
1.89114
11
1.57361
21
1.89143
0
LINE
8
BLACK
6
CONTINUOUS
10
1.57361
20
1.89143
11
1.70747
21
1.89143
0
LINE
8
BLACK
6
CONTINUOUS
10
1.5746
20
1.88946
11
1.5746
21
1.81426
0
LINE
8
BLACK
6
CONTINUOUS
10
1.5746
20
1.81426
11
1.70649
21
1.81426
0
LINE
8
BLACK
6
CONTINUOUS
10
1.70649
20
1.81426
11
1.70649
21
1.88946
0
LINE
8
BLACK
6
CONTINUOUS
10
1.70649
20
1.88946
11
1.5746
21
1.88946
0
LINE
8
BLACK
6
CONTINUOUS
10
1.35358
20
1.94991
11
1.35428
21
1.94963
0
LINE
8
BLACK
6
CONTINUOUS
10
1.35428
20
1.94963
11
1.35457
21
1.94893
0
LINE
8
BLACK
6
CONTINUOUS
10
1.35457
20
1.94893
11
1.35457
21
1.81507
0
LINE
8
BLACK
6
CONTINUOUS
10
1.35457
20
1.81507
11
1.35428
21
1.81437
0
LINE
8
BLACK
6
CONTINUOUS
10
1.35428
20
1.81437
11
1.35358
21
1.81409
0
LINE
8
BLACK
6
CONTINUOUS
10
1.35358
20
1.81409
11
1.27642
21
1.81409
0
LINE
8
BLACK
6
CONTINUOUS
10
1.27642
20
1.81409
11
1.27572
21
1.81437
0
LINE
8
BLACK
6
CONTINUOUS
10
1.27572
20
1.81437
11
1.27543
21
1.81507
0
LINE
8
BLACK
6
CONTINUOUS
10
1.27543
20
1.81507
11
1.27543
21
1.94893
0
LINE
8
BLACK
6
CONTINUOUS
10
1.27543
20
1.94893
11
1.27572
21
1.94963
0
LINE
8
BLACK
6
CONTINUOUS
10
1.27572
20
1.94963
11
1.27642
21
1.94991
0
LINE
8
BLACK
6
CONTINUOUS
10
1.27642
20
1.94991
11
1.35358
21
1.94991
0
LINE
8
BLACK
6
CONTINUOUS
10
1.2774
20
1.94794
11
1.2774
21
1.81606
0
LINE
8
BLACK
6
CONTINUOUS
10
1.2774
20
1.81606
11
1.3526
21
1.81606
0
LINE
8
BLACK
6
CONTINUOUS
10
1.3526
20
1.81606
11
1.3526
21
1.94794
0
LINE
8
BLACK
6
CONTINUOUS
10
1.3526
20
1.94794
11
1.2774
21
1.94794
0
LINE
8
BLACK
6
CONTINUOUS
10
1.02693
20
1.93757
11
1.02763
21
1.93728
0
LINE
8
BLACK
6
CONTINUOUS
10
1.02763
20
1.93728
11
1.02791
21
1.93658
0
LINE
8
BLACK
6
CONTINUOUS
10
1.02791
20
1.93658
11
1.02791
21
1.85942
0
LINE
8
BLACK
6
CONTINUOUS
10
1.02791
20
1.85942
11
1.02763
21
1.85872
0
LINE
8
BLACK
6
CONTINUOUS
10
1.02763
20
1.85872
11
1.02693
21
1.85843
0
LINE
8
BLACK
6
CONTINUOUS
10
1.02693
20
1.85843
11
0.893071
21
1.85843
0
LINE
8
BLACK
6
CONTINUOUS
10
0.893071
20
1.85843
11
0.892375
21
1.85872
0
LINE
8
BLACK
6
CONTINUOUS
10
0.892375
20
1.85872
11
0.892087
21
1.85942
0
LINE
8
BLACK
6
CONTINUOUS
10
0.892087
20
1.85942
11
0.892087
21
1.93658
0
LINE
8
BLACK
6
CONTINUOUS
10
0.892087
20
1.93658
11
0.892375
21
1.93728
0
LINE
8
BLACK
6
CONTINUOUS
10
0.892375
20
1.93728
11
0.893071
21
1.93757
0
LINE
8
BLACK
6
CONTINUOUS
10
0.893071
20
1.93757
11
1.02693
21
1.93757
0
LINE
8
BLACK
6
CONTINUOUS
10
0.894055
20
1.9356
11
0.894055
21
1.8604
0
LINE
8
BLACK
6
CONTINUOUS
10
0.894055
20
1.8604
11
1.02594
21
1.8604
0
LINE
8
BLACK
6
CONTINUOUS
10
1.02594
20
1.8604
11
1.02594
21
1.9356
0
LINE
8
BLACK
6
CONTINUOUS
10
1.02594
20
1.9356
11
0.894055
21
1.9356
0
LINE
8
BLACK
6
CONTINUOUS
10
0.663717
20
2.11443
11
0.672168
21
2.11217
0
LINE
8
BLACK
6
CONTINUOUS
10
0.672168
20
2.11217
11
0.680098
21
2.10847
0
LINE
8
BLACK
6
CONTINUOUS
10
0.680098
20
2.10847
11
0.687266
21
2.10345
0
LINE
8
BLACK
6
CONTINUOUS
10
0.687266
20
2.10345
11
0.693453
21
2.09727
0
LINE
8
BLACK
6
CONTINUOUS
10
0.693453
20
2.09727
11
0.698472
21
2.0901
0
LINE
8
BLACK
6
CONTINUOUS
10
0.698472
20
2.0901
11
0.70217
21
2.08217
0
LINE
8
BLACK
6
CONTINUOUS
10
0.70217
20
2.08217
11
0.704434
21
2.07372
0
LINE
8
BLACK
6
CONTINUOUS
10
0.704434
20
2.07372
11
0.705197
21
2.065
0
LINE
8
BLACK
6
CONTINUOUS
10
0.705197
20
2.065
11
0.704434
21
2.05628
0
LINE
8
BLACK
6
CONTINUOUS
10
0.704434
20
2.05628
11
0.70217
21
2.04783
0
LINE
8
BLACK
6
CONTINUOUS
10
0.70217
20
2.04783
11
0.698472
21
2.0399
0
LINE
8
BLACK
6
CONTINUOUS
10
0.698472
20
2.0399
11
0.693453
21
2.03273
0
LINE
8
BLACK
6
CONTINUOUS
10
0.693453
20
2.03273
11
0.687266
21
2.02655
0
LINE
8
BLACK
6
CONTINUOUS
10
0.687266
20
2.02655
11
0.680098
21
2.02153
0
LINE
8
BLACK
6
CONTINUOUS
10
0.680098
20
2.02153
11
0.672168
21
2.01783
0
LINE
8
BLACK
6
CONTINUOUS
10
0.672168
20
2.01783
11
0.663717
21
2.01557
0
LINE
8
BLACK
6
CONTINUOUS
10
0.663717
20
2.01557
11
0.655
21
2.0148
0
LINE
8
BLACK
6
CONTINUOUS
10
0.655
20
2.0148
11
0.646283
21
2.01557
0
LINE
8
BLACK
6
CONTINUOUS
10
0.646283
20
2.01557
11
0.637832
21
2.01783
0
LINE
8
BLACK
6
CONTINUOUS
10
0.637832
20
2.01783
11
0.629902
21
2.02153
0
LINE
8
BLACK
6
CONTINUOUS
10
0.629902
20
2.02153
11
0.622734
21
2.02655
0
LINE
8
BLACK
6
CONTINUOUS
10
0.622734
20
2.02655
11
0.616547
21
2.03273
0
LINE
8
BLACK
6
CONTINUOUS
10
0.616547
20
2.03273
11
0.611528
21
2.0399
0
LINE
8
BLACK
6
CONTINUOUS
10
0.611528
20
2.0399
11
0.60783
21
2.04783
0
LINE
8
BLACK
6
CONTINUOUS
10
0.60783
20
2.04783
11
0.605566
21
2.05628
0
LINE
8
BLACK
6
CONTINUOUS
10
0.605566
20
2.05628
11
0.604803
21
2.065
0
LINE
8
BLACK
6
CONTINUOUS
10
0.604803
20
2.065
11
0.605566
21
2.07372
0
LINE
8
BLACK
6
CONTINUOUS
10
0.605566
20
2.07372
11
0.60783
21
2.08217
0
LINE
8
BLACK
6
CONTINUOUS
10
0.60783
20
2.08217
11
0.611528
21
2.0901
0
LINE
8
BLACK
6
CONTINUOUS
10
0.611528
20
2.0901
11
0.616547
21
2.09727
0
LINE
8
BLACK
6
CONTINUOUS
10
0.616547
20
2.09727
11
0.622734
21
2.10345
0
LINE
8
BLACK
6
CONTINUOUS
10
0.622734
20
2.10345
11
0.629902
21
2.10847
0
LINE
8
BLACK
6
CONTINUOUS
10
0.629902
20
2.10847
11
0.637832
21
2.11217
0
LINE
8
BLACK
6
CONTINUOUS
10
0.637832
20
2.11217
11
0.646283
21
2.11443
0
LINE
8
BLACK
6
CONTINUOUS
10
0.646283
20
2.11443
11
0.655
21
2.1152
0
LINE
8
BLACK
6
CONTINUOUS
10
0.655
20
2.1152
11
0.663717
21
2.11443
0
LINE
8
BLACK
6
CONTINUOUS
10
0.607323
20
2.05659
11
0.609507
21
2.04844
0
LINE
8
BLACK
6
CONTINUOUS
10
0.609507
20
2.04844
11
0.613074
21
2.04079
0
LINE
8
BLACK
6
CONTINUOUS
10
0.613074
20
2.04079
11
0.617914
21
2.03388
0
LINE
8
BLACK
6
CONTINUOUS
10
0.617914
20
2.03388
11
0.623881
21
2.02791
0
LINE
8
BLACK
6
CONTINUOUS
10
0.623881
20
2.02791
11
0.630794
21
2.02307
0
LINE
8
BLACK
6
CONTINUOUS
10
0.630794
20
2.02307
11
0.638442
21
2.01951
0
LINE
8
BLACK
6
CONTINUOUS
10
0.638442
20
2.01951
11
0.646593
21
2.01732
0
LINE
8
BLACK
6
CONTINUOUS
10
0.646593
20
2.01732
11
0.655
21
2.01659
0
LINE
8
BLACK
6
CONTINUOUS
10
0.655
20
2.01659
11
0.663407
21
2.01732
0
LINE
8
BLACK
6
CONTINUOUS
10
0.663407
20
2.01732
11
0.671558
21
2.01951
0
LINE
8
BLACK
6
CONTINUOUS
10
0.671558
20
2.01951
11
0.679206
21
2.02307
0
LINE
8
BLACK
6
CONTINUOUS
10
0.679206
20
2.02307
11
0.686119
21
2.02791
0
LINE
8
BLACK
6
CONTINUOUS
10
0.686119
20
2.02791
11
0.692086
21
2.03388
0
LINE
8
BLACK
6
CONTINUOUS
10
0.692086
20
2.03388
11
0.696926
21
2.04079
0
LINE
8
BLACK
6
CONTINUOUS
10
0.696926
20
2.04079
11
0.700493
21
2.04844
0
LINE
8
BLACK
6
CONTINUOUS
10
0.700493
20
2.04844
11
0.702677
21
2.05659
0
LINE
8
BLACK
6
CONTINUOUS
10
0.702677
20
2.05659
11
0.703413
21
2.065
0
LINE
8
BLACK
6
CONTINUOUS
10
0.703413
20
2.065
11
0.702677
21
2.07341
0
LINE
8
BLACK
6
CONTINUOUS
10
0.702677
20
2.07341
11
0.700493
21
2.08156
0
LINE
8
BLACK
6
CONTINUOUS
10
0.700493
20
2.08156
11
0.696926
21
2.08921
0
LINE
8
BLACK
6
CONTINUOUS
10
0.696926
20
2.08921
11
0.692086
21
2.09612
0
LINE
8
BLACK
6
CONTINUOUS
10
0.692086
20
2.09612
11
0.686119
21
2.10209
0
LINE
8
BLACK
6
CONTINUOUS
10
0.686119
20
2.10209
11
0.679206
21
2.10693
0
LINE
8
BLACK
6
CONTINUOUS
10
0.679206
20
2.10693
11
0.671558
21
2.11049
0
LINE
8
BLACK
6
CONTINUOUS
10
0.671558
20
2.11049
11
0.663407
21
2.11268
0
LINE
8
BLACK
6
CONTINUOUS
10
0.663407
20
2.11268
11
0.655
21
2.11341
0
LINE
8
BLACK
6
CONTINUOUS
10
0.655
20
2.11341
11
0.646593
21
2.11268
0
LINE
8
BLACK
6
CONTINUOUS
10
0.646593
20
2.11268
11
0.638442
21
2.11049
0
LINE
8
BLACK
6
CONTINUOUS
10
0.638442
20
2.11049
11
0.630794
21
2.10693
0
LINE
8
BLACK
6
CONTINUOUS
10
0.630794
20
2.10693
11
0.623881
21
2.10209
0
LINE
8
BLACK
6
CONTINUOUS
10
0.623881
20
2.10209
11
0.617914
21
2.09612
0
LINE
8
BLACK
6
CONTINUOUS
10
0.617914
20
2.09612
11
0.613074
21
2.08921
0
LINE
8
BLACK
6
CONTINUOUS
10
0.613074
20
2.08921
11
0.609507
21
2.08156
0
LINE
8
BLACK
6
CONTINUOUS
10
0.609507
20
2.08156
11
0.607323
21
2.07341
0
LINE
8
BLACK
6
CONTINUOUS
10
0.607323
20
2.07341
11
0.606587
21
2.065
0
LINE
8
BLACK
6
CONTINUOUS
10
0.606587
20
2.065
11
0.607323
21
2.05659
  0
ENDSEC
  0
EOF
