  0
SECTION
  2
HEADER
  9
$ANGBASE
  50
0.0
  9
$ANGDIR
  70
1
  9
$MEASUREMENT
  70
0
  0
ENDSEC
  0
SECTION
  2
TABLES
  0
TABLE
  2
LTYPE
  70
4
  0
LTYPE
  5
40F
  2
CONTINUOUS
  70
0
  3
Solid line
  72
65
  73
0
  40
0.0
  0
LTYPE
  5
410
  2
DASHDOT
 70
0
  3
Dash Dot ____ _ ____ _
 72
65
 73
4
 40
2.0
 49
1.25
 49
-0.25
 49
0.25
 49
-0.25
  0
LTYPE
  5
411
  2
DASHED
 70
0
  3
Dashed __ __ __ __ __
 72
65
 73
2
 40
0.75
 49
0.5
 49
-0.25
  0
LTYPE
  5
43B
  2
DOTTED
 70
0
  3
Dotted .  .  .  .
 72
65
 73
2
 40
0.2
 49
0.0
 49
-0.2
  0
ENDTAB
  0
TABLE
  2
STYLE
  70
4
  0
STYLE
  2
KICAD
  70
0
  40
0
  41
1
  42
1
  50
0
  71
0
  3
isocp.shx
  0
STYLE
  2
KICADB
  70
0
  40
0
  41
1
  42
1
  50
0
  71
0
  3
isocp.shx
  0
STYLE
  2
KICADI
  70
0
  40
0
  41
1
  42
1
  50
15
  71
0
  3
isocp.shx
  0
STYLE
  2
KICADBI
  70
0
  40
0
  41
1
  42
1
  50
15
  71
0
  3
isocp.shx
  0
ENDTAB
  0
TABLE
  2
LAYER
  70
1
  0
LAYER
  2
BLACK
  70
0
  62
7
  6
CONTINUOUS
  0
ENDTAB
  0
ENDSEC
  0
SECTION
  2
ENTITIES
0
LINE
8
BLACK
6
CONTINUOUS
10
0.414063
20
0.52481
11
0.427949
21
0.522451
0
LINE
8
BLACK
6
CONTINUOUS
10
0.427949
20
0.522451
11
0.441483
21
0.518552
0
LINE
8
BLACK
6
CONTINUOUS
10
0.441483
20
0.518552
11
0.454496
21
0.513162
0
LINE
8
BLACK
6
CONTINUOUS
10
0.454496
20
0.513162
11
0.466823
21
0.506349
0
LINE
8
BLACK
6
CONTINUOUS
10
0.466823
20
0.506349
11
0.47831
21
0.498198
0
LINE
8
BLACK
6
CONTINUOUS
10
0.47831
20
0.498198
11
0.488813
21
0.488813
0
LINE
8
BLACK
6
CONTINUOUS
10
0.488813
20
0.488813
11
0.498198
21
0.47831
0
LINE
8
BLACK
6
CONTINUOUS
10
0.498198
20
0.47831
11
0.506349
21
0.466823
0
LINE
8
BLACK
6
CONTINUOUS
10
0.506349
20
0.466823
11
0.513162
21
0.454496
0
LINE
8
BLACK
6
CONTINUOUS
10
0.513162
20
0.454496
11
0.518552
21
0.441483
0
LINE
8
BLACK
6
CONTINUOUS
10
0.518552
20
0.441483
11
0.522451
21
0.427949
0
LINE
8
BLACK
6
CONTINUOUS
10
0.522451
20
0.427949
11
0.52481
21
0.414063
0
LINE
8
BLACK
6
CONTINUOUS
10
0.52481
20
0.414063
11
0.5256
21
0.4
0
LINE
8
BLACK
6
CONTINUOUS
10
0.5256
20
0.4
11
0.52481
21
0.385937
0
LINE
8
BLACK
6
CONTINUOUS
10
0.52481
20
0.385937
11
0.522451
21
0.372051
0
LINE
8
BLACK
6
CONTINUOUS
10
0.522451
20
0.372051
11
0.518552
21
0.358517
0
LINE
8
BLACK
6
CONTINUOUS
10
0.518552
20
0.358517
11
0.513162
21
0.345504
0
LINE
8
BLACK
6
CONTINUOUS
10
0.513162
20
0.345504
11
0.506349
21
0.333177
0
LINE
8
BLACK
6
CONTINUOUS
10
0.506349
20
0.333177
11
0.498198
21
0.32169
0
LINE
8
BLACK
6
CONTINUOUS
10
0.498198
20
0.32169
11
0.488813
21
0.311187
0
LINE
8
BLACK
6
CONTINUOUS
10
0.488813
20
0.311187
11
0.47831
21
0.301802
0
LINE
8
BLACK
6
CONTINUOUS
10
0.47831
20
0.301802
11
0.466823
21
0.293651
0
LINE
8
BLACK
6
CONTINUOUS
10
0.466823
20
0.293651
11
0.454496
21
0.286838
0
LINE
8
BLACK
6
CONTINUOUS
10
0.454496
20
0.286838
11
0.441483
21
0.281448
0
LINE
8
BLACK
6
CONTINUOUS
10
0.441483
20
0.281448
11
0.427949
21
0.277549
0
LINE
8
BLACK
6
CONTINUOUS
10
0.427949
20
0.277549
11
0.414063
21
0.27519
0
LINE
8
BLACK
6
CONTINUOUS
10
0.414063
20
0.27519
11
0.4
21
0.2744
0
LINE
8
BLACK
6
CONTINUOUS
10
0.4
20
0.2744
11
0.385937
21
0.27519
0
LINE
8
BLACK
6
CONTINUOUS
10
0.385937
20
0.27519
11
0.372051
21
0.277549
0
LINE
8
BLACK
6
CONTINUOUS
10
0.372051
20
0.277549
11
0.358517
21
0.281448
0
LINE
8
BLACK
6
CONTINUOUS
10
0.358517
20
0.281448
11
0.345504
21
0.286838
0
LINE
8
BLACK
6
CONTINUOUS
10
0.345504
20
0.286838
11
0.333177
21
0.293651
0
LINE
8
BLACK
6
CONTINUOUS
10
0.333177
20
0.293651
11
0.32169
21
0.301802
0
LINE
8
BLACK
6
CONTINUOUS
10
0.32169
20
0.301802
11
0.311187
21
0.311187
0
LINE
8
BLACK
6
CONTINUOUS
10
0.311187
20
0.311187
11
0.301802
21
0.32169
0
LINE
8
BLACK
6
CONTINUOUS
10
0.301802
20
0.32169
11
0.293651
21
0.333177
0
LINE
8
BLACK
6
CONTINUOUS
10
0.293651
20
0.333177
11
0.286838
21
0.345504
0
LINE
8
BLACK
6
CONTINUOUS
10
0.286838
20
0.345504
11
0.281448
21
0.358517
0
LINE
8
BLACK
6
CONTINUOUS
10
0.281448
20
0.358517
11
0.277549
21
0.372051
0
LINE
8
BLACK
6
CONTINUOUS
10
0.277549
20
0.372051
11
0.27519
21
0.385937
0
LINE
8
BLACK
6
CONTINUOUS
10
0.27519
20
0.385937
11
0.2744
21
0.4
0
LINE
8
BLACK
6
CONTINUOUS
10
0.2744
20
0.4
11
0.27519
21
0.414063
0
LINE
8
BLACK
6
CONTINUOUS
10
0.27519
20
0.414063
11
0.277549
21
0.427949
0
LINE
8
BLACK
6
CONTINUOUS
10
0.277549
20
0.427949
11
0.281448
21
0.441483
0
LINE
8
BLACK
6
CONTINUOUS
10
0.281448
20
0.441483
11
0.286838
21
0.454496
0
LINE
8
BLACK
6
CONTINUOUS
10
0.286838
20
0.454496
11
0.293651
21
0.466823
0
LINE
8
BLACK
6
CONTINUOUS
10
0.293651
20
0.466823
11
0.301802
21
0.47831
0
LINE
8
BLACK
6
CONTINUOUS
10
0.301802
20
0.47831
11
0.311187
21
0.488813
0
LINE
8
BLACK
6
CONTINUOUS
10
0.311187
20
0.488813
11
0.32169
21
0.498198
0
LINE
8
BLACK
6
CONTINUOUS
10
0.32169
20
0.498198
11
0.333177
21
0.506349
0
LINE
8
BLACK
6
CONTINUOUS
10
0.333177
20
0.506349
11
0.345504
21
0.513162
0
LINE
8
BLACK
6
CONTINUOUS
10
0.345504
20
0.513162
11
0.358517
21
0.518552
0
LINE
8
BLACK
6
CONTINUOUS
10
0.358517
20
0.518552
11
0.372051
21
0.522451
0
LINE
8
BLACK
6
CONTINUOUS
10
0.372051
20
0.522451
11
0.385937
21
0.52481
0
LINE
8
BLACK
6
CONTINUOUS
10
0.385937
20
0.52481
11
0.4
21
0.5256
0
LINE
8
BLACK
6
CONTINUOUS
10
0.4
20
0.5256
11
0.414063
21
0.52481
0
LINE
8
BLACK
6
CONTINUOUS
10
0.289962
20
0.387138
11
0.292199
21
0.374451
0
LINE
8
BLACK
6
CONTINUOUS
10
0.292199
20
0.374451
11
0.295894
21
0.362108
0
LINE
8
BLACK
6
CONTINUOUS
10
0.295894
20
0.362108
11
0.300997
21
0.350279
0
LINE
8
BLACK
6
CONTINUOUS
10
0.300997
20
0.350279
11
0.307438
21
0.339121
0
LINE
8
BLACK
6
CONTINUOUS
10
0.307438
20
0.339121
11
0.315132
21
0.328787
0
LINE
8
BLACK
6
CONTINUOUS
10
0.315132
20
0.328787
11
0.323973
21
0.319416
0
LINE
8
BLACK
6
CONTINUOUS
10
0.323973
20
0.319416
11
0.333842
21
0.311135
0
LINE
8
BLACK
6
CONTINUOUS
10
0.333842
20
0.311135
11
0.344606
21
0.304055
0
LINE
8
BLACK
6
CONTINUOUS
10
0.344606
20
0.304055
11
0.356119
21
0.298273
0
LINE
8
BLACK
6
CONTINUOUS
10
0.356119
20
0.298273
11
0.368226
21
0.293867
0
LINE
8
BLACK
6
CONTINUOUS
10
0.368226
20
0.293867
11
0.380762
21
0.290896
0
LINE
8
BLACK
6
CONTINUOUS
10
0.380762
20
0.290896
11
0.393558
21
0.2894
0
LINE
8
BLACK
6
CONTINUOUS
10
0.393558
20
0.2894
11
0.406442
21
0.2894
0
LINE
8
BLACK
6
CONTINUOUS
10
0.406442
20
0.2894
11
0.419238
21
0.290896
0
LINE
8
BLACK
6
CONTINUOUS
10
0.419238
20
0.290896
11
0.431774
21
0.293867
0
LINE
8
BLACK
6
CONTINUOUS
10
0.431774
20
0.293867
11
0.443881
21
0.298273
0
LINE
8
BLACK
6
CONTINUOUS
10
0.443881
20
0.298273
11
0.455394
21
0.304055
0
LINE
8
BLACK
6
CONTINUOUS
10
0.455394
20
0.304055
11
0.466158
21
0.311135
0
LINE
8
BLACK
6
CONTINUOUS
10
0.466158
20
0.311135
11
0.476027
21
0.319416
0
LINE
8
BLACK
6
CONTINUOUS
10
0.476027
20
0.319416
11
0.484868
21
0.328787
0
LINE
8
BLACK
6
CONTINUOUS
10
0.484868
20
0.328787
11
0.492562
21
0.339121
0
LINE
8
BLACK
6
CONTINUOUS
10
0.492562
20
0.339121
11
0.499003
21
0.350279
0
LINE
8
BLACK
6
CONTINUOUS
10
0.499003
20
0.350279
11
0.504106
21
0.362108
0
LINE
8
BLACK
6
CONTINUOUS
10
0.504106
20
0.362108
11
0.507801
21
0.374451
0
LINE
8
BLACK
6
CONTINUOUS
10
0.507801
20
0.374451
11
0.510038
21
0.387138
0
LINE
8
BLACK
6
CONTINUOUS
10
0.510038
20
0.387138
11
0.510787
21
0.4
0
LINE
8
BLACK
6
CONTINUOUS
10
0.510787
20
0.4
11
0.510038
21
0.412862
0
LINE
8
BLACK
6
CONTINUOUS
10
0.510038
20
0.412862
11
0.507801
21
0.425549
0
LINE
8
BLACK
6
CONTINUOUS
10
0.507801
20
0.425549
11
0.504106
21
0.437892
0
LINE
8
BLACK
6
CONTINUOUS
10
0.504106
20
0.437892
11
0.499003
21
0.449721
0
LINE
8
BLACK
6
CONTINUOUS
10
0.499003
20
0.449721
11
0.492562
21
0.460879
0
LINE
8
BLACK
6
CONTINUOUS
10
0.492562
20
0.460879
11
0.484868
21
0.471213
0
LINE
8
BLACK
6
CONTINUOUS
10
0.484868
20
0.471213
11
0.476027
21
0.480584
0
LINE
8
BLACK
6
CONTINUOUS
10
0.476027
20
0.480584
11
0.466158
21
0.488865
0
LINE
8
BLACK
6
CONTINUOUS
10
0.466158
20
0.488865
11
0.455394
21
0.495945
0
LINE
8
BLACK
6
CONTINUOUS
10
0.455394
20
0.495945
11
0.443881
21
0.501727
0
LINE
8
BLACK
6
CONTINUOUS
10
0.443881
20
0.501727
11
0.431774
21
0.506133
0
LINE
8
BLACK
6
CONTINUOUS
10
0.431774
20
0.506133
11
0.419238
21
0.509104
0
LINE
8
BLACK
6
CONTINUOUS
10
0.419238
20
0.509104
11
0.406442
21
0.5106
0
LINE
8
BLACK
6
CONTINUOUS
10
0.406442
20
0.5106
11
0.393558
21
0.5106
0
LINE
8
BLACK
6
CONTINUOUS
10
0.393558
20
0.5106
11
0.380762
21
0.509104
0
LINE
8
BLACK
6
CONTINUOUS
10
0.380762
20
0.509104
11
0.368226
21
0.506133
0
LINE
8
BLACK
6
CONTINUOUS
10
0.368226
20
0.506133
11
0.356119
21
0.501727
0
LINE
8
BLACK
6
CONTINUOUS
10
0.356119
20
0.501727
11
0.344606
21
0.495945
0
LINE
8
BLACK
6
CONTINUOUS
10
0.344606
20
0.495945
11
0.333842
21
0.488865
0
LINE
8
BLACK
6
CONTINUOUS
10
0.333842
20
0.488865
11
0.323973
21
0.480584
0
LINE
8
BLACK
6
CONTINUOUS
10
0.323973
20
0.480584
11
0.315132
21
0.471213
0
LINE
8
BLACK
6
CONTINUOUS
10
0.315132
20
0.471213
11
0.307438
21
0.460879
0
LINE
8
BLACK
6
CONTINUOUS
10
0.307438
20
0.460879
11
0.300997
21
0.449721
0
LINE
8
BLACK
6
CONTINUOUS
10
0.300997
20
0.449721
11
0.295894
21
0.437892
0
LINE
8
BLACK
6
CONTINUOUS
10
0.295894
20
0.437892
11
0.292199
21
0.425549
0
LINE
8
BLACK
6
CONTINUOUS
10
0.292199
20
0.425549
11
0.289962
21
0.412862
0
LINE
8
BLACK
6
CONTINUOUS
10
0.289962
20
0.412862
11
0.289213
21
0.4
0
LINE
8
BLACK
6
CONTINUOUS
10
0.289213
20
0.4
11
0.289962
21
0.387138
0
LINE
8
BLACK
6
CONTINUOUS
10
2.81406
20
0.52481
11
2.82795
21
0.522451
0
LINE
8
BLACK
6
CONTINUOUS
10
2.82795
20
0.522451
11
2.84148
21
0.518552
0
LINE
8
BLACK
6
CONTINUOUS
10
2.84148
20
0.518552
11
2.8545
21
0.513162
0
LINE
8
BLACK
6
CONTINUOUS
10
2.8545
20
0.513162
11
2.86682
21
0.506349
0
LINE
8
BLACK
6
CONTINUOUS
10
2.86682
20
0.506349
11
2.87831
21
0.498198
0
LINE
8
BLACK
6
CONTINUOUS
10
2.87831
20
0.498198
11
2.88881
21
0.488813
0
LINE
8
BLACK
6
CONTINUOUS
10
2.88881
20
0.488813
11
2.8982
21
0.47831
0
LINE
8
BLACK
6
CONTINUOUS
10
2.8982
20
0.47831
11
2.90635
21
0.466823
0
LINE
8
BLACK
6
CONTINUOUS
10
2.90635
20
0.466823
11
2.91316
21
0.454496
0
LINE
8
BLACK
6
CONTINUOUS
10
2.91316
20
0.454496
11
2.91855
21
0.441483
0
LINE
8
BLACK
6
CONTINUOUS
10
2.91855
20
0.441483
11
2.92245
21
0.427949
0
LINE
8
BLACK
6
CONTINUOUS
10
2.92245
20
0.427949
11
2.92481
21
0.414063
0
LINE
8
BLACK
6
CONTINUOUS
10
2.92481
20
0.414063
11
2.9256
21
0.4
0
LINE
8
BLACK
6
CONTINUOUS
10
2.9256
20
0.4
11
2.92481
21
0.385937
0
LINE
8
BLACK
6
CONTINUOUS
10
2.92481
20
0.385937
11
2.92245
21
0.372051
0
LINE
8
BLACK
6
CONTINUOUS
10
2.92245
20
0.372051
11
2.91855
21
0.358517
0
LINE
8
BLACK
6
CONTINUOUS
10
2.91855
20
0.358517
11
2.91316
21
0.345504
0
LINE
8
BLACK
6
CONTINUOUS
10
2.91316
20
0.345504
11
2.90635
21
0.333177
0
LINE
8
BLACK
6
CONTINUOUS
10
2.90635
20
0.333177
11
2.8982
21
0.32169
0
LINE
8
BLACK
6
CONTINUOUS
10
2.8982
20
0.32169
11
2.88881
21
0.311187
0
LINE
8
BLACK
6
CONTINUOUS
10
2.88881
20
0.311187
11
2.87831
21
0.301802
0
LINE
8
BLACK
6
CONTINUOUS
10
2.87831
20
0.301802
11
2.86682
21
0.293651
0
LINE
8
BLACK
6
CONTINUOUS
10
2.86682
20
0.293651
11
2.8545
21
0.286838
0
LINE
8
BLACK
6
CONTINUOUS
10
2.8545
20
0.286838
11
2.84148
21
0.281448
0
LINE
8
BLACK
6
CONTINUOUS
10
2.84148
20
0.281448
11
2.82795
21
0.277549
0
LINE
8
BLACK
6
CONTINUOUS
10
2.82795
20
0.277549
11
2.81406
21
0.27519
0
LINE
8
BLACK
6
CONTINUOUS
10
2.81406
20
0.27519
11
2.8
21
0.2744
0
LINE
8
BLACK
6
CONTINUOUS
10
2.8
20
0.2744
11
2.78594
21
0.27519
0
LINE
8
BLACK
6
CONTINUOUS
10
2.78594
20
0.27519
11
2.77205
21
0.277549
0
LINE
8
BLACK
6
CONTINUOUS
10
2.77205
20
0.277549
11
2.75852
21
0.281448
0
LINE
8
BLACK
6
CONTINUOUS
10
2.75852
20
0.281448
11
2.7455
21
0.286838
0
LINE
8
BLACK
6
CONTINUOUS
10
2.7455
20
0.286838
11
2.73318
21
0.293651
0
LINE
8
BLACK
6
CONTINUOUS
10
2.73318
20
0.293651
11
2.72169
21
0.301802
0
LINE
8
BLACK
6
CONTINUOUS
10
2.72169
20
0.301802
11
2.71119
21
0.311187
0
LINE
8
BLACK
6
CONTINUOUS
10
2.71119
20
0.311187
11
2.7018
21
0.32169
0
LINE
8
BLACK
6
CONTINUOUS
10
2.7018
20
0.32169
11
2.69365
21
0.333177
0
LINE
8
BLACK
6
CONTINUOUS
10
2.69365
20
0.333177
11
2.68684
21
0.345504
0
LINE
8
BLACK
6
CONTINUOUS
10
2.68684
20
0.345504
11
2.68145
21
0.358517
0
LINE
8
BLACK
6
CONTINUOUS
10
2.68145
20
0.358517
11
2.67755
21
0.372051
0
LINE
8
BLACK
6
CONTINUOUS
10
2.67755
20
0.372051
11
2.67519
21
0.385937
0
LINE
8
BLACK
6
CONTINUOUS
10
2.67519
20
0.385937
11
2.6744
21
0.4
0
LINE
8
BLACK
6
CONTINUOUS
10
2.6744
20
0.4
11
2.67519
21
0.414063
0
LINE
8
BLACK
6
CONTINUOUS
10
2.67519
20
0.414063
11
2.67755
21
0.427949
0
LINE
8
BLACK
6
CONTINUOUS
10
2.67755
20
0.427949
11
2.68145
21
0.441483
0
LINE
8
BLACK
6
CONTINUOUS
10
2.68145
20
0.441483
11
2.68684
21
0.454496
0
LINE
8
BLACK
6
CONTINUOUS
10
2.68684
20
0.454496
11
2.69365
21
0.466823
0
LINE
8
BLACK
6
CONTINUOUS
10
2.69365
20
0.466823
11
2.7018
21
0.47831
0
LINE
8
BLACK
6
CONTINUOUS
10
2.7018
20
0.47831
11
2.71119
21
0.488813
0
LINE
8
BLACK
6
CONTINUOUS
10
2.71119
20
0.488813
11
2.72169
21
0.498198
0
LINE
8
BLACK
6
CONTINUOUS
10
2.72169
20
0.498198
11
2.73318
21
0.506349
0
LINE
8
BLACK
6
CONTINUOUS
10
2.73318
20
0.506349
11
2.7455
21
0.513162
0
LINE
8
BLACK
6
CONTINUOUS
10
2.7455
20
0.513162
11
2.75852
21
0.518552
0
LINE
8
BLACK
6
CONTINUOUS
10
2.75852
20
0.518552
11
2.77205
21
0.522451
0
LINE
8
BLACK
6
CONTINUOUS
10
2.77205
20
0.522451
11
2.78594
21
0.52481
0
LINE
8
BLACK
6
CONTINUOUS
10
2.78594
20
0.52481
11
2.8
21
0.5256
0
LINE
8
BLACK
6
CONTINUOUS
10
2.8
20
0.5256
11
2.81406
21
0.52481
0
LINE
8
BLACK
6
CONTINUOUS
10
2.68996
20
0.387138
11
2.6922
21
0.374451
0
LINE
8
BLACK
6
CONTINUOUS
10
2.6922
20
0.374451
11
2.69589
21
0.362108
0
LINE
8
BLACK
6
CONTINUOUS
10
2.69589
20
0.362108
11
2.701
21
0.350279
0
LINE
8
BLACK
6
CONTINUOUS
10
2.701
20
0.350279
11
2.70744
21
0.339121
0
LINE
8
BLACK
6
CONTINUOUS
10
2.70744
20
0.339121
11
2.71513
21
0.328787
0
LINE
8
BLACK
6
CONTINUOUS
10
2.71513
20
0.328787
11
2.72397
21
0.319416
0
LINE
8
BLACK
6
CONTINUOUS
10
2.72397
20
0.319416
11
2.73384
21
0.311135
0
LINE
8
BLACK
6
CONTINUOUS
10
2.73384
20
0.311135
11
2.74461
21
0.304055
0
LINE
8
BLACK
6
CONTINUOUS
10
2.74461
20
0.304055
11
2.75612
21
0.298273
0
LINE
8
BLACK
6
CONTINUOUS
10
2.75612
20
0.298273
11
2.76823
21
0.293867
0
LINE
8
BLACK
6
CONTINUOUS
10
2.76823
20
0.293867
11
2.78076
21
0.290896
0
LINE
8
BLACK
6
CONTINUOUS
10
2.78076
20
0.290896
11
2.79356
21
0.2894
0
LINE
8
BLACK
6
CONTINUOUS
10
2.79356
20
0.2894
11
2.80644
21
0.2894
0
LINE
8
BLACK
6
CONTINUOUS
10
2.80644
20
0.2894
11
2.81924
21
0.290896
0
LINE
8
BLACK
6
CONTINUOUS
10
2.81924
20
0.290896
11
2.83177
21
0.293867
0
LINE
8
BLACK
6
CONTINUOUS
10
2.83177
20
0.293867
11
2.84388
21
0.298273
0
LINE
8
BLACK
6
CONTINUOUS
10
2.84388
20
0.298273
11
2.85539
21
0.304055
0
LINE
8
BLACK
6
CONTINUOUS
10
2.85539
20
0.304055
11
2.86616
21
0.311135
0
LINE
8
BLACK
6
CONTINUOUS
10
2.86616
20
0.311135
11
2.87603
21
0.319416
0
LINE
8
BLACK
6
CONTINUOUS
10
2.87603
20
0.319416
11
2.88487
21
0.328787
0
LINE
8
BLACK
6
CONTINUOUS
10
2.88487
20
0.328787
11
2.89256
21
0.339121
0
LINE
8
BLACK
6
CONTINUOUS
10
2.89256
20
0.339121
11
2.899
21
0.350279
0
LINE
8
BLACK
6
CONTINUOUS
10
2.899
20
0.350279
11
2.90411
21
0.362108
0
LINE
8
BLACK
6
CONTINUOUS
10
2.90411
20
0.362108
11
2.9078
21
0.374451
0
LINE
8
BLACK
6
CONTINUOUS
10
2.9078
20
0.374451
11
2.91004
21
0.387138
0
LINE
8
BLACK
6
CONTINUOUS
10
2.91004
20
0.387138
11
2.91079
21
0.4
0
LINE
8
BLACK
6
CONTINUOUS
10
2.91079
20
0.4
11
2.91004
21
0.412862
0
LINE
8
BLACK
6
CONTINUOUS
10
2.91004
20
0.412862
11
2.9078
21
0.425549
0
LINE
8
BLACK
6
CONTINUOUS
10
2.9078
20
0.425549
11
2.90411
21
0.437892
0
LINE
8
BLACK
6
CONTINUOUS
10
2.90411
20
0.437892
11
2.899
21
0.449721
0
LINE
8
BLACK
6
CONTINUOUS
10
2.899
20
0.449721
11
2.89256
21
0.460879
0
LINE
8
BLACK
6
CONTINUOUS
10
2.89256
20
0.460879
11
2.88487
21
0.471213
0
LINE
8
BLACK
6
CONTINUOUS
10
2.88487
20
0.471213
11
2.87603
21
0.480584
0
LINE
8
BLACK
6
CONTINUOUS
10
2.87603
20
0.480584
11
2.86616
21
0.488865
0
LINE
8
BLACK
6
CONTINUOUS
10
2.86616
20
0.488865
11
2.85539
21
0.495945
0
LINE
8
BLACK
6
CONTINUOUS
10
2.85539
20
0.495945
11
2.84388
21
0.501727
0
LINE
8
BLACK
6
CONTINUOUS
10
2.84388
20
0.501727
11
2.83177
21
0.506133
0
LINE
8
BLACK
6
CONTINUOUS
10
2.83177
20
0.506133
11
2.81924
21
0.509104
0
LINE
8
BLACK
6
CONTINUOUS
10
2.81924
20
0.509104
11
2.80644
21
0.5106
0
LINE
8
BLACK
6
CONTINUOUS
10
2.80644
20
0.5106
11
2.79356
21
0.5106
0
LINE
8
BLACK
6
CONTINUOUS
10
2.79356
20
0.5106
11
2.78076
21
0.509104
0
LINE
8
BLACK
6
CONTINUOUS
10
2.78076
20
0.509104
11
2.76823
21
0.506133
0
LINE
8
BLACK
6
CONTINUOUS
10
2.76823
20
0.506133
11
2.75612
21
0.501727
0
LINE
8
BLACK
6
CONTINUOUS
10
2.75612
20
0.501727
11
2.74461
21
0.495945
0
LINE
8
BLACK
6
CONTINUOUS
10
2.74461
20
0.495945
11
2.73384
21
0.488865
0
LINE
8
BLACK
6
CONTINUOUS
10
2.73384
20
0.488865
11
2.72397
21
0.480584
0
LINE
8
BLACK
6
CONTINUOUS
10
2.72397
20
0.480584
11
2.71513
21
0.471213
0
LINE
8
BLACK
6
CONTINUOUS
10
2.71513
20
0.471213
11
2.70744
21
0.460879
0
LINE
8
BLACK
6
CONTINUOUS
10
2.70744
20
0.460879
11
2.701
21
0.449721
0
LINE
8
BLACK
6
CONTINUOUS
10
2.701
20
0.449721
11
2.69589
21
0.437892
0
LINE
8
BLACK
6
CONTINUOUS
10
2.69589
20
0.437892
11
2.6922
21
0.425549
0
LINE
8
BLACK
6
CONTINUOUS
10
2.6922
20
0.425549
11
2.68996
21
0.412862
0
LINE
8
BLACK
6
CONTINUOUS
10
2.68996
20
0.412862
11
2.68921
21
0.4
0
LINE
8
BLACK
6
CONTINUOUS
10
2.68921
20
0.4
11
2.68996
21
0.387138
0
LINE
8
BLACK
6
CONTINUOUS
10
2.26859
20
0.878699
11
2.28365
21
0.863637
0
LINE
8
BLACK
6
CONTINUOUS
10
2.28365
20
0.863637
11
2.3041
21
0.878973
0
LINE
8
BLACK
6
CONTINUOUS
10
2.3041
20
0.878973
11
2.30502
21
0.879437
0
LINE
8
BLACK
6
CONTINUOUS
10
2.30502
20
0.879437
11
2.30703
21
0.879327
0
LINE
8
BLACK
6
CONTINUOUS
10
2.30703
20
0.879327
11
2.30851
21
0.877946
0
LINE
8
BLACK
6
CONTINUOUS
10
2.30851
20
0.877946
11
2.30875
21
0.87594
0
LINE
8
BLACK
6
CONTINUOUS
10
2.30875
20
0.87594
11
2.30765
21
0.874249
0
LINE
8
BLACK
6
CONTINUOUS
10
2.30765
20
0.874249
11
2.28787
21
0.859419
0
LINE
8
BLACK
6
CONTINUOUS
10
2.28787
20
0.859419
11
2.29022
21
0.857067
0
LINE
8
BLACK
6
CONTINUOUS
10
2.29022
20
0.857067
11
2.30587
21
0.857067
0
LINE
8
BLACK
6
CONTINUOUS
10
2.30587
20
0.857067
11
2.30688
21
0.856889
0
LINE
8
BLACK
6
CONTINUOUS
10
2.30688
20
0.856889
11
2.30843
21
0.85559
0
LINE
8
BLACK
6
CONTINUOUS
10
2.30843
20
0.85559
11
2.30878
21
0.853601
0
LINE
8
BLACK
6
CONTINUOUS
10
2.30878
20
0.853601
11
2.30777
21
0.851852
0
LINE
8
BLACK
6
CONTINUOUS
10
2.30777
20
0.851852
11
2.30587
21
0.851161
0
LINE
8
BLACK
6
CONTINUOUS
10
2.30587
20
0.851161
11
2.2665
21
0.851161
0
LINE
8
BLACK
6
CONTINUOUS
10
2.2665
20
0.851161
11
2.26549
21
0.851339
0
LINE
8
BLACK
6
CONTINUOUS
10
2.26549
20
0.851339
11
2.26395
21
0.852638
0
LINE
8
BLACK
6
CONTINUOUS
10
2.26395
20
0.852638
11
2.2636
21
0.854627
0
LINE
8
BLACK
6
CONTINUOUS
10
2.2636
20
0.854627
11
2.26461
21
0.856376
0
LINE
8
BLACK
6
CONTINUOUS
10
2.26461
20
0.856376
11
2.2665
21
0.857067
0
LINE
8
BLACK
6
CONTINUOUS
10
2.2665
20
0.857067
11
2.28187
21
0.857067
0
LINE
8
BLACK
6
CONTINUOUS
10
2.28187
20
0.857067
11
2.26442
21
0.874523
0
LINE
8
BLACK
6
CONTINUOUS
10
2.26442
20
0.874523
11
2.26383
21
0.875363
0
LINE
8
BLACK
6
CONTINUOUS
10
2.26383
20
0.875363
11
2.26365
21
0.877375
0
LINE
8
BLACK
6
CONTINUOUS
10
2.26365
20
0.877375
11
2.26481
21
0.87903
0
LINE
8
BLACK
6
CONTINUOUS
10
2.26481
20
0.87903
11
2.26676
21
0.879553
0
LINE
8
BLACK
6
CONTINUOUS
10
2.26676
20
0.879553
11
2.26859
21
0.878699
0
LINE
8
BLACK
6
CONTINUOUS
10
2.33932
20
1.07485
11
2.3399
21
1.07346
0
LINE
8
BLACK
6
CONTINUOUS
10
2.3399
20
1.07346
11
2.3399
21
1.03613
0
LINE
8
BLACK
6
CONTINUOUS
10
2.3399
20
1.03613
11
2.36943
21
1.03613
0
LINE
8
BLACK
6
CONTINUOUS
10
2.36943
20
1.03613
11
2.36997
21
1.0359
0
LINE
8
BLACK
6
CONTINUOUS
10
2.36997
20
1.0359
11
2.37055
21
1.03577
0
LINE
8
BLACK
6
CONTINUOUS
10
2.37055
20
1.03577
11
2.37065
21
1.03562
0
LINE
8
BLACK
6
CONTINUOUS
10
2.37065
20
1.03562
11
2.37082
21
1.03555
0
LINE
8
BLACK
6
CONTINUOUS
10
2.37082
20
1.03555
11
2.37105
21
1.035
0
LINE
8
BLACK
6
CONTINUOUS
10
2.37105
20
1.035
11
2.37137
21
1.0345
0
LINE
8
BLACK
6
CONTINUOUS
10
2.37137
20
1.0345
11
2.37133
21
1.03433
0
LINE
8
BLACK
6
CONTINUOUS
10
2.37133
20
1.03433
11
2.3714
21
1.03416
0
LINE
8
BLACK
6
CONTINUOUS
10
2.3714
20
1.03416
11
2.37117
21
1.03361
0
LINE
8
BLACK
6
CONTINUOUS
10
2.37117
20
1.03361
11
2.37104
21
1.03303
0
LINE
8
BLACK
6
CONTINUOUS
10
2.37104
20
1.03303
11
2.34169
21
0.990825
0
LINE
8
BLACK
6
CONTINUOUS
10
2.34169
20
0.990825
11
2.36943
21
0.990825
0
LINE
8
BLACK
6
CONTINUOUS
10
2.36943
20
0.990825
11
2.37082
21
0.990249
0
LINE
8
BLACK
6
CONTINUOUS
10
2.37082
20
0.990249
11
2.3714
21
0.988857
0
LINE
8
BLACK
6
CONTINUOUS
10
2.3714
20
0.988857
11
2.37082
21
0.987465
0
LINE
8
BLACK
6
CONTINUOUS
10
2.37082
20
0.987465
11
2.36943
21
0.986888
0
LINE
8
BLACK
6
CONTINUOUS
10
2.36943
20
0.986888
11
2.3399
21
0.986888
0
LINE
8
BLACK
6
CONTINUOUS
10
2.3399
20
0.986888
11
2.3399
21
0.953357
0
LINE
8
BLACK
6
CONTINUOUS
10
2.3399
20
0.953357
11
2.33932
21
0.951965
0
LINE
8
BLACK
6
CONTINUOUS
10
2.33932
20
0.951965
11
2.33793
21
0.951388
0
LINE
8
BLACK
6
CONTINUOUS
10
2.33793
20
0.951388
11
2.33654
21
0.951965
0
LINE
8
BLACK
6
CONTINUOUS
10
2.33654
20
0.951965
11
2.33596
21
0.953357
0
LINE
8
BLACK
6
CONTINUOUS
10
2.33596
20
0.953357
11
2.33596
21
0.986888
0
LINE
8
BLACK
6
CONTINUOUS
10
2.33596
20
0.986888
11
2.30643
21
0.986888
0
LINE
8
BLACK
6
CONTINUOUS
10
2.30643
20
0.986888
11
2.30504
21
0.987465
0
LINE
8
BLACK
6
CONTINUOUS
10
2.30504
20
0.987465
11
2.30446
21
0.988857
0
LINE
8
BLACK
6
CONTINUOUS
10
2.30446
20
0.988857
11
2.30504
21
0.990249
0
LINE
8
BLACK
6
CONTINUOUS
10
2.30504
20
0.990249
11
2.30643
21
0.990825
0
LINE
8
BLACK
6
CONTINUOUS
10
2.30643
20
0.990825
11
2.3343
21
0.990825
0
LINE
8
BLACK
6
CONTINUOUS
10
2.3343
20
0.990825
11
2.30678
21
1.03308
0
LINE
8
BLACK
6
CONTINUOUS
10
2.30678
20
1.03308
11
2.30668
21
1.03364
0
LINE
8
BLACK
6
CONTINUOUS
10
2.30668
20
1.03364
11
2.30646
21
1.03416
0
LINE
8
BLACK
6
CONTINUOUS
10
2.30646
20
1.03416
11
2.30654
21
1.03435
0
LINE
8
BLACK
6
CONTINUOUS
10
2.30654
20
1.03435
11
2.3065
21
1.03456
0
LINE
8
BLACK
6
CONTINUOUS
10
2.3065
20
1.03456
11
2.30682
21
1.03503
0
LINE
8
BLACK
6
CONTINUOUS
10
2.30682
20
1.03503
11
2.30704
21
1.03555
0
LINE
8
BLACK
6
CONTINUOUS
10
2.30704
20
1.03555
11
2.30723
21
1.03563
0
LINE
8
BLACK
6
CONTINUOUS
10
2.30723
20
1.03563
11
2.30735
21
1.03581
0
LINE
8
BLACK
6
CONTINUOUS
10
2.30735
20
1.03581
11
2.30791
21
1.03591
0
LINE
8
BLACK
6
CONTINUOUS
10
2.30791
20
1.03591
11
2.30843
21
1.03613
0
LINE
8
BLACK
6
CONTINUOUS
10
2.30843
20
1.03613
11
2.33596
21
1.03613
0
LINE
8
BLACK
6
CONTINUOUS
10
2.33596
20
1.03613
11
2.33596
21
1.07346
0
LINE
8
BLACK
6
CONTINUOUS
10
2.33596
20
1.07346
11
2.33654
21
1.07485
0
LINE
8
BLACK
6
CONTINUOUS
10
2.33654
20
1.07485
11
2.33793
21
1.07543
0
LINE
8
BLACK
6
CONTINUOUS
10
2.33793
20
1.07543
11
2.33932
21
1.07485
0
LINE
8
BLACK
6
CONTINUOUS
10
2.33793
20
1.03219
11
2.31206
21
1.03219
0
LINE
8
BLACK
6
CONTINUOUS
10
2.31206
20
1.03219
11
2.33798
21
0.992382
0
LINE
8
BLACK
6
CONTINUOUS
10
2.33798
20
0.992382
11
2.36566
21
1.03219
0
LINE
8
BLACK
6
CONTINUOUS
10
2.36566
20
1.03219
11
2.33793
21
1.03219
0
LINE
8
BLACK
6
CONTINUOUS
10
2.13958
20
1.01071
11
2.13972
21
1.01073
0
LINE
8
BLACK
6
CONTINUOUS
10
2.13972
20
1.01073
11
2.14722
21
1.00885
0
LINE
8
BLACK
6
CONTINUOUS
10
2.14722
20
1.00885
11
2.14768
21
1.00865
0
LINE
8
BLACK
6
CONTINUOUS
10
2.14768
20
1.00865
11
2.14782
21
1.00863
0
LINE
8
BLACK
6
CONTINUOUS
10
2.14782
20
1.00863
11
2.15157
21
1.00676
0
LINE
8
BLACK
6
CONTINUOUS
10
2.15157
20
1.00676
11
2.15228
21
1.00623
0
LINE
8
BLACK
6
CONTINUOUS
10
2.15228
20
1.00623
11
2.15234
21
1.0062
0
LINE
8
BLACK
6
CONTINUOUS
10
2.15234
20
1.0062
11
2.15609
21
1.00245
0
LINE
8
BLACK
6
CONTINUOUS
10
2.15609
20
1.00245
11
2.15668
21
1.00161
0
LINE
8
BLACK
6
CONTINUOUS
10
2.15668
20
1.00161
11
2.15669
21
1.00144
0
LINE
8
BLACK
6
CONTINUOUS
10
2.15669
20
1.00144
11
2.1568
21
1.0013
0
LINE
8
BLACK
6
CONTINUOUS
10
2.1568
20
1.0013
11
2.15868
21
0.995674
0
LINE
8
BLACK
6
CONTINUOUS
10
2.15868
20
0.995674
11
2.15881
21
0.994801
0
LINE
8
BLACK
6
CONTINUOUS
10
2.15881
20
0.994801
11
2.15883
21
0.99474
0
LINE
8
BLACK
6
CONTINUOUS
10
2.15883
20
0.99474
11
2.15883
21
0.985366
0
LINE
8
BLACK
6
CONTINUOUS
10
2.15883
20
0.985366
11
2.15876
21
0.984983
0
LINE
8
BLACK
6
CONTINUOUS
10
2.15876
20
0.984983
11
2.15878
21
0.984854
0
LINE
8
BLACK
6
CONTINUOUS
10
2.15878
20
0.984854
11
2.15872
21
0.98474
0
LINE
8
BLACK
6
CONTINUOUS
10
2.15872
20
0.98474
11
2.15865
21
0.984356
0
LINE
8
BLACK
6
CONTINUOUS
10
2.15865
20
0.984356
11
2.15816
21
0.983769
0
LINE
8
BLACK
6
CONTINUOUS
10
2.15816
20
0.983769
11
2.15777
21
0.983104
0
LINE
8
BLACK
6
CONTINUOUS
10
2.15777
20
0.983104
11
2.15752
21
0.983013
0
LINE
8
BLACK
6
CONTINUOUS
10
2.15752
20
0.983013
11
2.15735
21
0.982809
0
LINE
8
BLACK
6
CONTINUOUS
10
2.15735
20
0.982809
11
2.1566
21
0.982676
0
LINE
8
BLACK
6
CONTINUOUS
10
2.1566
20
0.982676
11
2.15587
21
0.982414
0
LINE
8
BLACK
6
CONTINUOUS
10
2.15587
20
0.982414
11
2.1165
21
0.982414
0
LINE
8
BLACK
6
CONTINUOUS
10
2.1165
20
0.982414
11
2.11612
21
0.982481
0
LINE
8
BLACK
6
CONTINUOUS
10
2.11612
20
0.982481
11
2.11599
21
0.982458
0
LINE
8
BLACK
6
CONTINUOUS
10
2.11599
20
0.982458
11
2.11588
21
0.982524
0
LINE
8
BLACK
6
CONTINUOUS
10
2.11588
20
0.982524
11
2.11549
21
0.982592
0
LINE
8
BLACK
6
CONTINUOUS
10
2.11549
20
0.982592
11
2.11491
21
0.983085
0
LINE
8
BLACK
6
CONTINUOUS
10
2.11491
20
0.983085
11
2.11424
21
0.983468
0
LINE
8
BLACK
6
CONTINUOUS
10
2.11424
20
0.983468
11
2.11415
21
0.983719
0
LINE
8
BLACK
6
CONTINUOUS
10
2.11415
20
0.983719
11
2.11395
21
0.98389
0
LINE
8
BLACK
6
CONTINUOUS
10
2.11395
20
0.98389
11
2.11381
21
0.984646
0
LINE
8
BLACK
6
CONTINUOUS
10
2.11381
20
0.984646
11
2.11355
21
0.985366
0
LINE
8
BLACK
6
CONTINUOUS
10
2.11355
20
0.985366
11
2.11355
21
0.99474
0
LINE
8
BLACK
6
CONTINUOUS
10
2.11355
20
0.99474
11
2.11371
21
0.99561
0
LINE
8
BLACK
6
CONTINUOUS
10
2.11371
20
0.99561
11
2.1137
21
0.995674
0
LINE
8
BLACK
6
CONTINUOUS
10
2.1137
20
0.995674
11
2.11558
21
1.0013
0
LINE
8
BLACK
6
CONTINUOUS
10
2.11558
20
1.0013
11
2.11607
21
1.0022
0
LINE
8
BLACK
6
CONTINUOUS
10
2.11607
20
1.0022
11
2.11622
21
1.00229
0
LINE
8
BLACK
6
CONTINUOUS
10
2.11622
20
1.00229
11
2.11629
21
1.00245
0
LINE
8
BLACK
6
CONTINUOUS
10
2.11629
20
1.00245
11
2.12004
21
1.0062
0
LINE
8
BLACK
6
CONTINUOUS
10
2.12004
20
1.0062
11
2.12076
21
1.00671
0
LINE
8
BLACK
6
CONTINUOUS
10
2.12076
20
1.00671
11
2.12081
21
1.00676
0
LINE
8
BLACK
6
CONTINUOUS
10
2.12081
20
1.00676
11
2.12456
21
1.00863
0
LINE
8
BLACK
6
CONTINUOUS
10
2.12456
20
1.00863
11
2.12505
21
1.00878
0
LINE
8
BLACK
6
CONTINUOUS
10
2.12505
20
1.00878
11
2.12516
21
1.00885
0
LINE
8
BLACK
6
CONTINUOUS
10
2.12516
20
1.00885
11
2.13266
21
1.01073
0
LINE
8
BLACK
6
CONTINUOUS
10
2.13266
20
1.01073
11
2.13325
21
1.01077
0
LINE
8
BLACK
6
CONTINUOUS
10
2.13325
20
1.01077
11
2.13338
21
1.01082
0
LINE
8
BLACK
6
CONTINUOUS
10
2.13338
20
1.01082
11
2.139
21
1.01082
0
LINE
8
BLACK
6
CONTINUOUS
10
2.139
20
1.01082
11
2.13958
21
1.01071
0
LINE
8
BLACK
6
CONTINUOUS
10
2.12691
20
1.0032
11
2.12388
21
1.00169
0
LINE
8
BLACK
6
CONTINUOUS
10
2.12388
20
1.00169
11
2.12096
21
0.998769
0
LINE
8
BLACK
6
CONTINUOUS
10
2.12096
20
0.998769
11
2.11946
21
0.994261
0
LINE
8
BLACK
6
CONTINUOUS
10
2.11946
20
0.994261
11
2.11946
21
0.988319
0
LINE
8
BLACK
6
CONTINUOUS
10
2.11946
20
0.988319
11
2.15292
21
0.988319
0
LINE
8
BLACK
6
CONTINUOUS
10
2.15292
20
0.988319
11
2.15292
21
0.994261
0
LINE
8
BLACK
6
CONTINUOUS
10
2.15292
20
0.994261
11
2.15142
21
0.998769
0
LINE
8
BLACK
6
CONTINUOUS
10
2.15142
20
0.998769
11
2.1485
21
1.00169
0
LINE
8
BLACK
6
CONTINUOUS
10
2.1485
20
1.00169
11
2.14547
21
1.0032
0
LINE
8
BLACK
6
CONTINUOUS
10
2.14547
20
1.0032
11
2.13864
21
1.00491
0
LINE
8
BLACK
6
CONTINUOUS
10
2.13864
20
1.00491
11
2.13374
21
1.00491
0
LINE
8
BLACK
6
CONTINUOUS
10
2.13374
20
1.00491
11
2.12691
21
1.0032
0
LINE
8
BLACK
6
CONTINUOUS
10
2.15814
20
1.04726
11
2.15883
21
1.04536
0
LINE
8
BLACK
6
CONTINUOUS
10
2.15883
20
1.04536
11
2.15883
21
1.02286
0
LINE
8
BLACK
6
CONTINUOUS
10
2.15883
20
1.02286
11
2.15865
21
1.02185
0
LINE
8
BLACK
6
CONTINUOUS
10
2.15865
20
1.02185
11
2.15735
21
1.0203
0
LINE
8
BLACK
6
CONTINUOUS
10
2.15735
20
1.0203
11
2.15536
21
1.01995
0
LINE
8
BLACK
6
CONTINUOUS
10
2.15536
20
1.01995
11
2.15361
21
1.02096
0
LINE
8
BLACK
6
CONTINUOUS
10
2.15361
20
1.02096
11
2.15292
21
1.02286
0
LINE
8
BLACK
6
CONTINUOUS
10
2.15292
20
1.02286
11
2.15292
21
1.03116
0
LINE
8
BLACK
6
CONTINUOUS
10
2.15292
20
1.03116
11
2.12551
21
1.03116
0
LINE
8
BLACK
6
CONTINUOUS
10
2.12551
20
1.03116
11
2.12797
21
1.0287
0
LINE
8
BLACK
6
CONTINUOUS
10
2.12797
20
1.0287
11
2.12847
21
1.02798
0
LINE
8
BLACK
6
CONTINUOUS
10
2.12847
20
1.02798
11
2.12852
21
1.02793
0
LINE
8
BLACK
6
CONTINUOUS
10
2.12852
20
1.02793
11
2.13039
21
1.02418
0
LINE
8
BLACK
6
CONTINUOUS
10
2.13039
20
1.02418
11
2.13069
21
1.0232
0
LINE
8
BLACK
6
CONTINUOUS
10
2.13069
20
1.0232
11
2.13022
21
1.02123
0
LINE
8
BLACK
6
CONTINUOUS
10
2.13022
20
1.02123
11
2.1286
21
1.02003
0
LINE
8
BLACK
6
CONTINUOUS
10
2.1286
20
1.02003
11
2.12658
21
1.02015
0
LINE
8
BLACK
6
CONTINUOUS
10
2.12658
20
1.02015
11
2.12511
21
1.02154
0
LINE
8
BLACK
6
CONTINUOUS
10
2.12511
20
1.02154
11
2.12345
21
1.02486
0
LINE
8
BLACK
6
CONTINUOUS
10
2.12345
20
1.02486
11
2.12025
21
1.02807
0
LINE
8
BLACK
6
CONTINUOUS
10
2.12025
20
1.02807
11
2.11487
21
1.03165
0
LINE
8
BLACK
6
CONTINUOUS
10
2.11487
20
1.03165
11
2.11413
21
1.03236
0
LINE
8
BLACK
6
CONTINUOUS
10
2.11413
20
1.03236
11
2.11408
21
1.03252
0
LINE
8
BLACK
6
CONTINUOUS
10
2.11408
20
1.03252
11
2.11395
21
1.03263
0
LINE
8
BLACK
6
CONTINUOUS
10
2.11395
20
1.03263
11
2.1138
21
1.03348
0
LINE
8
BLACK
6
CONTINUOUS
10
2.1138
20
1.03348
11
2.11356
21
1.0343
0
LINE
8
BLACK
6
CONTINUOUS
10
2.11356
20
1.0343
11
2.11363
21
1.03446
0
LINE
8
BLACK
6
CONTINUOUS
10
2.11363
20
1.03446
11
2.1136
21
1.03462
0
LINE
8
BLACK
6
CONTINUOUS
10
2.1136
20
1.03462
11
2.11403
21
1.03537
0
LINE
8
BLACK
6
CONTINUOUS
10
2.11403
20
1.03537
11
2.11437
21
1.03615
0
LINE
8
BLACK
6
CONTINUOUS
10
2.11437
20
1.03615
11
2.11452
21
1.03623
0
LINE
8
BLACK
6
CONTINUOUS
10
2.11452
20
1.03623
11
2.11461
21
1.03637
0
LINE
8
BLACK
6
CONTINUOUS
10
2.11461
20
1.03637
11
2.11541
21
1.03667
0
LINE
8
BLACK
6
CONTINUOUS
10
2.11541
20
1.03667
11
2.11618
21
1.03705
0
LINE
8
BLACK
6
CONTINUOUS
10
2.11618
20
1.03705
11
2.11635
21
1.037
0
LINE
8
BLACK
6
CONTINUOUS
10
2.11635
20
1.037
11
2.1165
21
1.03706
0
LINE
8
BLACK
6
CONTINUOUS
10
2.1165
20
1.03706
11
2.15292
21
1.03706
0
LINE
8
BLACK
6
CONTINUOUS
10
2.15292
20
1.03706
11
2.15292
21
1.04536
0
LINE
8
BLACK
6
CONTINUOUS
10
2.15292
20
1.04536
11
2.1531
21
1.04637
0
LINE
8
BLACK
6
CONTINUOUS
10
2.1531
20
1.04637
11
2.1544
21
1.04792
0
LINE
8
BLACK
6
CONTINUOUS
10
2.1544
20
1.04792
11
2.15639
21
1.04827
0
LINE
8
BLACK
6
CONTINUOUS
10
2.15639
20
1.04827
11
2.15814
21
1.04726
0
LINE
8
BLACK
6
CONTINUOUS
10
2.43797
20
1.29592
11
2.43936
21
1.29534
0
LINE
8
BLACK
6
CONTINUOUS
10
2.43936
20
1.29534
11
2.43994
21
1.29395
0
LINE
8
BLACK
6
CONTINUOUS
10
2.43994
20
1.29395
11
2.43994
21
0.734898
0
LINE
8
BLACK
6
CONTINUOUS
10
2.43994
20
0.734898
11
2.43936
21
0.733506
0
LINE
8
BLACK
6
CONTINUOUS
10
2.43936
20
0.733506
11
2.43797
21
0.732929
0
LINE
8
BLACK
6
CONTINUOUS
10
2.43797
20
0.732929
11
1.37498
21
0.732929
0
LINE
8
BLACK
6
CONTINUOUS
10
1.37498
20
0.732929
11
1.37358
21
0.733506
0
LINE
8
BLACK
6
CONTINUOUS
10
1.37358
20
0.733506
11
1.37301
21
0.734898
0
LINE
8
BLACK
6
CONTINUOUS
10
1.37301
20
0.734898
11
1.37301
21
1.29395
0
LINE
8
BLACK
6
CONTINUOUS
10
1.37301
20
1.29395
11
1.37358
21
1.29534
0
LINE
8
BLACK
6
CONTINUOUS
10
1.37358
20
1.29534
11
1.37498
21
1.29592
0
LINE
8
BLACK
6
CONTINUOUS
10
1.37498
20
1.29592
11
2.43797
21
1.29592
0
LINE
8
BLACK
6
CONTINUOUS
10
1.37694
20
1.29198
11
1.37694
21
0.736866
0
LINE
8
BLACK
6
CONTINUOUS
10
1.37694
20
0.736866
11
2.436
21
0.736866
0
LINE
8
BLACK
6
CONTINUOUS
10
2.436
20
0.736866
11
2.436
21
1.29198
0
LINE
8
BLACK
6
CONTINUOUS
10
2.436
20
1.29198
11
1.37694
21
1.29198
0
LINE
8
BLACK
6
CONTINUOUS
10
0.414063
20
2.12481
11
0.427949
21
2.12245
0
LINE
8
BLACK
6
CONTINUOUS
10
0.427949
20
2.12245
11
0.441483
21
2.11855
0
LINE
8
BLACK
6
CONTINUOUS
10
0.441483
20
2.11855
11
0.454496
21
2.11316
0
LINE
8
BLACK
6
CONTINUOUS
10
0.454496
20
2.11316
11
0.466823
21
2.10635
0
LINE
8
BLACK
6
CONTINUOUS
10
0.466823
20
2.10635
11
0.47831
21
2.0982
0
LINE
8
BLACK
6
CONTINUOUS
10
0.47831
20
2.0982
11
0.488813
21
2.08881
0
LINE
8
BLACK
6
CONTINUOUS
10
0.488813
20
2.08881
11
0.498198
21
2.07831
0
LINE
8
BLACK
6
CONTINUOUS
10
0.498198
20
2.07831
11
0.506349
21
2.06682
0
LINE
8
BLACK
6
CONTINUOUS
10
0.506349
20
2.06682
11
0.513162
21
2.0545
0
LINE
8
BLACK
6
CONTINUOUS
10
0.513162
20
2.0545
11
0.518552
21
2.04148
0
LINE
8
BLACK
6
CONTINUOUS
10
0.518552
20
2.04148
11
0.522451
21
2.02795
0
LINE
8
BLACK
6
CONTINUOUS
10
0.522451
20
2.02795
11
0.52481
21
2.01406
0
LINE
8
BLACK
6
CONTINUOUS
10
0.52481
20
2.01406
11
0.5256
21
2
0
LINE
8
BLACK
6
CONTINUOUS
10
0.5256
20
2
11
0.52481
21
1.98594
0
LINE
8
BLACK
6
CONTINUOUS
10
0.52481
20
1.98594
11
0.522451
21
1.97205
0
LINE
8
BLACK
6
CONTINUOUS
10
0.522451
20
1.97205
11
0.518552
21
1.95852
0
LINE
8
BLACK
6
CONTINUOUS
10
0.518552
20
1.95852
11
0.513162
21
1.9455
0
LINE
8
BLACK
6
CONTINUOUS
10
0.513162
20
1.9455
11
0.506349
21
1.93318
0
LINE
8
BLACK
6
CONTINUOUS
10
0.506349
20
1.93318
11
0.498198
21
1.92169
0
LINE
8
BLACK
6
CONTINUOUS
10
0.498198
20
1.92169
11
0.488813
21
1.91119
0
LINE
8
BLACK
6
CONTINUOUS
10
0.488813
20
1.91119
11
0.47831
21
1.9018
0
LINE
8
BLACK
6
CONTINUOUS
10
0.47831
20
1.9018
11
0.466823
21
1.89365
0
LINE
8
BLACK
6
CONTINUOUS
10
0.466823
20
1.89365
11
0.454496
21
1.88684
0
LINE
8
BLACK
6
CONTINUOUS
10
0.454496
20
1.88684
11
0.441483
21
1.88145
0
LINE
8
BLACK
6
CONTINUOUS
10
0.441483
20
1.88145
11
0.427949
21
1.87755
0
LINE
8
BLACK
6
CONTINUOUS
10
0.427949
20
1.87755
11
0.414063
21
1.87519
0
LINE
8
BLACK
6
CONTINUOUS
10
0.414063
20
1.87519
11
0.4
21
1.8744
0
LINE
8
BLACK
6
CONTINUOUS
10
0.4
20
1.8744
11
0.385937
21
1.87519
0
LINE
8
BLACK
6
CONTINUOUS
10
0.385937
20
1.87519
11
0.372051
21
1.87755
0
LINE
8
BLACK
6
CONTINUOUS
10
0.372051
20
1.87755
11
0.358517
21
1.88145
0
LINE
8
BLACK
6
CONTINUOUS
10
0.358517
20
1.88145
11
0.345504
21
1.88684
0
LINE
8
BLACK
6
CONTINUOUS
10
0.345504
20
1.88684
11
0.333177
21
1.89365
0
LINE
8
BLACK
6
CONTINUOUS
10
0.333177
20
1.89365
11
0.32169
21
1.9018
0
LINE
8
BLACK
6
CONTINUOUS
10
0.32169
20
1.9018
11
0.311187
21
1.91119
0
LINE
8
BLACK
6
CONTINUOUS
10
0.311187
20
1.91119
11
0.301802
21
1.92169
0
LINE
8
BLACK
6
CONTINUOUS
10
0.301802
20
1.92169
11
0.293651
21
1.93318
0
LINE
8
BLACK
6
CONTINUOUS
10
0.293651
20
1.93318
11
0.286838
21
1.9455
0
LINE
8
BLACK
6
CONTINUOUS
10
0.286838
20
1.9455
11
0.281448
21
1.95852
0
LINE
8
BLACK
6
CONTINUOUS
10
0.281448
20
1.95852
11
0.277549
21
1.97205
0
LINE
8
BLACK
6
CONTINUOUS
10
0.277549
20
1.97205
11
0.27519
21
1.98594
0
LINE
8
BLACK
6
CONTINUOUS
10
0.27519
20
1.98594
11
0.2744
21
2
0
LINE
8
BLACK
6
CONTINUOUS
10
0.2744
20
2
11
0.27519
21
2.01406
0
LINE
8
BLACK
6
CONTINUOUS
10
0.27519
20
2.01406
11
0.277549
21
2.02795
0
LINE
8
BLACK
6
CONTINUOUS
10
0.277549
20
2.02795
11
0.281448
21
2.04148
0
LINE
8
BLACK
6
CONTINUOUS
10
0.281448
20
2.04148
11
0.286838
21
2.0545
0
LINE
8
BLACK
6
CONTINUOUS
10
0.286838
20
2.0545
11
0.293651
21
2.06682
0
LINE
8
BLACK
6
CONTINUOUS
10
0.293651
20
2.06682
11
0.301802
21
2.07831
0
LINE
8
BLACK
6
CONTINUOUS
10
0.301802
20
2.07831
11
0.311187
21
2.08881
0
LINE
8
BLACK
6
CONTINUOUS
10
0.311187
20
2.08881
11
0.32169
21
2.0982
0
LINE
8
BLACK
6
CONTINUOUS
10
0.32169
20
2.0982
11
0.333177
21
2.10635
0
LINE
8
BLACK
6
CONTINUOUS
10
0.333177
20
2.10635
11
0.345504
21
2.11316
0
LINE
8
BLACK
6
CONTINUOUS
10
0.345504
20
2.11316
11
0.358517
21
2.11855
0
LINE
8
BLACK
6
CONTINUOUS
10
0.358517
20
2.11855
11
0.372051
21
2.12245
0
LINE
8
BLACK
6
CONTINUOUS
10
0.372051
20
2.12245
11
0.385937
21
2.12481
0
LINE
8
BLACK
6
CONTINUOUS
10
0.385937
20
2.12481
11
0.4
21
2.1256
0
LINE
8
BLACK
6
CONTINUOUS
10
0.4
20
2.1256
11
0.414063
21
2.12481
0
LINE
8
BLACK
6
CONTINUOUS
10
0.289962
20
1.98714
11
0.292199
21
1.97445
0
LINE
8
BLACK
6
CONTINUOUS
10
0.292199
20
1.97445
11
0.295894
21
1.96211
0
LINE
8
BLACK
6
CONTINUOUS
10
0.295894
20
1.96211
11
0.300997
21
1.95028
0
LINE
8
BLACK
6
CONTINUOUS
10
0.300997
20
1.95028
11
0.307438
21
1.93912
0
LINE
8
BLACK
6
CONTINUOUS
10
0.307438
20
1.93912
11
0.315132
21
1.92879
0
LINE
8
BLACK
6
CONTINUOUS
10
0.315132
20
1.92879
11
0.323973
21
1.91942
0
LINE
8
BLACK
6
CONTINUOUS
10
0.323973
20
1.91942
11
0.333842
21
1.91113
0
LINE
8
BLACK
6
CONTINUOUS
10
0.333842
20
1.91113
11
0.344606
21
1.90406
0
LINE
8
BLACK
6
CONTINUOUS
10
0.344606
20
1.90406
11
0.356119
21
1.89827
0
LINE
8
BLACK
6
CONTINUOUS
10
0.356119
20
1.89827
11
0.368226
21
1.89387
0
LINE
8
BLACK
6
CONTINUOUS
10
0.368226
20
1.89387
11
0.380762
21
1.8909
0
LINE
8
BLACK
6
CONTINUOUS
10
0.380762
20
1.8909
11
0.393558
21
1.8894
0
LINE
8
BLACK
6
CONTINUOUS
10
0.393558
20
1.8894
11
0.406442
21
1.8894
0
LINE
8
BLACK
6
CONTINUOUS
10
0.406442
20
1.8894
11
0.419238
21
1.8909
0
LINE
8
BLACK
6
CONTINUOUS
10
0.419238
20
1.8909
11
0.431774
21
1.89387
0
LINE
8
BLACK
6
CONTINUOUS
10
0.431774
20
1.89387
11
0.443881
21
1.89827
0
LINE
8
BLACK
6
CONTINUOUS
10
0.443881
20
1.89827
11
0.455394
21
1.90406
0
LINE
8
BLACK
6
CONTINUOUS
10
0.455394
20
1.90406
11
0.466158
21
1.91113
0
LINE
8
BLACK
6
CONTINUOUS
10
0.466158
20
1.91113
11
0.476027
21
1.91942
0
LINE
8
BLACK
6
CONTINUOUS
10
0.476027
20
1.91942
11
0.484868
21
1.92879
0
LINE
8
BLACK
6
CONTINUOUS
10
0.484868
20
1.92879
11
0.492562
21
1.93912
0
LINE
8
BLACK
6
CONTINUOUS
10
0.492562
20
1.93912
11
0.499003
21
1.95028
0
LINE
8
BLACK
6
CONTINUOUS
10
0.499003
20
1.95028
11
0.504106
21
1.96211
0
LINE
8
BLACK
6
CONTINUOUS
10
0.504106
20
1.96211
11
0.507801
21
1.97445
0
LINE
8
BLACK
6
CONTINUOUS
10
0.507801
20
1.97445
11
0.510038
21
1.98714
0
LINE
8
BLACK
6
CONTINUOUS
10
0.510038
20
1.98714
11
0.510787
21
2
0
LINE
8
BLACK
6
CONTINUOUS
10
0.510787
20
2
11
0.510038
21
2.01286
0
LINE
8
BLACK
6
CONTINUOUS
10
0.510038
20
2.01286
11
0.507801
21
2.02555
0
LINE
8
BLACK
6
CONTINUOUS
10
0.507801
20
2.02555
11
0.504106
21
2.03789
0
LINE
8
BLACK
6
CONTINUOUS
10
0.504106
20
2.03789
11
0.499003
21
2.04972
0
LINE
8
BLACK
6
CONTINUOUS
10
0.499003
20
2.04972
11
0.492562
21
2.06088
0
LINE
8
BLACK
6
CONTINUOUS
10
0.492562
20
2.06088
11
0.484868
21
2.07121
0
LINE
8
BLACK
6
CONTINUOUS
10
0.484868
20
2.07121
11
0.476027
21
2.08058
0
LINE
8
BLACK
6
CONTINUOUS
10
0.476027
20
2.08058
11
0.466158
21
2.08887
0
LINE
8
BLACK
6
CONTINUOUS
10
0.466158
20
2.08887
11
0.455394
21
2.09594
0
LINE
8
BLACK
6
CONTINUOUS
10
0.455394
20
2.09594
11
0.443881
21
2.10173
0
LINE
8
BLACK
6
CONTINUOUS
10
0.443881
20
2.10173
11
0.431774
21
2.10613
0
LINE
8
BLACK
6
CONTINUOUS
10
0.431774
20
2.10613
11
0.419238
21
2.1091
0
LINE
8
BLACK
6
CONTINUOUS
10
0.419238
20
2.1091
11
0.406442
21
2.1106
0
LINE
8
BLACK
6
CONTINUOUS
10
0.406442
20
2.1106
11
0.393558
21
2.1106
0
LINE
8
BLACK
6
CONTINUOUS
10
0.393558
20
2.1106
11
0.380762
21
2.1091
0
LINE
8
BLACK
6
CONTINUOUS
10
0.380762
20
2.1091
11
0.368226
21
2.10613
0
LINE
8
BLACK
6
CONTINUOUS
10
0.368226
20
2.10613
11
0.356119
21
2.10173
0
LINE
8
BLACK
6
CONTINUOUS
10
0.356119
20
2.10173
11
0.344606
21
2.09594
0
LINE
8
BLACK
6
CONTINUOUS
10
0.344606
20
2.09594
11
0.333842
21
2.08887
0
LINE
8
BLACK
6
CONTINUOUS
10
0.333842
20
2.08887
11
0.323973
21
2.08058
0
LINE
8
BLACK
6
CONTINUOUS
10
0.323973
20
2.08058
11
0.315132
21
2.07121
0
LINE
8
BLACK
6
CONTINUOUS
10
0.315132
20
2.07121
11
0.307438
21
2.06088
0
LINE
8
BLACK
6
CONTINUOUS
10
0.307438
20
2.06088
11
0.300997
21
2.04972
0
LINE
8
BLACK
6
CONTINUOUS
10
0.300997
20
2.04972
11
0.295894
21
2.03789
0
LINE
8
BLACK
6
CONTINUOUS
10
0.295894
20
2.03789
11
0.292199
21
2.02555
0
LINE
8
BLACK
6
CONTINUOUS
10
0.292199
20
2.02555
11
0.289962
21
2.01286
0
LINE
8
BLACK
6
CONTINUOUS
10
0.289962
20
2.01286
11
0.289213
21
2
0
LINE
8
BLACK
6
CONTINUOUS
10
0.289213
20
2
11
0.289962
21
1.98714
0
LINE
8
BLACK
6
CONTINUOUS
10
2.81406
20
2.12481
11
2.82795
21
2.12245
0
LINE
8
BLACK
6
CONTINUOUS
10
2.82795
20
2.12245
11
2.84148
21
2.11855
0
LINE
8
BLACK
6
CONTINUOUS
10
2.84148
20
2.11855
11
2.8545
21
2.11316
0
LINE
8
BLACK
6
CONTINUOUS
10
2.8545
20
2.11316
11
2.86682
21
2.10635
0
LINE
8
BLACK
6
CONTINUOUS
10
2.86682
20
2.10635
11
2.87831
21
2.0982
0
LINE
8
BLACK
6
CONTINUOUS
10
2.87831
20
2.0982
11
2.88881
21
2.08881
0
LINE
8
BLACK
6
CONTINUOUS
10
2.88881
20
2.08881
11
2.8982
21
2.07831
0
LINE
8
BLACK
6
CONTINUOUS
10
2.8982
20
2.07831
11
2.90635
21
2.06682
0
LINE
8
BLACK
6
CONTINUOUS
10
2.90635
20
2.06682
11
2.91316
21
2.0545
0
LINE
8
BLACK
6
CONTINUOUS
10
2.91316
20
2.0545
11
2.91855
21
2.04148
0
LINE
8
BLACK
6
CONTINUOUS
10
2.91855
20
2.04148
11
2.92245
21
2.02795
0
LINE
8
BLACK
6
CONTINUOUS
10
2.92245
20
2.02795
11
2.92481
21
2.01406
0
LINE
8
BLACK
6
CONTINUOUS
10
2.92481
20
2.01406
11
2.9256
21
2
0
LINE
8
BLACK
6
CONTINUOUS
10
2.9256
20
2
11
2.92481
21
1.98594
0
LINE
8
BLACK
6
CONTINUOUS
10
2.92481
20
1.98594
11
2.92245
21
1.97205
0
LINE
8
BLACK
6
CONTINUOUS
10
2.92245
20
1.97205
11
2.91855
21
1.95852
0
LINE
8
BLACK
6
CONTINUOUS
10
2.91855
20
1.95852
11
2.91316
21
1.9455
0
LINE
8
BLACK
6
CONTINUOUS
10
2.91316
20
1.9455
11
2.90635
21
1.93318
0
LINE
8
BLACK
6
CONTINUOUS
10
2.90635
20
1.93318
11
2.8982
21
1.92169
0
LINE
8
BLACK
6
CONTINUOUS
10
2.8982
20
1.92169
11
2.88881
21
1.91119
0
LINE
8
BLACK
6
CONTINUOUS
10
2.88881
20
1.91119
11
2.87831
21
1.9018
0
LINE
8
BLACK
6
CONTINUOUS
10
2.87831
20
1.9018
11
2.86682
21
1.89365
0
LINE
8
BLACK
6
CONTINUOUS
10
2.86682
20
1.89365
11
2.8545
21
1.88684
0
LINE
8
BLACK
6
CONTINUOUS
10
2.8545
20
1.88684
11
2.84148
21
1.88145
0
LINE
8
BLACK
6
CONTINUOUS
10
2.84148
20
1.88145
11
2.82795
21
1.87755
0
LINE
8
BLACK
6
CONTINUOUS
10
2.82795
20
1.87755
11
2.81406
21
1.87519
0
LINE
8
BLACK
6
CONTINUOUS
10
2.81406
20
1.87519
11
2.8
21
1.8744
0
LINE
8
BLACK
6
CONTINUOUS
10
2.8
20
1.8744
11
2.78594
21
1.87519
0
LINE
8
BLACK
6
CONTINUOUS
10
2.78594
20
1.87519
11
2.77205
21
1.87755
0
LINE
8
BLACK
6
CONTINUOUS
10
2.77205
20
1.87755
11
2.75852
21
1.88145
0
LINE
8
BLACK
6
CONTINUOUS
10
2.75852
20
1.88145
11
2.7455
21
1.88684
0
LINE
8
BLACK
6
CONTINUOUS
10
2.7455
20
1.88684
11
2.73318
21
1.89365
0
LINE
8
BLACK
6
CONTINUOUS
10
2.73318
20
1.89365
11
2.72169
21
1.9018
0
LINE
8
BLACK
6
CONTINUOUS
10
2.72169
20
1.9018
11
2.71119
21
1.91119
0
LINE
8
BLACK
6
CONTINUOUS
10
2.71119
20
1.91119
11
2.7018
21
1.92169
0
LINE
8
BLACK
6
CONTINUOUS
10
2.7018
20
1.92169
11
2.69365
21
1.93318
0
LINE
8
BLACK
6
CONTINUOUS
10
2.69365
20
1.93318
11
2.68684
21
1.9455
0
LINE
8
BLACK
6
CONTINUOUS
10
2.68684
20
1.9455
11
2.68145
21
1.95852
0
LINE
8
BLACK
6
CONTINUOUS
10
2.68145
20
1.95852
11
2.67755
21
1.97205
0
LINE
8
BLACK
6
CONTINUOUS
10
2.67755
20
1.97205
11
2.67519
21
1.98594
0
LINE
8
BLACK
6
CONTINUOUS
10
2.67519
20
1.98594
11
2.6744
21
2
0
LINE
8
BLACK
6
CONTINUOUS
10
2.6744
20
2
11
2.67519
21
2.01406
0
LINE
8
BLACK
6
CONTINUOUS
10
2.67519
20
2.01406
11
2.67755
21
2.02795
0
LINE
8
BLACK
6
CONTINUOUS
10
2.67755
20
2.02795
11
2.68145
21
2.04148
0
LINE
8
BLACK
6
CONTINUOUS
10
2.68145
20
2.04148
11
2.68684
21
2.0545
0
LINE
8
BLACK
6
CONTINUOUS
10
2.68684
20
2.0545
11
2.69365
21
2.06682
0
LINE
8
BLACK
6
CONTINUOUS
10
2.69365
20
2.06682
11
2.7018
21
2.07831
0
LINE
8
BLACK
6
CONTINUOUS
10
2.7018
20
2.07831
11
2.71119
21
2.08881
0
LINE
8
BLACK
6
CONTINUOUS
10
2.71119
20
2.08881
11
2.72169
21
2.0982
0
LINE
8
BLACK
6
CONTINUOUS
10
2.72169
20
2.0982
11
2.73318
21
2.10635
0
LINE
8
BLACK
6
CONTINUOUS
10
2.73318
20
2.10635
11
2.7455
21
2.11316
0
LINE
8
BLACK
6
CONTINUOUS
10
2.7455
20
2.11316
11
2.75852
21
2.11855
0
LINE
8
BLACK
6
CONTINUOUS
10
2.75852
20
2.11855
11
2.77205
21
2.12245
0
LINE
8
BLACK
6
CONTINUOUS
10
2.77205
20
2.12245
11
2.78594
21
2.12481
0
LINE
8
BLACK
6
CONTINUOUS
10
2.78594
20
2.12481
11
2.8
21
2.1256
0
LINE
8
BLACK
6
CONTINUOUS
10
2.8
20
2.1256
11
2.81406
21
2.12481
0
LINE
8
BLACK
6
CONTINUOUS
10
2.68996
20
1.98714
11
2.6922
21
1.97445
0
LINE
8
BLACK
6
CONTINUOUS
10
2.6922
20
1.97445
11
2.69589
21
1.96211
0
LINE
8
BLACK
6
CONTINUOUS
10
2.69589
20
1.96211
11
2.701
21
1.95028
0
LINE
8
BLACK
6
CONTINUOUS
10
2.701
20
1.95028
11
2.70744
21
1.93912
0
LINE
8
BLACK
6
CONTINUOUS
10
2.70744
20
1.93912
11
2.71513
21
1.92879
0
LINE
8
BLACK
6
CONTINUOUS
10
2.71513
20
1.92879
11
2.72397
21
1.91942
0
LINE
8
BLACK
6
CONTINUOUS
10
2.72397
20
1.91942
11
2.73384
21
1.91113
0
LINE
8
BLACK
6
CONTINUOUS
10
2.73384
20
1.91113
11
2.74461
21
1.90406
0
LINE
8
BLACK
6
CONTINUOUS
10
2.74461
20
1.90406
11
2.75612
21
1.89827
0
LINE
8
BLACK
6
CONTINUOUS
10
2.75612
20
1.89827
11
2.76823
21
1.89387
0
LINE
8
BLACK
6
CONTINUOUS
10
2.76823
20
1.89387
11
2.78076
21
1.8909
0
LINE
8
BLACK
6
CONTINUOUS
10
2.78076
20
1.8909
11
2.79356
21
1.8894
0
LINE
8
BLACK
6
CONTINUOUS
10
2.79356
20
1.8894
11
2.80644
21
1.8894
0
LINE
8
BLACK
6
CONTINUOUS
10
2.80644
20
1.8894
11
2.81924
21
1.8909
0
LINE
8
BLACK
6
CONTINUOUS
10
2.81924
20
1.8909
11
2.83177
21
1.89387
0
LINE
8
BLACK
6
CONTINUOUS
10
2.83177
20
1.89387
11
2.84388
21
1.89827
0
LINE
8
BLACK
6
CONTINUOUS
10
2.84388
20
1.89827
11
2.85539
21
1.90406
0
LINE
8
BLACK
6
CONTINUOUS
10
2.85539
20
1.90406
11
2.86616
21
1.91113
0
LINE
8
BLACK
6
CONTINUOUS
10
2.86616
20
1.91113
11
2.87603
21
1.91942
0
LINE
8
BLACK
6
CONTINUOUS
10
2.87603
20
1.91942
11
2.88487
21
1.92879
0
LINE
8
BLACK
6
CONTINUOUS
10
2.88487
20
1.92879
11
2.89256
21
1.93912
0
LINE
8
BLACK
6
CONTINUOUS
10
2.89256
20
1.93912
11
2.899
21
1.95028
0
LINE
8
BLACK
6
CONTINUOUS
10
2.899
20
1.95028
11
2.90411
21
1.96211
0
LINE
8
BLACK
6
CONTINUOUS
10
2.90411
20
1.96211
11
2.9078
21
1.97445
0
LINE
8
BLACK
6
CONTINUOUS
10
2.9078
20
1.97445
11
2.91004
21
1.98714
0
LINE
8
BLACK
6
CONTINUOUS
10
2.91004
20
1.98714
11
2.91079
21
2
0
LINE
8
BLACK
6
CONTINUOUS
10
2.91079
20
2
11
2.91004
21
2.01286
0
LINE
8
BLACK
6
CONTINUOUS
10
2.91004
20
2.01286
11
2.9078
21
2.02555
0
LINE
8
BLACK
6
CONTINUOUS
10
2.9078
20
2.02555
11
2.90411
21
2.03789
0
LINE
8
BLACK
6
CONTINUOUS
10
2.90411
20
2.03789
11
2.899
21
2.04972
0
LINE
8
BLACK
6
CONTINUOUS
10
2.899
20
2.04972
11
2.89256
21
2.06088
0
LINE
8
BLACK
6
CONTINUOUS
10
2.89256
20
2.06088
11
2.88487
21
2.07121
0
LINE
8
BLACK
6
CONTINUOUS
10
2.88487
20
2.07121
11
2.87603
21
2.08058
0
LINE
8
BLACK
6
CONTINUOUS
10
2.87603
20
2.08058
11
2.86616
21
2.08887
0
LINE
8
BLACK
6
CONTINUOUS
10
2.86616
20
2.08887
11
2.85539
21
2.09594
0
LINE
8
BLACK
6
CONTINUOUS
10
2.85539
20
2.09594
11
2.84388
21
2.10173
0
LINE
8
BLACK
6
CONTINUOUS
10
2.84388
20
2.10173
11
2.83177
21
2.10613
0
LINE
8
BLACK
6
CONTINUOUS
10
2.83177
20
2.10613
11
2.81924
21
2.1091
0
LINE
8
BLACK
6
CONTINUOUS
10
2.81924
20
2.1091
11
2.80644
21
2.1106
0
LINE
8
BLACK
6
CONTINUOUS
10
2.80644
20
2.1106
11
2.79356
21
2.1106
0
LINE
8
BLACK
6
CONTINUOUS
10
2.79356
20
2.1106
11
2.78076
21
2.1091
0
LINE
8
BLACK
6
CONTINUOUS
10
2.78076
20
2.1091
11
2.76823
21
2.10613
0
LINE
8
BLACK
6
CONTINUOUS
10
2.76823
20
2.10613
11
2.75612
21
2.10173
0
LINE
8
BLACK
6
CONTINUOUS
10
2.75612
20
2.10173
11
2.74461
21
2.09594
0
LINE
8
BLACK
6
CONTINUOUS
10
2.74461
20
2.09594
11
2.73384
21
2.08887
0
LINE
8
BLACK
6
CONTINUOUS
10
2.73384
20
2.08887
11
2.72397
21
2.08058
0
LINE
8
BLACK
6
CONTINUOUS
10
2.72397
20
2.08058
11
2.71513
21
2.07121
0
LINE
8
BLACK
6
CONTINUOUS
10
2.71513
20
2.07121
11
2.70744
21
2.06088
0
LINE
8
BLACK
6
CONTINUOUS
10
2.70744
20
2.06088
11
2.701
21
2.04972
0
LINE
8
BLACK
6
CONTINUOUS
10
2.701
20
2.04972
11
2.69589
21
2.03789
0
LINE
8
BLACK
6
CONTINUOUS
10
2.69589
20
2.03789
11
2.6922
21
2.02555
0
LINE
8
BLACK
6
CONTINUOUS
10
2.6922
20
2.02555
11
2.68996
21
2.01286
0
LINE
8
BLACK
6
CONTINUOUS
10
2.68996
20
2.01286
11
2.68921
21
2
0
LINE
8
BLACK
6
CONTINUOUS
10
2.68921
20
2
11
2.68996
21
1.98714
  0
ENDSEC
  0
EOF
