  0
SECTION
  2
HEADER
  9
$ANGBASE
  50
0.0
  9
$ANGDIR
  70
1
  9
$MEASUREMENT
  70
0
  0
ENDSEC
  0
SECTION
  2
TABLES
  0
TABLE
  2
LTYPE
  70
4
  0
LTYPE
  5
40F
  2
CONTINUOUS
  70
0
  3
Solid line
  72
65
  73
0
  40
0.0
  0
LTYPE
  5
410
  2
DASHDOT
 70
0
  3
Dash Dot ____ _ ____ _
 72
65
 73
4
 40
2.0
 49
1.25
 49
-0.25
 49
0.25
 49
-0.25
  0
LTYPE
  5
411
  2
DASHED
 70
0
  3
Dashed __ __ __ __ __
 72
65
 73
2
 40
0.75
 49
0.5
 49
-0.25
  0
LTYPE
  5
43B
  2
DOTTED
 70
0
  3
Dotted .  .  .  .
 72
65
 73
2
 40
0.2
 49
0.0
 49
-0.2
  0
ENDTAB
  0
TABLE
  2
STYLE
  70
4
  0
STYLE
  2
KICAD
  70
0
  40
0
  41
1
  42
1
  50
0
  71
0
  3
isocp.shx
  0
STYLE
  2
KICADB
  70
0
  40
0
  41
1
  42
1
  50
0
  71
0
  3
isocp.shx
  0
STYLE
  2
KICADI
  70
0
  40
0
  41
1
  42
1
  50
15
  71
0
  3
isocp.shx
  0
STYLE
  2
KICADBI
  70
0
  40
0
  41
1
  42
1
  50
15
  71
0
  3
isocp.shx
  0
ENDTAB
  0
TABLE
  2
LAYER
  70
1
  0
LAYER
  2
BLACK
  70
0
  62
7
  6
CONTINUOUS
  0
ENDTAB
  0
ENDSEC
  0
SECTION
  2
ENTITIES
0
LINE
8
BLACK
6
CONTINUOUS
10
2.34622
20
0.945248
11
2.35256
21
0.943029
0
LINE
8
BLACK
6
CONTINUOUS
10
2.35256
20
0.943029
11
2.35825
21
0.939455
0
LINE
8
BLACK
6
CONTINUOUS
10
2.35825
20
0.939455
11
2.363
21
0.934705
0
LINE
8
BLACK
6
CONTINUOUS
10
2.363
20
0.934705
11
2.36657
21
0.929016
0
LINE
8
BLACK
6
CONTINUOUS
10
2.36657
20
0.929016
11
2.36879
21
0.922676
0
LINE
8
BLACK
6
CONTINUOUS
10
2.36879
20
0.922676
11
2.36954
21
0.916
0
LINE
8
BLACK
6
CONTINUOUS
10
2.36954
20
0.916
11
2.36879
21
0.909324
0
LINE
8
BLACK
6
CONTINUOUS
10
2.36879
20
0.909324
11
2.36657
21
0.902984
0
LINE
8
BLACK
6
CONTINUOUS
10
2.36657
20
0.902984
11
2.363
21
0.897295
0
LINE
8
BLACK
6
CONTINUOUS
10
2.363
20
0.897295
11
2.35825
21
0.892545
0
LINE
8
BLACK
6
CONTINUOUS
10
2.35825
20
0.892545
11
2.35256
21
0.888971
0
LINE
8
BLACK
6
CONTINUOUS
10
2.35256
20
0.888971
11
2.34622
21
0.886752
0
LINE
8
BLACK
6
CONTINUOUS
10
2.34622
20
0.886752
11
2.33954
21
0.886
0
LINE
8
BLACK
6
CONTINUOUS
10
2.33954
20
0.886
11
2.33287
21
0.886752
0
LINE
8
BLACK
6
CONTINUOUS
10
2.33287
20
0.886752
11
2.32653
21
0.888971
0
LINE
8
BLACK
6
CONTINUOUS
10
2.32653
20
0.888971
11
2.32084
21
0.892545
0
LINE
8
BLACK
6
CONTINUOUS
10
2.32084
20
0.892545
11
2.31609
21
0.897295
0
LINE
8
BLACK
6
CONTINUOUS
10
2.31609
20
0.897295
11
2.31251
21
0.902984
0
LINE
8
BLACK
6
CONTINUOUS
10
2.31251
20
0.902984
11
2.3103
21
0.909324
0
LINE
8
BLACK
6
CONTINUOUS
10
2.3103
20
0.909324
11
2.30954
21
0.916
0
LINE
8
BLACK
6
CONTINUOUS
10
2.30954
20
0.916
11
2.3103
21
0.922676
0
LINE
8
BLACK
6
CONTINUOUS
10
2.3103
20
0.922676
11
2.31251
21
0.929016
0
LINE
8
BLACK
6
CONTINUOUS
10
2.31251
20
0.929016
11
2.31609
21
0.934705
0
LINE
8
BLACK
6
CONTINUOUS
10
2.31609
20
0.934705
11
2.32084
21
0.939455
0
LINE
8
BLACK
6
CONTINUOUS
10
2.32084
20
0.939455
11
2.32653
21
0.943029
0
LINE
8
BLACK
6
CONTINUOUS
10
2.32653
20
0.943029
11
2.33287
21
0.945248
0
LINE
8
BLACK
6
CONTINUOUS
10
2.33287
20
0.945248
11
2.33954
21
0.946
0
LINE
8
BLACK
6
CONTINUOUS
10
2.33954
20
0.946
11
2.34622
21
0.945248
0
LINE
8
BLACK
6
CONTINUOUS
10
2.13987
20
0.920977
11
2.14426
21
0.91874
0
LINE
8
BLACK
6
CONTINUOUS
10
2.14426
20
0.91874
11
2.14774
21
0.915256
0
LINE
8
BLACK
6
CONTINUOUS
10
2.14774
20
0.915256
11
2.14998
21
0.910866
0
LINE
8
BLACK
6
CONTINUOUS
10
2.14998
20
0.910866
11
2.15075
21
0.906
0
LINE
8
BLACK
6
CONTINUOUS
10
2.15075
20
0.906
11
2.14998
21
0.901134
0
LINE
8
BLACK
6
CONTINUOUS
10
2.14998
20
0.901134
11
2.14774
21
0.896744
0
LINE
8
BLACK
6
CONTINUOUS
10
2.14774
20
0.896744
11
2.14426
21
0.89326
0
LINE
8
BLACK
6
CONTINUOUS
10
2.14426
20
0.89326
11
2.13987
21
0.891023
0
LINE
8
BLACK
6
CONTINUOUS
10
2.13987
20
0.891023
11
2.135
21
0.890252
0
LINE
8
BLACK
6
CONTINUOUS
10
2.135
20
0.890252
11
2.13013
21
0.891023
0
LINE
8
BLACK
6
CONTINUOUS
10
2.13013
20
0.891023
11
2.12574
21
0.89326
0
LINE
8
BLACK
6
CONTINUOUS
10
2.12574
20
0.89326
11
2.12226
21
0.896744
0
LINE
8
BLACK
6
CONTINUOUS
10
2.12226
20
0.896744
11
2.12002
21
0.901134
0
LINE
8
BLACK
6
CONTINUOUS
10
2.12002
20
0.901134
11
2.11925
21
0.906
0
LINE
8
BLACK
6
CONTINUOUS
10
2.11925
20
0.906
11
2.12002
21
0.910866
0
LINE
8
BLACK
6
CONTINUOUS
10
2.12002
20
0.910866
11
2.12226
21
0.915256
0
LINE
8
BLACK
6
CONTINUOUS
10
2.12226
20
0.915256
11
2.12574
21
0.91874
0
LINE
8
BLACK
6
CONTINUOUS
10
2.12574
20
0.91874
11
2.13013
21
0.920977
0
LINE
8
BLACK
6
CONTINUOUS
10
2.13013
20
0.920977
11
2.135
21
0.921748
0
LINE
8
BLACK
6
CONTINUOUS
10
2.135
20
0.921748
11
2.13987
21
0.920977
0
LINE
8
BLACK
6
CONTINUOUS
10
1.90087
20
1.10598
11
1.90526
21
1.10374
0
LINE
8
BLACK
6
CONTINUOUS
10
1.90526
20
1.10374
11
1.90874
21
1.10026
0
LINE
8
BLACK
6
CONTINUOUS
10
1.90874
20
1.10026
11
1.90894
21
1.09986
0
LINE
8
BLACK
6
CONTINUOUS
10
1.90894
20
1.09986
11
1.9638
21
1.09986
0
LINE
8
BLACK
6
CONTINUOUS
10
1.9638
20
1.09986
11
1.96564
21
1.09966
0
LINE
8
BLACK
6
CONTINUOUS
10
1.96564
20
1.09966
11
1.96629
21
1.09938
0
LINE
8
BLACK
6
CONTINUOUS
10
1.96629
20
1.09938
11
1.96698
21
1.09927
0
LINE
8
BLACK
6
CONTINUOUS
10
1.96698
20
1.09927
11
1.96795
21
1.09864
0
LINE
8
BLACK
6
CONTINUOUS
10
1.96795
20
1.09864
11
1.96901
21
1.09817
0
LINE
8
BLACK
6
CONTINUOUS
10
1.96901
20
1.09817
11
1.96948
21
1.09765
0
LINE
8
BLACK
6
CONTINUOUS
10
1.96948
20
1.09765
11
1.97007
21
1.09726
0
LINE
8
BLACK
6
CONTINUOUS
10
1.97007
20
1.09726
11
1.99862
21
1.06871
0
LINE
8
BLACK
6
CONTINUOUS
10
1.99862
20
1.06871
11
2.0014
21
1.06915
0
LINE
8
BLACK
6
CONTINUOUS
10
2.0014
20
1.06915
11
2.00627
21
1.06838
0
LINE
8
BLACK
6
CONTINUOUS
10
2.00627
20
1.06838
11
2.01066
21
1.06614
0
LINE
8
BLACK
6
CONTINUOUS
10
2.01066
20
1.06614
11
2.01414
21
1.06266
0
LINE
8
BLACK
6
CONTINUOUS
10
2.01414
20
1.06266
11
2.01638
21
1.05827
0
LINE
8
BLACK
6
CONTINUOUS
10
2.01638
20
1.05827
11
2.01715
21
1.0534
0
LINE
8
BLACK
6
CONTINUOUS
10
2.01715
20
1.0534
11
2.01638
21
1.04854
0
LINE
8
BLACK
6
CONTINUOUS
10
2.01638
20
1.04854
11
2.01414
21
1.04415
0
LINE
8
BLACK
6
CONTINUOUS
10
2.01414
20
1.04415
11
2.01066
21
1.04066
0
LINE
8
BLACK
6
CONTINUOUS
10
2.01066
20
1.04066
11
2.00627
21
1.03842
0
LINE
8
BLACK
6
CONTINUOUS
10
2.00627
20
1.03842
11
2.0014
21
1.03765
0
LINE
8
BLACK
6
CONTINUOUS
10
2.0014
20
1.03765
11
1.99654
21
1.03842
0
LINE
8
BLACK
6
CONTINUOUS
10
1.99654
20
1.03842
11
1.99215
21
1.04066
0
LINE
8
BLACK
6
CONTINUOUS
10
1.99215
20
1.04066
11
1.98866
21
1.04415
0
LINE
8
BLACK
6
CONTINUOUS
10
1.98866
20
1.04415
11
1.98642
21
1.04854
0
LINE
8
BLACK
6
CONTINUOUS
10
1.98642
20
1.04854
11
1.98565
21
1.0534
0
LINE
8
BLACK
6
CONTINUOUS
10
1.98565
20
1.0534
11
1.98609
21
1.05618
0
LINE
8
BLACK
6
CONTINUOUS
10
1.98609
20
1.05618
11
1.96013
21
1.08214
0
LINE
8
BLACK
6
CONTINUOUS
10
1.96013
20
1.08214
11
1.90894
21
1.08214
0
LINE
8
BLACK
6
CONTINUOUS
10
1.90894
20
1.08214
11
1.90874
21
1.08174
0
LINE
8
BLACK
6
CONTINUOUS
10
1.90874
20
1.08174
11
1.90526
21
1.07826
0
LINE
8
BLACK
6
CONTINUOUS
10
1.90526
20
1.07826
11
1.90087
21
1.07602
0
LINE
8
BLACK
6
CONTINUOUS
10
1.90087
20
1.07602
11
1.896
21
1.07525
0
LINE
8
BLACK
6
CONTINUOUS
10
1.896
20
1.07525
11
1.89113
21
1.07602
0
LINE
8
BLACK
6
CONTINUOUS
10
1.89113
20
1.07602
11
1.88674
21
1.07826
0
LINE
8
BLACK
6
CONTINUOUS
10
1.88674
20
1.07826
11
1.88326
21
1.08174
0
LINE
8
BLACK
6
CONTINUOUS
10
1.88326
20
1.08174
11
1.88102
21
1.08613
0
LINE
8
BLACK
6
CONTINUOUS
10
1.88102
20
1.08613
11
1.88025
21
1.091
0
LINE
8
BLACK
6
CONTINUOUS
10
1.88025
20
1.091
11
1.88102
21
1.09587
0
LINE
8
BLACK
6
CONTINUOUS
10
1.88102
20
1.09587
11
1.88326
21
1.10026
0
LINE
8
BLACK
6
CONTINUOUS
10
1.88326
20
1.10026
11
1.88674
21
1.10374
0
LINE
8
BLACK
6
CONTINUOUS
10
1.88674
20
1.10374
11
1.89113
21
1.10598
0
LINE
8
BLACK
6
CONTINUOUS
10
1.89113
20
1.10598
11
1.896
21
1.10675
0
LINE
8
BLACK
6
CONTINUOUS
10
1.896
20
1.10675
11
1.90087
21
1.10598
0
LINE
8
BLACK
6
CONTINUOUS
10
2.34622
20
1.1421
11
2.35256
21
1.13988
0
LINE
8
BLACK
6
CONTINUOUS
10
2.35256
20
1.13988
11
2.35825
21
1.13631
0
LINE
8
BLACK
6
CONTINUOUS
10
2.35825
20
1.13631
11
2.363
21
1.13156
0
LINE
8
BLACK
6
CONTINUOUS
10
2.363
20
1.13156
11
2.36657
21
1.12587
0
LINE
8
BLACK
6
CONTINUOUS
10
2.36657
20
1.12587
11
2.36879
21
1.11953
0
LINE
8
BLACK
6
CONTINUOUS
10
2.36879
20
1.11953
11
2.36954
21
1.11285
0
LINE
8
BLACK
6
CONTINUOUS
10
2.36954
20
1.11285
11
2.36879
21
1.10617
0
LINE
8
BLACK
6
CONTINUOUS
10
2.36879
20
1.10617
11
2.36657
21
1.09983
0
LINE
8
BLACK
6
CONTINUOUS
10
2.36657
20
1.09983
11
2.363
21
1.09415
0
LINE
8
BLACK
6
CONTINUOUS
10
2.363
20
1.09415
11
2.35825
21
1.0894
0
LINE
8
BLACK
6
CONTINUOUS
10
2.35825
20
1.0894
11
2.35256
21
1.08582
0
LINE
8
BLACK
6
CONTINUOUS
10
2.35256
20
1.08582
11
2.34622
21
1.0836
0
LINE
8
BLACK
6
CONTINUOUS
10
2.34622
20
1.0836
11
2.33954
21
1.08285
0
LINE
8
BLACK
6
CONTINUOUS
10
2.33954
20
1.08285
11
2.33287
21
1.0836
0
LINE
8
BLACK
6
CONTINUOUS
10
2.33287
20
1.0836
11
2.32653
21
1.08582
0
LINE
8
BLACK
6
CONTINUOUS
10
2.32653
20
1.08582
11
2.32084
21
1.0894
0
LINE
8
BLACK
6
CONTINUOUS
10
2.32084
20
1.0894
11
2.31609
21
1.09415
0
LINE
8
BLACK
6
CONTINUOUS
10
2.31609
20
1.09415
11
2.31251
21
1.09983
0
LINE
8
BLACK
6
CONTINUOUS
10
2.31251
20
1.09983
11
2.3103
21
1.10617
0
LINE
8
BLACK
6
CONTINUOUS
10
2.3103
20
1.10617
11
2.30954
21
1.11285
0
LINE
8
BLACK
6
CONTINUOUS
10
2.30954
20
1.11285
11
2.3103
21
1.11953
0
LINE
8
BLACK
6
CONTINUOUS
10
2.3103
20
1.11953
11
2.31251
21
1.12587
0
LINE
8
BLACK
6
CONTINUOUS
10
2.31251
20
1.12587
11
2.31609
21
1.13156
0
LINE
8
BLACK
6
CONTINUOUS
10
2.31609
20
1.13156
11
2.32084
21
1.13631
0
LINE
8
BLACK
6
CONTINUOUS
10
2.32084
20
1.13631
11
2.32653
21
1.13988
0
LINE
8
BLACK
6
CONTINUOUS
10
2.32653
20
1.13988
11
2.33287
21
1.1421
0
LINE
8
BLACK
6
CONTINUOUS
10
2.33287
20
1.1421
11
2.33954
21
1.14285
0
LINE
8
BLACK
6
CONTINUOUS
10
2.33954
20
1.14285
11
2.34622
21
1.1421
0
LINE
8
BLACK
6
CONTINUOUS
10
1.03
20
1.97
11
0.97
21
1.97
0
LINE
8
BLACK
6
CONTINUOUS
10
0.97
20
1.97
11
0.97
21
2.03
0
LINE
8
BLACK
6
CONTINUOUS
10
0.97
20
2.03
11
1.03
21
2.03
0
LINE
8
BLACK
6
CONTINUOUS
10
1.03
20
2.03
11
1.03
21
1.97
0
LINE
8
BLACK
6
CONTINUOUS
10
1.13
20
1.97
11
1.07
21
1.97
0
LINE
8
BLACK
6
CONTINUOUS
10
1.07
20
1.97
11
1.07
21
2.03
0
LINE
8
BLACK
6
CONTINUOUS
10
1.07
20
2.03
11
1.13
21
2.03
0
LINE
8
BLACK
6
CONTINUOUS
10
1.13
20
2.03
11
1.13
21
1.97
0
LINE
8
BLACK
6
CONTINUOUS
10
1.23
20
1.97
11
1.17
21
1.97
0
LINE
8
BLACK
6
CONTINUOUS
10
1.17
20
1.97
11
1.17
21
2.03
0
LINE
8
BLACK
6
CONTINUOUS
10
1.17
20
2.03
11
1.23
21
2.03
0
LINE
8
BLACK
6
CONTINUOUS
10
1.23
20
2.03
11
1.23
21
1.97
0
LINE
8
BLACK
6
CONTINUOUS
10
1.33
20
1.97
11
1.27
21
1.97
0
LINE
8
BLACK
6
CONTINUOUS
10
1.27
20
1.97
11
1.27
21
2.03
0
LINE
8
BLACK
6
CONTINUOUS
10
1.27
20
2.03
11
1.33
21
2.03
0
LINE
8
BLACK
6
CONTINUOUS
10
1.33
20
2.03
11
1.33
21
1.97
0
LINE
8
BLACK
6
CONTINUOUS
10
1.43
20
1.97
11
1.37
21
1.97
0
LINE
8
BLACK
6
CONTINUOUS
10
1.37
20
1.97
11
1.37
21
2.03
0
LINE
8
BLACK
6
CONTINUOUS
10
1.37
20
2.03
11
1.43
21
2.03
0
LINE
8
BLACK
6
CONTINUOUS
10
1.43
20
2.03
11
1.43
21
1.97
0
LINE
8
BLACK
6
CONTINUOUS
10
1.53
20
1.97
11
1.47
21
1.97
0
LINE
8
BLACK
6
CONTINUOUS
10
1.47
20
1.97
11
1.47
21
2.03
0
LINE
8
BLACK
6
CONTINUOUS
10
1.47
20
2.03
11
1.53
21
2.03
0
LINE
8
BLACK
6
CONTINUOUS
10
1.53
20
2.03
11
1.53
21
1.97
0
LINE
8
BLACK
6
CONTINUOUS
10
1.63
20
1.97
11
1.57
21
1.97
0
LINE
8
BLACK
6
CONTINUOUS
10
1.57
20
1.97
11
1.57
21
2.03
0
LINE
8
BLACK
6
CONTINUOUS
10
1.57
20
2.03
11
1.63
21
2.03
0
LINE
8
BLACK
6
CONTINUOUS
10
1.63
20
2.03
11
1.63
21
1.97
0
LINE
8
BLACK
6
CONTINUOUS
10
1.73
20
1.97
11
1.67
21
1.97
0
LINE
8
BLACK
6
CONTINUOUS
10
1.67
20
1.97
11
1.67
21
2.03
0
LINE
8
BLACK
6
CONTINUOUS
10
1.67
20
2.03
11
1.73
21
2.03
0
LINE
8
BLACK
6
CONTINUOUS
10
1.73
20
2.03
11
1.73
21
1.97
0
LINE
8
BLACK
6
CONTINUOUS
10
1.83
20
1.97
11
1.77
21
1.97
0
LINE
8
BLACK
6
CONTINUOUS
10
1.77
20
1.97
11
1.77
21
2.03
0
LINE
8
BLACK
6
CONTINUOUS
10
1.77
20
2.03
11
1.83
21
2.03
0
LINE
8
BLACK
6
CONTINUOUS
10
1.83
20
2.03
11
1.83
21
1.97
0
LINE
8
BLACK
6
CONTINUOUS
10
1.03
20
2.07
11
0.97
21
2.07
0
LINE
8
BLACK
6
CONTINUOUS
10
0.97
20
2.07
11
0.97
21
2.13
0
LINE
8
BLACK
6
CONTINUOUS
10
0.97
20
2.13
11
1.03
21
2.13
0
LINE
8
BLACK
6
CONTINUOUS
10
1.03
20
2.13
11
1.03
21
2.07
0
LINE
8
BLACK
6
CONTINUOUS
10
1.13
20
2.07
11
1.07
21
2.07
0
LINE
8
BLACK
6
CONTINUOUS
10
1.07
20
2.07
11
1.07
21
2.13
0
LINE
8
BLACK
6
CONTINUOUS
10
1.07
20
2.13
11
1.13
21
2.13
0
LINE
8
BLACK
6
CONTINUOUS
10
1.13
20
2.13
11
1.13
21
2.07
0
LINE
8
BLACK
6
CONTINUOUS
10
1.23
20
2.07
11
1.17
21
2.07
0
LINE
8
BLACK
6
CONTINUOUS
10
1.17
20
2.07
11
1.17
21
2.13
0
LINE
8
BLACK
6
CONTINUOUS
10
1.17
20
2.13
11
1.23
21
2.13
0
LINE
8
BLACK
6
CONTINUOUS
10
1.23
20
2.13
11
1.23
21
2.07
0
LINE
8
BLACK
6
CONTINUOUS
10
1.33
20
2.07
11
1.27
21
2.07
0
LINE
8
BLACK
6
CONTINUOUS
10
1.27
20
2.07
11
1.27
21
2.13
0
LINE
8
BLACK
6
CONTINUOUS
10
1.27
20
2.13
11
1.33
21
2.13
0
LINE
8
BLACK
6
CONTINUOUS
10
1.33
20
2.13
11
1.33
21
2.07
0
LINE
8
BLACK
6
CONTINUOUS
10
1.43
20
2.07
11
1.37
21
2.07
0
LINE
8
BLACK
6
CONTINUOUS
10
1.37
20
2.07
11
1.37
21
2.13
0
LINE
8
BLACK
6
CONTINUOUS
10
1.37
20
2.13
11
1.43
21
2.13
0
LINE
8
BLACK
6
CONTINUOUS
10
1.43
20
2.13
11
1.43
21
2.07
0
LINE
8
BLACK
6
CONTINUOUS
10
1.53
20
2.07
11
1.47
21
2.07
0
LINE
8
BLACK
6
CONTINUOUS
10
1.47
20
2.07
11
1.47
21
2.13
0
LINE
8
BLACK
6
CONTINUOUS
10
1.47
20
2.13
11
1.53
21
2.13
0
LINE
8
BLACK
6
CONTINUOUS
10
1.53
20
2.13
11
1.53
21
2.07
0
LINE
8
BLACK
6
CONTINUOUS
10
1.63
20
2.07
11
1.57
21
2.07
0
LINE
8
BLACK
6
CONTINUOUS
10
1.57
20
2.07
11
1.57
21
2.13
0
LINE
8
BLACK
6
CONTINUOUS
10
1.57
20
2.13
11
1.63
21
2.13
0
LINE
8
BLACK
6
CONTINUOUS
10
1.63
20
2.13
11
1.63
21
2.07
0
LINE
8
BLACK
6
CONTINUOUS
10
1.73
20
2.07
11
1.67
21
2.07
0
LINE
8
BLACK
6
CONTINUOUS
10
1.67
20
2.07
11
1.67
21
2.13
0
LINE
8
BLACK
6
CONTINUOUS
10
1.67
20
2.13
11
1.73
21
2.13
0
LINE
8
BLACK
6
CONTINUOUS
10
1.73
20
2.13
11
1.73
21
2.07
0
LINE
8
BLACK
6
CONTINUOUS
10
1.83
20
2.07
11
1.77
21
2.07
0
LINE
8
BLACK
6
CONTINUOUS
10
1.77
20
2.07
11
1.77
21
2.13
0
LINE
8
BLACK
6
CONTINUOUS
10
1.77
20
2.13
11
1.83
21
2.13
0
LINE
8
BLACK
6
CONTINUOUS
10
1.83
20
2.13
11
1.83
21
2.07
0
LINE
8
BLACK
6
CONTINUOUS
10
2.23
20
1.98272
11
2.25847
21
1.95425
0
LINE
8
BLACK
6
CONTINUOUS
10
2.25847
20
1.95425
11
2.50961
21
1.95425
0
LINE
8
BLACK
6
CONTINUOUS
10
2.50961
20
1.95425
11
2.51145
21
1.95406
0
LINE
8
BLACK
6
CONTINUOUS
10
2.51145
20
1.95406
11
2.51209
21
1.95377
0
LINE
8
BLACK
6
CONTINUOUS
10
2.51209
20
1.95377
11
2.51278
21
1.95366
0
LINE
8
BLACK
6
CONTINUOUS
10
2.51278
20
1.95366
11
2.51375
21
1.95303
0
LINE
8
BLACK
6
CONTINUOUS
10
2.51375
20
1.95303
11
2.51481
21
1.95256
0
LINE
8
BLACK
6
CONTINUOUS
10
2.51481
20
1.95256
11
2.51528
21
1.95204
0
LINE
8
BLACK
6
CONTINUOUS
10
2.51528
20
1.95204
11
2.51587
21
1.95166
0
LINE
8
BLACK
6
CONTINUOUS
10
2.51587
20
1.95166
11
2.80626
21
1.66126
0
LINE
8
BLACK
6
CONTINUOUS
10
2.80626
20
1.66126
11
2.80743
21
1.65982
0
LINE
8
BLACK
6
CONTINUOUS
10
2.80743
20
1.65982
11
2.80768
21
1.65917
0
LINE
8
BLACK
6
CONTINUOUS
10
2.80768
20
1.65917
11
2.80809
21
1.6586
0
LINE
8
BLACK
6
CONTINUOUS
10
2.80809
20
1.6586
11
2.80833
21
1.65747
0
LINE
8
BLACK
6
CONTINUOUS
10
2.80833
20
1.65747
11
2.80875
21
1.65639
0
LINE
8
BLACK
6
CONTINUOUS
10
2.80875
20
1.65639
11
2.80871
21
1.65569
0
LINE
8
BLACK
6
CONTINUOUS
10
2.80871
20
1.65569
11
2.80886
21
1.655
0
LINE
8
BLACK
6
CONTINUOUS
10
2.80886
20
1.655
11
2.80886
21
1.18294
0
LINE
8
BLACK
6
CONTINUOUS
10
2.80886
20
1.18294
11
2.80926
21
1.18274
0
LINE
8
BLACK
6
CONTINUOUS
10
2.80926
20
1.18274
11
2.81274
21
1.17926
0
LINE
8
BLACK
6
CONTINUOUS
10
2.81274
20
1.17926
11
2.81498
21
1.17487
0
LINE
8
BLACK
6
CONTINUOUS
10
2.81498
20
1.17487
11
2.81575
21
1.17
0
LINE
8
BLACK
6
CONTINUOUS
10
2.81575
20
1.17
11
2.81498
21
1.16513
0
LINE
8
BLACK
6
CONTINUOUS
10
2.81498
20
1.16513
11
2.81274
21
1.16074
0
LINE
8
BLACK
6
CONTINUOUS
10
2.81274
20
1.16074
11
2.80926
21
1.15726
0
LINE
8
BLACK
6
CONTINUOUS
10
2.80926
20
1.15726
11
2.80487
21
1.15502
0
LINE
8
BLACK
6
CONTINUOUS
10
2.80487
20
1.15502
11
2.8
21
1.15425
0
LINE
8
BLACK
6
CONTINUOUS
10
2.8
20
1.15425
11
2.79513
21
1.15502
0
LINE
8
BLACK
6
CONTINUOUS
10
2.79513
20
1.15502
11
2.79074
21
1.15726
0
LINE
8
BLACK
6
CONTINUOUS
10
2.79074
20
1.15726
11
2.78726
21
1.16074
0
LINE
8
BLACK
6
CONTINUOUS
10
2.78726
20
1.16074
11
2.78502
21
1.16513
0
LINE
8
BLACK
6
CONTINUOUS
10
2.78502
20
1.16513
11
2.78425
21
1.17
0
LINE
8
BLACK
6
CONTINUOUS
10
2.78425
20
1.17
11
2.78502
21
1.17487
0
LINE
8
BLACK
6
CONTINUOUS
10
2.78502
20
1.17487
11
2.78726
21
1.17926
0
LINE
8
BLACK
6
CONTINUOUS
10
2.78726
20
1.17926
11
2.79074
21
1.18274
0
LINE
8
BLACK
6
CONTINUOUS
10
2.79074
20
1.18274
11
2.79114
21
1.18294
0
LINE
8
BLACK
6
CONTINUOUS
10
2.79114
20
1.18294
11
2.79114
21
1.65133
0
LINE
8
BLACK
6
CONTINUOUS
10
2.79114
20
1.65133
11
2.50594
21
1.93654
0
LINE
8
BLACK
6
CONTINUOUS
10
2.50594
20
1.93654
11
2.2548
21
1.93654
0
LINE
8
BLACK
6
CONTINUOUS
10
2.2548
20
1.93654
11
2.25296
21
1.93673
0
LINE
8
BLACK
6
CONTINUOUS
10
2.25296
20
1.93673
11
2.25232
21
1.93701
0
LINE
8
BLACK
6
CONTINUOUS
10
2.25232
20
1.93701
11
2.25163
21
1.93712
0
LINE
8
BLACK
6
CONTINUOUS
10
2.25163
20
1.93712
11
2.25066
21
1.93776
0
LINE
8
BLACK
6
CONTINUOUS
10
2.25066
20
1.93776
11
2.2496
21
1.93823
0
LINE
8
BLACK
6
CONTINUOUS
10
2.2496
20
1.93823
11
2.24913
21
1.93875
0
LINE
8
BLACK
6
CONTINUOUS
10
2.24913
20
1.93875
11
2.24854
21
1.93913
0
LINE
8
BLACK
6
CONTINUOUS
10
2.24854
20
1.93913
11
2.21767
21
1.97
0
LINE
8
BLACK
6
CONTINUOUS
10
2.21767
20
1.97
11
2.17
21
1.97
0
LINE
8
BLACK
6
CONTINUOUS
10
2.17
20
1.97
11
2.17
21
2.03
0
LINE
8
BLACK
6
CONTINUOUS
10
2.17
20
2.03
11
2.23
21
2.03
0
LINE
8
BLACK
6
CONTINUOUS
10
2.23
20
2.03
11
2.23
21
1.98272
0
LINE
8
BLACK
6
CONTINUOUS
10
2.03
20
1.97
11
1.97
21
1.97
0
LINE
8
BLACK
6
CONTINUOUS
10
1.97
20
1.97
11
1.97
21
2.03
0
LINE
8
BLACK
6
CONTINUOUS
10
1.97
20
2.03
11
2.03
21
2.03
0
LINE
8
BLACK
6
CONTINUOUS
10
2.03
20
2.03
11
2.03
21
1.97
0
LINE
8
BLACK
6
CONTINUOUS
10
2.13
20
1.97
11
2.07
21
1.97
0
LINE
8
BLACK
6
CONTINUOUS
10
2.07
20
1.97
11
2.07
21
2.03
0
LINE
8
BLACK
6
CONTINUOUS
10
2.07
20
2.03
11
2.13
21
2.03
0
LINE
8
BLACK
6
CONTINUOUS
10
2.13
20
2.03
11
2.13
21
1.97
0
LINE
8
BLACK
6
CONTINUOUS
10
2.03
20
2.07
11
1.97
21
2.07
0
LINE
8
BLACK
6
CONTINUOUS
10
1.97
20
2.07
11
1.97
21
2.13
0
LINE
8
BLACK
6
CONTINUOUS
10
1.97
20
2.13
11
2.03
21
2.13
0
LINE
8
BLACK
6
CONTINUOUS
10
2.03
20
2.13
11
2.03
21
2.07
0
LINE
8
BLACK
6
CONTINUOUS
10
2.13
20
2.07
11
2.07
21
2.07
0
LINE
8
BLACK
6
CONTINUOUS
10
2.07
20
2.07
11
2.07
21
2.13
0
LINE
8
BLACK
6
CONTINUOUS
10
2.07
20
2.13
11
2.13
21
2.13
0
LINE
8
BLACK
6
CONTINUOUS
10
2.13
20
2.13
11
2.13
21
2.07
0
LINE
8
BLACK
6
CONTINUOUS
10
2.23
20
2.07
11
2.17
21
2.07
0
LINE
8
BLACK
6
CONTINUOUS
10
2.17
20
2.07
11
2.17
21
2.13
0
LINE
8
BLACK
6
CONTINUOUS
10
2.17
20
2.13
11
2.23
21
2.13
0
LINE
8
BLACK
6
CONTINUOUS
10
2.23
20
2.13
11
2.23
21
2.07
0
LINE
8
BLACK
6
CONTINUOUS
10
2.96802
20
2.16951
11
2.96985
21
2.1674
0
LINE
8
BLACK
6
CONTINUOUS
10
2.96985
20
2.1674
11
2.9703
21
2.16533
0
LINE
8
BLACK
6
CONTINUOUS
10
2.9703
20
2.16533
11
2.9703
21
0.234665
0
LINE
8
BLACK
6
CONTINUOUS
10
2.9703
20
0.234665
11
2.96951
21
0.231983
0
LINE
8
BLACK
6
CONTINUOUS
10
2.96951
20
0.231983
11
2.9674
21
0.230153
0
LINE
8
BLACK
6
CONTINUOUS
10
2.9674
20
0.230153
11
2.96533
21
0.229705
0
LINE
8
BLACK
6
CONTINUOUS
10
2.96533
20
0.229705
11
0.234665
21
0.229705
0
LINE
8
BLACK
6
CONTINUOUS
10
0.234665
20
0.229705
11
0.231983
21
0.230492
0
LINE
8
BLACK
6
CONTINUOUS
10
0.231983
20
0.230492
11
0.230153
21
0.232605
0
LINE
8
BLACK
6
CONTINUOUS
10
0.230153
20
0.232605
11
0.229705
21
0.234665
0
LINE
8
BLACK
6
CONTINUOUS
10
0.229705
20
0.234665
11
0.229705
21
0.906
0
LINE
8
BLACK
6
CONTINUOUS
10
0.229705
20
0.906
11
0.229705
21
1.091
0
LINE
8
BLACK
6
CONTINUOUS
10
0.229705
20
1.091
11
0.229705
21
1.96876
0
LINE
8
BLACK
6
CONTINUOUS
10
0.229705
20
1.96876
11
0.229705
21
2.16533
0
LINE
8
BLACK
6
CONTINUOUS
10
0.229705
20
2.16533
11
0.230492
21
2.16802
0
LINE
8
BLACK
6
CONTINUOUS
10
0.230492
20
2.16802
11
0.232605
21
2.16985
0
LINE
8
BLACK
6
CONTINUOUS
10
0.232605
20
2.16985
11
0.234665
21
2.1703
0
LINE
8
BLACK
6
CONTINUOUS
10
0.234665
20
2.1703
11
2.96533
21
2.1703
0
LINE
8
BLACK
6
CONTINUOUS
10
2.96533
20
2.1703
11
2.96802
21
2.16951
0
LINE
8
BLACK
6
CONTINUOUS
10
2.27074
20
0.905629
11
2.27074
21
0.905629
0
LINE
8
BLACK
6
CONTINUOUS
10
2.27074
20
0.905629
11
2.27305
21
0.89549
0
LINE
8
BLACK
6
CONTINUOUS
10
2.27305
20
0.89549
11
2.27685
21
0.885809
0
LINE
8
BLACK
6
CONTINUOUS
10
2.27685
20
0.885809
11
2.27685
21
0.885808
0
LINE
8
BLACK
6
CONTINUOUS
10
2.27685
20
0.885808
11
2.28205
21
0.876802
0
LINE
8
BLACK
6
CONTINUOUS
10
2.28205
20
0.876802
11
2.28205
21
0.876802
0
LINE
8
BLACK
6
CONTINUOUS
10
2.28205
20
0.876802
11
2.28205
21
0.876802
0
LINE
8
BLACK
6
CONTINUOUS
10
2.28205
20
0.876802
11
2.28853
21
0.868671
0
LINE
8
BLACK
6
CONTINUOUS
10
2.28853
20
0.868671
11
2.29616
21
0.861597
0
LINE
8
BLACK
6
CONTINUOUS
10
2.29616
20
0.861597
11
2.29616
21
0.861597
0
LINE
8
BLACK
6
CONTINUOUS
10
2.29616
20
0.861597
11
2.30475
21
0.855738
0
LINE
8
BLACK
6
CONTINUOUS
10
2.30475
20
0.855738
11
2.30475
21
0.855738
0
LINE
8
BLACK
6
CONTINUOUS
10
2.30475
20
0.855738
11
2.31412
21
0.851226
0
LINE
8
BLACK
6
CONTINUOUS
10
2.31412
20
0.851226
11
2.31412
21
0.851226
0
LINE
8
BLACK
6
CONTINUOUS
10
2.31412
20
0.851226
11
2.31412
21
0.851226
0
LINE
8
BLACK
6
CONTINUOUS
10
2.31412
20
0.851226
11
2.32291
21
0.848513
0
LINE
8
BLACK
6
CONTINUOUS
10
2.32291
20
0.848513
11
2.32406
21
0.84816
0
LINE
8
BLACK
6
CONTINUOUS
10
2.32406
20
0.84816
11
2.32406
21
0.84816
0
LINE
8
BLACK
6
CONTINUOUS
10
2.32406
20
0.84816
11
2.33434
21
0.84661
0
LINE
8
BLACK
6
CONTINUOUS
10
2.33434
20
0.84661
11
2.33434
21
0.84661
0
LINE
8
BLACK
6
CONTINUOUS
10
2.33434
20
0.84661
11
2.34474
21
0.84661
0
LINE
8
BLACK
6
CONTINUOUS
10
2.34474
20
0.84661
11
2.34474
21
0.84661
0
LINE
8
BLACK
6
CONTINUOUS
10
2.34474
20
0.84661
11
2.35503
21
0.84816
0
LINE
8
BLACK
6
CONTINUOUS
10
2.35503
20
0.84816
11
2.36497
21
0.851226
0
LINE
8
BLACK
6
CONTINUOUS
10
2.36497
20
0.851226
11
2.37434
21
0.855738
0
LINE
8
BLACK
6
CONTINUOUS
10
2.37434
20
0.855738
11
2.38293
21
0.861597
0
LINE
8
BLACK
6
CONTINUOUS
10
2.38293
20
0.861597
11
2.39055
21
0.868671
0
LINE
8
BLACK
6
CONTINUOUS
10
2.39055
20
0.868671
11
2.39704
21
0.876802
0
LINE
8
BLACK
6
CONTINUOUS
10
2.39704
20
0.876802
11
2.40224
21
0.885809
0
LINE
8
BLACK
6
CONTINUOUS
10
2.40224
20
0.885809
11
2.40604
21
0.89549
0
LINE
8
BLACK
6
CONTINUOUS
10
2.40604
20
0.89549
11
2.40835
21
0.905629
0
LINE
8
BLACK
6
CONTINUOUS
10
2.40835
20
0.905629
11
2.40913
21
0.916
0
LINE
8
BLACK
6
CONTINUOUS
10
2.40913
20
0.916
11
2.40835
21
0.926371
0
LINE
8
BLACK
6
CONTINUOUS
10
2.40835
20
0.926371
11
2.40604
21
0.93651
0
LINE
8
BLACK
6
CONTINUOUS
10
2.40604
20
0.93651
11
2.40224
21
0.946191
0
LINE
8
BLACK
6
CONTINUOUS
10
2.40224
20
0.946191
11
2.40224
21
0.946192
0
LINE
8
BLACK
6
CONTINUOUS
10
2.40224
20
0.946192
11
2.40224
21
0.946192
0
LINE
8
BLACK
6
CONTINUOUS
10
2.40224
20
0.946192
11
2.39704
21
0.955198
0
LINE
8
BLACK
6
CONTINUOUS
10
2.39704
20
0.955198
11
2.39704
21
0.955198
0
LINE
8
BLACK
6
CONTINUOUS
10
2.39704
20
0.955198
11
2.39055
21
0.963329
0
LINE
8
BLACK
6
CONTINUOUS
10
2.39055
20
0.963329
11
2.38293
21
0.970403
0
LINE
8
BLACK
6
CONTINUOUS
10
2.38293
20
0.970403
11
2.38293
21
0.970403
0
LINE
8
BLACK
6
CONTINUOUS
10
2.38293
20
0.970403
11
2.37434
21
0.976262
0
LINE
8
BLACK
6
CONTINUOUS
10
2.37434
20
0.976262
11
2.37434
21
0.976262
0
LINE
8
BLACK
6
CONTINUOUS
10
2.37434
20
0.976262
11
2.36497
21
0.980774
0
LINE
8
BLACK
6
CONTINUOUS
10
2.36497
20
0.980774
11
2.36497
21
0.980774
0
LINE
8
BLACK
6
CONTINUOUS
10
2.36497
20
0.980774
11
2.36497
21
0.980774
0
LINE
8
BLACK
6
CONTINUOUS
10
2.36497
20
0.980774
11
2.36114
21
0.981954
0
LINE
8
BLACK
6
CONTINUOUS
10
2.36114
20
0.981954
11
2.35503
21
0.98384
0
LINE
8
BLACK
6
CONTINUOUS
10
2.35503
20
0.98384
11
2.35503
21
0.98384
0
LINE
8
BLACK
6
CONTINUOUS
10
2.35503
20
0.98384
11
2.35503
21
0.98384
0
LINE
8
BLACK
6
CONTINUOUS
10
2.35503
20
0.98384
11
2.34474
21
0.98539
0
LINE
8
BLACK
6
CONTINUOUS
10
2.34474
20
0.98539
11
2.33434
21
0.98539
0
LINE
8
BLACK
6
CONTINUOUS
10
2.33434
20
0.98539
11
2.32406
21
0.98384
0
LINE
8
BLACK
6
CONTINUOUS
10
2.32406
20
0.98384
11
2.32406
21
0.98384
0
LINE
8
BLACK
6
CONTINUOUS
10
2.32406
20
0.98384
11
2.32406
21
0.98384
0
LINE
8
BLACK
6
CONTINUOUS
10
2.32406
20
0.98384
11
2.31573
21
0.98127
0
LINE
8
BLACK
6
CONTINUOUS
10
2.31573
20
0.98127
11
2.31412
21
0.980774
0
LINE
8
BLACK
6
CONTINUOUS
10
2.31412
20
0.980774
11
2.31412
21
0.980774
0
LINE
8
BLACK
6
CONTINUOUS
10
2.31412
20
0.980774
11
2.31412
21
0.980774
0
LINE
8
BLACK
6
CONTINUOUS
10
2.31412
20
0.980774
11
2.30475
21
0.976262
0
LINE
8
BLACK
6
CONTINUOUS
10
2.30475
20
0.976262
11
2.30475
21
0.976262
0
LINE
8
BLACK
6
CONTINUOUS
10
2.30475
20
0.976262
11
2.29616
21
0.970403
0
LINE
8
BLACK
6
CONTINUOUS
10
2.29616
20
0.970403
11
2.29616
21
0.970403
0
LINE
8
BLACK
6
CONTINUOUS
10
2.29616
20
0.970403
11
2.28853
21
0.963329
0
LINE
8
BLACK
6
CONTINUOUS
10
2.28853
20
0.963329
11
2.28205
21
0.955198
0
LINE
8
BLACK
6
CONTINUOUS
10
2.28205
20
0.955198
11
2.27685
21
0.946192
0
LINE
8
BLACK
6
CONTINUOUS
10
2.27685
20
0.946192
11
2.27685
21
0.946191
0
LINE
8
BLACK
6
CONTINUOUS
10
2.27685
20
0.946191
11
2.27305
21
0.93651
0
LINE
8
BLACK
6
CONTINUOUS
10
2.27305
20
0.93651
11
2.27175
21
0.930796
0
LINE
8
BLACK
6
CONTINUOUS
10
2.27175
20
0.930796
11
2.27074
21
0.926371
0
LINE
8
BLACK
6
CONTINUOUS
10
2.27074
20
0.926371
11
2.26996
21
0.916
0
LINE
8
BLACK
6
CONTINUOUS
10
2.26996
20
0.916
11
2.27074
21
0.905629
0
LINE
8
BLACK
6
CONTINUOUS
10
2.10408
20
0.898943
11
2.10643
21
0.892239
0
LINE
8
BLACK
6
CONTINUOUS
10
2.10643
20
0.892239
11
2.10643
21
0.892239
0
LINE
8
BLACK
6
CONTINUOUS
10
2.10643
20
0.892239
11
2.1102
21
0.886226
0
LINE
8
BLACK
6
CONTINUOUS
10
2.1102
20
0.886226
11
2.1102
21
0.886226
0
LINE
8
BLACK
6
CONTINUOUS
10
2.1102
20
0.886226
11
2.11523
21
0.881204
0
LINE
8
BLACK
6
CONTINUOUS
10
2.11523
20
0.881204
11
2.11523
21
0.881204
0
LINE
8
BLACK
6
CONTINUOUS
10
2.11523
20
0.881204
11
2.12124
21
0.877426
0
LINE
8
BLACK
6
CONTINUOUS
10
2.12124
20
0.877426
11
2.12124
21
0.877426
0
LINE
8
BLACK
6
CONTINUOUS
10
2.12124
20
0.877426
11
2.12124
21
0.877426
0
LINE
8
BLACK
6
CONTINUOUS
10
2.12124
20
0.877426
11
2.12794
21
0.87508
0
LINE
8
BLACK
6
CONTINUOUS
10
2.12794
20
0.87508
11
2.135
21
0.874285
0
LINE
8
BLACK
6
CONTINUOUS
10
2.135
20
0.874285
11
2.14206
21
0.87508
0
LINE
8
BLACK
6
CONTINUOUS
10
2.14206
20
0.87508
11
2.14876
21
0.877426
0
LINE
8
BLACK
6
CONTINUOUS
10
2.14876
20
0.877426
11
2.15477
21
0.881204
0
LINE
8
BLACK
6
CONTINUOUS
10
2.15477
20
0.881204
11
2.1598
21
0.886226
0
LINE
8
BLACK
6
CONTINUOUS
10
2.1598
20
0.886226
11
2.16357
21
0.892239
0
LINE
8
BLACK
6
CONTINUOUS
10
2.16357
20
0.892239
11
2.16592
21
0.898943
0
LINE
8
BLACK
6
CONTINUOUS
10
2.16592
20
0.898943
11
2.16672
21
0.906
0
LINE
8
BLACK
6
CONTINUOUS
10
2.16672
20
0.906
11
2.16592
21
0.913057
0
LINE
8
BLACK
6
CONTINUOUS
10
2.16592
20
0.913057
11
2.16489
21
0.916
0
LINE
8
BLACK
6
CONTINUOUS
10
2.16489
20
0.916
11
2.16357
21
0.919761
0
LINE
8
BLACK
6
CONTINUOUS
10
2.16357
20
0.919761
11
2.16357
21
0.919761
0
LINE
8
BLACK
6
CONTINUOUS
10
2.16357
20
0.919761
11
2.16357
21
0.919761
0
LINE
8
BLACK
6
CONTINUOUS
10
2.16357
20
0.919761
11
2.1598
21
0.925774
0
LINE
8
BLACK
6
CONTINUOUS
10
2.1598
20
0.925774
11
2.1598
21
0.925774
0
LINE
8
BLACK
6
CONTINUOUS
10
2.1598
20
0.925774
11
2.15477
21
0.930796
0
LINE
8
BLACK
6
CONTINUOUS
10
2.15477
20
0.930796
11
2.15477
21
0.930796
0
LINE
8
BLACK
6
CONTINUOUS
10
2.15477
20
0.930796
11
2.14876
21
0.934574
0
LINE
8
BLACK
6
CONTINUOUS
10
2.14876
20
0.934574
11
2.14876
21
0.934574
0
LINE
8
BLACK
6
CONTINUOUS
10
2.14876
20
0.934574
11
2.14323
21
0.93651
0
LINE
8
BLACK
6
CONTINUOUS
10
2.14323
20
0.93651
11
2.14206
21
0.93692
0
LINE
8
BLACK
6
CONTINUOUS
10
2.14206
20
0.93692
11
2.135
21
0.937715
0
LINE
8
BLACK
6
CONTINUOUS
10
2.135
20
0.937715
11
2.12794
21
0.93692
0
LINE
8
BLACK
6
CONTINUOUS
10
2.12794
20
0.93692
11
2.12794
21
0.93692
0
LINE
8
BLACK
6
CONTINUOUS
10
2.12794
20
0.93692
11
2.12794
21
0.93692
0
LINE
8
BLACK
6
CONTINUOUS
10
2.12794
20
0.93692
11
2.12124
21
0.934574
0
LINE
8
BLACK
6
CONTINUOUS
10
2.12124
20
0.934574
11
2.12124
21
0.934574
0
LINE
8
BLACK
6
CONTINUOUS
10
2.12124
20
0.934574
11
2.11523
21
0.930796
0
LINE
8
BLACK
6
CONTINUOUS
10
2.11523
20
0.930796
11
2.11523
21
0.930796
0
LINE
8
BLACK
6
CONTINUOUS
10
2.11523
20
0.930796
11
2.1102
21
0.925774
0
LINE
8
BLACK
6
CONTINUOUS
10
2.1102
20
0.925774
11
2.1102
21
0.925774
0
LINE
8
BLACK
6
CONTINUOUS
10
2.1102
20
0.925774
11
2.10643
21
0.919761
0
LINE
8
BLACK
6
CONTINUOUS
10
2.10643
20
0.919761
11
2.10643
21
0.919761
0
LINE
8
BLACK
6
CONTINUOUS
10
2.10643
20
0.919761
11
2.10643
21
0.919761
0
LINE
8
BLACK
6
CONTINUOUS
10
2.10643
20
0.919761
11
2.10408
21
0.913057
0
LINE
8
BLACK
6
CONTINUOUS
10
2.10408
20
0.913057
11
2.10328
21
0.906
0
LINE
8
BLACK
6
CONTINUOUS
10
2.10328
20
0.906
11
2.10408
21
0.898943
0
LINE
8
BLACK
6
CONTINUOUS
10
1.86508
20
1.08394
11
1.86577
21
1.08198
0
LINE
8
BLACK
6
CONTINUOUS
10
1.86577
20
1.08198
11
1.86743
21
1.07724
0
LINE
8
BLACK
6
CONTINUOUS
10
1.86743
20
1.07724
11
1.86743
21
1.07724
0
LINE
8
BLACK
6
CONTINUOUS
10
1.86743
20
1.07724
11
1.8712
21
1.07123
0
LINE
8
BLACK
6
CONTINUOUS
10
1.8712
20
1.07123
11
1.8712
21
1.07123
0
LINE
8
BLACK
6
CONTINUOUS
10
1.8712
20
1.07123
11
1.87623
21
1.0662
0
LINE
8
BLACK
6
CONTINUOUS
10
1.87623
20
1.0662
11
1.87623
21
1.0662
0
LINE
8
BLACK
6
CONTINUOUS
10
1.87623
20
1.0662
11
1.88224
21
1.06243
0
LINE
8
BLACK
6
CONTINUOUS
10
1.88224
20
1.06243
11
1.88224
21
1.06243
0
LINE
8
BLACK
6
CONTINUOUS
10
1.88224
20
1.06243
11
1.88224
21
1.06243
0
LINE
8
BLACK
6
CONTINUOUS
10
1.88224
20
1.06243
11
1.88894
21
1.06008
0
LINE
8
BLACK
6
CONTINUOUS
10
1.88894
20
1.06008
11
1.896
21
1.05928
0
LINE
8
BLACK
6
CONTINUOUS
10
1.896
20
1.05928
11
1.90306
21
1.06008
0
LINE
8
BLACK
6
CONTINUOUS
10
1.90306
20
1.06008
11
1.90976
21
1.06243
0
LINE
8
BLACK
6
CONTINUOUS
10
1.90976
20
1.06243
11
1.91029
21
1.06276
0
LINE
8
BLACK
6
CONTINUOUS
10
1.91029
20
1.06276
11
1.91483
21
1.06561
0
LINE
8
BLACK
6
CONTINUOUS
10
1.91483
20
1.06561
11
1.91747
21
1.06637
0
LINE
8
BLACK
6
CONTINUOUS
10
1.91747
20
1.06637
11
1.95155
21
1.06637
0
LINE
8
BLACK
6
CONTINUOUS
10
1.95155
20
1.06637
11
1.95423
21
1.06559
0
LINE
8
BLACK
6
CONTINUOUS
10
1.95423
20
1.06559
11
1.95506
21
1.06492
0
LINE
8
BLACK
6
CONTINUOUS
10
1.95506
20
1.06492
11
1.96885
21
1.05112
0
LINE
8
BLACK
6
CONTINUOUS
10
1.96885
20
1.05112
11
1.97019
21
1.04867
0
LINE
8
BLACK
6
CONTINUOUS
10
1.97019
20
1.04867
11
1.97028
21
1.04817
0
LINE
8
BLACK
6
CONTINUOUS
10
1.97028
20
1.04817
11
1.97048
21
1.04634
0
LINE
8
BLACK
6
CONTINUOUS
10
1.97048
20
1.04634
11
1.97048
21
1.04634
0
LINE
8
BLACK
6
CONTINUOUS
10
1.97048
20
1.04634
11
1.97283
21
1.03964
0
LINE
8
BLACK
6
CONTINUOUS
10
1.97283
20
1.03964
11
1.97283
21
1.03964
0
LINE
8
BLACK
6
CONTINUOUS
10
1.97283
20
1.03964
11
1.97661
21
1.03363
0
LINE
8
BLACK
6
CONTINUOUS
10
1.97661
20
1.03363
11
1.97661
21
1.03363
0
LINE
8
BLACK
6
CONTINUOUS
10
1.97661
20
1.03363
11
1.98163
21
1.02861
0
LINE
8
BLACK
6
CONTINUOUS
10
1.98163
20
1.02861
11
1.98163
21
1.02861
0
LINE
8
BLACK
6
CONTINUOUS
10
1.98163
20
1.02861
11
1.98764
21
1.02483
0
LINE
8
BLACK
6
CONTINUOUS
10
1.98764
20
1.02483
11
1.98764
21
1.02483
0
LINE
8
BLACK
6
CONTINUOUS
10
1.98764
20
1.02483
11
1.98764
21
1.02483
0
LINE
8
BLACK
6
CONTINUOUS
10
1.98764
20
1.02483
11
1.99434
21
1.02248
0
LINE
8
BLACK
6
CONTINUOUS
10
1.99434
20
1.02248
11
2.0014
21
1.02169
0
LINE
8
BLACK
6
CONTINUOUS
10
2.0014
20
1.02169
11
2.00846
21
1.02248
0
LINE
8
BLACK
6
CONTINUOUS
10
2.00846
20
1.02248
11
2.01516
21
1.02483
0
LINE
8
BLACK
6
CONTINUOUS
10
2.01516
20
1.02483
11
2.02118
21
1.02861
0
LINE
8
BLACK
6
CONTINUOUS
10
2.02118
20
1.02861
11
2.0262
21
1.03363
0
LINE
8
BLACK
6
CONTINUOUS
10
2.0262
20
1.03363
11
2.02998
21
1.03964
0
LINE
8
BLACK
6
CONTINUOUS
10
2.02998
20
1.03964
11
2.03232
21
1.04634
0
LINE
8
BLACK
6
CONTINUOUS
10
2.03232
20
1.04634
11
2.03312
21
1.0534
0
LINE
8
BLACK
6
CONTINUOUS
10
2.03312
20
1.0534
11
2.03232
21
1.06046
0
LINE
8
BLACK
6
CONTINUOUS
10
2.03232
20
1.06046
11
2.02998
21
1.06716
0
LINE
8
BLACK
6
CONTINUOUS
10
2.02998
20
1.06716
11
2.02998
21
1.06716
0
LINE
8
BLACK
6
CONTINUOUS
10
2.02998
20
1.06716
11
2.02998
21
1.06716
0
LINE
8
BLACK
6
CONTINUOUS
10
2.02998
20
1.06716
11
2.0262
21
1.07318
0
LINE
8
BLACK
6
CONTINUOUS
10
2.0262
20
1.07318
11
2.0262
21
1.07318
0
LINE
8
BLACK
6
CONTINUOUS
10
2.0262
20
1.07318
11
2.02118
21
1.0782
0
LINE
8
BLACK
6
CONTINUOUS
10
2.02118
20
1.0782
11
2.02118
21
1.0782
0
LINE
8
BLACK
6
CONTINUOUS
10
2.02118
20
1.0782
11
2.01516
21
1.08198
0
LINE
8
BLACK
6
CONTINUOUS
10
2.01516
20
1.08198
11
2.01516
21
1.08198
0
LINE
8
BLACK
6
CONTINUOUS
10
2.01516
20
1.08198
11
2.00846
21
1.08432
0
LINE
8
BLACK
6
CONTINUOUS
10
2.00846
20
1.08432
11
2.00846
21
1.08432
0
LINE
8
BLACK
6
CONTINUOUS
10
2.00846
20
1.08432
11
2.00663
21
1.08453
0
LINE
8
BLACK
6
CONTINUOUS
10
2.00663
20
1.08453
11
2.00406
21
1.08561
0
LINE
8
BLACK
6
CONTINUOUS
10
2.00406
20
1.08561
11
2.00368
21
1.08595
0
LINE
8
BLACK
6
CONTINUOUS
10
2.00368
20
1.08595
11
1.98353
21
1.1061
0
LINE
8
BLACK
6
CONTINUOUS
10
1.98353
20
1.1061
11
1.98314
21
1.10659
0
LINE
8
BLACK
6
CONTINUOUS
10
1.98314
20
1.10659
11
1.98313
21
1.10658
0
LINE
8
BLACK
6
CONTINUOUS
10
1.98313
20
1.10658
11
1.98293
21
1.10682
0
LINE
8
BLACK
6
CONTINUOUS
10
1.98293
20
1.10682
11
1.98094
21
1.10869
0
LINE
8
BLACK
6
CONTINUOUS
10
1.98094
20
1.10869
11
1.98012
21
1.10951
0
LINE
8
BLACK
6
CONTINUOUS
10
1.98012
20
1.10951
11
1.98012
21
1.10951
0
LINE
8
BLACK
6
CONTINUOUS
10
1.98012
20
1.10951
11
1.97991
21
1.10968
0
LINE
8
BLACK
6
CONTINUOUS
10
1.97991
20
1.10968
11
1.97973
21
1.10983
0
LINE
8
BLACK
6
CONTINUOUS
10
1.97973
20
1.10983
11
1.97839
21
1.11108
0
LINE
8
BLACK
6
CONTINUOUS
10
1.97839
20
1.11108
11
1.97839
21
1.11108
0
LINE
8
BLACK
6
CONTINUOUS
10
1.97839
20
1.11108
11
1.97771
21
1.11146
0
LINE
8
BLACK
6
CONTINUOUS
10
1.97771
20
1.11146
11
1.97706
21
1.11189
0
LINE
8
BLACK
6
CONTINUOUS
10
1.97706
20
1.11189
11
1.97644
21
1.11237
0
LINE
8
BLACK
6
CONTINUOUS
10
1.97644
20
1.11237
11
1.97644
21
1.11237
0
LINE
8
BLACK
6
CONTINUOUS
10
1.97644
20
1.11237
11
1.97532
21
1.11285
0
LINE
8
BLACK
6
CONTINUOUS
10
1.97532
20
1.11285
11
1.97476
21
1.11309
0
LINE
8
BLACK
6
CONTINUOUS
10
1.97476
20
1.11309
11
1.97455
21
1.1132
0
LINE
8
BLACK
6
CONTINUOUS
10
1.97455
20
1.1132
11
1.97294
21
1.11408
0
LINE
8
BLACK
6
CONTINUOUS
10
1.97294
20
1.11408
11
1.97294
21
1.11408
0
LINE
8
BLACK
6
CONTINUOUS
10
1.97294
20
1.11408
11
1.97218
21
1.11427
0
LINE
8
BLACK
6
CONTINUOUS
10
1.97218
20
1.11427
11
1.97145
21
1.11453
0
LINE
8
BLACK
6
CONTINUOUS
10
1.97145
20
1.11453
11
1.97073
21
1.11484
0
LINE
8
BLACK
6
CONTINUOUS
10
1.97073
20
1.11484
11
1.97073
21
1.11484
0
LINE
8
BLACK
6
CONTINUOUS
10
1.97073
20
1.11484
11
1.96892
21
1.11512
0
LINE
8
BLACK
6
CONTINUOUS
10
1.96892
20
1.11512
11
1.96869
21
1.11517
0
LINE
8
BLACK
6
CONTINUOUS
10
1.96869
20
1.11517
11
1.96691
21
1.11563
0
LINE
8
BLACK
6
CONTINUOUS
10
1.96691
20
1.11563
11
1.96691
21
1.11563
0
LINE
8
BLACK
6
CONTINUOUS
10
1.96691
20
1.11563
11
1.96613
21
1.11563
0
LINE
8
BLACK
6
CONTINUOUS
10
1.96613
20
1.11563
11
1.96536
21
1.11569
0
LINE
8
BLACK
6
CONTINUOUS
10
1.96536
20
1.11569
11
1.96458
21
1.11581
0
LINE
8
BLACK
6
CONTINUOUS
10
1.96458
20
1.11581
11
1.96458
21
1.11581
0
LINE
8
BLACK
6
CONTINUOUS
10
1.96458
20
1.11581
11
1.96276
21
1.11564
0
LINE
8
BLACK
6
CONTINUOUS
10
1.96276
20
1.11564
11
1.96252
21
1.11563
0
LINE
8
BLACK
6
CONTINUOUS
10
1.96252
20
1.11563
11
1.91747
21
1.11563
0
LINE
8
BLACK
6
CONTINUOUS
10
1.91747
20
1.11563
11
1.91483
21
1.11639
0
LINE
8
BLACK
6
CONTINUOUS
10
1.91483
20
1.11639
11
1.90976
21
1.11957
0
LINE
8
BLACK
6
CONTINUOUS
10
1.90976
20
1.11957
11
1.90976
21
1.11957
0
LINE
8
BLACK
6
CONTINUOUS
10
1.90976
20
1.11957
11
1.90306
21
1.12192
0
LINE
8
BLACK
6
CONTINUOUS
10
1.90306
20
1.12192
11
1.896
21
1.12272
0
LINE
8
BLACK
6
CONTINUOUS
10
1.896
20
1.12272
11
1.88894
21
1.12192
0
LINE
8
BLACK
6
CONTINUOUS
10
1.88894
20
1.12192
11
1.88894
21
1.12192
0
LINE
8
BLACK
6
CONTINUOUS
10
1.88894
20
1.12192
11
1.88894
21
1.12192
0
LINE
8
BLACK
6
CONTINUOUS
10
1.88894
20
1.12192
11
1.88224
21
1.11957
0
LINE
8
BLACK
6
CONTINUOUS
10
1.88224
20
1.11957
11
1.88224
21
1.11957
0
LINE
8
BLACK
6
CONTINUOUS
10
1.88224
20
1.11957
11
1.87623
21
1.1158
0
LINE
8
BLACK
6
CONTINUOUS
10
1.87623
20
1.1158
11
1.87623
21
1.1158
0
LINE
8
BLACK
6
CONTINUOUS
10
1.87623
20
1.1158
11
1.8712
21
1.11077
0
LINE
8
BLACK
6
CONTINUOUS
10
1.8712
20
1.11077
11
1.8712
21
1.11077
0
LINE
8
BLACK
6
CONTINUOUS
10
1.8712
20
1.11077
11
1.86743
21
1.10476
0
LINE
8
BLACK
6
CONTINUOUS
10
1.86743
20
1.10476
11
1.86743
21
1.10476
0
LINE
8
BLACK
6
CONTINUOUS
10
1.86743
20
1.10476
11
1.86743
21
1.10476
0
LINE
8
BLACK
6
CONTINUOUS
10
1.86743
20
1.10476
11
1.86508
21
1.09806
0
LINE
8
BLACK
6
CONTINUOUS
10
1.86508
20
1.09806
11
1.86428
21
1.091
0
LINE
8
BLACK
6
CONTINUOUS
10
1.86428
20
1.091
11
1.86508
21
1.08394
0
LINE
8
BLACK
6
CONTINUOUS
10
2.27074
20
1.10248
11
2.27074
21
1.10248
0
LINE
8
BLACK
6
CONTINUOUS
10
2.27074
20
1.10248
11
2.27305
21
1.09234
0
LINE
8
BLACK
6
CONTINUOUS
10
2.27305
20
1.09234
11
2.27685
21
1.08266
0
LINE
8
BLACK
6
CONTINUOUS
10
2.27685
20
1.08266
11
2.27685
21
1.08266
0
LINE
8
BLACK
6
CONTINUOUS
10
2.27685
20
1.08266
11
2.28205
21
1.07365
0
LINE
8
BLACK
6
CONTINUOUS
10
2.28205
20
1.07365
11
2.28205
21
1.07365
0
LINE
8
BLACK
6
CONTINUOUS
10
2.28205
20
1.07365
11
2.28205
21
1.07365
0
LINE
8
BLACK
6
CONTINUOUS
10
2.28205
20
1.07365
11
2.28853
21
1.06552
0
LINE
8
BLACK
6
CONTINUOUS
10
2.28853
20
1.06552
11
2.29616
21
1.05845
0
LINE
8
BLACK
6
CONTINUOUS
10
2.29616
20
1.05845
11
2.29616
21
1.05845
0
LINE
8
BLACK
6
CONTINUOUS
10
2.29616
20
1.05845
11
2.30475
21
1.05259
0
LINE
8
BLACK
6
CONTINUOUS
10
2.30475
20
1.05259
11
2.30475
21
1.05259
0
LINE
8
BLACK
6
CONTINUOUS
10
2.30475
20
1.05259
11
2.31412
21
1.04808
0
LINE
8
BLACK
6
CONTINUOUS
10
2.31412
20
1.04808
11
2.31412
21
1.04808
0
LINE
8
BLACK
6
CONTINUOUS
10
2.31412
20
1.04808
11
2.31412
21
1.04808
0
LINE
8
BLACK
6
CONTINUOUS
10
2.31412
20
1.04808
11
2.32291
21
1.04536
0
LINE
8
BLACK
6
CONTINUOUS
10
2.32291
20
1.04536
11
2.32406
21
1.04501
0
LINE
8
BLACK
6
CONTINUOUS
10
2.32406
20
1.04501
11
2.32406
21
1.04501
0
LINE
8
BLACK
6
CONTINUOUS
10
2.32406
20
1.04501
11
2.33434
21
1.04346
0
LINE
8
BLACK
6
CONTINUOUS
10
2.33434
20
1.04346
11
2.33434
21
1.04346
0
LINE
8
BLACK
6
CONTINUOUS
10
2.33434
20
1.04346
11
2.34474
21
1.04346
0
LINE
8
BLACK
6
CONTINUOUS
10
2.34474
20
1.04346
11
2.34474
21
1.04346
0
LINE
8
BLACK
6
CONTINUOUS
10
2.34474
20
1.04346
11
2.35503
21
1.04501
0
LINE
8
BLACK
6
CONTINUOUS
10
2.35503
20
1.04501
11
2.36497
21
1.04808
0
LINE
8
BLACK
6
CONTINUOUS
10
2.36497
20
1.04808
11
2.37434
21
1.05259
0
LINE
8
BLACK
6
CONTINUOUS
10
2.37434
20
1.05259
11
2.38293
21
1.05845
0
LINE
8
BLACK
6
CONTINUOUS
10
2.38293
20
1.05845
11
2.39055
21
1.06552
0
LINE
8
BLACK
6
CONTINUOUS
10
2.39055
20
1.06552
11
2.39704
21
1.07365
0
LINE
8
BLACK
6
CONTINUOUS
10
2.39704
20
1.07365
11
2.40224
21
1.08266
0
LINE
8
BLACK
6
CONTINUOUS
10
2.40224
20
1.08266
11
2.40604
21
1.09234
0
LINE
8
BLACK
6
CONTINUOUS
10
2.40604
20
1.09234
11
2.40835
21
1.10248
0
LINE
8
BLACK
6
CONTINUOUS
10
2.40835
20
1.10248
11
2.40913
21
1.11285
0
LINE
8
BLACK
6
CONTINUOUS
10
2.40913
20
1.11285
11
2.40835
21
1.12322
0
LINE
8
BLACK
6
CONTINUOUS
10
2.40835
20
1.12322
11
2.40604
21
1.13336
0
LINE
8
BLACK
6
CONTINUOUS
10
2.40604
20
1.13336
11
2.40224
21
1.14304
0
LINE
8
BLACK
6
CONTINUOUS
10
2.40224
20
1.14304
11
2.40224
21
1.14304
0
LINE
8
BLACK
6
CONTINUOUS
10
2.40224
20
1.14304
11
2.40224
21
1.14304
0
LINE
8
BLACK
6
CONTINUOUS
10
2.40224
20
1.14304
11
2.39704
21
1.15205
0
LINE
8
BLACK
6
CONTINUOUS
10
2.39704
20
1.15205
11
2.39704
21
1.15205
0
LINE
8
BLACK
6
CONTINUOUS
10
2.39704
20
1.15205
11
2.39055
21
1.16018
0
LINE
8
BLACK
6
CONTINUOUS
10
2.39055
20
1.16018
11
2.38293
21
1.16725
0
LINE
8
BLACK
6
CONTINUOUS
10
2.38293
20
1.16725
11
2.3789
21
1.17
0
LINE
8
BLACK
6
CONTINUOUS
10
2.3789
20
1.17
11
2.37434
21
1.17311
0
LINE
8
BLACK
6
CONTINUOUS
10
2.37434
20
1.17311
11
2.37434
21
1.17311
0
LINE
8
BLACK
6
CONTINUOUS
10
2.37434
20
1.17311
11
2.36497
21
1.17762
0
LINE
8
BLACK
6
CONTINUOUS
10
2.36497
20
1.17762
11
2.36497
21
1.17762
0
LINE
8
BLACK
6
CONTINUOUS
10
2.36497
20
1.17762
11
2.36497
21
1.17762
0
LINE
8
BLACK
6
CONTINUOUS
10
2.36497
20
1.17762
11
2.36114
21
1.1788
0
LINE
8
BLACK
6
CONTINUOUS
10
2.36114
20
1.1788
11
2.35503
21
1.18069
0
LINE
8
BLACK
6
CONTINUOUS
10
2.35503
20
1.18069
11
2.35503
21
1.18069
0
LINE
8
BLACK
6
CONTINUOUS
10
2.35503
20
1.18069
11
2.35503
21
1.18069
0
LINE
8
BLACK
6
CONTINUOUS
10
2.35503
20
1.18069
11
2.34474
21
1.18224
0
LINE
8
BLACK
6
CONTINUOUS
10
2.34474
20
1.18224
11
2.33434
21
1.18224
0
LINE
8
BLACK
6
CONTINUOUS
10
2.33434
20
1.18224
11
2.32406
21
1.18069
0
LINE
8
BLACK
6
CONTINUOUS
10
2.32406
20
1.18069
11
2.32406
21
1.18069
0
LINE
8
BLACK
6
CONTINUOUS
10
2.32406
20
1.18069
11
2.32406
21
1.18069
0
LINE
8
BLACK
6
CONTINUOUS
10
2.32406
20
1.18069
11
2.31573
21
1.17812
0
LINE
8
BLACK
6
CONTINUOUS
10
2.31573
20
1.17812
11
2.31412
21
1.17762
0
LINE
8
BLACK
6
CONTINUOUS
10
2.31412
20
1.17762
11
2.31412
21
1.17762
0
LINE
8
BLACK
6
CONTINUOUS
10
2.31412
20
1.17762
11
2.31412
21
1.17762
0
LINE
8
BLACK
6
CONTINUOUS
10
2.31412
20
1.17762
11
2.30475
21
1.17311
0
LINE
8
BLACK
6
CONTINUOUS
10
2.30475
20
1.17311
11
2.30475
21
1.17311
0
LINE
8
BLACK
6
CONTINUOUS
10
2.30475
20
1.17311
11
2.29616
21
1.16725
0
LINE
8
BLACK
6
CONTINUOUS
10
2.29616
20
1.16725
11
2.29616
21
1.16725
0
LINE
8
BLACK
6
CONTINUOUS
10
2.29616
20
1.16725
11
2.28853
21
1.16018
0
LINE
8
BLACK
6
CONTINUOUS
10
2.28853
20
1.16018
11
2.28205
21
1.15205
0
LINE
8
BLACK
6
CONTINUOUS
10
2.28205
20
1.15205
11
2.27685
21
1.14304
0
LINE
8
BLACK
6
CONTINUOUS
10
2.27685
20
1.14304
11
2.27685
21
1.14304
0
LINE
8
BLACK
6
CONTINUOUS
10
2.27685
20
1.14304
11
2.27305
21
1.13336
0
LINE
8
BLACK
6
CONTINUOUS
10
2.27305
20
1.13336
11
2.27074
21
1.12322
0
LINE
8
BLACK
6
CONTINUOUS
10
2.27074
20
1.12322
11
2.27074
21
1.12322
0
LINE
8
BLACK
6
CONTINUOUS
10
2.27074
20
1.12322
11
2.26996
21
1.11285
0
LINE
8
BLACK
6
CONTINUOUS
10
2.26996
20
1.11285
11
2.27074
21
1.10248
0
LINE
8
BLACK
6
CONTINUOUS
10
0.965067
20
2.14518
11
0.960616
21
2.14292
0
LINE
8
BLACK
6
CONTINUOUS
10
0.960616
20
2.14292
11
0.957085
21
2.13938
0
LINE
8
BLACK
6
CONTINUOUS
10
0.957085
20
2.13938
11
0.954817
21
2.13493
0
LINE
8
BLACK
6
CONTINUOUS
10
0.954817
20
2.13493
11
0.954817
21
2.13493
0
LINE
8
BLACK
6
CONTINUOUS
10
0.954817
20
2.13493
11
0.954232
21
2.13124
0
LINE
8
BLACK
6
CONTINUOUS
10
0.954232
20
2.13124
11
0.954232
21
2.13124
0
LINE
8
BLACK
6
CONTINUOUS
10
0.954232
20
2.13124
11
0.954232
21
2.06876
0
LINE
8
BLACK
6
CONTINUOUS
10
0.954232
20
2.06876
11
0.954817
21
2.06507
0
LINE
8
BLACK
6
CONTINUOUS
10
0.954817
20
2.06507
11
0.957085
21
2.06062
0
LINE
8
BLACK
6
CONTINUOUS
10
0.957085
20
2.06062
11
0.960616
21
2.05708
0
LINE
8
BLACK
6
CONTINUOUS
10
0.960616
20
2.05708
11
0.962884
21
2.05593
0
LINE
8
BLACK
6
CONTINUOUS
10
0.962884
20
2.05593
11
0.965067
21
2.05482
0
LINE
8
BLACK
6
CONTINUOUS
10
0.965067
20
2.05482
11
0.965067
21
2.05482
0
LINE
8
BLACK
6
CONTINUOUS
10
0.965067
20
2.05482
11
0.965372
21
2.05472
0
LINE
8
BLACK
6
CONTINUOUS
10
0.965372
20
2.05472
11
0.967679
21
2.05314
0
LINE
8
BLACK
6
CONTINUOUS
10
0.967679
20
2.05314
11
0.968768
21
2.05057
0
LINE
8
BLACK
6
CONTINUOUS
10
0.968768
20
2.05057
11
0.968291
21
2.04781
0
LINE
8
BLACK
6
CONTINUOUS
10
0.968291
20
2.04781
11
0.966401
21
2.04575
0
LINE
8
BLACK
6
CONTINUOUS
10
0.966401
20
2.04575
11
0.965372
21
2.04528
0
LINE
8
BLACK
6
CONTINUOUS
10
0.965372
20
2.04528
11
0.965067
21
2.04518
0
LINE
8
BLACK
6
CONTINUOUS
10
0.965067
20
2.04518
11
0.960616
21
2.04292
0
LINE
8
BLACK
6
CONTINUOUS
10
0.960616
20
2.04292
11
0.957085
21
2.03938
0
LINE
8
BLACK
6
CONTINUOUS
10
0.957085
20
2.03938
11
0.954817
21
2.03493
0
LINE
8
BLACK
6
CONTINUOUS
10
0.954817
20
2.03493
11
0.954817
21
2.03493
0
LINE
8
BLACK
6
CONTINUOUS
10
0.954817
20
2.03493
11
0.954232
21
2.03124
0
LINE
8
BLACK
6
CONTINUOUS
10
0.954232
20
2.03124
11
0.954232
21
2.03124
0
LINE
8
BLACK
6
CONTINUOUS
10
0.954232
20
2.03124
11
0.954232
21
1.96876
0
LINE
8
BLACK
6
CONTINUOUS
10
0.954232
20
1.96876
11
0.954817
21
1.96507
0
LINE
8
BLACK
6
CONTINUOUS
10
0.954817
20
1.96507
11
0.957085
21
1.96062
0
LINE
8
BLACK
6
CONTINUOUS
10
0.957085
20
1.96062
11
0.960616
21
1.95708
0
LINE
8
BLACK
6
CONTINUOUS
10
0.960616
20
1.95708
11
0.962138
21
1.95631
0
LINE
8
BLACK
6
CONTINUOUS
10
0.962138
20
1.95631
11
0.965067
21
1.95482
0
LINE
8
BLACK
6
CONTINUOUS
10
0.965067
20
1.95482
11
0.968759
21
1.95423
0
LINE
8
BLACK
6
CONTINUOUS
10
0.968759
20
1.95423
11
1.03124
21
1.95423
0
LINE
8
BLACK
6
CONTINUOUS
10
1.03124
20
1.95423
11
1.03493
21
1.95482
0
LINE
8
BLACK
6
CONTINUOUS
10
1.03493
20
1.95482
11
1.03938
21
1.95708
0
LINE
8
BLACK
6
CONTINUOUS
10
1.03938
20
1.95708
11
1.04292
21
1.96062
0
LINE
8
BLACK
6
CONTINUOUS
10
1.04292
20
1.96062
11
1.04518
21
1.96507
0
LINE
8
BLACK
6
CONTINUOUS
10
1.04518
20
1.96507
11
1.04518
21
1.96507
0
LINE
8
BLACK
6
CONTINUOUS
10
1.04518
20
1.96507
11
1.04528
21
1.96537
0
LINE
8
BLACK
6
CONTINUOUS
10
1.04528
20
1.96537
11
1.04686
21
1.96768
0
LINE
8
BLACK
6
CONTINUOUS
10
1.04686
20
1.96768
11
1.04943
21
1.96877
0
LINE
8
BLACK
6
CONTINUOUS
10
1.04943
20
1.96877
11
1.05219
21
1.96829
0
LINE
8
BLACK
6
CONTINUOUS
10
1.05219
20
1.96829
11
1.05425
21
1.9664
0
LINE
8
BLACK
6
CONTINUOUS
10
1.05425
20
1.9664
11
1.05472
21
1.96537
0
LINE
8
BLACK
6
CONTINUOUS
10
1.05472
20
1.96537
11
1.05482
21
1.96507
0
LINE
8
BLACK
6
CONTINUOUS
10
1.05482
20
1.96507
11
1.05708
21
1.96062
0
LINE
8
BLACK
6
CONTINUOUS
10
1.05708
20
1.96062
11
1.06062
21
1.95708
0
LINE
8
BLACK
6
CONTINUOUS
10
1.06062
20
1.95708
11
1.06214
21
1.95631
0
LINE
8
BLACK
6
CONTINUOUS
10
1.06214
20
1.95631
11
1.06507
21
1.95482
0
LINE
8
BLACK
6
CONTINUOUS
10
1.06507
20
1.95482
11
1.06876
21
1.95423
0
LINE
8
BLACK
6
CONTINUOUS
10
1.06876
20
1.95423
11
1.13124
21
1.95423
0
LINE
8
BLACK
6
CONTINUOUS
10
1.13124
20
1.95423
11
1.13493
21
1.95482
0
LINE
8
BLACK
6
CONTINUOUS
10
1.13493
20
1.95482
11
1.13938
21
1.95708
0
LINE
8
BLACK
6
CONTINUOUS
10
1.13938
20
1.95708
11
1.14292
21
1.96062
0
LINE
8
BLACK
6
CONTINUOUS
10
1.14292
20
1.96062
11
1.14518
21
1.96507
0
LINE
8
BLACK
6
CONTINUOUS
10
1.14518
20
1.96507
11
1.14518
21
1.96507
0
LINE
8
BLACK
6
CONTINUOUS
10
1.14518
20
1.96507
11
1.14528
21
1.96537
0
LINE
8
BLACK
6
CONTINUOUS
10
1.14528
20
1.96537
11
1.14686
21
1.96768
0
LINE
8
BLACK
6
CONTINUOUS
10
1.14686
20
1.96768
11
1.14943
21
1.96877
0
LINE
8
BLACK
6
CONTINUOUS
10
1.14943
20
1.96877
11
1.15219
21
1.96829
0
LINE
8
BLACK
6
CONTINUOUS
10
1.15219
20
1.96829
11
1.15425
21
1.9664
0
LINE
8
BLACK
6
CONTINUOUS
10
1.15425
20
1.9664
11
1.15472
21
1.96537
0
LINE
8
BLACK
6
CONTINUOUS
10
1.15472
20
1.96537
11
1.15482
21
1.96507
0
LINE
8
BLACK
6
CONTINUOUS
10
1.15482
20
1.96507
11
1.15708
21
1.96062
0
LINE
8
BLACK
6
CONTINUOUS
10
1.15708
20
1.96062
11
1.16062
21
1.95708
0
LINE
8
BLACK
6
CONTINUOUS
10
1.16062
20
1.95708
11
1.16214
21
1.95631
0
LINE
8
BLACK
6
CONTINUOUS
10
1.16214
20
1.95631
11
1.16507
21
1.95482
0
LINE
8
BLACK
6
CONTINUOUS
10
1.16507
20
1.95482
11
1.16876
21
1.95423
0
LINE
8
BLACK
6
CONTINUOUS
10
1.16876
20
1.95423
11
1.23124
21
1.95423
0
LINE
8
BLACK
6
CONTINUOUS
10
1.23124
20
1.95423
11
1.23493
21
1.95482
0
LINE
8
BLACK
6
CONTINUOUS
10
1.23493
20
1.95482
11
1.23938
21
1.95708
0
LINE
8
BLACK
6
CONTINUOUS
10
1.23938
20
1.95708
11
1.24292
21
1.96062
0
LINE
8
BLACK
6
CONTINUOUS
10
1.24292
20
1.96062
11
1.24518
21
1.96507
0
LINE
8
BLACK
6
CONTINUOUS
10
1.24518
20
1.96507
11
1.24518
21
1.96507
0
LINE
8
BLACK
6
CONTINUOUS
10
1.24518
20
1.96507
11
1.24528
21
1.96537
0
LINE
8
BLACK
6
CONTINUOUS
10
1.24528
20
1.96537
11
1.24686
21
1.96768
0
LINE
8
BLACK
6
CONTINUOUS
10
1.24686
20
1.96768
11
1.24943
21
1.96877
0
LINE
8
BLACK
6
CONTINUOUS
10
1.24943
20
1.96877
11
1.25219
21
1.96829
0
LINE
8
BLACK
6
CONTINUOUS
10
1.25219
20
1.96829
11
1.25425
21
1.9664
0
LINE
8
BLACK
6
CONTINUOUS
10
1.25425
20
1.9664
11
1.25472
21
1.96537
0
LINE
8
BLACK
6
CONTINUOUS
10
1.25472
20
1.96537
11
1.25482
21
1.96507
0
LINE
8
BLACK
6
CONTINUOUS
10
1.25482
20
1.96507
11
1.25708
21
1.96062
0
LINE
8
BLACK
6
CONTINUOUS
10
1.25708
20
1.96062
11
1.26062
21
1.95708
0
LINE
8
BLACK
6
CONTINUOUS
10
1.26062
20
1.95708
11
1.26214
21
1.95631
0
LINE
8
BLACK
6
CONTINUOUS
10
1.26214
20
1.95631
11
1.26507
21
1.95482
0
LINE
8
BLACK
6
CONTINUOUS
10
1.26507
20
1.95482
11
1.26876
21
1.95423
0
LINE
8
BLACK
6
CONTINUOUS
10
1.26876
20
1.95423
11
1.33124
21
1.95423
0
LINE
8
BLACK
6
CONTINUOUS
10
1.33124
20
1.95423
11
1.33493
21
1.95482
0
LINE
8
BLACK
6
CONTINUOUS
10
1.33493
20
1.95482
11
1.33938
21
1.95708
0
LINE
8
BLACK
6
CONTINUOUS
10
1.33938
20
1.95708
11
1.34292
21
1.96062
0
LINE
8
BLACK
6
CONTINUOUS
10
1.34292
20
1.96062
11
1.34518
21
1.96507
0
LINE
8
BLACK
6
CONTINUOUS
10
1.34518
20
1.96507
11
1.34518
21
1.96507
0
LINE
8
BLACK
6
CONTINUOUS
10
1.34518
20
1.96507
11
1.34528
21
1.96537
0
LINE
8
BLACK
6
CONTINUOUS
10
1.34528
20
1.96537
11
1.34686
21
1.96768
0
LINE
8
BLACK
6
CONTINUOUS
10
1.34686
20
1.96768
11
1.34943
21
1.96877
0
LINE
8
BLACK
6
CONTINUOUS
10
1.34943
20
1.96877
11
1.35219
21
1.96829
0
LINE
8
BLACK
6
CONTINUOUS
10
1.35219
20
1.96829
11
1.35425
21
1.9664
0
LINE
8
BLACK
6
CONTINUOUS
10
1.35425
20
1.9664
11
1.35472
21
1.96537
0
LINE
8
BLACK
6
CONTINUOUS
10
1.35472
20
1.96537
11
1.35482
21
1.96507
0
LINE
8
BLACK
6
CONTINUOUS
10
1.35482
20
1.96507
11
1.35708
21
1.96062
0
LINE
8
BLACK
6
CONTINUOUS
10
1.35708
20
1.96062
11
1.36062
21
1.95708
0
LINE
8
BLACK
6
CONTINUOUS
10
1.36062
20
1.95708
11
1.36214
21
1.95631
0
LINE
8
BLACK
6
CONTINUOUS
10
1.36214
20
1.95631
11
1.36507
21
1.95482
0
LINE
8
BLACK
6
CONTINUOUS
10
1.36507
20
1.95482
11
1.36876
21
1.95423
0
LINE
8
BLACK
6
CONTINUOUS
10
1.36876
20
1.95423
11
1.43124
21
1.95423
0
LINE
8
BLACK
6
CONTINUOUS
10
1.43124
20
1.95423
11
1.43493
21
1.95482
0
LINE
8
BLACK
6
CONTINUOUS
10
1.43493
20
1.95482
11
1.43938
21
1.95708
0
LINE
8
BLACK
6
CONTINUOUS
10
1.43938
20
1.95708
11
1.44292
21
1.96062
0
LINE
8
BLACK
6
CONTINUOUS
10
1.44292
20
1.96062
11
1.44518
21
1.96507
0
LINE
8
BLACK
6
CONTINUOUS
10
1.44518
20
1.96507
11
1.44518
21
1.96507
0
LINE
8
BLACK
6
CONTINUOUS
10
1.44518
20
1.96507
11
1.44528
21
1.96537
0
LINE
8
BLACK
6
CONTINUOUS
10
1.44528
20
1.96537
11
1.44686
21
1.96768
0
LINE
8
BLACK
6
CONTINUOUS
10
1.44686
20
1.96768
11
1.44943
21
1.96877
0
LINE
8
BLACK
6
CONTINUOUS
10
1.44943
20
1.96877
11
1.45219
21
1.96829
0
LINE
8
BLACK
6
CONTINUOUS
10
1.45219
20
1.96829
11
1.45425
21
1.9664
0
LINE
8
BLACK
6
CONTINUOUS
10
1.45425
20
1.9664
11
1.45472
21
1.96537
0
LINE
8
BLACK
6
CONTINUOUS
10
1.45472
20
1.96537
11
1.45482
21
1.96507
0
LINE
8
BLACK
6
CONTINUOUS
10
1.45482
20
1.96507
11
1.45708
21
1.96062
0
LINE
8
BLACK
6
CONTINUOUS
10
1.45708
20
1.96062
11
1.46062
21
1.95708
0
LINE
8
BLACK
6
CONTINUOUS
10
1.46062
20
1.95708
11
1.46214
21
1.95631
0
LINE
8
BLACK
6
CONTINUOUS
10
1.46214
20
1.95631
11
1.46507
21
1.95482
0
LINE
8
BLACK
6
CONTINUOUS
10
1.46507
20
1.95482
11
1.46876
21
1.95423
0
LINE
8
BLACK
6
CONTINUOUS
10
1.46876
20
1.95423
11
1.53124
21
1.95423
0
LINE
8
BLACK
6
CONTINUOUS
10
1.53124
20
1.95423
11
1.53493
21
1.95482
0
LINE
8
BLACK
6
CONTINUOUS
10
1.53493
20
1.95482
11
1.53938
21
1.95708
0
LINE
8
BLACK
6
CONTINUOUS
10
1.53938
20
1.95708
11
1.54292
21
1.96062
0
LINE
8
BLACK
6
CONTINUOUS
10
1.54292
20
1.96062
11
1.54518
21
1.96507
0
LINE
8
BLACK
6
CONTINUOUS
10
1.54518
20
1.96507
11
1.54518
21
1.96507
0
LINE
8
BLACK
6
CONTINUOUS
10
1.54518
20
1.96507
11
1.54528
21
1.96537
0
LINE
8
BLACK
6
CONTINUOUS
10
1.54528
20
1.96537
11
1.54686
21
1.96768
0
LINE
8
BLACK
6
CONTINUOUS
10
1.54686
20
1.96768
11
1.54943
21
1.96877
0
LINE
8
BLACK
6
CONTINUOUS
10
1.54943
20
1.96877
11
1.55219
21
1.96829
0
LINE
8
BLACK
6
CONTINUOUS
10
1.55219
20
1.96829
11
1.55425
21
1.9664
0
LINE
8
BLACK
6
CONTINUOUS
10
1.55425
20
1.9664
11
1.55472
21
1.96537
0
LINE
8
BLACK
6
CONTINUOUS
10
1.55472
20
1.96537
11
1.55482
21
1.96507
0
LINE
8
BLACK
6
CONTINUOUS
10
1.55482
20
1.96507
11
1.55708
21
1.96062
0
LINE
8
BLACK
6
CONTINUOUS
10
1.55708
20
1.96062
11
1.56062
21
1.95708
0
LINE
8
BLACK
6
CONTINUOUS
10
1.56062
20
1.95708
11
1.56214
21
1.95631
0
LINE
8
BLACK
6
CONTINUOUS
10
1.56214
20
1.95631
11
1.56507
21
1.95482
0
LINE
8
BLACK
6
CONTINUOUS
10
1.56507
20
1.95482
11
1.56876
21
1.95423
0
LINE
8
BLACK
6
CONTINUOUS
10
1.56876
20
1.95423
11
1.63124
21
1.95423
0
LINE
8
BLACK
6
CONTINUOUS
10
1.63124
20
1.95423
11
1.63493
21
1.95482
0
LINE
8
BLACK
6
CONTINUOUS
10
1.63493
20
1.95482
11
1.63938
21
1.95708
0
LINE
8
BLACK
6
CONTINUOUS
10
1.63938
20
1.95708
11
1.64292
21
1.96062
0
LINE
8
BLACK
6
CONTINUOUS
10
1.64292
20
1.96062
11
1.64518
21
1.96507
0
LINE
8
BLACK
6
CONTINUOUS
10
1.64518
20
1.96507
11
1.64518
21
1.96507
0
LINE
8
BLACK
6
CONTINUOUS
10
1.64518
20
1.96507
11
1.64528
21
1.96537
0
LINE
8
BLACK
6
CONTINUOUS
10
1.64528
20
1.96537
11
1.64686
21
1.96768
0
LINE
8
BLACK
6
CONTINUOUS
10
1.64686
20
1.96768
11
1.64943
21
1.96877
0
LINE
8
BLACK
6
CONTINUOUS
10
1.64943
20
1.96877
11
1.65219
21
1.96829
0
LINE
8
BLACK
6
CONTINUOUS
10
1.65219
20
1.96829
11
1.65425
21
1.9664
0
LINE
8
BLACK
6
CONTINUOUS
10
1.65425
20
1.9664
11
1.65472
21
1.96537
0
LINE
8
BLACK
6
CONTINUOUS
10
1.65472
20
1.96537
11
1.65482
21
1.96507
0
LINE
8
BLACK
6
CONTINUOUS
10
1.65482
20
1.96507
11
1.65708
21
1.96062
0
LINE
8
BLACK
6
CONTINUOUS
10
1.65708
20
1.96062
11
1.66062
21
1.95708
0
LINE
8
BLACK
6
CONTINUOUS
10
1.66062
20
1.95708
11
1.66214
21
1.95631
0
LINE
8
BLACK
6
CONTINUOUS
10
1.66214
20
1.95631
11
1.66507
21
1.95482
0
LINE
8
BLACK
6
CONTINUOUS
10
1.66507
20
1.95482
11
1.66876
21
1.95423
0
LINE
8
BLACK
6
CONTINUOUS
10
1.66876
20
1.95423
11
1.73124
21
1.95423
0
LINE
8
BLACK
6
CONTINUOUS
10
1.73124
20
1.95423
11
1.73493
21
1.95482
0
LINE
8
BLACK
6
CONTINUOUS
10
1.73493
20
1.95482
11
1.73938
21
1.95708
0
LINE
8
BLACK
6
CONTINUOUS
10
1.73938
20
1.95708
11
1.74292
21
1.96062
0
LINE
8
BLACK
6
CONTINUOUS
10
1.74292
20
1.96062
11
1.74518
21
1.96507
0
LINE
8
BLACK
6
CONTINUOUS
10
1.74518
20
1.96507
11
1.74518
21
1.96507
0
LINE
8
BLACK
6
CONTINUOUS
10
1.74518
20
1.96507
11
1.74528
21
1.96537
0
LINE
8
BLACK
6
CONTINUOUS
10
1.74528
20
1.96537
11
1.74686
21
1.96768
0
LINE
8
BLACK
6
CONTINUOUS
10
1.74686
20
1.96768
11
1.74943
21
1.96877
0
LINE
8
BLACK
6
CONTINUOUS
10
1.74943
20
1.96877
11
1.75219
21
1.96829
0
LINE
8
BLACK
6
CONTINUOUS
10
1.75219
20
1.96829
11
1.75425
21
1.9664
0
LINE
8
BLACK
6
CONTINUOUS
10
1.75425
20
1.9664
11
1.75472
21
1.96537
0
LINE
8
BLACK
6
CONTINUOUS
10
1.75472
20
1.96537
11
1.75482
21
1.96507
0
LINE
8
BLACK
6
CONTINUOUS
10
1.75482
20
1.96507
11
1.75708
21
1.96062
0
LINE
8
BLACK
6
CONTINUOUS
10
1.75708
20
1.96062
11
1.76062
21
1.95708
0
LINE
8
BLACK
6
CONTINUOUS
10
1.76062
20
1.95708
11
1.76214
21
1.95631
0
LINE
8
BLACK
6
CONTINUOUS
10
1.76214
20
1.95631
11
1.76507
21
1.95482
0
LINE
8
BLACK
6
CONTINUOUS
10
1.76507
20
1.95482
11
1.76876
21
1.95423
0
LINE
8
BLACK
6
CONTINUOUS
10
1.76876
20
1.95423
11
1.83124
21
1.95423
0
LINE
8
BLACK
6
CONTINUOUS
10
1.83124
20
1.95423
11
1.83493
21
1.95482
0
LINE
8
BLACK
6
CONTINUOUS
10
1.83493
20
1.95482
11
1.83938
21
1.95708
0
LINE
8
BLACK
6
CONTINUOUS
10
1.83938
20
1.95708
11
1.84292
21
1.96062
0
LINE
8
BLACK
6
CONTINUOUS
10
1.84292
20
1.96062
11
1.84518
21
1.96507
0
LINE
8
BLACK
6
CONTINUOUS
10
1.84518
20
1.96507
11
1.84577
21
1.96876
0
LINE
8
BLACK
6
CONTINUOUS
10
1.84577
20
1.96876
11
1.84577
21
1.96876
0
LINE
8
BLACK
6
CONTINUOUS
10
1.84577
20
1.96876
11
1.84577
21
2.03124
0
LINE
8
BLACK
6
CONTINUOUS
10
1.84577
20
2.03124
11
1.84518
21
2.03493
0
LINE
8
BLACK
6
CONTINUOUS
10
1.84518
20
2.03493
11
1.84405
21
2.03716
0
LINE
8
BLACK
6
CONTINUOUS
10
1.84405
20
2.03716
11
1.84292
21
2.03938
0
LINE
8
BLACK
6
CONTINUOUS
10
1.84292
20
2.03938
11
1.83938
21
2.04292
0
LINE
8
BLACK
6
CONTINUOUS
10
1.83938
20
2.04292
11
1.83493
21
2.04518
0
LINE
8
BLACK
6
CONTINUOUS
10
1.83493
20
2.04518
11
1.83463
21
2.04528
0
LINE
8
BLACK
6
CONTINUOUS
10
1.83463
20
2.04528
11
1.83232
21
2.04686
0
LINE
8
BLACK
6
CONTINUOUS
10
1.83232
20
2.04686
11
1.83123
21
2.04943
0
LINE
8
BLACK
6
CONTINUOUS
10
1.83123
20
2.04943
11
1.83171
21
2.05219
0
LINE
8
BLACK
6
CONTINUOUS
10
1.83171
20
2.05219
11
1.8336
21
2.05425
0
LINE
8
BLACK
6
CONTINUOUS
10
1.8336
20
2.05425
11
1.83463
21
2.05472
0
LINE
8
BLACK
6
CONTINUOUS
10
1.83463
20
2.05472
11
1.83493
21
2.05482
0
LINE
8
BLACK
6
CONTINUOUS
10
1.83493
20
2.05482
11
1.83493
21
2.05482
0
LINE
8
BLACK
6
CONTINUOUS
10
1.83493
20
2.05482
11
1.83938
21
2.05708
0
LINE
8
BLACK
6
CONTINUOUS
10
1.83938
20
2.05708
11
1.84292
21
2.06062
0
LINE
8
BLACK
6
CONTINUOUS
10
1.84292
20
2.06062
11
1.84518
21
2.06507
0
LINE
8
BLACK
6
CONTINUOUS
10
1.84518
20
2.06507
11
1.84577
21
2.06876
0
LINE
8
BLACK
6
CONTINUOUS
10
1.84577
20
2.06876
11
1.84577
21
2.13124
0
LINE
8
BLACK
6
CONTINUOUS
10
1.84577
20
2.13124
11
1.84518
21
2.13493
0
LINE
8
BLACK
6
CONTINUOUS
10
1.84518
20
2.13493
11
1.84405
21
2.13716
0
LINE
8
BLACK
6
CONTINUOUS
10
1.84405
20
2.13716
11
1.84292
21
2.13938
0
LINE
8
BLACK
6
CONTINUOUS
10
1.84292
20
2.13938
11
1.83938
21
2.14292
0
LINE
8
BLACK
6
CONTINUOUS
10
1.83938
20
2.14292
11
1.8364
21
2.14444
0
LINE
8
BLACK
6
CONTINUOUS
10
1.8364
20
2.14444
11
1.83493
21
2.14518
0
LINE
8
BLACK
6
CONTINUOUS
10
1.83493
20
2.14518
11
1.83124
21
2.14577
0
LINE
8
BLACK
6
CONTINUOUS
10
1.83124
20
2.14577
11
1.83124
21
2.14577
0
LINE
8
BLACK
6
CONTINUOUS
10
1.83124
20
2.14577
11
1.76876
21
2.14577
0
LINE
8
BLACK
6
CONTINUOUS
10
1.76876
20
2.14577
11
1.76507
21
2.14518
0
LINE
8
BLACK
6
CONTINUOUS
10
1.76507
20
2.14518
11
1.76062
21
2.14292
0
LINE
8
BLACK
6
CONTINUOUS
10
1.76062
20
2.14292
11
1.75708
21
2.13938
0
LINE
8
BLACK
6
CONTINUOUS
10
1.75708
20
2.13938
11
1.75482
21
2.13493
0
LINE
8
BLACK
6
CONTINUOUS
10
1.75482
20
2.13493
11
1.75472
21
2.13463
0
LINE
8
BLACK
6
CONTINUOUS
10
1.75472
20
2.13463
11
1.75314
21
2.13232
0
LINE
8
BLACK
6
CONTINUOUS
10
1.75314
20
2.13232
11
1.75057
21
2.13123
0
LINE
8
BLACK
6
CONTINUOUS
10
1.75057
20
2.13123
11
1.74781
21
2.13171
0
LINE
8
BLACK
6
CONTINUOUS
10
1.74781
20
2.13171
11
1.74575
21
2.1336
0
LINE
8
BLACK
6
CONTINUOUS
10
1.74575
20
2.1336
11
1.74528
21
2.13463
0
LINE
8
BLACK
6
CONTINUOUS
10
1.74528
20
2.13463
11
1.74518
21
2.13493
0
LINE
8
BLACK
6
CONTINUOUS
10
1.74518
20
2.13493
11
1.74292
21
2.13938
0
LINE
8
BLACK
6
CONTINUOUS
10
1.74292
20
2.13938
11
1.73938
21
2.14292
0
LINE
8
BLACK
6
CONTINUOUS
10
1.73938
20
2.14292
11
1.7364
21
2.14444
0
LINE
8
BLACK
6
CONTINUOUS
10
1.7364
20
2.14444
11
1.73493
21
2.14518
0
LINE
8
BLACK
6
CONTINUOUS
10
1.73493
20
2.14518
11
1.73124
21
2.14577
0
LINE
8
BLACK
6
CONTINUOUS
10
1.73124
20
2.14577
11
1.73124
21
2.14577
0
LINE
8
BLACK
6
CONTINUOUS
10
1.73124
20
2.14577
11
1.66876
21
2.14577
0
LINE
8
BLACK
6
CONTINUOUS
10
1.66876
20
2.14577
11
1.66507
21
2.14518
0
LINE
8
BLACK
6
CONTINUOUS
10
1.66507
20
2.14518
11
1.66062
21
2.14292
0
LINE
8
BLACK
6
CONTINUOUS
10
1.66062
20
2.14292
11
1.65708
21
2.13938
0
LINE
8
BLACK
6
CONTINUOUS
10
1.65708
20
2.13938
11
1.65482
21
2.13493
0
LINE
8
BLACK
6
CONTINUOUS
10
1.65482
20
2.13493
11
1.65472
21
2.13463
0
LINE
8
BLACK
6
CONTINUOUS
10
1.65472
20
2.13463
11
1.65314
21
2.13232
0
LINE
8
BLACK
6
CONTINUOUS
10
1.65314
20
2.13232
11
1.65057
21
2.13123
0
LINE
8
BLACK
6
CONTINUOUS
10
1.65057
20
2.13123
11
1.64781
21
2.13171
0
LINE
8
BLACK
6
CONTINUOUS
10
1.64781
20
2.13171
11
1.64575
21
2.1336
0
LINE
8
BLACK
6
CONTINUOUS
10
1.64575
20
2.1336
11
1.64528
21
2.13463
0
LINE
8
BLACK
6
CONTINUOUS
10
1.64528
20
2.13463
11
1.64518
21
2.13493
0
LINE
8
BLACK
6
CONTINUOUS
10
1.64518
20
2.13493
11
1.64292
21
2.13938
0
LINE
8
BLACK
6
CONTINUOUS
10
1.64292
20
2.13938
11
1.63938
21
2.14292
0
LINE
8
BLACK
6
CONTINUOUS
10
1.63938
20
2.14292
11
1.6364
21
2.14444
0
LINE
8
BLACK
6
CONTINUOUS
10
1.6364
20
2.14444
11
1.63493
21
2.14518
0
LINE
8
BLACK
6
CONTINUOUS
10
1.63493
20
2.14518
11
1.63124
21
2.14577
0
LINE
8
BLACK
6
CONTINUOUS
10
1.63124
20
2.14577
11
1.63124
21
2.14577
0
LINE
8
BLACK
6
CONTINUOUS
10
1.63124
20
2.14577
11
1.56876
21
2.14577
0
LINE
8
BLACK
6
CONTINUOUS
10
1.56876
20
2.14577
11
1.56507
21
2.14518
0
LINE
8
BLACK
6
CONTINUOUS
10
1.56507
20
2.14518
11
1.56062
21
2.14292
0
LINE
8
BLACK
6
CONTINUOUS
10
1.56062
20
2.14292
11
1.55708
21
2.13938
0
LINE
8
BLACK
6
CONTINUOUS
10
1.55708
20
2.13938
11
1.55482
21
2.13493
0
LINE
8
BLACK
6
CONTINUOUS
10
1.55482
20
2.13493
11
1.55472
21
2.13463
0
LINE
8
BLACK
6
CONTINUOUS
10
1.55472
20
2.13463
11
1.55314
21
2.13232
0
LINE
8
BLACK
6
CONTINUOUS
10
1.55314
20
2.13232
11
1.55057
21
2.13123
0
LINE
8
BLACK
6
CONTINUOUS
10
1.55057
20
2.13123
11
1.54781
21
2.13171
0
LINE
8
BLACK
6
CONTINUOUS
10
1.54781
20
2.13171
11
1.54575
21
2.1336
0
LINE
8
BLACK
6
CONTINUOUS
10
1.54575
20
2.1336
11
1.54528
21
2.13463
0
LINE
8
BLACK
6
CONTINUOUS
10
1.54528
20
2.13463
11
1.54518
21
2.13493
0
LINE
8
BLACK
6
CONTINUOUS
10
1.54518
20
2.13493
11
1.54292
21
2.13938
0
LINE
8
BLACK
6
CONTINUOUS
10
1.54292
20
2.13938
11
1.53938
21
2.14292
0
LINE
8
BLACK
6
CONTINUOUS
10
1.53938
20
2.14292
11
1.5364
21
2.14444
0
LINE
8
BLACK
6
CONTINUOUS
10
1.5364
20
2.14444
11
1.53493
21
2.14518
0
LINE
8
BLACK
6
CONTINUOUS
10
1.53493
20
2.14518
11
1.53124
21
2.14577
0
LINE
8
BLACK
6
CONTINUOUS
10
1.53124
20
2.14577
11
1.53124
21
2.14577
0
LINE
8
BLACK
6
CONTINUOUS
10
1.53124
20
2.14577
11
1.46876
21
2.14577
0
LINE
8
BLACK
6
CONTINUOUS
10
1.46876
20
2.14577
11
1.46507
21
2.14518
0
LINE
8
BLACK
6
CONTINUOUS
10
1.46507
20
2.14518
11
1.46062
21
2.14292
0
LINE
8
BLACK
6
CONTINUOUS
10
1.46062
20
2.14292
11
1.45708
21
2.13938
0
LINE
8
BLACK
6
CONTINUOUS
10
1.45708
20
2.13938
11
1.45482
21
2.13493
0
LINE
8
BLACK
6
CONTINUOUS
10
1.45482
20
2.13493
11
1.45472
21
2.13463
0
LINE
8
BLACK
6
CONTINUOUS
10
1.45472
20
2.13463
11
1.45314
21
2.13232
0
LINE
8
BLACK
6
CONTINUOUS
10
1.45314
20
2.13232
11
1.45057
21
2.13123
0
LINE
8
BLACK
6
CONTINUOUS
10
1.45057
20
2.13123
11
1.44781
21
2.13171
0
LINE
8
BLACK
6
CONTINUOUS
10
1.44781
20
2.13171
11
1.44575
21
2.1336
0
LINE
8
BLACK
6
CONTINUOUS
10
1.44575
20
2.1336
11
1.44528
21
2.13463
0
LINE
8
BLACK
6
CONTINUOUS
10
1.44528
20
2.13463
11
1.44518
21
2.13493
0
LINE
8
BLACK
6
CONTINUOUS
10
1.44518
20
2.13493
11
1.44292
21
2.13938
0
LINE
8
BLACK
6
CONTINUOUS
10
1.44292
20
2.13938
11
1.43938
21
2.14292
0
LINE
8
BLACK
6
CONTINUOUS
10
1.43938
20
2.14292
11
1.4364
21
2.14444
0
LINE
8
BLACK
6
CONTINUOUS
10
1.4364
20
2.14444
11
1.43493
21
2.14518
0
LINE
8
BLACK
6
CONTINUOUS
10
1.43493
20
2.14518
11
1.43124
21
2.14577
0
LINE
8
BLACK
6
CONTINUOUS
10
1.43124
20
2.14577
11
1.43124
21
2.14577
0
LINE
8
BLACK
6
CONTINUOUS
10
1.43124
20
2.14577
11
1.36876
21
2.14577
0
LINE
8
BLACK
6
CONTINUOUS
10
1.36876
20
2.14577
11
1.36507
21
2.14518
0
LINE
8
BLACK
6
CONTINUOUS
10
1.36507
20
2.14518
11
1.36062
21
2.14292
0
LINE
8
BLACK
6
CONTINUOUS
10
1.36062
20
2.14292
11
1.35708
21
2.13938
0
LINE
8
BLACK
6
CONTINUOUS
10
1.35708
20
2.13938
11
1.35482
21
2.13493
0
LINE
8
BLACK
6
CONTINUOUS
10
1.35482
20
2.13493
11
1.35472
21
2.13463
0
LINE
8
BLACK
6
CONTINUOUS
10
1.35472
20
2.13463
11
1.35314
21
2.13232
0
LINE
8
BLACK
6
CONTINUOUS
10
1.35314
20
2.13232
11
1.35057
21
2.13123
0
LINE
8
BLACK
6
CONTINUOUS
10
1.35057
20
2.13123
11
1.34781
21
2.13171
0
LINE
8
BLACK
6
CONTINUOUS
10
1.34781
20
2.13171
11
1.34575
21
2.1336
0
LINE
8
BLACK
6
CONTINUOUS
10
1.34575
20
2.1336
11
1.34528
21
2.13463
0
LINE
8
BLACK
6
CONTINUOUS
10
1.34528
20
2.13463
11
1.34518
21
2.13493
0
LINE
8
BLACK
6
CONTINUOUS
10
1.34518
20
2.13493
11
1.34292
21
2.13938
0
LINE
8
BLACK
6
CONTINUOUS
10
1.34292
20
2.13938
11
1.33938
21
2.14292
0
LINE
8
BLACK
6
CONTINUOUS
10
1.33938
20
2.14292
11
1.3364
21
2.14444
0
LINE
8
BLACK
6
CONTINUOUS
10
1.3364
20
2.14444
11
1.33493
21
2.14518
0
LINE
8
BLACK
6
CONTINUOUS
10
1.33493
20
2.14518
11
1.33124
21
2.14577
0
LINE
8
BLACK
6
CONTINUOUS
10
1.33124
20
2.14577
11
1.33124
21
2.14577
0
LINE
8
BLACK
6
CONTINUOUS
10
1.33124
20
2.14577
11
1.26876
21
2.14577
0
LINE
8
BLACK
6
CONTINUOUS
10
1.26876
20
2.14577
11
1.26507
21
2.14518
0
LINE
8
BLACK
6
CONTINUOUS
10
1.26507
20
2.14518
11
1.26062
21
2.14292
0
LINE
8
BLACK
6
CONTINUOUS
10
1.26062
20
2.14292
11
1.25708
21
2.13938
0
LINE
8
BLACK
6
CONTINUOUS
10
1.25708
20
2.13938
11
1.25482
21
2.13493
0
LINE
8
BLACK
6
CONTINUOUS
10
1.25482
20
2.13493
11
1.25472
21
2.13463
0
LINE
8
BLACK
6
CONTINUOUS
10
1.25472
20
2.13463
11
1.25314
21
2.13232
0
LINE
8
BLACK
6
CONTINUOUS
10
1.25314
20
2.13232
11
1.25057
21
2.13123
0
LINE
8
BLACK
6
CONTINUOUS
10
1.25057
20
2.13123
11
1.24781
21
2.13171
0
LINE
8
BLACK
6
CONTINUOUS
10
1.24781
20
2.13171
11
1.24575
21
2.1336
0
LINE
8
BLACK
6
CONTINUOUS
10
1.24575
20
2.1336
11
1.24528
21
2.13463
0
LINE
8
BLACK
6
CONTINUOUS
10
1.24528
20
2.13463
11
1.24518
21
2.13493
0
LINE
8
BLACK
6
CONTINUOUS
10
1.24518
20
2.13493
11
1.24292
21
2.13938
0
LINE
8
BLACK
6
CONTINUOUS
10
1.24292
20
2.13938
11
1.23938
21
2.14292
0
LINE
8
BLACK
6
CONTINUOUS
10
1.23938
20
2.14292
11
1.2364
21
2.14444
0
LINE
8
BLACK
6
CONTINUOUS
10
1.2364
20
2.14444
11
1.23493
21
2.14518
0
LINE
8
BLACK
6
CONTINUOUS
10
1.23493
20
2.14518
11
1.23124
21
2.14577
0
LINE
8
BLACK
6
CONTINUOUS
10
1.23124
20
2.14577
11
1.23124
21
2.14577
0
LINE
8
BLACK
6
CONTINUOUS
10
1.23124
20
2.14577
11
1.16876
21
2.14577
0
LINE
8
BLACK
6
CONTINUOUS
10
1.16876
20
2.14577
11
1.16507
21
2.14518
0
LINE
8
BLACK
6
CONTINUOUS
10
1.16507
20
2.14518
11
1.16062
21
2.14292
0
LINE
8
BLACK
6
CONTINUOUS
10
1.16062
20
2.14292
11
1.15708
21
2.13938
0
LINE
8
BLACK
6
CONTINUOUS
10
1.15708
20
2.13938
11
1.15482
21
2.13493
0
LINE
8
BLACK
6
CONTINUOUS
10
1.15482
20
2.13493
11
1.15472
21
2.13463
0
LINE
8
BLACK
6
CONTINUOUS
10
1.15472
20
2.13463
11
1.15314
21
2.13232
0
LINE
8
BLACK
6
CONTINUOUS
10
1.15314
20
2.13232
11
1.15057
21
2.13123
0
LINE
8
BLACK
6
CONTINUOUS
10
1.15057
20
2.13123
11
1.14781
21
2.13171
0
LINE
8
BLACK
6
CONTINUOUS
10
1.14781
20
2.13171
11
1.14575
21
2.1336
0
LINE
8
BLACK
6
CONTINUOUS
10
1.14575
20
2.1336
11
1.14528
21
2.13463
0
LINE
8
BLACK
6
CONTINUOUS
10
1.14528
20
2.13463
11
1.14518
21
2.13493
0
LINE
8
BLACK
6
CONTINUOUS
10
1.14518
20
2.13493
11
1.14292
21
2.13938
0
LINE
8
BLACK
6
CONTINUOUS
10
1.14292
20
2.13938
11
1.13938
21
2.14292
0
LINE
8
BLACK
6
CONTINUOUS
10
1.13938
20
2.14292
11
1.1364
21
2.14444
0
LINE
8
BLACK
6
CONTINUOUS
10
1.1364
20
2.14444
11
1.13493
21
2.14518
0
LINE
8
BLACK
6
CONTINUOUS
10
1.13493
20
2.14518
11
1.13124
21
2.14577
0
LINE
8
BLACK
6
CONTINUOUS
10
1.13124
20
2.14577
11
1.13124
21
2.14577
0
LINE
8
BLACK
6
CONTINUOUS
10
1.13124
20
2.14577
11
1.06876
21
2.14577
0
LINE
8
BLACK
6
CONTINUOUS
10
1.06876
20
2.14577
11
1.06507
21
2.14518
0
LINE
8
BLACK
6
CONTINUOUS
10
1.06507
20
2.14518
11
1.06062
21
2.14292
0
LINE
8
BLACK
6
CONTINUOUS
10
1.06062
20
2.14292
11
1.05708
21
2.13938
0
LINE
8
BLACK
6
CONTINUOUS
10
1.05708
20
2.13938
11
1.05482
21
2.13493
0
LINE
8
BLACK
6
CONTINUOUS
10
1.05482
20
2.13493
11
1.05472
21
2.13463
0
LINE
8
BLACK
6
CONTINUOUS
10
1.05472
20
2.13463
11
1.05314
21
2.13232
0
LINE
8
BLACK
6
CONTINUOUS
10
1.05314
20
2.13232
11
1.05057
21
2.13123
0
LINE
8
BLACK
6
CONTINUOUS
10
1.05057
20
2.13123
11
1.04781
21
2.13171
0
LINE
8
BLACK
6
CONTINUOUS
10
1.04781
20
2.13171
11
1.04575
21
2.1336
0
LINE
8
BLACK
6
CONTINUOUS
10
1.04575
20
2.1336
11
1.04528
21
2.13463
0
LINE
8
BLACK
6
CONTINUOUS
10
1.04528
20
2.13463
11
1.04518
21
2.13493
0
LINE
8
BLACK
6
CONTINUOUS
10
1.04518
20
2.13493
11
1.04292
21
2.13938
0
LINE
8
BLACK
6
CONTINUOUS
10
1.04292
20
2.13938
11
1.03938
21
2.14292
0
LINE
8
BLACK
6
CONTINUOUS
10
1.03938
20
2.14292
11
1.0364
21
2.14444
0
LINE
8
BLACK
6
CONTINUOUS
10
1.0364
20
2.14444
11
1.03493
21
2.14518
0
LINE
8
BLACK
6
CONTINUOUS
10
1.03493
20
2.14518
11
1.03124
21
2.14577
0
LINE
8
BLACK
6
CONTINUOUS
10
1.03124
20
2.14577
11
1.03124
21
2.14577
0
LINE
8
BLACK
6
CONTINUOUS
10
1.03124
20
2.14577
11
0.968759
21
2.14577
0
LINE
8
BLACK
6
CONTINUOUS
10
0.968759
20
2.14577
11
0.965067
21
2.14518
0
LINE
8
BLACK
6
CONTINUOUS
10
1.95482
20
1.96507
11
1.95708
21
1.96062
0
LINE
8
BLACK
6
CONTINUOUS
10
1.95708
20
1.96062
11
1.96062
21
1.95708
0
LINE
8
BLACK
6
CONTINUOUS
10
1.96062
20
1.95708
11
1.96214
21
1.95631
0
LINE
8
BLACK
6
CONTINUOUS
10
1.96214
20
1.95631
11
1.96507
21
1.95482
0
LINE
8
BLACK
6
CONTINUOUS
10
1.96507
20
1.95482
11
1.96876
21
1.95423
0
LINE
8
BLACK
6
CONTINUOUS
10
1.96876
20
1.95423
11
2.03124
21
1.95423
0
LINE
8
BLACK
6
CONTINUOUS
10
2.03124
20
1.95423
11
2.03493
21
1.95482
0
LINE
8
BLACK
6
CONTINUOUS
10
2.03493
20
1.95482
11
2.03938
21
1.95708
0
LINE
8
BLACK
6
CONTINUOUS
10
2.03938
20
1.95708
11
2.04292
21
1.96062
0
LINE
8
BLACK
6
CONTINUOUS
10
2.04292
20
1.96062
11
2.04518
21
1.96507
0
LINE
8
BLACK
6
CONTINUOUS
10
2.04518
20
1.96507
11
2.04518
21
1.96507
0
LINE
8
BLACK
6
CONTINUOUS
10
2.04518
20
1.96507
11
2.04528
21
1.96537
0
LINE
8
BLACK
6
CONTINUOUS
10
2.04528
20
1.96537
11
2.04686
21
1.96768
0
LINE
8
BLACK
6
CONTINUOUS
10
2.04686
20
1.96768
11
2.04943
21
1.96877
0
LINE
8
BLACK
6
CONTINUOUS
10
2.04943
20
1.96877
11
2.05219
21
1.96829
0
LINE
8
BLACK
6
CONTINUOUS
10
2.05219
20
1.96829
11
2.05425
21
1.9664
0
LINE
8
BLACK
6
CONTINUOUS
10
2.05425
20
1.9664
11
2.05472
21
1.96537
0
LINE
8
BLACK
6
CONTINUOUS
10
2.05472
20
1.96537
11
2.05482
21
1.96507
0
LINE
8
BLACK
6
CONTINUOUS
10
2.05482
20
1.96507
11
2.05708
21
1.96062
0
LINE
8
BLACK
6
CONTINUOUS
10
2.05708
20
1.96062
11
2.06062
21
1.95708
0
LINE
8
BLACK
6
CONTINUOUS
10
2.06062
20
1.95708
11
2.06214
21
1.95631
0
LINE
8
BLACK
6
CONTINUOUS
10
2.06214
20
1.95631
11
2.06507
21
1.95482
0
LINE
8
BLACK
6
CONTINUOUS
10
2.06507
20
1.95482
11
2.06876
21
1.95423
0
LINE
8
BLACK
6
CONTINUOUS
10
2.06876
20
1.95423
11
2.13124
21
1.95423
0
LINE
8
BLACK
6
CONTINUOUS
10
2.13124
20
1.95423
11
2.13493
21
1.95482
0
LINE
8
BLACK
6
CONTINUOUS
10
2.13493
20
1.95482
11
2.13938
21
1.95708
0
LINE
8
BLACK
6
CONTINUOUS
10
2.13938
20
1.95708
11
2.14292
21
1.96062
0
LINE
8
BLACK
6
CONTINUOUS
10
2.14292
20
1.96062
11
2.14518
21
1.96507
0
LINE
8
BLACK
6
CONTINUOUS
10
2.14518
20
1.96507
11
2.14518
21
1.96507
0
LINE
8
BLACK
6
CONTINUOUS
10
2.14518
20
1.96507
11
2.14528
21
1.96537
0
LINE
8
BLACK
6
CONTINUOUS
10
2.14528
20
1.96537
11
2.14686
21
1.96768
0
LINE
8
BLACK
6
CONTINUOUS
10
2.14686
20
1.96768
11
2.14943
21
1.96877
0
LINE
8
BLACK
6
CONTINUOUS
10
2.14943
20
1.96877
11
2.15219
21
1.96829
0
LINE
8
BLACK
6
CONTINUOUS
10
2.15219
20
1.96829
11
2.15425
21
1.9664
0
LINE
8
BLACK
6
CONTINUOUS
10
2.15425
20
1.9664
11
2.15472
21
1.96537
0
LINE
8
BLACK
6
CONTINUOUS
10
2.15472
20
1.96537
11
2.15482
21
1.96507
0
LINE
8
BLACK
6
CONTINUOUS
10
2.15482
20
1.96507
11
2.15708
21
1.96062
0
LINE
8
BLACK
6
CONTINUOUS
10
2.15708
20
1.96062
11
2.16062
21
1.95708
0
LINE
8
BLACK
6
CONTINUOUS
10
2.16062
20
1.95708
11
2.16214
21
1.95631
0
LINE
8
BLACK
6
CONTINUOUS
10
2.16214
20
1.95631
11
2.16507
21
1.95482
0
LINE
8
BLACK
6
CONTINUOUS
10
2.16507
20
1.95482
11
2.16876
21
1.95423
0
LINE
8
BLACK
6
CONTINUOUS
10
2.16876
20
1.95423
11
2.20908
21
1.95423
0
LINE
8
BLACK
6
CONTINUOUS
10
2.20908
20
1.95423
11
2.21177
21
1.95344
0
LINE
8
BLACK
6
CONTINUOUS
10
2.21177
20
1.95344
11
2.21259
21
1.95278
0
LINE
8
BLACK
6
CONTINUOUS
10
2.21259
20
1.95278
11
2.23508
21
1.93029
0
LINE
8
BLACK
6
CONTINUOUS
10
2.23508
20
1.93029
11
2.23547
21
1.9298
0
LINE
8
BLACK
6
CONTINUOUS
10
2.23547
20
1.9298
11
2.23548
21
1.92981
0
LINE
8
BLACK
6
CONTINUOUS
10
2.23548
20
1.92981
11
2.23568
21
1.92957
0
LINE
8
BLACK
6
CONTINUOUS
10
2.23568
20
1.92957
11
2.23766
21
1.92771
0
LINE
8
BLACK
6
CONTINUOUS
10
2.23766
20
1.92771
11
2.23849
21
1.92689
0
LINE
8
BLACK
6
CONTINUOUS
10
2.23849
20
1.92689
11
2.23849
21
1.92688
0
LINE
8
BLACK
6
CONTINUOUS
10
2.23849
20
1.92688
11
2.2387
21
1.92672
0
LINE
8
BLACK
6
CONTINUOUS
10
2.2387
20
1.92672
11
2.23888
21
1.92657
0
LINE
8
BLACK
6
CONTINUOUS
10
2.23888
20
1.92657
11
2.24021
21
1.92531
0
LINE
8
BLACK
6
CONTINUOUS
10
2.24021
20
1.92531
11
2.2409
21
1.92494
0
LINE
8
BLACK
6
CONTINUOUS
10
2.2409
20
1.92494
11
2.24155
21
1.92451
0
LINE
8
BLACK
6
CONTINUOUS
10
2.24155
20
1.92451
11
2.24217
21
1.92403
0
LINE
8
BLACK
6
CONTINUOUS
10
2.24217
20
1.92403
11
2.24379
21
1.92333
0
LINE
8
BLACK
6
CONTINUOUS
10
2.24379
20
1.92333
11
2.24385
21
1.9233
0
LINE
8
BLACK
6
CONTINUOUS
10
2.24385
20
1.9233
11
2.24406
21
1.9232
0
LINE
8
BLACK
6
CONTINUOUS
10
2.24406
20
1.9232
11
2.24567
21
1.92232
0
LINE
8
BLACK
6
CONTINUOUS
10
2.24567
20
1.92232
11
2.24642
21
1.92212
0
LINE
8
BLACK
6
CONTINUOUS
10
2.24642
20
1.92212
11
2.24716
21
1.92187
0
LINE
8
BLACK
6
CONTINUOUS
10
2.24716
20
1.92187
11
2.24788
21
1.92156
0
LINE
8
BLACK
6
CONTINUOUS
10
2.24788
20
1.92156
11
2.24969
21
1.92127
0
LINE
8
BLACK
6
CONTINUOUS
10
2.24969
20
1.92127
11
2.24992
21
1.92122
0
LINE
8
BLACK
6
CONTINUOUS
10
2.24992
20
1.92122
11
2.25169
21
1.92077
0
LINE
8
BLACK
6
CONTINUOUS
10
2.25169
20
1.92077
11
2.25247
21
1.92077
0
LINE
8
BLACK
6
CONTINUOUS
10
2.25247
20
1.92077
11
2.25325
21
1.92071
0
LINE
8
BLACK
6
CONTINUOUS
10
2.25325
20
1.92071
11
2.25333
21
1.92069
0
LINE
8
BLACK
6
CONTINUOUS
10
2.25333
20
1.92069
11
2.25402
21
1.92058
0
LINE
8
BLACK
6
CONTINUOUS
10
2.25402
20
1.92058
11
2.25534
21
1.92071
0
LINE
8
BLACK
6
CONTINUOUS
10
2.25534
20
1.92071
11
2.25585
21
1.92076
0
LINE
8
BLACK
6
CONTINUOUS
10
2.25585
20
1.92076
11
2.25608
21
1.92077
0
LINE
8
BLACK
6
CONTINUOUS
10
2.25608
20
1.92077
11
2.49735
21
1.92077
0
LINE
8
BLACK
6
CONTINUOUS
10
2.49735
20
1.92077
11
2.50003
21
1.91998
0
LINE
8
BLACK
6
CONTINUOUS
10
2.50003
20
1.91998
11
2.50086
21
1.91931
0
LINE
8
BLACK
6
CONTINUOUS
10
2.50086
20
1.91931
11
2.77392
21
1.64625
0
LINE
8
BLACK
6
CONTINUOUS
10
2.77392
20
1.64625
11
2.77526
21
1.6438
0
LINE
8
BLACK
6
CONTINUOUS
10
2.77526
20
1.6438
11
2.77537
21
1.64274
0
LINE
8
BLACK
6
CONTINUOUS
10
2.77537
20
1.64274
11
2.77537
21
1.19147
0
LINE
8
BLACK
6
CONTINUOUS
10
2.77537
20
1.19147
11
2.77461
21
1.18883
0
LINE
8
BLACK
6
CONTINUOUS
10
2.77461
20
1.18883
11
2.77143
21
1.18376
0
LINE
8
BLACK
6
CONTINUOUS
10
2.77143
20
1.18376
11
2.77143
21
1.18376
0
LINE
8
BLACK
6
CONTINUOUS
10
2.77143
20
1.18376
11
2.77035
21
1.18069
0
LINE
8
BLACK
6
CONTINUOUS
10
2.77035
20
1.18069
11
2.76908
21
1.17706
0
LINE
8
BLACK
6
CONTINUOUS
10
2.76908
20
1.17706
11
2.76829
21
1.17
0
LINE
8
BLACK
6
CONTINUOUS
10
2.76829
20
1.17
11
2.76908
21
1.16294
0
LINE
8
BLACK
6
CONTINUOUS
10
2.76908
20
1.16294
11
2.77005
21
1.16018
0
LINE
8
BLACK
6
CONTINUOUS
10
2.77005
20
1.16018
11
2.77143
21
1.15624
0
LINE
8
BLACK
6
CONTINUOUS
10
2.77143
20
1.15624
11
2.77143
21
1.15624
0
LINE
8
BLACK
6
CONTINUOUS
10
2.77143
20
1.15624
11
2.7752
21
1.15023
0
LINE
8
BLACK
6
CONTINUOUS
10
2.7752
20
1.15023
11
2.7752
21
1.15023
0
LINE
8
BLACK
6
CONTINUOUS
10
2.7752
20
1.15023
11
2.78023
21
1.1452
0
LINE
8
BLACK
6
CONTINUOUS
10
2.78023
20
1.1452
11
2.78023
21
1.1452
0
LINE
8
BLACK
6
CONTINUOUS
10
2.78023
20
1.1452
11
2.78624
21
1.14143
0
LINE
8
BLACK
6
CONTINUOUS
10
2.78624
20
1.14143
11
2.78624
21
1.14143
0
LINE
8
BLACK
6
CONTINUOUS
10
2.78624
20
1.14143
11
2.78624
21
1.14143
0
LINE
8
BLACK
6
CONTINUOUS
10
2.78624
20
1.14143
11
2.79294
21
1.13908
0
LINE
8
BLACK
6
CONTINUOUS
10
2.79294
20
1.13908
11
2.8
21
1.13828
0
LINE
8
BLACK
6
CONTINUOUS
10
2.8
20
1.13828
11
2.80706
21
1.13908
0
LINE
8
BLACK
6
CONTINUOUS
10
2.80706
20
1.13908
11
2.81376
21
1.14143
0
LINE
8
BLACK
6
CONTINUOUS
10
2.81376
20
1.14143
11
2.81977
21
1.1452
0
LINE
8
BLACK
6
CONTINUOUS
10
2.81977
20
1.1452
11
2.8248
21
1.15023
0
LINE
8
BLACK
6
CONTINUOUS
10
2.8248
20
1.15023
11
2.82857
21
1.15624
0
LINE
8
BLACK
6
CONTINUOUS
10
2.82857
20
1.15624
11
2.83092
21
1.16294
0
LINE
8
BLACK
6
CONTINUOUS
10
2.83092
20
1.16294
11
2.83172
21
1.17
0
LINE
8
BLACK
6
CONTINUOUS
10
2.83172
20
1.17
11
2.83092
21
1.17706
0
LINE
8
BLACK
6
CONTINUOUS
10
2.83092
20
1.17706
11
2.82857
21
1.18376
0
LINE
8
BLACK
6
CONTINUOUS
10
2.82857
20
1.18376
11
2.82857
21
1.18376
0
LINE
8
BLACK
6
CONTINUOUS
10
2.82857
20
1.18376
11
2.82857
21
1.18376
0
LINE
8
BLACK
6
CONTINUOUS
10
2.82857
20
1.18376
11
2.82539
21
1.18883
0
LINE
8
BLACK
6
CONTINUOUS
10
2.82539
20
1.18883
11
2.82463
21
1.19147
0
LINE
8
BLACK
6
CONTINUOUS
10
2.82463
20
1.19147
11
2.82463
21
1.65173
0
LINE
8
BLACK
6
CONTINUOUS
10
2.82463
20
1.65173
11
2.82469
21
1.65235
0
LINE
8
BLACK
6
CONTINUOUS
10
2.82469
20
1.65235
11
2.82468
21
1.65235
0
LINE
8
BLACK
6
CONTINUOUS
10
2.82468
20
1.65235
11
2.82471
21
1.65266
0
LINE
8
BLACK
6
CONTINUOUS
10
2.82471
20
1.65266
11
2.82463
21
1.65539
0
LINE
8
BLACK
6
CONTINUOUS
10
2.82463
20
1.65539
11
2.82463
21
1.65655
0
LINE
8
BLACK
6
CONTINUOUS
10
2.82463
20
1.65655
11
2.82459
21
1.65682
0
LINE
8
BLACK
6
CONTINUOUS
10
2.82459
20
1.65682
11
2.82457
21
1.65705
0
LINE
8
BLACK
6
CONTINUOUS
10
2.82457
20
1.65705
11
2.82452
21
1.65888
0
LINE
8
BLACK
6
CONTINUOUS
10
2.82452
20
1.65888
11
2.8243
21
1.65963
0
LINE
8
BLACK
6
CONTINUOUS
10
2.8243
20
1.65963
11
2.82414
21
1.6604
0
LINE
8
BLACK
6
CONTINUOUS
10
2.82414
20
1.6604
11
2.82404
21
1.66117
0
LINE
8
BLACK
6
CONTINUOUS
10
2.82404
20
1.66117
11
2.82337
21
1.66288
0
LINE
8
BLACK
6
CONTINUOUS
10
2.82337
20
1.66288
11
2.82329
21
1.6631
0
LINE
8
BLACK
6
CONTINUOUS
10
2.82329
20
1.6631
11
2.82328
21
1.66315
0
LINE
8
BLACK
6
CONTINUOUS
10
2.82328
20
1.66315
11
2.82278
21
1.66486
0
LINE
8
BLACK
6
CONTINUOUS
10
2.82278
20
1.66486
11
2.8227
21
1.665
0
LINE
8
BLACK
6
CONTINUOUS
10
2.8227
20
1.665
11
2.82238
21
1.66553
0
LINE
8
BLACK
6
CONTINUOUS
10
2.82238
20
1.66553
11
2.82204
21
1.66623
0
LINE
8
BLACK
6
CONTINUOUS
10
2.82204
20
1.66623
11
2.82175
21
1.66696
0
LINE
8
BLACK
6
CONTINUOUS
10
2.82175
20
1.66696
11
2.82175
21
1.66696
0
LINE
8
BLACK
6
CONTINUOUS
10
2.82175
20
1.66696
11
2.82067
21
1.66844
0
LINE
8
BLACK
6
CONTINUOUS
10
2.82067
20
1.66844
11
2.82055
21
1.66864
0
LINE
8
BLACK
6
CONTINUOUS
10
2.82055
20
1.66864
11
2.81961
21
1.67021
0
LINE
8
BLACK
6
CONTINUOUS
10
2.81961
20
1.67021
11
2.81961
21
1.67021
0
LINE
8
BLACK
6
CONTINUOUS
10
2.81961
20
1.67021
11
2.81961
21
1.67021
0
LINE
8
BLACK
6
CONTINUOUS
10
2.81961
20
1.67021
11
2.81906
21
1.67077
0
LINE
8
BLACK
6
CONTINUOUS
10
2.81906
20
1.67077
11
2.81855
21
1.67136
0
LINE
8
BLACK
6
CONTINUOUS
10
2.81855
20
1.67136
11
2.81809
21
1.67199
0
LINE
8
BLACK
6
CONTINUOUS
10
2.81809
20
1.67199
11
2.81809
21
1.67199
0
LINE
8
BLACK
6
CONTINUOUS
10
2.81809
20
1.67199
11
2.81668
21
1.67316
0
LINE
8
BLACK
6
CONTINUOUS
10
2.81668
20
1.67316
11
2.81651
21
1.67332
0
LINE
8
BLACK
6
CONTINUOUS
10
2.81651
20
1.67332
11
2.52933
21
1.9605
0
LINE
8
BLACK
6
CONTINUOUS
10
2.52933
20
1.9605
11
2.52894
21
1.96098
0
LINE
8
BLACK
6
CONTINUOUS
10
2.52894
20
1.96098
11
2.52893
21
1.96098
0
LINE
8
BLACK
6
CONTINUOUS
10
2.52893
20
1.96098
11
2.52873
21
1.96122
0
LINE
8
BLACK
6
CONTINUOUS
10
2.52873
20
1.96122
11
2.52675
21
1.96308
0
LINE
8
BLACK
6
CONTINUOUS
10
2.52675
20
1.96308
11
2.52592
21
1.9639
0
LINE
8
BLACK
6
CONTINUOUS
10
2.52592
20
1.9639
11
2.52592
21
1.9639
0
LINE
8
BLACK
6
CONTINUOUS
10
2.52592
20
1.9639
11
2.52571
21
1.96407
0
LINE
8
BLACK
6
CONTINUOUS
10
2.52571
20
1.96407
11
2.52553
21
1.96422
0
LINE
8
BLACK
6
CONTINUOUS
10
2.52553
20
1.96422
11
2.5242
21
1.96547
0
LINE
8
BLACK
6
CONTINUOUS
10
2.5242
20
1.96547
11
2.5242
21
1.96547
0
LINE
8
BLACK
6
CONTINUOUS
10
2.5242
20
1.96547
11
2.52351
21
1.96585
0
LINE
8
BLACK
6
CONTINUOUS
10
2.52351
20
1.96585
11
2.52286
21
1.96628
0
LINE
8
BLACK
6
CONTINUOUS
10
2.52286
20
1.96628
11
2.52224
21
1.96676
0
LINE
8
BLACK
6
CONTINUOUS
10
2.52224
20
1.96676
11
2.52224
21
1.96676
0
LINE
8
BLACK
6
CONTINUOUS
10
2.52224
20
1.96676
11
2.52136
21
1.96714
0
LINE
8
BLACK
6
CONTINUOUS
10
2.52136
20
1.96714
11
2.52056
21
1.96749
0
LINE
8
BLACK
6
CONTINUOUS
10
2.52056
20
1.96749
11
2.52035
21
1.96759
0
LINE
8
BLACK
6
CONTINUOUS
10
2.52035
20
1.96759
11
2.51874
21
1.96847
0
LINE
8
BLACK
6
CONTINUOUS
10
2.51874
20
1.96847
11
2.51874
21
1.96847
0
LINE
8
BLACK
6
CONTINUOUS
10
2.51874
20
1.96847
11
2.51799
21
1.96867
0
LINE
8
BLACK
6
CONTINUOUS
10
2.51799
20
1.96867
11
2.51725
21
1.96892
0
LINE
8
BLACK
6
CONTINUOUS
10
2.51725
20
1.96892
11
2.51653
21
1.96923
0
LINE
8
BLACK
6
CONTINUOUS
10
2.51653
20
1.96923
11
2.51653
21
1.96923
0
LINE
8
BLACK
6
CONTINUOUS
10
2.51653
20
1.96923
11
2.51472
21
1.96952
0
LINE
8
BLACK
6
CONTINUOUS
10
2.51472
20
1.96952
11
2.51449
21
1.96956
0
LINE
8
BLACK
6
CONTINUOUS
10
2.51449
20
1.96956
11
2.51272
21
1.97002
0
LINE
8
BLACK
6
CONTINUOUS
10
2.51272
20
1.97002
11
2.51272
21
1.97002
0
LINE
8
BLACK
6
CONTINUOUS
10
2.51272
20
1.97002
11
2.51193
21
1.97002
0
LINE
8
BLACK
6
CONTINUOUS
10
2.51193
20
1.97002
11
2.51116
21
1.97008
0
LINE
8
BLACK
6
CONTINUOUS
10
2.51116
20
1.97008
11
2.51039
21
1.9702
0
LINE
8
BLACK
6
CONTINUOUS
10
2.51039
20
1.9702
11
2.51039
21
1.9702
0
LINE
8
BLACK
6
CONTINUOUS
10
2.51039
20
1.9702
11
2.50856
21
1.97003
0
LINE
8
BLACK
6
CONTINUOUS
10
2.50856
20
1.97003
11
2.50833
21
1.97002
0
LINE
8
BLACK
6
CONTINUOUS
10
2.50833
20
1.97002
11
2.33
21
1.97002
0
LINE
8
BLACK
6
CONTINUOUS
10
2.33
20
1.97002
11
2.33
21
1.97
0
LINE
8
BLACK
6
CONTINUOUS
10
2.33
20
1.97
11
2.27
21
1.97
0
LINE
8
BLACK
6
CONTINUOUS
10
2.27
20
1.97
11
2.27
21
1.97002
0
LINE
8
BLACK
6
CONTINUOUS
10
2.27
20
1.97002
11
2.26706
21
1.97002
0
LINE
8
BLACK
6
CONTINUOUS
10
2.26706
20
1.97002
11
2.26438
21
1.97081
0
LINE
8
BLACK
6
CONTINUOUS
10
2.26438
20
1.97081
11
2.26355
21
1.97147
0
LINE
8
BLACK
6
CONTINUOUS
10
2.26355
20
1.97147
11
2.24722
21
1.9878
0
LINE
8
BLACK
6
CONTINUOUS
10
2.24722
20
1.9878
11
2.24588
21
1.99026
0
LINE
8
BLACK
6
CONTINUOUS
10
2.24588
20
1.99026
11
2.24577
21
1.99131
0
LINE
8
BLACK
6
CONTINUOUS
10
2.24577
20
1.99131
11
2.24577
21
2.03124
0
LINE
8
BLACK
6
CONTINUOUS
10
2.24577
20
2.03124
11
2.24569
21
2.03171
0
LINE
8
BLACK
6
CONTINUOUS
10
2.24569
20
2.03171
11
2.24518
21
2.03493
0
LINE
8
BLACK
6
CONTINUOUS
10
2.24518
20
2.03493
11
2.24405
21
2.03716
0
LINE
8
BLACK
6
CONTINUOUS
10
2.24405
20
2.03716
11
2.24292
21
2.03938
0
LINE
8
BLACK
6
CONTINUOUS
10
2.24292
20
2.03938
11
2.23938
21
2.04292
0
LINE
8
BLACK
6
CONTINUOUS
10
2.23938
20
2.04292
11
2.23493
21
2.04518
0
LINE
8
BLACK
6
CONTINUOUS
10
2.23493
20
2.04518
11
2.23463
21
2.04528
0
LINE
8
BLACK
6
CONTINUOUS
10
2.23463
20
2.04528
11
2.23232
21
2.04686
0
LINE
8
BLACK
6
CONTINUOUS
10
2.23232
20
2.04686
11
2.23123
21
2.04943
0
LINE
8
BLACK
6
CONTINUOUS
10
2.23123
20
2.04943
11
2.23171
21
2.05219
0
LINE
8
BLACK
6
CONTINUOUS
10
2.23171
20
2.05219
11
2.2336
21
2.05425
0
LINE
8
BLACK
6
CONTINUOUS
10
2.2336
20
2.05425
11
2.23463
21
2.05472
0
LINE
8
BLACK
6
CONTINUOUS
10
2.23463
20
2.05472
11
2.23493
21
2.05482
0
LINE
8
BLACK
6
CONTINUOUS
10
2.23493
20
2.05482
11
2.23493
21
2.05482
0
LINE
8
BLACK
6
CONTINUOUS
10
2.23493
20
2.05482
11
2.23938
21
2.05708
0
LINE
8
BLACK
6
CONTINUOUS
10
2.23938
20
2.05708
11
2.24292
21
2.06062
0
LINE
8
BLACK
6
CONTINUOUS
10
2.24292
20
2.06062
11
2.24518
21
2.06507
0
LINE
8
BLACK
6
CONTINUOUS
10
2.24518
20
2.06507
11
2.24577
21
2.06876
0
LINE
8
BLACK
6
CONTINUOUS
10
2.24577
20
2.06876
11
2.24577
21
2.13124
0
LINE
8
BLACK
6
CONTINUOUS
10
2.24577
20
2.13124
11
2.24518
21
2.13493
0
LINE
8
BLACK
6
CONTINUOUS
10
2.24518
20
2.13493
11
2.24405
21
2.13716
0
LINE
8
BLACK
6
CONTINUOUS
10
2.24405
20
2.13716
11
2.24292
21
2.13938
0
LINE
8
BLACK
6
CONTINUOUS
10
2.24292
20
2.13938
11
2.23938
21
2.14292
0
LINE
8
BLACK
6
CONTINUOUS
10
2.23938
20
2.14292
11
2.2364
21
2.14444
0
LINE
8
BLACK
6
CONTINUOUS
10
2.2364
20
2.14444
11
2.23493
21
2.14518
0
LINE
8
BLACK
6
CONTINUOUS
10
2.23493
20
2.14518
11
2.23124
21
2.14577
0
LINE
8
BLACK
6
CONTINUOUS
10
2.23124
20
2.14577
11
2.23124
21
2.14577
0
LINE
8
BLACK
6
CONTINUOUS
10
2.23124
20
2.14577
11
2.16876
21
2.14577
0
LINE
8
BLACK
6
CONTINUOUS
10
2.16876
20
2.14577
11
2.16507
21
2.14518
0
LINE
8
BLACK
6
CONTINUOUS
10
2.16507
20
2.14518
11
2.16062
21
2.14292
0
LINE
8
BLACK
6
CONTINUOUS
10
2.16062
20
2.14292
11
2.15708
21
2.13938
0
LINE
8
BLACK
6
CONTINUOUS
10
2.15708
20
2.13938
11
2.15482
21
2.13493
0
LINE
8
BLACK
6
CONTINUOUS
10
2.15482
20
2.13493
11
2.15472
21
2.13463
0
LINE
8
BLACK
6
CONTINUOUS
10
2.15472
20
2.13463
11
2.15314
21
2.13232
0
LINE
8
BLACK
6
CONTINUOUS
10
2.15314
20
2.13232
11
2.15057
21
2.13123
0
LINE
8
BLACK
6
CONTINUOUS
10
2.15057
20
2.13123
11
2.14781
21
2.13171
0
LINE
8
BLACK
6
CONTINUOUS
10
2.14781
20
2.13171
11
2.14575
21
2.1336
0
LINE
8
BLACK
6
CONTINUOUS
10
2.14575
20
2.1336
11
2.14528
21
2.13463
0
LINE
8
BLACK
6
CONTINUOUS
10
2.14528
20
2.13463
11
2.14518
21
2.13493
0
LINE
8
BLACK
6
CONTINUOUS
10
2.14518
20
2.13493
11
2.14292
21
2.13938
0
LINE
8
BLACK
6
CONTINUOUS
10
2.14292
20
2.13938
11
2.13938
21
2.14292
0
LINE
8
BLACK
6
CONTINUOUS
10
2.13938
20
2.14292
11
2.1364
21
2.14444
0
LINE
8
BLACK
6
CONTINUOUS
10
2.1364
20
2.14444
11
2.13493
21
2.14518
0
LINE
8
BLACK
6
CONTINUOUS
10
2.13493
20
2.14518
11
2.13124
21
2.14577
0
LINE
8
BLACK
6
CONTINUOUS
10
2.13124
20
2.14577
11
2.13124
21
2.14577
0
LINE
8
BLACK
6
CONTINUOUS
10
2.13124
20
2.14577
11
2.06876
21
2.14577
0
LINE
8
BLACK
6
CONTINUOUS
10
2.06876
20
2.14577
11
2.06507
21
2.14518
0
LINE
8
BLACK
6
CONTINUOUS
10
2.06507
20
2.14518
11
2.06062
21
2.14292
0
LINE
8
BLACK
6
CONTINUOUS
10
2.06062
20
2.14292
11
2.05708
21
2.13938
0
LINE
8
BLACK
6
CONTINUOUS
10
2.05708
20
2.13938
11
2.05482
21
2.13493
0
LINE
8
BLACK
6
CONTINUOUS
10
2.05482
20
2.13493
11
2.05472
21
2.13463
0
LINE
8
BLACK
6
CONTINUOUS
10
2.05472
20
2.13463
11
2.05314
21
2.13232
0
LINE
8
BLACK
6
CONTINUOUS
10
2.05314
20
2.13232
11
2.05057
21
2.13123
0
LINE
8
BLACK
6
CONTINUOUS
10
2.05057
20
2.13123
11
2.04781
21
2.13171
0
LINE
8
BLACK
6
CONTINUOUS
10
2.04781
20
2.13171
11
2.04575
21
2.1336
0
LINE
8
BLACK
6
CONTINUOUS
10
2.04575
20
2.1336
11
2.04528
21
2.13463
0
LINE
8
BLACK
6
CONTINUOUS
10
2.04528
20
2.13463
11
2.04518
21
2.13493
0
LINE
8
BLACK
6
CONTINUOUS
10
2.04518
20
2.13493
11
2.04292
21
2.13938
0
LINE
8
BLACK
6
CONTINUOUS
10
2.04292
20
2.13938
11
2.03938
21
2.14292
0
LINE
8
BLACK
6
CONTINUOUS
10
2.03938
20
2.14292
11
2.0364
21
2.14444
0
LINE
8
BLACK
6
CONTINUOUS
10
2.0364
20
2.14444
11
2.03493
21
2.14518
0
LINE
8
BLACK
6
CONTINUOUS
10
2.03493
20
2.14518
11
2.03124
21
2.14577
0
LINE
8
BLACK
6
CONTINUOUS
10
2.03124
20
2.14577
11
2.03124
21
2.14577
0
LINE
8
BLACK
6
CONTINUOUS
10
2.03124
20
2.14577
11
1.96876
21
2.14577
0
LINE
8
BLACK
6
CONTINUOUS
10
1.96876
20
2.14577
11
1.96507
21
2.14518
0
LINE
8
BLACK
6
CONTINUOUS
10
1.96507
20
2.14518
11
1.96062
21
2.14292
0
LINE
8
BLACK
6
CONTINUOUS
10
1.96062
20
2.14292
11
1.95708
21
2.13938
0
LINE
8
BLACK
6
CONTINUOUS
10
1.95708
20
2.13938
11
1.95482
21
2.13493
0
LINE
8
BLACK
6
CONTINUOUS
10
1.95482
20
2.13493
11
1.95482
21
2.13493
0
LINE
8
BLACK
6
CONTINUOUS
10
1.95482
20
2.13493
11
1.95423
21
2.13124
0
LINE
8
BLACK
6
CONTINUOUS
10
1.95423
20
2.13124
11
1.95423
21
2.13124
0
LINE
8
BLACK
6
CONTINUOUS
10
1.95423
20
2.13124
11
1.95423
21
2.06876
0
LINE
8
BLACK
6
CONTINUOUS
10
1.95423
20
2.06876
11
1.95482
21
2.06507
0
LINE
8
BLACK
6
CONTINUOUS
10
1.95482
20
2.06507
11
1.95708
21
2.06062
0
LINE
8
BLACK
6
CONTINUOUS
10
1.95708
20
2.06062
11
1.96062
21
2.05708
0
LINE
8
BLACK
6
CONTINUOUS
10
1.96062
20
2.05708
11
1.96288
21
2.05593
0
LINE
8
BLACK
6
CONTINUOUS
10
1.96288
20
2.05593
11
1.96507
21
2.05482
0
LINE
8
BLACK
6
CONTINUOUS
10
1.96507
20
2.05482
11
1.96507
21
2.05482
0
LINE
8
BLACK
6
CONTINUOUS
10
1.96507
20
2.05482
11
1.96537
21
2.05472
0
LINE
8
BLACK
6
CONTINUOUS
10
1.96537
20
2.05472
11
1.96768
21
2.05314
0
LINE
8
BLACK
6
CONTINUOUS
10
1.96768
20
2.05314
11
1.96877
21
2.05057
0
LINE
8
BLACK
6
CONTINUOUS
10
1.96877
20
2.05057
11
1.96829
21
2.04781
0
LINE
8
BLACK
6
CONTINUOUS
10
1.96829
20
2.04781
11
1.9664
21
2.04575
0
LINE
8
BLACK
6
CONTINUOUS
10
1.9664
20
2.04575
11
1.96537
21
2.04528
0
LINE
8
BLACK
6
CONTINUOUS
10
1.96537
20
2.04528
11
1.96507
21
2.04518
0
LINE
8
BLACK
6
CONTINUOUS
10
1.96507
20
2.04518
11
1.96062
21
2.04292
0
LINE
8
BLACK
6
CONTINUOUS
10
1.96062
20
2.04292
11
1.95708
21
2.03938
0
LINE
8
BLACK
6
CONTINUOUS
10
1.95708
20
2.03938
11
1.95482
21
2.03493
0
LINE
8
BLACK
6
CONTINUOUS
10
1.95482
20
2.03493
11
1.95482
21
2.03493
0
LINE
8
BLACK
6
CONTINUOUS
10
1.95482
20
2.03493
11
1.95423
21
2.03124
0
LINE
8
BLACK
6
CONTINUOUS
10
1.95423
20
2.03124
11
1.95423
21
2.03124
0
LINE
8
BLACK
6
CONTINUOUS
10
1.95423
20
2.03124
11
1.95423
21
1.96876
0
LINE
8
BLACK
6
CONTINUOUS
10
1.95423
20
1.96876
11
1.95482
21
1.96507
0
CIRCLE
8
BLACK
10
0.4
20
2
40
0.00688976
0
CIRCLE
8
BLACK
10
2.8
20
2
40
0.00688976
0
CIRCLE
8
BLACK
10
0.4
20
0.4
40
0.00688976
0
CIRCLE
8
BLACK
10
2.8
20
0.4
40
0.00688976
0
CIRCLE
8
BLACK
10
2.33954
20
0.916
40
0.00688976
0
CIRCLE
8
BLACK
10
2.33954
20
1.11285
40
0.00688976
0
CIRCLE
8
BLACK
10
0.9
20
2.1
40
0.00688976
0
CIRCLE
8
BLACK
10
0.9
20
2
40
0.00688976
0
CIRCLE
8
BLACK
10
1
20
2.1
40
0.00688976
0
CIRCLE
8
BLACK
10
1
20
2
40
0.00688976
0
CIRCLE
8
BLACK
10
1.1
20
2.1
40
0.00688976
0
CIRCLE
8
BLACK
10
1.1
20
2
40
0.00688976
0
CIRCLE
8
BLACK
10
1.2
20
2.1
40
0.00688976
0
CIRCLE
8
BLACK
10
1.2
20
2
40
0.00688976
0
CIRCLE
8
BLACK
10
1.3
20
2.1
40
0.00688976
0
CIRCLE
8
BLACK
10
1.3
20
2
40
0.00688976
0
CIRCLE
8
BLACK
10
1.4
20
2.1
40
0.00688976
0
CIRCLE
8
BLACK
10
1.4
20
2
40
0.00688976
0
CIRCLE
8
BLACK
10
1.5
20
2.1
40
0.00688976
0
CIRCLE
8
BLACK
10
1.5
20
2
40
0.00688976
0
CIRCLE
8
BLACK
10
1.6
20
2.1
40
0.00688976
0
CIRCLE
8
BLACK
10
1.6
20
2
40
0.00688976
0
CIRCLE
8
BLACK
10
1.7
20
2.1
40
0.00688976
0
CIRCLE
8
BLACK
10
1.7
20
2
40
0.00688976
0
CIRCLE
8
BLACK
10
1.8
20
2.1
40
0.00688976
0
CIRCLE
8
BLACK
10
1.8
20
2
40
0.00688976
0
CIRCLE
8
BLACK
10
1.9
20
2.1
40
0.00688976
0
CIRCLE
8
BLACK
10
1.9
20
2
40
0.00688976
0
CIRCLE
8
BLACK
10
2
20
2.1
40
0.00688976
0
CIRCLE
8
BLACK
10
2
20
2
40
0.00688976
0
CIRCLE
8
BLACK
10
2.1
20
2.1
40
0.00688976
0
CIRCLE
8
BLACK
10
2.1
20
2
40
0.00688976
0
CIRCLE
8
BLACK
10
2.2
20
2.1
40
0.00688976
0
CIRCLE
8
BLACK
10
2.2
20
2
40
0.00688976
0
CIRCLE
8
BLACK
10
2.3
20
2.1
40
0.00688976
0
CIRCLE
8
BLACK
10
2.3
20
2
40
0.00688976
0
CIRCLE
8
BLACK
10
2.135
20
0.906
40
0.00787402
0
CIRCLE
8
BLACK
10
2.0014
20
1.0534
40
0.00787402
0
CIRCLE
8
BLACK
10
1.896
20
1.091
40
0.00787402
0
CIRCLE
8
BLACK
10
2.8
20
1.17
40
0.00787402
  0
ENDSEC
  0
EOF
