  0
SECTION
  2
HEADER
  9
$ANGBASE
  50
0.0
  9
$ANGDIR
  70
1
  9
$MEASUREMENT
  70
0
  0
ENDSEC
  0
SECTION
  2
TABLES
  0
TABLE
  2
LTYPE
  70
4
  0
LTYPE
  5
40F
  2
CONTINUOUS
  70
0
  3
Solid line
  72
65
  73
0
  40
0.0
  0
LTYPE
  5
410
  2
DASHDOT
 70
0
  3
Dash Dot ____ _ ____ _
 72
65
 73
4
 40
2.0
 49
1.25
 49
-0.25
 49
0.25
 49
-0.25
  0
LTYPE
  5
411
  2
DASHED
 70
0
  3
Dashed __ __ __ __ __
 72
65
 73
2
 40
0.75
 49
0.5
 49
-0.25
  0
LTYPE
  5
43B
  2
DOTTED
 70
0
  3
Dotted .  .  .  .
 72
65
 73
2
 40
0.2
 49
0.0
 49
-0.2
  0
ENDTAB
  0
TABLE
  2
STYLE
  70
4
  0
STYLE
  2
KICAD
  70
0
  40
0
  41
1
  42
1
  50
0
  71
0
  3
isocp.shx
  0
STYLE
  2
KICADB
  70
0
  40
0
  41
1
  42
1
  50
0
  71
0
  3
isocp.shx
  0
STYLE
  2
KICADI
  70
0
  40
0
  41
1
  42
1
  50
15
  71
0
  3
isocp.shx
  0
STYLE
  2
KICADBI
  70
0
  40
0
  41
1
  42
1
  50
15
  71
0
  3
isocp.shx
  0
ENDTAB
  0
TABLE
  2
LAYER
  70
1
  0
LAYER
  2
BLACK
  70
0
  62
7
  6
CONTINUOUS
  0
ENDTAB
  0
ENDSEC
  0
SECTION
  2
ENTITIES
0
LINE
8
BLACK
6
CONTINUOUS
10
0.445937
20
2.57558
11
0.447167
21
2.57398
0
LINE
8
BLACK
6
CONTINUOUS
10
0.447167
20
2.57398
11
0.447079
21
2.57196
0
LINE
8
BLACK
6
CONTINUOUS
10
0.447079
20
2.57196
11
0.445714
21
2.57047
0
LINE
8
BLACK
6
CONTINUOUS
10
0.445714
20
2.57047
11
0.412067
21
2.55295
0
LINE
8
BLACK
6
CONTINUOUS
10
0.412067
20
2.55295
11
2.78793
21
2.55295
0
LINE
8
BLACK
6
CONTINUOUS
10
2.78793
20
2.55295
11
2.75429
21
2.57047
0
LINE
8
BLACK
6
CONTINUOUS
10
2.75429
20
2.57047
11
2.75347
21
2.57109
0
LINE
8
BLACK
6
CONTINUOUS
10
2.75347
20
2.57109
11
2.7527
21
2.57296
0
LINE
8
BLACK
6
CONTINUOUS
10
2.7527
20
2.57296
11
2.75331
21
2.57489
0
LINE
8
BLACK
6
CONTINUOUS
10
2.75331
20
2.57489
11
2.75501
21
2.57597
0
LINE
8
BLACK
6
CONTINUOUS
10
2.75501
20
2.57597
11
2.75701
21
2.57571
0
LINE
8
BLACK
6
CONTINUOUS
10
2.75701
20
2.57571
11
2.79705
21
2.55487
0
LINE
8
BLACK
6
CONTINUOUS
10
2.79705
20
2.55487
11
2.79705
21
2.57309
0
LINE
8
BLACK
6
CONTINUOUS
10
2.79705
20
2.57309
11
2.79723
21
2.5741
0
LINE
8
BLACK
6
CONTINUOUS
10
2.79723
20
2.5741
11
2.79852
21
2.57564
0
LINE
8
BLACK
6
CONTINUOUS
10
2.79852
20
2.57564
11
2.80051
21
2.576
0
LINE
8
BLACK
6
CONTINUOUS
10
2.80051
20
2.576
11
2.80226
21
2.57499
0
LINE
8
BLACK
6
CONTINUOUS
10
2.80226
20
2.57499
11
2.80295
21
2.57309
0
LINE
8
BLACK
6
CONTINUOUS
10
2.80295
20
2.57309
11
2.80295
21
2.21969
0
LINE
8
BLACK
6
CONTINUOUS
10
2.80295
20
2.21969
11
2.80277
21
2.21868
0
LINE
8
BLACK
6
CONTINUOUS
10
2.80277
20
2.21868
11
2.80148
21
2.21713
0
LINE
8
BLACK
6
CONTINUOUS
10
2.80148
20
2.21713
11
2.79949
21
2.21678
0
LINE
8
BLACK
6
CONTINUOUS
10
2.79949
20
2.21678
11
2.79774
21
2.21779
0
LINE
8
BLACK
6
CONTINUOUS
10
2.79774
20
2.21779
11
2.79705
21
2.21969
0
LINE
8
BLACK
6
CONTINUOUS
10
2.79705
20
2.21969
11
2.79705
21
2.54513
0
LINE
8
BLACK
6
CONTINUOUS
10
2.79705
20
2.54513
11
2.75701
21
2.52429
0
LINE
8
BLACK
6
CONTINUOUS
10
2.75701
20
2.52429
11
2.75603
21
2.52399
0
LINE
8
BLACK
6
CONTINUOUS
10
2.75603
20
2.52399
11
2.75406
21
2.52442
0
LINE
8
BLACK
6
CONTINUOUS
10
2.75406
20
2.52442
11
2.75283
21
2.52602
0
LINE
8
BLACK
6
CONTINUOUS
10
2.75283
20
2.52602
11
2.75292
21
2.52804
0
LINE
8
BLACK
6
CONTINUOUS
10
2.75292
20
2.52804
11
2.75429
21
2.52953
0
LINE
8
BLACK
6
CONTINUOUS
10
2.75429
20
2.52953
11
2.78793
21
2.54705
0
LINE
8
BLACK
6
CONTINUOUS
10
2.78793
20
2.54705
11
0.412067
21
2.54705
0
LINE
8
BLACK
6
CONTINUOUS
10
0.412067
20
2.54705
11
0.445714
21
2.52953
0
LINE
8
BLACK
6
CONTINUOUS
10
0.445714
20
2.52953
11
0.446528
21
2.52891
0
LINE
8
BLACK
6
CONTINUOUS
10
0.446528
20
2.52891
11
0.4473
21
2.52704
0
LINE
8
BLACK
6
CONTINUOUS
10
0.4473
20
2.52704
11
0.446693
21
2.52512
0
LINE
8
BLACK
6
CONTINUOUS
10
0.446693
20
2.52512
11
0.44499
21
2.52403
0
LINE
8
BLACK
6
CONTINUOUS
10
0.44499
20
2.52403
11
0.442987
21
2.52429
0
LINE
8
BLACK
6
CONTINUOUS
10
0.442987
20
2.52429
11
0.402953
21
2.54513
0
LINE
8
BLACK
6
CONTINUOUS
10
0.402953
20
2.54513
11
0.402953
21
2.21969
0
LINE
8
BLACK
6
CONTINUOUS
10
0.402953
20
2.21969
11
0.402775
21
2.21868
0
LINE
8
BLACK
6
CONTINUOUS
10
0.402775
20
2.21868
11
0.401476
21
2.21713
0
LINE
8
BLACK
6
CONTINUOUS
10
0.401476
20
2.21713
11
0.399487
21
2.21678
0
LINE
8
BLACK
6
CONTINUOUS
10
0.399487
20
2.21678
11
0.397738
21
2.21779
0
LINE
8
BLACK
6
CONTINUOUS
10
0.397738
20
2.21779
11
0.397047
21
2.21969
0
LINE
8
BLACK
6
CONTINUOUS
10
0.397047
20
2.21969
11
0.397047
21
2.57309
0
LINE
8
BLACK
6
CONTINUOUS
10
0.397047
20
2.57309
11
0.397225
21
2.5741
0
LINE
8
BLACK
6
CONTINUOUS
10
0.397225
20
2.5741
11
0.398524
21
2.57564
0
LINE
8
BLACK
6
CONTINUOUS
10
0.398524
20
2.57564
11
0.400513
21
2.576
0
LINE
8
BLACK
6
CONTINUOUS
10
0.400513
20
2.576
11
0.402262
21
2.57499
0
LINE
8
BLACK
6
CONTINUOUS
10
0.402262
20
2.57499
11
0.402953
21
2.57309
0
LINE
8
BLACK
6
CONTINUOUS
10
0.402953
20
2.57309
11
0.402953
21
2.55487
0
LINE
8
BLACK
6
CONTINUOUS
10
0.402953
20
2.55487
11
0.442987
21
2.57571
0
LINE
8
BLACK
6
CONTINUOUS
10
0.442987
20
2.57571
11
0.443965
21
2.57601
0
LINE
8
BLACK
6
CONTINUOUS
10
0.443965
20
2.57601
11
0.445937
21
2.57558
0
LINE
8
BLACK
6
CONTINUOUS
10
1.43791
20
2.61951
11
1.43945
21
2.61822
0
LINE
8
BLACK
6
CONTINUOUS
10
1.43945
20
2.61822
11
1.4398
21
2.61623
0
LINE
8
BLACK
6
CONTINUOUS
10
1.4398
20
2.61623
11
1.43879
21
2.61448
0
LINE
8
BLACK
6
CONTINUOUS
10
1.43879
20
2.61448
11
1.4369
21
2.61379
0
LINE
8
BLACK
6
CONTINUOUS
10
1.4369
20
2.61379
11
1.43009
21
2.61379
0
LINE
8
BLACK
6
CONTINUOUS
10
1.43009
20
2.61379
11
1.4274
21
2.61244
0
LINE
8
BLACK
6
CONTINUOUS
10
1.4274
20
2.61244
11
1.42607
21
2.61111
0
LINE
8
BLACK
6
CONTINUOUS
10
1.42607
20
2.61111
11
1.42276
21
2.60615
0
LINE
8
BLACK
6
CONTINUOUS
10
1.42276
20
2.60615
11
1.42203
21
2.60324
0
LINE
8
BLACK
6
CONTINUOUS
10
1.42203
20
2.60324
11
1.42433
21
2.60438
0
LINE
8
BLACK
6
CONTINUOUS
10
1.42433
20
2.60438
11
1.42531
21
2.60467
0
LINE
8
BLACK
6
CONTINUOUS
10
1.42531
20
2.60467
11
1.42548
21
2.60463
0
LINE
8
BLACK
6
CONTINUOUS
10
1.42548
20
2.60463
11
1.42565
21
2.60469
0
LINE
8
BLACK
6
CONTINUOUS
10
1.42565
20
2.60469
11
1.43315
21
2.60469
0
LINE
8
BLACK
6
CONTINUOUS
10
1.43315
20
2.60469
11
1.43416
21
2.60452
0
LINE
8
BLACK
6
CONTINUOUS
10
1.43416
20
2.60452
11
1.43429
21
2.6044
0
LINE
8
BLACK
6
CONTINUOUS
10
1.43429
20
2.6044
11
1.43447
21
2.60438
0
LINE
8
BLACK
6
CONTINUOUS
10
1.43447
20
2.60438
11
1.43822
21
2.60251
0
LINE
8
BLACK
6
CONTINUOUS
10
1.43822
20
2.60251
11
1.43892
21
2.60198
0
LINE
8
BLACK
6
CONTINUOUS
10
1.43892
20
2.60198
11
1.43898
21
2.60195
0
LINE
8
BLACK
6
CONTINUOUS
10
1.43898
20
2.60195
11
1.44086
21
2.60008
0
LINE
8
BLACK
6
CONTINUOUS
10
1.44086
20
2.60008
11
1.44136
21
2.59936
0
LINE
8
BLACK
6
CONTINUOUS
10
1.44136
20
2.59936
11
1.44141
21
2.59931
0
LINE
8
BLACK
6
CONTINUOUS
10
1.44141
20
2.59931
11
1.44329
21
2.59556
0
LINE
8
BLACK
6
CONTINUOUS
10
1.44329
20
2.59556
11
1.44358
21
2.59458
0
LINE
8
BLACK
6
CONTINUOUS
10
1.44358
20
2.59458
11
1.44354
21
2.59441
0
LINE
8
BLACK
6
CONTINUOUS
10
1.44354
20
2.59441
11
1.4436
21
2.59424
0
LINE
8
BLACK
6
CONTINUOUS
10
1.4436
20
2.59424
11
1.4436
21
2.58487
0
LINE
8
BLACK
6
CONTINUOUS
10
1.4436
20
2.58487
11
1.44342
21
2.58386
0
LINE
8
BLACK
6
CONTINUOUS
10
1.44342
20
2.58386
11
1.44331
21
2.58372
0
LINE
8
BLACK
6
CONTINUOUS
10
1.44331
20
2.58372
11
1.44329
21
2.58355
0
LINE
8
BLACK
6
CONTINUOUS
10
1.44329
20
2.58355
11
1.44141
21
2.5798
0
LINE
8
BLACK
6
CONTINUOUS
10
1.44141
20
2.5798
11
1.44089
21
2.57909
0
LINE
8
BLACK
6
CONTINUOUS
10
1.44089
20
2.57909
11
1.44086
21
2.57903
0
LINE
8
BLACK
6
CONTINUOUS
10
1.44086
20
2.57903
11
1.43898
21
2.57716
0
LINE
8
BLACK
6
CONTINUOUS
10
1.43898
20
2.57716
11
1.43826
21
2.57665
0
LINE
8
BLACK
6
CONTINUOUS
10
1.43826
20
2.57665
11
1.43822
21
2.5766
0
LINE
8
BLACK
6
CONTINUOUS
10
1.43822
20
2.5766
11
1.43447
21
2.57473
0
LINE
8
BLACK
6
CONTINUOUS
10
1.43447
20
2.57473
11
1.43348
21
2.57444
0
LINE
8
BLACK
6
CONTINUOUS
10
1.43348
20
2.57444
11
1.43331
21
2.57448
0
LINE
8
BLACK
6
CONTINUOUS
10
1.43331
20
2.57448
11
1.43315
21
2.57442
0
LINE
8
BLACK
6
CONTINUOUS
10
1.43315
20
2.57442
11
1.42565
21
2.57442
0
LINE
8
BLACK
6
CONTINUOUS
10
1.42565
20
2.57442
11
1.42464
21
2.57459
0
LINE
8
BLACK
6
CONTINUOUS
10
1.42464
20
2.57459
11
1.4245
21
2.57471
0
LINE
8
BLACK
6
CONTINUOUS
10
1.4245
20
2.57471
11
1.42433
21
2.57473
0
LINE
8
BLACK
6
CONTINUOUS
10
1.42433
20
2.57473
11
1.42058
21
2.5766
0
LINE
8
BLACK
6
CONTINUOUS
10
1.42058
20
2.5766
11
1.41987
21
2.57713
0
LINE
8
BLACK
6
CONTINUOUS
10
1.41987
20
2.57713
11
1.41981
21
2.57716
0
LINE
8
BLACK
6
CONTINUOUS
10
1.41981
20
2.57716
11
1.41793
21
2.57903
0
LINE
8
BLACK
6
CONTINUOUS
10
1.41793
20
2.57903
11
1.41743
21
2.57975
0
LINE
8
BLACK
6
CONTINUOUS
10
1.41743
20
2.57975
11
1.41738
21
2.5798
0
LINE
8
BLACK
6
CONTINUOUS
10
1.41738
20
2.5798
11
1.41551
21
2.58355
0
LINE
8
BLACK
6
CONTINUOUS
10
1.41551
20
2.58355
11
1.41521
21
2.58453
0
LINE
8
BLACK
6
CONTINUOUS
10
1.41521
20
2.58453
11
1.41526
21
2.5847
0
LINE
8
BLACK
6
CONTINUOUS
10
1.41526
20
2.5847
11
1.41519
21
2.58487
0
LINE
8
BLACK
6
CONTINUOUS
10
1.41519
20
2.58487
11
1.41519
21
2.59987
0
LINE
8
BLACK
6
CONTINUOUS
10
1.41519
20
2.59987
11
1.4153
21
2.60045
0
LINE
8
BLACK
6
CONTINUOUS
10
1.4153
20
2.60045
11
1.41528
21
2.60058
0
LINE
8
BLACK
6
CONTINUOUS
10
1.41528
20
2.60058
11
1.41716
21
2.60808
0
LINE
8
BLACK
6
CONTINUOUS
10
1.41716
20
2.60808
11
1.41756
21
2.60899
0
LINE
8
BLACK
6
CONTINUOUS
10
1.41756
20
2.60899
11
1.41757
21
2.609
0
LINE
8
BLACK
6
CONTINUOUS
10
1.41757
20
2.609
11
1.42132
21
2.61463
0
LINE
8
BLACK
6
CONTINUOUS
10
1.42132
20
2.61463
11
1.42163
21
2.61495
0
LINE
8
BLACK
6
CONTINUOUS
10
1.42163
20
2.61495
11
1.42168
21
2.61508
0
LINE
8
BLACK
6
CONTINUOUS
10
1.42168
20
2.61508
11
1.42356
21
2.61695
0
LINE
8
BLACK
6
CONTINUOUS
10
1.42356
20
2.61695
11
1.42428
21
2.61746
0
LINE
8
BLACK
6
CONTINUOUS
10
1.42428
20
2.61746
11
1.42433
21
2.61751
0
LINE
8
BLACK
6
CONTINUOUS
10
1.42433
20
2.61751
11
1.42808
21
2.61938
0
LINE
8
BLACK
6
CONTINUOUS
10
1.42808
20
2.61938
11
1.42906
21
2.61967
0
LINE
8
BLACK
6
CONTINUOUS
10
1.42906
20
2.61967
11
1.42923
21
2.61963
0
LINE
8
BLACK
6
CONTINUOUS
10
1.42923
20
2.61963
11
1.4294
21
2.61969
0
LINE
8
BLACK
6
CONTINUOUS
10
1.4294
20
2.61969
11
1.4369
21
2.61969
0
LINE
8
BLACK
6
CONTINUOUS
10
1.4369
20
2.61969
11
1.43791
21
2.61951
0
LINE
8
BLACK
6
CONTINUOUS
10
1.42365
20
2.59744
11
1.42245
21
2.59624
0
LINE
8
BLACK
6
CONTINUOUS
10
1.42245
20
2.59624
11
1.4211
21
2.59355
0
LINE
8
BLACK
6
CONTINUOUS
10
1.4211
20
2.59355
11
1.4211
21
2.58557
0
LINE
8
BLACK
6
CONTINUOUS
10
1.4211
20
2.58557
11
1.42245
21
2.58287
0
LINE
8
BLACK
6
CONTINUOUS
10
1.42245
20
2.58287
11
1.42365
21
2.58167
0
LINE
8
BLACK
6
CONTINUOUS
10
1.42365
20
2.58167
11
1.42634
21
2.58032
0
LINE
8
BLACK
6
CONTINUOUS
10
1.42634
20
2.58032
11
1.43245
21
2.58032
0
LINE
8
BLACK
6
CONTINUOUS
10
1.43245
20
2.58032
11
1.43515
21
2.58167
0
LINE
8
BLACK
6
CONTINUOUS
10
1.43515
20
2.58167
11
1.43634
21
2.58287
0
LINE
8
BLACK
6
CONTINUOUS
10
1.43634
20
2.58287
11
1.43769
21
2.58557
0
LINE
8
BLACK
6
CONTINUOUS
10
1.43769
20
2.58557
11
1.43769
21
2.59355
0
LINE
8
BLACK
6
CONTINUOUS
10
1.43769
20
2.59355
11
1.43634
21
2.59624
0
LINE
8
BLACK
6
CONTINUOUS
10
1.43634
20
2.59624
11
1.43515
21
2.59744
0
LINE
8
BLACK
6
CONTINUOUS
10
1.43515
20
2.59744
11
1.43245
21
2.59879
0
LINE
8
BLACK
6
CONTINUOUS
10
1.43245
20
2.59879
11
1.42634
21
2.59879
0
LINE
8
BLACK
6
CONTINUOUS
10
1.42634
20
2.59879
11
1.42365
21
2.59744
0
LINE
8
BLACK
6
CONTINUOUS
10
1.46978
20
2.61951
11
1.46991
21
2.6194
0
LINE
8
BLACK
6
CONTINUOUS
10
1.46991
20
2.6194
11
1.47009
21
2.61938
0
LINE
8
BLACK
6
CONTINUOUS
10
1.47009
20
2.61938
11
1.47384
21
2.61751
0
LINE
8
BLACK
6
CONTINUOUS
10
1.47384
20
2.61751
11
1.47455
21
2.61698
0
LINE
8
BLACK
6
CONTINUOUS
10
1.47455
20
2.61698
11
1.4746
21
2.61695
0
LINE
8
BLACK
6
CONTINUOUS
10
1.4746
20
2.61695
11
1.47648
21
2.61508
0
LINE
8
BLACK
6
CONTINUOUS
10
1.47648
20
2.61508
11
1.47698
21
2.61435
0
LINE
8
BLACK
6
CONTINUOUS
10
1.47698
20
2.61435
11
1.47703
21
2.61431
0
LINE
8
BLACK
6
CONTINUOUS
10
1.47703
20
2.61431
11
1.47891
21
2.61056
0
LINE
8
BLACK
6
CONTINUOUS
10
1.47891
20
2.61056
11
1.47905
21
2.61007
0
LINE
8
BLACK
6
CONTINUOUS
10
1.47905
20
2.61007
11
1.47913
21
2.60996
0
LINE
8
BLACK
6
CONTINUOUS
10
1.47913
20
2.60996
11
1.481
21
2.60246
0
LINE
8
BLACK
6
CONTINUOUS
10
1.481
20
2.60246
11
1.48105
21
2.60187
0
LINE
8
BLACK
6
CONTINUOUS
10
1.48105
20
2.60187
11
1.48109
21
2.60174
0
LINE
8
BLACK
6
CONTINUOUS
10
1.48109
20
2.60174
11
1.48109
21
2.59237
0
LINE
8
BLACK
6
CONTINUOUS
10
1.48109
20
2.59237
11
1.48099
21
2.59179
0
LINE
8
BLACK
6
CONTINUOUS
10
1.48099
20
2.59179
11
1.481
21
2.59165
0
LINE
8
BLACK
6
CONTINUOUS
10
1.481
20
2.59165
11
1.47913
21
2.58415
0
LINE
8
BLACK
6
CONTINUOUS
10
1.47913
20
2.58415
11
1.47892
21
2.58369
0
LINE
8
BLACK
6
CONTINUOUS
10
1.47892
20
2.58369
11
1.47891
21
2.58355
0
LINE
8
BLACK
6
CONTINUOUS
10
1.47891
20
2.58355
11
1.47703
21
2.5798
0
LINE
8
BLACK
6
CONTINUOUS
10
1.47703
20
2.5798
11
1.47651
21
2.57909
0
LINE
8
BLACK
6
CONTINUOUS
10
1.47651
20
2.57909
11
1.47648
21
2.57903
0
LINE
8
BLACK
6
CONTINUOUS
10
1.47648
20
2.57903
11
1.4746
21
2.57716
0
LINE
8
BLACK
6
CONTINUOUS
10
1.4746
20
2.57716
11
1.47388
21
2.57665
0
LINE
8
BLACK
6
CONTINUOUS
10
1.47388
20
2.57665
11
1.47384
21
2.5766
0
LINE
8
BLACK
6
CONTINUOUS
10
1.47384
20
2.5766
11
1.47009
21
2.57473
0
LINE
8
BLACK
6
CONTINUOUS
10
1.47009
20
2.57473
11
1.4691
21
2.57444
0
LINE
8
BLACK
6
CONTINUOUS
10
1.4691
20
2.57444
11
1.46893
21
2.57448
0
LINE
8
BLACK
6
CONTINUOUS
10
1.46893
20
2.57448
11
1.46877
21
2.57442
0
LINE
8
BLACK
6
CONTINUOUS
10
1.46877
20
2.57442
11
1.46502
21
2.57442
0
LINE
8
BLACK
6
CONTINUOUS
10
1.46502
20
2.57442
11
1.46401
21
2.57459
0
LINE
8
BLACK
6
CONTINUOUS
10
1.46401
20
2.57459
11
1.46387
21
2.57471
0
LINE
8
BLACK
6
CONTINUOUS
10
1.46387
20
2.57471
11
1.4637
21
2.57473
0
LINE
8
BLACK
6
CONTINUOUS
10
1.4637
20
2.57473
11
1.45995
21
2.5766
0
LINE
8
BLACK
6
CONTINUOUS
10
1.45995
20
2.5766
11
1.45924
21
2.57713
0
LINE
8
BLACK
6
CONTINUOUS
10
1.45924
20
2.57713
11
1.45918
21
2.57716
0
LINE
8
BLACK
6
CONTINUOUS
10
1.45918
20
2.57716
11
1.4573
21
2.57903
0
LINE
8
BLACK
6
CONTINUOUS
10
1.4573
20
2.57903
11
1.4568
21
2.57975
0
LINE
8
BLACK
6
CONTINUOUS
10
1.4568
20
2.57975
11
1.45675
21
2.5798
0
LINE
8
BLACK
6
CONTINUOUS
10
1.45675
20
2.5798
11
1.45488
21
2.58355
0
LINE
8
BLACK
6
CONTINUOUS
10
1.45488
20
2.58355
11
1.45473
21
2.58404
0
LINE
8
BLACK
6
CONTINUOUS
10
1.45473
20
2.58404
11
1.45465
21
2.58415
0
LINE
8
BLACK
6
CONTINUOUS
10
1.45465
20
2.58415
11
1.45278
21
2.59165
0
LINE
8
BLACK
6
CONTINUOUS
10
1.45278
20
2.59165
11
1.45274
21
2.59224
0
LINE
8
BLACK
6
CONTINUOUS
10
1.45274
20
2.59224
11
1.45269
21
2.59237
0
LINE
8
BLACK
6
CONTINUOUS
10
1.45269
20
2.59237
11
1.45269
21
2.60174
0
LINE
8
BLACK
6
CONTINUOUS
10
1.45269
20
2.60174
11
1.45279
21
2.60232
0
LINE
8
BLACK
6
CONTINUOUS
10
1.45279
20
2.60232
11
1.45278
21
2.60246
0
LINE
8
BLACK
6
CONTINUOUS
10
1.45278
20
2.60246
11
1.45465
21
2.60996
0
LINE
8
BLACK
6
CONTINUOUS
10
1.45465
20
2.60996
11
1.45486
21
2.61042
0
LINE
8
BLACK
6
CONTINUOUS
10
1.45486
20
2.61042
11
1.45488
21
2.61056
0
LINE
8
BLACK
6
CONTINUOUS
10
1.45488
20
2.61056
11
1.45675
21
2.61431
0
LINE
8
BLACK
6
CONTINUOUS
10
1.45675
20
2.61431
11
1.45728
21
2.61502
0
LINE
8
BLACK
6
CONTINUOUS
10
1.45728
20
2.61502
11
1.4573
21
2.61508
0
LINE
8
BLACK
6
CONTINUOUS
10
1.4573
20
2.61508
11
1.45918
21
2.61695
0
LINE
8
BLACK
6
CONTINUOUS
10
1.45918
20
2.61695
11
1.4599
21
2.61746
0
LINE
8
BLACK
6
CONTINUOUS
10
1.4599
20
2.61746
11
1.45995
21
2.61751
0
LINE
8
BLACK
6
CONTINUOUS
10
1.45995
20
2.61751
11
1.4637
21
2.61938
0
LINE
8
BLACK
6
CONTINUOUS
10
1.4637
20
2.61938
11
1.46468
21
2.61967
0
LINE
8
BLACK
6
CONTINUOUS
10
1.46468
20
2.61967
11
1.46485
21
2.61963
0
LINE
8
BLACK
6
CONTINUOUS
10
1.46485
20
2.61963
11
1.46502
21
2.61969
0
LINE
8
BLACK
6
CONTINUOUS
10
1.46502
20
2.61969
11
1.46877
21
2.61969
0
LINE
8
BLACK
6
CONTINUOUS
10
1.46877
20
2.61969
11
1.46978
21
2.61951
0
LINE
8
BLACK
6
CONTINUOUS
10
1.46302
20
2.61244
11
1.46182
21
2.61124
0
LINE
8
BLACK
6
CONTINUOUS
10
1.46182
20
2.61124
11
1.4603
21
2.60821
0
LINE
8
BLACK
6
CONTINUOUS
10
1.4603
20
2.60821
11
1.4586
21
2.60138
0
LINE
8
BLACK
6
CONTINUOUS
10
1.4586
20
2.60138
11
1.4586
21
2.59273
0
LINE
8
BLACK
6
CONTINUOUS
10
1.4586
20
2.59273
11
1.4603
21
2.5859
0
LINE
8
BLACK
6
CONTINUOUS
10
1.4603
20
2.5859
11
1.46182
21
2.58287
0
LINE
8
BLACK
6
CONTINUOUS
10
1.46182
20
2.58287
11
1.46302
21
2.58167
0
LINE
8
BLACK
6
CONTINUOUS
10
1.46302
20
2.58167
11
1.46571
21
2.58032
0
LINE
8
BLACK
6
CONTINUOUS
10
1.46571
20
2.58032
11
1.46807
21
2.58032
0
LINE
8
BLACK
6
CONTINUOUS
10
1.46807
20
2.58032
11
1.47077
21
2.58167
0
LINE
8
BLACK
6
CONTINUOUS
10
1.47077
20
2.58167
11
1.47196
21
2.58287
0
LINE
8
BLACK
6
CONTINUOUS
10
1.47196
20
2.58287
11
1.47348
21
2.5859
0
LINE
8
BLACK
6
CONTINUOUS
10
1.47348
20
2.5859
11
1.47519
21
2.59273
0
LINE
8
BLACK
6
CONTINUOUS
10
1.47519
20
2.59273
11
1.47519
21
2.60138
0
LINE
8
BLACK
6
CONTINUOUS
10
1.47519
20
2.60138
11
1.47348
21
2.60821
0
LINE
8
BLACK
6
CONTINUOUS
10
1.47348
20
2.60821
11
1.47196
21
2.61124
0
LINE
8
BLACK
6
CONTINUOUS
10
1.47196
20
2.61124
11
1.47077
21
2.61244
0
LINE
8
BLACK
6
CONTINUOUS
10
1.47077
20
2.61244
11
1.46807
21
2.61379
0
LINE
8
BLACK
6
CONTINUOUS
10
1.46807
20
2.61379
11
1.46571
21
2.61379
0
LINE
8
BLACK
6
CONTINUOUS
10
1.46571
20
2.61379
11
1.46302
21
2.61244
0
LINE
8
BLACK
6
CONTINUOUS
10
1.52789
20
2.61951
11
1.52803
21
2.6194
0
LINE
8
BLACK
6
CONTINUOUS
10
1.52803
20
2.6194
11
1.5282
21
2.61938
0
LINE
8
BLACK
6
CONTINUOUS
10
1.5282
20
2.61938
11
1.53195
21
2.61751
0
LINE
8
BLACK
6
CONTINUOUS
10
1.53195
20
2.61751
11
1.53266
21
2.61698
0
LINE
8
BLACK
6
CONTINUOUS
10
1.53266
20
2.61698
11
1.53272
21
2.61695
0
LINE
8
BLACK
6
CONTINUOUS
10
1.53272
20
2.61695
11
1.5346
21
2.61508
0
LINE
8
BLACK
6
CONTINUOUS
10
1.5346
20
2.61508
11
1.5351
21
2.61435
0
LINE
8
BLACK
6
CONTINUOUS
10
1.5351
20
2.61435
11
1.53515
21
2.61431
0
LINE
8
BLACK
6
CONTINUOUS
10
1.53515
20
2.61431
11
1.53702
21
2.61056
0
LINE
8
BLACK
6
CONTINUOUS
10
1.53702
20
2.61056
11
1.53732
21
2.60958
0
LINE
8
BLACK
6
CONTINUOUS
10
1.53732
20
2.60958
11
1.53728
21
2.60941
0
LINE
8
BLACK
6
CONTINUOUS
10
1.53728
20
2.60941
11
1.53734
21
2.60924
0
LINE
8
BLACK
6
CONTINUOUS
10
1.53734
20
2.60924
11
1.53734
21
2.59424
0
LINE
8
BLACK
6
CONTINUOUS
10
1.53734
20
2.59424
11
1.53723
21
2.59366
0
LINE
8
BLACK
6
CONTINUOUS
10
1.53723
20
2.59366
11
1.53725
21
2.59353
0
LINE
8
BLACK
6
CONTINUOUS
10
1.53725
20
2.59353
11
1.53537
21
2.58603
0
LINE
8
BLACK
6
CONTINUOUS
10
1.53537
20
2.58603
11
1.53497
21
2.58512
0
LINE
8
BLACK
6
CONTINUOUS
10
1.53497
20
2.58512
11
1.53497
21
2.58511
0
LINE
8
BLACK
6
CONTINUOUS
10
1.53497
20
2.58511
11
1.53122
21
2.57948
0
LINE
8
BLACK
6
CONTINUOUS
10
1.53122
20
2.57948
11
1.5309
21
2.57916
0
LINE
8
BLACK
6
CONTINUOUS
10
1.5309
20
2.57916
11
1.53085
21
2.57903
0
LINE
8
BLACK
6
CONTINUOUS
10
1.53085
20
2.57903
11
1.52897
21
2.57716
0
LINE
8
BLACK
6
CONTINUOUS
10
1.52897
20
2.57716
11
1.52825
21
2.57665
0
LINE
8
BLACK
6
CONTINUOUS
10
1.52825
20
2.57665
11
1.5282
21
2.5766
0
LINE
8
BLACK
6
CONTINUOUS
10
1.5282
20
2.5766
11
1.52446
21
2.57473
0
LINE
8
BLACK
6
CONTINUOUS
10
1.52446
20
2.57473
11
1.52347
21
2.57444
0
LINE
8
BLACK
6
CONTINUOUS
10
1.52347
20
2.57444
11
1.5233
21
2.57448
0
LINE
8
BLACK
6
CONTINUOUS
10
1.5233
20
2.57448
11
1.52313
21
2.57442
0
LINE
8
BLACK
6
CONTINUOUS
10
1.52313
20
2.57442
11
1.51564
21
2.57442
0
LINE
8
BLACK
6
CONTINUOUS
10
1.51564
20
2.57442
11
1.51463
21
2.57459
0
LINE
8
BLACK
6
CONTINUOUS
10
1.51463
20
2.57459
11
1.51308
21
2.57589
0
LINE
8
BLACK
6
CONTINUOUS
10
1.51308
20
2.57589
11
1.51273
21
2.57788
0
LINE
8
BLACK
6
CONTINUOUS
10
1.51273
20
2.57788
11
1.51374
21
2.57963
0
LINE
8
BLACK
6
CONTINUOUS
10
1.51374
20
2.57963
11
1.51564
21
2.58032
0
LINE
8
BLACK
6
CONTINUOUS
10
1.51564
20
2.58032
11
1.52244
21
2.58032
0
LINE
8
BLACK
6
CONTINUOUS
10
1.52244
20
2.58032
11
1.52513
21
2.58167
0
LINE
8
BLACK
6
CONTINUOUS
10
1.52513
20
2.58167
11
1.52646
21
2.583
0
LINE
8
BLACK
6
CONTINUOUS
10
1.52646
20
2.583
11
1.52977
21
2.58796
0
LINE
8
BLACK
6
CONTINUOUS
10
1.52977
20
2.58796
11
1.5305
21
2.59087
0
LINE
8
BLACK
6
CONTINUOUS
10
1.5305
20
2.59087
11
1.5282
21
2.58973
0
LINE
8
BLACK
6
CONTINUOUS
10
1.5282
20
2.58973
11
1.52722
21
2.58943
0
LINE
8
BLACK
6
CONTINUOUS
10
1.52722
20
2.58943
11
1.52705
21
2.58948
0
LINE
8
BLACK
6
CONTINUOUS
10
1.52705
20
2.58948
11
1.52688
21
2.58941
0
LINE
8
BLACK
6
CONTINUOUS
10
1.52688
20
2.58941
11
1.51939
21
2.58941
0
LINE
8
BLACK
6
CONTINUOUS
10
1.51939
20
2.58941
11
1.51838
21
2.58959
0
LINE
8
BLACK
6
CONTINUOUS
10
1.51838
20
2.58959
11
1.51824
21
2.58971
0
LINE
8
BLACK
6
CONTINUOUS
10
1.51824
20
2.58971
11
1.51806
21
2.58973
0
LINE
8
BLACK
6
CONTINUOUS
10
1.51806
20
2.58973
11
1.51432
21
2.5916
0
LINE
8
BLACK
6
CONTINUOUS
10
1.51432
20
2.5916
11
1.51361
21
2.59213
0
LINE
8
BLACK
6
CONTINUOUS
10
1.51361
20
2.59213
11
1.51355
21
2.59215
0
LINE
8
BLACK
6
CONTINUOUS
10
1.51355
20
2.59215
11
1.51167
21
2.59403
0
LINE
8
BLACK
6
CONTINUOUS
10
1.51167
20
2.59403
11
1.51117
21
2.59475
0
LINE
8
BLACK
6
CONTINUOUS
10
1.51117
20
2.59475
11
1.51112
21
2.5948
0
LINE
8
BLACK
6
CONTINUOUS
10
1.51112
20
2.5948
11
1.50924
21
2.59855
0
LINE
8
BLACK
6
CONTINUOUS
10
1.50924
20
2.59855
11
1.50895
21
2.59953
0
LINE
8
BLACK
6
CONTINUOUS
10
1.50895
20
2.59953
11
1.50899
21
2.5997
0
LINE
8
BLACK
6
CONTINUOUS
10
1.50899
20
2.5997
11
1.50893
21
2.59987
0
LINE
8
BLACK
6
CONTINUOUS
10
1.50893
20
2.59987
11
1.50893
21
2.60924
0
LINE
8
BLACK
6
CONTINUOUS
10
1.50893
20
2.60924
11
1.50911
21
2.61025
0
LINE
8
BLACK
6
CONTINUOUS
10
1.50911
20
2.61025
11
1.50922
21
2.61039
0
LINE
8
BLACK
6
CONTINUOUS
10
1.50922
20
2.61039
11
1.50924
21
2.61056
0
LINE
8
BLACK
6
CONTINUOUS
10
1.50924
20
2.61056
11
1.51112
21
2.61431
0
LINE
8
BLACK
6
CONTINUOUS
10
1.51112
20
2.61431
11
1.51165
21
2.61502
0
LINE
8
BLACK
6
CONTINUOUS
10
1.51165
20
2.61502
11
1.51167
21
2.61508
0
LINE
8
BLACK
6
CONTINUOUS
10
1.51167
20
2.61508
11
1.51355
21
2.61695
0
LINE
8
BLACK
6
CONTINUOUS
10
1.51355
20
2.61695
11
1.51427
21
2.61746
0
LINE
8
BLACK
6
CONTINUOUS
10
1.51427
20
2.61746
11
1.51432
21
2.61751
0
LINE
8
BLACK
6
CONTINUOUS
10
1.51432
20
2.61751
11
1.51806
21
2.61938
0
LINE
8
BLACK
6
CONTINUOUS
10
1.51806
20
2.61938
11
1.51905
21
2.61967
0
LINE
8
BLACK
6
CONTINUOUS
10
1.51905
20
2.61967
11
1.51922
21
2.61963
0
LINE
8
BLACK
6
CONTINUOUS
10
1.51922
20
2.61963
11
1.51939
21
2.61969
0
LINE
8
BLACK
6
CONTINUOUS
10
1.51939
20
2.61969
11
1.52688
21
2.61969
0
LINE
8
BLACK
6
CONTINUOUS
10
1.52688
20
2.61969
11
1.52789
21
2.61951
0
LINE
8
BLACK
6
CONTINUOUS
10
1.51738
20
2.61244
11
1.51619
21
2.61124
0
LINE
8
BLACK
6
CONTINUOUS
10
1.51619
20
2.61124
11
1.51484
21
2.60854
0
LINE
8
BLACK
6
CONTINUOUS
10
1.51484
20
2.60854
11
1.51484
21
2.60056
0
LINE
8
BLACK
6
CONTINUOUS
10
1.51484
20
2.60056
11
1.51619
21
2.59787
0
LINE
8
BLACK
6
CONTINUOUS
10
1.51619
20
2.59787
11
1.51738
21
2.59667
0
LINE
8
BLACK
6
CONTINUOUS
10
1.51738
20
2.59667
11
1.52008
21
2.59532
0
LINE
8
BLACK
6
CONTINUOUS
10
1.52008
20
2.59532
11
1.52619
21
2.59532
0
LINE
8
BLACK
6
CONTINUOUS
10
1.52619
20
2.59532
11
1.52888
21
2.59667
0
LINE
8
BLACK
6
CONTINUOUS
10
1.52888
20
2.59667
11
1.53008
21
2.59787
0
LINE
8
BLACK
6
CONTINUOUS
10
1.53008
20
2.59787
11
1.53143
21
2.60056
0
LINE
8
BLACK
6
CONTINUOUS
10
1.53143
20
2.60056
11
1.53143
21
2.60854
0
LINE
8
BLACK
6
CONTINUOUS
10
1.53143
20
2.60854
11
1.53008
21
2.61124
0
LINE
8
BLACK
6
CONTINUOUS
10
1.53008
20
2.61124
11
1.52888
21
2.61244
0
LINE
8
BLACK
6
CONTINUOUS
10
1.52888
20
2.61244
11
1.52619
21
2.61379
0
LINE
8
BLACK
6
CONTINUOUS
10
1.52619
20
2.61379
11
1.52008
21
2.61379
0
LINE
8
BLACK
6
CONTINUOUS
10
1.52008
20
2.61379
11
1.51738
21
2.61244
0
LINE
8
BLACK
6
CONTINUOUS
10
1.56914
20
2.61951
11
1.57069
21
2.61822
0
LINE
8
BLACK
6
CONTINUOUS
10
1.57069
20
2.61822
11
1.57104
21
2.61623
0
LINE
8
BLACK
6
CONTINUOUS
10
1.57104
20
2.61623
11
1.57003
21
2.61448
0
LINE
8
BLACK
6
CONTINUOUS
10
1.57003
20
2.61448
11
1.56813
21
2.61379
0
LINE
8
BLACK
6
CONTINUOUS
10
1.56813
20
2.61379
11
1.56133
21
2.61379
0
LINE
8
BLACK
6
CONTINUOUS
10
1.56133
20
2.61379
11
1.55863
21
2.61244
0
LINE
8
BLACK
6
CONTINUOUS
10
1.55863
20
2.61244
11
1.5573
21
2.61111
0
LINE
8
BLACK
6
CONTINUOUS
10
1.5573
20
2.61111
11
1.554
21
2.60615
0
LINE
8
BLACK
6
CONTINUOUS
10
1.554
20
2.60615
11
1.55327
21
2.60324
0
LINE
8
BLACK
6
CONTINUOUS
10
1.55327
20
2.60324
11
1.55556
21
2.60438
0
LINE
8
BLACK
6
CONTINUOUS
10
1.55556
20
2.60438
11
1.55654
21
2.60467
0
LINE
8
BLACK
6
CONTINUOUS
10
1.55654
20
2.60467
11
1.55671
21
2.60463
0
LINE
8
BLACK
6
CONTINUOUS
10
1.55671
20
2.60463
11
1.55688
21
2.60469
0
LINE
8
BLACK
6
CONTINUOUS
10
1.55688
20
2.60469
11
1.56438
21
2.60469
0
LINE
8
BLACK
6
CONTINUOUS
10
1.56438
20
2.60469
11
1.56539
21
2.60452
0
LINE
8
BLACK
6
CONTINUOUS
10
1.56539
20
2.60452
11
1.56552
21
2.6044
0
LINE
8
BLACK
6
CONTINUOUS
10
1.56552
20
2.6044
11
1.5657
21
2.60438
0
LINE
8
BLACK
6
CONTINUOUS
10
1.5657
20
2.60438
11
1.56945
21
2.60251
0
LINE
8
BLACK
6
CONTINUOUS
10
1.56945
20
2.60251
11
1.57016
21
2.60198
0
LINE
8
BLACK
6
CONTINUOUS
10
1.57016
20
2.60198
11
1.57022
21
2.60195
0
LINE
8
BLACK
6
CONTINUOUS
10
1.57022
20
2.60195
11
1.57209
21
2.60008
0
LINE
8
BLACK
6
CONTINUOUS
10
1.57209
20
2.60008
11
1.5726
21
2.59936
0
LINE
8
BLACK
6
CONTINUOUS
10
1.5726
20
2.59936
11
1.57264
21
2.59931
0
LINE
8
BLACK
6
CONTINUOUS
10
1.57264
20
2.59931
11
1.57452
21
2.59556
0
LINE
8
BLACK
6
CONTINUOUS
10
1.57452
20
2.59556
11
1.57481
21
2.59458
0
LINE
8
BLACK
6
CONTINUOUS
10
1.57481
20
2.59458
11
1.57477
21
2.59441
0
LINE
8
BLACK
6
CONTINUOUS
10
1.57477
20
2.59441
11
1.57483
21
2.59424
0
LINE
8
BLACK
6
CONTINUOUS
10
1.57483
20
2.59424
11
1.57483
21
2.58487
0
LINE
8
BLACK
6
CONTINUOUS
10
1.57483
20
2.58487
11
1.57465
21
2.58386
0
LINE
8
BLACK
6
CONTINUOUS
10
1.57465
20
2.58386
11
1.57454
21
2.58372
0
LINE
8
BLACK
6
CONTINUOUS
10
1.57454
20
2.58372
11
1.57452
21
2.58355
0
LINE
8
BLACK
6
CONTINUOUS
10
1.57452
20
2.58355
11
1.57264
21
2.5798
0
LINE
8
BLACK
6
CONTINUOUS
10
1.57264
20
2.5798
11
1.57212
21
2.57909
0
LINE
8
BLACK
6
CONTINUOUS
10
1.57212
20
2.57909
11
1.57209
21
2.57903
0
LINE
8
BLACK
6
CONTINUOUS
10
1.57209
20
2.57903
11
1.57022
21
2.57716
0
LINE
8
BLACK
6
CONTINUOUS
10
1.57022
20
2.57716
11
1.56949
21
2.57665
0
LINE
8
BLACK
6
CONTINUOUS
10
1.56949
20
2.57665
11
1.56945
21
2.5766
0
LINE
8
BLACK
6
CONTINUOUS
10
1.56945
20
2.5766
11
1.5657
21
2.57473
0
LINE
8
BLACK
6
CONTINUOUS
10
1.5657
20
2.57473
11
1.56472
21
2.57444
0
LINE
8
BLACK
6
CONTINUOUS
10
1.56472
20
2.57444
11
1.56455
21
2.57448
0
LINE
8
BLACK
6
CONTINUOUS
10
1.56455
20
2.57448
11
1.56438
21
2.57442
0
LINE
8
BLACK
6
CONTINUOUS
10
1.56438
20
2.57442
11
1.55688
21
2.57442
0
LINE
8
BLACK
6
CONTINUOUS
10
1.55688
20
2.57442
11
1.55587
21
2.57459
0
LINE
8
BLACK
6
CONTINUOUS
10
1.55587
20
2.57459
11
1.55574
21
2.57471
0
LINE
8
BLACK
6
CONTINUOUS
10
1.55574
20
2.57471
11
1.55556
21
2.57473
0
LINE
8
BLACK
6
CONTINUOUS
10
1.55556
20
2.57473
11
1.55181
21
2.5766
0
LINE
8
BLACK
6
CONTINUOUS
10
1.55181
20
2.5766
11
1.5511
21
2.57713
0
LINE
8
BLACK
6
CONTINUOUS
10
1.5511
20
2.57713
11
1.55104
21
2.57716
0
LINE
8
BLACK
6
CONTINUOUS
10
1.55104
20
2.57716
11
1.54917
21
2.57903
0
LINE
8
BLACK
6
CONTINUOUS
10
1.54917
20
2.57903
11
1.54866
21
2.57975
0
LINE
8
BLACK
6
CONTINUOUS
10
1.54866
20
2.57975
11
1.54862
21
2.5798
0
LINE
8
BLACK
6
CONTINUOUS
10
1.54862
20
2.5798
11
1.54674
21
2.58355
0
LINE
8
BLACK
6
CONTINUOUS
10
1.54674
20
2.58355
11
1.54645
21
2.58453
0
LINE
8
BLACK
6
CONTINUOUS
10
1.54645
20
2.58453
11
1.54649
21
2.5847
0
LINE
8
BLACK
6
CONTINUOUS
10
1.54649
20
2.5847
11
1.54643
21
2.58487
0
LINE
8
BLACK
6
CONTINUOUS
10
1.54643
20
2.58487
11
1.54643
21
2.59987
0
LINE
8
BLACK
6
CONTINUOUS
10
1.54643
20
2.59987
11
1.54653
21
2.60045
0
LINE
8
BLACK
6
CONTINUOUS
10
1.54653
20
2.60045
11
1.54652
21
2.60058
0
LINE
8
BLACK
6
CONTINUOUS
10
1.54652
20
2.60058
11
1.54839
21
2.60808
0
LINE
8
BLACK
6
CONTINUOUS
10
1.54839
20
2.60808
11
1.5488
21
2.60899
0
LINE
8
BLACK
6
CONTINUOUS
10
1.5488
20
2.60899
11
1.5488
21
2.609
0
LINE
8
BLACK
6
CONTINUOUS
10
1.5488
20
2.609
11
1.55255
21
2.61463
0
LINE
8
BLACK
6
CONTINUOUS
10
1.55255
20
2.61463
11
1.55286
21
2.61495
0
LINE
8
BLACK
6
CONTINUOUS
10
1.55286
20
2.61495
11
1.55292
21
2.61508
0
LINE
8
BLACK
6
CONTINUOUS
10
1.55292
20
2.61508
11
1.55479
21
2.61695
0
LINE
8
BLACK
6
CONTINUOUS
10
1.55479
20
2.61695
11
1.55552
21
2.61746
0
LINE
8
BLACK
6
CONTINUOUS
10
1.55552
20
2.61746
11
1.55556
21
2.61751
0
LINE
8
BLACK
6
CONTINUOUS
10
1.55556
20
2.61751
11
1.55931
21
2.61938
0
LINE
8
BLACK
6
CONTINUOUS
10
1.55931
20
2.61938
11
1.56029
21
2.61967
0
LINE
8
BLACK
6
CONTINUOUS
10
1.56029
20
2.61967
11
1.56046
21
2.61963
0
LINE
8
BLACK
6
CONTINUOUS
10
1.56046
20
2.61963
11
1.56063
21
2.61969
0
LINE
8
BLACK
6
CONTINUOUS
10
1.56063
20
2.61969
11
1.56813
21
2.61969
0
LINE
8
BLACK
6
CONTINUOUS
10
1.56813
20
2.61969
11
1.56914
21
2.61951
0
LINE
8
BLACK
6
CONTINUOUS
10
1.55488
20
2.59744
11
1.55368
21
2.59624
0
LINE
8
BLACK
6
CONTINUOUS
10
1.55368
20
2.59624
11
1.55233
21
2.59355
0
LINE
8
BLACK
6
CONTINUOUS
10
1.55233
20
2.59355
11
1.55233
21
2.58557
0
LINE
8
BLACK
6
CONTINUOUS
10
1.55233
20
2.58557
11
1.55368
21
2.58287
0
LINE
8
BLACK
6
CONTINUOUS
10
1.55368
20
2.58287
11
1.55488
21
2.58167
0
LINE
8
BLACK
6
CONTINUOUS
10
1.55488
20
2.58167
11
1.55758
21
2.58032
0
LINE
8
BLACK
6
CONTINUOUS
10
1.55758
20
2.58032
11
1.56368
21
2.58032
0
LINE
8
BLACK
6
CONTINUOUS
10
1.56368
20
2.58032
11
1.56638
21
2.58167
0
LINE
8
BLACK
6
CONTINUOUS
10
1.56638
20
2.58167
11
1.56758
21
2.58287
0
LINE
8
BLACK
6
CONTINUOUS
10
1.56758
20
2.58287
11
1.56893
21
2.58557
0
LINE
8
BLACK
6
CONTINUOUS
10
1.56893
20
2.58557
11
1.56893
21
2.59355
0
LINE
8
BLACK
6
CONTINUOUS
10
1.56893
20
2.59355
11
1.56758
21
2.59624
0
LINE
8
BLACK
6
CONTINUOUS
10
1.56758
20
2.59624
11
1.56638
21
2.59744
0
LINE
8
BLACK
6
CONTINUOUS
10
1.56638
20
2.59744
11
1.56368
21
2.59879
0
LINE
8
BLACK
6
CONTINUOUS
10
1.56368
20
2.59879
11
1.55758
21
2.59879
0
LINE
8
BLACK
6
CONTINUOUS
10
1.55758
20
2.59879
11
1.55488
21
2.59744
0
LINE
8
BLACK
6
CONTINUOUS
10
1.60101
20
2.61951
11
1.60115
21
2.6194
0
LINE
8
BLACK
6
CONTINUOUS
10
1.60115
20
2.6194
11
1.60132
21
2.61938
0
LINE
8
BLACK
6
CONTINUOUS
10
1.60132
20
2.61938
11
1.60507
21
2.61751
0
LINE
8
BLACK
6
CONTINUOUS
10
1.60507
20
2.61751
11
1.60578
21
2.61698
0
LINE
8
BLACK
6
CONTINUOUS
10
1.60578
20
2.61698
11
1.60584
21
2.61695
0
LINE
8
BLACK
6
CONTINUOUS
10
1.60584
20
2.61695
11
1.60771
21
2.61508
0
LINE
8
BLACK
6
CONTINUOUS
10
1.60771
20
2.61508
11
1.60822
21
2.61435
0
LINE
8
BLACK
6
CONTINUOUS
10
1.60822
20
2.61435
11
1.60827
21
2.61431
0
LINE
8
BLACK
6
CONTINUOUS
10
1.60827
20
2.61431
11
1.61014
21
2.61056
0
LINE
8
BLACK
6
CONTINUOUS
10
1.61014
20
2.61056
11
1.61029
21
2.61007
0
LINE
8
BLACK
6
CONTINUOUS
10
1.61029
20
2.61007
11
1.61036
21
2.60996
0
LINE
8
BLACK
6
CONTINUOUS
10
1.61036
20
2.60996
11
1.61224
21
2.60246
0
LINE
8
BLACK
6
CONTINUOUS
10
1.61224
20
2.60246
11
1.61228
21
2.60187
0
LINE
8
BLACK
6
CONTINUOUS
10
1.61228
20
2.60187
11
1.61233
21
2.60174
0
LINE
8
BLACK
6
CONTINUOUS
10
1.61233
20
2.60174
11
1.61233
21
2.59237
0
LINE
8
BLACK
6
CONTINUOUS
10
1.61233
20
2.59237
11
1.61222
21
2.59179
0
LINE
8
BLACK
6
CONTINUOUS
10
1.61222
20
2.59179
11
1.61224
21
2.59165
0
LINE
8
BLACK
6
CONTINUOUS
10
1.61224
20
2.59165
11
1.61036
21
2.58415
0
LINE
8
BLACK
6
CONTINUOUS
10
1.61036
20
2.58415
11
1.61016
21
2.58369
0
LINE
8
BLACK
6
CONTINUOUS
10
1.61016
20
2.58369
11
1.61014
21
2.58355
0
LINE
8
BLACK
6
CONTINUOUS
10
1.61014
20
2.58355
11
1.60827
21
2.5798
0
LINE
8
BLACK
6
CONTINUOUS
10
1.60827
20
2.5798
11
1.60774
21
2.57909
0
LINE
8
BLACK
6
CONTINUOUS
10
1.60774
20
2.57909
11
1.60771
21
2.57903
0
LINE
8
BLACK
6
CONTINUOUS
10
1.60771
20
2.57903
11
1.60584
21
2.57716
0
LINE
8
BLACK
6
CONTINUOUS
10
1.60584
20
2.57716
11
1.60511
21
2.57665
0
LINE
8
BLACK
6
CONTINUOUS
10
1.60511
20
2.57665
11
1.60507
21
2.5766
0
LINE
8
BLACK
6
CONTINUOUS
10
1.60507
20
2.5766
11
1.60132
21
2.57473
0
LINE
8
BLACK
6
CONTINUOUS
10
1.60132
20
2.57473
11
1.60034
21
2.57444
0
LINE
8
BLACK
6
CONTINUOUS
10
1.60034
20
2.57444
11
1.60017
21
2.57448
0
LINE
8
BLACK
6
CONTINUOUS
10
1.60017
20
2.57448
11
1.6
21
2.57442
0
LINE
8
BLACK
6
CONTINUOUS
10
1.6
20
2.57442
11
1.59625
21
2.57442
0
LINE
8
BLACK
6
CONTINUOUS
10
1.59625
20
2.57442
11
1.59524
21
2.57459
0
LINE
8
BLACK
6
CONTINUOUS
10
1.59524
20
2.57459
11
1.59511
21
2.57471
0
LINE
8
BLACK
6
CONTINUOUS
10
1.59511
20
2.57471
11
1.59493
21
2.57473
0
LINE
8
BLACK
6
CONTINUOUS
10
1.59493
20
2.57473
11
1.59118
21
2.5766
0
LINE
8
BLACK
6
CONTINUOUS
10
1.59118
20
2.5766
11
1.59047
21
2.57713
0
LINE
8
BLACK
6
CONTINUOUS
10
1.59047
20
2.57713
11
1.59041
21
2.57716
0
LINE
8
BLACK
6
CONTINUOUS
10
1.59041
20
2.57716
11
1.58854
21
2.57903
0
LINE
8
BLACK
6
CONTINUOUS
10
1.58854
20
2.57903
11
1.58803
21
2.57975
0
LINE
8
BLACK
6
CONTINUOUS
10
1.58803
20
2.57975
11
1.58799
21
2.5798
0
LINE
8
BLACK
6
CONTINUOUS
10
1.58799
20
2.5798
11
1.58611
21
2.58355
0
LINE
8
BLACK
6
CONTINUOUS
10
1.58611
20
2.58355
11
1.58597
21
2.58404
0
LINE
8
BLACK
6
CONTINUOUS
10
1.58597
20
2.58404
11
1.58589
21
2.58415
0
LINE
8
BLACK
6
CONTINUOUS
10
1.58589
20
2.58415
11
1.58401
21
2.59165
0
LINE
8
BLACK
6
CONTINUOUS
10
1.58401
20
2.59165
11
1.58397
21
2.59224
0
LINE
8
BLACK
6
CONTINUOUS
10
1.58397
20
2.59224
11
1.58392
21
2.59237
0
LINE
8
BLACK
6
CONTINUOUS
10
1.58392
20
2.59237
11
1.58392
21
2.60174
0
LINE
8
BLACK
6
CONTINUOUS
10
1.58392
20
2.60174
11
1.58403
21
2.60232
0
LINE
8
BLACK
6
CONTINUOUS
10
1.58403
20
2.60232
11
1.58401
21
2.60246
0
LINE
8
BLACK
6
CONTINUOUS
10
1.58401
20
2.60246
11
1.58589
21
2.60996
0
LINE
8
BLACK
6
CONTINUOUS
10
1.58589
20
2.60996
11
1.58609
21
2.61042
0
LINE
8
BLACK
6
CONTINUOUS
10
1.58609
20
2.61042
11
1.58611
21
2.61056
0
LINE
8
BLACK
6
CONTINUOUS
10
1.58611
20
2.61056
11
1.58799
21
2.61431
0
LINE
8
BLACK
6
CONTINUOUS
10
1.58799
20
2.61431
11
1.58851
21
2.61502
0
LINE
8
BLACK
6
CONTINUOUS
10
1.58851
20
2.61502
11
1.58854
21
2.61508
0
LINE
8
BLACK
6
CONTINUOUS
10
1.58854
20
2.61508
11
1.59041
21
2.61695
0
LINE
8
BLACK
6
CONTINUOUS
10
1.59041
20
2.61695
11
1.59114
21
2.61746
0
LINE
8
BLACK
6
CONTINUOUS
10
1.59114
20
2.61746
11
1.59118
21
2.61751
0
LINE
8
BLACK
6
CONTINUOUS
10
1.59118
20
2.61751
11
1.59493
21
2.61938
0
LINE
8
BLACK
6
CONTINUOUS
10
1.59493
20
2.61938
11
1.59591
21
2.61967
0
LINE
8
BLACK
6
CONTINUOUS
10
1.59591
20
2.61967
11
1.59608
21
2.61963
0
LINE
8
BLACK
6
CONTINUOUS
10
1.59608
20
2.61963
11
1.59625
21
2.61969
0
LINE
8
BLACK
6
CONTINUOUS
10
1.59625
20
2.61969
11
1.6
21
2.61969
0
LINE
8
BLACK
6
CONTINUOUS
10
1.6
20
2.61969
11
1.60101
21
2.61951
0
LINE
8
BLACK
6
CONTINUOUS
10
1.59425
20
2.61244
11
1.59305
21
2.61124
0
LINE
8
BLACK
6
CONTINUOUS
10
1.59305
20
2.61124
11
1.59154
21
2.60821
0
LINE
8
BLACK
6
CONTINUOUS
10
1.59154
20
2.60821
11
1.58983
21
2.60138
0
LINE
8
BLACK
6
CONTINUOUS
10
1.58983
20
2.60138
11
1.58983
21
2.59273
0
LINE
8
BLACK
6
CONTINUOUS
10
1.58983
20
2.59273
11
1.59154
21
2.5859
0
LINE
8
BLACK
6
CONTINUOUS
10
1.59154
20
2.5859
11
1.59305
21
2.58287
0
LINE
8
BLACK
6
CONTINUOUS
10
1.59305
20
2.58287
11
1.59425
21
2.58167
0
LINE
8
BLACK
6
CONTINUOUS
10
1.59425
20
2.58167
11
1.59695
21
2.58032
0
LINE
8
BLACK
6
CONTINUOUS
10
1.59695
20
2.58032
11
1.5993
21
2.58032
0
LINE
8
BLACK
6
CONTINUOUS
10
1.5993
20
2.58032
11
1.602
21
2.58167
0
LINE
8
BLACK
6
CONTINUOUS
10
1.602
20
2.58167
11
1.6032
21
2.58287
0
LINE
8
BLACK
6
CONTINUOUS
10
1.6032
20
2.58287
11
1.60471
21
2.5859
0
LINE
8
BLACK
6
CONTINUOUS
10
1.60471
20
2.5859
11
1.60642
21
2.59273
0
LINE
8
BLACK
6
CONTINUOUS
10
1.60642
20
2.59273
11
1.60642
21
2.60138
0
LINE
8
BLACK
6
CONTINUOUS
10
1.60642
20
2.60138
11
1.60471
21
2.60821
0
LINE
8
BLACK
6
CONTINUOUS
10
1.60471
20
2.60821
11
1.6032
21
2.61124
0
LINE
8
BLACK
6
CONTINUOUS
10
1.6032
20
2.61124
11
1.602
21
2.61244
0
LINE
8
BLACK
6
CONTINUOUS
10
1.602
20
2.61244
11
1.5993
21
2.61379
0
LINE
8
BLACK
6
CONTINUOUS
10
1.5993
20
2.61379
11
1.59695
21
2.61379
0
LINE
8
BLACK
6
CONTINUOUS
10
1.59695
20
2.61379
11
1.59425
21
2.61244
0
LINE
8
BLACK
6
CONTINUOUS
10
1.63851
20
2.61951
11
1.63864
21
2.6194
0
LINE
8
BLACK
6
CONTINUOUS
10
1.63864
20
2.6194
11
1.63882
21
2.61938
0
LINE
8
BLACK
6
CONTINUOUS
10
1.63882
20
2.61938
11
1.64257
21
2.61751
0
LINE
8
BLACK
6
CONTINUOUS
10
1.64257
20
2.61751
11
1.64327
21
2.61698
0
LINE
8
BLACK
6
CONTINUOUS
10
1.64327
20
2.61698
11
1.64333
21
2.61695
0
LINE
8
BLACK
6
CONTINUOUS
10
1.64333
20
2.61695
11
1.64521
21
2.61508
0
LINE
8
BLACK
6
CONTINUOUS
10
1.64521
20
2.61508
11
1.64571
21
2.61435
0
LINE
8
BLACK
6
CONTINUOUS
10
1.64571
20
2.61435
11
1.64576
21
2.61431
0
LINE
8
BLACK
6
CONTINUOUS
10
1.64576
20
2.61431
11
1.64764
21
2.61056
0
LINE
8
BLACK
6
CONTINUOUS
10
1.64764
20
2.61056
11
1.64778
21
2.61007
0
LINE
8
BLACK
6
CONTINUOUS
10
1.64778
20
2.61007
11
1.64786
21
2.60996
0
LINE
8
BLACK
6
CONTINUOUS
10
1.64786
20
2.60996
11
1.64973
21
2.60246
0
LINE
8
BLACK
6
CONTINUOUS
10
1.64973
20
2.60246
11
1.64978
21
2.60187
0
LINE
8
BLACK
6
CONTINUOUS
10
1.64978
20
2.60187
11
1.64982
21
2.60174
0
LINE
8
BLACK
6
CONTINUOUS
10
1.64982
20
2.60174
11
1.64982
21
2.59237
0
LINE
8
BLACK
6
CONTINUOUS
10
1.64982
20
2.59237
11
1.64972
21
2.59179
0
LINE
8
BLACK
6
CONTINUOUS
10
1.64972
20
2.59179
11
1.64973
21
2.59165
0
LINE
8
BLACK
6
CONTINUOUS
10
1.64973
20
2.59165
11
1.64786
21
2.58415
0
LINE
8
BLACK
6
CONTINUOUS
10
1.64786
20
2.58415
11
1.64765
21
2.58369
0
LINE
8
BLACK
6
CONTINUOUS
10
1.64765
20
2.58369
11
1.64764
21
2.58355
0
LINE
8
BLACK
6
CONTINUOUS
10
1.64764
20
2.58355
11
1.64576
21
2.5798
0
LINE
8
BLACK
6
CONTINUOUS
10
1.64576
20
2.5798
11
1.64523
21
2.57909
0
LINE
8
BLACK
6
CONTINUOUS
10
1.64523
20
2.57909
11
1.64521
21
2.57903
0
LINE
8
BLACK
6
CONTINUOUS
10
1.64521
20
2.57903
11
1.64333
21
2.57716
0
LINE
8
BLACK
6
CONTINUOUS
10
1.64333
20
2.57716
11
1.64261
21
2.57665
0
LINE
8
BLACK
6
CONTINUOUS
10
1.64261
20
2.57665
11
1.64257
21
2.5766
0
LINE
8
BLACK
6
CONTINUOUS
10
1.64257
20
2.5766
11
1.63882
21
2.57473
0
LINE
8
BLACK
6
CONTINUOUS
10
1.63882
20
2.57473
11
1.63783
21
2.57444
0
LINE
8
BLACK
6
CONTINUOUS
10
1.63783
20
2.57444
11
1.63766
21
2.57448
0
LINE
8
BLACK
6
CONTINUOUS
10
1.63766
20
2.57448
11
1.6375
21
2.57442
0
LINE
8
BLACK
6
CONTINUOUS
10
1.6375
20
2.57442
11
1.63375
21
2.57442
0
LINE
8
BLACK
6
CONTINUOUS
10
1.63375
20
2.57442
11
1.63274
21
2.57459
0
LINE
8
BLACK
6
CONTINUOUS
10
1.63274
20
2.57459
11
1.6326
21
2.57471
0
LINE
8
BLACK
6
CONTINUOUS
10
1.6326
20
2.57471
11
1.63243
21
2.57473
0
LINE
8
BLACK
6
CONTINUOUS
10
1.63243
20
2.57473
11
1.62868
21
2.5766
0
LINE
8
BLACK
6
CONTINUOUS
10
1.62868
20
2.5766
11
1.62797
21
2.57713
0
LINE
8
BLACK
6
CONTINUOUS
10
1.62797
20
2.57713
11
1.62791
21
2.57716
0
LINE
8
BLACK
6
CONTINUOUS
10
1.62791
20
2.57716
11
1.62603
21
2.57903
0
LINE
8
BLACK
6
CONTINUOUS
10
1.62603
20
2.57903
11
1.62553
21
2.57975
0
LINE
8
BLACK
6
CONTINUOUS
10
1.62553
20
2.57975
11
1.62548
21
2.5798
0
LINE
8
BLACK
6
CONTINUOUS
10
1.62548
20
2.5798
11
1.62361
21
2.58355
0
LINE
8
BLACK
6
CONTINUOUS
10
1.62361
20
2.58355
11
1.62346
21
2.58404
0
LINE
8
BLACK
6
CONTINUOUS
10
1.62346
20
2.58404
11
1.62338
21
2.58415
0
LINE
8
BLACK
6
CONTINUOUS
10
1.62338
20
2.58415
11
1.62151
21
2.59165
0
LINE
8
BLACK
6
CONTINUOUS
10
1.62151
20
2.59165
11
1.62147
21
2.59224
0
LINE
8
BLACK
6
CONTINUOUS
10
1.62147
20
2.59224
11
1.62142
21
2.59237
0
LINE
8
BLACK
6
CONTINUOUS
10
1.62142
20
2.59237
11
1.62142
21
2.60174
0
LINE
8
BLACK
6
CONTINUOUS
10
1.62142
20
2.60174
11
1.62152
21
2.60232
0
LINE
8
BLACK
6
CONTINUOUS
10
1.62152
20
2.60232
11
1.62151
21
2.60246
0
LINE
8
BLACK
6
CONTINUOUS
10
1.62151
20
2.60246
11
1.62338
21
2.60996
0
LINE
8
BLACK
6
CONTINUOUS
10
1.62338
20
2.60996
11
1.62359
21
2.61042
0
LINE
8
BLACK
6
CONTINUOUS
10
1.62359
20
2.61042
11
1.62361
21
2.61056
0
LINE
8
BLACK
6
CONTINUOUS
10
1.62361
20
2.61056
11
1.62548
21
2.61431
0
LINE
8
BLACK
6
CONTINUOUS
10
1.62548
20
2.61431
11
1.62601
21
2.61502
0
LINE
8
BLACK
6
CONTINUOUS
10
1.62601
20
2.61502
11
1.62603
21
2.61508
0
LINE
8
BLACK
6
CONTINUOUS
10
1.62603
20
2.61508
11
1.62791
21
2.61695
0
LINE
8
BLACK
6
CONTINUOUS
10
1.62791
20
2.61695
11
1.62863
21
2.61746
0
LINE
8
BLACK
6
CONTINUOUS
10
1.62863
20
2.61746
11
1.62868
21
2.61751
0
LINE
8
BLACK
6
CONTINUOUS
10
1.62868
20
2.61751
11
1.63243
21
2.61938
0
LINE
8
BLACK
6
CONTINUOUS
10
1.63243
20
2.61938
11
1.63341
21
2.61967
0
LINE
8
BLACK
6
CONTINUOUS
10
1.63341
20
2.61967
11
1.63358
21
2.61963
0
LINE
8
BLACK
6
CONTINUOUS
10
1.63358
20
2.61963
11
1.63375
21
2.61969
0
LINE
8
BLACK
6
CONTINUOUS
10
1.63375
20
2.61969
11
1.6375
21
2.61969
0
LINE
8
BLACK
6
CONTINUOUS
10
1.6375
20
2.61969
11
1.63851
21
2.61951
0
LINE
8
BLACK
6
CONTINUOUS
10
1.63175
20
2.61244
11
1.63055
21
2.61124
0
LINE
8
BLACK
6
CONTINUOUS
10
1.63055
20
2.61124
11
1.62903
21
2.60821
0
LINE
8
BLACK
6
CONTINUOUS
10
1.62903
20
2.60821
11
1.62732
21
2.60138
0
LINE
8
BLACK
6
CONTINUOUS
10
1.62732
20
2.60138
11
1.62732
21
2.59273
0
LINE
8
BLACK
6
CONTINUOUS
10
1.62732
20
2.59273
11
1.62903
21
2.5859
0
LINE
8
BLACK
6
CONTINUOUS
10
1.62903
20
2.5859
11
1.63055
21
2.58287
0
LINE
8
BLACK
6
CONTINUOUS
10
1.63055
20
2.58287
11
1.63175
21
2.58167
0
LINE
8
BLACK
6
CONTINUOUS
10
1.63175
20
2.58167
11
1.63444
21
2.58032
0
LINE
8
BLACK
6
CONTINUOUS
10
1.63444
20
2.58032
11
1.6368
21
2.58032
0
LINE
8
BLACK
6
CONTINUOUS
10
1.6368
20
2.58032
11
1.6395
21
2.58167
0
LINE
8
BLACK
6
CONTINUOUS
10
1.6395
20
2.58167
11
1.64069
21
2.58287
0
LINE
8
BLACK
6
CONTINUOUS
10
1.64069
20
2.58287
11
1.64221
21
2.5859
0
LINE
8
BLACK
6
CONTINUOUS
10
1.64221
20
2.5859
11
1.64392
21
2.59273
0
LINE
8
BLACK
6
CONTINUOUS
10
1.64392
20
2.59273
11
1.64392
21
2.60138
0
LINE
8
BLACK
6
CONTINUOUS
10
1.64392
20
2.60138
11
1.64221
21
2.60821
0
LINE
8
BLACK
6
CONTINUOUS
10
1.64221
20
2.60821
11
1.64069
21
2.61124
0
LINE
8
BLACK
6
CONTINUOUS
10
1.64069
20
2.61124
11
1.6395
21
2.61244
0
LINE
8
BLACK
6
CONTINUOUS
10
1.6395
20
2.61244
11
1.6368
21
2.61379
0
LINE
8
BLACK
6
CONTINUOUS
10
1.6368
20
2.61379
11
1.63444
21
2.61379
0
LINE
8
BLACK
6
CONTINUOUS
10
1.63444
20
2.61379
11
1.63175
21
2.61244
0
LINE
8
BLACK
6
CONTINUOUS
10
1.49539
20
2.584
11
1.49553
21
2.58403
0
LINE
8
BLACK
6
CONTINUOUS
10
1.49553
20
2.58403
11
1.49564
21
2.58396
0
LINE
8
BLACK
6
CONTINUOUS
10
1.49564
20
2.58396
11
1.49578
21
2.58397
0
LINE
8
BLACK
6
CONTINUOUS
10
1.49578
20
2.58397
11
1.49641
21
2.58353
0
LINE
8
BLACK
6
CONTINUOUS
10
1.49641
20
2.58353
11
1.4971
21
2.58321
0
LINE
8
BLACK
6
CONTINUOUS
10
1.4971
20
2.58321
11
1.49898
21
2.58133
0
LINE
8
BLACK
6
CONTINUOUS
10
1.49898
20
2.58133
11
1.4992
21
2.58101
0
LINE
8
BLACK
6
CONTINUOUS
10
1.4992
20
2.58101
11
1.49931
21
2.58094
0
LINE
8
BLACK
6
CONTINUOUS
10
1.49931
20
2.58094
11
1.49934
21
2.58081
0
LINE
8
BLACK
6
CONTINUOUS
10
1.49934
20
2.58081
11
1.49956
21
2.58049
0
LINE
8
BLACK
6
CONTINUOUS
10
1.49956
20
2.58049
11
1.49963
21
2.57973
0
LINE
8
BLACK
6
CONTINUOUS
10
1.49963
20
2.57973
11
1.49983
21
2.57899
0
LINE
8
BLACK
6
CONTINUOUS
10
1.49983
20
2.57899
11
1.49972
21
2.57875
0
LINE
8
BLACK
6
CONTINUOUS
10
1.49972
20
2.57875
11
1.49974
21
2.57848
0
LINE
8
BLACK
6
CONTINUOUS
10
1.49974
20
2.57848
11
1.4993
21
2.57785
0
LINE
8
BLACK
6
CONTINUOUS
10
1.4993
20
2.57785
11
1.49898
21
2.57716
0
LINE
8
BLACK
6
CONTINUOUS
10
1.49898
20
2.57716
11
1.4971
21
2.57528
0
LINE
8
BLACK
6
CONTINUOUS
10
1.4971
20
2.57528
11
1.49678
21
2.57506
0
LINE
8
BLACK
6
CONTINUOUS
10
1.49678
20
2.57506
11
1.49671
21
2.57495
0
LINE
8
BLACK
6
CONTINUOUS
10
1.49671
20
2.57495
11
1.49658
21
2.57492
0
LINE
8
BLACK
6
CONTINUOUS
10
1.49658
20
2.57492
11
1.49657
21
2.57491
0
LINE
8
BLACK
6
CONTINUOUS
10
1.49657
20
2.57491
11
1.49649
21
2.57481
0
LINE
8
BLACK
6
CONTINUOUS
10
1.49649
20
2.57481
11
1.49641
21
2.5748
0
LINE
8
BLACK
6
CONTINUOUS
10
1.49641
20
2.5748
11
1.49626
21
2.57469
0
LINE
8
BLACK
6
CONTINUOUS
10
1.49626
20
2.57469
11
1.4955
21
2.57463
0
LINE
8
BLACK
6
CONTINUOUS
10
1.4955
20
2.57463
11
1.49476
21
2.57443
0
LINE
8
BLACK
6
CONTINUOUS
10
1.49476
20
2.57443
11
1.49463
21
2.57448
0
LINE
8
BLACK
6
CONTINUOUS
10
1.49463
20
2.57448
11
1.4945
21
2.57446
0
LINE
8
BLACK
6
CONTINUOUS
10
1.4945
20
2.57446
11
1.49438
21
2.57453
0
LINE
8
BLACK
6
CONTINUOUS
10
1.49438
20
2.57453
11
1.49425
21
2.57452
0
LINE
8
BLACK
6
CONTINUOUS
10
1.49425
20
2.57452
11
1.49362
21
2.57496
0
LINE
8
BLACK
6
CONTINUOUS
10
1.49362
20
2.57496
11
1.49293
21
2.57528
0
LINE
8
BLACK
6
CONTINUOUS
10
1.49293
20
2.57528
11
1.49105
21
2.57716
0
LINE
8
BLACK
6
CONTINUOUS
10
1.49105
20
2.57716
11
1.49083
21
2.57748
0
LINE
8
BLACK
6
CONTINUOUS
10
1.49083
20
2.57748
11
1.49072
21
2.57755
0
LINE
8
BLACK
6
CONTINUOUS
10
1.49072
20
2.57755
11
1.49069
21
2.57768
0
LINE
8
BLACK
6
CONTINUOUS
10
1.49069
20
2.57768
11
1.49046
21
2.578
0
LINE
8
BLACK
6
CONTINUOUS
10
1.49046
20
2.578
11
1.4904
21
2.57876
0
LINE
8
BLACK
6
CONTINUOUS
10
1.4904
20
2.57876
11
1.4902
21
2.5795
0
LINE
8
BLACK
6
CONTINUOUS
10
1.4902
20
2.5795
11
1.49031
21
2.57974
0
LINE
8
BLACK
6
CONTINUOUS
10
1.49031
20
2.57974
11
1.49029
21
2.58001
0
LINE
8
BLACK
6
CONTINUOUS
10
1.49029
20
2.58001
11
1.49073
21
2.58064
0
LINE
8
BLACK
6
CONTINUOUS
10
1.49073
20
2.58064
11
1.49105
21
2.58133
0
LINE
8
BLACK
6
CONTINUOUS
10
1.49105
20
2.58133
11
1.49293
21
2.58321
0
LINE
8
BLACK
6
CONTINUOUS
10
1.49293
20
2.58321
11
1.49324
21
2.58343
0
LINE
8
BLACK
6
CONTINUOUS
10
1.49324
20
2.58343
11
1.49332
21
2.58354
0
LINE
8
BLACK
6
CONTINUOUS
10
1.49332
20
2.58354
11
1.49345
21
2.58357
0
LINE
8
BLACK
6
CONTINUOUS
10
1.49345
20
2.58357
11
1.49345
21
2.58358
0
LINE
8
BLACK
6
CONTINUOUS
10
1.49345
20
2.58358
11
1.49354
21
2.58368
0
LINE
8
BLACK
6
CONTINUOUS
10
1.49354
20
2.58368
11
1.49362
21
2.58369
0
LINE
8
BLACK
6
CONTINUOUS
10
1.49362
20
2.58369
11
1.49377
21
2.58379
0
LINE
8
BLACK
6
CONTINUOUS
10
1.49377
20
2.58379
11
1.49453
21
2.58386
0
LINE
8
BLACK
6
CONTINUOUS
10
1.49453
20
2.58386
11
1.49527
21
2.58406
0
LINE
8
BLACK
6
CONTINUOUS
10
1.49527
20
2.58406
11
1.49539
21
2.584
0
LINE
8
BLACK
6
CONTINUOUS
10
1.706
20
2.60639
11
1.70613
21
2.60628
0
LINE
8
BLACK
6
CONTINUOUS
10
1.70613
20
2.60628
11
1.70631
21
2.60626
0
LINE
8
BLACK
6
CONTINUOUS
10
1.70631
20
2.60626
11
1.71006
21
2.60438
0
LINE
8
BLACK
6
CONTINUOUS
10
1.71006
20
2.60438
11
1.71063
21
2.60396
0
LINE
8
BLACK
6
CONTINUOUS
10
1.71063
20
2.60396
11
1.71086
21
2.60406
0
LINE
8
BLACK
6
CONTINUOUS
10
1.71086
20
2.60406
11
1.71117
21
2.60438
0
LINE
8
BLACK
6
CONTINUOUS
10
1.71117
20
2.60438
11
1.71491
21
2.60626
0
LINE
8
BLACK
6
CONTINUOUS
10
1.71491
20
2.60626
11
1.7159
21
2.60655
0
LINE
8
BLACK
6
CONTINUOUS
10
1.7159
20
2.60655
11
1.71607
21
2.60651
0
LINE
8
BLACK
6
CONTINUOUS
10
1.71607
20
2.60651
11
1.71624
21
2.60657
0
LINE
8
BLACK
6
CONTINUOUS
10
1.71624
20
2.60657
11
1.72186
21
2.60657
0
LINE
8
BLACK
6
CONTINUOUS
10
1.72186
20
2.60657
11
1.72287
21
2.60639
0
LINE
8
BLACK
6
CONTINUOUS
10
1.72287
20
2.60639
11
1.723
21
2.60628
0
LINE
8
BLACK
6
CONTINUOUS
10
1.723
20
2.60628
11
1.72318
21
2.60626
0
LINE
8
BLACK
6
CONTINUOUS
10
1.72318
20
2.60626
11
1.72693
21
2.60438
0
LINE
8
BLACK
6
CONTINUOUS
10
1.72693
20
2.60438
11
1.72775
21
2.60377
0
LINE
8
BLACK
6
CONTINUOUS
10
1.72775
20
2.60377
11
1.72793
21
2.60337
0
LINE
8
BLACK
6
CONTINUOUS
10
1.72793
20
2.60337
11
1.72825
21
2.60306
0
LINE
8
BLACK
6
CONTINUOUS
10
1.72825
20
2.60306
11
1.73013
21
2.59931
0
LINE
8
BLACK
6
CONTINUOUS
10
1.73013
20
2.59931
11
1.73042
21
2.59833
0
LINE
8
BLACK
6
CONTINUOUS
10
1.73042
20
2.59833
11
1.73038
21
2.59816
0
LINE
8
BLACK
6
CONTINUOUS
10
1.73038
20
2.59816
11
1.73044
21
2.59799
0
LINE
8
BLACK
6
CONTINUOUS
10
1.73044
20
2.59799
11
1.73044
21
2.57737
0
LINE
8
BLACK
6
CONTINUOUS
10
1.73044
20
2.57737
11
1.73026
21
2.57636
0
LINE
8
BLACK
6
CONTINUOUS
10
1.73026
20
2.57636
11
1.72896
21
2.57481
0
LINE
8
BLACK
6
CONTINUOUS
10
1.72896
20
2.57481
11
1.72697
21
2.57446
0
LINE
8
BLACK
6
CONTINUOUS
10
1.72697
20
2.57446
11
1.72522
21
2.57547
0
LINE
8
BLACK
6
CONTINUOUS
10
1.72522
20
2.57547
11
1.72453
21
2.57737
0
LINE
8
BLACK
6
CONTINUOUS
10
1.72453
20
2.57737
11
1.72453
21
2.59729
0
LINE
8
BLACK
6
CONTINUOUS
10
1.72453
20
2.59729
11
1.72341
21
2.59954
0
LINE
8
BLACK
6
CONTINUOUS
10
1.72341
20
2.59954
11
1.72116
21
2.60066
0
LINE
8
BLACK
6
CONTINUOUS
10
1.72116
20
2.60066
11
1.71693
21
2.60066
0
LINE
8
BLACK
6
CONTINUOUS
10
1.71693
20
2.60066
11
1.71469
21
2.59954
0
LINE
8
BLACK
6
CONTINUOUS
10
1.71469
20
2.59954
11
1.71356
21
2.59729
0
LINE
8
BLACK
6
CONTINUOUS
10
1.71356
20
2.59729
11
1.71356
21
2.57737
0
LINE
8
BLACK
6
CONTINUOUS
10
1.71356
20
2.57737
11
1.71339
21
2.57636
0
LINE
8
BLACK
6
CONTINUOUS
10
1.71339
20
2.57636
11
1.71209
21
2.57481
0
LINE
8
BLACK
6
CONTINUOUS
10
1.71209
20
2.57481
11
1.7101
21
2.57446
0
LINE
8
BLACK
6
CONTINUOUS
10
1.7101
20
2.57446
11
1.70835
21
2.57547
0
LINE
8
BLACK
6
CONTINUOUS
10
1.70835
20
2.57547
11
1.70766
21
2.57737
0
LINE
8
BLACK
6
CONTINUOUS
10
1.70766
20
2.57737
11
1.70766
21
2.59729
0
LINE
8
BLACK
6
CONTINUOUS
10
1.70766
20
2.59729
11
1.70654
21
2.59954
0
LINE
8
BLACK
6
CONTINUOUS
10
1.70654
20
2.59954
11
1.70429
21
2.60066
0
LINE
8
BLACK
6
CONTINUOUS
10
1.70429
20
2.60066
11
1.70006
21
2.60066
0
LINE
8
BLACK
6
CONTINUOUS
10
1.70006
20
2.60066
11
1.69736
21
2.59931
0
LINE
8
BLACK
6
CONTINUOUS
10
1.69736
20
2.59931
11
1.69669
21
2.59864
0
LINE
8
BLACK
6
CONTINUOUS
10
1.69669
20
2.59864
11
1.69669
21
2.57737
0
LINE
8
BLACK
6
CONTINUOUS
10
1.69669
20
2.57737
11
1.69651
21
2.57636
0
LINE
8
BLACK
6
CONTINUOUS
10
1.69651
20
2.57636
11
1.69521
21
2.57481
0
LINE
8
BLACK
6
CONTINUOUS
10
1.69521
20
2.57481
11
1.69323
21
2.57446
0
LINE
8
BLACK
6
CONTINUOUS
10
1.69323
20
2.57446
11
1.69148
21
2.57547
0
LINE
8
BLACK
6
CONTINUOUS
10
1.69148
20
2.57547
11
1.69079
21
2.57737
0
LINE
8
BLACK
6
CONTINUOUS
10
1.69079
20
2.57737
11
1.69079
21
2.60362
0
LINE
8
BLACK
6
CONTINUOUS
10
1.69079
20
2.60362
11
1.69096
21
2.60463
0
LINE
8
BLACK
6
CONTINUOUS
10
1.69096
20
2.60463
11
1.69226
21
2.60617
0
LINE
8
BLACK
6
CONTINUOUS
10
1.69226
20
2.60617
11
1.69425
21
2.60652
0
LINE
8
BLACK
6
CONTINUOUS
10
1.69425
20
2.60652
11
1.696
21
2.60551
0
LINE
8
BLACK
6
CONTINUOUS
10
1.696
20
2.60551
11
1.69609
21
2.60528
0
LINE
8
BLACK
6
CONTINUOUS
10
1.69609
20
2.60528
11
1.69804
21
2.60626
0
LINE
8
BLACK
6
CONTINUOUS
10
1.69804
20
2.60626
11
1.69903
21
2.60655
0
LINE
8
BLACK
6
CONTINUOUS
10
1.69903
20
2.60655
11
1.6992
21
2.60651
0
LINE
8
BLACK
6
CONTINUOUS
10
1.6992
20
2.60651
11
1.69936
21
2.60657
0
LINE
8
BLACK
6
CONTINUOUS
10
1.69936
20
2.60657
11
1.70499
21
2.60657
0
LINE
8
BLACK
6
CONTINUOUS
10
1.70499
20
2.60657
11
1.706
21
2.60639
0
LINE
8
BLACK
6
CONTINUOUS
10
1.75849
20
2.60639
11
1.75863
21
2.60628
0
LINE
8
BLACK
6
CONTINUOUS
10
1.75863
20
2.60628
11
1.7588
21
2.60626
0
LINE
8
BLACK
6
CONTINUOUS
10
1.7588
20
2.60626
11
1.76255
21
2.60438
0
LINE
8
BLACK
6
CONTINUOUS
10
1.76255
20
2.60438
11
1.76312
21
2.60396
0
LINE
8
BLACK
6
CONTINUOUS
10
1.76312
20
2.60396
11
1.76335
21
2.60406
0
LINE
8
BLACK
6
CONTINUOUS
10
1.76335
20
2.60406
11
1.76366
21
2.60438
0
LINE
8
BLACK
6
CONTINUOUS
10
1.76366
20
2.60438
11
1.76741
21
2.60626
0
LINE
8
BLACK
6
CONTINUOUS
10
1.76741
20
2.60626
11
1.76839
21
2.60655
0
LINE
8
BLACK
6
CONTINUOUS
10
1.76839
20
2.60655
11
1.76856
21
2.60651
0
LINE
8
BLACK
6
CONTINUOUS
10
1.76856
20
2.60651
11
1.76873
21
2.60657
0
LINE
8
BLACK
6
CONTINUOUS
10
1.76873
20
2.60657
11
1.77435
21
2.60657
0
LINE
8
BLACK
6
CONTINUOUS
10
1.77435
20
2.60657
11
1.77536
21
2.60639
0
LINE
8
BLACK
6
CONTINUOUS
10
1.77536
20
2.60639
11
1.7755
21
2.60628
0
LINE
8
BLACK
6
CONTINUOUS
10
1.7755
20
2.60628
11
1.77567
21
2.60626
0
LINE
8
BLACK
6
CONTINUOUS
10
1.77567
20
2.60626
11
1.77942
21
2.60438
0
LINE
8
BLACK
6
CONTINUOUS
10
1.77942
20
2.60438
11
1.78025
21
2.60377
0
LINE
8
BLACK
6
CONTINUOUS
10
1.78025
20
2.60377
11
1.78042
21
2.60337
0
LINE
8
BLACK
6
CONTINUOUS
10
1.78042
20
2.60337
11
1.78074
21
2.60306
0
LINE
8
BLACK
6
CONTINUOUS
10
1.78074
20
2.60306
11
1.78262
21
2.59931
0
LINE
8
BLACK
6
CONTINUOUS
10
1.78262
20
2.59931
11
1.78291
21
2.59833
0
LINE
8
BLACK
6
CONTINUOUS
10
1.78291
20
2.59833
11
1.78287
21
2.59816
0
LINE
8
BLACK
6
CONTINUOUS
10
1.78287
20
2.59816
11
1.78293
21
2.59799
0
LINE
8
BLACK
6
CONTINUOUS
10
1.78293
20
2.59799
11
1.78293
21
2.57737
0
LINE
8
BLACK
6
CONTINUOUS
10
1.78293
20
2.57737
11
1.78275
21
2.57636
0
LINE
8
BLACK
6
CONTINUOUS
10
1.78275
20
2.57636
11
1.78145
21
2.57481
0
LINE
8
BLACK
6
CONTINUOUS
10
1.78145
20
2.57481
11
1.77946
21
2.57446
0
LINE
8
BLACK
6
CONTINUOUS
10
1.77946
20
2.57446
11
1.77772
21
2.57547
0
LINE
8
BLACK
6
CONTINUOUS
10
1.77772
20
2.57547
11
1.77702
21
2.57737
0
LINE
8
BLACK
6
CONTINUOUS
10
1.77702
20
2.57737
11
1.77702
21
2.59729
0
LINE
8
BLACK
6
CONTINUOUS
10
1.77702
20
2.59729
11
1.7759
21
2.59954
0
LINE
8
BLACK
6
CONTINUOUS
10
1.7759
20
2.59954
11
1.77366
21
2.60066
0
LINE
8
BLACK
6
CONTINUOUS
10
1.77366
20
2.60066
11
1.76943
21
2.60066
0
LINE
8
BLACK
6
CONTINUOUS
10
1.76943
20
2.60066
11
1.76718
21
2.59954
0
LINE
8
BLACK
6
CONTINUOUS
10
1.76718
20
2.59954
11
1.76606
21
2.59729
0
LINE
8
BLACK
6
CONTINUOUS
10
1.76606
20
2.59729
11
1.76606
21
2.57737
0
LINE
8
BLACK
6
CONTINUOUS
10
1.76606
20
2.57737
11
1.76588
21
2.57636
0
LINE
8
BLACK
6
CONTINUOUS
10
1.76588
20
2.57636
11
1.76458
21
2.57481
0
LINE
8
BLACK
6
CONTINUOUS
10
1.76458
20
2.57481
11
1.76259
21
2.57446
0
LINE
8
BLACK
6
CONTINUOUS
10
1.76259
20
2.57446
11
1.76084
21
2.57547
0
LINE
8
BLACK
6
CONTINUOUS
10
1.76084
20
2.57547
11
1.76015
21
2.57737
0
LINE
8
BLACK
6
CONTINUOUS
10
1.76015
20
2.57737
11
1.76015
21
2.59729
0
LINE
8
BLACK
6
CONTINUOUS
10
1.76015
20
2.59729
11
1.75903
21
2.59954
0
LINE
8
BLACK
6
CONTINUOUS
10
1.75903
20
2.59954
11
1.75678
21
2.60066
0
LINE
8
BLACK
6
CONTINUOUS
10
1.75678
20
2.60066
11
1.75255
21
2.60066
0
LINE
8
BLACK
6
CONTINUOUS
10
1.75255
20
2.60066
11
1.74986
21
2.59931
0
LINE
8
BLACK
6
CONTINUOUS
10
1.74986
20
2.59931
11
1.74918
21
2.59864
0
LINE
8
BLACK
6
CONTINUOUS
10
1.74918
20
2.59864
11
1.74918
21
2.57737
0
LINE
8
BLACK
6
CONTINUOUS
10
1.74918
20
2.57737
11
1.74901
21
2.57636
0
LINE
8
BLACK
6
CONTINUOUS
10
1.74901
20
2.57636
11
1.74771
21
2.57481
0
LINE
8
BLACK
6
CONTINUOUS
10
1.74771
20
2.57481
11
1.74572
21
2.57446
0
LINE
8
BLACK
6
CONTINUOUS
10
1.74572
20
2.57446
11
1.74397
21
2.57547
0
LINE
8
BLACK
6
CONTINUOUS
10
1.74397
20
2.57547
11
1.74328
21
2.57737
0
LINE
8
BLACK
6
CONTINUOUS
10
1.74328
20
2.57737
11
1.74328
21
2.60362
0
LINE
8
BLACK
6
CONTINUOUS
10
1.74328
20
2.60362
11
1.74346
21
2.60463
0
LINE
8
BLACK
6
CONTINUOUS
10
1.74346
20
2.60463
11
1.74476
21
2.60617
0
LINE
8
BLACK
6
CONTINUOUS
10
1.74476
20
2.60617
11
1.74674
21
2.60652
0
LINE
8
BLACK
6
CONTINUOUS
10
1.74674
20
2.60652
11
1.74849
21
2.60551
0
LINE
8
BLACK
6
CONTINUOUS
10
1.74849
20
2.60551
11
1.74858
21
2.60528
0
LINE
8
BLACK
6
CONTINUOUS
10
1.74858
20
2.60528
11
1.75054
21
2.60626
0
LINE
8
BLACK
6
CONTINUOUS
10
1.75054
20
2.60626
11
1.75152
21
2.60655
0
LINE
8
BLACK
6
CONTINUOUS
10
1.75152
20
2.60655
11
1.75169
21
2.60651
0
LINE
8
BLACK
6
CONTINUOUS
10
1.75169
20
2.60651
11
1.75186
21
2.60657
0
LINE
8
BLACK
6
CONTINUOUS
10
1.75186
20
2.60657
11
1.75748
21
2.60657
0
LINE
8
BLACK
6
CONTINUOUS
10
1.75748
20
2.60657
11
1.75849
21
2.60639
  0
ENDSEC
  0
EOF
