  0
SECTION
  2
HEADER
  9
$ANGBASE
  50
0.0
  9
$ANGDIR
  70
1
  9
$MEASUREMENT
  70
0
  0
ENDSEC
  0
SECTION
  2
TABLES
  0
TABLE
  2
LTYPE
  70
4
  0
LTYPE
  5
40F
  2
CONTINUOUS
  70
0
  3
Solid line
  72
65
  73
0
  40
0.0
  0
LTYPE
  5
410
  2
DASHDOT
 70
0
  3
Dash Dot ____ _ ____ _
 72
65
 73
4
 40
2.0
 49
1.25
 49
-0.25
 49
0.25
 49
-0.25
  0
LTYPE
  5
411
  2
DASHED
 70
0
  3
Dashed __ __ __ __ __
 72
65
 73
2
 40
0.75
 49
0.5
 49
-0.25
  0
LTYPE
  5
43B
  2
DOTTED
 70
0
  3
Dotted .  .  .  .
 72
65
 73
2
 40
0.2
 49
0.0
 49
-0.2
  0
ENDTAB
  0
TABLE
  2
STYLE
  70
4
  0
STYLE
  2
KICAD
  70
0
  40
0
  41
1
  42
1
  50
0
  71
0
  3
isocp.shx
  0
STYLE
  2
KICADB
  70
0
  40
0
  41
1
  42
1
  50
0
  71
0
  3
isocp.shx
  0
STYLE
  2
KICADI
  70
0
  40
0
  41
1
  42
1
  50
15
  71
0
  3
isocp.shx
  0
STYLE
  2
KICADBI
  70
0
  40
0
  41
1
  42
1
  50
15
  71
0
  3
isocp.shx
  0
ENDTAB
  0
TABLE
  2
LAYER
  70
1
  0
LAYER
  2
BLACK
  70
0
  62
7
  6
CONTINUOUS
  0
ENDTAB
  0
ENDSEC
  0
SECTION
  2
ENTITIES
0
LINE
8
BLACK
6
CONTINUOUS
10
1.01942
20
0.689437
11
1.02699
21
0.687141
0
LINE
8
BLACK
6
CONTINUOUS
10
1.02699
20
0.687141
11
1.03396
21
0.683412
0
LINE
8
BLACK
6
CONTINUOUS
10
1.03396
20
0.683412
11
1.04008
21
0.678393
0
LINE
8
BLACK
6
CONTINUOUS
10
1.04008
20
0.678393
11
1.0451
21
0.672278
0
LINE
8
BLACK
6
CONTINUOUS
10
1.0451
20
0.672278
11
1.04883
21
0.665301
0
LINE
8
BLACK
6
CONTINUOUS
10
1.04883
20
0.665301
11
1.05112
21
0.657731
0
LINE
8
BLACK
6
CONTINUOUS
10
1.05112
20
0.657731
11
1.0519
21
0.649858
0
LINE
8
BLACK
6
CONTINUOUS
10
1.0519
20
0.649858
11
1.05112
21
0.641986
0
LINE
8
BLACK
6
CONTINUOUS
10
1.05112
20
0.641986
11
1.04883
21
0.634415
0
LINE
8
BLACK
6
CONTINUOUS
10
1.04883
20
0.634415
11
1.0451
21
0.627439
0
LINE
8
BLACK
6
CONTINUOUS
10
1.0451
20
0.627439
11
1.04008
21
0.621323
0
LINE
8
BLACK
6
CONTINUOUS
10
1.04008
20
0.621323
11
1.03396
21
0.616305
0
LINE
8
BLACK
6
CONTINUOUS
10
1.03396
20
0.616305
11
1.02699
21
0.612576
0
LINE
8
BLACK
6
CONTINUOUS
10
1.02699
20
0.612576
11
1.01942
21
0.610279
0
LINE
8
BLACK
6
CONTINUOUS
10
1.01942
20
0.610279
11
1.01154
21
0.609504
0
LINE
8
BLACK
6
CONTINUOUS
10
1.01154
20
0.609504
11
1.00367
21
0.610279
0
LINE
8
BLACK
6
CONTINUOUS
10
1.00367
20
0.610279
11
0.9961
21
0.612576
0
LINE
8
BLACK
6
CONTINUOUS
10
0.9961
20
0.612576
11
0.989124
21
0.616305
0
LINE
8
BLACK
6
CONTINUOUS
10
0.989124
20
0.616305
11
0.983009
21
0.621323
0
LINE
8
BLACK
6
CONTINUOUS
10
0.983009
20
0.621323
11
0.97799
21
0.627439
0
LINE
8
BLACK
6
CONTINUOUS
10
0.97799
20
0.627439
11
0.974261
21
0.634415
0
LINE
8
BLACK
6
CONTINUOUS
10
0.974261
20
0.634415
11
0.971964
21
0.641986
0
LINE
8
BLACK
6
CONTINUOUS
10
0.971964
20
0.641986
11
0.971189
21
0.649858
0
LINE
8
BLACK
6
CONTINUOUS
10
0.971189
20
0.649858
11
0.971964
21
0.657731
0
LINE
8
BLACK
6
CONTINUOUS
10
0.971964
20
0.657731
11
0.974261
21
0.665301
0
LINE
8
BLACK
6
CONTINUOUS
10
0.974261
20
0.665301
11
0.97799
21
0.672278
0
LINE
8
BLACK
6
CONTINUOUS
10
0.97799
20
0.672278
11
0.983009
21
0.678393
0
LINE
8
BLACK
6
CONTINUOUS
10
0.983009
20
0.678393
11
0.989124
21
0.683412
0
LINE
8
BLACK
6
CONTINUOUS
10
0.989124
20
0.683412
11
0.9961
21
0.687141
0
LINE
8
BLACK
6
CONTINUOUS
10
0.9961
20
0.687141
11
1.00367
21
0.689437
0
LINE
8
BLACK
6
CONTINUOUS
10
1.00367
20
0.689437
11
1.01154
21
0.690213
0
LINE
8
BLACK
6
CONTINUOUS
10
1.01154
20
0.690213
11
1.01942
21
0.689437
0
LINE
8
BLACK
6
CONTINUOUS
10
0.973713
20
0.642333
11
0.975908
21
0.635098
0
LINE
8
BLACK
6
CONTINUOUS
10
0.975908
20
0.635098
11
0.979472
21
0.628429
0
LINE
8
BLACK
6
CONTINUOUS
10
0.979472
20
0.628429
11
0.984269
21
0.622584
0
LINE
8
BLACK
6
CONTINUOUS
10
0.984269
20
0.622584
11
0.990114
21
0.617787
0
LINE
8
BLACK
6
CONTINUOUS
10
0.990114
20
0.617787
11
0.996783
21
0.614223
0
LINE
8
BLACK
6
CONTINUOUS
10
0.996783
20
0.614223
11
1.00402
21
0.612028
0
LINE
8
BLACK
6
CONTINUOUS
10
1.00402
20
0.612028
11
1.01154
21
0.611287
0
LINE
8
BLACK
6
CONTINUOUS
10
1.01154
20
0.611287
11
1.01907
21
0.612028
0
LINE
8
BLACK
6
CONTINUOUS
10
1.01907
20
0.612028
11
1.0263
21
0.614223
0
LINE
8
BLACK
6
CONTINUOUS
10
1.0263
20
0.614223
11
1.03297
21
0.617787
0
LINE
8
BLACK
6
CONTINUOUS
10
1.03297
20
0.617787
11
1.03882
21
0.622584
0
LINE
8
BLACK
6
CONTINUOUS
10
1.03882
20
0.622584
11
1.04361
21
0.628429
0
LINE
8
BLACK
6
CONTINUOUS
10
1.04361
20
0.628429
11
1.04718
21
0.635098
0
LINE
8
BLACK
6
CONTINUOUS
10
1.04718
20
0.635098
11
1.04937
21
0.642333
0
LINE
8
BLACK
6
CONTINUOUS
10
1.04937
20
0.642333
11
1.05011
21
0.649858
0
LINE
8
BLACK
6
CONTINUOUS
10
1.05011
20
0.649858
11
1.04937
21
0.657383
0
LINE
8
BLACK
6
CONTINUOUS
10
1.04937
20
0.657383
11
1.04718
21
0.664619
0
LINE
8
BLACK
6
CONTINUOUS
10
1.04718
20
0.664619
11
1.04361
21
0.671287
0
LINE
8
BLACK
6
CONTINUOUS
10
1.04361
20
0.671287
11
1.03882
21
0.677132
0
LINE
8
BLACK
6
CONTINUOUS
10
1.03882
20
0.677132
11
1.03297
21
0.681929
0
LINE
8
BLACK
6
CONTINUOUS
10
1.03297
20
0.681929
11
1.0263
21
0.685494
0
LINE
8
BLACK
6
CONTINUOUS
10
1.0263
20
0.685494
11
1.01907
21
0.687689
0
LINE
8
BLACK
6
CONTINUOUS
10
1.01907
20
0.687689
11
1.01154
21
0.68843
0
LINE
8
BLACK
6
CONTINUOUS
10
1.01154
20
0.68843
11
1.00402
21
0.687689
0
LINE
8
BLACK
6
CONTINUOUS
10
1.00402
20
0.687689
11
0.996783
21
0.685494
0
LINE
8
BLACK
6
CONTINUOUS
10
0.996783
20
0.685494
11
0.990114
21
0.681929
0
LINE
8
BLACK
6
CONTINUOUS
10
0.990114
20
0.681929
11
0.984269
21
0.677132
0
LINE
8
BLACK
6
CONTINUOUS
10
0.984269
20
0.677132
11
0.979472
21
0.671287
0
LINE
8
BLACK
6
CONTINUOUS
10
0.979472
20
0.671287
11
0.975908
21
0.664619
0
LINE
8
BLACK
6
CONTINUOUS
10
0.975908
20
0.664619
11
0.973713
21
0.657383
0
LINE
8
BLACK
6
CONTINUOUS
10
0.973713
20
0.657383
11
0.972972
21
0.649858
0
LINE
8
BLACK
6
CONTINUOUS
10
0.972972
20
0.649858
11
0.973713
21
0.642333
0
LINE
8
BLACK
6
CONTINUOUS
10
1.00942
20
0.837437
11
1.01699
21
0.835141
0
LINE
8
BLACK
6
CONTINUOUS
10
1.01699
20
0.835141
11
1.02396
21
0.831412
0
LINE
8
BLACK
6
CONTINUOUS
10
1.02396
20
0.831412
11
1.03008
21
0.826393
0
LINE
8
BLACK
6
CONTINUOUS
10
1.03008
20
0.826393
11
1.0351
21
0.820278
0
LINE
8
BLACK
6
CONTINUOUS
10
1.0351
20
0.820278
11
1.03883
21
0.813301
0
LINE
8
BLACK
6
CONTINUOUS
10
1.03883
20
0.813301
11
1.04112
21
0.805731
0
LINE
8
BLACK
6
CONTINUOUS
10
1.04112
20
0.805731
11
1.0419
21
0.797858
0
LINE
8
BLACK
6
CONTINUOUS
10
1.0419
20
0.797858
11
1.04112
21
0.789986
0
LINE
8
BLACK
6
CONTINUOUS
10
1.04112
20
0.789986
11
1.03883
21
0.782415
0
LINE
8
BLACK
6
CONTINUOUS
10
1.03883
20
0.782415
11
1.0351
21
0.775439
0
LINE
8
BLACK
6
CONTINUOUS
10
1.0351
20
0.775439
11
1.03008
21
0.769323
0
LINE
8
BLACK
6
CONTINUOUS
10
1.03008
20
0.769323
11
1.02396
21
0.764305
0
LINE
8
BLACK
6
CONTINUOUS
10
1.02396
20
0.764305
11
1.01699
21
0.760576
0
LINE
8
BLACK
6
CONTINUOUS
10
1.01699
20
0.760576
11
1.00942
21
0.758279
0
LINE
8
BLACK
6
CONTINUOUS
10
1.00942
20
0.758279
11
1.00154
21
0.757504
0
LINE
8
BLACK
6
CONTINUOUS
10
1.00154
20
0.757504
11
0.993671
21
0.758279
0
LINE
8
BLACK
6
CONTINUOUS
10
0.993671
20
0.758279
11
0.9861
21
0.760576
0
LINE
8
BLACK
6
CONTINUOUS
10
0.9861
20
0.760576
11
0.979124
21
0.764305
0
LINE
8
BLACK
6
CONTINUOUS
10
0.979124
20
0.764305
11
0.973009
21
0.769323
0
LINE
8
BLACK
6
CONTINUOUS
10
0.973009
20
0.769323
11
0.96799
21
0.775439
0
LINE
8
BLACK
6
CONTINUOUS
10
0.96799
20
0.775439
11
0.964261
21
0.782415
0
LINE
8
BLACK
6
CONTINUOUS
10
0.964261
20
0.782415
11
0.961964
21
0.789986
0
LINE
8
BLACK
6
CONTINUOUS
10
0.961964
20
0.789986
11
0.961189
21
0.797858
0
LINE
8
BLACK
6
CONTINUOUS
10
0.961189
20
0.797858
11
0.961964
21
0.805731
0
LINE
8
BLACK
6
CONTINUOUS
10
0.961964
20
0.805731
11
0.964261
21
0.813301
0
LINE
8
BLACK
6
CONTINUOUS
10
0.964261
20
0.813301
11
0.96799
21
0.820278
0
LINE
8
BLACK
6
CONTINUOUS
10
0.96799
20
0.820278
11
0.973009
21
0.826393
0
LINE
8
BLACK
6
CONTINUOUS
10
0.973009
20
0.826393
11
0.979124
21
0.831412
0
LINE
8
BLACK
6
CONTINUOUS
10
0.979124
20
0.831412
11
0.9861
21
0.835141
0
LINE
8
BLACK
6
CONTINUOUS
10
0.9861
20
0.835141
11
0.993671
21
0.837437
0
LINE
8
BLACK
6
CONTINUOUS
10
0.993671
20
0.837437
11
1.00154
21
0.838213
0
LINE
8
BLACK
6
CONTINUOUS
10
1.00154
20
0.838213
11
1.00942
21
0.837437
0
LINE
8
BLACK
6
CONTINUOUS
10
0.963713
20
0.790333
11
0.965908
21
0.783098
0
LINE
8
BLACK
6
CONTINUOUS
10
0.965908
20
0.783098
11
0.969472
21
0.776429
0
LINE
8
BLACK
6
CONTINUOUS
10
0.969472
20
0.776429
11
0.974269
21
0.770584
0
LINE
8
BLACK
6
CONTINUOUS
10
0.974269
20
0.770584
11
0.980114
21
0.765787
0
LINE
8
BLACK
6
CONTINUOUS
10
0.980114
20
0.765787
11
0.986783
21
0.762223
0
LINE
8
BLACK
6
CONTINUOUS
10
0.986783
20
0.762223
11
0.994018
21
0.760028
0
LINE
8
BLACK
6
CONTINUOUS
10
0.994018
20
0.760028
11
1.00154
21
0.759287
0
LINE
8
BLACK
6
CONTINUOUS
10
1.00154
20
0.759287
11
1.00907
21
0.760028
0
LINE
8
BLACK
6
CONTINUOUS
10
1.00907
20
0.760028
11
1.0163
21
0.762223
0
LINE
8
BLACK
6
CONTINUOUS
10
1.0163
20
0.762223
11
1.02297
21
0.765787
0
LINE
8
BLACK
6
CONTINUOUS
10
1.02297
20
0.765787
11
1.02882
21
0.770584
0
LINE
8
BLACK
6
CONTINUOUS
10
1.02882
20
0.770584
11
1.03361
21
0.776429
0
LINE
8
BLACK
6
CONTINUOUS
10
1.03361
20
0.776429
11
1.03718
21
0.783098
0
LINE
8
BLACK
6
CONTINUOUS
10
1.03718
20
0.783098
11
1.03937
21
0.790333
0
LINE
8
BLACK
6
CONTINUOUS
10
1.03937
20
0.790333
11
1.04011
21
0.797858
0
LINE
8
BLACK
6
CONTINUOUS
10
1.04011
20
0.797858
11
1.03937
21
0.805383
0
LINE
8
BLACK
6
CONTINUOUS
10
1.03937
20
0.805383
11
1.03718
21
0.812619
0
LINE
8
BLACK
6
CONTINUOUS
10
1.03718
20
0.812619
11
1.03361
21
0.819287
0
LINE
8
BLACK
6
CONTINUOUS
10
1.03361
20
0.819287
11
1.02882
21
0.825132
0
LINE
8
BLACK
6
CONTINUOUS
10
1.02882
20
0.825132
11
1.02297
21
0.829929
0
LINE
8
BLACK
6
CONTINUOUS
10
1.02297
20
0.829929
11
1.0163
21
0.833494
0
LINE
8
BLACK
6
CONTINUOUS
10
1.0163
20
0.833494
11
1.00907
21
0.835689
0
LINE
8
BLACK
6
CONTINUOUS
10
1.00907
20
0.835689
11
1.00154
21
0.83643
0
LINE
8
BLACK
6
CONTINUOUS
10
1.00154
20
0.83643
11
0.994018
21
0.835689
0
LINE
8
BLACK
6
CONTINUOUS
10
0.994018
20
0.835689
11
0.986783
21
0.833494
0
LINE
8
BLACK
6
CONTINUOUS
10
0.986783
20
0.833494
11
0.980114
21
0.829929
0
LINE
8
BLACK
6
CONTINUOUS
10
0.980114
20
0.829929
11
0.974269
21
0.825132
0
LINE
8
BLACK
6
CONTINUOUS
10
0.974269
20
0.825132
11
0.969472
21
0.819287
0
LINE
8
BLACK
6
CONTINUOUS
10
0.969472
20
0.819287
11
0.965908
21
0.812619
0
LINE
8
BLACK
6
CONTINUOUS
10
0.965908
20
0.812619
11
0.963713
21
0.805383
0
LINE
8
BLACK
6
CONTINUOUS
10
0.963713
20
0.805383
11
0.962972
21
0.797858
0
LINE
8
BLACK
6
CONTINUOUS
10
0.962972
20
0.797858
11
0.963713
21
0.790333
0
LINE
8
BLACK
6
CONTINUOUS
10
1.00942
20
0.929437
11
1.01699
21
0.927141
0
LINE
8
BLACK
6
CONTINUOUS
10
1.01699
20
0.927141
11
1.02396
21
0.923412
0
LINE
8
BLACK
6
CONTINUOUS
10
1.02396
20
0.923412
11
1.03008
21
0.918393
0
LINE
8
BLACK
6
CONTINUOUS
10
1.03008
20
0.918393
11
1.0351
21
0.912278
0
LINE
8
BLACK
6
CONTINUOUS
10
1.0351
20
0.912278
11
1.03883
21
0.905301
0
LINE
8
BLACK
6
CONTINUOUS
10
1.03883
20
0.905301
11
1.04112
21
0.897731
0
LINE
8
BLACK
6
CONTINUOUS
10
1.04112
20
0.897731
11
1.0419
21
0.889858
0
LINE
8
BLACK
6
CONTINUOUS
10
1.0419
20
0.889858
11
1.04112
21
0.881986
0
LINE
8
BLACK
6
CONTINUOUS
10
1.04112
20
0.881986
11
1.03883
21
0.874415
0
LINE
8
BLACK
6
CONTINUOUS
10
1.03883
20
0.874415
11
1.0351
21
0.867439
0
LINE
8
BLACK
6
CONTINUOUS
10
1.0351
20
0.867439
11
1.03008
21
0.861323
0
LINE
8
BLACK
6
CONTINUOUS
10
1.03008
20
0.861323
11
1.02396
21
0.856305
0
LINE
8
BLACK
6
CONTINUOUS
10
1.02396
20
0.856305
11
1.01699
21
0.852576
0
LINE
8
BLACK
6
CONTINUOUS
10
1.01699
20
0.852576
11
1.00942
21
0.850279
0
LINE
8
BLACK
6
CONTINUOUS
10
1.00942
20
0.850279
11
1.00154
21
0.849504
0
LINE
8
BLACK
6
CONTINUOUS
10
1.00154
20
0.849504
11
0.993671
21
0.850279
0
LINE
8
BLACK
6
CONTINUOUS
10
0.993671
20
0.850279
11
0.9861
21
0.852576
0
LINE
8
BLACK
6
CONTINUOUS
10
0.9861
20
0.852576
11
0.979124
21
0.856305
0
LINE
8
BLACK
6
CONTINUOUS
10
0.979124
20
0.856305
11
0.973009
21
0.861323
0
LINE
8
BLACK
6
CONTINUOUS
10
0.973009
20
0.861323
11
0.96799
21
0.867439
0
LINE
8
BLACK
6
CONTINUOUS
10
0.96799
20
0.867439
11
0.964261
21
0.874415
0
LINE
8
BLACK
6
CONTINUOUS
10
0.964261
20
0.874415
11
0.961964
21
0.881986
0
LINE
8
BLACK
6
CONTINUOUS
10
0.961964
20
0.881986
11
0.961189
21
0.889858
0
LINE
8
BLACK
6
CONTINUOUS
10
0.961189
20
0.889858
11
0.961964
21
0.897731
0
LINE
8
BLACK
6
CONTINUOUS
10
0.961964
20
0.897731
11
0.964261
21
0.905301
0
LINE
8
BLACK
6
CONTINUOUS
10
0.964261
20
0.905301
11
0.96799
21
0.912278
0
LINE
8
BLACK
6
CONTINUOUS
10
0.96799
20
0.912278
11
0.973009
21
0.918393
0
LINE
8
BLACK
6
CONTINUOUS
10
0.973009
20
0.918393
11
0.979124
21
0.923412
0
LINE
8
BLACK
6
CONTINUOUS
10
0.979124
20
0.923412
11
0.9861
21
0.927141
0
LINE
8
BLACK
6
CONTINUOUS
10
0.9861
20
0.927141
11
0.993671
21
0.929437
0
LINE
8
BLACK
6
CONTINUOUS
10
0.993671
20
0.929437
11
1.00154
21
0.930213
0
LINE
8
BLACK
6
CONTINUOUS
10
1.00154
20
0.930213
11
1.00942
21
0.929437
0
LINE
8
BLACK
6
CONTINUOUS
10
0.963713
20
0.882333
11
0.965908
21
0.875098
0
LINE
8
BLACK
6
CONTINUOUS
10
0.965908
20
0.875098
11
0.969472
21
0.868429
0
LINE
8
BLACK
6
CONTINUOUS
10
0.969472
20
0.868429
11
0.974269
21
0.862584
0
LINE
8
BLACK
6
CONTINUOUS
10
0.974269
20
0.862584
11
0.980114
21
0.857787
0
LINE
8
BLACK
6
CONTINUOUS
10
0.980114
20
0.857787
11
0.986783
21
0.854223
0
LINE
8
BLACK
6
CONTINUOUS
10
0.986783
20
0.854223
11
0.994018
21
0.852028
0
LINE
8
BLACK
6
CONTINUOUS
10
0.994018
20
0.852028
11
1.00154
21
0.851287
0
LINE
8
BLACK
6
CONTINUOUS
10
1.00154
20
0.851287
11
1.00907
21
0.852028
0
LINE
8
BLACK
6
CONTINUOUS
10
1.00907
20
0.852028
11
1.0163
21
0.854223
0
LINE
8
BLACK
6
CONTINUOUS
10
1.0163
20
0.854223
11
1.02297
21
0.857787
0
LINE
8
BLACK
6
CONTINUOUS
10
1.02297
20
0.857787
11
1.02882
21
0.862584
0
LINE
8
BLACK
6
CONTINUOUS
10
1.02882
20
0.862584
11
1.03361
21
0.868429
0
LINE
8
BLACK
6
CONTINUOUS
10
1.03361
20
0.868429
11
1.03718
21
0.875098
0
LINE
8
BLACK
6
CONTINUOUS
10
1.03718
20
0.875098
11
1.03937
21
0.882333
0
LINE
8
BLACK
6
CONTINUOUS
10
1.03937
20
0.882333
11
1.04011
21
0.889858
0
LINE
8
BLACK
6
CONTINUOUS
10
1.04011
20
0.889858
11
1.03937
21
0.897383
0
LINE
8
BLACK
6
CONTINUOUS
10
1.03937
20
0.897383
11
1.03718
21
0.904619
0
LINE
8
BLACK
6
CONTINUOUS
10
1.03718
20
0.904619
11
1.03361
21
0.911287
0
LINE
8
BLACK
6
CONTINUOUS
10
1.03361
20
0.911287
11
1.02882
21
0.917132
0
LINE
8
BLACK
6
CONTINUOUS
10
1.02882
20
0.917132
11
1.02297
21
0.921929
0
LINE
8
BLACK
6
CONTINUOUS
10
1.02297
20
0.921929
11
1.0163
21
0.925494
0
LINE
8
BLACK
6
CONTINUOUS
10
1.0163
20
0.925494
11
1.00907
21
0.927689
0
LINE
8
BLACK
6
CONTINUOUS
10
1.00907
20
0.927689
11
1.00154
21
0.92843
0
LINE
8
BLACK
6
CONTINUOUS
10
1.00154
20
0.92843
11
0.994018
21
0.927689
0
LINE
8
BLACK
6
CONTINUOUS
10
0.994018
20
0.927689
11
0.986783
21
0.925494
0
LINE
8
BLACK
6
CONTINUOUS
10
0.986783
20
0.925494
11
0.980114
21
0.921929
0
LINE
8
BLACK
6
CONTINUOUS
10
0.980114
20
0.921929
11
0.974269
21
0.917132
0
LINE
8
BLACK
6
CONTINUOUS
10
0.974269
20
0.917132
11
0.969472
21
0.911287
0
LINE
8
BLACK
6
CONTINUOUS
10
0.969472
20
0.911287
11
0.965908
21
0.904619
0
LINE
8
BLACK
6
CONTINUOUS
10
0.965908
20
0.904619
11
0.963713
21
0.897383
0
LINE
8
BLACK
6
CONTINUOUS
10
0.963713
20
0.897383
11
0.962972
21
0.889858
0
LINE
8
BLACK
6
CONTINUOUS
10
0.962972
20
0.889858
11
0.963713
21
0.882333
  0
ENDSEC
  0
EOF
