  0
SECTION
  2
HEADER
  9
$ANGBASE
  50
0.0
  9
$ANGDIR
  70
1
  9
$MEASUREMENT
  70
0
  0
ENDSEC
  0
SECTION
  2
TABLES
  0
TABLE
  2
LTYPE
  70
4
  0
LTYPE
  5
40F
  2
CONTINUOUS
  70
0
  3
Solid line
  72
65
  73
0
  40
0.0
  0
LTYPE
  5
410
  2
DASHDOT
 70
0
  3
Dash Dot ____ _ ____ _
 72
65
 73
4
 40
2.0
 49
1.25
 49
-0.25
 49
0.25
 49
-0.25
  0
LTYPE
  5
411
  2
DASHED
 70
0
  3
Dashed __ __ __ __ __
 72
65
 73
2
 40
0.75
 49
0.5
 49
-0.25
  0
LTYPE
  5
43B
  2
DOTTED
 70
0
  3
Dotted .  .  .  .
 72
65
 73
2
 40
0.2
 49
0.0
 49
-0.2
  0
ENDTAB
  0
TABLE
  2
STYLE
  70
4
  0
STYLE
  2
KICAD
  70
0
  40
0
  41
1
  42
1
  50
0
  71
0
  3
isocp.shx
  0
STYLE
  2
KICADB
  70
0
  40
0
  41
1
  42
1
  50
0
  71
0
  3
isocp.shx
  0
STYLE
  2
KICADI
  70
0
  40
0
  41
1
  42
1
  50
15
  71
0
  3
isocp.shx
  0
STYLE
  2
KICADBI
  70
0
  40
0
  41
1
  42
1
  50
15
  71
0
  3
isocp.shx
  0
ENDTAB
  0
TABLE
  2
LAYER
  70
1
  0
LAYER
  2
BLACK
  70
0
  62
7
  6
CONTINUOUS
  0
ENDTAB
  0
ENDSEC
  0
SECTION
  2
ENTITIES
0
LINE
8
BLACK
6
CONTINUOUS
10
0.413577
20
0.520497
11
0.426983
21
0.51822
0
LINE
8
BLACK
6
CONTINUOUS
10
0.426983
20
0.51822
11
0.44005
21
0.514455
0
LINE
8
BLACK
6
CONTINUOUS
10
0.44005
20
0.514455
11
0.452613
21
0.509251
0
LINE
8
BLACK
6
CONTINUOUS
10
0.452613
20
0.509251
11
0.464514
21
0.502674
0
LINE
8
BLACK
6
CONTINUOUS
10
0.464514
20
0.502674
11
0.475604
21
0.494805
0
LINE
8
BLACK
6
CONTINUOUS
10
0.475604
20
0.494805
11
0.485744
21
0.485744
0
LINE
8
BLACK
6
CONTINUOUS
10
0.485744
20
0.485744
11
0.494805
21
0.475604
0
LINE
8
BLACK
6
CONTINUOUS
10
0.494805
20
0.475604
11
0.502674
21
0.464514
0
LINE
8
BLACK
6
CONTINUOUS
10
0.502674
20
0.464514
11
0.509251
21
0.452613
0
LINE
8
BLACK
6
CONTINUOUS
10
0.509251
20
0.452613
11
0.514455
21
0.44005
0
LINE
8
BLACK
6
CONTINUOUS
10
0.514455
20
0.44005
11
0.51822
21
0.426983
0
LINE
8
BLACK
6
CONTINUOUS
10
0.51822
20
0.426983
11
0.520497
21
0.413577
0
LINE
8
BLACK
6
CONTINUOUS
10
0.520497
20
0.413577
11
0.52126
21
0.4
0
LINE
8
BLACK
6
CONTINUOUS
10
0.52126
20
0.4
11
0.520497
21
0.386423
0
LINE
8
BLACK
6
CONTINUOUS
10
0.520497
20
0.386423
11
0.51822
21
0.373017
0
LINE
8
BLACK
6
CONTINUOUS
10
0.51822
20
0.373017
11
0.514455
21
0.35995
0
LINE
8
BLACK
6
CONTINUOUS
10
0.514455
20
0.35995
11
0.509251
21
0.347387
0
LINE
8
BLACK
6
CONTINUOUS
10
0.509251
20
0.347387
11
0.502674
21
0.335486
0
LINE
8
BLACK
6
CONTINUOUS
10
0.502674
20
0.335486
11
0.494805
21
0.324396
0
LINE
8
BLACK
6
CONTINUOUS
10
0.494805
20
0.324396
11
0.485744
21
0.314256
0
LINE
8
BLACK
6
CONTINUOUS
10
0.485744
20
0.314256
11
0.475604
21
0.305195
0
LINE
8
BLACK
6
CONTINUOUS
10
0.475604
20
0.305195
11
0.464514
21
0.297326
0
LINE
8
BLACK
6
CONTINUOUS
10
0.464514
20
0.297326
11
0.452613
21
0.290749
0
LINE
8
BLACK
6
CONTINUOUS
10
0.452613
20
0.290749
11
0.44005
21
0.285545
0
LINE
8
BLACK
6
CONTINUOUS
10
0.44005
20
0.285545
11
0.426983
21
0.28178
0
LINE
8
BLACK
6
CONTINUOUS
10
0.426983
20
0.28178
11
0.413577
21
0.279503
0
LINE
8
BLACK
6
CONTINUOUS
10
0.413577
20
0.279503
11
0.4
21
0.27874
0
LINE
8
BLACK
6
CONTINUOUS
10
0.4
20
0.27874
11
0.386423
21
0.279503
0
LINE
8
BLACK
6
CONTINUOUS
10
0.386423
20
0.279503
11
0.373017
21
0.28178
0
LINE
8
BLACK
6
CONTINUOUS
10
0.373017
20
0.28178
11
0.35995
21
0.285545
0
LINE
8
BLACK
6
CONTINUOUS
10
0.35995
20
0.285545
11
0.347387
21
0.290749
0
LINE
8
BLACK
6
CONTINUOUS
10
0.347387
20
0.290749
11
0.335486
21
0.297326
0
LINE
8
BLACK
6
CONTINUOUS
10
0.335486
20
0.297326
11
0.324396
21
0.305195
0
LINE
8
BLACK
6
CONTINUOUS
10
0.324396
20
0.305195
11
0.314256
21
0.314256
0
LINE
8
BLACK
6
CONTINUOUS
10
0.314256
20
0.314256
11
0.305195
21
0.324396
0
LINE
8
BLACK
6
CONTINUOUS
10
0.305195
20
0.324396
11
0.297326
21
0.335486
0
LINE
8
BLACK
6
CONTINUOUS
10
0.297326
20
0.335486
11
0.290749
21
0.347387
0
LINE
8
BLACK
6
CONTINUOUS
10
0.290749
20
0.347387
11
0.285545
21
0.35995
0
LINE
8
BLACK
6
CONTINUOUS
10
0.285545
20
0.35995
11
0.28178
21
0.373017
0
LINE
8
BLACK
6
CONTINUOUS
10
0.28178
20
0.373017
11
0.279503
21
0.386423
0
LINE
8
BLACK
6
CONTINUOUS
10
0.279503
20
0.386423
11
0.27874
21
0.4
0
LINE
8
BLACK
6
CONTINUOUS
10
0.27874
20
0.4
11
0.279503
21
0.413577
0
LINE
8
BLACK
6
CONTINUOUS
10
0.279503
20
0.413577
11
0.28178
21
0.426983
0
LINE
8
BLACK
6
CONTINUOUS
10
0.28178
20
0.426983
11
0.285545
21
0.44005
0
LINE
8
BLACK
6
CONTINUOUS
10
0.285545
20
0.44005
11
0.290749
21
0.452613
0
LINE
8
BLACK
6
CONTINUOUS
10
0.290749
20
0.452613
11
0.297326
21
0.464514
0
LINE
8
BLACK
6
CONTINUOUS
10
0.297326
20
0.464514
11
0.305195
21
0.475604
0
LINE
8
BLACK
6
CONTINUOUS
10
0.305195
20
0.475604
11
0.314256
21
0.485744
0
LINE
8
BLACK
6
CONTINUOUS
10
0.314256
20
0.485744
11
0.324396
21
0.494805
0
LINE
8
BLACK
6
CONTINUOUS
10
0.324396
20
0.494805
11
0.335486
21
0.502674
0
LINE
8
BLACK
6
CONTINUOUS
10
0.335486
20
0.502674
11
0.347387
21
0.509251
0
LINE
8
BLACK
6
CONTINUOUS
10
0.347387
20
0.509251
11
0.35995
21
0.514455
0
LINE
8
BLACK
6
CONTINUOUS
10
0.35995
20
0.514455
11
0.373017
21
0.51822
0
LINE
8
BLACK
6
CONTINUOUS
10
0.373017
20
0.51822
11
0.386423
21
0.520497
0
LINE
8
BLACK
6
CONTINUOUS
10
0.386423
20
0.520497
11
0.4
21
0.52126
0
LINE
8
BLACK
6
CONTINUOUS
10
0.4
20
0.52126
11
0.413577
21
0.520497
0
LINE
8
BLACK
6
CONTINUOUS
10
2.75276
20
1.60922
11
2.75456
21
1.60715
0
LINE
8
BLACK
6
CONTINUOUS
10
2.75456
20
1.60715
11
2.755
21
1.60512
0
LINE
8
BLACK
6
CONTINUOUS
10
2.755
20
1.60512
11
2.755
21
0.512405
0
LINE
8
BLACK
6
CONTINUOUS
10
2.755
20
0.512405
11
2.75995
21
0.514455
0
LINE
8
BLACK
6
CONTINUOUS
10
2.75995
20
0.514455
11
2.77302
21
0.51822
0
LINE
8
BLACK
6
CONTINUOUS
10
2.77302
20
0.51822
11
2.78642
21
0.520497
0
LINE
8
BLACK
6
CONTINUOUS
10
2.78642
20
0.520497
11
2.8
21
0.52126
0
LINE
8
BLACK
6
CONTINUOUS
10
2.8
20
0.52126
11
2.81358
21
0.520497
0
LINE
8
BLACK
6
CONTINUOUS
10
2.81358
20
0.520497
11
2.82698
21
0.51822
0
LINE
8
BLACK
6
CONTINUOUS
10
2.82698
20
0.51822
11
2.84005
21
0.514455
0
LINE
8
BLACK
6
CONTINUOUS
10
2.84005
20
0.514455
11
2.85261
21
0.509251
0
LINE
8
BLACK
6
CONTINUOUS
10
2.85261
20
0.509251
11
2.86451
21
0.502674
0
LINE
8
BLACK
6
CONTINUOUS
10
2.86451
20
0.502674
11
2.8756
21
0.494805
0
LINE
8
BLACK
6
CONTINUOUS
10
2.8756
20
0.494805
11
2.88574
21
0.485744
0
LINE
8
BLACK
6
CONTINUOUS
10
2.88574
20
0.485744
11
2.8948
21
0.475604
0
LINE
8
BLACK
6
CONTINUOUS
10
2.8948
20
0.475604
11
2.90267
21
0.464514
0
LINE
8
BLACK
6
CONTINUOUS
10
2.90267
20
0.464514
11
2.90925
21
0.452613
0
LINE
8
BLACK
6
CONTINUOUS
10
2.90925
20
0.452613
11
2.91446
21
0.44005
0
LINE
8
BLACK
6
CONTINUOUS
10
2.91446
20
0.44005
11
2.91822
21
0.426983
0
LINE
8
BLACK
6
CONTINUOUS
10
2.91822
20
0.426983
11
2.9205
21
0.413577
0
LINE
8
BLACK
6
CONTINUOUS
10
2.9205
20
0.413577
11
2.92126
21
0.4
0
LINE
8
BLACK
6
CONTINUOUS
10
2.92126
20
0.4
11
2.9205
21
0.386423
0
LINE
8
BLACK
6
CONTINUOUS
10
2.9205
20
0.386423
11
2.91822
21
0.373017
0
LINE
8
BLACK
6
CONTINUOUS
10
2.91822
20
0.373017
11
2.91446
21
0.35995
0
LINE
8
BLACK
6
CONTINUOUS
10
2.91446
20
0.35995
11
2.90925
21
0.347387
0
LINE
8
BLACK
6
CONTINUOUS
10
2.90925
20
0.347387
11
2.90267
21
0.335486
0
LINE
8
BLACK
6
CONTINUOUS
10
2.90267
20
0.335486
11
2.8948
21
0.324396
0
LINE
8
BLACK
6
CONTINUOUS
10
2.8948
20
0.324396
11
2.88574
21
0.314256
0
LINE
8
BLACK
6
CONTINUOUS
10
2.88574
20
0.314256
11
2.8756
21
0.305195
0
LINE
8
BLACK
6
CONTINUOUS
10
2.8756
20
0.305195
11
2.86451
21
0.297326
0
LINE
8
BLACK
6
CONTINUOUS
10
2.86451
20
0.297326
11
2.85261
21
0.290749
0
LINE
8
BLACK
6
CONTINUOUS
10
2.85261
20
0.290749
11
2.84005
21
0.285545
0
LINE
8
BLACK
6
CONTINUOUS
10
2.84005
20
0.285545
11
2.82698
21
0.28178
0
LINE
8
BLACK
6
CONTINUOUS
10
2.82698
20
0.28178
11
2.81358
21
0.279503
0
LINE
8
BLACK
6
CONTINUOUS
10
2.81358
20
0.279503
11
2.8
21
0.27874
0
LINE
8
BLACK
6
CONTINUOUS
10
2.8
20
0.27874
11
2.78642
21
0.279503
0
LINE
8
BLACK
6
CONTINUOUS
10
2.78642
20
0.279503
11
2.77302
21
0.28178
0
LINE
8
BLACK
6
CONTINUOUS
10
2.77302
20
0.28178
11
2.75995
21
0.285545
0
LINE
8
BLACK
6
CONTINUOUS
10
2.75995
20
0.285545
11
2.74739
21
0.290749
0
LINE
8
BLACK
6
CONTINUOUS
10
2.74739
20
0.290749
11
2.73549
21
0.297326
0
LINE
8
BLACK
6
CONTINUOUS
10
2.73549
20
0.297326
11
2.7244
21
0.305195
0
LINE
8
BLACK
6
CONTINUOUS
10
2.7244
20
0.305195
11
2.71426
21
0.314256
0
LINE
8
BLACK
6
CONTINUOUS
10
2.71426
20
0.314256
11
2.7052
21
0.324396
0
LINE
8
BLACK
6
CONTINUOUS
10
2.7052
20
0.324396
11
2.69733
21
0.335486
0
LINE
8
BLACK
6
CONTINUOUS
10
2.69733
20
0.335486
11
2.69075
21
0.347387
0
LINE
8
BLACK
6
CONTINUOUS
10
2.69075
20
0.347387
11
2.68554
21
0.35995
0
LINE
8
BLACK
6
CONTINUOUS
10
2.68554
20
0.35995
11
2.68178
21
0.373017
0
LINE
8
BLACK
6
CONTINUOUS
10
2.68178
20
0.373017
11
2.6795
21
0.386423
0
LINE
8
BLACK
6
CONTINUOUS
10
2.6795
20
0.386423
11
2.67874
21
0.4
0
LINE
8
BLACK
6
CONTINUOUS
10
2.67874
20
0.4
11
2.6795
21
0.413577
0
LINE
8
BLACK
6
CONTINUOUS
10
2.6795
20
0.413577
11
2.68059
21
0.42
0
LINE
8
BLACK
6
CONTINUOUS
10
2.68059
20
0.42
11
1.06488
21
0.42
0
LINE
8
BLACK
6
CONTINUOUS
10
1.06488
20
0.42
11
1.06224
21
0.420775
0
LINE
8
BLACK
6
CONTINUOUS
10
1.06224
20
0.420775
11
1.06044
21
0.422854
0
LINE
8
BLACK
6
CONTINUOUS
10
1.06044
20
0.422854
11
1.06
21
0.424882
0
LINE
8
BLACK
6
CONTINUOUS
10
1.06
20
0.424882
11
1.06
21
1.60512
0
LINE
8
BLACK
6
CONTINUOUS
10
1.06
20
1.60512
11
1.06078
21
1.60776
0
LINE
8
BLACK
6
CONTINUOUS
10
1.06078
20
1.60776
11
1.06285
21
1.60956
0
LINE
8
BLACK
6
CONTINUOUS
10
1.06285
20
1.60956
11
1.06488
21
1.61
0
LINE
8
BLACK
6
CONTINUOUS
10
1.06488
20
1.61
11
2.75012
21
1.61
0
LINE
8
BLACK
6
CONTINUOUS
10
2.75012
20
1.61
11
2.75276
21
1.60922
0
LINE
8
BLACK
6
CONTINUOUS
10
1.01745
20
0.671915
11
1.02296
21
0.669634
0
LINE
8
BLACK
6
CONTINUOUS
10
1.02296
20
0.669634
11
1.02769
21
0.666005
0
LINE
8
BLACK
6
CONTINUOUS
10
1.02769
20
0.666005
11
1.03132
21
0.661276
0
LINE
8
BLACK
6
CONTINUOUS
10
1.03132
20
0.661276
11
1.0336
21
0.655768
0
LINE
8
BLACK
6
CONTINUOUS
10
1.0336
20
0.655768
11
1.03438
21
0.649858
0
LINE
8
BLACK
6
CONTINUOUS
10
1.03438
20
0.649858
11
1.0336
21
0.643948
0
LINE
8
BLACK
6
CONTINUOUS
10
1.0336
20
0.643948
11
1.03132
21
0.638441
0
LINE
8
BLACK
6
CONTINUOUS
10
1.03132
20
0.638441
11
1.02769
21
0.633712
0
LINE
8
BLACK
6
CONTINUOUS
10
1.02769
20
0.633712
11
1.02296
21
0.630083
0
LINE
8
BLACK
6
CONTINUOUS
10
1.02296
20
0.630083
11
1.01745
21
0.627802
0
LINE
8
BLACK
6
CONTINUOUS
10
1.01745
20
0.627802
11
1.01154
21
0.627024
0
LINE
8
BLACK
6
CONTINUOUS
10
1.01154
20
0.627024
11
1.00563
21
0.627802
0
LINE
8
BLACK
6
CONTINUOUS
10
1.00563
20
0.627802
11
1.00013
21
0.630083
0
LINE
8
BLACK
6
CONTINUOUS
10
1.00013
20
0.630083
11
0.995397
21
0.633712
0
LINE
8
BLACK
6
CONTINUOUS
10
0.995397
20
0.633712
11
0.991768
21
0.638441
0
LINE
8
BLACK
6
CONTINUOUS
10
0.991768
20
0.638441
11
0.989487
21
0.643948
0
LINE
8
BLACK
6
CONTINUOUS
10
0.989487
20
0.643948
11
0.988709
21
0.649858
0
LINE
8
BLACK
6
CONTINUOUS
10
0.988709
20
0.649858
11
0.989487
21
0.655768
0
LINE
8
BLACK
6
CONTINUOUS
10
0.989487
20
0.655768
11
0.991768
21
0.661276
0
LINE
8
BLACK
6
CONTINUOUS
10
0.991768
20
0.661276
11
0.995397
21
0.666005
0
LINE
8
BLACK
6
CONTINUOUS
10
0.995397
20
0.666005
11
1.00013
21
0.669634
0
LINE
8
BLACK
6
CONTINUOUS
10
1.00013
20
0.669634
11
1.00563
21
0.671915
0
LINE
8
BLACK
6
CONTINUOUS
10
1.00563
20
0.671915
11
1.01154
21
0.672693
0
LINE
8
BLACK
6
CONTINUOUS
10
1.01154
20
0.672693
11
1.01745
21
0.671915
0
LINE
8
BLACK
6
CONTINUOUS
10
1.00745
20
0.819915
11
1.01296
21
0.817634
0
LINE
8
BLACK
6
CONTINUOUS
10
1.01296
20
0.817634
11
1.01769
21
0.814005
0
LINE
8
BLACK
6
CONTINUOUS
10
1.01769
20
0.814005
11
1.02132
21
0.809276
0
LINE
8
BLACK
6
CONTINUOUS
10
1.02132
20
0.809276
11
1.0236
21
0.803768
0
LINE
8
BLACK
6
CONTINUOUS
10
1.0236
20
0.803768
11
1.02438
21
0.797858
0
LINE
8
BLACK
6
CONTINUOUS
10
1.02438
20
0.797858
11
1.0236
21
0.791948
0
LINE
8
BLACK
6
CONTINUOUS
10
1.0236
20
0.791948
11
1.02132
21
0.786441
0
LINE
8
BLACK
6
CONTINUOUS
10
1.02132
20
0.786441
11
1.01769
21
0.781712
0
LINE
8
BLACK
6
CONTINUOUS
10
1.01769
20
0.781712
11
1.01296
21
0.778083
0
LINE
8
BLACK
6
CONTINUOUS
10
1.01296
20
0.778083
11
1.00745
21
0.775802
0
LINE
8
BLACK
6
CONTINUOUS
10
1.00745
20
0.775802
11
1.00154
21
0.775024
0
LINE
8
BLACK
6
CONTINUOUS
10
1.00154
20
0.775024
11
0.995633
21
0.775802
0
LINE
8
BLACK
6
CONTINUOUS
10
0.995633
20
0.775802
11
0.990126
21
0.778083
0
LINE
8
BLACK
6
CONTINUOUS
10
0.990126
20
0.778083
11
0.985397
21
0.781712
0
LINE
8
BLACK
6
CONTINUOUS
10
0.985397
20
0.781712
11
0.981768
21
0.786441
0
LINE
8
BLACK
6
CONTINUOUS
10
0.981768
20
0.786441
11
0.979487
21
0.791948
0
LINE
8
BLACK
6
CONTINUOUS
10
0.979487
20
0.791948
11
0.978709
21
0.797858
0
LINE
8
BLACK
6
CONTINUOUS
10
0.978709
20
0.797858
11
0.979487
21
0.803768
0
LINE
8
BLACK
6
CONTINUOUS
10
0.979487
20
0.803768
11
0.981768
21
0.809276
0
LINE
8
BLACK
6
CONTINUOUS
10
0.981768
20
0.809276
11
0.985397
21
0.814005
0
LINE
8
BLACK
6
CONTINUOUS
10
0.985397
20
0.814005
11
0.990126
21
0.817634
0
LINE
8
BLACK
6
CONTINUOUS
10
0.990126
20
0.817634
11
0.995633
21
0.819915
0
LINE
8
BLACK
6
CONTINUOUS
10
0.995633
20
0.819915
11
1.00154
21
0.820693
0
LINE
8
BLACK
6
CONTINUOUS
10
1.00154
20
0.820693
11
1.00745
21
0.819915
0
LINE
8
BLACK
6
CONTINUOUS
10
1.00745
20
0.911915
11
1.01296
21
0.909634
0
LINE
8
BLACK
6
CONTINUOUS
10
1.01296
20
0.909634
11
1.01769
21
0.906005
0
LINE
8
BLACK
6
CONTINUOUS
10
1.01769
20
0.906005
11
1.02132
21
0.901276
0
LINE
8
BLACK
6
CONTINUOUS
10
1.02132
20
0.901276
11
1.0236
21
0.895768
0
LINE
8
BLACK
6
CONTINUOUS
10
1.0236
20
0.895768
11
1.02438
21
0.889858
0
LINE
8
BLACK
6
CONTINUOUS
10
1.02438
20
0.889858
11
1.0236
21
0.883948
0
LINE
8
BLACK
6
CONTINUOUS
10
1.0236
20
0.883948
11
1.02132
21
0.878441
0
LINE
8
BLACK
6
CONTINUOUS
10
1.02132
20
0.878441
11
1.01769
21
0.873712
0
LINE
8
BLACK
6
CONTINUOUS
10
1.01769
20
0.873712
11
1.01296
21
0.870083
0
LINE
8
BLACK
6
CONTINUOUS
10
1.01296
20
0.870083
11
1.00745
21
0.867802
0
LINE
8
BLACK
6
CONTINUOUS
10
1.00745
20
0.867802
11
1.00154
21
0.867024
0
LINE
8
BLACK
6
CONTINUOUS
10
1.00154
20
0.867024
11
0.995633
21
0.867802
0
LINE
8
BLACK
6
CONTINUOUS
10
0.995633
20
0.867802
11
0.990126
21
0.870083
0
LINE
8
BLACK
6
CONTINUOUS
10
0.990126
20
0.870083
11
0.985397
21
0.873712
0
LINE
8
BLACK
6
CONTINUOUS
10
0.985397
20
0.873712
11
0.981768
21
0.878441
0
LINE
8
BLACK
6
CONTINUOUS
10
0.981768
20
0.878441
11
0.979487
21
0.883948
0
LINE
8
BLACK
6
CONTINUOUS
10
0.979487
20
0.883948
11
0.978709
21
0.889858
0
LINE
8
BLACK
6
CONTINUOUS
10
0.978709
20
0.889858
11
0.979487
21
0.895768
0
LINE
8
BLACK
6
CONTINUOUS
10
0.979487
20
0.895768
11
0.981768
21
0.901276
0
LINE
8
BLACK
6
CONTINUOUS
10
0.981768
20
0.901276
11
0.985397
21
0.906005
0
LINE
8
BLACK
6
CONTINUOUS
10
0.985397
20
0.906005
11
0.990126
21
0.909634
0
LINE
8
BLACK
6
CONTINUOUS
10
0.990126
20
0.909634
11
0.995633
21
0.911915
0
LINE
8
BLACK
6
CONTINUOUS
10
0.995633
20
0.911915
11
1.00154
21
0.912693
0
LINE
8
BLACK
6
CONTINUOUS
10
1.00154
20
0.912693
11
1.00745
21
0.911915
0
LINE
8
BLACK
6
CONTINUOUS
10
0.413577
20
2.1205
11
0.426983
21
2.11822
0
LINE
8
BLACK
6
CONTINUOUS
10
0.426983
20
2.11822
11
0.44005
21
2.11446
0
LINE
8
BLACK
6
CONTINUOUS
10
0.44005
20
2.11446
11
0.452613
21
2.10925
0
LINE
8
BLACK
6
CONTINUOUS
10
0.452613
20
2.10925
11
0.464514
21
2.10267
0
LINE
8
BLACK
6
CONTINUOUS
10
0.464514
20
2.10267
11
0.475604
21
2.0948
0
LINE
8
BLACK
6
CONTINUOUS
10
0.475604
20
2.0948
11
0.485744
21
2.08574
0
LINE
8
BLACK
6
CONTINUOUS
10
0.485744
20
2.08574
11
0.494805
21
2.0756
0
LINE
8
BLACK
6
CONTINUOUS
10
0.494805
20
2.0756
11
0.502674
21
2.06451
0
LINE
8
BLACK
6
CONTINUOUS
10
0.502674
20
2.06451
11
0.509251
21
2.05261
0
LINE
8
BLACK
6
CONTINUOUS
10
0.509251
20
2.05261
11
0.514455
21
2.04005
0
LINE
8
BLACK
6
CONTINUOUS
10
0.514455
20
2.04005
11
0.51822
21
2.02698
0
LINE
8
BLACK
6
CONTINUOUS
10
0.51822
20
2.02698
11
0.520497
21
2.01358
0
LINE
8
BLACK
6
CONTINUOUS
10
0.520497
20
2.01358
11
0.52126
21
2
0
LINE
8
BLACK
6
CONTINUOUS
10
0.52126
20
2
11
0.520497
21
1.98642
0
LINE
8
BLACK
6
CONTINUOUS
10
0.520497
20
1.98642
11
0.51822
21
1.97302
0
LINE
8
BLACK
6
CONTINUOUS
10
0.51822
20
1.97302
11
0.514455
21
1.95995
0
LINE
8
BLACK
6
CONTINUOUS
10
0.514455
20
1.95995
11
0.509251
21
1.94739
0
LINE
8
BLACK
6
CONTINUOUS
10
0.509251
20
1.94739
11
0.502674
21
1.93549
0
LINE
8
BLACK
6
CONTINUOUS
10
0.502674
20
1.93549
11
0.494805
21
1.9244
0
LINE
8
BLACK
6
CONTINUOUS
10
0.494805
20
1.9244
11
0.485744
21
1.91426
0
LINE
8
BLACK
6
CONTINUOUS
10
0.485744
20
1.91426
11
0.475604
21
1.9052
0
LINE
8
BLACK
6
CONTINUOUS
10
0.475604
20
1.9052
11
0.464514
21
1.89733
0
LINE
8
BLACK
6
CONTINUOUS
10
0.464514
20
1.89733
11
0.452613
21
1.89075
0
LINE
8
BLACK
6
CONTINUOUS
10
0.452613
20
1.89075
11
0.44005
21
1.88554
0
LINE
8
BLACK
6
CONTINUOUS
10
0.44005
20
1.88554
11
0.426983
21
1.88178
0
LINE
8
BLACK
6
CONTINUOUS
10
0.426983
20
1.88178
11
0.413577
21
1.8795
0
LINE
8
BLACK
6
CONTINUOUS
10
0.413577
20
1.8795
11
0.4
21
1.87874
0
LINE
8
BLACK
6
CONTINUOUS
10
0.4
20
1.87874
11
0.386423
21
1.8795
0
LINE
8
BLACK
6
CONTINUOUS
10
0.386423
20
1.8795
11
0.373017
21
1.88178
0
LINE
8
BLACK
6
CONTINUOUS
10
0.373017
20
1.88178
11
0.35995
21
1.88554
0
LINE
8
BLACK
6
CONTINUOUS
10
0.35995
20
1.88554
11
0.347387
21
1.89075
0
LINE
8
BLACK
6
CONTINUOUS
10
0.347387
20
1.89075
11
0.335486
21
1.89733
0
LINE
8
BLACK
6
CONTINUOUS
10
0.335486
20
1.89733
11
0.324396
21
1.9052
0
LINE
8
BLACK
6
CONTINUOUS
10
0.324396
20
1.9052
11
0.314256
21
1.91426
0
LINE
8
BLACK
6
CONTINUOUS
10
0.314256
20
1.91426
11
0.305195
21
1.9244
0
LINE
8
BLACK
6
CONTINUOUS
10
0.305195
20
1.9244
11
0.297326
21
1.93549
0
LINE
8
BLACK
6
CONTINUOUS
10
0.297326
20
1.93549
11
0.290749
21
1.94739
0
LINE
8
BLACK
6
CONTINUOUS
10
0.290749
20
1.94739
11
0.285545
21
1.95995
0
LINE
8
BLACK
6
CONTINUOUS
10
0.285545
20
1.95995
11
0.28178
21
1.97302
0
LINE
8
BLACK
6
CONTINUOUS
10
0.28178
20
1.97302
11
0.279503
21
1.98642
0
LINE
8
BLACK
6
CONTINUOUS
10
0.279503
20
1.98642
11
0.27874
21
2
0
LINE
8
BLACK
6
CONTINUOUS
10
0.27874
20
2
11
0.279503
21
2.01358
0
LINE
8
BLACK
6
CONTINUOUS
10
0.279503
20
2.01358
11
0.28178
21
2.02698
0
LINE
8
BLACK
6
CONTINUOUS
10
0.28178
20
2.02698
11
0.285545
21
2.04005
0
LINE
8
BLACK
6
CONTINUOUS
10
0.285545
20
2.04005
11
0.290749
21
2.05261
0
LINE
8
BLACK
6
CONTINUOUS
10
0.290749
20
2.05261
11
0.297326
21
2.06451
0
LINE
8
BLACK
6
CONTINUOUS
10
0.297326
20
2.06451
11
0.305195
21
2.0756
0
LINE
8
BLACK
6
CONTINUOUS
10
0.305195
20
2.0756
11
0.314256
21
2.08574
0
LINE
8
BLACK
6
CONTINUOUS
10
0.314256
20
2.08574
11
0.324396
21
2.0948
0
LINE
8
BLACK
6
CONTINUOUS
10
0.324396
20
2.0948
11
0.335486
21
2.10267
0
LINE
8
BLACK
6
CONTINUOUS
10
0.335486
20
2.10267
11
0.347387
21
2.10925
0
LINE
8
BLACK
6
CONTINUOUS
10
0.347387
20
2.10925
11
0.35995
21
2.11446
0
LINE
8
BLACK
6
CONTINUOUS
10
0.35995
20
2.11446
11
0.373017
21
2.11822
0
LINE
8
BLACK
6
CONTINUOUS
10
0.373017
20
2.11822
11
0.386423
21
2.1205
0
LINE
8
BLACK
6
CONTINUOUS
10
0.386423
20
2.1205
11
0.4
21
2.12126
0
LINE
8
BLACK
6
CONTINUOUS
10
0.4
20
2.12126
11
0.413577
21
2.1205
0
LINE
8
BLACK
6
CONTINUOUS
10
2.81358
20
2.1205
11
2.82698
21
2.11822
0
LINE
8
BLACK
6
CONTINUOUS
10
2.82698
20
2.11822
11
2.84005
21
2.11446
0
LINE
8
BLACK
6
CONTINUOUS
10
2.84005
20
2.11446
11
2.85261
21
2.10925
0
LINE
8
BLACK
6
CONTINUOUS
10
2.85261
20
2.10925
11
2.86451
21
2.10267
0
LINE
8
BLACK
6
CONTINUOUS
10
2.86451
20
2.10267
11
2.8756
21
2.0948
0
LINE
8
BLACK
6
CONTINUOUS
10
2.8756
20
2.0948
11
2.88574
21
2.08574
0
LINE
8
BLACK
6
CONTINUOUS
10
2.88574
20
2.08574
11
2.8948
21
2.0756
0
LINE
8
BLACK
6
CONTINUOUS
10
2.8948
20
2.0756
11
2.90267
21
2.06451
0
LINE
8
BLACK
6
CONTINUOUS
10
2.90267
20
2.06451
11
2.90925
21
2.05261
0
LINE
8
BLACK
6
CONTINUOUS
10
2.90925
20
2.05261
11
2.91446
21
2.04005
0
LINE
8
BLACK
6
CONTINUOUS
10
2.91446
20
2.04005
11
2.91822
21
2.02698
0
LINE
8
BLACK
6
CONTINUOUS
10
2.91822
20
2.02698
11
2.9205
21
2.01358
0
LINE
8
BLACK
6
CONTINUOUS
10
2.9205
20
2.01358
11
2.92126
21
2
0
LINE
8
BLACK
6
CONTINUOUS
10
2.92126
20
2
11
2.9205
21
1.98642
0
LINE
8
BLACK
6
CONTINUOUS
10
2.9205
20
1.98642
11
2.91822
21
1.97302
0
LINE
8
BLACK
6
CONTINUOUS
10
2.91822
20
1.97302
11
2.91446
21
1.95995
0
LINE
8
BLACK
6
CONTINUOUS
10
2.91446
20
1.95995
11
2.90925
21
1.94739
0
LINE
8
BLACK
6
CONTINUOUS
10
2.90925
20
1.94739
11
2.90267
21
1.93549
0
LINE
8
BLACK
6
CONTINUOUS
10
2.90267
20
1.93549
11
2.8948
21
1.9244
0
LINE
8
BLACK
6
CONTINUOUS
10
2.8948
20
1.9244
11
2.88574
21
1.91426
0
LINE
8
BLACK
6
CONTINUOUS
10
2.88574
20
1.91426
11
2.8756
21
1.9052
0
LINE
8
BLACK
6
CONTINUOUS
10
2.8756
20
1.9052
11
2.86451
21
1.89733
0
LINE
8
BLACK
6
CONTINUOUS
10
2.86451
20
1.89733
11
2.85261
21
1.89075
0
LINE
8
BLACK
6
CONTINUOUS
10
2.85261
20
1.89075
11
2.84005
21
1.88554
0
LINE
8
BLACK
6
CONTINUOUS
10
2.84005
20
1.88554
11
2.82698
21
1.88178
0
LINE
8
BLACK
6
CONTINUOUS
10
2.82698
20
1.88178
11
2.81358
21
1.8795
0
LINE
8
BLACK
6
CONTINUOUS
10
2.81358
20
1.8795
11
2.8
21
1.87874
0
LINE
8
BLACK
6
CONTINUOUS
10
2.8
20
1.87874
11
2.78642
21
1.8795
0
LINE
8
BLACK
6
CONTINUOUS
10
2.78642
20
1.8795
11
2.77302
21
1.88178
0
LINE
8
BLACK
6
CONTINUOUS
10
2.77302
20
1.88178
11
2.75995
21
1.88554
0
LINE
8
BLACK
6
CONTINUOUS
10
2.75995
20
1.88554
11
2.74739
21
1.89075
0
LINE
8
BLACK
6
CONTINUOUS
10
2.74739
20
1.89075
11
2.73549
21
1.89733
0
LINE
8
BLACK
6
CONTINUOUS
10
2.73549
20
1.89733
11
2.7244
21
1.9052
0
LINE
8
BLACK
6
CONTINUOUS
10
2.7244
20
1.9052
11
2.71426
21
1.91426
0
LINE
8
BLACK
6
CONTINUOUS
10
2.71426
20
1.91426
11
2.7052
21
1.9244
0
LINE
8
BLACK
6
CONTINUOUS
10
2.7052
20
1.9244
11
2.69733
21
1.93549
0
LINE
8
BLACK
6
CONTINUOUS
10
2.69733
20
1.93549
11
2.69075
21
1.94739
0
LINE
8
BLACK
6
CONTINUOUS
10
2.69075
20
1.94739
11
2.68554
21
1.95995
0
LINE
8
BLACK
6
CONTINUOUS
10
2.68554
20
1.95995
11
2.68178
21
1.97302
0
LINE
8
BLACK
6
CONTINUOUS
10
2.68178
20
1.97302
11
2.6795
21
1.98642
0
LINE
8
BLACK
6
CONTINUOUS
10
2.6795
20
1.98642
11
2.67874
21
2
0
LINE
8
BLACK
6
CONTINUOUS
10
2.67874
20
2
11
2.6795
21
2.01358
0
LINE
8
BLACK
6
CONTINUOUS
10
2.6795
20
2.01358
11
2.68178
21
2.02698
0
LINE
8
BLACK
6
CONTINUOUS
10
2.68178
20
2.02698
11
2.68554
21
2.04005
0
LINE
8
BLACK
6
CONTINUOUS
10
2.68554
20
2.04005
11
2.69075
21
2.05261
0
LINE
8
BLACK
6
CONTINUOUS
10
2.69075
20
2.05261
11
2.69733
21
2.06451
0
LINE
8
BLACK
6
CONTINUOUS
10
2.69733
20
2.06451
11
2.7052
21
2.0756
0
LINE
8
BLACK
6
CONTINUOUS
10
2.7052
20
2.0756
11
2.71426
21
2.08574
0
LINE
8
BLACK
6
CONTINUOUS
10
2.71426
20
2.08574
11
2.7244
21
2.0948
0
LINE
8
BLACK
6
CONTINUOUS
10
2.7244
20
2.0948
11
2.73549
21
2.10267
0
LINE
8
BLACK
6
CONTINUOUS
10
2.73549
20
2.10267
11
2.74739
21
2.10925
0
LINE
8
BLACK
6
CONTINUOUS
10
2.74739
20
2.10925
11
2.75995
21
2.11446
0
LINE
8
BLACK
6
CONTINUOUS
10
2.75995
20
2.11446
11
2.77302
21
2.11822
0
LINE
8
BLACK
6
CONTINUOUS
10
2.77302
20
2.11822
11
2.78642
21
2.1205
0
LINE
8
BLACK
6
CONTINUOUS
10
2.78642
20
2.1205
11
2.8
21
2.12126
0
LINE
8
BLACK
6
CONTINUOUS
10
2.8
20
2.12126
11
2.81358
21
2.1205
0
LINE
8
BLACK
6
CONTINUOUS
10
0.931205
20
2.03291
11
0.932227
21
2.03223
0
LINE
8
BLACK
6
CONTINUOUS
10
0.932227
20
2.03223
11
0.93291
21
2.03121
0
LINE
8
BLACK
6
CONTINUOUS
10
0.93291
20
2.03121
11
0.93315
21
2.03
0
LINE
8
BLACK
6
CONTINUOUS
10
0.93315
20
2.03
11
0.93315
21
1.97
0
LINE
8
BLACK
6
CONTINUOUS
10
0.93315
20
1.97
11
0.93291
21
1.96879
0
LINE
8
BLACK
6
CONTINUOUS
10
0.93291
20
1.96879
11
0.932227
21
1.96777
0
LINE
8
BLACK
6
CONTINUOUS
10
0.932227
20
1.96777
11
0.931205
21
1.96709
0
LINE
8
BLACK
6
CONTINUOUS
10
0.931205
20
1.96709
11
0.93
21
1.96685
0
LINE
8
BLACK
6
CONTINUOUS
10
0.93
20
1.96685
11
0.87
21
1.96685
0
LINE
8
BLACK
6
CONTINUOUS
10
0.87
20
1.96685
11
0.868795
21
1.96709
0
LINE
8
BLACK
6
CONTINUOUS
10
0.868795
20
1.96709
11
0.867773
21
1.96777
0
LINE
8
BLACK
6
CONTINUOUS
10
0.867773
20
1.96777
11
0.86709
21
1.96879
0
LINE
8
BLACK
6
CONTINUOUS
10
0.86709
20
1.96879
11
0.86685
21
1.97
0
LINE
8
BLACK
6
CONTINUOUS
10
0.86685
20
1.97
11
0.86685
21
2.03
0
LINE
8
BLACK
6
CONTINUOUS
10
0.86685
20
2.03
11
0.86709
21
2.03121
0
LINE
8
BLACK
6
CONTINUOUS
10
0.86709
20
2.03121
11
0.867773
21
2.03223
0
LINE
8
BLACK
6
CONTINUOUS
10
0.867773
20
2.03223
11
0.868795
21
2.03291
0
LINE
8
BLACK
6
CONTINUOUS
10
0.868795
20
2.03291
11
0.87
21
2.03315
0
LINE
8
BLACK
6
CONTINUOUS
10
0.87
20
2.03315
11
0.93
21
2.03315
0
LINE
8
BLACK
6
CONTINUOUS
10
0.93
20
2.03315
11
0.931205
21
2.03291
0
LINE
8
BLACK
6
CONTINUOUS
10
1.03121
20
2.03291
11
1.03223
21
2.03223
0
LINE
8
BLACK
6
CONTINUOUS
10
1.03223
20
2.03223
11
1.03291
21
2.03121
0
LINE
8
BLACK
6
CONTINUOUS
10
1.03291
20
2.03121
11
1.03315
21
2.03
0
LINE
8
BLACK
6
CONTINUOUS
10
1.03315
20
2.03
11
1.03315
21
1.97
0
LINE
8
BLACK
6
CONTINUOUS
10
1.03315
20
1.97
11
1.03291
21
1.96879
0
LINE
8
BLACK
6
CONTINUOUS
10
1.03291
20
1.96879
11
1.03223
21
1.96777
0
LINE
8
BLACK
6
CONTINUOUS
10
1.03223
20
1.96777
11
1.03121
21
1.96709
0
LINE
8
BLACK
6
CONTINUOUS
10
1.03121
20
1.96709
11
1.03
21
1.96685
0
LINE
8
BLACK
6
CONTINUOUS
10
1.03
20
1.96685
11
0.97
21
1.96685
0
LINE
8
BLACK
6
CONTINUOUS
10
0.97
20
1.96685
11
0.968795
21
1.96709
0
LINE
8
BLACK
6
CONTINUOUS
10
0.968795
20
1.96709
11
0.967773
21
1.96777
0
LINE
8
BLACK
6
CONTINUOUS
10
0.967773
20
1.96777
11
0.96709
21
1.96879
0
LINE
8
BLACK
6
CONTINUOUS
10
0.96709
20
1.96879
11
0.96685
21
1.97
0
LINE
8
BLACK
6
CONTINUOUS
10
0.96685
20
1.97
11
0.96685
21
2.03
0
LINE
8
BLACK
6
CONTINUOUS
10
0.96685
20
2.03
11
0.96709
21
2.03121
0
LINE
8
BLACK
6
CONTINUOUS
10
0.96709
20
2.03121
11
0.967773
21
2.03223
0
LINE
8
BLACK
6
CONTINUOUS
10
0.967773
20
2.03223
11
0.968795
21
2.03291
0
LINE
8
BLACK
6
CONTINUOUS
10
0.968795
20
2.03291
11
0.97
21
2.03315
0
LINE
8
BLACK
6
CONTINUOUS
10
0.97
20
2.03315
11
1.03
21
2.03315
0
LINE
8
BLACK
6
CONTINUOUS
10
1.03
20
2.03315
11
1.03121
21
2.03291
0
LINE
8
BLACK
6
CONTINUOUS
10
1.13121
20
2.03291
11
1.13223
21
2.03223
0
LINE
8
BLACK
6
CONTINUOUS
10
1.13223
20
2.03223
11
1.13291
21
2.03121
0
LINE
8
BLACK
6
CONTINUOUS
10
1.13291
20
2.03121
11
1.13315
21
2.03
0
LINE
8
BLACK
6
CONTINUOUS
10
1.13315
20
2.03
11
1.13315
21
1.97
0
LINE
8
BLACK
6
CONTINUOUS
10
1.13315
20
1.97
11
1.13291
21
1.96879
0
LINE
8
BLACK
6
CONTINUOUS
10
1.13291
20
1.96879
11
1.13223
21
1.96777
0
LINE
8
BLACK
6
CONTINUOUS
10
1.13223
20
1.96777
11
1.13121
21
1.96709
0
LINE
8
BLACK
6
CONTINUOUS
10
1.13121
20
1.96709
11
1.13
21
1.96685
0
LINE
8
BLACK
6
CONTINUOUS
10
1.13
20
1.96685
11
1.07
21
1.96685
0
LINE
8
BLACK
6
CONTINUOUS
10
1.07
20
1.96685
11
1.06879
21
1.96709
0
LINE
8
BLACK
6
CONTINUOUS
10
1.06879
20
1.96709
11
1.06777
21
1.96777
0
LINE
8
BLACK
6
CONTINUOUS
10
1.06777
20
1.96777
11
1.06709
21
1.96879
0
LINE
8
BLACK
6
CONTINUOUS
10
1.06709
20
1.96879
11
1.06685
21
1.97
0
LINE
8
BLACK
6
CONTINUOUS
10
1.06685
20
1.97
11
1.06685
21
2.03
0
LINE
8
BLACK
6
CONTINUOUS
10
1.06685
20
2.03
11
1.06709
21
2.03121
0
LINE
8
BLACK
6
CONTINUOUS
10
1.06709
20
2.03121
11
1.06777
21
2.03223
0
LINE
8
BLACK
6
CONTINUOUS
10
1.06777
20
2.03223
11
1.06879
21
2.03291
0
LINE
8
BLACK
6
CONTINUOUS
10
1.06879
20
2.03291
11
1.07
21
2.03315
0
LINE
8
BLACK
6
CONTINUOUS
10
1.07
20
2.03315
11
1.13
21
2.03315
0
LINE
8
BLACK
6
CONTINUOUS
10
1.13
20
2.03315
11
1.13121
21
2.03291
0
LINE
8
BLACK
6
CONTINUOUS
10
1.23121
20
2.03291
11
1.23223
21
2.03223
0
LINE
8
BLACK
6
CONTINUOUS
10
1.23223
20
2.03223
11
1.23291
21
2.03121
0
LINE
8
BLACK
6
CONTINUOUS
10
1.23291
20
2.03121
11
1.23315
21
2.03
0
LINE
8
BLACK
6
CONTINUOUS
10
1.23315
20
2.03
11
1.23315
21
1.97
0
LINE
8
BLACK
6
CONTINUOUS
10
1.23315
20
1.97
11
1.23291
21
1.96879
0
LINE
8
BLACK
6
CONTINUOUS
10
1.23291
20
1.96879
11
1.23223
21
1.96777
0
LINE
8
BLACK
6
CONTINUOUS
10
1.23223
20
1.96777
11
1.23121
21
1.96709
0
LINE
8
BLACK
6
CONTINUOUS
10
1.23121
20
1.96709
11
1.23
21
1.96685
0
LINE
8
BLACK
6
CONTINUOUS
10
1.23
20
1.96685
11
1.17
21
1.96685
0
LINE
8
BLACK
6
CONTINUOUS
10
1.17
20
1.96685
11
1.16879
21
1.96709
0
LINE
8
BLACK
6
CONTINUOUS
10
1.16879
20
1.96709
11
1.16777
21
1.96777
0
LINE
8
BLACK
6
CONTINUOUS
10
1.16777
20
1.96777
11
1.16709
21
1.96879
0
LINE
8
BLACK
6
CONTINUOUS
10
1.16709
20
1.96879
11
1.16685
21
1.97
0
LINE
8
BLACK
6
CONTINUOUS
10
1.16685
20
1.97
11
1.16685
21
2.03
0
LINE
8
BLACK
6
CONTINUOUS
10
1.16685
20
2.03
11
1.16709
21
2.03121
0
LINE
8
BLACK
6
CONTINUOUS
10
1.16709
20
2.03121
11
1.16777
21
2.03223
0
LINE
8
BLACK
6
CONTINUOUS
10
1.16777
20
2.03223
11
1.16879
21
2.03291
0
LINE
8
BLACK
6
CONTINUOUS
10
1.16879
20
2.03291
11
1.17
21
2.03315
0
LINE
8
BLACK
6
CONTINUOUS
10
1.17
20
2.03315
11
1.23
21
2.03315
0
LINE
8
BLACK
6
CONTINUOUS
10
1.23
20
2.03315
11
1.23121
21
2.03291
0
LINE
8
BLACK
6
CONTINUOUS
10
1.33121
20
2.03291
11
1.33223
21
2.03223
0
LINE
8
BLACK
6
CONTINUOUS
10
1.33223
20
2.03223
11
1.33291
21
2.03121
0
LINE
8
BLACK
6
CONTINUOUS
10
1.33291
20
2.03121
11
1.33315
21
2.03
0
LINE
8
BLACK
6
CONTINUOUS
10
1.33315
20
2.03
11
1.33315
21
1.97
0
LINE
8
BLACK
6
CONTINUOUS
10
1.33315
20
1.97
11
1.33291
21
1.96879
0
LINE
8
BLACK
6
CONTINUOUS
10
1.33291
20
1.96879
11
1.33223
21
1.96777
0
LINE
8
BLACK
6
CONTINUOUS
10
1.33223
20
1.96777
11
1.33121
21
1.96709
0
LINE
8
BLACK
6
CONTINUOUS
10
1.33121
20
1.96709
11
1.33
21
1.96685
0
LINE
8
BLACK
6
CONTINUOUS
10
1.33
20
1.96685
11
1.27
21
1.96685
0
LINE
8
BLACK
6
CONTINUOUS
10
1.27
20
1.96685
11
1.26879
21
1.96709
0
LINE
8
BLACK
6
CONTINUOUS
10
1.26879
20
1.96709
11
1.26777
21
1.96777
0
LINE
8
BLACK
6
CONTINUOUS
10
1.26777
20
1.96777
11
1.26709
21
1.96879
0
LINE
8
BLACK
6
CONTINUOUS
10
1.26709
20
1.96879
11
1.26685
21
1.97
0
LINE
8
BLACK
6
CONTINUOUS
10
1.26685
20
1.97
11
1.26685
21
2.03
0
LINE
8
BLACK
6
CONTINUOUS
10
1.26685
20
2.03
11
1.26709
21
2.03121
0
LINE
8
BLACK
6
CONTINUOUS
10
1.26709
20
2.03121
11
1.26777
21
2.03223
0
LINE
8
BLACK
6
CONTINUOUS
10
1.26777
20
2.03223
11
1.26879
21
2.03291
0
LINE
8
BLACK
6
CONTINUOUS
10
1.26879
20
2.03291
11
1.27
21
2.03315
0
LINE
8
BLACK
6
CONTINUOUS
10
1.27
20
2.03315
11
1.33
21
2.03315
0
LINE
8
BLACK
6
CONTINUOUS
10
1.33
20
2.03315
11
1.33121
21
2.03291
0
LINE
8
BLACK
6
CONTINUOUS
10
1.43121
20
2.03291
11
1.43223
21
2.03223
0
LINE
8
BLACK
6
CONTINUOUS
10
1.43223
20
2.03223
11
1.43291
21
2.03121
0
LINE
8
BLACK
6
CONTINUOUS
10
1.43291
20
2.03121
11
1.43315
21
2.03
0
LINE
8
BLACK
6
CONTINUOUS
10
1.43315
20
2.03
11
1.43315
21
1.97
0
LINE
8
BLACK
6
CONTINUOUS
10
1.43315
20
1.97
11
1.43291
21
1.96879
0
LINE
8
BLACK
6
CONTINUOUS
10
1.43291
20
1.96879
11
1.43223
21
1.96777
0
LINE
8
BLACK
6
CONTINUOUS
10
1.43223
20
1.96777
11
1.43121
21
1.96709
0
LINE
8
BLACK
6
CONTINUOUS
10
1.43121
20
1.96709
11
1.43
21
1.96685
0
LINE
8
BLACK
6
CONTINUOUS
10
1.43
20
1.96685
11
1.37
21
1.96685
0
LINE
8
BLACK
6
CONTINUOUS
10
1.37
20
1.96685
11
1.36879
21
1.96709
0
LINE
8
BLACK
6
CONTINUOUS
10
1.36879
20
1.96709
11
1.36777
21
1.96777
0
LINE
8
BLACK
6
CONTINUOUS
10
1.36777
20
1.96777
11
1.36709
21
1.96879
0
LINE
8
BLACK
6
CONTINUOUS
10
1.36709
20
1.96879
11
1.36685
21
1.97
0
LINE
8
BLACK
6
CONTINUOUS
10
1.36685
20
1.97
11
1.36685
21
2.03
0
LINE
8
BLACK
6
CONTINUOUS
10
1.36685
20
2.03
11
1.36709
21
2.03121
0
LINE
8
BLACK
6
CONTINUOUS
10
1.36709
20
2.03121
11
1.36777
21
2.03223
0
LINE
8
BLACK
6
CONTINUOUS
10
1.36777
20
2.03223
11
1.36879
21
2.03291
0
LINE
8
BLACK
6
CONTINUOUS
10
1.36879
20
2.03291
11
1.37
21
2.03315
0
LINE
8
BLACK
6
CONTINUOUS
10
1.37
20
2.03315
11
1.43
21
2.03315
0
LINE
8
BLACK
6
CONTINUOUS
10
1.43
20
2.03315
11
1.43121
21
2.03291
0
LINE
8
BLACK
6
CONTINUOUS
10
1.53121
20
2.03291
11
1.53223
21
2.03223
0
LINE
8
BLACK
6
CONTINUOUS
10
1.53223
20
2.03223
11
1.53291
21
2.03121
0
LINE
8
BLACK
6
CONTINUOUS
10
1.53291
20
2.03121
11
1.53315
21
2.03
0
LINE
8
BLACK
6
CONTINUOUS
10
1.53315
20
2.03
11
1.53315
21
1.97
0
LINE
8
BLACK
6
CONTINUOUS
10
1.53315
20
1.97
11
1.53291
21
1.96879
0
LINE
8
BLACK
6
CONTINUOUS
10
1.53291
20
1.96879
11
1.53223
21
1.96777
0
LINE
8
BLACK
6
CONTINUOUS
10
1.53223
20
1.96777
11
1.53121
21
1.96709
0
LINE
8
BLACK
6
CONTINUOUS
10
1.53121
20
1.96709
11
1.53
21
1.96685
0
LINE
8
BLACK
6
CONTINUOUS
10
1.53
20
1.96685
11
1.47
21
1.96685
0
LINE
8
BLACK
6
CONTINUOUS
10
1.47
20
1.96685
11
1.46879
21
1.96709
0
LINE
8
BLACK
6
CONTINUOUS
10
1.46879
20
1.96709
11
1.46777
21
1.96777
0
LINE
8
BLACK
6
CONTINUOUS
10
1.46777
20
1.96777
11
1.46709
21
1.96879
0
LINE
8
BLACK
6
CONTINUOUS
10
1.46709
20
1.96879
11
1.46685
21
1.97
0
LINE
8
BLACK
6
CONTINUOUS
10
1.46685
20
1.97
11
1.46685
21
2.03
0
LINE
8
BLACK
6
CONTINUOUS
10
1.46685
20
2.03
11
1.46709
21
2.03121
0
LINE
8
BLACK
6
CONTINUOUS
10
1.46709
20
2.03121
11
1.46777
21
2.03223
0
LINE
8
BLACK
6
CONTINUOUS
10
1.46777
20
2.03223
11
1.46879
21
2.03291
0
LINE
8
BLACK
6
CONTINUOUS
10
1.46879
20
2.03291
11
1.47
21
2.03315
0
LINE
8
BLACK
6
CONTINUOUS
10
1.47
20
2.03315
11
1.53
21
2.03315
0
LINE
8
BLACK
6
CONTINUOUS
10
1.53
20
2.03315
11
1.53121
21
2.03291
0
LINE
8
BLACK
6
CONTINUOUS
10
1.63121
20
2.03291
11
1.63223
21
2.03223
0
LINE
8
BLACK
6
CONTINUOUS
10
1.63223
20
2.03223
11
1.63291
21
2.03121
0
LINE
8
BLACK
6
CONTINUOUS
10
1.63291
20
2.03121
11
1.63315
21
2.03
0
LINE
8
BLACK
6
CONTINUOUS
10
1.63315
20
2.03
11
1.63315
21
1.97
0
LINE
8
BLACK
6
CONTINUOUS
10
1.63315
20
1.97
11
1.63291
21
1.96879
0
LINE
8
BLACK
6
CONTINUOUS
10
1.63291
20
1.96879
11
1.63223
21
1.96777
0
LINE
8
BLACK
6
CONTINUOUS
10
1.63223
20
1.96777
11
1.63121
21
1.96709
0
LINE
8
BLACK
6
CONTINUOUS
10
1.63121
20
1.96709
11
1.63
21
1.96685
0
LINE
8
BLACK
6
CONTINUOUS
10
1.63
20
1.96685
11
1.57
21
1.96685
0
LINE
8
BLACK
6
CONTINUOUS
10
1.57
20
1.96685
11
1.56879
21
1.96709
0
LINE
8
BLACK
6
CONTINUOUS
10
1.56879
20
1.96709
11
1.56777
21
1.96777
0
LINE
8
BLACK
6
CONTINUOUS
10
1.56777
20
1.96777
11
1.56709
21
1.96879
0
LINE
8
BLACK
6
CONTINUOUS
10
1.56709
20
1.96879
11
1.56685
21
1.97
0
LINE
8
BLACK
6
CONTINUOUS
10
1.56685
20
1.97
11
1.56685
21
2.03
0
LINE
8
BLACK
6
CONTINUOUS
10
1.56685
20
2.03
11
1.56709
21
2.03121
0
LINE
8
BLACK
6
CONTINUOUS
10
1.56709
20
2.03121
11
1.56777
21
2.03223
0
LINE
8
BLACK
6
CONTINUOUS
10
1.56777
20
2.03223
11
1.56879
21
2.03291
0
LINE
8
BLACK
6
CONTINUOUS
10
1.56879
20
2.03291
11
1.57
21
2.03315
0
LINE
8
BLACK
6
CONTINUOUS
10
1.57
20
2.03315
11
1.63
21
2.03315
0
LINE
8
BLACK
6
CONTINUOUS
10
1.63
20
2.03315
11
1.63121
21
2.03291
0
LINE
8
BLACK
6
CONTINUOUS
10
1.73121
20
2.03291
11
1.73223
21
2.03223
0
LINE
8
BLACK
6
CONTINUOUS
10
1.73223
20
2.03223
11
1.73291
21
2.03121
0
LINE
8
BLACK
6
CONTINUOUS
10
1.73291
20
2.03121
11
1.73315
21
2.03
0
LINE
8
BLACK
6
CONTINUOUS
10
1.73315
20
2.03
11
1.73315
21
1.97
0
LINE
8
BLACK
6
CONTINUOUS
10
1.73315
20
1.97
11
1.73291
21
1.96879
0
LINE
8
BLACK
6
CONTINUOUS
10
1.73291
20
1.96879
11
1.73223
21
1.96777
0
LINE
8
BLACK
6
CONTINUOUS
10
1.73223
20
1.96777
11
1.73121
21
1.96709
0
LINE
8
BLACK
6
CONTINUOUS
10
1.73121
20
1.96709
11
1.73
21
1.96685
0
LINE
8
BLACK
6
CONTINUOUS
10
1.73
20
1.96685
11
1.67
21
1.96685
0
LINE
8
BLACK
6
CONTINUOUS
10
1.67
20
1.96685
11
1.66879
21
1.96709
0
LINE
8
BLACK
6
CONTINUOUS
10
1.66879
20
1.96709
11
1.66777
21
1.96777
0
LINE
8
BLACK
6
CONTINUOUS
10
1.66777
20
1.96777
11
1.66709
21
1.96879
0
LINE
8
BLACK
6
CONTINUOUS
10
1.66709
20
1.96879
11
1.66685
21
1.97
0
LINE
8
BLACK
6
CONTINUOUS
10
1.66685
20
1.97
11
1.66685
21
2.03
0
LINE
8
BLACK
6
CONTINUOUS
10
1.66685
20
2.03
11
1.66709
21
2.03121
0
LINE
8
BLACK
6
CONTINUOUS
10
1.66709
20
2.03121
11
1.66777
21
2.03223
0
LINE
8
BLACK
6
CONTINUOUS
10
1.66777
20
2.03223
11
1.66879
21
2.03291
0
LINE
8
BLACK
6
CONTINUOUS
10
1.66879
20
2.03291
11
1.67
21
2.03315
0
LINE
8
BLACK
6
CONTINUOUS
10
1.67
20
2.03315
11
1.73
21
2.03315
0
LINE
8
BLACK
6
CONTINUOUS
10
1.73
20
2.03315
11
1.73121
21
2.03291
0
LINE
8
BLACK
6
CONTINUOUS
10
1.83121
20
2.03291
11
1.83223
21
2.03223
0
LINE
8
BLACK
6
CONTINUOUS
10
1.83223
20
2.03223
11
1.83291
21
2.03121
0
LINE
8
BLACK
6
CONTINUOUS
10
1.83291
20
2.03121
11
1.83315
21
2.03
0
LINE
8
BLACK
6
CONTINUOUS
10
1.83315
20
2.03
11
1.83315
21
1.97
0
LINE
8
BLACK
6
CONTINUOUS
10
1.83315
20
1.97
11
1.83291
21
1.96879
0
LINE
8
BLACK
6
CONTINUOUS
10
1.83291
20
1.96879
11
1.83223
21
1.96777
0
LINE
8
BLACK
6
CONTINUOUS
10
1.83223
20
1.96777
11
1.83121
21
1.96709
0
LINE
8
BLACK
6
CONTINUOUS
10
1.83121
20
1.96709
11
1.83
21
1.96685
0
LINE
8
BLACK
6
CONTINUOUS
10
1.83
20
1.96685
11
1.77
21
1.96685
0
LINE
8
BLACK
6
CONTINUOUS
10
1.77
20
1.96685
11
1.76879
21
1.96709
0
LINE
8
BLACK
6
CONTINUOUS
10
1.76879
20
1.96709
11
1.76777
21
1.96777
0
LINE
8
BLACK
6
CONTINUOUS
10
1.76777
20
1.96777
11
1.76709
21
1.96879
0
LINE
8
BLACK
6
CONTINUOUS
10
1.76709
20
1.96879
11
1.76685
21
1.97
0
LINE
8
BLACK
6
CONTINUOUS
10
1.76685
20
1.97
11
1.76685
21
2.03
0
LINE
8
BLACK
6
CONTINUOUS
10
1.76685
20
2.03
11
1.76709
21
2.03121
0
LINE
8
BLACK
6
CONTINUOUS
10
1.76709
20
2.03121
11
1.76777
21
2.03223
0
LINE
8
BLACK
6
CONTINUOUS
10
1.76777
20
2.03223
11
1.76879
21
2.03291
0
LINE
8
BLACK
6
CONTINUOUS
10
1.76879
20
2.03291
11
1.77
21
2.03315
0
LINE
8
BLACK
6
CONTINUOUS
10
1.77
20
2.03315
11
1.83
21
2.03315
0
LINE
8
BLACK
6
CONTINUOUS
10
1.83
20
2.03315
11
1.83121
21
2.03291
0
LINE
8
BLACK
6
CONTINUOUS
10
1.93121
20
2.03291
11
1.93223
21
2.03223
0
LINE
8
BLACK
6
CONTINUOUS
10
1.93223
20
2.03223
11
1.93291
21
2.03121
0
LINE
8
BLACK
6
CONTINUOUS
10
1.93291
20
2.03121
11
1.93315
21
2.03
0
LINE
8
BLACK
6
CONTINUOUS
10
1.93315
20
2.03
11
1.93315
21
1.97
0
LINE
8
BLACK
6
CONTINUOUS
10
1.93315
20
1.97
11
1.93291
21
1.96879
0
LINE
8
BLACK
6
CONTINUOUS
10
1.93291
20
1.96879
11
1.93223
21
1.96777
0
LINE
8
BLACK
6
CONTINUOUS
10
1.93223
20
1.96777
11
1.93121
21
1.96709
0
LINE
8
BLACK
6
CONTINUOUS
10
1.93121
20
1.96709
11
1.93
21
1.96685
0
LINE
8
BLACK
6
CONTINUOUS
10
1.93
20
1.96685
11
1.87
21
1.96685
0
LINE
8
BLACK
6
CONTINUOUS
10
1.87
20
1.96685
11
1.86879
21
1.96709
0
LINE
8
BLACK
6
CONTINUOUS
10
1.86879
20
1.96709
11
1.86777
21
1.96777
0
LINE
8
BLACK
6
CONTINUOUS
10
1.86777
20
1.96777
11
1.86709
21
1.96879
0
LINE
8
BLACK
6
CONTINUOUS
10
1.86709
20
1.96879
11
1.86685
21
1.97
0
LINE
8
BLACK
6
CONTINUOUS
10
1.86685
20
1.97
11
1.86685
21
2.03
0
LINE
8
BLACK
6
CONTINUOUS
10
1.86685
20
2.03
11
1.86709
21
2.03121
0
LINE
8
BLACK
6
CONTINUOUS
10
1.86709
20
2.03121
11
1.86777
21
2.03223
0
LINE
8
BLACK
6
CONTINUOUS
10
1.86777
20
2.03223
11
1.86879
21
2.03291
0
LINE
8
BLACK
6
CONTINUOUS
10
1.86879
20
2.03291
11
1.87
21
2.03315
0
LINE
8
BLACK
6
CONTINUOUS
10
1.87
20
2.03315
11
1.93
21
2.03315
0
LINE
8
BLACK
6
CONTINUOUS
10
1.93
20
2.03315
11
1.93121
21
2.03291
0
LINE
8
BLACK
6
CONTINUOUS
10
2.03121
20
2.03291
11
2.03223
21
2.03223
0
LINE
8
BLACK
6
CONTINUOUS
10
2.03223
20
2.03223
11
2.03291
21
2.03121
0
LINE
8
BLACK
6
CONTINUOUS
10
2.03291
20
2.03121
11
2.03315
21
2.03
0
LINE
8
BLACK
6
CONTINUOUS
10
2.03315
20
2.03
11
2.03315
21
1.97
0
LINE
8
BLACK
6
CONTINUOUS
10
2.03315
20
1.97
11
2.03291
21
1.96879
0
LINE
8
BLACK
6
CONTINUOUS
10
2.03291
20
1.96879
11
2.03223
21
1.96777
0
LINE
8
BLACK
6
CONTINUOUS
10
2.03223
20
1.96777
11
2.03121
21
1.96709
0
LINE
8
BLACK
6
CONTINUOUS
10
2.03121
20
1.96709
11
2.03
21
1.96685
0
LINE
8
BLACK
6
CONTINUOUS
10
2.03
20
1.96685
11
1.97
21
1.96685
0
LINE
8
BLACK
6
CONTINUOUS
10
1.97
20
1.96685
11
1.96879
21
1.96709
0
LINE
8
BLACK
6
CONTINUOUS
10
1.96879
20
1.96709
11
1.96777
21
1.96777
0
LINE
8
BLACK
6
CONTINUOUS
10
1.96777
20
1.96777
11
1.96709
21
1.96879
0
LINE
8
BLACK
6
CONTINUOUS
10
1.96709
20
1.96879
11
1.96685
21
1.97
0
LINE
8
BLACK
6
CONTINUOUS
10
1.96685
20
1.97
11
1.96685
21
2.03
0
LINE
8
BLACK
6
CONTINUOUS
10
1.96685
20
2.03
11
1.96709
21
2.03121
0
LINE
8
BLACK
6
CONTINUOUS
10
1.96709
20
2.03121
11
1.96777
21
2.03223
0
LINE
8
BLACK
6
CONTINUOUS
10
1.96777
20
2.03223
11
1.96879
21
2.03291
0
LINE
8
BLACK
6
CONTINUOUS
10
1.96879
20
2.03291
11
1.97
21
2.03315
0
LINE
8
BLACK
6
CONTINUOUS
10
1.97
20
2.03315
11
2.03
21
2.03315
0
LINE
8
BLACK
6
CONTINUOUS
10
2.03
20
2.03315
11
2.03121
21
2.03291
0
LINE
8
BLACK
6
CONTINUOUS
10
2.13121
20
2.03291
11
2.13223
21
2.03223
0
LINE
8
BLACK
6
CONTINUOUS
10
2.13223
20
2.03223
11
2.13291
21
2.03121
0
LINE
8
BLACK
6
CONTINUOUS
10
2.13291
20
2.03121
11
2.13315
21
2.03
0
LINE
8
BLACK
6
CONTINUOUS
10
2.13315
20
2.03
11
2.13315
21
1.97
0
LINE
8
BLACK
6
CONTINUOUS
10
2.13315
20
1.97
11
2.13291
21
1.96879
0
LINE
8
BLACK
6
CONTINUOUS
10
2.13291
20
1.96879
11
2.13223
21
1.96777
0
LINE
8
BLACK
6
CONTINUOUS
10
2.13223
20
1.96777
11
2.13121
21
1.96709
0
LINE
8
BLACK
6
CONTINUOUS
10
2.13121
20
1.96709
11
2.13
21
1.96685
0
LINE
8
BLACK
6
CONTINUOUS
10
2.13
20
1.96685
11
2.07
21
1.96685
0
LINE
8
BLACK
6
CONTINUOUS
10
2.07
20
1.96685
11
2.06879
21
1.96709
0
LINE
8
BLACK
6
CONTINUOUS
10
2.06879
20
1.96709
11
2.06777
21
1.96777
0
LINE
8
BLACK
6
CONTINUOUS
10
2.06777
20
1.96777
11
2.06709
21
1.96879
0
LINE
8
BLACK
6
CONTINUOUS
10
2.06709
20
1.96879
11
2.06685
21
1.97
0
LINE
8
BLACK
6
CONTINUOUS
10
2.06685
20
1.97
11
2.06685
21
2.03
0
LINE
8
BLACK
6
CONTINUOUS
10
2.06685
20
2.03
11
2.06709
21
2.03121
0
LINE
8
BLACK
6
CONTINUOUS
10
2.06709
20
2.03121
11
2.06777
21
2.03223
0
LINE
8
BLACK
6
CONTINUOUS
10
2.06777
20
2.03223
11
2.06879
21
2.03291
0
LINE
8
BLACK
6
CONTINUOUS
10
2.06879
20
2.03291
11
2.07
21
2.03315
0
LINE
8
BLACK
6
CONTINUOUS
10
2.07
20
2.03315
11
2.13
21
2.03315
0
LINE
8
BLACK
6
CONTINUOUS
10
2.13
20
2.03315
11
2.13121
21
2.03291
0
LINE
8
BLACK
6
CONTINUOUS
10
2.23121
20
2.03291
11
2.23223
21
2.03223
0
LINE
8
BLACK
6
CONTINUOUS
10
2.23223
20
2.03223
11
2.23291
21
2.03121
0
LINE
8
BLACK
6
CONTINUOUS
10
2.23291
20
2.03121
11
2.23315
21
2.03
0
LINE
8
BLACK
6
CONTINUOUS
10
2.23315
20
2.03
11
2.23315
21
1.97
0
LINE
8
BLACK
6
CONTINUOUS
10
2.23315
20
1.97
11
2.23291
21
1.96879
0
LINE
8
BLACK
6
CONTINUOUS
10
2.23291
20
1.96879
11
2.23223
21
1.96777
0
LINE
8
BLACK
6
CONTINUOUS
10
2.23223
20
1.96777
11
2.23121
21
1.96709
0
LINE
8
BLACK
6
CONTINUOUS
10
2.23121
20
1.96709
11
2.23
21
1.96685
0
LINE
8
BLACK
6
CONTINUOUS
10
2.23
20
1.96685
11
2.17
21
1.96685
0
LINE
8
BLACK
6
CONTINUOUS
10
2.17
20
1.96685
11
2.16879
21
1.96709
0
LINE
8
BLACK
6
CONTINUOUS
10
2.16879
20
1.96709
11
2.16777
21
1.96777
0
LINE
8
BLACK
6
CONTINUOUS
10
2.16777
20
1.96777
11
2.16709
21
1.96879
0
LINE
8
BLACK
6
CONTINUOUS
10
2.16709
20
1.96879
11
2.16685
21
1.97
0
LINE
8
BLACK
6
CONTINUOUS
10
2.16685
20
1.97
11
2.16685
21
2.03
0
LINE
8
BLACK
6
CONTINUOUS
10
2.16685
20
2.03
11
2.16709
21
2.03121
0
LINE
8
BLACK
6
CONTINUOUS
10
2.16709
20
2.03121
11
2.16777
21
2.03223
0
LINE
8
BLACK
6
CONTINUOUS
10
2.16777
20
2.03223
11
2.16879
21
2.03291
0
LINE
8
BLACK
6
CONTINUOUS
10
2.16879
20
2.03291
11
2.17
21
2.03315
0
LINE
8
BLACK
6
CONTINUOUS
10
2.17
20
2.03315
11
2.23
21
2.03315
0
LINE
8
BLACK
6
CONTINUOUS
10
2.23
20
2.03315
11
2.23121
21
2.03291
0
LINE
8
BLACK
6
CONTINUOUS
10
2.33121
20
2.03291
11
2.33223
21
2.03223
0
LINE
8
BLACK
6
CONTINUOUS
10
2.33223
20
2.03223
11
2.33291
21
2.03121
0
LINE
8
BLACK
6
CONTINUOUS
10
2.33291
20
2.03121
11
2.33315
21
2.03
0
LINE
8
BLACK
6
CONTINUOUS
10
2.33315
20
2.03
11
2.33315
21
1.97
0
LINE
8
BLACK
6
CONTINUOUS
10
2.33315
20
1.97
11
2.33291
21
1.96879
0
LINE
8
BLACK
6
CONTINUOUS
10
2.33291
20
1.96879
11
2.33223
21
1.96777
0
LINE
8
BLACK
6
CONTINUOUS
10
2.33223
20
1.96777
11
2.33121
21
1.96709
0
LINE
8
BLACK
6
CONTINUOUS
10
2.33121
20
1.96709
11
2.33
21
1.96685
0
LINE
8
BLACK
6
CONTINUOUS
10
2.33
20
1.96685
11
2.27
21
1.96685
0
LINE
8
BLACK
6
CONTINUOUS
10
2.27
20
1.96685
11
2.26879
21
1.96709
0
LINE
8
BLACK
6
CONTINUOUS
10
2.26879
20
1.96709
11
2.26777
21
1.96777
0
LINE
8
BLACK
6
CONTINUOUS
10
2.26777
20
1.96777
11
2.26709
21
1.96879
0
LINE
8
BLACK
6
CONTINUOUS
10
2.26709
20
1.96879
11
2.26685
21
1.97
0
LINE
8
BLACK
6
CONTINUOUS
10
2.26685
20
1.97
11
2.26685
21
2.03
0
LINE
8
BLACK
6
CONTINUOUS
10
2.26685
20
2.03
11
2.26709
21
2.03121
0
LINE
8
BLACK
6
CONTINUOUS
10
2.26709
20
2.03121
11
2.26777
21
2.03223
0
LINE
8
BLACK
6
CONTINUOUS
10
2.26777
20
2.03223
11
2.26879
21
2.03291
0
LINE
8
BLACK
6
CONTINUOUS
10
2.26879
20
2.03291
11
2.27
21
2.03315
0
LINE
8
BLACK
6
CONTINUOUS
10
2.27
20
2.03315
11
2.33
21
2.03315
0
LINE
8
BLACK
6
CONTINUOUS
10
2.33
20
2.03315
11
2.33121
21
2.03291
0
LINE
8
BLACK
6
CONTINUOUS
10
0.931205
20
2.13291
11
0.932227
21
2.13223
0
LINE
8
BLACK
6
CONTINUOUS
10
0.932227
20
2.13223
11
0.93291
21
2.13121
0
LINE
8
BLACK
6
CONTINUOUS
10
0.93291
20
2.13121
11
0.93315
21
2.13
0
LINE
8
BLACK
6
CONTINUOUS
10
0.93315
20
2.13
11
0.93315
21
2.07
0
LINE
8
BLACK
6
CONTINUOUS
10
0.93315
20
2.07
11
0.93291
21
2.06879
0
LINE
8
BLACK
6
CONTINUOUS
10
0.93291
20
2.06879
11
0.932227
21
2.06777
0
LINE
8
BLACK
6
CONTINUOUS
10
0.932227
20
2.06777
11
0.931205
21
2.06709
0
LINE
8
BLACK
6
CONTINUOUS
10
0.931205
20
2.06709
11
0.93
21
2.06685
0
LINE
8
BLACK
6
CONTINUOUS
10
0.93
20
2.06685
11
0.87
21
2.06685
0
LINE
8
BLACK
6
CONTINUOUS
10
0.87
20
2.06685
11
0.868795
21
2.06709
0
LINE
8
BLACK
6
CONTINUOUS
10
0.868795
20
2.06709
11
0.867773
21
2.06777
0
LINE
8
BLACK
6
CONTINUOUS
10
0.867773
20
2.06777
11
0.86709
21
2.06879
0
LINE
8
BLACK
6
CONTINUOUS
10
0.86709
20
2.06879
11
0.86685
21
2.07
0
LINE
8
BLACK
6
CONTINUOUS
10
0.86685
20
2.07
11
0.86685
21
2.13
0
LINE
8
BLACK
6
CONTINUOUS
10
0.86685
20
2.13
11
0.86709
21
2.13121
0
LINE
8
BLACK
6
CONTINUOUS
10
0.86709
20
2.13121
11
0.867773
21
2.13223
0
LINE
8
BLACK
6
CONTINUOUS
10
0.867773
20
2.13223
11
0.868795
21
2.13291
0
LINE
8
BLACK
6
CONTINUOUS
10
0.868795
20
2.13291
11
0.87
21
2.13315
0
LINE
8
BLACK
6
CONTINUOUS
10
0.87
20
2.13315
11
0.93
21
2.13315
0
LINE
8
BLACK
6
CONTINUOUS
10
0.93
20
2.13315
11
0.931205
21
2.13291
0
LINE
8
BLACK
6
CONTINUOUS
10
1.03121
20
2.13291
11
1.03223
21
2.13223
0
LINE
8
BLACK
6
CONTINUOUS
10
1.03223
20
2.13223
11
1.03291
21
2.13121
0
LINE
8
BLACK
6
CONTINUOUS
10
1.03291
20
2.13121
11
1.03315
21
2.13
0
LINE
8
BLACK
6
CONTINUOUS
10
1.03315
20
2.13
11
1.03315
21
2.07
0
LINE
8
BLACK
6
CONTINUOUS
10
1.03315
20
2.07
11
1.03291
21
2.06879
0
LINE
8
BLACK
6
CONTINUOUS
10
1.03291
20
2.06879
11
1.03223
21
2.06777
0
LINE
8
BLACK
6
CONTINUOUS
10
1.03223
20
2.06777
11
1.03121
21
2.06709
0
LINE
8
BLACK
6
CONTINUOUS
10
1.03121
20
2.06709
11
1.03
21
2.06685
0
LINE
8
BLACK
6
CONTINUOUS
10
1.03
20
2.06685
11
0.97
21
2.06685
0
LINE
8
BLACK
6
CONTINUOUS
10
0.97
20
2.06685
11
0.968795
21
2.06709
0
LINE
8
BLACK
6
CONTINUOUS
10
0.968795
20
2.06709
11
0.967773
21
2.06777
0
LINE
8
BLACK
6
CONTINUOUS
10
0.967773
20
2.06777
11
0.96709
21
2.06879
0
LINE
8
BLACK
6
CONTINUOUS
10
0.96709
20
2.06879
11
0.96685
21
2.07
0
LINE
8
BLACK
6
CONTINUOUS
10
0.96685
20
2.07
11
0.96685
21
2.13
0
LINE
8
BLACK
6
CONTINUOUS
10
0.96685
20
2.13
11
0.96709
21
2.13121
0
LINE
8
BLACK
6
CONTINUOUS
10
0.96709
20
2.13121
11
0.967773
21
2.13223
0
LINE
8
BLACK
6
CONTINUOUS
10
0.967773
20
2.13223
11
0.968795
21
2.13291
0
LINE
8
BLACK
6
CONTINUOUS
10
0.968795
20
2.13291
11
0.97
21
2.13315
0
LINE
8
BLACK
6
CONTINUOUS
10
0.97
20
2.13315
11
1.03
21
2.13315
0
LINE
8
BLACK
6
CONTINUOUS
10
1.03
20
2.13315
11
1.03121
21
2.13291
0
LINE
8
BLACK
6
CONTINUOUS
10
1.13121
20
2.13291
11
1.13223
21
2.13223
0
LINE
8
BLACK
6
CONTINUOUS
10
1.13223
20
2.13223
11
1.13291
21
2.13121
0
LINE
8
BLACK
6
CONTINUOUS
10
1.13291
20
2.13121
11
1.13315
21
2.13
0
LINE
8
BLACK
6
CONTINUOUS
10
1.13315
20
2.13
11
1.13315
21
2.07
0
LINE
8
BLACK
6
CONTINUOUS
10
1.13315
20
2.07
11
1.13291
21
2.06879
0
LINE
8
BLACK
6
CONTINUOUS
10
1.13291
20
2.06879
11
1.13223
21
2.06777
0
LINE
8
BLACK
6
CONTINUOUS
10
1.13223
20
2.06777
11
1.13121
21
2.06709
0
LINE
8
BLACK
6
CONTINUOUS
10
1.13121
20
2.06709
11
1.13
21
2.06685
0
LINE
8
BLACK
6
CONTINUOUS
10
1.13
20
2.06685
11
1.07
21
2.06685
0
LINE
8
BLACK
6
CONTINUOUS
10
1.07
20
2.06685
11
1.06879
21
2.06709
0
LINE
8
BLACK
6
CONTINUOUS
10
1.06879
20
2.06709
11
1.06777
21
2.06777
0
LINE
8
BLACK
6
CONTINUOUS
10
1.06777
20
2.06777
11
1.06709
21
2.06879
0
LINE
8
BLACK
6
CONTINUOUS
10
1.06709
20
2.06879
11
1.06685
21
2.07
0
LINE
8
BLACK
6
CONTINUOUS
10
1.06685
20
2.07
11
1.06685
21
2.13
0
LINE
8
BLACK
6
CONTINUOUS
10
1.06685
20
2.13
11
1.06709
21
2.13121
0
LINE
8
BLACK
6
CONTINUOUS
10
1.06709
20
2.13121
11
1.06777
21
2.13223
0
LINE
8
BLACK
6
CONTINUOUS
10
1.06777
20
2.13223
11
1.06879
21
2.13291
0
LINE
8
BLACK
6
CONTINUOUS
10
1.06879
20
2.13291
11
1.07
21
2.13315
0
LINE
8
BLACK
6
CONTINUOUS
10
1.07
20
2.13315
11
1.13
21
2.13315
0
LINE
8
BLACK
6
CONTINUOUS
10
1.13
20
2.13315
11
1.13121
21
2.13291
0
LINE
8
BLACK
6
CONTINUOUS
10
1.23121
20
2.13291
11
1.23223
21
2.13223
0
LINE
8
BLACK
6
CONTINUOUS
10
1.23223
20
2.13223
11
1.23291
21
2.13121
0
LINE
8
BLACK
6
CONTINUOUS
10
1.23291
20
2.13121
11
1.23315
21
2.13
0
LINE
8
BLACK
6
CONTINUOUS
10
1.23315
20
2.13
11
1.23315
21
2.07
0
LINE
8
BLACK
6
CONTINUOUS
10
1.23315
20
2.07
11
1.23291
21
2.06879
0
LINE
8
BLACK
6
CONTINUOUS
10
1.23291
20
2.06879
11
1.23223
21
2.06777
0
LINE
8
BLACK
6
CONTINUOUS
10
1.23223
20
2.06777
11
1.23121
21
2.06709
0
LINE
8
BLACK
6
CONTINUOUS
10
1.23121
20
2.06709
11
1.23
21
2.06685
0
LINE
8
BLACK
6
CONTINUOUS
10
1.23
20
2.06685
11
1.17
21
2.06685
0
LINE
8
BLACK
6
CONTINUOUS
10
1.17
20
2.06685
11
1.16879
21
2.06709
0
LINE
8
BLACK
6
CONTINUOUS
10
1.16879
20
2.06709
11
1.16777
21
2.06777
0
LINE
8
BLACK
6
CONTINUOUS
10
1.16777
20
2.06777
11
1.16709
21
2.06879
0
LINE
8
BLACK
6
CONTINUOUS
10
1.16709
20
2.06879
11
1.16685
21
2.07
0
LINE
8
BLACK
6
CONTINUOUS
10
1.16685
20
2.07
11
1.16685
21
2.13
0
LINE
8
BLACK
6
CONTINUOUS
10
1.16685
20
2.13
11
1.16709
21
2.13121
0
LINE
8
BLACK
6
CONTINUOUS
10
1.16709
20
2.13121
11
1.16777
21
2.13223
0
LINE
8
BLACK
6
CONTINUOUS
10
1.16777
20
2.13223
11
1.16879
21
2.13291
0
LINE
8
BLACK
6
CONTINUOUS
10
1.16879
20
2.13291
11
1.17
21
2.13315
0
LINE
8
BLACK
6
CONTINUOUS
10
1.17
20
2.13315
11
1.23
21
2.13315
0
LINE
8
BLACK
6
CONTINUOUS
10
1.23
20
2.13315
11
1.23121
21
2.13291
0
LINE
8
BLACK
6
CONTINUOUS
10
1.33121
20
2.13291
11
1.33223
21
2.13223
0
LINE
8
BLACK
6
CONTINUOUS
10
1.33223
20
2.13223
11
1.33291
21
2.13121
0
LINE
8
BLACK
6
CONTINUOUS
10
1.33291
20
2.13121
11
1.33315
21
2.13
0
LINE
8
BLACK
6
CONTINUOUS
10
1.33315
20
2.13
11
1.33315
21
2.07
0
LINE
8
BLACK
6
CONTINUOUS
10
1.33315
20
2.07
11
1.33291
21
2.06879
0
LINE
8
BLACK
6
CONTINUOUS
10
1.33291
20
2.06879
11
1.33223
21
2.06777
0
LINE
8
BLACK
6
CONTINUOUS
10
1.33223
20
2.06777
11
1.33121
21
2.06709
0
LINE
8
BLACK
6
CONTINUOUS
10
1.33121
20
2.06709
11
1.33
21
2.06685
0
LINE
8
BLACK
6
CONTINUOUS
10
1.33
20
2.06685
11
1.27
21
2.06685
0
LINE
8
BLACK
6
CONTINUOUS
10
1.27
20
2.06685
11
1.26879
21
2.06709
0
LINE
8
BLACK
6
CONTINUOUS
10
1.26879
20
2.06709
11
1.26777
21
2.06777
0
LINE
8
BLACK
6
CONTINUOUS
10
1.26777
20
2.06777
11
1.26709
21
2.06879
0
LINE
8
BLACK
6
CONTINUOUS
10
1.26709
20
2.06879
11
1.26685
21
2.07
0
LINE
8
BLACK
6
CONTINUOUS
10
1.26685
20
2.07
11
1.26685
21
2.13
0
LINE
8
BLACK
6
CONTINUOUS
10
1.26685
20
2.13
11
1.26709
21
2.13121
0
LINE
8
BLACK
6
CONTINUOUS
10
1.26709
20
2.13121
11
1.26777
21
2.13223
0
LINE
8
BLACK
6
CONTINUOUS
10
1.26777
20
2.13223
11
1.26879
21
2.13291
0
LINE
8
BLACK
6
CONTINUOUS
10
1.26879
20
2.13291
11
1.27
21
2.13315
0
LINE
8
BLACK
6
CONTINUOUS
10
1.27
20
2.13315
11
1.33
21
2.13315
0
LINE
8
BLACK
6
CONTINUOUS
10
1.33
20
2.13315
11
1.33121
21
2.13291
0
LINE
8
BLACK
6
CONTINUOUS
10
1.43121
20
2.13291
11
1.43223
21
2.13223
0
LINE
8
BLACK
6
CONTINUOUS
10
1.43223
20
2.13223
11
1.43291
21
2.13121
0
LINE
8
BLACK
6
CONTINUOUS
10
1.43291
20
2.13121
11
1.43315
21
2.13
0
LINE
8
BLACK
6
CONTINUOUS
10
1.43315
20
2.13
11
1.43315
21
2.07
0
LINE
8
BLACK
6
CONTINUOUS
10
1.43315
20
2.07
11
1.43291
21
2.06879
0
LINE
8
BLACK
6
CONTINUOUS
10
1.43291
20
2.06879
11
1.43223
21
2.06777
0
LINE
8
BLACK
6
CONTINUOUS
10
1.43223
20
2.06777
11
1.43121
21
2.06709
0
LINE
8
BLACK
6
CONTINUOUS
10
1.43121
20
2.06709
11
1.43
21
2.06685
0
LINE
8
BLACK
6
CONTINUOUS
10
1.43
20
2.06685
11
1.37
21
2.06685
0
LINE
8
BLACK
6
CONTINUOUS
10
1.37
20
2.06685
11
1.36879
21
2.06709
0
LINE
8
BLACK
6
CONTINUOUS
10
1.36879
20
2.06709
11
1.36777
21
2.06777
0
LINE
8
BLACK
6
CONTINUOUS
10
1.36777
20
2.06777
11
1.36709
21
2.06879
0
LINE
8
BLACK
6
CONTINUOUS
10
1.36709
20
2.06879
11
1.36685
21
2.07
0
LINE
8
BLACK
6
CONTINUOUS
10
1.36685
20
2.07
11
1.36685
21
2.13
0
LINE
8
BLACK
6
CONTINUOUS
10
1.36685
20
2.13
11
1.36709
21
2.13121
0
LINE
8
BLACK
6
CONTINUOUS
10
1.36709
20
2.13121
11
1.36777
21
2.13223
0
LINE
8
BLACK
6
CONTINUOUS
10
1.36777
20
2.13223
11
1.36879
21
2.13291
0
LINE
8
BLACK
6
CONTINUOUS
10
1.36879
20
2.13291
11
1.37
21
2.13315
0
LINE
8
BLACK
6
CONTINUOUS
10
1.37
20
2.13315
11
1.43
21
2.13315
0
LINE
8
BLACK
6
CONTINUOUS
10
1.43
20
2.13315
11
1.43121
21
2.13291
0
LINE
8
BLACK
6
CONTINUOUS
10
1.53121
20
2.13291
11
1.53223
21
2.13223
0
LINE
8
BLACK
6
CONTINUOUS
10
1.53223
20
2.13223
11
1.53291
21
2.13121
0
LINE
8
BLACK
6
CONTINUOUS
10
1.53291
20
2.13121
11
1.53315
21
2.13
0
LINE
8
BLACK
6
CONTINUOUS
10
1.53315
20
2.13
11
1.53315
21
2.07
0
LINE
8
BLACK
6
CONTINUOUS
10
1.53315
20
2.07
11
1.53291
21
2.06879
0
LINE
8
BLACK
6
CONTINUOUS
10
1.53291
20
2.06879
11
1.53223
21
2.06777
0
LINE
8
BLACK
6
CONTINUOUS
10
1.53223
20
2.06777
11
1.53121
21
2.06709
0
LINE
8
BLACK
6
CONTINUOUS
10
1.53121
20
2.06709
11
1.53
21
2.06685
0
LINE
8
BLACK
6
CONTINUOUS
10
1.53
20
2.06685
11
1.47
21
2.06685
0
LINE
8
BLACK
6
CONTINUOUS
10
1.47
20
2.06685
11
1.46879
21
2.06709
0
LINE
8
BLACK
6
CONTINUOUS
10
1.46879
20
2.06709
11
1.46777
21
2.06777
0
LINE
8
BLACK
6
CONTINUOUS
10
1.46777
20
2.06777
11
1.46709
21
2.06879
0
LINE
8
BLACK
6
CONTINUOUS
10
1.46709
20
2.06879
11
1.46685
21
2.07
0
LINE
8
BLACK
6
CONTINUOUS
10
1.46685
20
2.07
11
1.46685
21
2.13
0
LINE
8
BLACK
6
CONTINUOUS
10
1.46685
20
2.13
11
1.46709
21
2.13121
0
LINE
8
BLACK
6
CONTINUOUS
10
1.46709
20
2.13121
11
1.46777
21
2.13223
0
LINE
8
BLACK
6
CONTINUOUS
10
1.46777
20
2.13223
11
1.46879
21
2.13291
0
LINE
8
BLACK
6
CONTINUOUS
10
1.46879
20
2.13291
11
1.47
21
2.13315
0
LINE
8
BLACK
6
CONTINUOUS
10
1.47
20
2.13315
11
1.53
21
2.13315
0
LINE
8
BLACK
6
CONTINUOUS
10
1.53
20
2.13315
11
1.53121
21
2.13291
0
LINE
8
BLACK
6
CONTINUOUS
10
1.63121
20
2.13291
11
1.63223
21
2.13223
0
LINE
8
BLACK
6
CONTINUOUS
10
1.63223
20
2.13223
11
1.63291
21
2.13121
0
LINE
8
BLACK
6
CONTINUOUS
10
1.63291
20
2.13121
11
1.63315
21
2.13
0
LINE
8
BLACK
6
CONTINUOUS
10
1.63315
20
2.13
11
1.63315
21
2.07
0
LINE
8
BLACK
6
CONTINUOUS
10
1.63315
20
2.07
11
1.63291
21
2.06879
0
LINE
8
BLACK
6
CONTINUOUS
10
1.63291
20
2.06879
11
1.63223
21
2.06777
0
LINE
8
BLACK
6
CONTINUOUS
10
1.63223
20
2.06777
11
1.63121
21
2.06709
0
LINE
8
BLACK
6
CONTINUOUS
10
1.63121
20
2.06709
11
1.63
21
2.06685
0
LINE
8
BLACK
6
CONTINUOUS
10
1.63
20
2.06685
11
1.57
21
2.06685
0
LINE
8
BLACK
6
CONTINUOUS
10
1.57
20
2.06685
11
1.56879
21
2.06709
0
LINE
8
BLACK
6
CONTINUOUS
10
1.56879
20
2.06709
11
1.56777
21
2.06777
0
LINE
8
BLACK
6
CONTINUOUS
10
1.56777
20
2.06777
11
1.56709
21
2.06879
0
LINE
8
BLACK
6
CONTINUOUS
10
1.56709
20
2.06879
11
1.56685
21
2.07
0
LINE
8
BLACK
6
CONTINUOUS
10
1.56685
20
2.07
11
1.56685
21
2.13
0
LINE
8
BLACK
6
CONTINUOUS
10
1.56685
20
2.13
11
1.56709
21
2.13121
0
LINE
8
BLACK
6
CONTINUOUS
10
1.56709
20
2.13121
11
1.56777
21
2.13223
0
LINE
8
BLACK
6
CONTINUOUS
10
1.56777
20
2.13223
11
1.56879
21
2.13291
0
LINE
8
BLACK
6
CONTINUOUS
10
1.56879
20
2.13291
11
1.57
21
2.13315
0
LINE
8
BLACK
6
CONTINUOUS
10
1.57
20
2.13315
11
1.63
21
2.13315
0
LINE
8
BLACK
6
CONTINUOUS
10
1.63
20
2.13315
11
1.63121
21
2.13291
0
LINE
8
BLACK
6
CONTINUOUS
10
1.73121
20
2.13291
11
1.73223
21
2.13223
0
LINE
8
BLACK
6
CONTINUOUS
10
1.73223
20
2.13223
11
1.73291
21
2.13121
0
LINE
8
BLACK
6
CONTINUOUS
10
1.73291
20
2.13121
11
1.73315
21
2.13
0
LINE
8
BLACK
6
CONTINUOUS
10
1.73315
20
2.13
11
1.73315
21
2.07
0
LINE
8
BLACK
6
CONTINUOUS
10
1.73315
20
2.07
11
1.73291
21
2.06879
0
LINE
8
BLACK
6
CONTINUOUS
10
1.73291
20
2.06879
11
1.73223
21
2.06777
0
LINE
8
BLACK
6
CONTINUOUS
10
1.73223
20
2.06777
11
1.73121
21
2.06709
0
LINE
8
BLACK
6
CONTINUOUS
10
1.73121
20
2.06709
11
1.73
21
2.06685
0
LINE
8
BLACK
6
CONTINUOUS
10
1.73
20
2.06685
11
1.67
21
2.06685
0
LINE
8
BLACK
6
CONTINUOUS
10
1.67
20
2.06685
11
1.66879
21
2.06709
0
LINE
8
BLACK
6
CONTINUOUS
10
1.66879
20
2.06709
11
1.66777
21
2.06777
0
LINE
8
BLACK
6
CONTINUOUS
10
1.66777
20
2.06777
11
1.66709
21
2.06879
0
LINE
8
BLACK
6
CONTINUOUS
10
1.66709
20
2.06879
11
1.66685
21
2.07
0
LINE
8
BLACK
6
CONTINUOUS
10
1.66685
20
2.07
11
1.66685
21
2.13
0
LINE
8
BLACK
6
CONTINUOUS
10
1.66685
20
2.13
11
1.66709
21
2.13121
0
LINE
8
BLACK
6
CONTINUOUS
10
1.66709
20
2.13121
11
1.66777
21
2.13223
0
LINE
8
BLACK
6
CONTINUOUS
10
1.66777
20
2.13223
11
1.66879
21
2.13291
0
LINE
8
BLACK
6
CONTINUOUS
10
1.66879
20
2.13291
11
1.67
21
2.13315
0
LINE
8
BLACK
6
CONTINUOUS
10
1.67
20
2.13315
11
1.73
21
2.13315
0
LINE
8
BLACK
6
CONTINUOUS
10
1.73
20
2.13315
11
1.73121
21
2.13291
0
LINE
8
BLACK
6
CONTINUOUS
10
1.83121
20
2.13291
11
1.83223
21
2.13223
0
LINE
8
BLACK
6
CONTINUOUS
10
1.83223
20
2.13223
11
1.83291
21
2.13121
0
LINE
8
BLACK
6
CONTINUOUS
10
1.83291
20
2.13121
11
1.83315
21
2.13
0
LINE
8
BLACK
6
CONTINUOUS
10
1.83315
20
2.13
11
1.83315
21
2.07
0
LINE
8
BLACK
6
CONTINUOUS
10
1.83315
20
2.07
11
1.83291
21
2.06879
0
LINE
8
BLACK
6
CONTINUOUS
10
1.83291
20
2.06879
11
1.83223
21
2.06777
0
LINE
8
BLACK
6
CONTINUOUS
10
1.83223
20
2.06777
11
1.83121
21
2.06709
0
LINE
8
BLACK
6
CONTINUOUS
10
1.83121
20
2.06709
11
1.83
21
2.06685
0
LINE
8
BLACK
6
CONTINUOUS
10
1.83
20
2.06685
11
1.77
21
2.06685
0
LINE
8
BLACK
6
CONTINUOUS
10
1.77
20
2.06685
11
1.76879
21
2.06709
0
LINE
8
BLACK
6
CONTINUOUS
10
1.76879
20
2.06709
11
1.76777
21
2.06777
0
LINE
8
BLACK
6
CONTINUOUS
10
1.76777
20
2.06777
11
1.76709
21
2.06879
0
LINE
8
BLACK
6
CONTINUOUS
10
1.76709
20
2.06879
11
1.76685
21
2.07
0
LINE
8
BLACK
6
CONTINUOUS
10
1.76685
20
2.07
11
1.76685
21
2.13
0
LINE
8
BLACK
6
CONTINUOUS
10
1.76685
20
2.13
11
1.76709
21
2.13121
0
LINE
8
BLACK
6
CONTINUOUS
10
1.76709
20
2.13121
11
1.76777
21
2.13223
0
LINE
8
BLACK
6
CONTINUOUS
10
1.76777
20
2.13223
11
1.76879
21
2.13291
0
LINE
8
BLACK
6
CONTINUOUS
10
1.76879
20
2.13291
11
1.77
21
2.13315
0
LINE
8
BLACK
6
CONTINUOUS
10
1.77
20
2.13315
11
1.83
21
2.13315
0
LINE
8
BLACK
6
CONTINUOUS
10
1.83
20
2.13315
11
1.83121
21
2.13291
0
LINE
8
BLACK
6
CONTINUOUS
10
1.93121
20
2.13291
11
1.93223
21
2.13223
0
LINE
8
BLACK
6
CONTINUOUS
10
1.93223
20
2.13223
11
1.93291
21
2.13121
0
LINE
8
BLACK
6
CONTINUOUS
10
1.93291
20
2.13121
11
1.93315
21
2.13
0
LINE
8
BLACK
6
CONTINUOUS
10
1.93315
20
2.13
11
1.93315
21
2.07
0
LINE
8
BLACK
6
CONTINUOUS
10
1.93315
20
2.07
11
1.93291
21
2.06879
0
LINE
8
BLACK
6
CONTINUOUS
10
1.93291
20
2.06879
11
1.93223
21
2.06777
0
LINE
8
BLACK
6
CONTINUOUS
10
1.93223
20
2.06777
11
1.93121
21
2.06709
0
LINE
8
BLACK
6
CONTINUOUS
10
1.93121
20
2.06709
11
1.93
21
2.06685
0
LINE
8
BLACK
6
CONTINUOUS
10
1.93
20
2.06685
11
1.87
21
2.06685
0
LINE
8
BLACK
6
CONTINUOUS
10
1.87
20
2.06685
11
1.86879
21
2.06709
0
LINE
8
BLACK
6
CONTINUOUS
10
1.86879
20
2.06709
11
1.86777
21
2.06777
0
LINE
8
BLACK
6
CONTINUOUS
10
1.86777
20
2.06777
11
1.86709
21
2.06879
0
LINE
8
BLACK
6
CONTINUOUS
10
1.86709
20
2.06879
11
1.86685
21
2.07
0
LINE
8
BLACK
6
CONTINUOUS
10
1.86685
20
2.07
11
1.86685
21
2.13
0
LINE
8
BLACK
6
CONTINUOUS
10
1.86685
20
2.13
11
1.86709
21
2.13121
0
LINE
8
BLACK
6
CONTINUOUS
10
1.86709
20
2.13121
11
1.86777
21
2.13223
0
LINE
8
BLACK
6
CONTINUOUS
10
1.86777
20
2.13223
11
1.86879
21
2.13291
0
LINE
8
BLACK
6
CONTINUOUS
10
1.86879
20
2.13291
11
1.87
21
2.13315
0
LINE
8
BLACK
6
CONTINUOUS
10
1.87
20
2.13315
11
1.93
21
2.13315
0
LINE
8
BLACK
6
CONTINUOUS
10
1.93
20
2.13315
11
1.93121
21
2.13291
0
LINE
8
BLACK
6
CONTINUOUS
10
2.03121
20
2.13291
11
2.03223
21
2.13223
0
LINE
8
BLACK
6
CONTINUOUS
10
2.03223
20
2.13223
11
2.03291
21
2.13121
0
LINE
8
BLACK
6
CONTINUOUS
10
2.03291
20
2.13121
11
2.03315
21
2.13
0
LINE
8
BLACK
6
CONTINUOUS
10
2.03315
20
2.13
11
2.03315
21
2.07
0
LINE
8
BLACK
6
CONTINUOUS
10
2.03315
20
2.07
11
2.03291
21
2.06879
0
LINE
8
BLACK
6
CONTINUOUS
10
2.03291
20
2.06879
11
2.03223
21
2.06777
0
LINE
8
BLACK
6
CONTINUOUS
10
2.03223
20
2.06777
11
2.03121
21
2.06709
0
LINE
8
BLACK
6
CONTINUOUS
10
2.03121
20
2.06709
11
2.03
21
2.06685
0
LINE
8
BLACK
6
CONTINUOUS
10
2.03
20
2.06685
11
1.97
21
2.06685
0
LINE
8
BLACK
6
CONTINUOUS
10
1.97
20
2.06685
11
1.96879
21
2.06709
0
LINE
8
BLACK
6
CONTINUOUS
10
1.96879
20
2.06709
11
1.96777
21
2.06777
0
LINE
8
BLACK
6
CONTINUOUS
10
1.96777
20
2.06777
11
1.96709
21
2.06879
0
LINE
8
BLACK
6
CONTINUOUS
10
1.96709
20
2.06879
11
1.96685
21
2.07
0
LINE
8
BLACK
6
CONTINUOUS
10
1.96685
20
2.07
11
1.96685
21
2.13
0
LINE
8
BLACK
6
CONTINUOUS
10
1.96685
20
2.13
11
1.96709
21
2.13121
0
LINE
8
BLACK
6
CONTINUOUS
10
1.96709
20
2.13121
11
1.96777
21
2.13223
0
LINE
8
BLACK
6
CONTINUOUS
10
1.96777
20
2.13223
11
1.96879
21
2.13291
0
LINE
8
BLACK
6
CONTINUOUS
10
1.96879
20
2.13291
11
1.97
21
2.13315
0
LINE
8
BLACK
6
CONTINUOUS
10
1.97
20
2.13315
11
2.03
21
2.13315
0
LINE
8
BLACK
6
CONTINUOUS
10
2.03
20
2.13315
11
2.03121
21
2.13291
0
LINE
8
BLACK
6
CONTINUOUS
10
2.13121
20
2.13291
11
2.13223
21
2.13223
0
LINE
8
BLACK
6
CONTINUOUS
10
2.13223
20
2.13223
11
2.13291
21
2.13121
0
LINE
8
BLACK
6
CONTINUOUS
10
2.13291
20
2.13121
11
2.13315
21
2.13
0
LINE
8
BLACK
6
CONTINUOUS
10
2.13315
20
2.13
11
2.13315
21
2.07
0
LINE
8
BLACK
6
CONTINUOUS
10
2.13315
20
2.07
11
2.13291
21
2.06879
0
LINE
8
BLACK
6
CONTINUOUS
10
2.13291
20
2.06879
11
2.13223
21
2.06777
0
LINE
8
BLACK
6
CONTINUOUS
10
2.13223
20
2.06777
11
2.13121
21
2.06709
0
LINE
8
BLACK
6
CONTINUOUS
10
2.13121
20
2.06709
11
2.13
21
2.06685
0
LINE
8
BLACK
6
CONTINUOUS
10
2.13
20
2.06685
11
2.07
21
2.06685
0
LINE
8
BLACK
6
CONTINUOUS
10
2.07
20
2.06685
11
2.06879
21
2.06709
0
LINE
8
BLACK
6
CONTINUOUS
10
2.06879
20
2.06709
11
2.06777
21
2.06777
0
LINE
8
BLACK
6
CONTINUOUS
10
2.06777
20
2.06777
11
2.06709
21
2.06879
0
LINE
8
BLACK
6
CONTINUOUS
10
2.06709
20
2.06879
11
2.06685
21
2.07
0
LINE
8
BLACK
6
CONTINUOUS
10
2.06685
20
2.07
11
2.06685
21
2.13
0
LINE
8
BLACK
6
CONTINUOUS
10
2.06685
20
2.13
11
2.06709
21
2.13121
0
LINE
8
BLACK
6
CONTINUOUS
10
2.06709
20
2.13121
11
2.06777
21
2.13223
0
LINE
8
BLACK
6
CONTINUOUS
10
2.06777
20
2.13223
11
2.06879
21
2.13291
0
LINE
8
BLACK
6
CONTINUOUS
10
2.06879
20
2.13291
11
2.07
21
2.13315
0
LINE
8
BLACK
6
CONTINUOUS
10
2.07
20
2.13315
11
2.13
21
2.13315
0
LINE
8
BLACK
6
CONTINUOUS
10
2.13
20
2.13315
11
2.13121
21
2.13291
0
LINE
8
BLACK
6
CONTINUOUS
10
2.23121
20
2.13291
11
2.23223
21
2.13223
0
LINE
8
BLACK
6
CONTINUOUS
10
2.23223
20
2.13223
11
2.23291
21
2.13121
0
LINE
8
BLACK
6
CONTINUOUS
10
2.23291
20
2.13121
11
2.23315
21
2.13
0
LINE
8
BLACK
6
CONTINUOUS
10
2.23315
20
2.13
11
2.23315
21
2.07
0
LINE
8
BLACK
6
CONTINUOUS
10
2.23315
20
2.07
11
2.23291
21
2.06879
0
LINE
8
BLACK
6
CONTINUOUS
10
2.23291
20
2.06879
11
2.23223
21
2.06777
0
LINE
8
BLACK
6
CONTINUOUS
10
2.23223
20
2.06777
11
2.23121
21
2.06709
0
LINE
8
BLACK
6
CONTINUOUS
10
2.23121
20
2.06709
11
2.23
21
2.06685
0
LINE
8
BLACK
6
CONTINUOUS
10
2.23
20
2.06685
11
2.17
21
2.06685
0
LINE
8
BLACK
6
CONTINUOUS
10
2.17
20
2.06685
11
2.16879
21
2.06709
0
LINE
8
BLACK
6
CONTINUOUS
10
2.16879
20
2.06709
11
2.16777
21
2.06777
0
LINE
8
BLACK
6
CONTINUOUS
10
2.16777
20
2.06777
11
2.16709
21
2.06879
0
LINE
8
BLACK
6
CONTINUOUS
10
2.16709
20
2.06879
11
2.16685
21
2.07
0
LINE
8
BLACK
6
CONTINUOUS
10
2.16685
20
2.07
11
2.16685
21
2.13
0
LINE
8
BLACK
6
CONTINUOUS
10
2.16685
20
2.13
11
2.16709
21
2.13121
0
LINE
8
BLACK
6
CONTINUOUS
10
2.16709
20
2.13121
11
2.16777
21
2.13223
0
LINE
8
BLACK
6
CONTINUOUS
10
2.16777
20
2.13223
11
2.16879
21
2.13291
0
LINE
8
BLACK
6
CONTINUOUS
10
2.16879
20
2.13291
11
2.17
21
2.13315
0
LINE
8
BLACK
6
CONTINUOUS
10
2.17
20
2.13315
11
2.23
21
2.13315
0
LINE
8
BLACK
6
CONTINUOUS
10
2.23
20
2.13315
11
2.23121
21
2.13291
0
LINE
8
BLACK
6
CONTINUOUS
10
2.33121
20
2.13291
11
2.33223
21
2.13223
0
LINE
8
BLACK
6
CONTINUOUS
10
2.33223
20
2.13223
11
2.33291
21
2.13121
0
LINE
8
BLACK
6
CONTINUOUS
10
2.33291
20
2.13121
11
2.33315
21
2.13
0
LINE
8
BLACK
6
CONTINUOUS
10
2.33315
20
2.13
11
2.33315
21
2.07
0
LINE
8
BLACK
6
CONTINUOUS
10
2.33315
20
2.07
11
2.33291
21
2.06879
0
LINE
8
BLACK
6
CONTINUOUS
10
2.33291
20
2.06879
11
2.33223
21
2.06777
0
LINE
8
BLACK
6
CONTINUOUS
10
2.33223
20
2.06777
11
2.33121
21
2.06709
0
LINE
8
BLACK
6
CONTINUOUS
10
2.33121
20
2.06709
11
2.33
21
2.06685
0
LINE
8
BLACK
6
CONTINUOUS
10
2.33
20
2.06685
11
2.27
21
2.06685
0
LINE
8
BLACK
6
CONTINUOUS
10
2.27
20
2.06685
11
2.26879
21
2.06709
0
LINE
8
BLACK
6
CONTINUOUS
10
2.26879
20
2.06709
11
2.26777
21
2.06777
0
LINE
8
BLACK
6
CONTINUOUS
10
2.26777
20
2.06777
11
2.26709
21
2.06879
0
LINE
8
BLACK
6
CONTINUOUS
10
2.26709
20
2.06879
11
2.26685
21
2.07
0
LINE
8
BLACK
6
CONTINUOUS
10
2.26685
20
2.07
11
2.26685
21
2.13
0
LINE
8
BLACK
6
CONTINUOUS
10
2.26685
20
2.13
11
2.26709
21
2.13121
0
LINE
8
BLACK
6
CONTINUOUS
10
2.26709
20
2.13121
11
2.26777
21
2.13223
0
LINE
8
BLACK
6
CONTINUOUS
10
2.26777
20
2.13223
11
2.26879
21
2.13291
0
LINE
8
BLACK
6
CONTINUOUS
10
2.26879
20
2.13291
11
2.27
21
2.13315
0
LINE
8
BLACK
6
CONTINUOUS
10
2.27
20
2.13315
11
2.33
21
2.13315
0
LINE
8
BLACK
6
CONTINUOUS
10
2.33
20
2.13315
11
2.33121
21
2.13291
  0
ENDSEC
  0
EOF
