  0
SECTION
  2
HEADER
  9
$ANGBASE
  50
0.0
  9
$ANGDIR
  70
1
  9
$MEASUREMENT
  70
0
  0
ENDSEC
  0
SECTION
  2
TABLES
  0
TABLE
  2
LTYPE
  70
4
  0
LTYPE
  5
40F
  2
CONTINUOUS
  70
0
  3
Solid line
  72
65
  73
0
  40
0.0
  0
LTYPE
  5
410
  2
DASHDOT
 70
0
  3
Dash Dot ____ _ ____ _
 72
65
 73
4
 40
2.0
 49
1.25
 49
-0.25
 49
0.25
 49
-0.25
  0
LTYPE
  5
411
  2
DASHED
 70
0
  3
Dashed __ __ __ __ __
 72
65
 73
2
 40
0.75
 49
0.5
 49
-0.25
  0
LTYPE
  5
43B
  2
DOTTED
 70
0
  3
Dotted .  .  .  .
 72
65
 73
2
 40
0.2
 49
0.0
 49
-0.2
  0
ENDTAB
  0
TABLE
  2
STYLE
  70
4
  0
STYLE
  2
KICAD
  70
0
  40
0
  41
1
  42
1
  50
0
  71
0
  3
isocp.shx
  0
STYLE
  2
KICADB
  70
0
  40
0
  41
1
  42
1
  50
0
  71
0
  3
isocp.shx
  0
STYLE
  2
KICADI
  70
0
  40
0
  41
1
  42
1
  50
15
  71
0
  3
isocp.shx
  0
STYLE
  2
KICADBI
  70
0
  40
0
  41
1
  42
1
  50
15
  71
0
  3
isocp.shx
  0
ENDTAB
  0
TABLE
  2
LAYER
  70
1
  0
LAYER
  2
BLACK
  70
0
  62
7
  6
CONTINUOUS
  0
ENDTAB
  0
ENDSEC
  0
SECTION
  2
ENTITIES
0
LINE
8
BLACK
6
CONTINUOUS
10
0.414063
20
0.52481
11
0.427949
21
0.522451
0
LINE
8
BLACK
6
CONTINUOUS
10
0.427949
20
0.522451
11
0.441483
21
0.518552
0
LINE
8
BLACK
6
CONTINUOUS
10
0.441483
20
0.518552
11
0.454496
21
0.513162
0
LINE
8
BLACK
6
CONTINUOUS
10
0.454496
20
0.513162
11
0.466823
21
0.506349
0
LINE
8
BLACK
6
CONTINUOUS
10
0.466823
20
0.506349
11
0.47831
21
0.498198
0
LINE
8
BLACK
6
CONTINUOUS
10
0.47831
20
0.498198
11
0.488813
21
0.488813
0
LINE
8
BLACK
6
CONTINUOUS
10
0.488813
20
0.488813
11
0.498198
21
0.47831
0
LINE
8
BLACK
6
CONTINUOUS
10
0.498198
20
0.47831
11
0.506349
21
0.466823
0
LINE
8
BLACK
6
CONTINUOUS
10
0.506349
20
0.466823
11
0.513162
21
0.454496
0
LINE
8
BLACK
6
CONTINUOUS
10
0.513162
20
0.454496
11
0.518552
21
0.441483
0
LINE
8
BLACK
6
CONTINUOUS
10
0.518552
20
0.441483
11
0.522451
21
0.427949
0
LINE
8
BLACK
6
CONTINUOUS
10
0.522451
20
0.427949
11
0.52481
21
0.414063
0
LINE
8
BLACK
6
CONTINUOUS
10
0.52481
20
0.414063
11
0.5256
21
0.4
0
LINE
8
BLACK
6
CONTINUOUS
10
0.5256
20
0.4
11
0.52481
21
0.385937
0
LINE
8
BLACK
6
CONTINUOUS
10
0.52481
20
0.385937
11
0.522451
21
0.372051
0
LINE
8
BLACK
6
CONTINUOUS
10
0.522451
20
0.372051
11
0.518552
21
0.358517
0
LINE
8
BLACK
6
CONTINUOUS
10
0.518552
20
0.358517
11
0.513162
21
0.345504
0
LINE
8
BLACK
6
CONTINUOUS
10
0.513162
20
0.345504
11
0.506349
21
0.333177
0
LINE
8
BLACK
6
CONTINUOUS
10
0.506349
20
0.333177
11
0.498198
21
0.32169
0
LINE
8
BLACK
6
CONTINUOUS
10
0.498198
20
0.32169
11
0.488813
21
0.311187
0
LINE
8
BLACK
6
CONTINUOUS
10
0.488813
20
0.311187
11
0.47831
21
0.301802
0
LINE
8
BLACK
6
CONTINUOUS
10
0.47831
20
0.301802
11
0.466823
21
0.293651
0
LINE
8
BLACK
6
CONTINUOUS
10
0.466823
20
0.293651
11
0.454496
21
0.286838
0
LINE
8
BLACK
6
CONTINUOUS
10
0.454496
20
0.286838
11
0.441483
21
0.281448
0
LINE
8
BLACK
6
CONTINUOUS
10
0.441483
20
0.281448
11
0.427949
21
0.277549
0
LINE
8
BLACK
6
CONTINUOUS
10
0.427949
20
0.277549
11
0.414063
21
0.27519
0
LINE
8
BLACK
6
CONTINUOUS
10
0.414063
20
0.27519
11
0.4
21
0.2744
0
LINE
8
BLACK
6
CONTINUOUS
10
0.4
20
0.2744
11
0.385937
21
0.27519
0
LINE
8
BLACK
6
CONTINUOUS
10
0.385937
20
0.27519
11
0.372051
21
0.277549
0
LINE
8
BLACK
6
CONTINUOUS
10
0.372051
20
0.277549
11
0.358517
21
0.281448
0
LINE
8
BLACK
6
CONTINUOUS
10
0.358517
20
0.281448
11
0.345504
21
0.286838
0
LINE
8
BLACK
6
CONTINUOUS
10
0.345504
20
0.286838
11
0.333177
21
0.293651
0
LINE
8
BLACK
6
CONTINUOUS
10
0.333177
20
0.293651
11
0.32169
21
0.301802
0
LINE
8
BLACK
6
CONTINUOUS
10
0.32169
20
0.301802
11
0.311187
21
0.311187
0
LINE
8
BLACK
6
CONTINUOUS
10
0.311187
20
0.311187
11
0.301802
21
0.32169
0
LINE
8
BLACK
6
CONTINUOUS
10
0.301802
20
0.32169
11
0.293651
21
0.333177
0
LINE
8
BLACK
6
CONTINUOUS
10
0.293651
20
0.333177
11
0.286838
21
0.345504
0
LINE
8
BLACK
6
CONTINUOUS
10
0.286838
20
0.345504
11
0.281448
21
0.358517
0
LINE
8
BLACK
6
CONTINUOUS
10
0.281448
20
0.358517
11
0.277549
21
0.372051
0
LINE
8
BLACK
6
CONTINUOUS
10
0.277549
20
0.372051
11
0.27519
21
0.385937
0
LINE
8
BLACK
6
CONTINUOUS
10
0.27519
20
0.385937
11
0.2744
21
0.4
0
LINE
8
BLACK
6
CONTINUOUS
10
0.2744
20
0.4
11
0.27519
21
0.414063
0
LINE
8
BLACK
6
CONTINUOUS
10
0.27519
20
0.414063
11
0.277549
21
0.427949
0
LINE
8
BLACK
6
CONTINUOUS
10
0.277549
20
0.427949
11
0.281448
21
0.441483
0
LINE
8
BLACK
6
CONTINUOUS
10
0.281448
20
0.441483
11
0.286838
21
0.454496
0
LINE
8
BLACK
6
CONTINUOUS
10
0.286838
20
0.454496
11
0.293651
21
0.466823
0
LINE
8
BLACK
6
CONTINUOUS
10
0.293651
20
0.466823
11
0.301802
21
0.47831
0
LINE
8
BLACK
6
CONTINUOUS
10
0.301802
20
0.47831
11
0.311187
21
0.488813
0
LINE
8
BLACK
6
CONTINUOUS
10
0.311187
20
0.488813
11
0.32169
21
0.498198
0
LINE
8
BLACK
6
CONTINUOUS
10
0.32169
20
0.498198
11
0.333177
21
0.506349
0
LINE
8
BLACK
6
CONTINUOUS
10
0.333177
20
0.506349
11
0.345504
21
0.513162
0
LINE
8
BLACK
6
CONTINUOUS
10
0.345504
20
0.513162
11
0.358517
21
0.518552
0
LINE
8
BLACK
6
CONTINUOUS
10
0.358517
20
0.518552
11
0.372051
21
0.522451
0
LINE
8
BLACK
6
CONTINUOUS
10
0.372051
20
0.522451
11
0.385937
21
0.52481
0
LINE
8
BLACK
6
CONTINUOUS
10
0.385937
20
0.52481
11
0.4
21
0.5256
0
LINE
8
BLACK
6
CONTINUOUS
10
0.4
20
0.5256
11
0.414063
21
0.52481
0
LINE
8
BLACK
6
CONTINUOUS
10
0.289962
20
0.387138
11
0.292199
21
0.374451
0
LINE
8
BLACK
6
CONTINUOUS
10
0.292199
20
0.374451
11
0.295894
21
0.362108
0
LINE
8
BLACK
6
CONTINUOUS
10
0.295894
20
0.362108
11
0.300997
21
0.350279
0
LINE
8
BLACK
6
CONTINUOUS
10
0.300997
20
0.350279
11
0.307438
21
0.339121
0
LINE
8
BLACK
6
CONTINUOUS
10
0.307438
20
0.339121
11
0.315132
21
0.328787
0
LINE
8
BLACK
6
CONTINUOUS
10
0.315132
20
0.328787
11
0.323973
21
0.319416
0
LINE
8
BLACK
6
CONTINUOUS
10
0.323973
20
0.319416
11
0.333842
21
0.311135
0
LINE
8
BLACK
6
CONTINUOUS
10
0.333842
20
0.311135
11
0.344606
21
0.304055
0
LINE
8
BLACK
6
CONTINUOUS
10
0.344606
20
0.304055
11
0.356119
21
0.298273
0
LINE
8
BLACK
6
CONTINUOUS
10
0.356119
20
0.298273
11
0.368226
21
0.293867
0
LINE
8
BLACK
6
CONTINUOUS
10
0.368226
20
0.293867
11
0.380762
21
0.290896
0
LINE
8
BLACK
6
CONTINUOUS
10
0.380762
20
0.290896
11
0.393558
21
0.2894
0
LINE
8
BLACK
6
CONTINUOUS
10
0.393558
20
0.2894
11
0.406442
21
0.2894
0
LINE
8
BLACK
6
CONTINUOUS
10
0.406442
20
0.2894
11
0.419238
21
0.290896
0
LINE
8
BLACK
6
CONTINUOUS
10
0.419238
20
0.290896
11
0.431774
21
0.293867
0
LINE
8
BLACK
6
CONTINUOUS
10
0.431774
20
0.293867
11
0.443881
21
0.298273
0
LINE
8
BLACK
6
CONTINUOUS
10
0.443881
20
0.298273
11
0.455394
21
0.304055
0
LINE
8
BLACK
6
CONTINUOUS
10
0.455394
20
0.304055
11
0.466158
21
0.311135
0
LINE
8
BLACK
6
CONTINUOUS
10
0.466158
20
0.311135
11
0.476027
21
0.319416
0
LINE
8
BLACK
6
CONTINUOUS
10
0.476027
20
0.319416
11
0.484868
21
0.328787
0
LINE
8
BLACK
6
CONTINUOUS
10
0.484868
20
0.328787
11
0.492562
21
0.339121
0
LINE
8
BLACK
6
CONTINUOUS
10
0.492562
20
0.339121
11
0.499003
21
0.350279
0
LINE
8
BLACK
6
CONTINUOUS
10
0.499003
20
0.350279
11
0.504106
21
0.362108
0
LINE
8
BLACK
6
CONTINUOUS
10
0.504106
20
0.362108
11
0.507801
21
0.374451
0
LINE
8
BLACK
6
CONTINUOUS
10
0.507801
20
0.374451
11
0.510038
21
0.387138
0
LINE
8
BLACK
6
CONTINUOUS
10
0.510038
20
0.387138
11
0.510787
21
0.4
0
LINE
8
BLACK
6
CONTINUOUS
10
0.510787
20
0.4
11
0.510038
21
0.412862
0
LINE
8
BLACK
6
CONTINUOUS
10
0.510038
20
0.412862
11
0.507801
21
0.425549
0
LINE
8
BLACK
6
CONTINUOUS
10
0.507801
20
0.425549
11
0.504106
21
0.437892
0
LINE
8
BLACK
6
CONTINUOUS
10
0.504106
20
0.437892
11
0.499003
21
0.449721
0
LINE
8
BLACK
6
CONTINUOUS
10
0.499003
20
0.449721
11
0.492562
21
0.460879
0
LINE
8
BLACK
6
CONTINUOUS
10
0.492562
20
0.460879
11
0.484868
21
0.471213
0
LINE
8
BLACK
6
CONTINUOUS
10
0.484868
20
0.471213
11
0.476027
21
0.480584
0
LINE
8
BLACK
6
CONTINUOUS
10
0.476027
20
0.480584
11
0.466158
21
0.488865
0
LINE
8
BLACK
6
CONTINUOUS
10
0.466158
20
0.488865
11
0.455394
21
0.495945
0
LINE
8
BLACK
6
CONTINUOUS
10
0.455394
20
0.495945
11
0.443881
21
0.501727
0
LINE
8
BLACK
6
CONTINUOUS
10
0.443881
20
0.501727
11
0.431774
21
0.506133
0
LINE
8
BLACK
6
CONTINUOUS
10
0.431774
20
0.506133
11
0.419238
21
0.509104
0
LINE
8
BLACK
6
CONTINUOUS
10
0.419238
20
0.509104
11
0.406442
21
0.5106
0
LINE
8
BLACK
6
CONTINUOUS
10
0.406442
20
0.5106
11
0.393558
21
0.5106
0
LINE
8
BLACK
6
CONTINUOUS
10
0.393558
20
0.5106
11
0.380762
21
0.509104
0
LINE
8
BLACK
6
CONTINUOUS
10
0.380762
20
0.509104
11
0.368226
21
0.506133
0
LINE
8
BLACK
6
CONTINUOUS
10
0.368226
20
0.506133
11
0.356119
21
0.501727
0
LINE
8
BLACK
6
CONTINUOUS
10
0.356119
20
0.501727
11
0.344606
21
0.495945
0
LINE
8
BLACK
6
CONTINUOUS
10
0.344606
20
0.495945
11
0.333842
21
0.488865
0
LINE
8
BLACK
6
CONTINUOUS
10
0.333842
20
0.488865
11
0.323973
21
0.480584
0
LINE
8
BLACK
6
CONTINUOUS
10
0.323973
20
0.480584
11
0.315132
21
0.471213
0
LINE
8
BLACK
6
CONTINUOUS
10
0.315132
20
0.471213
11
0.307438
21
0.460879
0
LINE
8
BLACK
6
CONTINUOUS
10
0.307438
20
0.460879
11
0.300997
21
0.449721
0
LINE
8
BLACK
6
CONTINUOUS
10
0.300997
20
0.449721
11
0.295894
21
0.437892
0
LINE
8
BLACK
6
CONTINUOUS
10
0.295894
20
0.437892
11
0.292199
21
0.425549
0
LINE
8
BLACK
6
CONTINUOUS
10
0.292199
20
0.425549
11
0.289962
21
0.412862
0
LINE
8
BLACK
6
CONTINUOUS
10
0.289962
20
0.412862
11
0.289213
21
0.4
0
LINE
8
BLACK
6
CONTINUOUS
10
0.289213
20
0.4
11
0.289962
21
0.387138
0
LINE
8
BLACK
6
CONTINUOUS
10
2.81406
20
0.52481
11
2.82795
21
0.522451
0
LINE
8
BLACK
6
CONTINUOUS
10
2.82795
20
0.522451
11
2.84148
21
0.518552
0
LINE
8
BLACK
6
CONTINUOUS
10
2.84148
20
0.518552
11
2.8545
21
0.513162
0
LINE
8
BLACK
6
CONTINUOUS
10
2.8545
20
0.513162
11
2.86682
21
0.506349
0
LINE
8
BLACK
6
CONTINUOUS
10
2.86682
20
0.506349
11
2.87831
21
0.498198
0
LINE
8
BLACK
6
CONTINUOUS
10
2.87831
20
0.498198
11
2.88881
21
0.488813
0
LINE
8
BLACK
6
CONTINUOUS
10
2.88881
20
0.488813
11
2.8982
21
0.47831
0
LINE
8
BLACK
6
CONTINUOUS
10
2.8982
20
0.47831
11
2.90635
21
0.466823
0
LINE
8
BLACK
6
CONTINUOUS
10
2.90635
20
0.466823
11
2.91316
21
0.454496
0
LINE
8
BLACK
6
CONTINUOUS
10
2.91316
20
0.454496
11
2.91855
21
0.441483
0
LINE
8
BLACK
6
CONTINUOUS
10
2.91855
20
0.441483
11
2.92245
21
0.427949
0
LINE
8
BLACK
6
CONTINUOUS
10
2.92245
20
0.427949
11
2.92481
21
0.414063
0
LINE
8
BLACK
6
CONTINUOUS
10
2.92481
20
0.414063
11
2.9256
21
0.4
0
LINE
8
BLACK
6
CONTINUOUS
10
2.9256
20
0.4
11
2.92481
21
0.385937
0
LINE
8
BLACK
6
CONTINUOUS
10
2.92481
20
0.385937
11
2.92245
21
0.372051
0
LINE
8
BLACK
6
CONTINUOUS
10
2.92245
20
0.372051
11
2.91855
21
0.358517
0
LINE
8
BLACK
6
CONTINUOUS
10
2.91855
20
0.358517
11
2.91316
21
0.345504
0
LINE
8
BLACK
6
CONTINUOUS
10
2.91316
20
0.345504
11
2.90635
21
0.333177
0
LINE
8
BLACK
6
CONTINUOUS
10
2.90635
20
0.333177
11
2.8982
21
0.32169
0
LINE
8
BLACK
6
CONTINUOUS
10
2.8982
20
0.32169
11
2.88881
21
0.311187
0
LINE
8
BLACK
6
CONTINUOUS
10
2.88881
20
0.311187
11
2.87831
21
0.301802
0
LINE
8
BLACK
6
CONTINUOUS
10
2.87831
20
0.301802
11
2.86682
21
0.293651
0
LINE
8
BLACK
6
CONTINUOUS
10
2.86682
20
0.293651
11
2.8545
21
0.286838
0
LINE
8
BLACK
6
CONTINUOUS
10
2.8545
20
0.286838
11
2.84148
21
0.281448
0
LINE
8
BLACK
6
CONTINUOUS
10
2.84148
20
0.281448
11
2.82795
21
0.277549
0
LINE
8
BLACK
6
CONTINUOUS
10
2.82795
20
0.277549
11
2.81406
21
0.27519
0
LINE
8
BLACK
6
CONTINUOUS
10
2.81406
20
0.27519
11
2.8
21
0.2744
0
LINE
8
BLACK
6
CONTINUOUS
10
2.8
20
0.2744
11
2.78594
21
0.27519
0
LINE
8
BLACK
6
CONTINUOUS
10
2.78594
20
0.27519
11
2.77205
21
0.277549
0
LINE
8
BLACK
6
CONTINUOUS
10
2.77205
20
0.277549
11
2.75852
21
0.281448
0
LINE
8
BLACK
6
CONTINUOUS
10
2.75852
20
0.281448
11
2.7455
21
0.286838
0
LINE
8
BLACK
6
CONTINUOUS
10
2.7455
20
0.286838
11
2.73318
21
0.293651
0
LINE
8
BLACK
6
CONTINUOUS
10
2.73318
20
0.293651
11
2.72169
21
0.301802
0
LINE
8
BLACK
6
CONTINUOUS
10
2.72169
20
0.301802
11
2.71119
21
0.311187
0
LINE
8
BLACK
6
CONTINUOUS
10
2.71119
20
0.311187
11
2.7018
21
0.32169
0
LINE
8
BLACK
6
CONTINUOUS
10
2.7018
20
0.32169
11
2.69365
21
0.333177
0
LINE
8
BLACK
6
CONTINUOUS
10
2.69365
20
0.333177
11
2.68684
21
0.345504
0
LINE
8
BLACK
6
CONTINUOUS
10
2.68684
20
0.345504
11
2.68145
21
0.358517
0
LINE
8
BLACK
6
CONTINUOUS
10
2.68145
20
0.358517
11
2.67755
21
0.372051
0
LINE
8
BLACK
6
CONTINUOUS
10
2.67755
20
0.372051
11
2.67519
21
0.385937
0
LINE
8
BLACK
6
CONTINUOUS
10
2.67519
20
0.385937
11
2.6744
21
0.4
0
LINE
8
BLACK
6
CONTINUOUS
10
2.6744
20
0.4
11
2.67519
21
0.414063
0
LINE
8
BLACK
6
CONTINUOUS
10
2.67519
20
0.414063
11
2.67755
21
0.427949
0
LINE
8
BLACK
6
CONTINUOUS
10
2.67755
20
0.427949
11
2.68145
21
0.441483
0
LINE
8
BLACK
6
CONTINUOUS
10
2.68145
20
0.441483
11
2.68684
21
0.454496
0
LINE
8
BLACK
6
CONTINUOUS
10
2.68684
20
0.454496
11
2.69365
21
0.466823
0
LINE
8
BLACK
6
CONTINUOUS
10
2.69365
20
0.466823
11
2.7018
21
0.47831
0
LINE
8
BLACK
6
CONTINUOUS
10
2.7018
20
0.47831
11
2.71119
21
0.488813
0
LINE
8
BLACK
6
CONTINUOUS
10
2.71119
20
0.488813
11
2.72169
21
0.498198
0
LINE
8
BLACK
6
CONTINUOUS
10
2.72169
20
0.498198
11
2.73318
21
0.506349
0
LINE
8
BLACK
6
CONTINUOUS
10
2.73318
20
0.506349
11
2.7455
21
0.513162
0
LINE
8
BLACK
6
CONTINUOUS
10
2.7455
20
0.513162
11
2.75852
21
0.518552
0
LINE
8
BLACK
6
CONTINUOUS
10
2.75852
20
0.518552
11
2.77205
21
0.522451
0
LINE
8
BLACK
6
CONTINUOUS
10
2.77205
20
0.522451
11
2.78594
21
0.52481
0
LINE
8
BLACK
6
CONTINUOUS
10
2.78594
20
0.52481
11
2.8
21
0.5256
0
LINE
8
BLACK
6
CONTINUOUS
10
2.8
20
0.5256
11
2.81406
21
0.52481
0
LINE
8
BLACK
6
CONTINUOUS
10
2.68996
20
0.387138
11
2.6922
21
0.374451
0
LINE
8
BLACK
6
CONTINUOUS
10
2.6922
20
0.374451
11
2.69589
21
0.362108
0
LINE
8
BLACK
6
CONTINUOUS
10
2.69589
20
0.362108
11
2.701
21
0.350279
0
LINE
8
BLACK
6
CONTINUOUS
10
2.701
20
0.350279
11
2.70744
21
0.339121
0
LINE
8
BLACK
6
CONTINUOUS
10
2.70744
20
0.339121
11
2.71513
21
0.328787
0
LINE
8
BLACK
6
CONTINUOUS
10
2.71513
20
0.328787
11
2.72397
21
0.319416
0
LINE
8
BLACK
6
CONTINUOUS
10
2.72397
20
0.319416
11
2.73384
21
0.311135
0
LINE
8
BLACK
6
CONTINUOUS
10
2.73384
20
0.311135
11
2.74461
21
0.304055
0
LINE
8
BLACK
6
CONTINUOUS
10
2.74461
20
0.304055
11
2.75612
21
0.298273
0
LINE
8
BLACK
6
CONTINUOUS
10
2.75612
20
0.298273
11
2.76823
21
0.293867
0
LINE
8
BLACK
6
CONTINUOUS
10
2.76823
20
0.293867
11
2.78076
21
0.290896
0
LINE
8
BLACK
6
CONTINUOUS
10
2.78076
20
0.290896
11
2.79356
21
0.2894
0
LINE
8
BLACK
6
CONTINUOUS
10
2.79356
20
0.2894
11
2.80644
21
0.2894
0
LINE
8
BLACK
6
CONTINUOUS
10
2.80644
20
0.2894
11
2.81924
21
0.290896
0
LINE
8
BLACK
6
CONTINUOUS
10
2.81924
20
0.290896
11
2.83177
21
0.293867
0
LINE
8
BLACK
6
CONTINUOUS
10
2.83177
20
0.293867
11
2.84388
21
0.298273
0
LINE
8
BLACK
6
CONTINUOUS
10
2.84388
20
0.298273
11
2.85539
21
0.304055
0
LINE
8
BLACK
6
CONTINUOUS
10
2.85539
20
0.304055
11
2.86616
21
0.311135
0
LINE
8
BLACK
6
CONTINUOUS
10
2.86616
20
0.311135
11
2.87603
21
0.319416
0
LINE
8
BLACK
6
CONTINUOUS
10
2.87603
20
0.319416
11
2.88487
21
0.328787
0
LINE
8
BLACK
6
CONTINUOUS
10
2.88487
20
0.328787
11
2.89256
21
0.339121
0
LINE
8
BLACK
6
CONTINUOUS
10
2.89256
20
0.339121
11
2.899
21
0.350279
0
LINE
8
BLACK
6
CONTINUOUS
10
2.899
20
0.350279
11
2.90411
21
0.362108
0
LINE
8
BLACK
6
CONTINUOUS
10
2.90411
20
0.362108
11
2.9078
21
0.374451
0
LINE
8
BLACK
6
CONTINUOUS
10
2.9078
20
0.374451
11
2.91004
21
0.387138
0
LINE
8
BLACK
6
CONTINUOUS
10
2.91004
20
0.387138
11
2.91079
21
0.4
0
LINE
8
BLACK
6
CONTINUOUS
10
2.91079
20
0.4
11
2.91004
21
0.412862
0
LINE
8
BLACK
6
CONTINUOUS
10
2.91004
20
0.412862
11
2.9078
21
0.425549
0
LINE
8
BLACK
6
CONTINUOUS
10
2.9078
20
0.425549
11
2.90411
21
0.437892
0
LINE
8
BLACK
6
CONTINUOUS
10
2.90411
20
0.437892
11
2.899
21
0.449721
0
LINE
8
BLACK
6
CONTINUOUS
10
2.899
20
0.449721
11
2.89256
21
0.460879
0
LINE
8
BLACK
6
CONTINUOUS
10
2.89256
20
0.460879
11
2.88487
21
0.471213
0
LINE
8
BLACK
6
CONTINUOUS
10
2.88487
20
0.471213
11
2.87603
21
0.480584
0
LINE
8
BLACK
6
CONTINUOUS
10
2.87603
20
0.480584
11
2.86616
21
0.488865
0
LINE
8
BLACK
6
CONTINUOUS
10
2.86616
20
0.488865
11
2.85539
21
0.495945
0
LINE
8
BLACK
6
CONTINUOUS
10
2.85539
20
0.495945
11
2.84388
21
0.501727
0
LINE
8
BLACK
6
CONTINUOUS
10
2.84388
20
0.501727
11
2.83177
21
0.506133
0
LINE
8
BLACK
6
CONTINUOUS
10
2.83177
20
0.506133
11
2.81924
21
0.509104
0
LINE
8
BLACK
6
CONTINUOUS
10
2.81924
20
0.509104
11
2.80644
21
0.5106
0
LINE
8
BLACK
6
CONTINUOUS
10
2.80644
20
0.5106
11
2.79356
21
0.5106
0
LINE
8
BLACK
6
CONTINUOUS
10
2.79356
20
0.5106
11
2.78076
21
0.509104
0
LINE
8
BLACK
6
CONTINUOUS
10
2.78076
20
0.509104
11
2.76823
21
0.506133
0
LINE
8
BLACK
6
CONTINUOUS
10
2.76823
20
0.506133
11
2.75612
21
0.501727
0
LINE
8
BLACK
6
CONTINUOUS
10
2.75612
20
0.501727
11
2.74461
21
0.495945
0
LINE
8
BLACK
6
CONTINUOUS
10
2.74461
20
0.495945
11
2.73384
21
0.488865
0
LINE
8
BLACK
6
CONTINUOUS
10
2.73384
20
0.488865
11
2.72397
21
0.480584
0
LINE
8
BLACK
6
CONTINUOUS
10
2.72397
20
0.480584
11
2.71513
21
0.471213
0
LINE
8
BLACK
6
CONTINUOUS
10
2.71513
20
0.471213
11
2.70744
21
0.460879
0
LINE
8
BLACK
6
CONTINUOUS
10
2.70744
20
0.460879
11
2.701
21
0.449721
0
LINE
8
BLACK
6
CONTINUOUS
10
2.701
20
0.449721
11
2.69589
21
0.437892
0
LINE
8
BLACK
6
CONTINUOUS
10
2.69589
20
0.437892
11
2.6922
21
0.425549
0
LINE
8
BLACK
6
CONTINUOUS
10
2.6922
20
0.425549
11
2.68996
21
0.412862
0
LINE
8
BLACK
6
CONTINUOUS
10
2.68996
20
0.412862
11
2.68921
21
0.4
0
LINE
8
BLACK
6
CONTINUOUS
10
2.68921
20
0.4
11
2.68996
21
0.387138
0
LINE
8
BLACK
6
CONTINUOUS
10
1.02296
20
0.440766
11
1.0231
21
0.440652
0
LINE
8
BLACK
6
CONTINUOUS
10
1.0231
20
0.440652
11
1.02327
21
0.440632
0
LINE
8
BLACK
6
CONTINUOUS
10
1.02327
20
0.440632
11
1.02702
21
0.438757
0
LINE
8
BLACK
6
CONTINUOUS
10
1.02702
20
0.438757
11
1.02773
21
0.438231
0
LINE
8
BLACK
6
CONTINUOUS
10
1.02773
20
0.438231
11
1.02779
21
0.438204
0
LINE
8
BLACK
6
CONTINUOUS
10
1.02779
20
0.438204
11
1.02966
21
0.436329
0
LINE
8
BLACK
6
CONTINUOUS
10
1.02966
20
0.436329
11
1.03017
21
0.435606
0
LINE
8
BLACK
6
CONTINUOUS
10
1.03017
20
0.435606
11
1.03022
21
0.435562
0
LINE
8
BLACK
6
CONTINUOUS
10
1.03022
20
0.435562
11
1.03209
21
0.431812
0
LINE
8
BLACK
6
CONTINUOUS
10
1.03209
20
0.431812
11
1.03238
21
0.43083
0
LINE
8
BLACK
6
CONTINUOUS
10
1.03238
20
0.43083
11
1.03234
21
0.430658
0
LINE
8
BLACK
6
CONTINUOUS
10
1.03234
20
0.430658
11
1.0324
21
0.430492
0
LINE
8
BLACK
6
CONTINUOUS
10
1.0324
20
0.430492
11
1.0324
21
0.421118
0
LINE
8
BLACK
6
CONTINUOUS
10
1.0324
20
0.421118
11
1.03225
21
0.420249
0
LINE
8
BLACK
6
CONTINUOUS
10
1.03225
20
0.420249
11
1.03225
21
0.420184
0
LINE
8
BLACK
6
CONTINUOUS
10
1.03225
20
0.420184
11
1.03038
21
0.41456
0
LINE
8
BLACK
6
CONTINUOUS
10
1.03038
20
0.41456
11
1.02989
21
0.413658
0
LINE
8
BLACK
6
CONTINUOUS
10
1.02989
20
0.413658
11
1.02817
21
0.412601
0
LINE
8
BLACK
6
CONTINUOUS
10
1.02817
20
0.412601
11
1.02617
21
0.412897
0
LINE
8
BLACK
6
CONTINUOUS
10
1.02617
20
0.412897
11
1.02483
21
0.414409
0
LINE
8
BLACK
6
CONTINUOUS
10
1.02483
20
0.414409
11
1.02477
21
0.416428
0
LINE
8
BLACK
6
CONTINUOUS
10
1.02477
20
0.416428
11
1.0265
21
0.421597
0
LINE
8
BLACK
6
CONTINUOUS
10
1.0265
20
0.421597
11
1.0265
21
0.429795
0
LINE
8
BLACK
6
CONTINUOUS
10
1.0265
20
0.429795
11
1.02515
21
0.432492
0
LINE
8
BLACK
6
CONTINUOUS
10
1.02515
20
0.432492
11
1.02395
21
0.43369
0
LINE
8
BLACK
6
CONTINUOUS
10
1.02395
20
0.43369
11
1.02125
21
0.435038
0
LINE
8
BLACK
6
CONTINUOUS
10
1.02125
20
0.435038
11
1.0189
21
0.435038
0
LINE
8
BLACK
6
CONTINUOUS
10
1.0189
20
0.435038
11
1.0162
21
0.43369
0
LINE
8
BLACK
6
CONTINUOUS
10
1.0162
20
0.43369
11
1.015
21
0.432492
0
LINE
8
BLACK
6
CONTINUOUS
10
1.015
20
0.432492
11
1.01349
21
0.429461
0
LINE
8
BLACK
6
CONTINUOUS
10
1.01349
20
0.429461
11
1.01169
21
0.422277
0
LINE
8
BLACK
6
CONTINUOUS
10
1.01169
20
0.422277
11
1.01148
21
0.421811
0
LINE
8
BLACK
6
CONTINUOUS
10
1.01148
20
0.421811
11
1.01147
21
0.421672
0
LINE
8
BLACK
6
CONTINUOUS
10
1.01147
20
0.421672
11
1.00959
21
0.417923
0
LINE
8
BLACK
6
CONTINUOUS
10
1.00959
20
0.417923
11
1.00907
21
0.417214
0
LINE
8
BLACK
6
CONTINUOUS
10
1.00907
20
0.417214
11
1.00904
21
0.417155
0
LINE
8
BLACK
6
CONTINUOUS
10
1.00904
20
0.417155
11
1.00717
21
0.415281
0
LINE
8
BLACK
6
CONTINUOUS
10
1.00717
20
0.415281
11
1.00644
21
0.414774
0
LINE
8
BLACK
6
CONTINUOUS
10
1.00644
20
0.414774
11
1.0064
21
0.414728
0
LINE
8
BLACK
6
CONTINUOUS
10
1.0064
20
0.414728
11
1.00265
21
0.412853
0
LINE
8
BLACK
6
CONTINUOUS
10
1.00265
20
0.412853
11
1.00167
21
0.41256
0
LINE
8
BLACK
6
CONTINUOUS
10
1.00167
20
0.41256
11
1.00149
21
0.412601
0
LINE
8
BLACK
6
CONTINUOUS
10
1.00149
20
0.412601
11
1.00133
21
0.412541
0
LINE
8
BLACK
6
CONTINUOUS
10
1.00133
20
0.412541
11
0.997579
21
0.412541
0
LINE
8
BLACK
6
CONTINUOUS
10
0.997579
20
0.412541
11
0.996569
21
0.412719
0
LINE
8
BLACK
6
CONTINUOUS
10
0.996569
20
0.412719
11
0.996433
21
0.412833
0
LINE
8
BLACK
6
CONTINUOUS
10
0.996433
20
0.412833
11
0.996258
21
0.412853
0
LINE
8
BLACK
6
CONTINUOUS
10
0.996258
20
0.412853
11
0.992509
21
0.414728
0
LINE
8
BLACK
6
CONTINUOUS
10
0.992509
20
0.414728
11
0.991799
21
0.415254
0
LINE
8
BLACK
6
CONTINUOUS
10
0.991799
20
0.415254
11
0.991741
21
0.415281
0
LINE
8
BLACK
6
CONTINUOUS
10
0.991741
20
0.415281
11
0.989866
21
0.417155
0
LINE
8
BLACK
6
CONTINUOUS
10
0.989866
20
0.417155
11
0.98936
21
0.417879
0
LINE
8
BLACK
6
CONTINUOUS
10
0.98936
20
0.417879
11
0.989313
21
0.417923
0
LINE
8
BLACK
6
CONTINUOUS
10
0.989313
20
0.417923
11
0.987438
21
0.421672
0
LINE
8
BLACK
6
CONTINUOUS
10
0.987438
20
0.421672
11
0.987146
21
0.422655
0
LINE
8
BLACK
6
CONTINUOUS
10
0.987146
20
0.422655
11
0.987187
21
0.422827
0
LINE
8
BLACK
6
CONTINUOUS
10
0.987187
20
0.422827
11
0.987127
21
0.422993
0
LINE
8
BLACK
6
CONTINUOUS
10
0.987127
20
0.422993
11
0.987127
21
0.432367
0
LINE
8
BLACK
6
CONTINUOUS
10
0.987127
20
0.432367
11
0.98728
21
0.433236
0
LINE
8
BLACK
6
CONTINUOUS
10
0.98728
20
0.433236
11
0.987278
21
0.4333
0
LINE
8
BLACK
6
CONTINUOUS
10
0.987278
20
0.4333
11
0.989153
21
0.438925
0
LINE
8
BLACK
6
CONTINUOUS
10
0.989153
20
0.438925
11
0.989641
21
0.439827
0
LINE
8
BLACK
6
CONTINUOUS
10
0.989641
20
0.439827
11
0.991362
21
0.440884
0
LINE
8
BLACK
6
CONTINUOUS
10
0.991362
20
0.440884
11
0.99336
21
0.440588
0
LINE
8
BLACK
6
CONTINUOUS
10
0.99336
20
0.440588
11
0.9947
21
0.439076
0
LINE
8
BLACK
6
CONTINUOUS
10
0.9947
20
0.439076
11
0.994755
21
0.437057
0
LINE
8
BLACK
6
CONTINUOUS
10
0.994755
20
0.437057
11
0.993032
21
0.431888
0
LINE
8
BLACK
6
CONTINUOUS
10
0.993032
20
0.431888
11
0.993032
21
0.42369
0
LINE
8
BLACK
6
CONTINUOUS
10
0.993032
20
0.42369
11
0.994381
21
0.420992
0
LINE
8
BLACK
6
CONTINUOUS
10
0.994381
20
0.420992
11
0.995578
21
0.419795
0
LINE
8
BLACK
6
CONTINUOUS
10
0.995578
20
0.419795
11
0.998276
21
0.418447
0
LINE
8
BLACK
6
CONTINUOUS
10
0.998276
20
0.418447
11
1.00063
21
0.418447
0
LINE
8
BLACK
6
CONTINUOUS
10
1.00063
20
0.418447
11
1.00333
21
0.419795
0
LINE
8
BLACK
6
CONTINUOUS
10
1.00333
20
0.419795
11
1.00453
21
0.420992
0
LINE
8
BLACK
6
CONTINUOUS
10
1.00453
20
0.420992
11
1.00604
21
0.424023
0
LINE
8
BLACK
6
CONTINUOUS
10
1.00604
20
0.424023
11
1.00784
21
0.431208
0
LINE
8
BLACK
6
CONTINUOUS
10
1.00784
20
0.431208
11
1.00804
21
0.431674
0
LINE
8
BLACK
6
CONTINUOUS
10
1.00804
20
0.431674
11
1.00806
21
0.431812
0
LINE
8
BLACK
6
CONTINUOUS
10
1.00806
20
0.431812
11
1.00994
21
0.435562
0
LINE
8
BLACK
6
CONTINUOUS
10
1.00994
20
0.435562
11
1.01046
21
0.436271
0
LINE
8
BLACK
6
CONTINUOUS
10
1.01046
20
0.436271
11
1.01049
21
0.436329
0
LINE
8
BLACK
6
CONTINUOUS
10
1.01049
20
0.436329
11
1.01236
21
0.438204
0
LINE
8
BLACK
6
CONTINUOUS
10
1.01236
20
0.438204
11
1.01309
21
0.43871
0
LINE
8
BLACK
6
CONTINUOUS
10
1.01309
20
0.43871
11
1.01313
21
0.438757
0
LINE
8
BLACK
6
CONTINUOUS
10
1.01313
20
0.438757
11
1.01688
21
0.440632
0
LINE
8
BLACK
6
CONTINUOUS
10
1.01688
20
0.440632
11
1.01786
21
0.440924
0
LINE
8
BLACK
6
CONTINUOUS
10
1.01786
20
0.440924
11
1.01804
21
0.440883
0
LINE
8
BLACK
6
CONTINUOUS
10
1.01804
20
0.440883
11
1.0182
21
0.440944
0
LINE
8
BLACK
6
CONTINUOUS
10
1.0182
20
0.440944
11
1.02195
21
0.440944
0
LINE
8
BLACK
6
CONTINUOUS
10
1.02195
20
0.440944
11
1.02296
21
0.440766
0
LINE
8
BLACK
6
CONTINUOUS
10
0.992453
20
0.459568
11
0.992718
21
0.459591
0
LINE
8
BLACK
6
CONTINUOUS
10
0.992718
20
0.459591
11
0.993347
21
0.459151
0
LINE
8
BLACK
6
CONTINUOUS
10
0.993347
20
0.459151
11
0.994042
21
0.458827
0
LINE
8
BLACK
6
CONTINUOUS
10
0.994042
20
0.458827
11
0.995917
21
0.456952
0
LINE
8
BLACK
6
CONTINUOUS
10
0.995917
20
0.456952
11
0.99614
21
0.456633
0
LINE
8
BLACK
6
CONTINUOUS
10
0.99614
20
0.456633
11
0.996248
21
0.456558
0
LINE
8
BLACK
6
CONTINUOUS
10
0.996248
20
0.456558
11
0.996282
21
0.456431
0
LINE
8
BLACK
6
CONTINUOUS
10
0.996282
20
0.456431
11
0.996287
21
0.456424
0
LINE
8
BLACK
6
CONTINUOUS
10
0.996287
20
0.456424
11
0.996386
21
0.45634
0
LINE
8
BLACK
6
CONTINUOUS
10
0.996386
20
0.45634
11
0.9964
21
0.456262
0
LINE
8
BLACK
6
CONTINUOUS
10
0.9964
20
0.456262
11
0.996505
21
0.456112
0
LINE
8
BLACK
6
CONTINUOUS
10
0.996505
20
0.456112
11
0.996572
21
0.455348
0
LINE
8
BLACK
6
CONTINUOUS
10
0.996572
20
0.455348
11
0.996771
21
0.454607
0
LINE
8
BLACK
6
CONTINUOUS
10
0.996771
20
0.454607
11
0.996713
21
0.454484
0
LINE
8
BLACK
6
CONTINUOUS
10
0.996713
20
0.454484
11
0.996737
21
0.454351
0
LINE
8
BLACK
6
CONTINUOUS
10
0.996737
20
0.454351
11
0.996669
21
0.454234
0
LINE
8
BLACK
6
CONTINUOUS
10
0.996669
20
0.454234
11
0.996681
21
0.4541
0
LINE
8
BLACK
6
CONTINUOUS
10
0.996681
20
0.4541
11
0.996241
21
0.453471
0
LINE
8
BLACK
6
CONTINUOUS
10
0.996241
20
0.453471
11
0.995917
21
0.452776
0
LINE
8
BLACK
6
CONTINUOUS
10
0.995917
20
0.452776
11
0.994042
21
0.450901
0
LINE
8
BLACK
6
CONTINUOUS
10
0.994042
20
0.450901
11
0.993723
21
0.450678
0
LINE
8
BLACK
6
CONTINUOUS
10
0.993723
20
0.450678
11
0.993648
21
0.45057
0
LINE
8
BLACK
6
CONTINUOUS
10
0.993648
20
0.45057
11
0.993521
21
0.450536
0
LINE
8
BLACK
6
CONTINUOUS
10
0.993521
20
0.450536
11
0.993202
21
0.450313
0
LINE
8
BLACK
6
CONTINUOUS
10
0.993202
20
0.450313
11
0.992438
21
0.450246
0
LINE
8
BLACK
6
CONTINUOUS
10
0.992438
20
0.450246
11
0.991697
21
0.450048
0
LINE
8
BLACK
6
CONTINUOUS
10
0.991697
20
0.450048
11
0.991455
21
0.45016
0
LINE
8
BLACK
6
CONTINUOUS
10
0.991455
20
0.45016
11
0.99119
21
0.450137
0
LINE
8
BLACK
6
CONTINUOUS
10
0.99119
20
0.450137
11
0.990562
21
0.450577
0
LINE
8
BLACK
6
CONTINUOUS
10
0.990562
20
0.450577
11
0.989866
21
0.450901
0
LINE
8
BLACK
6
CONTINUOUS
10
0.989866
20
0.450901
11
0.987992
21
0.452776
0
LINE
8
BLACK
6
CONTINUOUS
10
0.987992
20
0.452776
11
0.987768
21
0.453095
0
LINE
8
BLACK
6
CONTINUOUS
10
0.987768
20
0.453095
11
0.987661
21
0.45317
0
LINE
8
BLACK
6
CONTINUOUS
10
0.987661
20
0.45317
11
0.987627
21
0.453297
0
LINE
8
BLACK
6
CONTINUOUS
10
0.987627
20
0.453297
11
0.987622
21
0.453304
0
LINE
8
BLACK
6
CONTINUOUS
10
0.987622
20
0.453304
11
0.987522
21
0.453388
0
LINE
8
BLACK
6
CONTINUOUS
10
0.987522
20
0.453388
11
0.987508
21
0.453466
0
LINE
8
BLACK
6
CONTINUOUS
10
0.987508
20
0.453466
11
0.987403
21
0.453616
0
LINE
8
BLACK
6
CONTINUOUS
10
0.987403
20
0.453616
11
0.987336
21
0.45438
0
LINE
8
BLACK
6
CONTINUOUS
10
0.987336
20
0.45438
11
0.987138
21
0.455121
0
LINE
8
BLACK
6
CONTINUOUS
10
0.987138
20
0.455121
11
0.987195
21
0.455244
0
LINE
8
BLACK
6
CONTINUOUS
10
0.987195
20
0.455244
11
0.987172
21
0.455377
0
LINE
8
BLACK
6
CONTINUOUS
10
0.987172
20
0.455377
11
0.987239
21
0.455494
0
LINE
8
BLACK
6
CONTINUOUS
10
0.987239
20
0.455494
11
0.987227
21
0.455628
0
LINE
8
BLACK
6
CONTINUOUS
10
0.987227
20
0.455628
11
0.987667
21
0.456257
0
LINE
8
BLACK
6
CONTINUOUS
10
0.987667
20
0.456257
11
0.987992
21
0.456952
0
LINE
8
BLACK
6
CONTINUOUS
10
0.987992
20
0.456952
11
0.989866
21
0.458827
0
LINE
8
BLACK
6
CONTINUOUS
10
0.989866
20
0.458827
11
0.990185
21
0.45905
0
LINE
8
BLACK
6
CONTINUOUS
10
0.990185
20
0.45905
11
0.990261
21
0.459157
0
LINE
8
BLACK
6
CONTINUOUS
10
0.990261
20
0.459157
11
0.990387
21
0.459191
0
LINE
8
BLACK
6
CONTINUOUS
10
0.990387
20
0.459191
11
0.990706
21
0.459415
0
LINE
8
BLACK
6
CONTINUOUS
10
0.990706
20
0.459415
11
0.991471
21
0.459482
0
LINE
8
BLACK
6
CONTINUOUS
10
0.991471
20
0.459482
11
0.992212
21
0.45968
0
LINE
8
BLACK
6
CONTINUOUS
10
0.992212
20
0.45968
11
0.992453
21
0.459568
0
LINE
8
BLACK
6
CONTINUOUS
10
1.03046
20
0.457639
11
1.03201
21
0.45634
0
LINE
8
BLACK
6
CONTINUOUS
10
1.03201
20
0.45634
11
1.03236
21
0.454351
0
LINE
8
BLACK
6
CONTINUOUS
10
1.03236
20
0.454351
11
1.03135
21
0.452602
0
LINE
8
BLACK
6
CONTINUOUS
10
1.03135
20
0.452602
11
1.02945
21
0.451911
0
LINE
8
BLACK
6
CONTINUOUS
10
1.02945
20
0.451911
11
1.0032
21
0.451911
0
LINE
8
BLACK
6
CONTINUOUS
10
1.0032
20
0.451911
11
1.00219
21
0.452089
0
LINE
8
BLACK
6
CONTINUOUS
10
1.00219
20
0.452089
11
1.00065
21
0.453388
0
LINE
8
BLACK
6
CONTINUOUS
10
1.00065
20
0.453388
11
1.00029
21
0.455377
0
LINE
8
BLACK
6
CONTINUOUS
10
1.00029
20
0.455377
11
1.0013
21
0.457126
0
LINE
8
BLACK
6
CONTINUOUS
10
1.0013
20
0.457126
11
1.0032
21
0.457817
0
LINE
8
BLACK
6
CONTINUOUS
10
1.0032
20
0.457817
11
1.02945
21
0.457817
0
LINE
8
BLACK
6
CONTINUOUS
10
1.02945
20
0.457817
11
1.03046
21
0.457639
0
LINE
8
BLACK
6
CONTINUOUS
10
1.03608
20
0.493259
11
1.03622
21
0.493146
0
LINE
8
BLACK
6
CONTINUOUS
10
1.03622
20
0.493146
11
1.03639
21
0.493125
0
LINE
8
BLACK
6
CONTINUOUS
10
1.03639
20
0.493125
11
1.04014
21
0.491251
0
LINE
8
BLACK
6
CONTINUOUS
10
1.04014
20
0.491251
11
1.04085
21
0.490725
0
LINE
8
BLACK
6
CONTINUOUS
10
1.04085
20
0.490725
11
1.04091
21
0.490698
0
LINE
8
BLACK
6
CONTINUOUS
10
1.04091
20
0.490698
11
1.04279
21
0.488823
0
LINE
8
BLACK
6
CONTINUOUS
10
1.04279
20
0.488823
11
1.04329
21
0.4881
0
LINE
8
BLACK
6
CONTINUOUS
10
1.04329
20
0.4881
11
1.04334
21
0.488055
0
LINE
8
BLACK
6
CONTINUOUS
10
1.04334
20
0.488055
11
1.04521
21
0.484306
0
LINE
8
BLACK
6
CONTINUOUS
10
1.04521
20
0.484306
11
1.04551
21
0.483323
0
LINE
8
BLACK
6
CONTINUOUS
10
1.04551
20
0.483323
11
1.04547
21
0.483151
0
LINE
8
BLACK
6
CONTINUOUS
10
1.04547
20
0.483151
11
1.04553
21
0.482985
0
LINE
8
BLACK
6
CONTINUOUS
10
1.04553
20
0.482985
11
1.04553
21
0.477361
0
LINE
8
BLACK
6
CONTINUOUS
10
1.04553
20
0.477361
11
1.04535
21
0.476351
0
LINE
8
BLACK
6
CONTINUOUS
10
1.04535
20
0.476351
11
1.04523
21
0.476216
0
LINE
8
BLACK
6
CONTINUOUS
10
1.04523
20
0.476216
11
1.04521
21
0.476041
0
LINE
8
BLACK
6
CONTINUOUS
10
1.04521
20
0.476041
11
1.04334
21
0.472291
0
LINE
8
BLACK
6
CONTINUOUS
10
1.04334
20
0.472291
11
1.04273
21
0.471467
0
LINE
8
BLACK
6
CONTINUOUS
10
1.04273
20
0.471467
11
1.04088
21
0.470664
0
LINE
8
BLACK
6
CONTINUOUS
10
1.04088
20
0.470664
11
1.03894
21
0.47124
0
LINE
8
BLACK
6
CONTINUOUS
10
1.03894
20
0.47124
11
1.03783
21
0.472926
0
LINE
8
BLACK
6
CONTINUOUS
10
1.03783
20
0.472926
11
1.03806
21
0.474932
0
LINE
8
BLACK
6
CONTINUOUS
10
1.03806
20
0.474932
11
1.03962
21
0.478058
0
LINE
8
BLACK
6
CONTINUOUS
10
1.03962
20
0.478058
11
1.03962
21
0.482288
0
LINE
8
BLACK
6
CONTINUOUS
10
1.03962
20
0.482288
11
1.03827
21
0.484986
0
LINE
8
BLACK
6
CONTINUOUS
10
1.03827
20
0.484986
11
1.03707
21
0.486183
0
LINE
8
BLACK
6
CONTINUOUS
10
1.03707
20
0.486183
11
1.03438
21
0.487532
0
LINE
8
BLACK
6
CONTINUOUS
10
1.03438
20
0.487532
11
1.03225
21
0.487532
0
LINE
8
BLACK
6
CONTINUOUS
10
1.03225
20
0.487532
11
1.03238
21
0.487073
0
LINE
8
BLACK
6
CONTINUOUS
10
1.03238
20
0.487073
11
1.03234
21
0.486901
0
LINE
8
BLACK
6
CONTINUOUS
10
1.03234
20
0.486901
11
1.0324
21
0.486735
0
LINE
8
BLACK
6
CONTINUOUS
10
1.0324
20
0.486735
11
1.0324
21
0.479236
0
LINE
8
BLACK
6
CONTINUOUS
10
1.0324
20
0.479236
11
1.03222
21
0.478226
0
LINE
8
BLACK
6
CONTINUOUS
10
1.03222
20
0.478226
11
1.03211
21
0.478091
0
LINE
8
BLACK
6
CONTINUOUS
10
1.03211
20
0.478091
11
1.03209
21
0.477915
0
LINE
8
BLACK
6
CONTINUOUS
10
1.03209
20
0.477915
11
1.03022
21
0.474166
0
LINE
8
BLACK
6
CONTINUOUS
10
1.03022
20
0.474166
11
1.02969
21
0.473457
0
LINE
8
BLACK
6
CONTINUOUS
10
1.02969
20
0.473457
11
1.02966
21
0.473398
0
LINE
8
BLACK
6
CONTINUOUS
10
1.02966
20
0.473398
11
1.02779
21
0.471524
0
LINE
8
BLACK
6
CONTINUOUS
10
1.02779
20
0.471524
11
1.02706
21
0.471017
0
LINE
8
BLACK
6
CONTINUOUS
10
1.02706
20
0.471017
11
1.02702
21
0.470971
0
LINE
8
BLACK
6
CONTINUOUS
10
1.02702
20
0.470971
11
1.02327
21
0.469096
0
LINE
8
BLACK
6
CONTINUOUS
10
1.02327
20
0.469096
11
1.02229
21
0.468803
0
LINE
8
BLACK
6
CONTINUOUS
10
1.02229
20
0.468803
11
1.02212
21
0.468844
0
LINE
8
BLACK
6
CONTINUOUS
10
1.02212
20
0.468844
11
1.02195
21
0.468784
0
LINE
8
BLACK
6
CONTINUOUS
10
1.02195
20
0.468784
11
1.0107
21
0.468784
0
LINE
8
BLACK
6
CONTINUOUS
10
1.0107
20
0.468784
11
1.00969
21
0.468962
0
LINE
8
BLACK
6
CONTINUOUS
10
1.00969
20
0.468962
11
1.00956
21
0.469076
0
LINE
8
BLACK
6
CONTINUOUS
10
1.00956
20
0.469076
11
1.00938
21
0.469096
0
LINE
8
BLACK
6
CONTINUOUS
10
1.00938
20
0.469096
11
1.00563
21
0.470971
0
LINE
8
BLACK
6
CONTINUOUS
10
1.00563
20
0.470971
11
1.00492
21
0.471496
0
LINE
8
BLACK
6
CONTINUOUS
10
1.00492
20
0.471496
11
1.00486
21
0.471524
0
LINE
8
BLACK
6
CONTINUOUS
10
1.00486
20
0.471524
11
1.00299
21
0.473398
0
LINE
8
BLACK
6
CONTINUOUS
10
1.00299
20
0.473398
11
1.00248
21
0.474122
0
LINE
8
BLACK
6
CONTINUOUS
10
1.00248
20
0.474122
11
1.00244
21
0.474166
0
LINE
8
BLACK
6
CONTINUOUS
10
1.00244
20
0.474166
11
1.00056
21
0.477915
0
LINE
8
BLACK
6
CONTINUOUS
10
1.00056
20
0.477915
11
1.00027
21
0.478898
0
LINE
8
BLACK
6
CONTINUOUS
10
1.00027
20
0.478898
11
1.00031
21
0.47907
0
LINE
8
BLACK
6
CONTINUOUS
10
1.00031
20
0.47907
11
1.00025
21
0.479236
0
LINE
8
BLACK
6
CONTINUOUS
10
1.00025
20
0.479236
11
1.00025
21
0.486735
0
LINE
8
BLACK
6
CONTINUOUS
10
1.00025
20
0.486735
11
1.00043
21
0.487745
0
LINE
8
BLACK
6
CONTINUOUS
10
1.00043
20
0.487745
11
1.00054
21
0.48788
0
LINE
8
BLACK
6
CONTINUOUS
10
1.00054
20
0.48788
11
1.00056
21
0.488055
0
LINE
8
BLACK
6
CONTINUOUS
10
1.00056
20
0.488055
11
1.00092
21
0.488776
0
LINE
8
BLACK
6
CONTINUOUS
10
1.00092
20
0.488776
11
1.00065
21
0.489008
0
LINE
8
BLACK
6
CONTINUOUS
10
1.00065
20
0.489008
11
1.00029
21
0.490997
0
LINE
8
BLACK
6
CONTINUOUS
10
1.00029
20
0.490997
11
1.0013
21
0.492746
0
LINE
8
BLACK
6
CONTINUOUS
10
1.0013
20
0.492746
11
1.0032
21
0.493437
0
LINE
8
BLACK
6
CONTINUOUS
10
1.0032
20
0.493437
11
1.03507
21
0.493437
0
LINE
8
BLACK
6
CONTINUOUS
10
1.03507
20
0.493437
11
1.03608
21
0.493259
0
LINE
8
BLACK
6
CONTINUOUS
10
1.00616
20
0.486038
11
1.00616
21
0.479933
0
LINE
8
BLACK
6
CONTINUOUS
10
1.00616
20
0.479933
11
1.0075
21
0.477235
0
LINE
8
BLACK
6
CONTINUOUS
10
1.0075
20
0.477235
11
1.0087
21
0.476038
0
LINE
8
BLACK
6
CONTINUOUS
10
1.0087
20
0.476038
11
1.0114
21
0.47469
0
LINE
8
BLACK
6
CONTINUOUS
10
1.0114
20
0.47469
11
1.02125
21
0.47469
0
LINE
8
BLACK
6
CONTINUOUS
10
1.02125
20
0.47469
11
1.02395
21
0.476038
0
LINE
8
BLACK
6
CONTINUOUS
10
1.02395
20
0.476038
11
1.02515
21
0.477235
0
LINE
8
BLACK
6
CONTINUOUS
10
1.02515
20
0.477235
11
1.0265
21
0.479933
0
LINE
8
BLACK
6
CONTINUOUS
10
1.0265
20
0.479933
11
1.0265
21
0.486038
0
LINE
8
BLACK
6
CONTINUOUS
10
1.0265
20
0.486038
11
1.02575
21
0.487532
0
LINE
8
BLACK
6
CONTINUOUS
10
1.02575
20
0.487532
11
1.0069
21
0.487532
0
LINE
8
BLACK
6
CONTINUOUS
10
1.0069
20
0.487532
11
1.00616
21
0.486038
0
LINE
8
BLACK
6
CONTINUOUS
10
1.03046
20
0.52888
11
1.03201
21
0.527581
0
LINE
8
BLACK
6
CONTINUOUS
10
1.03201
20
0.527581
11
1.03236
21
0.525592
0
LINE
8
BLACK
6
CONTINUOUS
10
1.03236
20
0.525592
11
1.03135
21
0.523843
0
LINE
8
BLACK
6
CONTINUOUS
10
1.03135
20
0.523843
11
1.02945
21
0.523152
0
LINE
8
BLACK
6
CONTINUOUS
10
1.02945
20
0.523152
11
1.00952
21
0.523152
0
LINE
8
BLACK
6
CONTINUOUS
10
1.00952
20
0.523152
11
1.00728
21
0.522029
0
LINE
8
BLACK
6
CONTINUOUS
10
1.00728
20
0.522029
11
1.00616
21
0.519784
0
LINE
8
BLACK
6
CONTINUOUS
10
1.00616
20
0.519784
11
1.00616
21
0.515553
0
LINE
8
BLACK
6
CONTINUOUS
10
1.00616
20
0.515553
11
1.0075
21
0.512856
0
LINE
8
BLACK
6
CONTINUOUS
10
1.0075
20
0.512856
11
1.00818
21
0.512185
0
LINE
8
BLACK
6
CONTINUOUS
10
1.00818
20
0.512185
11
1.02945
21
0.512185
0
LINE
8
BLACK
6
CONTINUOUS
10
1.02945
20
0.512185
11
1.03046
21
0.512007
0
LINE
8
BLACK
6
CONTINUOUS
10
1.03046
20
0.512007
11
1.03201
21
0.510709
0
LINE
8
BLACK
6
CONTINUOUS
10
1.03201
20
0.510709
11
1.03236
21
0.508719
0
LINE
8
BLACK
6
CONTINUOUS
10
1.03236
20
0.508719
11
1.03135
21
0.50697
0
LINE
8
BLACK
6
CONTINUOUS
10
1.03135
20
0.50697
11
1.02945
21
0.506279
0
LINE
8
BLACK
6
CONTINUOUS
10
1.02945
20
0.506279
11
1.0032
21
0.506279
0
LINE
8
BLACK
6
CONTINUOUS
10
1.0032
20
0.506279
11
1.00219
21
0.506457
0
LINE
8
BLACK
6
CONTINUOUS
10
1.00219
20
0.506457
11
1.00065
21
0.507756
0
LINE
8
BLACK
6
CONTINUOUS
10
1.00065
20
0.507756
11
1.00029
21
0.509745
0
LINE
8
BLACK
6
CONTINUOUS
10
1.00029
20
0.509745
11
1.0013
21
0.511494
0
LINE
8
BLACK
6
CONTINUOUS
10
1.0013
20
0.511494
11
1.00154
21
0.51158
0
LINE
8
BLACK
6
CONTINUOUS
10
1.00154
20
0.51158
11
1.00056
21
0.513536
0
LINE
8
BLACK
6
CONTINUOUS
10
1.00056
20
0.513536
11
1.00027
21
0.514519
0
LINE
8
BLACK
6
CONTINUOUS
10
1.00027
20
0.514519
11
1.00031
21
0.514691
0
LINE
8
BLACK
6
CONTINUOUS
10
1.00031
20
0.514691
11
1.00025
21
0.514856
0
LINE
8
BLACK
6
CONTINUOUS
10
1.00025
20
0.514856
11
1.00025
21
0.520481
0
LINE
8
BLACK
6
CONTINUOUS
10
1.00025
20
0.520481
11
1.00043
21
0.521491
0
LINE
8
BLACK
6
CONTINUOUS
10
1.00043
20
0.521491
11
1.00054
21
0.521626
0
LINE
8
BLACK
6
CONTINUOUS
10
1.00054
20
0.521626
11
1.00056
21
0.521801
0
LINE
8
BLACK
6
CONTINUOUS
10
1.00056
20
0.521801
11
1.00244
21
0.525551
0
LINE
8
BLACK
6
CONTINUOUS
10
1.00244
20
0.525551
11
1.00305
21
0.526374
0
LINE
8
BLACK
6
CONTINUOUS
10
1.00305
20
0.526374
11
1.00345
21
0.52655
0
LINE
8
BLACK
6
CONTINUOUS
10
1.00345
20
0.52655
11
1.00376
21
0.526871
0
LINE
8
BLACK
6
CONTINUOUS
10
1.00376
20
0.526871
11
1.00751
21
0.528746
0
LINE
8
BLACK
6
CONTINUOUS
10
1.00751
20
0.528746
11
1.00849
21
0.529038
0
LINE
8
BLACK
6
CONTINUOUS
10
1.00849
20
0.529038
11
1.00866
21
0.528997
0
LINE
8
BLACK
6
CONTINUOUS
10
1.00866
20
0.528997
11
1.00883
21
0.529058
0
LINE
8
BLACK
6
CONTINUOUS
10
1.00883
20
0.529058
11
1.02945
21
0.529058
0
LINE
8
BLACK
6
CONTINUOUS
10
1.02945
20
0.529058
11
1.03046
21
0.52888
0
LINE
8
BLACK
6
CONTINUOUS
10
1.03046
20
0.5645
11
1.03201
21
0.563202
0
LINE
8
BLACK
6
CONTINUOUS
10
1.03201
20
0.563202
11
1.03236
21
0.561213
0
LINE
8
BLACK
6
CONTINUOUS
10
1.03236
20
0.561213
11
1.0317
21
0.560076
0
LINE
8
BLACK
6
CONTINUOUS
10
1.0317
20
0.560076
11
1.03209
21
0.559297
0
LINE
8
BLACK
6
CONTINUOUS
10
1.03209
20
0.559297
11
1.03238
21
0.558314
0
LINE
8
BLACK
6
CONTINUOUS
10
1.03238
20
0.558314
11
1.03234
21
0.558142
0
LINE
8
BLACK
6
CONTINUOUS
10
1.03234
20
0.558142
11
1.0324
21
0.557976
0
LINE
8
BLACK
6
CONTINUOUS
10
1.0324
20
0.557976
11
1.0324
21
0.548602
0
LINE
8
BLACK
6
CONTINUOUS
10
1.0324
20
0.548602
11
1.03222
21
0.547592
0
LINE
8
BLACK
6
CONTINUOUS
10
1.03222
20
0.547592
11
1.03211
21
0.547457
0
LINE
8
BLACK
6
CONTINUOUS
10
1.03211
20
0.547457
11
1.03209
21
0.547282
0
LINE
8
BLACK
6
CONTINUOUS
10
1.03209
20
0.547282
11
1.03022
21
0.543532
0
LINE
8
BLACK
6
CONTINUOUS
10
1.03022
20
0.543532
11
1.0296
21
0.542709
0
LINE
8
BLACK
6
CONTINUOUS
10
1.0296
20
0.542709
11
1.0292
21
0.542533
0
LINE
8
BLACK
6
CONTINUOUS
10
1.0292
20
0.542533
11
1.0289
21
0.542212
0
LINE
8
BLACK
6
CONTINUOUS
10
1.0289
20
0.542212
11
1.02515
21
0.540337
0
LINE
8
BLACK
6
CONTINUOUS
10
1.02515
20
0.540337
11
1.02416
21
0.540044
0
LINE
8
BLACK
6
CONTINUOUS
10
1.02416
20
0.540044
11
1.02399
21
0.540086
0
LINE
8
BLACK
6
CONTINUOUS
10
1.02399
20
0.540086
11
1.02383
21
0.540025
0
LINE
8
BLACK
6
CONTINUOUS
10
1.02383
20
0.540025
11
1.02008
21
0.540025
0
LINE
8
BLACK
6
CONTINUOUS
10
1.02008
20
0.540025
11
1.01907
21
0.540203
0
LINE
8
BLACK
6
CONTINUOUS
10
1.01907
20
0.540203
11
1.01893
21
0.540317
0
LINE
8
BLACK
6
CONTINUOUS
10
1.01893
20
0.540317
11
1.01876
21
0.540337
0
LINE
8
BLACK
6
CONTINUOUS
10
1.01876
20
0.540337
11
1.01501
21
0.542212
0
LINE
8
BLACK
6
CONTINUOUS
10
1.01501
20
0.542212
11
1.01418
21
0.542823
0
LINE
8
BLACK
6
CONTINUOUS
10
1.01418
20
0.542823
11
1.01401
21
0.543228
0
LINE
8
BLACK
6
CONTINUOUS
10
1.01401
20
0.543228
11
1.01369
21
0.543532
0
LINE
8
BLACK
6
CONTINUOUS
10
1.01369
20
0.543532
11
1.01181
21
0.547282
0
LINE
8
BLACK
6
CONTINUOUS
10
1.01181
20
0.547282
11
1.01152
21
0.548265
0
LINE
8
BLACK
6
CONTINUOUS
10
1.01152
20
0.548265
11
1.01156
21
0.548436
0
LINE
8
BLACK
6
CONTINUOUS
10
1.01156
20
0.548436
11
1.0115
21
0.548602
0
LINE
8
BLACK
6
CONTINUOUS
10
1.0115
20
0.548602
11
1.0115
21
0.557279
0
LINE
8
BLACK
6
CONTINUOUS
10
1.0115
20
0.557279
11
1.01075
21
0.558773
0
LINE
8
BLACK
6
CONTINUOUS
10
1.01075
20
0.558773
11
1.00952
21
0.558773
0
LINE
8
BLACK
6
CONTINUOUS
10
1.00952
20
0.558773
11
1.00728
21
0.55765
0
LINE
8
BLACK
6
CONTINUOUS
10
1.00728
20
0.55765
11
1.00616
21
0.555404
0
LINE
8
BLACK
6
CONTINUOUS
10
1.00616
20
0.555404
11
1.00616
21
0.549299
0
LINE
8
BLACK
6
CONTINUOUS
10
1.00616
20
0.549299
11
1.00772
21
0.546173
0
LINE
8
BLACK
6
CONTINUOUS
10
1.00772
20
0.546173
11
1.00801
21
0.54519
0
LINE
8
BLACK
6
CONTINUOUS
10
1.00801
20
0.54519
11
1.00754
21
0.543226
0
LINE
8
BLACK
6
CONTINUOUS
10
1.00754
20
0.543226
11
1.00592
21
0.542022
0
LINE
8
BLACK
6
CONTINUOUS
10
1.00592
20
0.542022
11
1.0039
21
0.542144
0
LINE
8
BLACK
6
CONTINUOUS
10
1.0039
20
0.542144
11
1.00244
21
0.543532
0
LINE
8
BLACK
6
CONTINUOUS
10
1.00244
20
0.543532
11
1.00056
21
0.547282
0
LINE
8
BLACK
6
CONTINUOUS
10
1.00056
20
0.547282
11
1.00027
21
0.548265
0
LINE
8
BLACK
6
CONTINUOUS
10
1.00027
20
0.548265
11
1.00031
21
0.548436
0
LINE
8
BLACK
6
CONTINUOUS
10
1.00031
20
0.548436
11
1.00025
21
0.548602
0
LINE
8
BLACK
6
CONTINUOUS
10
1.00025
20
0.548602
11
1.00025
21
0.556101
0
LINE
8
BLACK
6
CONTINUOUS
10
1.00025
20
0.556101
11
1.00043
21
0.557111
0
LINE
8
BLACK
6
CONTINUOUS
10
1.00043
20
0.557111
11
1.00054
21
0.557246
0
LINE
8
BLACK
6
CONTINUOUS
10
1.00054
20
0.557246
11
1.00056
21
0.557422
0
LINE
8
BLACK
6
CONTINUOUS
10
1.00056
20
0.557422
11
1.00244
21
0.561171
0
LINE
8
BLACK
6
CONTINUOUS
10
1.00244
20
0.561171
11
1.00305
21
0.561995
0
LINE
8
BLACK
6
CONTINUOUS
10
1.00305
20
0.561995
11
1.00345
21
0.562171
0
LINE
8
BLACK
6
CONTINUOUS
10
1.00345
20
0.562171
11
1.00376
21
0.562492
0
LINE
8
BLACK
6
CONTINUOUS
10
1.00376
20
0.562492
11
1.00751
21
0.564367
0
LINE
8
BLACK
6
CONTINUOUS
10
1.00751
20
0.564367
11
1.00849
21
0.564659
0
LINE
8
BLACK
6
CONTINUOUS
10
1.00849
20
0.564659
11
1.00866
21
0.564618
0
LINE
8
BLACK
6
CONTINUOUS
10
1.00866
20
0.564618
11
1.00883
21
0.564678
0
LINE
8
BLACK
6
CONTINUOUS
10
1.00883
20
0.564678
11
1.02945
21
0.564678
0
LINE
8
BLACK
6
CONTINUOUS
10
1.02945
20
0.564678
11
1.03046
21
0.5645
0
LINE
8
BLACK
6
CONTINUOUS
10
1.01738
20
0.558314
11
1.01734
21
0.558142
0
LINE
8
BLACK
6
CONTINUOUS
10
1.01734
20
0.558142
11
1.0174
21
0.557976
0
LINE
8
BLACK
6
CONTINUOUS
10
1.0174
20
0.557976
11
1.0174
21
0.549299
0
LINE
8
BLACK
6
CONTINUOUS
10
1.0174
20
0.549299
11
1.01853
21
0.547054
0
LINE
8
BLACK
6
CONTINUOUS
10
1.01853
20
0.547054
11
1.02077
21
0.545931
0
LINE
8
BLACK
6
CONTINUOUS
10
1.02077
20
0.545931
11
1.02313
21
0.545931
0
LINE
8
BLACK
6
CONTINUOUS
10
1.02313
20
0.545931
11
1.02537
21
0.547054
0
LINE
8
BLACK
6
CONTINUOUS
10
1.02537
20
0.547054
11
1.0265
21
0.549299
0
LINE
8
BLACK
6
CONTINUOUS
10
1.0265
20
0.549299
11
1.0265
21
0.557279
0
LINE
8
BLACK
6
CONTINUOUS
10
1.0265
20
0.557279
11
1.02575
21
0.558773
0
LINE
8
BLACK
6
CONTINUOUS
10
1.02575
20
0.558773
11
1.01725
21
0.558773
0
LINE
8
BLACK
6
CONTINUOUS
10
1.01725
20
0.558773
11
1.01738
21
0.558314
0
LINE
8
BLACK
6
CONTINUOUS
10
1.03121
20
0.588469
11
1.03232
21
0.586784
0
LINE
8
BLACK
6
CONTINUOUS
10
1.03232
20
0.586784
11
1.03209
21
0.584777
0
LINE
8
BLACK
6
CONTINUOUS
10
1.03209
20
0.584777
11
1.03022
21
0.581027
0
LINE
8
BLACK
6
CONTINUOUS
10
1.03022
20
0.581027
11
1.0296
21
0.580204
0
LINE
8
BLACK
6
CONTINUOUS
10
1.0296
20
0.580204
11
1.0292
21
0.580028
0
LINE
8
BLACK
6
CONTINUOUS
10
1.0292
20
0.580028
11
1.0289
21
0.579707
0
LINE
8
BLACK
6
CONTINUOUS
10
1.0289
20
0.579707
11
1.02515
21
0.577832
0
LINE
8
BLACK
6
CONTINUOUS
10
1.02515
20
0.577832
11
1.02416
21
0.57754
0
LINE
8
BLACK
6
CONTINUOUS
10
1.02416
20
0.57754
11
1.02399
21
0.577581
0
LINE
8
BLACK
6
CONTINUOUS
10
1.02399
20
0.577581
11
1.02383
21
0.57752
0
LINE
8
BLACK
6
CONTINUOUS
10
1.02383
20
0.57752
11
0.990079
21
0.57752
0
LINE
8
BLACK
6
CONTINUOUS
10
0.990079
20
0.57752
11
0.98907
21
0.577699
0
LINE
8
BLACK
6
CONTINUOUS
10
0.98907
20
0.577699
11
0.987522
21
0.578997
0
LINE
8
BLACK
6
CONTINUOUS
10
0.987522
20
0.578997
11
0.987172
21
0.580986
0
LINE
8
BLACK
6
CONTINUOUS
10
0.987172
20
0.580986
11
0.988181
21
0.582735
0
LINE
8
BLACK
6
CONTINUOUS
10
0.988181
20
0.582735
11
0.990079
21
0.583426
0
LINE
8
BLACK
6
CONTINUOUS
10
0.990079
20
0.583426
11
1.02313
21
0.583426
0
LINE
8
BLACK
6
CONTINUOUS
10
1.02313
20
0.583426
11
1.02537
21
0.584549
0
LINE
8
BLACK
6
CONTINUOUS
10
1.02537
20
0.584549
11
1.02681
21
0.587418
0
LINE
8
BLACK
6
CONTINUOUS
10
1.02681
20
0.587418
11
1.02742
21
0.588242
0
LINE
8
BLACK
6
CONTINUOUS
10
1.02742
20
0.588242
11
1.02927
21
0.589045
0
LINE
8
BLACK
6
CONTINUOUS
10
1.02927
20
0.589045
11
1.03121
21
0.588469
0
LINE
8
BLACK
6
CONTINUOUS
10
1.0588
20
0.74795
11
1.05893
21
0.747836
0
LINE
8
BLACK
6
CONTINUOUS
10
1.05893
20
0.747836
11
1.05911
21
0.747816
0
LINE
8
BLACK
6
CONTINUOUS
10
1.05911
20
0.747816
11
1.06286
21
0.745941
0
LINE
8
BLACK
6
CONTINUOUS
10
1.06286
20
0.745941
11
1.06368
21
0.74533
0
LINE
8
BLACK
6
CONTINUOUS
10
1.06368
20
0.74533
11
1.06386
21
0.744925
0
LINE
8
BLACK
6
CONTINUOUS
10
1.06386
20
0.744925
11
1.06418
21
0.744621
0
LINE
8
BLACK
6
CONTINUOUS
10
1.06418
20
0.744621
11
1.06605
21
0.740871
0
LINE
8
BLACK
6
CONTINUOUS
10
1.06605
20
0.740871
11
1.06634
21
0.739888
0
LINE
8
BLACK
6
CONTINUOUS
10
1.06634
20
0.739888
11
1.0663
21
0.739717
0
LINE
8
BLACK
6
CONTINUOUS
10
1.0663
20
0.739717
11
1.06636
21
0.739551
0
LINE
8
BLACK
6
CONTINUOUS
10
1.06636
20
0.739551
11
1.06636
21
0.718928
0
LINE
8
BLACK
6
CONTINUOUS
10
1.06636
20
0.718928
11
1.06619
21
0.717918
0
LINE
8
BLACK
6
CONTINUOUS
10
1.06619
20
0.717918
11
1.06489
21
0.716371
0
LINE
8
BLACK
6
CONTINUOUS
10
1.06489
20
0.716371
11
1.0629
21
0.71602
0
LINE
8
BLACK
6
CONTINUOUS
10
1.0629
20
0.71602
11
1.06176
21
0.716677
0
LINE
8
BLACK
6
CONTINUOUS
10
1.06176
20
0.716677
11
1.06098
21
0.716287
0
LINE
8
BLACK
6
CONTINUOUS
10
1.06098
20
0.716287
11
1.06
21
0.715995
0
LINE
8
BLACK
6
CONTINUOUS
10
1.06
20
0.715995
11
1.05983
21
0.716036
0
LINE
8
BLACK
6
CONTINUOUS
10
1.05983
20
0.716036
11
1.05966
21
0.715976
0
LINE
8
BLACK
6
CONTINUOUS
10
1.05966
20
0.715976
11
1.05029
21
0.715976
0
LINE
8
BLACK
6
CONTINUOUS
10
1.05029
20
0.715976
11
1.04928
21
0.716154
0
LINE
8
BLACK
6
CONTINUOUS
10
1.04928
20
0.716154
11
1.04918
21
0.716236
0
LINE
8
BLACK
6
CONTINUOUS
10
1.04918
20
0.716236
11
1.04918
21
0.691991
0
LINE
8
BLACK
6
CONTINUOUS
10
1.04918
20
0.691991
11
1.05748
21
0.691991
0
LINE
8
BLACK
6
CONTINUOUS
10
1.05748
20
0.691991
11
1.05848
21
0.691813
0
LINE
8
BLACK
6
CONTINUOUS
10
1.05848
20
0.691813
11
1.06003
21
0.690515
0
LINE
8
BLACK
6
CONTINUOUS
10
1.06003
20
0.690515
11
1.06038
21
0.688526
0
LINE
8
BLACK
6
CONTINUOUS
10
1.06038
20
0.688526
11
1.05937
21
0.686777
0
LINE
8
BLACK
6
CONTINUOUS
10
1.05937
20
0.686777
11
1.05748
21
0.686086
0
LINE
8
BLACK
6
CONTINUOUS
10
1.05748
20
0.686086
11
1.03498
21
0.686086
0
LINE
8
BLACK
6
CONTINUOUS
10
1.03498
20
0.686086
11
1.03397
21
0.686264
0
LINE
8
BLACK
6
CONTINUOUS
10
1.03397
20
0.686264
11
1.03242
21
0.687562
0
LINE
8
BLACK
6
CONTINUOUS
10
1.03242
20
0.687562
11
1.03207
21
0.689551
0
LINE
8
BLACK
6
CONTINUOUS
10
1.03207
20
0.689551
11
1.03308
21
0.691301
0
LINE
8
BLACK
6
CONTINUOUS
10
1.03308
20
0.691301
11
1.03498
21
0.691991
0
LINE
8
BLACK
6
CONTINUOUS
10
1.03498
20
0.691991
11
1.04327
21
0.691991
0
LINE
8
BLACK
6
CONTINUOUS
10
1.04327
20
0.691991
11
1.04327
21
0.719405
0
LINE
8
BLACK
6
CONTINUOUS
10
1.04327
20
0.719405
11
1.04082
21
0.716947
0
LINE
8
BLACK
6
CONTINUOUS
10
1.04082
20
0.716947
11
1.04009
21
0.716441
0
LINE
8
BLACK
6
CONTINUOUS
10
1.04009
20
0.716441
11
1.04005
21
0.716394
0
LINE
8
BLACK
6
CONTINUOUS
10
1.04005
20
0.716394
11
1.0363
21
0.714519
0
LINE
8
BLACK
6
CONTINUOUS
10
1.0363
20
0.714519
11
1.03532
21
0.714227
0
LINE
8
BLACK
6
CONTINUOUS
10
1.03532
20
0.714227
11
1.03335
21
0.714696
0
LINE
8
BLACK
6
CONTINUOUS
10
1.03335
20
0.714696
11
1.03215
21
0.716318
0
LINE
8
BLACK
6
CONTINUOUS
10
1.03215
20
0.716318
11
1.03227
21
0.718334
0
LINE
8
BLACK
6
CONTINUOUS
10
1.03227
20
0.718334
11
1.03366
21
0.719801
0
LINE
8
BLACK
6
CONTINUOUS
10
1.03366
20
0.719801
11
1.03698
21
0.721462
0
LINE
8
BLACK
6
CONTINUOUS
10
1.03698
20
0.721462
11
1.04018
21
0.724666
0
LINE
8
BLACK
6
CONTINUOUS
10
1.04018
20
0.724666
11
1.04171
21
0.726957
0
LINE
8
BLACK
6
CONTINUOUS
10
1.04171
20
0.726957
11
1.04171
21
0.728302
0
LINE
8
BLACK
6
CONTINUOUS
10
1.04171
20
0.728302
11
1.04189
21
0.729312
0
LINE
8
BLACK
6
CONTINUOUS
10
1.04189
20
0.729312
11
1.042
21
0.729447
0
LINE
8
BLACK
6
CONTINUOUS
10
1.042
20
0.729447
11
1.04202
21
0.729623
0
LINE
8
BLACK
6
CONTINUOUS
10
1.04202
20
0.729623
11
1.0439
21
0.733372
0
LINE
8
BLACK
6
CONTINUOUS
10
1.0439
20
0.733372
11
1.04451
21
0.734196
0
LINE
8
BLACK
6
CONTINUOUS
10
1.04451
20
0.734196
11
1.04491
21
0.734372
0
LINE
8
BLACK
6
CONTINUOUS
10
1.04491
20
0.734372
11
1.04522
21
0.734693
0
LINE
8
BLACK
6
CONTINUOUS
10
1.04522
20
0.734693
11
1.04897
21
0.736568
0
LINE
8
BLACK
6
CONTINUOUS
10
1.04897
20
0.736568
11
1.04995
21
0.73686
0
LINE
8
BLACK
6
CONTINUOUS
10
1.04995
20
0.73686
11
1.05012
21
0.736819
0
LINE
8
BLACK
6
CONTINUOUS
10
1.05012
20
0.736819
11
1.05029
21
0.736879
0
LINE
8
BLACK
6
CONTINUOUS
10
1.05029
20
0.736879
11
1.05896
21
0.736879
0
LINE
8
BLACK
6
CONTINUOUS
10
1.05896
20
0.736879
11
1.06046
21
0.737626
0
LINE
8
BLACK
6
CONTINUOUS
10
1.06046
20
0.737626
11
1.06046
21
0.738854
0
LINE
8
BLACK
6
CONTINUOUS
10
1.06046
20
0.738854
11
1.05933
21
0.7411
0
LINE
8
BLACK
6
CONTINUOUS
10
1.05933
20
0.7411
11
1.05709
21
0.742222
0
LINE
8
BLACK
6
CONTINUOUS
10
1.05709
20
0.742222
11
1.05098
21
0.742222
0
LINE
8
BLACK
6
CONTINUOUS
10
1.05098
20
0.742222
11
1.04786
21
0.740659
0
LINE
8
BLACK
6
CONTINUOUS
10
1.04786
20
0.740659
11
1.04688
21
0.740367
0
LINE
8
BLACK
6
CONTINUOUS
10
1.04688
20
0.740367
11
1.04491
21
0.740836
0
LINE
8
BLACK
6
CONTINUOUS
10
1.04491
20
0.740836
11
1.04371
21
0.742459
0
LINE
8
BLACK
6
CONTINUOUS
10
1.04371
20
0.742459
11
1.04383
21
0.744475
0
LINE
8
BLACK
6
CONTINUOUS
10
1.04383
20
0.744475
11
1.04522
21
0.745941
0
LINE
8
BLACK
6
CONTINUOUS
10
1.04522
20
0.745941
11
1.04897
21
0.747816
0
LINE
8
BLACK
6
CONTINUOUS
10
1.04897
20
0.747816
11
1.04995
21
0.748109
0
LINE
8
BLACK
6
CONTINUOUS
10
1.04995
20
0.748109
11
1.05012
21
0.748068
0
LINE
8
BLACK
6
CONTINUOUS
10
1.05012
20
0.748068
11
1.05029
21
0.748128
0
LINE
8
BLACK
6
CONTINUOUS
10
1.05029
20
0.748128
11
1.05779
21
0.748128
0
LINE
8
BLACK
6
CONTINUOUS
10
1.05779
20
0.748128
11
1.0588
21
0.74795
0
LINE
8
BLACK
6
CONTINUOUS
10
1.06
20
0.730993
11
1.05983
21
0.731034
0
LINE
8
BLACK
6
CONTINUOUS
10
1.05983
20
0.731034
11
1.05966
21
0.730974
0
LINE
8
BLACK
6
CONTINUOUS
10
1.05966
20
0.730974
11
1.05098
21
0.730974
0
LINE
8
BLACK
6
CONTINUOUS
10
1.05098
20
0.730974
11
1.04874
21
0.729851
0
LINE
8
BLACK
6
CONTINUOUS
10
1.04874
20
0.729851
11
1.04869
21
0.729753
0
LINE
8
BLACK
6
CONTINUOUS
10
1.04869
20
0.729753
11
1.04878
21
0.729501
0
LINE
8
BLACK
6
CONTINUOUS
10
1.04878
20
0.729501
11
1.04916
21
0.728733
0
LINE
8
BLACK
6
CONTINUOUS
10
1.04916
20
0.728733
11
1.04912
21
0.728568
0
LINE
8
BLACK
6
CONTINUOUS
10
1.04912
20
0.728568
11
1.04918
21
0.728409
0
LINE
8
BLACK
6
CONTINUOUS
10
1.04918
20
0.728409
11
1.04918
21
0.722784
0
LINE
8
BLACK
6
CONTINUOUS
10
1.04918
20
0.722784
11
1.05098
21
0.721881
0
LINE
8
BLACK
6
CONTINUOUS
10
1.05098
20
0.721881
11
1.05896
21
0.721881
0
LINE
8
BLACK
6
CONTINUOUS
10
1.05896
20
0.721881
11
1.06046
21
0.722628
0
LINE
8
BLACK
6
CONTINUOUS
10
1.06046
20
0.722628
11
1.06046
21
0.73113
0
LINE
8
BLACK
6
CONTINUOUS
10
1.06046
20
0.73113
11
1.06
21
0.730993
0
LINE
8
BLACK
6
CONTINUOUS
10
0.98943
20
0.74795
11
0.989565
21
0.747836
0
LINE
8
BLACK
6
CONTINUOUS
10
0.989565
20
0.747836
11
0.98974
21
0.747816
0
LINE
8
BLACK
6
CONTINUOUS
10
0.98974
20
0.747816
11
0.990461
21
0.747456
0
LINE
8
BLACK
6
CONTINUOUS
10
0.990461
20
0.747456
11
0.990693
21
0.747732
0
LINE
8
BLACK
6
CONTINUOUS
10
0.990693
20
0.747732
11
0.992682
21
0.748083
0
LINE
8
BLACK
6
CONTINUOUS
10
0.992682
20
0.748083
11
0.994431
21
0.747073
0
LINE
8
BLACK
6
CONTINUOUS
10
0.994431
20
0.747073
11
0.995122
21
0.745175
0
LINE
8
BLACK
6
CONTINUOUS
10
0.995122
20
0.745175
11
0.995122
21
0.729912
0
LINE
8
BLACK
6
CONTINUOUS
10
0.995122
20
0.729912
11
0.995201
21
0.730006
0
LINE
8
BLACK
6
CONTINUOUS
10
0.995201
20
0.730006
11
0.995585
21
0.730671
0
LINE
8
BLACK
6
CONTINUOUS
10
0.995585
20
0.730671
11
0.995835
21
0.730762
0
LINE
8
BLACK
6
CONTINUOUS
10
0.995835
20
0.730762
11
0.996006
21
0.730966
0
LINE
8
BLACK
6
CONTINUOUS
10
0.996006
20
0.730966
11
0.996762
21
0.731099
0
LINE
8
BLACK
6
CONTINUOUS
10
0.996762
20
0.731099
11
0.997483
21
0.731361
0
LINE
8
BLACK
6
CONTINUOUS
10
0.997483
20
0.731361
11
1.00796
21
0.731361
0
LINE
8
BLACK
6
CONTINUOUS
10
1.00796
20
0.731361
11
1.00796
21
0.745175
0
LINE
8
BLACK
6
CONTINUOUS
10
1.00796
20
0.745175
11
1.00814
21
0.746185
0
LINE
8
BLACK
6
CONTINUOUS
10
1.00814
20
0.746185
11
1.00944
21
0.747732
0
LINE
8
BLACK
6
CONTINUOUS
10
1.00944
20
0.747732
11
1.01143
21
0.748083
0
LINE
8
BLACK
6
CONTINUOUS
10
1.01143
20
0.748083
11
1.01318
21
0.747073
0
LINE
8
BLACK
6
CONTINUOUS
10
1.01318
20
0.747073
11
1.01326
21
0.746838
0
LINE
8
BLACK
6
CONTINUOUS
10
1.01326
20
0.746838
11
1.01522
21
0.747816
0
LINE
8
BLACK
6
CONTINUOUS
10
1.01522
20
0.747816
11
1.0162
21
0.748109
0
LINE
8
BLACK
6
CONTINUOUS
10
1.0162
20
0.748109
11
1.01638
21
0.748068
0
LINE
8
BLACK
6
CONTINUOUS
10
1.01638
20
0.748068
11
1.01654
21
0.748128
0
LINE
8
BLACK
6
CONTINUOUS
10
1.01654
20
0.748128
11
1.02217
21
0.748128
0
LINE
8
BLACK
6
CONTINUOUS
10
1.02217
20
0.748128
11
1.02318
21
0.74795
0
LINE
8
BLACK
6
CONTINUOUS
10
1.02318
20
0.74795
11
1.02331
21
0.747836
0
LINE
8
BLACK
6
CONTINUOUS
10
1.02331
20
0.747836
11
1.02349
21
0.747816
0
LINE
8
BLACK
6
CONTINUOUS
10
1.02349
20
0.747816
11
1.02724
21
0.745941
0
LINE
8
BLACK
6
CONTINUOUS
10
1.02724
20
0.745941
11
1.02806
21
0.74533
0
LINE
8
BLACK
6
CONTINUOUS
10
1.02806
20
0.74533
11
1.02824
21
0.744925
0
LINE
8
BLACK
6
CONTINUOUS
10
1.02824
20
0.744925
11
1.02856
21
0.744621
0
LINE
8
BLACK
6
CONTINUOUS
10
1.02856
20
0.744621
11
1.03043
21
0.740871
0
LINE
8
BLACK
6
CONTINUOUS
10
1.03043
20
0.740871
11
1.03072
21
0.739888
0
LINE
8
BLACK
6
CONTINUOUS
10
1.03072
20
0.739888
11
1.03068
21
0.739717
0
LINE
8
BLACK
6
CONTINUOUS
10
1.03068
20
0.739717
11
1.03074
21
0.739551
0
LINE
8
BLACK
6
CONTINUOUS
10
1.03074
20
0.739551
11
1.03074
21
0.718928
0
LINE
8
BLACK
6
CONTINUOUS
10
1.03074
20
0.718928
11
1.03056
21
0.717918
0
LINE
8
BLACK
6
CONTINUOUS
10
1.03056
20
0.717918
11
1.02927
21
0.716371
0
LINE
8
BLACK
6
CONTINUOUS
10
1.02927
20
0.716371
11
1.02728
21
0.71602
0
LINE
8
BLACK
6
CONTINUOUS
10
1.02728
20
0.71602
11
1.02553
21
0.71703
0
LINE
8
BLACK
6
CONTINUOUS
10
1.02553
20
0.71703
11
1.02484
21
0.718928
0
LINE
8
BLACK
6
CONTINUOUS
10
1.02484
20
0.718928
11
1.02484
21
0.738854
0
LINE
8
BLACK
6
CONTINUOUS
10
1.02484
20
0.738854
11
1.02371
21
0.7411
0
LINE
8
BLACK
6
CONTINUOUS
10
1.02371
20
0.7411
11
1.02147
21
0.742222
0
LINE
8
BLACK
6
CONTINUOUS
10
1.02147
20
0.742222
11
1.01724
21
0.742222
0
LINE
8
BLACK
6
CONTINUOUS
10
1.01724
20
0.742222
11
1.01454
21
0.740874
0
LINE
8
BLACK
6
CONTINUOUS
10
1.01454
20
0.740874
11
1.01387
21
0.740203
0
LINE
8
BLACK
6
CONTINUOUS
10
1.01387
20
0.740203
11
1.01387
21
0.731015
0
LINE
8
BLACK
6
CONTINUOUS
10
1.01387
20
0.731015
11
1.01755
21
0.729175
0
LINE
8
BLACK
6
CONTINUOUS
10
1.01755
20
0.729175
11
1.01826
21
0.728649
0
LINE
8
BLACK
6
CONTINUOUS
10
1.01826
20
0.728649
11
1.01832
21
0.728622
0
LINE
8
BLACK
6
CONTINUOUS
10
1.01832
20
0.728622
11
1.02019
21
0.726747
0
LINE
8
BLACK
6
CONTINUOUS
10
1.02019
20
0.726747
11
1.0207
21
0.726024
0
LINE
8
BLACK
6
CONTINUOUS
10
1.0207
20
0.726024
11
1.02075
21
0.72598
0
LINE
8
BLACK
6
CONTINUOUS
10
1.02075
20
0.72598
11
1.02262
21
0.72223
0
LINE
8
BLACK
6
CONTINUOUS
10
1.02262
20
0.72223
11
1.02291
21
0.721247
0
LINE
8
BLACK
6
CONTINUOUS
10
1.02291
20
0.721247
11
1.02287
21
0.721076
0
LINE
8
BLACK
6
CONTINUOUS
10
1.02287
20
0.721076
11
1.02293
21
0.72091
0
LINE
8
BLACK
6
CONTINUOUS
10
1.02293
20
0.72091
11
1.02293
21
0.715285
0
LINE
8
BLACK
6
CONTINUOUS
10
1.02293
20
0.715285
11
1.02275
21
0.714275
0
LINE
8
BLACK
6
CONTINUOUS
10
1.02275
20
0.714275
11
1.02264
21
0.71414
0
LINE
8
BLACK
6
CONTINUOUS
10
1.02264
20
0.71414
11
1.02262
21
0.713965
0
LINE
8
BLACK
6
CONTINUOUS
10
1.02262
20
0.713965
11
1.02075
21
0.710215
0
LINE
8
BLACK
6
CONTINUOUS
10
1.02075
20
0.710215
11
1.02022
21
0.709506
0
LINE
8
BLACK
6
CONTINUOUS
10
1.02022
20
0.709506
11
1.02019
21
0.709448
0
LINE
8
BLACK
6
CONTINUOUS
10
1.02019
20
0.709448
11
1.01832
21
0.707573
0
LINE
8
BLACK
6
CONTINUOUS
10
1.01832
20
0.707573
11
1.0176
21
0.707067
0
LINE
8
BLACK
6
CONTINUOUS
10
1.0176
20
0.707067
11
1.01755
21
0.70702
0
LINE
8
BLACK
6
CONTINUOUS
10
1.01755
20
0.70702
11
1.0138
21
0.705145
0
LINE
8
BLACK
6
CONTINUOUS
10
1.0138
20
0.705145
11
1.01282
21
0.704853
0
LINE
8
BLACK
6
CONTINUOUS
10
1.01282
20
0.704853
11
1.01265
21
0.704894
0
LINE
8
BLACK
6
CONTINUOUS
10
1.01265
20
0.704894
11
1.01248
21
0.704834
0
LINE
8
BLACK
6
CONTINUOUS
10
1.01248
20
0.704834
11
1.00044
21
0.704834
0
LINE
8
BLACK
6
CONTINUOUS
10
1.00044
20
0.704834
11
1.00044
21
0.689039
0
LINE
8
BLACK
6
CONTINUOUS
10
1.00044
20
0.689039
11
1.00026
21
0.688029
0
LINE
8
BLACK
6
CONTINUOUS
10
1.00026
20
0.688029
11
0.998959
21
0.686481
0
LINE
8
BLACK
6
CONTINUOUS
10
0.998959
20
0.686481
11
0.99697
21
0.686131
0
LINE
8
BLACK
6
CONTINUOUS
10
0.99697
20
0.686131
11
0.995221
21
0.687141
0
LINE
8
BLACK
6
CONTINUOUS
10
0.995221
20
0.687141
11
0.99453
21
0.689039
0
LINE
8
BLACK
6
CONTINUOUS
10
0.99453
20
0.689039
11
0.99453
21
0.711422
0
LINE
8
BLACK
6
CONTINUOUS
10
0.99453
20
0.711422
11
0.992936
21
0.708234
0
LINE
8
BLACK
6
CONTINUOUS
10
0.992936
20
0.708234
11
0.99241
21
0.707525
0
LINE
8
BLACK
6
CONTINUOUS
10
0.99241
20
0.707525
11
0.992383
21
0.707467
0
LINE
8
BLACK
6
CONTINUOUS
10
0.992383
20
0.707467
11
0.990508
21
0.705592
0
LINE
8
BLACK
6
CONTINUOUS
10
0.990508
20
0.705592
11
0.989785
21
0.705086
0
LINE
8
BLACK
6
CONTINUOUS
10
0.989785
20
0.705086
11
0.98974
21
0.705039
0
LINE
8
BLACK
6
CONTINUOUS
10
0.98974
20
0.705039
11
0.985991
21
0.703164
0
LINE
8
BLACK
6
CONTINUOUS
10
0.985991
20
0.703164
11
0.985008
21
0.702872
0
LINE
8
BLACK
6
CONTINUOUS
10
0.985008
20
0.702872
11
0.984836
21
0.702913
0
LINE
8
BLACK
6
CONTINUOUS
10
0.984836
20
0.702913
11
0.98467
21
0.702852
0
LINE
8
BLACK
6
CONTINUOUS
10
0.98467
20
0.702852
11
0.979046
21
0.702852
0
LINE
8
BLACK
6
CONTINUOUS
10
0.979046
20
0.702852
11
0.978036
21
0.70303
0
LINE
8
BLACK
6
CONTINUOUS
10
0.978036
20
0.70303
11
0.977901
21
0.703144
0
LINE
8
BLACK
6
CONTINUOUS
10
0.977901
20
0.703144
11
0.977726
21
0.703164
0
LINE
8
BLACK
6
CONTINUOUS
10
0.977726
20
0.703164
11
0.976063
21
0.703995
0
LINE
8
BLACK
6
CONTINUOUS
10
0.976063
20
0.703995
11
0.976063
21
0.689039
0
LINE
8
BLACK
6
CONTINUOUS
10
0.976063
20
0.689039
11
0.975885
21
0.688029
0
LINE
8
BLACK
6
CONTINUOUS
10
0.975885
20
0.688029
11
0.974587
21
0.686481
0
LINE
8
BLACK
6
CONTINUOUS
10
0.974587
20
0.686481
11
0.972598
21
0.686131
0
LINE
8
BLACK
6
CONTINUOUS
10
0.972598
20
0.686131
11
0.970849
21
0.687141
0
LINE
8
BLACK
6
CONTINUOUS
10
0.970849
20
0.687141
11
0.970158
21
0.689039
0
LINE
8
BLACK
6
CONTINUOUS
10
0.970158
20
0.689039
11
0.970158
21
0.725456
0
LINE
8
BLACK
6
CONTINUOUS
10
0.970158
20
0.725456
11
0.961862
21
0.725456
0
LINE
8
BLACK
6
CONTINUOUS
10
0.961862
20
0.725456
11
0.960852
21
0.725634
0
LINE
8
BLACK
6
CONTINUOUS
10
0.960852
20
0.725634
11
0.959502
21
0.726767
0
LINE
8
BLACK
6
CONTINUOUS
10
0.959502
20
0.726767
11
0.959502
21
0.718928
0
LINE
8
BLACK
6
CONTINUOUS
10
0.959502
20
0.718928
11
0.959324
21
0.717918
0
LINE
8
BLACK
6
CONTINUOUS
10
0.959324
20
0.717918
11
0.958025
21
0.716371
0
LINE
8
BLACK
6
CONTINUOUS
10
0.958025
20
0.716371
11
0.956036
21
0.71602
0
LINE
8
BLACK
6
CONTINUOUS
10
0.956036
20
0.71602
11
0.954287
21
0.71703
0
LINE
8
BLACK
6
CONTINUOUS
10
0.954287
20
0.71703
11
0.953596
21
0.718928
0
LINE
8
BLACK
6
CONTINUOUS
10
0.953596
20
0.718928
11
0.953596
21
0.745175
0
LINE
8
BLACK
6
CONTINUOUS
10
0.953596
20
0.745175
11
0.953774
21
0.746185
0
LINE
8
BLACK
6
CONTINUOUS
10
0.953774
20
0.746185
11
0.955073
21
0.747732
0
LINE
8
BLACK
6
CONTINUOUS
10
0.955073
20
0.747732
11
0.957062
21
0.748083
0
LINE
8
BLACK
6
CONTINUOUS
10
0.957062
20
0.748083
11
0.958811
21
0.747073
0
LINE
8
BLACK
6
CONTINUOUS
10
0.958811
20
0.747073
11
0.959502
21
0.745175
0
LINE
8
BLACK
6
CONTINUOUS
10
0.959502
20
0.745175
11
0.959502
21
0.72987
0
LINE
8
BLACK
6
CONTINUOUS
10
0.959502
20
0.72987
11
0.959964
21
0.730671
0
LINE
8
BLACK
6
CONTINUOUS
10
0.959964
20
0.730671
11
0.961862
21
0.731361
0
LINE
8
BLACK
6
CONTINUOUS
10
0.961862
20
0.731361
11
0.970469
21
0.731361
0
LINE
8
BLACK
6
CONTINUOUS
10
0.970469
20
0.731361
11
0.970469
21
0.737676
0
LINE
8
BLACK
6
CONTINUOUS
10
0.970469
20
0.737676
11
0.970647
21
0.738686
0
LINE
8
BLACK
6
CONTINUOUS
10
0.970647
20
0.738686
11
0.970761
21
0.738821
0
LINE
8
BLACK
6
CONTINUOUS
10
0.970761
20
0.738821
11
0.970781
21
0.738997
0
LINE
8
BLACK
6
CONTINUOUS
10
0.970781
20
0.738997
11
0.972656
21
0.742746
0
LINE
8
BLACK
6
CONTINUOUS
10
0.972656
20
0.742746
11
0.973181
21
0.743455
0
LINE
8
BLACK
6
CONTINUOUS
10
0.973181
20
0.743455
11
0.973209
21
0.743514
0
LINE
8
BLACK
6
CONTINUOUS
10
0.973209
20
0.743514
11
0.975083
21
0.745388
0
LINE
8
BLACK
6
CONTINUOUS
10
0.975083
20
0.745388
11
0.975806
21
0.745895
0
LINE
8
BLACK
6
CONTINUOUS
10
0.975806
20
0.745895
11
0.975851
21
0.745941
0
LINE
8
BLACK
6
CONTINUOUS
10
0.975851
20
0.745941
11
0.9796
21
0.747816
0
LINE
8
BLACK
6
CONTINUOUS
10
0.9796
20
0.747816
11
0.980583
21
0.748109
0
LINE
8
BLACK
6
CONTINUOUS
10
0.980583
20
0.748109
11
0.980755
21
0.748068
0
LINE
8
BLACK
6
CONTINUOUS
10
0.980755
20
0.748068
11
0.980921
21
0.748128
0
LINE
8
BLACK
6
CONTINUOUS
10
0.980921
20
0.748128
11
0.98842
21
0.748128
0
LINE
8
BLACK
6
CONTINUOUS
10
0.98842
20
0.748128
11
0.98943
21
0.74795
0
LINE
8
BLACK
6
CONTINUOUS
10
0.976063
20
0.710385
11
0.976617
21
0.710321
0
LINE
8
BLACK
6
CONTINUOUS
10
0.976617
20
0.710321
11
0.979743
21
0.708758
0
LINE
8
BLACK
6
CONTINUOUS
10
0.979743
20
0.708758
11
0.983973
21
0.708758
0
LINE
8
BLACK
6
CONTINUOUS
10
0.983973
20
0.708758
11
0.986671
21
0.710107
0
LINE
8
BLACK
6
CONTINUOUS
10
0.986671
20
0.710107
11
0.987868
21
0.711304
0
LINE
8
BLACK
6
CONTINUOUS
10
0.987868
20
0.711304
11
0.989217
21
0.714001
0
LINE
8
BLACK
6
CONTINUOUS
10
0.989217
20
0.714001
11
0.989217
21
0.716132
0
LINE
8
BLACK
6
CONTINUOUS
10
0.989217
20
0.716132
11
0.988757
21
0.715995
0
LINE
8
BLACK
6
CONTINUOUS
10
0.988757
20
0.715995
11
0.988586
21
0.716036
0
LINE
8
BLACK
6
CONTINUOUS
10
0.988586
20
0.716036
11
0.98842
21
0.715976
0
LINE
8
BLACK
6
CONTINUOUS
10
0.98842
20
0.715976
11
0.980921
21
0.715976
0
LINE
8
BLACK
6
CONTINUOUS
10
0.980921
20
0.715976
11
0.979911
21
0.716154
0
LINE
8
BLACK
6
CONTINUOUS
10
0.979911
20
0.716154
11
0.979776
21
0.716267
0
LINE
8
BLACK
6
CONTINUOUS
10
0.979776
20
0.716267
11
0.9796
21
0.716287
0
LINE
8
BLACK
6
CONTINUOUS
10
0.9796
20
0.716287
11
0.976063
21
0.718056
0
LINE
8
BLACK
6
CONTINUOUS
10
0.976063
20
0.718056
11
0.976063
21
0.710385
0
LINE
8
BLACK
6
CONTINUOUS
10
1.00044
20
0.710739
11
1.01178
21
0.710739
0
LINE
8
BLACK
6
CONTINUOUS
10
1.01178
20
0.710739
11
1.01448
21
0.712088
0
LINE
8
BLACK
6
CONTINUOUS
10
1.01448
20
0.712088
11
1.01568
21
0.713285
0
LINE
8
BLACK
6
CONTINUOUS
10
1.01568
20
0.713285
11
1.01703
21
0.715982
0
LINE
8
BLACK
6
CONTINUOUS
10
1.01703
20
0.715982
11
1.01703
21
0.720213
0
LINE
8
BLACK
6
CONTINUOUS
10
1.01703
20
0.720213
11
1.01568
21
0.72291
0
LINE
8
BLACK
6
CONTINUOUS
10
1.01568
20
0.72291
11
1.01448
21
0.724107
0
LINE
8
BLACK
6
CONTINUOUS
10
1.01448
20
0.724107
11
1.01387
21
0.724413
0
LINE
8
BLACK
6
CONTINUOUS
10
1.01387
20
0.724413
11
1.01387
21
0.718928
0
LINE
8
BLACK
6
CONTINUOUS
10
1.01387
20
0.718928
11
1.01369
21
0.717918
0
LINE
8
BLACK
6
CONTINUOUS
10
1.01369
20
0.717918
11
1.01239
21
0.716371
0
LINE
8
BLACK
6
CONTINUOUS
10
1.01239
20
0.716371
11
1.0104
21
0.71602
0
LINE
8
BLACK
6
CONTINUOUS
10
1.0104
20
0.71602
11
1.00866
21
0.71703
0
LINE
8
BLACK
6
CONTINUOUS
10
1.00866
20
0.71703
11
1.00796
21
0.718928
0
LINE
8
BLACK
6
CONTINUOUS
10
1.00796
20
0.718928
11
1.00796
21
0.725456
0
LINE
8
BLACK
6
CONTINUOUS
10
1.00796
20
0.725456
11
1.00044
21
0.725456
0
LINE
8
BLACK
6
CONTINUOUS
10
1.00044
20
0.725456
11
1.00044
21
0.710739
0
LINE
8
BLACK
6
CONTINUOUS
10
0.97892
20
0.740874
11
0.977723
21
0.739676
0
LINE
8
BLACK
6
CONTINUOUS
10
0.977723
20
0.739676
11
0.976375
21
0.736979
0
LINE
8
BLACK
6
CONTINUOUS
10
0.976375
20
0.736979
11
0.976375
21
0.731361
0
LINE
8
BLACK
6
CONTINUOUS
10
0.976375
20
0.731361
11
0.984359
21
0.731361
0
LINE
8
BLACK
6
CONTINUOUS
10
0.984359
20
0.731361
11
0.985369
21
0.731183
0
LINE
8
BLACK
6
CONTINUOUS
10
0.985369
20
0.731183
11
0.986916
21
0.729885
0
LINE
8
BLACK
6
CONTINUOUS
10
0.986916
20
0.729885
11
0.987267
21
0.727896
0
LINE
8
BLACK
6
CONTINUOUS
10
0.987267
20
0.727896
11
0.986257
21
0.726147
0
LINE
8
BLACK
6
CONTINUOUS
10
0.986257
20
0.726147
11
0.984359
21
0.725456
0
LINE
8
BLACK
6
CONTINUOUS
10
0.984359
20
0.725456
11
0.977209
21
0.725456
0
LINE
8
BLACK
6
CONTINUOUS
10
0.977209
20
0.725456
11
0.977723
21
0.724427
0
LINE
8
BLACK
6
CONTINUOUS
10
0.977723
20
0.724427
11
0.97892
21
0.72323
0
LINE
8
BLACK
6
CONTINUOUS
10
0.97892
20
0.72323
11
0.981618
21
0.721881
0
LINE
8
BLACK
6
CONTINUOUS
10
0.981618
20
0.721881
11
0.987723
21
0.721881
0
LINE
8
BLACK
6
CONTINUOUS
10
0.987723
20
0.721881
11
0.989217
21
0.722628
0
LINE
8
BLACK
6
CONTINUOUS
10
0.989217
20
0.722628
11
0.989217
21
0.741475
0
LINE
8
BLACK
6
CONTINUOUS
10
0.989217
20
0.741475
11
0.987723
21
0.742222
0
LINE
8
BLACK
6
CONTINUOUS
10
0.987723
20
0.742222
11
0.981618
21
0.742222
0
LINE
8
BLACK
6
CONTINUOUS
10
0.981618
20
0.742222
11
0.97892
21
0.740874
0
LINE
8
BLACK
6
CONTINUOUS
10
0.934921
20
0.761098
11
0.934985
21
0.7611
0
LINE
8
BLACK
6
CONTINUOUS
10
0.934985
20
0.7611
11
0.94061
21
0.759225
0
LINE
8
BLACK
6
CONTINUOUS
10
0.94061
20
0.759225
11
0.941512
21
0.758737
0
LINE
8
BLACK
6
CONTINUOUS
10
0.941512
20
0.758737
11
0.942569
21
0.757016
0
LINE
8
BLACK
6
CONTINUOUS
10
0.942569
20
0.757016
11
0.942273
21
0.755018
0
LINE
8
BLACK
6
CONTINUOUS
10
0.942273
20
0.755018
11
0.940761
21
0.753678
0
LINE
8
BLACK
6
CONTINUOUS
10
0.940761
20
0.753678
11
0.938742
21
0.753622
0
LINE
8
BLACK
6
CONTINUOUS
10
0.938742
20
0.753622
11
0.933573
21
0.755346
0
LINE
8
BLACK
6
CONTINUOUS
10
0.933573
20
0.755346
11
0.925375
21
0.755346
0
LINE
8
BLACK
6
CONTINUOUS
10
0.925375
20
0.755346
11
0.922677
21
0.753997
0
LINE
8
BLACK
6
CONTINUOUS
10
0.922677
20
0.753997
11
0.92148
21
0.7528
0
LINE
8
BLACK
6
CONTINUOUS
10
0.92148
20
0.7528
11
0.920132
21
0.750102
0
LINE
8
BLACK
6
CONTINUOUS
10
0.920132
20
0.750102
11
0.920132
21
0.747747
0
LINE
8
BLACK
6
CONTINUOUS
10
0.920132
20
0.747747
11
0.92148
21
0.745049
0
LINE
8
BLACK
6
CONTINUOUS
10
0.92148
20
0.745049
11
0.922677
21
0.743852
0
LINE
8
BLACK
6
CONTINUOUS
10
0.922677
20
0.743852
11
0.925708
21
0.742337
0
LINE
8
BLACK
6
CONTINUOUS
10
0.925708
20
0.742337
11
0.932893
21
0.740541
0
LINE
8
BLACK
6
CONTINUOUS
10
0.932893
20
0.740541
11
0.933359
21
0.740333
0
LINE
8
BLACK
6
CONTINUOUS
10
0.933359
20
0.740333
11
0.933497
21
0.740317
0
LINE
8
BLACK
6
CONTINUOUS
10
0.933497
20
0.740317
11
0.937247
21
0.738442
0
LINE
8
BLACK
6
CONTINUOUS
10
0.937247
20
0.738442
11
0.937956
21
0.737916
0
LINE
8
BLACK
6
CONTINUOUS
10
0.937956
20
0.737916
11
0.938014
21
0.737889
0
LINE
8
BLACK
6
CONTINUOUS
10
0.938014
20
0.737889
11
0.939889
21
0.736014
0
LINE
8
BLACK
6
CONTINUOUS
10
0.939889
20
0.736014
11
0.940395
21
0.735291
0
LINE
8
BLACK
6
CONTINUOUS
10
0.940395
20
0.735291
11
0.940442
21
0.735247
0
LINE
8
BLACK
6
CONTINUOUS
10
0.940442
20
0.735247
11
0.942317
21
0.731498
0
LINE
8
BLACK
6
CONTINUOUS
10
0.942317
20
0.731498
11
0.942609
21
0.730515
0
LINE
8
BLACK
6
CONTINUOUS
10
0.942609
20
0.730515
11
0.942568
21
0.730343
0
LINE
8
BLACK
6
CONTINUOUS
10
0.942568
20
0.730343
11
0.942629
21
0.730177
0
LINE
8
BLACK
6
CONTINUOUS
10
0.942629
20
0.730177
11
0.942629
21
0.726427
0
LINE
8
BLACK
6
CONTINUOUS
10
0.942629
20
0.726427
11
0.942451
21
0.725418
0
LINE
8
BLACK
6
CONTINUOUS
10
0.942451
20
0.725418
11
0.942337
21
0.725282
0
LINE
8
BLACK
6
CONTINUOUS
10
0.942337
20
0.725282
11
0.942317
21
0.725107
0
LINE
8
BLACK
6
CONTINUOUS
10
0.942317
20
0.725107
11
0.940442
21
0.721357
0
LINE
8
BLACK
6
CONTINUOUS
10
0.940442
20
0.721357
11
0.939916
21
0.720648
0
LINE
8
BLACK
6
CONTINUOUS
10
0.939916
20
0.720648
11
0.939889
21
0.72059
0
LINE
8
BLACK
6
CONTINUOUS
10
0.939889
20
0.72059
11
0.938014
21
0.718715
0
LINE
8
BLACK
6
CONTINUOUS
10
0.938014
20
0.718715
11
0.937291
21
0.718209
0
LINE
8
BLACK
6
CONTINUOUS
10
0.937291
20
0.718209
11
0.937247
21
0.718162
0
LINE
8
BLACK
6
CONTINUOUS
10
0.937247
20
0.718162
11
0.933497
21
0.716287
0
LINE
8
BLACK
6
CONTINUOUS
10
0.933497
20
0.716287
11
0.932515
21
0.715995
0
LINE
8
BLACK
6
CONTINUOUS
10
0.932515
20
0.715995
11
0.932343
21
0.716036
0
LINE
8
BLACK
6
CONTINUOUS
10
0.932343
20
0.716036
11
0.932177
21
0.715976
0
LINE
8
BLACK
6
CONTINUOUS
10
0.932177
20
0.715976
11
0.922803
21
0.715976
0
LINE
8
BLACK
6
CONTINUOUS
10
0.922803
20
0.715976
11
0.921934
21
0.716129
0
LINE
8
BLACK
6
CONTINUOUS
10
0.921934
20
0.716129
11
0.921869
21
0.716127
0
LINE
8
BLACK
6
CONTINUOUS
10
0.921869
20
0.716127
11
0.916245
21
0.718002
0
LINE
8
BLACK
6
CONTINUOUS
10
0.916245
20
0.718002
11
0.915343
21
0.71849
0
LINE
8
BLACK
6
CONTINUOUS
10
0.915343
20
0.71849
11
0.914286
21
0.720211
0
LINE
8
BLACK
6
CONTINUOUS
10
0.914286
20
0.720211
11
0.914582
21
0.722209
0
LINE
8
BLACK
6
CONTINUOUS
10
0.914582
20
0.722209
11
0.916094
21
0.723549
0
LINE
8
BLACK
6
CONTINUOUS
10
0.916094
20
0.723549
11
0.918113
21
0.723604
0
LINE
8
BLACK
6
CONTINUOUS
10
0.918113
20
0.723604
11
0.923282
21
0.721881
0
LINE
8
BLACK
6
CONTINUOUS
10
0.923282
20
0.721881
11
0.93148
21
0.721881
0
LINE
8
BLACK
6
CONTINUOUS
10
0.93148
20
0.721881
11
0.934177
21
0.72323
0
LINE
8
BLACK
6
CONTINUOUS
10
0.934177
20
0.72323
11
0.935374
21
0.724427
0
LINE
8
BLACK
6
CONTINUOUS
10
0.935374
20
0.724427
11
0.936723
21
0.727125
0
LINE
8
BLACK
6
CONTINUOUS
10
0.936723
20
0.727125
11
0.936723
21
0.72948
0
LINE
8
BLACK
6
CONTINUOUS
10
0.936723
20
0.72948
11
0.935375
21
0.732177
0
LINE
8
BLACK
6
CONTINUOUS
10
0.935375
20
0.732177
11
0.934177
21
0.733375
0
LINE
8
BLACK
6
CONTINUOUS
10
0.934177
20
0.733375
11
0.931146
21
0.73489
0
LINE
8
BLACK
6
CONTINUOUS
10
0.931146
20
0.73489
11
0.923962
21
0.736686
0
LINE
8
BLACK
6
CONTINUOUS
10
0.923962
20
0.736686
11
0.923496
21
0.736894
0
LINE
8
BLACK
6
CONTINUOUS
10
0.923496
20
0.736894
11
0.923357
21
0.73691
0
LINE
8
BLACK
6
CONTINUOUS
10
0.923357
20
0.73691
11
0.919608
21
0.738785
0
LINE
8
BLACK
6
CONTINUOUS
10
0.919608
20
0.738785
11
0.918899
21
0.73931
0
LINE
8
BLACK
6
CONTINUOUS
10
0.918899
20
0.73931
11
0.91884
21
0.739338
0
LINE
8
BLACK
6
CONTINUOUS
10
0.91884
20
0.739338
11
0.916966
21
0.741212
0
LINE
8
BLACK
6
CONTINUOUS
10
0.916966
20
0.741212
11
0.916459
21
0.741936
0
LINE
8
BLACK
6
CONTINUOUS
10
0.916459
20
0.741936
11
0.916413
21
0.74198
0
LINE
8
BLACK
6
CONTINUOUS
10
0.916413
20
0.74198
11
0.914538
21
0.745729
0
LINE
8
BLACK
6
CONTINUOUS
10
0.914538
20
0.745729
11
0.914245
21
0.746712
0
LINE
8
BLACK
6
CONTINUOUS
10
0.914245
20
0.746712
11
0.914286
21
0.746884
0
LINE
8
BLACK
6
CONTINUOUS
10
0.914286
20
0.746884
11
0.914226
21
0.74705
0
LINE
8
BLACK
6
CONTINUOUS
10
0.914226
20
0.74705
11
0.914226
21
0.750799
0
LINE
8
BLACK
6
CONTINUOUS
10
0.914226
20
0.750799
11
0.914404
21
0.751809
0
LINE
8
BLACK
6
CONTINUOUS
10
0.914404
20
0.751809
11
0.914518
21
0.751945
0
LINE
8
BLACK
6
CONTINUOUS
10
0.914518
20
0.751945
11
0.914538
21
0.75212
0
LINE
8
BLACK
6
CONTINUOUS
10
0.914538
20
0.75212
11
0.916413
21
0.755869
0
LINE
8
BLACK
6
CONTINUOUS
10
0.916413
20
0.755869
11
0.916939
21
0.756579
0
LINE
8
BLACK
6
CONTINUOUS
10
0.916939
20
0.756579
11
0.916966
21
0.756637
0
LINE
8
BLACK
6
CONTINUOUS
10
0.916966
20
0.756637
11
0.91884
21
0.758512
0
LINE
8
BLACK
6
CONTINUOUS
10
0.91884
20
0.758512
11
0.919564
21
0.759018
0
LINE
8
BLACK
6
CONTINUOUS
10
0.919564
20
0.759018
11
0.919608
21
0.759065
0
LINE
8
BLACK
6
CONTINUOUS
10
0.919608
20
0.759065
11
0.923357
21
0.760939
0
LINE
8
BLACK
6
CONTINUOUS
10
0.923357
20
0.760939
11
0.92434
21
0.761232
0
LINE
8
BLACK
6
CONTINUOUS
10
0.92434
20
0.761232
11
0.924512
21
0.761191
0
LINE
8
BLACK
6
CONTINUOUS
10
0.924512
20
0.761191
11
0.924678
21
0.761251
0
LINE
8
BLACK
6
CONTINUOUS
10
0.924678
20
0.761251
11
0.934052
21
0.761251
0
LINE
8
BLACK
6
CONTINUOUS
10
0.934052
20
0.761251
11
0.934921
21
0.761098
0
LINE
8
BLACK
6
CONTINUOUS
10
1.08442
20
0.760196
11
1.08511
21
0.758298
0
LINE
8
BLACK
6
CONTINUOUS
10
1.08511
20
0.758298
11
1.08511
21
0.72525
0
LINE
8
BLACK
6
CONTINUOUS
10
1.08511
20
0.72525
11
1.08623
21
0.723004
0
LINE
8
BLACK
6
CONTINUOUS
10
1.08623
20
0.723004
11
1.0891
21
0.721569
0
LINE
8
BLACK
6
CONTINUOUS
10
1.0891
20
0.721569
11
1.08993
21
0.720959
0
LINE
8
BLACK
6
CONTINUOUS
10
1.08993
20
0.720959
11
1.09073
21
0.719105
0
LINE
8
BLACK
6
CONTINUOUS
10
1.09073
20
0.719105
11
1.09015
21
0.717169
0
LINE
8
BLACK
6
CONTINUOUS
10
1.09015
20
0.717169
11
1.08847
21
0.716056
0
LINE
8
BLACK
6
CONTINUOUS
10
1.08847
20
0.716056
11
1.08646
21
0.716287
0
LINE
8
BLACK
6
CONTINUOUS
10
1.08646
20
0.716287
11
1.08271
21
0.718162
0
LINE
8
BLACK
6
CONTINUOUS
10
1.08271
20
0.718162
11
1.08189
21
0.718773
0
LINE
8
BLACK
6
CONTINUOUS
10
1.08189
20
0.718773
11
1.08171
21
0.719179
0
LINE
8
BLACK
6
CONTINUOUS
10
1.08171
20
0.719179
11
1.08139
21
0.719483
0
LINE
8
BLACK
6
CONTINUOUS
10
1.08139
20
0.719483
11
1.07952
21
0.723232
0
LINE
8
BLACK
6
CONTINUOUS
10
1.07952
20
0.723232
11
1.07922
21
0.724215
0
LINE
8
BLACK
6
CONTINUOUS
10
1.07922
20
0.724215
11
1.07927
21
0.724387
0
LINE
8
BLACK
6
CONTINUOUS
10
1.07927
20
0.724387
11
1.07921
21
0.724553
0
LINE
8
BLACK
6
CONTINUOUS
10
1.07921
20
0.724553
11
1.07921
21
0.758298
0
LINE
8
BLACK
6
CONTINUOUS
10
1.07921
20
0.758298
11
1.07938
21
0.759308
0
LINE
8
BLACK
6
CONTINUOUS
10
1.07938
20
0.759308
11
1.08068
21
0.760856
0
LINE
8
BLACK
6
CONTINUOUS
10
1.08068
20
0.760856
11
1.08267
21
0.761206
0
LINE
8
BLACK
6
CONTINUOUS
10
1.08267
20
0.761206
11
1.08442
21
0.760196
0
LINE
8
BLACK
6
CONTINUOUS
10
2.26859
20
0.878699
11
2.28365
21
0.863637
0
LINE
8
BLACK
6
CONTINUOUS
10
2.28365
20
0.863637
11
2.3041
21
0.878973
0
LINE
8
BLACK
6
CONTINUOUS
10
2.3041
20
0.878973
11
2.30502
21
0.879437
0
LINE
8
BLACK
6
CONTINUOUS
10
2.30502
20
0.879437
11
2.30703
21
0.879327
0
LINE
8
BLACK
6
CONTINUOUS
10
2.30703
20
0.879327
11
2.30851
21
0.877946
0
LINE
8
BLACK
6
CONTINUOUS
10
2.30851
20
0.877946
11
2.30875
21
0.87594
0
LINE
8
BLACK
6
CONTINUOUS
10
2.30875
20
0.87594
11
2.30765
21
0.874249
0
LINE
8
BLACK
6
CONTINUOUS
10
2.30765
20
0.874249
11
2.28787
21
0.859419
0
LINE
8
BLACK
6
CONTINUOUS
10
2.28787
20
0.859419
11
2.29022
21
0.857067
0
LINE
8
BLACK
6
CONTINUOUS
10
2.29022
20
0.857067
11
2.30587
21
0.857067
0
LINE
8
BLACK
6
CONTINUOUS
10
2.30587
20
0.857067
11
2.30688
21
0.856889
0
LINE
8
BLACK
6
CONTINUOUS
10
2.30688
20
0.856889
11
2.30843
21
0.85559
0
LINE
8
BLACK
6
CONTINUOUS
10
2.30843
20
0.85559
11
2.30878
21
0.853601
0
LINE
8
BLACK
6
CONTINUOUS
10
2.30878
20
0.853601
11
2.30777
21
0.851852
0
LINE
8
BLACK
6
CONTINUOUS
10
2.30777
20
0.851852
11
2.30587
21
0.851161
0
LINE
8
BLACK
6
CONTINUOUS
10
2.30587
20
0.851161
11
2.2665
21
0.851161
0
LINE
8
BLACK
6
CONTINUOUS
10
2.2665
20
0.851161
11
2.26549
21
0.851339
0
LINE
8
BLACK
6
CONTINUOUS
10
2.26549
20
0.851339
11
2.26395
21
0.852638
0
LINE
8
BLACK
6
CONTINUOUS
10
2.26395
20
0.852638
11
2.2636
21
0.854627
0
LINE
8
BLACK
6
CONTINUOUS
10
2.2636
20
0.854627
11
2.26461
21
0.856376
0
LINE
8
BLACK
6
CONTINUOUS
10
2.26461
20
0.856376
11
2.2665
21
0.857067
0
LINE
8
BLACK
6
CONTINUOUS
10
2.2665
20
0.857067
11
2.28187
21
0.857067
0
LINE
8
BLACK
6
CONTINUOUS
10
2.28187
20
0.857067
11
2.26442
21
0.874523
0
LINE
8
BLACK
6
CONTINUOUS
10
2.26442
20
0.874523
11
2.26383
21
0.875363
0
LINE
8
BLACK
6
CONTINUOUS
10
2.26383
20
0.875363
11
2.26365
21
0.877375
0
LINE
8
BLACK
6
CONTINUOUS
10
2.26365
20
0.877375
11
2.26481
21
0.87903
0
LINE
8
BLACK
6
CONTINUOUS
10
2.26481
20
0.87903
11
2.26676
21
0.879553
0
LINE
8
BLACK
6
CONTINUOUS
10
2.26676
20
0.879553
11
2.26859
21
0.878699
0
LINE
8
BLACK
6
CONTINUOUS
10
2.33932
20
1.07485
11
2.3399
21
1.07346
0
LINE
8
BLACK
6
CONTINUOUS
10
2.3399
20
1.07346
11
2.3399
21
1.03613
0
LINE
8
BLACK
6
CONTINUOUS
10
2.3399
20
1.03613
11
2.36943
21
1.03613
0
LINE
8
BLACK
6
CONTINUOUS
10
2.36943
20
1.03613
11
2.36997
21
1.0359
0
LINE
8
BLACK
6
CONTINUOUS
10
2.36997
20
1.0359
11
2.37055
21
1.03577
0
LINE
8
BLACK
6
CONTINUOUS
10
2.37055
20
1.03577
11
2.37065
21
1.03562
0
LINE
8
BLACK
6
CONTINUOUS
10
2.37065
20
1.03562
11
2.37082
21
1.03555
0
LINE
8
BLACK
6
CONTINUOUS
10
2.37082
20
1.03555
11
2.37105
21
1.035
0
LINE
8
BLACK
6
CONTINUOUS
10
2.37105
20
1.035
11
2.37137
21
1.0345
0
LINE
8
BLACK
6
CONTINUOUS
10
2.37137
20
1.0345
11
2.37133
21
1.03433
0
LINE
8
BLACK
6
CONTINUOUS
10
2.37133
20
1.03433
11
2.3714
21
1.03416
0
LINE
8
BLACK
6
CONTINUOUS
10
2.3714
20
1.03416
11
2.37117
21
1.03361
0
LINE
8
BLACK
6
CONTINUOUS
10
2.37117
20
1.03361
11
2.37104
21
1.03303
0
LINE
8
BLACK
6
CONTINUOUS
10
2.37104
20
1.03303
11
2.34169
21
0.990825
0
LINE
8
BLACK
6
CONTINUOUS
10
2.34169
20
0.990825
11
2.36943
21
0.990825
0
LINE
8
BLACK
6
CONTINUOUS
10
2.36943
20
0.990825
11
2.37082
21
0.990249
0
LINE
8
BLACK
6
CONTINUOUS
10
2.37082
20
0.990249
11
2.3714
21
0.988857
0
LINE
8
BLACK
6
CONTINUOUS
10
2.3714
20
0.988857
11
2.37082
21
0.987465
0
LINE
8
BLACK
6
CONTINUOUS
10
2.37082
20
0.987465
11
2.36943
21
0.986888
0
LINE
8
BLACK
6
CONTINUOUS
10
2.36943
20
0.986888
11
2.3399
21
0.986888
0
LINE
8
BLACK
6
CONTINUOUS
10
2.3399
20
0.986888
11
2.3399
21
0.953357
0
LINE
8
BLACK
6
CONTINUOUS
10
2.3399
20
0.953357
11
2.33932
21
0.951965
0
LINE
8
BLACK
6
CONTINUOUS
10
2.33932
20
0.951965
11
2.33793
21
0.951388
0
LINE
8
BLACK
6
CONTINUOUS
10
2.33793
20
0.951388
11
2.33654
21
0.951965
0
LINE
8
BLACK
6
CONTINUOUS
10
2.33654
20
0.951965
11
2.33596
21
0.953357
0
LINE
8
BLACK
6
CONTINUOUS
10
2.33596
20
0.953357
11
2.33596
21
0.986888
0
LINE
8
BLACK
6
CONTINUOUS
10
2.33596
20
0.986888
11
2.30643
21
0.986888
0
LINE
8
BLACK
6
CONTINUOUS
10
2.30643
20
0.986888
11
2.30504
21
0.987465
0
LINE
8
BLACK
6
CONTINUOUS
10
2.30504
20
0.987465
11
2.30446
21
0.988857
0
LINE
8
BLACK
6
CONTINUOUS
10
2.30446
20
0.988857
11
2.30504
21
0.990249
0
LINE
8
BLACK
6
CONTINUOUS
10
2.30504
20
0.990249
11
2.30643
21
0.990825
0
LINE
8
BLACK
6
CONTINUOUS
10
2.30643
20
0.990825
11
2.3343
21
0.990825
0
LINE
8
BLACK
6
CONTINUOUS
10
2.3343
20
0.990825
11
2.30678
21
1.03308
0
LINE
8
BLACK
6
CONTINUOUS
10
2.30678
20
1.03308
11
2.30668
21
1.03364
0
LINE
8
BLACK
6
CONTINUOUS
10
2.30668
20
1.03364
11
2.30646
21
1.03416
0
LINE
8
BLACK
6
CONTINUOUS
10
2.30646
20
1.03416
11
2.30654
21
1.03435
0
LINE
8
BLACK
6
CONTINUOUS
10
2.30654
20
1.03435
11
2.3065
21
1.03456
0
LINE
8
BLACK
6
CONTINUOUS
10
2.3065
20
1.03456
11
2.30682
21
1.03503
0
LINE
8
BLACK
6
CONTINUOUS
10
2.30682
20
1.03503
11
2.30704
21
1.03555
0
LINE
8
BLACK
6
CONTINUOUS
10
2.30704
20
1.03555
11
2.30723
21
1.03563
0
LINE
8
BLACK
6
CONTINUOUS
10
2.30723
20
1.03563
11
2.30735
21
1.03581
0
LINE
8
BLACK
6
CONTINUOUS
10
2.30735
20
1.03581
11
2.30791
21
1.03591
0
LINE
8
BLACK
6
CONTINUOUS
10
2.30791
20
1.03591
11
2.30843
21
1.03613
0
LINE
8
BLACK
6
CONTINUOUS
10
2.30843
20
1.03613
11
2.33596
21
1.03613
0
LINE
8
BLACK
6
CONTINUOUS
10
2.33596
20
1.03613
11
2.33596
21
1.07346
0
LINE
8
BLACK
6
CONTINUOUS
10
2.33596
20
1.07346
11
2.33654
21
1.07485
0
LINE
8
BLACK
6
CONTINUOUS
10
2.33654
20
1.07485
11
2.33793
21
1.07543
0
LINE
8
BLACK
6
CONTINUOUS
10
2.33793
20
1.07543
11
2.33932
21
1.07485
0
LINE
8
BLACK
6
CONTINUOUS
10
2.33793
20
1.03219
11
2.31206
21
1.03219
0
LINE
8
BLACK
6
CONTINUOUS
10
2.31206
20
1.03219
11
2.33798
21
0.992382
0
LINE
8
BLACK
6
CONTINUOUS
10
2.33798
20
0.992382
11
2.36566
21
1.03219
0
LINE
8
BLACK
6
CONTINUOUS
10
2.36566
20
1.03219
11
2.33793
21
1.03219
0
LINE
8
BLACK
6
CONTINUOUS
10
2.13958
20
1.01071
11
2.13972
21
1.01073
0
LINE
8
BLACK
6
CONTINUOUS
10
2.13972
20
1.01073
11
2.14722
21
1.00885
0
LINE
8
BLACK
6
CONTINUOUS
10
2.14722
20
1.00885
11
2.14768
21
1.00865
0
LINE
8
BLACK
6
CONTINUOUS
10
2.14768
20
1.00865
11
2.14782
21
1.00863
0
LINE
8
BLACK
6
CONTINUOUS
10
2.14782
20
1.00863
11
2.15157
21
1.00676
0
LINE
8
BLACK
6
CONTINUOUS
10
2.15157
20
1.00676
11
2.15228
21
1.00623
0
LINE
8
BLACK
6
CONTINUOUS
10
2.15228
20
1.00623
11
2.15234
21
1.0062
0
LINE
8
BLACK
6
CONTINUOUS
10
2.15234
20
1.0062
11
2.15609
21
1.00245
0
LINE
8
BLACK
6
CONTINUOUS
10
2.15609
20
1.00245
11
2.15668
21
1.00161
0
LINE
8
BLACK
6
CONTINUOUS
10
2.15668
20
1.00161
11
2.15669
21
1.00144
0
LINE
8
BLACK
6
CONTINUOUS
10
2.15669
20
1.00144
11
2.1568
21
1.0013
0
LINE
8
BLACK
6
CONTINUOUS
10
2.1568
20
1.0013
11
2.15868
21
0.995674
0
LINE
8
BLACK
6
CONTINUOUS
10
2.15868
20
0.995674
11
2.15881
21
0.994801
0
LINE
8
BLACK
6
CONTINUOUS
10
2.15881
20
0.994801
11
2.15883
21
0.99474
0
LINE
8
BLACK
6
CONTINUOUS
10
2.15883
20
0.99474
11
2.15883
21
0.985366
0
LINE
8
BLACK
6
CONTINUOUS
10
2.15883
20
0.985366
11
2.15876
21
0.984983
0
LINE
8
BLACK
6
CONTINUOUS
10
2.15876
20
0.984983
11
2.15878
21
0.984854
0
LINE
8
BLACK
6
CONTINUOUS
10
2.15878
20
0.984854
11
2.15872
21
0.98474
0
LINE
8
BLACK
6
CONTINUOUS
10
2.15872
20
0.98474
11
2.15865
21
0.984356
0
LINE
8
BLACK
6
CONTINUOUS
10
2.15865
20
0.984356
11
2.15816
21
0.983769
0
LINE
8
BLACK
6
CONTINUOUS
10
2.15816
20
0.983769
11
2.15777
21
0.983104
0
LINE
8
BLACK
6
CONTINUOUS
10
2.15777
20
0.983104
11
2.15752
21
0.983013
0
LINE
8
BLACK
6
CONTINUOUS
10
2.15752
20
0.983013
11
2.15735
21
0.982809
0
LINE
8
BLACK
6
CONTINUOUS
10
2.15735
20
0.982809
11
2.1566
21
0.982676
0
LINE
8
BLACK
6
CONTINUOUS
10
2.1566
20
0.982676
11
2.15587
21
0.982414
0
LINE
8
BLACK
6
CONTINUOUS
10
2.15587
20
0.982414
11
2.1165
21
0.982414
0
LINE
8
BLACK
6
CONTINUOUS
10
2.1165
20
0.982414
11
2.11612
21
0.982481
0
LINE
8
BLACK
6
CONTINUOUS
10
2.11612
20
0.982481
11
2.11599
21
0.982458
0
LINE
8
BLACK
6
CONTINUOUS
10
2.11599
20
0.982458
11
2.11588
21
0.982524
0
LINE
8
BLACK
6
CONTINUOUS
10
2.11588
20
0.982524
11
2.11549
21
0.982592
0
LINE
8
BLACK
6
CONTINUOUS
10
2.11549
20
0.982592
11
2.11491
21
0.983085
0
LINE
8
BLACK
6
CONTINUOUS
10
2.11491
20
0.983085
11
2.11424
21
0.983468
0
LINE
8
BLACK
6
CONTINUOUS
10
2.11424
20
0.983468
11
2.11415
21
0.983719
0
LINE
8
BLACK
6
CONTINUOUS
10
2.11415
20
0.983719
11
2.11395
21
0.98389
0
LINE
8
BLACK
6
CONTINUOUS
10
2.11395
20
0.98389
11
2.11381
21
0.984646
0
LINE
8
BLACK
6
CONTINUOUS
10
2.11381
20
0.984646
11
2.11355
21
0.985366
0
LINE
8
BLACK
6
CONTINUOUS
10
2.11355
20
0.985366
11
2.11355
21
0.99474
0
LINE
8
BLACK
6
CONTINUOUS
10
2.11355
20
0.99474
11
2.11371
21
0.99561
0
LINE
8
BLACK
6
CONTINUOUS
10
2.11371
20
0.99561
11
2.1137
21
0.995674
0
LINE
8
BLACK
6
CONTINUOUS
10
2.1137
20
0.995674
11
2.11558
21
1.0013
0
LINE
8
BLACK
6
CONTINUOUS
10
2.11558
20
1.0013
11
2.11607
21
1.0022
0
LINE
8
BLACK
6
CONTINUOUS
10
2.11607
20
1.0022
11
2.11622
21
1.00229
0
LINE
8
BLACK
6
CONTINUOUS
10
2.11622
20
1.00229
11
2.11629
21
1.00245
0
LINE
8
BLACK
6
CONTINUOUS
10
2.11629
20
1.00245
11
2.12004
21
1.0062
0
LINE
8
BLACK
6
CONTINUOUS
10
2.12004
20
1.0062
11
2.12076
21
1.00671
0
LINE
8
BLACK
6
CONTINUOUS
10
2.12076
20
1.00671
11
2.12081
21
1.00676
0
LINE
8
BLACK
6
CONTINUOUS
10
2.12081
20
1.00676
11
2.12456
21
1.00863
0
LINE
8
BLACK
6
CONTINUOUS
10
2.12456
20
1.00863
11
2.12505
21
1.00878
0
LINE
8
BLACK
6
CONTINUOUS
10
2.12505
20
1.00878
11
2.12516
21
1.00885
0
LINE
8
BLACK
6
CONTINUOUS
10
2.12516
20
1.00885
11
2.13266
21
1.01073
0
LINE
8
BLACK
6
CONTINUOUS
10
2.13266
20
1.01073
11
2.13325
21
1.01077
0
LINE
8
BLACK
6
CONTINUOUS
10
2.13325
20
1.01077
11
2.13338
21
1.01082
0
LINE
8
BLACK
6
CONTINUOUS
10
2.13338
20
1.01082
11
2.139
21
1.01082
0
LINE
8
BLACK
6
CONTINUOUS
10
2.139
20
1.01082
11
2.13958
21
1.01071
0
LINE
8
BLACK
6
CONTINUOUS
10
2.12691
20
1.0032
11
2.12388
21
1.00169
0
LINE
8
BLACK
6
CONTINUOUS
10
2.12388
20
1.00169
11
2.12096
21
0.998769
0
LINE
8
BLACK
6
CONTINUOUS
10
2.12096
20
0.998769
11
2.11946
21
0.994261
0
LINE
8
BLACK
6
CONTINUOUS
10
2.11946
20
0.994261
11
2.11946
21
0.988319
0
LINE
8
BLACK
6
CONTINUOUS
10
2.11946
20
0.988319
11
2.15292
21
0.988319
0
LINE
8
BLACK
6
CONTINUOUS
10
2.15292
20
0.988319
11
2.15292
21
0.994261
0
LINE
8
BLACK
6
CONTINUOUS
10
2.15292
20
0.994261
11
2.15142
21
0.998769
0
LINE
8
BLACK
6
CONTINUOUS
10
2.15142
20
0.998769
11
2.1485
21
1.00169
0
LINE
8
BLACK
6
CONTINUOUS
10
2.1485
20
1.00169
11
2.14547
21
1.0032
0
LINE
8
BLACK
6
CONTINUOUS
10
2.14547
20
1.0032
11
2.13864
21
1.00491
0
LINE
8
BLACK
6
CONTINUOUS
10
2.13864
20
1.00491
11
2.13374
21
1.00491
0
LINE
8
BLACK
6
CONTINUOUS
10
2.13374
20
1.00491
11
2.12691
21
1.0032
0
LINE
8
BLACK
6
CONTINUOUS
10
2.15814
20
1.04726
11
2.15883
21
1.04536
0
LINE
8
BLACK
6
CONTINUOUS
10
2.15883
20
1.04536
11
2.15883
21
1.02286
0
LINE
8
BLACK
6
CONTINUOUS
10
2.15883
20
1.02286
11
2.15865
21
1.02185
0
LINE
8
BLACK
6
CONTINUOUS
10
2.15865
20
1.02185
11
2.15735
21
1.0203
0
LINE
8
BLACK
6
CONTINUOUS
10
2.15735
20
1.0203
11
2.15536
21
1.01995
0
LINE
8
BLACK
6
CONTINUOUS
10
2.15536
20
1.01995
11
2.15361
21
1.02096
0
LINE
8
BLACK
6
CONTINUOUS
10
2.15361
20
1.02096
11
2.15292
21
1.02286
0
LINE
8
BLACK
6
CONTINUOUS
10
2.15292
20
1.02286
11
2.15292
21
1.03116
0
LINE
8
BLACK
6
CONTINUOUS
10
2.15292
20
1.03116
11
2.12551
21
1.03116
0
LINE
8
BLACK
6
CONTINUOUS
10
2.12551
20
1.03116
11
2.12797
21
1.0287
0
LINE
8
BLACK
6
CONTINUOUS
10
2.12797
20
1.0287
11
2.12847
21
1.02798
0
LINE
8
BLACK
6
CONTINUOUS
10
2.12847
20
1.02798
11
2.12852
21
1.02793
0
LINE
8
BLACK
6
CONTINUOUS
10
2.12852
20
1.02793
11
2.13039
21
1.02418
0
LINE
8
BLACK
6
CONTINUOUS
10
2.13039
20
1.02418
11
2.13069
21
1.0232
0
LINE
8
BLACK
6
CONTINUOUS
10
2.13069
20
1.0232
11
2.13022
21
1.02123
0
LINE
8
BLACK
6
CONTINUOUS
10
2.13022
20
1.02123
11
2.1286
21
1.02003
0
LINE
8
BLACK
6
CONTINUOUS
10
2.1286
20
1.02003
11
2.12658
21
1.02015
0
LINE
8
BLACK
6
CONTINUOUS
10
2.12658
20
1.02015
11
2.12511
21
1.02154
0
LINE
8
BLACK
6
CONTINUOUS
10
2.12511
20
1.02154
11
2.12345
21
1.02486
0
LINE
8
BLACK
6
CONTINUOUS
10
2.12345
20
1.02486
11
2.12025
21
1.02807
0
LINE
8
BLACK
6
CONTINUOUS
10
2.12025
20
1.02807
11
2.11487
21
1.03165
0
LINE
8
BLACK
6
CONTINUOUS
10
2.11487
20
1.03165
11
2.11413
21
1.03236
0
LINE
8
BLACK
6
CONTINUOUS
10
2.11413
20
1.03236
11
2.11408
21
1.03252
0
LINE
8
BLACK
6
CONTINUOUS
10
2.11408
20
1.03252
11
2.11395
21
1.03263
0
LINE
8
BLACK
6
CONTINUOUS
10
2.11395
20
1.03263
11
2.1138
21
1.03348
0
LINE
8
BLACK
6
CONTINUOUS
10
2.1138
20
1.03348
11
2.11356
21
1.0343
0
LINE
8
BLACK
6
CONTINUOUS
10
2.11356
20
1.0343
11
2.11363
21
1.03446
0
LINE
8
BLACK
6
CONTINUOUS
10
2.11363
20
1.03446
11
2.1136
21
1.03462
0
LINE
8
BLACK
6
CONTINUOUS
10
2.1136
20
1.03462
11
2.11403
21
1.03537
0
LINE
8
BLACK
6
CONTINUOUS
10
2.11403
20
1.03537
11
2.11437
21
1.03615
0
LINE
8
BLACK
6
CONTINUOUS
10
2.11437
20
1.03615
11
2.11452
21
1.03623
0
LINE
8
BLACK
6
CONTINUOUS
10
2.11452
20
1.03623
11
2.11461
21
1.03637
0
LINE
8
BLACK
6
CONTINUOUS
10
2.11461
20
1.03637
11
2.11541
21
1.03667
0
LINE
8
BLACK
6
CONTINUOUS
10
2.11541
20
1.03667
11
2.11618
21
1.03705
0
LINE
8
BLACK
6
CONTINUOUS
10
2.11618
20
1.03705
11
2.11635
21
1.037
0
LINE
8
BLACK
6
CONTINUOUS
10
2.11635
20
1.037
11
2.1165
21
1.03706
0
LINE
8
BLACK
6
CONTINUOUS
10
2.1165
20
1.03706
11
2.15292
21
1.03706
0
LINE
8
BLACK
6
CONTINUOUS
10
2.15292
20
1.03706
11
2.15292
21
1.04536
0
LINE
8
BLACK
6
CONTINUOUS
10
2.15292
20
1.04536
11
2.1531
21
1.04637
0
LINE
8
BLACK
6
CONTINUOUS
10
2.1531
20
1.04637
11
2.1544
21
1.04792
0
LINE
8
BLACK
6
CONTINUOUS
10
2.1544
20
1.04792
11
2.15639
21
1.04827
0
LINE
8
BLACK
6
CONTINUOUS
10
2.15639
20
1.04827
11
2.15814
21
1.04726
0
LINE
8
BLACK
6
CONTINUOUS
10
2.43797
20
1.29592
11
2.43936
21
1.29534
0
LINE
8
BLACK
6
CONTINUOUS
10
2.43936
20
1.29534
11
2.43994
21
1.29395
0
LINE
8
BLACK
6
CONTINUOUS
10
2.43994
20
1.29395
11
2.43994
21
0.734898
0
LINE
8
BLACK
6
CONTINUOUS
10
2.43994
20
0.734898
11
2.43936
21
0.733506
0
LINE
8
BLACK
6
CONTINUOUS
10
2.43936
20
0.733506
11
2.43797
21
0.732929
0
LINE
8
BLACK
6
CONTINUOUS
10
2.43797
20
0.732929
11
1.37498
21
0.732929
0
LINE
8
BLACK
6
CONTINUOUS
10
1.37498
20
0.732929
11
1.37358
21
0.733506
0
LINE
8
BLACK
6
CONTINUOUS
10
1.37358
20
0.733506
11
1.37301
21
0.734898
0
LINE
8
BLACK
6
CONTINUOUS
10
1.37301
20
0.734898
11
1.37301
21
1.29395
0
LINE
8
BLACK
6
CONTINUOUS
10
1.37301
20
1.29395
11
1.37358
21
1.29534
0
LINE
8
BLACK
6
CONTINUOUS
10
1.37358
20
1.29534
11
1.37498
21
1.29592
0
LINE
8
BLACK
6
CONTINUOUS
10
1.37498
20
1.29592
11
2.43797
21
1.29592
0
LINE
8
BLACK
6
CONTINUOUS
10
1.37694
20
1.29198
11
1.37694
21
0.736866
0
LINE
8
BLACK
6
CONTINUOUS
10
1.37694
20
0.736866
11
2.436
21
0.736866
0
LINE
8
BLACK
6
CONTINUOUS
10
2.436
20
0.736866
11
2.436
21
1.29198
0
LINE
8
BLACK
6
CONTINUOUS
10
2.436
20
1.29198
11
1.37694
21
1.29198
0
LINE
8
BLACK
6
CONTINUOUS
10
0.956929
20
0.761183
11
0.957062
21
0.761206
0
LINE
8
BLACK
6
CONTINUOUS
10
0.957062
20
0.761206
11
0.957179
21
0.761139
0
LINE
8
BLACK
6
CONTINUOUS
10
0.957179
20
0.761139
11
0.957313
21
0.761151
0
LINE
8
BLACK
6
CONTINUOUS
10
0.957313
20
0.761151
11
0.957942
21
0.760711
0
LINE
8
BLACK
6
CONTINUOUS
10
0.957942
20
0.760711
11
0.958637
21
0.760386
0
LINE
8
BLACK
6
CONTINUOUS
10
0.958637
20
0.760386
11
0.960512
21
0.758512
0
LINE
8
BLACK
6
CONTINUOUS
10
0.960512
20
0.758512
11
0.960735
21
0.758193
0
LINE
8
BLACK
6
CONTINUOUS
10
0.960735
20
0.758193
11
0.960842
21
0.758117
0
LINE
8
BLACK
6
CONTINUOUS
10
0.960842
20
0.758117
11
0.960876
21
0.757991
0
LINE
8
BLACK
6
CONTINUOUS
10
0.960876
20
0.757991
11
0.9611
21
0.757672
0
LINE
8
BLACK
6
CONTINUOUS
10
0.9611
20
0.757672
11
0.961167
21
0.756907
0
LINE
8
BLACK
6
CONTINUOUS
10
0.961167
20
0.756907
11
0.961365
21
0.756166
0
LINE
8
BLACK
6
CONTINUOUS
10
0.961365
20
0.756166
11
0.961253
21
0.755925
0
LINE
8
BLACK
6
CONTINUOUS
10
0.961253
20
0.755925
11
0.961276
21
0.755659
0
LINE
8
BLACK
6
CONTINUOUS
10
0.961276
20
0.755659
11
0.960836
21
0.755031
0
LINE
8
BLACK
6
CONTINUOUS
10
0.960836
20
0.755031
11
0.960512
21
0.754336
0
LINE
8
BLACK
6
CONTINUOUS
10
0.960512
20
0.754336
11
0.958637
21
0.752461
0
LINE
8
BLACK
6
CONTINUOUS
10
0.958637
20
0.752461
11
0.958318
21
0.752238
0
LINE
8
BLACK
6
CONTINUOUS
10
0.958318
20
0.752238
11
0.958243
21
0.75213
0
LINE
8
BLACK
6
CONTINUOUS
10
0.958243
20
0.75213
11
0.958116
21
0.752096
0
LINE
8
BLACK
6
CONTINUOUS
10
0.958116
20
0.752096
11
0.958109
21
0.752091
0
LINE
8
BLACK
6
CONTINUOUS
10
0.958109
20
0.752091
11
0.958025
21
0.751992
0
LINE
8
BLACK
6
CONTINUOUS
10
0.958025
20
0.751992
11
0.957947
21
0.751978
0
LINE
8
BLACK
6
CONTINUOUS
10
0.957947
20
0.751978
11
0.957797
21
0.751873
0
LINE
8
BLACK
6
CONTINUOUS
10
0.957797
20
0.751873
11
0.957032
21
0.751806
0
LINE
8
BLACK
6
CONTINUOUS
10
0.957032
20
0.751806
11
0.956292
21
0.751607
0
LINE
8
BLACK
6
CONTINUOUS
10
0.956292
20
0.751607
11
0.956169
21
0.751664
0
LINE
8
BLACK
6
CONTINUOUS
10
0.956169
20
0.751664
11
0.956036
21
0.751641
0
LINE
8
BLACK
6
CONTINUOUS
10
0.956036
20
0.751641
11
0.955919
21
0.751709
0
LINE
8
BLACK
6
CONTINUOUS
10
0.955919
20
0.751709
11
0.955785
21
0.751697
0
LINE
8
BLACK
6
CONTINUOUS
10
0.955785
20
0.751697
11
0.955156
21
0.752137
0
LINE
8
BLACK
6
CONTINUOUS
10
0.955156
20
0.752137
11
0.954461
21
0.752461
0
LINE
8
BLACK
6
CONTINUOUS
10
0.954461
20
0.752461
11
0.952586
21
0.754336
0
LINE
8
BLACK
6
CONTINUOUS
10
0.952586
20
0.754336
11
0.952363
21
0.754655
0
LINE
8
BLACK
6
CONTINUOUS
10
0.952363
20
0.754655
11
0.952255
21
0.75473
0
LINE
8
BLACK
6
CONTINUOUS
10
0.952255
20
0.75473
11
0.952221
21
0.754857
0
LINE
8
BLACK
6
CONTINUOUS
10
0.952221
20
0.754857
11
0.951998
21
0.755176
0
LINE
8
BLACK
6
CONTINUOUS
10
0.951998
20
0.755176
11
0.951931
21
0.75594
0
LINE
8
BLACK
6
CONTINUOUS
10
0.951931
20
0.75594
11
0.951733
21
0.756681
0
LINE
8
BLACK
6
CONTINUOUS
10
0.951733
20
0.756681
11
0.951845
21
0.756922
0
LINE
8
BLACK
6
CONTINUOUS
10
0.951845
20
0.756922
11
0.951822
21
0.757188
0
LINE
8
BLACK
6
CONTINUOUS
10
0.951822
20
0.757188
11
0.952262
21
0.757816
0
LINE
8
BLACK
6
CONTINUOUS
10
0.952262
20
0.757816
11
0.952586
21
0.758512
0
LINE
8
BLACK
6
CONTINUOUS
10
0.952586
20
0.758512
11
0.954461
21
0.760386
0
LINE
8
BLACK
6
CONTINUOUS
10
0.954461
20
0.760386
11
0.95478
21
0.76061
0
LINE
8
BLACK
6
CONTINUOUS
10
0.95478
20
0.76061
11
0.954855
21
0.760717
0
LINE
8
BLACK
6
CONTINUOUS
10
0.954855
20
0.760717
11
0.954982
21
0.760751
0
LINE
8
BLACK
6
CONTINUOUS
10
0.954982
20
0.760751
11
0.954989
21
0.760756
0
LINE
8
BLACK
6
CONTINUOUS
10
0.954989
20
0.760756
11
0.955073
21
0.760856
0
LINE
8
BLACK
6
CONTINUOUS
10
0.955073
20
0.760856
11
0.955151
21
0.760869
0
LINE
8
BLACK
6
CONTINUOUS
10
0.955151
20
0.760869
11
0.955301
21
0.760975
0
LINE
8
BLACK
6
CONTINUOUS
10
0.955301
20
0.760975
11
0.956065
21
0.761041
0
LINE
8
BLACK
6
CONTINUOUS
10
0.956065
20
0.761041
11
0.956806
21
0.76124
0
LINE
8
BLACK
6
CONTINUOUS
10
0.956806
20
0.76124
11
0.956929
21
0.761183
0
LINE
8
BLACK
6
CONTINUOUS
10
1.04791
20
0.879284
11
1.04805
21
0.879305
0
LINE
8
BLACK
6
CONTINUOUS
10
1.04805
20
0.879305
11
1.04815
21
0.879242
0
LINE
8
BLACK
6
CONTINUOUS
10
1.04815
20
0.879242
11
1.04848
21
0.879183
0
LINE
8
BLACK
6
CONTINUOUS
10
1.04848
20
0.879183
11
1.04909
21
0.878672
0
LINE
8
BLACK
6
CONTINUOUS
10
1.04909
20
0.878672
11
1.04978
21
0.878259
0
LINE
8
BLACK
6
CONTINUOUS
10
1.04978
20
0.878259
11
1.04985
21
0.878036
0
LINE
8
BLACK
6
CONTINUOUS
10
1.04985
20
0.878036
11
1.05003
21
0.877885
0
LINE
8
BLACK
6
CONTINUOUS
10
1.05003
20
0.877885
11
1.05017
21
0.877101
0
LINE
8
BLACK
6
CONTINUOUS
10
1.05017
20
0.877101
11
1.05043
21
0.876348
0
LINE
8
BLACK
6
CONTINUOUS
10
1.05043
20
0.876348
11
1.05034
21
0.876128
0
LINE
8
BLACK
6
CONTINUOUS
10
1.05034
20
0.876128
11
1.05038
21
0.875896
0
LINE
8
BLACK
6
CONTINUOUS
10
1.05038
20
0.875896
11
1.04998
21
0.875206
0
LINE
8
BLACK
6
CONTINUOUS
10
1.04998
20
0.875206
11
1.0497
21
0.874464
0
LINE
8
BLACK
6
CONTINUOUS
10
1.0497
20
0.874464
11
1.04074
21
0.864229
0
LINE
8
BLACK
6
CONTINUOUS
10
1.04074
20
0.864229
11
1.04099
21
0.864185
0
LINE
8
BLACK
6
CONTINUOUS
10
1.04099
20
0.864185
11
1.04112
21
0.864072
0
LINE
8
BLACK
6
CONTINUOUS
10
1.04112
20
0.864072
11
1.0413
21
0.864052
0
LINE
8
BLACK
6
CONTINUOUS
10
1.0413
20
0.864052
11
1.04505
21
0.862177
0
LINE
8
BLACK
6
CONTINUOUS
10
1.04505
20
0.862177
11
1.04576
21
0.861651
0
LINE
8
BLACK
6
CONTINUOUS
10
1.04576
20
0.861651
11
1.04581
21
0.861624
0
LINE
8
BLACK
6
CONTINUOUS
10
1.04581
20
0.861624
11
1.04769
21
0.859749
0
LINE
8
BLACK
6
CONTINUOUS
10
1.04769
20
0.859749
11
1.04819
21
0.859026
0
LINE
8
BLACK
6
CONTINUOUS
10
1.04819
20
0.859026
11
1.04824
21
0.858982
0
LINE
8
BLACK
6
CONTINUOUS
10
1.04824
20
0.858982
11
1.05012
21
0.855232
0
LINE
8
BLACK
6
CONTINUOUS
10
1.05012
20
0.855232
11
1.05041
21
0.854249
0
LINE
8
BLACK
6
CONTINUOUS
10
1.05041
20
0.854249
11
1.05037
21
0.854077
0
LINE
8
BLACK
6
CONTINUOUS
10
1.05037
20
0.854077
11
1.05043
21
0.853912
0
LINE
8
BLACK
6
CONTINUOUS
10
1.05043
20
0.853912
11
1.05043
21
0.844538
0
LINE
8
BLACK
6
CONTINUOUS
10
1.05043
20
0.844538
11
1.05025
21
0.843528
0
LINE
8
BLACK
6
CONTINUOUS
10
1.05025
20
0.843528
11
1.05014
21
0.843393
0
LINE
8
BLACK
6
CONTINUOUS
10
1.05014
20
0.843393
11
1.05012
21
0.843217
0
LINE
8
BLACK
6
CONTINUOUS
10
1.05012
20
0.843217
11
1.04824
21
0.839468
0
LINE
8
BLACK
6
CONTINUOUS
10
1.04824
20
0.839468
11
1.04772
21
0.838759
0
LINE
8
BLACK
6
CONTINUOUS
10
1.04772
20
0.838759
11
1.04769
21
0.8387
0
LINE
8
BLACK
6
CONTINUOUS
10
1.04769
20
0.8387
11
1.04581
21
0.836826
0
LINE
8
BLACK
6
CONTINUOUS
10
1.04581
20
0.836826
11
1.04509
21
0.836319
0
LINE
8
BLACK
6
CONTINUOUS
10
1.04509
20
0.836319
11
1.04505
21
0.836272
0
LINE
8
BLACK
6
CONTINUOUS
10
1.04505
20
0.836272
11
1.0413
21
0.834398
0
LINE
8
BLACK
6
CONTINUOUS
10
1.0413
20
0.834398
11
1.04031
21
0.834105
0
LINE
8
BLACK
6
CONTINUOUS
10
1.04031
20
0.834105
11
1.04014
21
0.834146
0
LINE
8
BLACK
6
CONTINUOUS
10
1.04014
20
0.834146
11
1.03998
21
0.834086
0
LINE
8
BLACK
6
CONTINUOUS
10
1.03998
20
0.834086
11
1.02873
21
0.834086
0
LINE
8
BLACK
6
CONTINUOUS
10
1.02873
20
0.834086
11
1.02772
21
0.834264
0
LINE
8
BLACK
6
CONTINUOUS
10
1.02772
20
0.834264
11
1.02758
21
0.834377
0
LINE
8
BLACK
6
CONTINUOUS
10
1.02758
20
0.834377
11
1.02741
21
0.834398
0
LINE
8
BLACK
6
CONTINUOUS
10
1.02741
20
0.834398
11
1.02366
21
0.836272
0
LINE
8
BLACK
6
CONTINUOUS
10
1.02366
20
0.836272
11
1.02295
21
0.836798
0
LINE
8
BLACK
6
CONTINUOUS
10
1.02295
20
0.836798
11
1.02289
21
0.836826
0
LINE
8
BLACK
6
CONTINUOUS
10
1.02289
20
0.836826
11
1.02102
21
0.8387
0
LINE
8
BLACK
6
CONTINUOUS
10
1.02102
20
0.8387
11
1.02043
21
0.83954
0
LINE
8
BLACK
6
CONTINUOUS
10
1.02043
20
0.83954
11
1.02025
21
0.841552
0
LINE
8
BLACK
6
CONTINUOUS
10
1.02025
20
0.841552
11
1.02141
21
0.843207
0
LINE
8
BLACK
6
CONTINUOUS
10
1.02141
20
0.843207
11
1.02336
21
0.84373
0
LINE
8
BLACK
6
CONTINUOUS
10
1.02336
20
0.84373
11
1.02519
21
0.842876
0
LINE
8
BLACK
6
CONTINUOUS
10
1.02519
20
0.842876
11
1.02673
21
0.84134
0
LINE
8
BLACK
6
CONTINUOUS
10
1.02673
20
0.84134
11
1.02942
21
0.839991
0
LINE
8
BLACK
6
CONTINUOUS
10
1.02942
20
0.839991
11
1.03928
21
0.839991
0
LINE
8
BLACK
6
CONTINUOUS
10
1.03928
20
0.839991
11
1.04198
21
0.84134
0
LINE
8
BLACK
6
CONTINUOUS
10
1.04198
20
0.84134
11
1.04317
21
0.842537
0
LINE
8
BLACK
6
CONTINUOUS
10
1.04317
20
0.842537
11
1.04452
21
0.845235
0
LINE
8
BLACK
6
CONTINUOUS
10
1.04452
20
0.845235
11
1.04452
21
0.853214
0
LINE
8
BLACK
6
CONTINUOUS
10
1.04452
20
0.853214
11
1.04317
21
0.855912
0
LINE
8
BLACK
6
CONTINUOUS
10
1.04317
20
0.855912
11
1.04198
21
0.857109
0
LINE
8
BLACK
6
CONTINUOUS
10
1.04198
20
0.857109
11
1.03928
21
0.858458
0
LINE
8
BLACK
6
CONTINUOUS
10
1.03928
20
0.858458
11
1.03435
21
0.858458
0
LINE
8
BLACK
6
CONTINUOUS
10
1.03435
20
0.858458
11
1.03391
21
0.858535
0
LINE
8
BLACK
6
CONTINUOUS
10
1.03391
20
0.858535
11
1.03378
21
0.858514
0
LINE
8
BLACK
6
CONTINUOUS
10
1.03378
20
0.858514
11
1.03367
21
0.858577
0
LINE
8
BLACK
6
CONTINUOUS
10
1.03367
20
0.858577
11
1.03334
21
0.858636
0
LINE
8
BLACK
6
CONTINUOUS
10
1.03334
20
0.858636
11
1.03273
21
0.859148
0
LINE
8
BLACK
6
CONTINUOUS
10
1.03273
20
0.859148
11
1.03205
21
0.85956
0
LINE
8
BLACK
6
CONTINUOUS
10
1.03205
20
0.85956
11
1.03197
21
0.859783
0
LINE
8
BLACK
6
CONTINUOUS
10
1.03197
20
0.859783
11
1.03179
21
0.859934
0
LINE
8
BLACK
6
CONTINUOUS
10
1.03179
20
0.859934
11
1.03166
21
0.860718
0
LINE
8
BLACK
6
CONTINUOUS
10
1.03166
20
0.860718
11
1.0314
21
0.861472
0
LINE
8
BLACK
6
CONTINUOUS
10
1.0314
20
0.861472
11
1.03148
21
0.861691
0
LINE
8
BLACK
6
CONTINUOUS
10
1.03148
20
0.861691
11
1.03144
21
0.861923
0
LINE
8
BLACK
6
CONTINUOUS
10
1.03144
20
0.861923
11
1.03184
21
0.862613
0
LINE
8
BLACK
6
CONTINUOUS
10
1.03184
20
0.862613
11
1.03213
21
0.863355
0
LINE
8
BLACK
6
CONTINUOUS
10
1.03213
20
0.863355
11
1.04097
21
0.873456
0
LINE
8
BLACK
6
CONTINUOUS
10
1.04097
20
0.873456
11
1.0231
21
0.873456
0
LINE
8
BLACK
6
CONTINUOUS
10
1.0231
20
0.873456
11
1.02209
21
0.873634
0
LINE
8
BLACK
6
CONTINUOUS
10
1.02209
20
0.873634
11
1.02055
21
0.874932
0
LINE
8
BLACK
6
CONTINUOUS
10
1.02055
20
0.874932
11
1.0202
21
0.876921
0
LINE
8
BLACK
6
CONTINUOUS
10
1.0202
20
0.876921
11
1.02121
21
0.878671
0
LINE
8
BLACK
6
CONTINUOUS
10
1.02121
20
0.878671
11
1.0231
21
0.879361
0
LINE
8
BLACK
6
CONTINUOUS
10
1.0231
20
0.879361
11
1.04748
21
0.879361
0
LINE
8
BLACK
6
CONTINUOUS
10
1.04748
20
0.879361
11
1.04791
21
0.879284
0
LINE
8
BLACK
6
CONTINUOUS
10
0.975369
20
0.879183
11
0.976916
21
0.877885
0
LINE
8
BLACK
6
CONTINUOUS
10
0.976916
20
0.877885
11
0.977267
21
0.875896
0
LINE
8
BLACK
6
CONTINUOUS
10
0.977267
20
0.875896
11
0.976257
21
0.874147
0
LINE
8
BLACK
6
CONTINUOUS
10
0.976257
20
0.874147
11
0.974359
21
0.873456
0
LINE
8
BLACK
6
CONTINUOUS
10
0.974359
20
0.873456
11
0.966063
21
0.873456
0
LINE
8
BLACK
6
CONTINUOUS
10
0.966063
20
0.873456
11
0.966063
21
0.837039
0
LINE
8
BLACK
6
CONTINUOUS
10
0.966063
20
0.837039
11
0.965885
21
0.836029
0
LINE
8
BLACK
6
CONTINUOUS
10
0.965885
20
0.836029
11
0.964587
21
0.834481
0
LINE
8
BLACK
6
CONTINUOUS
10
0.964587
20
0.834481
11
0.962598
21
0.834131
0
LINE
8
BLACK
6
CONTINUOUS
10
0.962598
20
0.834131
11
0.960849
21
0.835141
0
LINE
8
BLACK
6
CONTINUOUS
10
0.960849
20
0.835141
11
0.960158
21
0.837039
0
LINE
8
BLACK
6
CONTINUOUS
10
0.960158
20
0.837039
11
0.960158
21
0.873456
0
LINE
8
BLACK
6
CONTINUOUS
10
0.960158
20
0.873456
11
0.951862
21
0.873456
0
LINE
8
BLACK
6
CONTINUOUS
10
0.951862
20
0.873456
11
0.950852
21
0.873634
0
LINE
8
BLACK
6
CONTINUOUS
10
0.950852
20
0.873634
11
0.949305
21
0.874932
0
LINE
8
BLACK
6
CONTINUOUS
10
0.949305
20
0.874932
11
0.948954
21
0.876921
0
LINE
8
BLACK
6
CONTINUOUS
10
0.948954
20
0.876921
11
0.949964
21
0.878671
0
LINE
8
BLACK
6
CONTINUOUS
10
0.949964
20
0.878671
11
0.951862
21
0.879361
0
LINE
8
BLACK
6
CONTINUOUS
10
0.951862
20
0.879361
11
0.974359
21
0.879361
0
LINE
8
BLACK
6
CONTINUOUS
10
0.974359
20
0.879361
11
0.975369
21
0.879183
0
LINE
8
BLACK
6
CONTINUOUS
10
1.00349
20
0.879183
11
1.00363
21
0.87907
0
LINE
8
BLACK
6
CONTINUOUS
10
1.00363
20
0.87907
11
1.0038
21
0.87905
0
LINE
8
BLACK
6
CONTINUOUS
10
1.0038
20
0.87905
11
1.00755
21
0.877175
0
LINE
8
BLACK
6
CONTINUOUS
10
1.00755
20
0.877175
11
1.00826
21
0.876649
0
LINE
8
BLACK
6
CONTINUOUS
10
1.00826
20
0.876649
11
1.00832
21
0.876622
0
LINE
8
BLACK
6
CONTINUOUS
10
1.00832
20
0.876622
11
1.01019
21
0.874747
0
LINE
8
BLACK
6
CONTINUOUS
10
1.01019
20
0.874747
11
1.0107
21
0.874024
0
LINE
8
BLACK
6
CONTINUOUS
10
1.0107
20
0.874024
11
1.01075
21
0.87398
0
LINE
8
BLACK
6
CONTINUOUS
10
1.01075
20
0.87398
11
1.01262
21
0.87023
0
LINE
8
BLACK
6
CONTINUOUS
10
1.01262
20
0.87023
11
1.01291
21
0.869247
0
LINE
8
BLACK
6
CONTINUOUS
10
1.01291
20
0.869247
11
1.01287
21
0.869076
0
LINE
8
BLACK
6
CONTINUOUS
10
1.01287
20
0.869076
11
1.01293
21
0.86891
0
LINE
8
BLACK
6
CONTINUOUS
10
1.01293
20
0.86891
11
1.01293
21
0.863285
0
LINE
8
BLACK
6
CONTINUOUS
10
1.01293
20
0.863285
11
1.01275
21
0.862275
0
LINE
8
BLACK
6
CONTINUOUS
10
1.01275
20
0.862275
11
1.01264
21
0.86214
0
LINE
8
BLACK
6
CONTINUOUS
10
1.01264
20
0.86214
11
1.01262
21
0.861965
0
LINE
8
BLACK
6
CONTINUOUS
10
1.01262
20
0.861965
11
1.01075
21
0.858215
0
LINE
8
BLACK
6
CONTINUOUS
10
1.01075
20
0.858215
11
1.01022
21
0.857506
0
LINE
8
BLACK
6
CONTINUOUS
10
1.01022
20
0.857506
11
1.01019
21
0.857448
0
LINE
8
BLACK
6
CONTINUOUS
10
1.01019
20
0.857448
11
1.00832
21
0.855573
0
LINE
8
BLACK
6
CONTINUOUS
10
1.00832
20
0.855573
11
1.0076
21
0.855067
0
LINE
8
BLACK
6
CONTINUOUS
10
1.0076
20
0.855067
11
1.00755
21
0.85502
0
LINE
8
BLACK
6
CONTINUOUS
10
1.00755
20
0.85502
11
1.0038
21
0.853145
0
LINE
8
BLACK
6
CONTINUOUS
10
1.0038
20
0.853145
11
1.00282
21
0.852853
0
LINE
8
BLACK
6
CONTINUOUS
10
1.00282
20
0.852853
11
1.00265
21
0.852894
0
LINE
8
BLACK
6
CONTINUOUS
10
1.00265
20
0.852894
11
1.00248
21
0.852834
0
LINE
8
BLACK
6
CONTINUOUS
10
1.00248
20
0.852834
11
0.990435
21
0.852834
0
LINE
8
BLACK
6
CONTINUOUS
10
0.990435
20
0.852834
11
0.990435
21
0.837039
0
LINE
8
BLACK
6
CONTINUOUS
10
0.990435
20
0.837039
11
0.990257
21
0.836029
0
LINE
8
BLACK
6
CONTINUOUS
10
0.990257
20
0.836029
11
0.988959
21
0.834481
0
LINE
8
BLACK
6
CONTINUOUS
10
0.988959
20
0.834481
11
0.98697
21
0.834131
0
LINE
8
BLACK
6
CONTINUOUS
10
0.98697
20
0.834131
11
0.985221
21
0.835141
0
LINE
8
BLACK
6
CONTINUOUS
10
0.985221
20
0.835141
11
0.98453
21
0.837039
0
LINE
8
BLACK
6
CONTINUOUS
10
0.98453
20
0.837039
11
0.98453
21
0.876409
0
LINE
8
BLACK
6
CONTINUOUS
10
0.98453
20
0.876409
11
0.984597
21
0.876792
0
LINE
8
BLACK
6
CONTINUOUS
10
0.984597
20
0.876792
11
0.984575
21
0.876921
0
LINE
8
BLACK
6
CONTINUOUS
10
0.984575
20
0.876921
11
0.98464
21
0.877035
0
LINE
8
BLACK
6
CONTINUOUS
10
0.98464
20
0.877035
11
0.984708
21
0.877419
0
LINE
8
BLACK
6
CONTINUOUS
10
0.984708
20
0.877419
11
0.985201
21
0.878006
0
LINE
8
BLACK
6
CONTINUOUS
10
0.985201
20
0.878006
11
0.985585
21
0.878671
0
LINE
8
BLACK
6
CONTINUOUS
10
0.985585
20
0.878671
11
0.985835
21
0.878762
0
LINE
8
BLACK
6
CONTINUOUS
10
0.985835
20
0.878762
11
0.986006
21
0.878966
0
LINE
8
BLACK
6
CONTINUOUS
10
0.986006
20
0.878966
11
0.986762
21
0.879099
0
LINE
8
BLACK
6
CONTINUOUS
10
0.986762
20
0.879099
11
0.987483
21
0.879361
0
LINE
8
BLACK
6
CONTINUOUS
10
0.987483
20
0.879361
11
1.00248
21
0.879361
0
LINE
8
BLACK
6
CONTINUOUS
10
1.00248
20
0.879361
11
1.00349
21
0.879183
0
LINE
8
BLACK
6
CONTINUOUS
10
0.990435
20
0.858739
11
1.00178
21
0.858739
0
LINE
8
BLACK
6
CONTINUOUS
10
1.00178
20
0.858739
11
1.00448
21
0.860088
0
LINE
8
BLACK
6
CONTINUOUS
10
1.00448
20
0.860088
11
1.00568
21
0.861285
0
LINE
8
BLACK
6
CONTINUOUS
10
1.00568
20
0.861285
11
1.00703
21
0.863982
0
LINE
8
BLACK
6
CONTINUOUS
10
1.00703
20
0.863982
11
1.00703
21
0.868213
0
LINE
8
BLACK
6
CONTINUOUS
10
1.00703
20
0.868213
11
1.00568
21
0.87091
0
LINE
8
BLACK
6
CONTINUOUS
10
1.00568
20
0.87091
11
1.00448
21
0.872107
0
LINE
8
BLACK
6
CONTINUOUS
10
1.00448
20
0.872107
11
1.00178
21
0.873456
0
LINE
8
BLACK
6
CONTINUOUS
10
1.00178
20
0.873456
11
0.990435
21
0.873456
0
LINE
8
BLACK
6
CONTINUOUS
10
0.990435
20
0.873456
11
0.990435
21
0.858739
0
LINE
8
BLACK
6
CONTINUOUS
10
1.04988
20
0.995531
11
1.04996
21
0.995551
0
LINE
8
BLACK
6
CONTINUOUS
10
1.04996
20
0.995551
11
1.05007
21
0.995496
0
LINE
8
BLACK
6
CONTINUOUS
10
1.05007
20
0.995496
11
1.05071
21
0.995384
0
LINE
8
BLACK
6
CONTINUOUS
10
1.05071
20
0.995384
11
1.0512
21
0.99497
0
LINE
8
BLACK
6
CONTINUOUS
10
1.0512
20
0.99497
11
1.05179
21
0.994698
0
LINE
8
BLACK
6
CONTINUOUS
10
1.05179
20
0.994698
11
1.05366
21
0.992823
0
LINE
8
BLACK
6
CONTINUOUS
10
1.05366
20
0.992823
11
1.05425
21
0.991983
0
LINE
8
BLACK
6
CONTINUOUS
10
1.05425
20
0.991983
11
1.05427
21
0.991807
0
LINE
8
BLACK
6
CONTINUOUS
10
1.05427
20
0.991807
11
1.05438
21
0.991669
0
LINE
8
BLACK
6
CONTINUOUS
10
1.05438
20
0.991669
11
1.05625
21
0.986044
0
LINE
8
BLACK
6
CONTINUOUS
10
1.05625
20
0.986044
11
1.05638
21
0.985171
0
LINE
8
BLACK
6
CONTINUOUS
10
1.05638
20
0.985171
11
1.0564
21
0.985111
0
LINE
8
BLACK
6
CONTINUOUS
10
1.0564
20
0.985111
11
1.0564
21
0.981361
0
LINE
8
BLACK
6
CONTINUOUS
10
1.0564
20
0.981361
11
1.05625
21
0.980492
0
LINE
8
BLACK
6
CONTINUOUS
10
1.05625
20
0.980492
11
1.05625
21
0.980427
0
LINE
8
BLACK
6
CONTINUOUS
10
1.05625
20
0.980427
11
1.05438
21
0.974803
0
LINE
8
BLACK
6
CONTINUOUS
10
1.05438
20
0.974803
11
1.05389
21
0.973901
0
LINE
8
BLACK
6
CONTINUOUS
10
1.05389
20
0.973901
11
1.05374
21
0.973809
0
LINE
8
BLACK
6
CONTINUOUS
10
1.05374
20
0.973809
11
1.05366
21
0.973649
0
LINE
8
BLACK
6
CONTINUOUS
10
1.05366
20
0.973649
11
1.04991
21
0.969899
0
LINE
8
BLACK
6
CONTINUOUS
10
1.04991
20
0.969899
11
1.04919
21
0.969393
0
LINE
8
BLACK
6
CONTINUOUS
10
1.04919
20
0.969393
11
1.04915
21
0.969346
0
LINE
8
BLACK
6
CONTINUOUS
10
1.04915
20
0.969346
11
1.04644
21
0.967994
0
LINE
8
BLACK
6
CONTINUOUS
10
1.04644
20
0.967994
11
1.04769
21
0.966747
0
LINE
8
BLACK
6
CONTINUOUS
10
1.04769
20
0.966747
11
1.04819
21
0.966024
0
LINE
8
BLACK
6
CONTINUOUS
10
1.04819
20
0.966024
11
1.04824
21
0.96598
0
LINE
8
BLACK
6
CONTINUOUS
10
1.04824
20
0.96598
11
1.05012
21
0.96223
0
LINE
8
BLACK
6
CONTINUOUS
10
1.05012
20
0.96223
11
1.05041
21
0.961247
0
LINE
8
BLACK
6
CONTINUOUS
10
1.05041
20
0.961247
11
1.05037
21
0.961076
0
LINE
8
BLACK
6
CONTINUOUS
10
1.05037
20
0.961076
11
1.05043
21
0.96091
0
LINE
8
BLACK
6
CONTINUOUS
10
1.05043
20
0.96091
11
1.05043
21
0.959094
0
LINE
8
BLACK
6
CONTINUOUS
10
1.05043
20
0.959094
11
1.05252
21
0.95979
0
LINE
8
BLACK
6
CONTINUOUS
10
1.05252
20
0.95979
11
1.05353
21
0.959941
0
LINE
8
BLACK
6
CONTINUOUS
10
1.05353
20
0.959941
11
1.05541
21
0.959198
0
LINE
8
BLACK
6
CONTINUOUS
10
1.05541
20
0.959198
11
1.05637
21
0.957422
0
LINE
8
BLACK
6
CONTINUOUS
10
1.05637
20
0.957422
11
1.05597
21
0.955443
0
LINE
8
BLACK
6
CONTINUOUS
10
1.05597
20
0.955443
11
1.05438
21
0.954188
0
LINE
8
BLACK
6
CONTINUOUS
10
1.05438
20
0.954188
11
1.049
21
0.952393
0
LINE
8
BLACK
6
CONTINUOUS
10
1.049
20
0.952393
11
1.0484
21
0.950602
0
LINE
8
BLACK
6
CONTINUOUS
10
1.0484
20
0.950602
11
1.04791
21
0.9497
0
LINE
8
BLACK
6
CONTINUOUS
10
1.04791
20
0.9497
11
1.04776
21
0.949608
0
LINE
8
BLACK
6
CONTINUOUS
10
1.04776
20
0.949608
11
1.04769
21
0.949448
0
LINE
8
BLACK
6
CONTINUOUS
10
1.04769
20
0.949448
11
1.04515
21
0.946913
0
LINE
8
BLACK
6
CONTINUOUS
10
1.04515
20
0.946913
11
1.04515
21
0.93662
0
LINE
8
BLACK
6
CONTINUOUS
10
1.04515
20
0.93662
11
1.05438
21
0.933544
0
LINE
8
BLACK
6
CONTINUOUS
10
1.05438
20
0.933544
11
1.05529
21
0.933055
0
LINE
8
BLACK
6
CONTINUOUS
10
1.05529
20
0.933055
11
1.05634
21
0.931334
0
LINE
8
BLACK
6
CONTINUOUS
10
1.05634
20
0.931334
11
1.05605
21
0.929336
0
LINE
8
BLACK
6
CONTINUOUS
10
1.05605
20
0.929336
11
1.05453
21
0.927996
0
LINE
8
BLACK
6
CONTINUOUS
10
1.05453
20
0.927996
11
1.05252
21
0.927941
0
LINE
8
BLACK
6
CONTINUOUS
10
1.05252
20
0.927941
11
1.05036
21
0.92866
0
LINE
8
BLACK
6
CONTINUOUS
10
1.05036
20
0.92866
11
1.05038
21
0.928526
0
LINE
8
BLACK
6
CONTINUOUS
10
1.05038
20
0.928526
11
1.04937
21
0.926777
0
LINE
8
BLACK
6
CONTINUOUS
10
1.04937
20
0.926777
11
1.04748
21
0.926086
0
LINE
8
BLACK
6
CONTINUOUS
10
1.04748
20
0.926086
11
1.0231
21
0.926086
0
LINE
8
BLACK
6
CONTINUOUS
10
1.0231
20
0.926086
11
1.02247
21
0.926198
0
LINE
8
BLACK
6
CONTINUOUS
10
1.02247
20
0.926198
11
1.02234
21
0.926186
0
LINE
8
BLACK
6
CONTINUOUS
10
1.02234
20
0.926186
11
1.02227
21
0.926232
0
LINE
8
BLACK
6
CONTINUOUS
10
1.02227
20
0.926232
11
1.02209
21
0.926264
0
LINE
8
BLACK
6
CONTINUOUS
10
1.02209
20
0.926264
11
1.02141
21
0.926835
0
LINE
8
BLACK
6
CONTINUOUS
10
1.02141
20
0.926835
11
1.02068
21
0.927345
0
LINE
8
BLACK
6
CONTINUOUS
10
1.02068
20
0.927345
11
1.02065
21
0.927475
0
LINE
8
BLACK
6
CONTINUOUS
10
1.02065
20
0.927475
11
1.02055
21
0.927562
0
LINE
8
BLACK
6
CONTINUOUS
10
1.02055
20
0.927562
11
1.02039
21
0.928438
0
LINE
8
BLACK
6
CONTINUOUS
10
1.02039
20
0.928438
11
1.02016
21
0.929296
0
LINE
8
BLACK
6
CONTINUOUS
10
1.02016
20
0.929296
11
1.02022
21
0.929418
0
LINE
8
BLACK
6
CONTINUOUS
10
1.02022
20
0.929418
11
1.0202
21
0.929551
0
LINE
8
BLACK
6
CONTINUOUS
10
1.0202
20
0.929551
11
1.02064
21
0.930321
0
LINE
8
BLACK
6
CONTINUOUS
10
1.02064
20
0.930321
11
1.02102
21
0.931127
0
LINE
8
BLACK
6
CONTINUOUS
10
1.02102
20
0.931127
11
1.0265
21
0.936613
0
LINE
8
BLACK
6
CONTINUOUS
10
1.0265
20
0.936613
11
1.01315
21
0.941065
0
LINE
8
BLACK
6
CONTINUOUS
10
1.01315
20
0.941065
11
1.01224
21
0.941553
0
LINE
8
BLACK
6
CONTINUOUS
10
1.01224
20
0.941553
11
1.0122
21
0.941625
0
LINE
8
BLACK
6
CONTINUOUS
10
1.0122
20
0.941625
11
1.01212
21
0.941657
0
LINE
8
BLACK
6
CONTINUOUS
10
1.01212
20
0.941657
11
1.01168
21
0.942478
0
LINE
8
BLACK
6
CONTINUOUS
10
1.01168
20
0.942478
11
1.01119
21
0.943274
0
LINE
8
BLACK
6
CONTINUOUS
10
1.01119
20
0.943274
11
1.0112
21
0.943358
0
LINE
8
BLACK
6
CONTINUOUS
10
1.0112
20
0.943358
11
1.01116
21
0.943433
0
LINE
8
BLACK
6
CONTINUOUS
10
1.01116
20
0.943433
11
1.01135
21
0.944348
0
LINE
8
BLACK
6
CONTINUOUS
10
1.01135
20
0.944348
11
1.01148
21
0.945272
0
LINE
8
BLACK
6
CONTINUOUS
10
1.01148
20
0.945272
11
1.01155
21
0.945328
0
LINE
8
BLACK
6
CONTINUOUS
10
1.01155
20
0.945328
11
1.01156
21
0.945411
0
LINE
8
BLACK
6
CONTINUOUS
10
1.01156
20
0.945411
11
1.01229
21
0.945992
0
LINE
8
BLACK
6
CONTINUOUS
10
1.01229
20
0.945992
11
1.01299
21
0.946612
0
LINE
8
BLACK
6
CONTINUOUS
10
1.01299
20
0.946612
11
1.01308
21
0.946614
0
LINE
8
BLACK
6
CONTINUOUS
10
1.01308
20
0.946614
11
1.01315
21
0.946667
0
LINE
8
BLACK
6
CONTINUOUS
10
1.01315
20
0.946667
11
1.04433
21
0.957062
0
LINE
8
BLACK
6
CONTINUOUS
10
1.04433
20
0.957062
11
1.04452
21
0.957639
0
LINE
8
BLACK
6
CONTINUOUS
10
1.04452
20
0.957639
11
1.04452
21
0.960213
0
LINE
8
BLACK
6
CONTINUOUS
10
1.04452
20
0.960213
11
1.04317
21
0.96291
0
LINE
8
BLACK
6
CONTINUOUS
10
1.04317
20
0.96291
11
1.04198
21
0.964107
0
LINE
8
BLACK
6
CONTINUOUS
10
1.04198
20
0.964107
11
1.03928
21
0.965456
0
LINE
8
BLACK
6
CONTINUOUS
10
1.03928
20
0.965456
11
1.03762
21
0.965456
0
LINE
8
BLACK
6
CONTINUOUS
10
1.03762
20
0.965456
11
1.03729
21
0.965373
0
LINE
8
BLACK
6
CONTINUOUS
10
1.03729
20
0.965373
11
1.0367
21
0.965332
0
LINE
8
BLACK
6
CONTINUOUS
10
1.0367
20
0.965332
11
1.03658
21
0.965285
0
LINE
8
BLACK
6
CONTINUOUS
10
1.03658
20
0.965285
11
1.03096
21
0.965285
0
LINE
8
BLACK
6
CONTINUOUS
10
1.03096
20
0.965285
11
1.0286
21
0.964107
0
LINE
8
BLACK
6
CONTINUOUS
10
1.0286
20
0.964107
11
1.02707
21
0.962571
0
LINE
8
BLACK
6
CONTINUOUS
10
1.02707
20
0.962571
11
1.02623
21
0.961983
0
LINE
8
BLACK
6
CONTINUOUS
10
1.02623
20
0.961983
11
1.02421
21
0.961807
0
LINE
8
BLACK
6
CONTINUOUS
10
1.02421
20
0.961807
11
1.02256
21
0.962966
0
LINE
8
BLACK
6
CONTINUOUS
10
1.02256
20
0.962966
11
1.02204
21
0.964916
0
LINE
8
BLACK
6
CONTINUOUS
10
1.02204
20
0.964916
11
1.02289
21
0.966747
0
LINE
8
BLACK
6
CONTINUOUS
10
1.02289
20
0.966747
11
1.02326
21
0.967117
0
LINE
8
BLACK
6
CONTINUOUS
10
1.02326
20
0.967117
11
1.02274
21
0.967248
0
LINE
8
BLACK
6
CONTINUOUS
10
1.02274
20
0.967248
11
1.02227
21
0.967456
0
LINE
8
BLACK
6
CONTINUOUS
10
1.02227
20
0.967456
11
1.02213
21
0.967471
0
LINE
8
BLACK
6
CONTINUOUS
10
1.02213
20
0.967471
11
1.01838
21
0.969346
0
LINE
8
BLACK
6
CONTINUOUS
10
1.01838
20
0.969346
11
1.01767
21
0.969872
0
LINE
8
BLACK
6
CONTINUOUS
10
1.01767
20
0.969872
11
1.01762
21
0.969899
0
LINE
8
BLACK
6
CONTINUOUS
10
1.01762
20
0.969899
11
1.01387
21
0.973649
0
LINE
8
BLACK
6
CONTINUOUS
10
1.01387
20
0.973649
11
1.01328
21
0.974489
0
LINE
8
BLACK
6
CONTINUOUS
10
1.01328
20
0.974489
11
1.01326
21
0.974665
0
LINE
8
BLACK
6
CONTINUOUS
10
1.01326
20
0.974665
11
1.01315
21
0.974803
0
LINE
8
BLACK
6
CONTINUOUS
10
1.01315
20
0.974803
11
1.01128
21
0.980427
0
LINE
8
BLACK
6
CONTINUOUS
10
1.01128
20
0.980427
11
1.01115
21
0.981301
0
LINE
8
BLACK
6
CONTINUOUS
10
1.01115
20
0.981301
11
1.01113
21
0.981361
0
LINE
8
BLACK
6
CONTINUOUS
10
1.01113
20
0.981361
11
1.01113
21
0.986985
0
LINE
8
BLACK
6
CONTINUOUS
10
1.01113
20
0.986985
11
1.0113
21
0.987995
0
LINE
8
BLACK
6
CONTINUOUS
10
1.0113
20
0.987995
11
1.01142
21
0.988131
0
LINE
8
BLACK
6
CONTINUOUS
10
1.01142
20
0.988131
11
1.01144
21
0.988306
0
LINE
8
BLACK
6
CONTINUOUS
10
1.01144
20
0.988306
11
1.01331
21
0.992055
0
LINE
8
BLACK
6
CONTINUOUS
10
1.01331
20
0.992055
11
1.01392
21
0.992879
0
LINE
8
BLACK
6
CONTINUOUS
10
1.01392
20
0.992879
11
1.01578
21
0.993682
0
LINE
8
BLACK
6
CONTINUOUS
10
1.01578
20
0.993682
11
1.01771
21
0.993106
0
LINE
8
BLACK
6
CONTINUOUS
10
1.01771
20
0.993106
11
1.01883
21
0.991421
0
LINE
8
BLACK
6
CONTINUOUS
10
1.01883
20
0.991421
11
1.0186
21
0.989414
0
LINE
8
BLACK
6
CONTINUOUS
10
1.0186
20
0.989414
11
1.01703
21
0.986288
0
LINE
8
BLACK
6
CONTINUOUS
10
1.01703
20
0.986288
11
1.01703
21
0.98184
0
LINE
8
BLACK
6
CONTINUOUS
10
1.01703
20
0.98184
11
1.01854
21
0.977332
0
LINE
8
BLACK
6
CONTINUOUS
10
1.01854
20
0.977332
11
1.02145
21
0.974414
0
LINE
8
BLACK
6
CONTINUOUS
10
1.02145
20
0.974414
11
1.02448
21
0.972899
0
LINE
8
BLACK
6
CONTINUOUS
10
1.02448
20
0.972899
11
1.03063
21
0.971361
0
LINE
8
BLACK
6
CONTINUOUS
10
1.03063
20
0.971361
11
1.0369
21
0.971361
0
LINE
8
BLACK
6
CONTINUOUS
10
1.0369
20
0.971361
11
1.04305
21
0.972899
0
LINE
8
BLACK
6
CONTINUOUS
10
1.04305
20
0.972899
11
1.04608
21
0.974414
0
LINE
8
BLACK
6
CONTINUOUS
10
1.04608
20
0.974414
11
1.04899
21
0.977332
0
LINE
8
BLACK
6
CONTINUOUS
10
1.04899
20
0.977332
11
1.0505
21
0.98184
0
LINE
8
BLACK
6
CONTINUOUS
10
1.0505
20
0.98184
11
1.0505
21
0.984631
0
LINE
8
BLACK
6
CONTINUOUS
10
1.0505
20
0.984631
11
1.04899
21
0.98914
0
LINE
8
BLACK
6
CONTINUOUS
10
1.04899
20
0.98914
11
1.04848
21
0.989657
0
LINE
8
BLACK
6
CONTINUOUS
10
1.04848
20
0.989657
11
1.03953
21
0.989657
0
LINE
8
BLACK
6
CONTINUOUS
10
1.03953
20
0.989657
11
1.03953
21
0.985111
0
LINE
8
BLACK
6
CONTINUOUS
10
1.03953
20
0.985111
11
1.03935
21
0.984101
0
LINE
8
BLACK
6
CONTINUOUS
10
1.03935
20
0.984101
11
1.03805
21
0.982553
0
LINE
8
BLACK
6
CONTINUOUS
10
1.03805
20
0.982553
11
1.03606
21
0.982203
0
LINE
8
BLACK
6
CONTINUOUS
10
1.03606
20
0.982203
11
1.03431
21
0.983213
0
LINE
8
BLACK
6
CONTINUOUS
10
1.03431
20
0.983213
11
1.03362
21
0.985111
0
LINE
8
BLACK
6
CONTINUOUS
10
1.03362
20
0.985111
11
1.03362
21
0.99261
0
LINE
8
BLACK
6
CONTINUOUS
10
1.03362
20
0.99261
11
1.03369
21
0.992993
0
LINE
8
BLACK
6
CONTINUOUS
10
1.03369
20
0.992993
11
1.03367
21
0.993122
0
LINE
8
BLACK
6
CONTINUOUS
10
1.03367
20
0.993122
11
1.03373
21
0.993236
0
LINE
8
BLACK
6
CONTINUOUS
10
1.03373
20
0.993236
11
1.0338
21
0.99362
0
LINE
8
BLACK
6
CONTINUOUS
10
1.0338
20
0.99362
11
1.0343
21
0.994207
0
LINE
8
BLACK
6
CONTINUOUS
10
1.0343
20
0.994207
11
1.03468
21
0.994872
0
LINE
8
BLACK
6
CONTINUOUS
10
1.03468
20
0.994872
11
1.03493
21
0.994963
0
LINE
8
BLACK
6
CONTINUOUS
10
1.03493
20
0.994963
11
1.0351
21
0.995167
0
LINE
8
BLACK
6
CONTINUOUS
10
1.0351
20
0.995167
11
1.03586
21
0.9953
0
LINE
8
BLACK
6
CONTINUOUS
10
1.03586
20
0.9953
11
1.03658
21
0.995562
0
LINE
8
BLACK
6
CONTINUOUS
10
1.03658
20
0.995562
11
1.0497
21
0.995562
0
LINE
8
BLACK
6
CONTINUOUS
10
1.0497
20
0.995562
11
1.04988
21
0.995531
0
LINE
8
BLACK
6
CONTINUOUS
10
1.03023
20
0.931991
11
1.04037
21
0.931991
0
LINE
8
BLACK
6
CONTINUOUS
10
1.04037
20
0.931991
11
1.03277
21
0.934525
0
LINE
8
BLACK
6
CONTINUOUS
10
1.03277
20
0.934525
11
1.03023
21
0.931991
0
LINE
8
BLACK
6
CONTINUOUS
10
1.03743
20
0.939194
11
1.03925
21
0.938589
0
LINE
8
BLACK
6
CONTINUOUS
10
1.03925
20
0.938589
11
1.03925
21
0.941008
0
LINE
8
BLACK
6
CONTINUOUS
10
1.03925
20
0.941008
11
1.03743
21
0.939194
0
LINE
8
BLACK
6
CONTINUOUS
10
1.02342
20
0.943866
11
1.03117
21
0.941281
0
LINE
8
BLACK
6
CONTINUOUS
10
1.03117
20
0.941281
11
1.03892
21
0.949035
0
LINE
8
BLACK
6
CONTINUOUS
10
1.03892
20
0.949035
11
1.02342
21
0.943866
0
LINE
8
BLACK
6
CONTINUOUS
10
0.975369
20
0.971183
11
0.976916
21
0.969885
0
LINE
8
BLACK
6
CONTINUOUS
10
0.976916
20
0.969885
11
0.977267
21
0.967896
0
LINE
8
BLACK
6
CONTINUOUS
10
0.977267
20
0.967896
11
0.976257
21
0.966147
0
LINE
8
BLACK
6
CONTINUOUS
10
0.976257
20
0.966147
11
0.974359
21
0.965456
0
LINE
8
BLACK
6
CONTINUOUS
10
0.974359
20
0.965456
11
0.966063
21
0.965456
0
LINE
8
BLACK
6
CONTINUOUS
10
0.966063
20
0.965456
11
0.966063
21
0.929039
0
LINE
8
BLACK
6
CONTINUOUS
10
0.966063
20
0.929039
11
0.965885
21
0.928029
0
LINE
8
BLACK
6
CONTINUOUS
10
0.965885
20
0.928029
11
0.964587
21
0.926481
0
LINE
8
BLACK
6
CONTINUOUS
10
0.964587
20
0.926481
11
0.962598
21
0.926131
0
LINE
8
BLACK
6
CONTINUOUS
10
0.962598
20
0.926131
11
0.960849
21
0.927141
0
LINE
8
BLACK
6
CONTINUOUS
10
0.960849
20
0.927141
11
0.960158
21
0.929039
0
LINE
8
BLACK
6
CONTINUOUS
10
0.960158
20
0.929039
11
0.960158
21
0.965456
0
LINE
8
BLACK
6
CONTINUOUS
10
0.960158
20
0.965456
11
0.951862
21
0.965456
0
LINE
8
BLACK
6
CONTINUOUS
10
0.951862
20
0.965456
11
0.950852
21
0.965634
0
LINE
8
BLACK
6
CONTINUOUS
10
0.950852
20
0.965634
11
0.949305
21
0.966932
0
LINE
8
BLACK
6
CONTINUOUS
10
0.949305
20
0.966932
11
0.948954
21
0.968921
0
LINE
8
BLACK
6
CONTINUOUS
10
0.948954
20
0.968921
11
0.949964
21
0.970671
0
LINE
8
BLACK
6
CONTINUOUS
10
0.949964
20
0.970671
11
0.951862
21
0.971361
0
LINE
8
BLACK
6
CONTINUOUS
10
0.951862
20
0.971361
11
0.974359
21
0.971361
0
LINE
8
BLACK
6
CONTINUOUS
10
0.974359
20
0.971361
11
0.975369
21
0.971183
0
LINE
8
BLACK
6
CONTINUOUS
10
1.00349
20
0.971183
11
1.00363
21
0.97107
0
LINE
8
BLACK
6
CONTINUOUS
10
1.00363
20
0.97107
11
1.0038
21
0.97105
0
LINE
8
BLACK
6
CONTINUOUS
10
1.0038
20
0.97105
11
1.00755
21
0.969175
0
LINE
8
BLACK
6
CONTINUOUS
10
1.00755
20
0.969175
11
1.00826
21
0.968649
0
LINE
8
BLACK
6
CONTINUOUS
10
1.00826
20
0.968649
11
1.00832
21
0.968622
0
LINE
8
BLACK
6
CONTINUOUS
10
1.00832
20
0.968622
11
1.01019
21
0.966747
0
LINE
8
BLACK
6
CONTINUOUS
10
1.01019
20
0.966747
11
1.0107
21
0.966024
0
LINE
8
BLACK
6
CONTINUOUS
10
1.0107
20
0.966024
11
1.01075
21
0.96598
0
LINE
8
BLACK
6
CONTINUOUS
10
1.01075
20
0.96598
11
1.01262
21
0.96223
0
LINE
8
BLACK
6
CONTINUOUS
10
1.01262
20
0.96223
11
1.01291
21
0.961247
0
LINE
8
BLACK
6
CONTINUOUS
10
1.01291
20
0.961247
11
1.01287
21
0.961076
0
LINE
8
BLACK
6
CONTINUOUS
10
1.01287
20
0.961076
11
1.01293
21
0.96091
0
LINE
8
BLACK
6
CONTINUOUS
10
1.01293
20
0.96091
11
1.01293
21
0.955285
0
LINE
8
BLACK
6
CONTINUOUS
10
1.01293
20
0.955285
11
1.01275
21
0.954275
0
LINE
8
BLACK
6
CONTINUOUS
10
1.01275
20
0.954275
11
1.01264
21
0.95414
0
LINE
8
BLACK
6
CONTINUOUS
10
1.01264
20
0.95414
11
1.01262
21
0.953965
0
LINE
8
BLACK
6
CONTINUOUS
10
1.01262
20
0.953965
11
1.01075
21
0.950215
0
LINE
8
BLACK
6
CONTINUOUS
10
1.01075
20
0.950215
11
1.01022
21
0.949506
0
LINE
8
BLACK
6
CONTINUOUS
10
1.01022
20
0.949506
11
1.01019
21
0.949448
0
LINE
8
BLACK
6
CONTINUOUS
10
1.01019
20
0.949448
11
1.00832
21
0.947573
0
LINE
8
BLACK
6
CONTINUOUS
10
1.00832
20
0.947573
11
1.0076
21
0.947067
0
LINE
8
BLACK
6
CONTINUOUS
10
1.0076
20
0.947067
11
1.00755
21
0.94702
0
LINE
8
BLACK
6
CONTINUOUS
10
1.00755
20
0.94702
11
1.0038
21
0.945145
0
LINE
8
BLACK
6
CONTINUOUS
10
1.0038
20
0.945145
11
1.00282
21
0.944853
0
LINE
8
BLACK
6
CONTINUOUS
10
1.00282
20
0.944853
11
1.00265
21
0.944894
0
LINE
8
BLACK
6
CONTINUOUS
10
1.00265
20
0.944894
11
1.00248
21
0.944834
0
LINE
8
BLACK
6
CONTINUOUS
10
1.00248
20
0.944834
11
0.990435
21
0.944834
0
LINE
8
BLACK
6
CONTINUOUS
10
0.990435
20
0.944834
11
0.990435
21
0.929039
0
LINE
8
BLACK
6
CONTINUOUS
10
0.990435
20
0.929039
11
0.990257
21
0.928029
0
LINE
8
BLACK
6
CONTINUOUS
10
0.990257
20
0.928029
11
0.988959
21
0.926481
0
LINE
8
BLACK
6
CONTINUOUS
10
0.988959
20
0.926481
11
0.98697
21
0.926131
0
LINE
8
BLACK
6
CONTINUOUS
10
0.98697
20
0.926131
11
0.985221
21
0.927141
0
LINE
8
BLACK
6
CONTINUOUS
10
0.985221
20
0.927141
11
0.98453
21
0.929039
0
LINE
8
BLACK
6
CONTINUOUS
10
0.98453
20
0.929039
11
0.98453
21
0.968409
0
LINE
8
BLACK
6
CONTINUOUS
10
0.98453
20
0.968409
11
0.984597
21
0.968792
0
LINE
8
BLACK
6
CONTINUOUS
10
0.984597
20
0.968792
11
0.984575
21
0.968921
0
LINE
8
BLACK
6
CONTINUOUS
10
0.984575
20
0.968921
11
0.98464
21
0.969035
0
LINE
8
BLACK
6
CONTINUOUS
10
0.98464
20
0.969035
11
0.984708
21
0.969419
0
LINE
8
BLACK
6
CONTINUOUS
10
0.984708
20
0.969419
11
0.985201
21
0.970006
0
LINE
8
BLACK
6
CONTINUOUS
10
0.985201
20
0.970006
11
0.985585
21
0.970671
0
LINE
8
BLACK
6
CONTINUOUS
10
0.985585
20
0.970671
11
0.985835
21
0.970762
0
LINE
8
BLACK
6
CONTINUOUS
10
0.985835
20
0.970762
11
0.986006
21
0.970966
0
LINE
8
BLACK
6
CONTINUOUS
10
0.986006
20
0.970966
11
0.986762
21
0.971099
0
LINE
8
BLACK
6
CONTINUOUS
10
0.986762
20
0.971099
11
0.987483
21
0.971361
0
LINE
8
BLACK
6
CONTINUOUS
10
0.987483
20
0.971361
11
1.00248
21
0.971361
0
LINE
8
BLACK
6
CONTINUOUS
10
1.00248
20
0.971361
11
1.00349
21
0.971183
0
LINE
8
BLACK
6
CONTINUOUS
10
0.990435
20
0.950739
11
1.00178
21
0.950739
0
LINE
8
BLACK
6
CONTINUOUS
10
1.00178
20
0.950739
11
1.00448
21
0.952088
0
LINE
8
BLACK
6
CONTINUOUS
10
1.00448
20
0.952088
11
1.00568
21
0.953285
0
LINE
8
BLACK
6
CONTINUOUS
10
1.00568
20
0.953285
11
1.00703
21
0.955982
0
LINE
8
BLACK
6
CONTINUOUS
10
1.00703
20
0.955982
11
1.00703
21
0.960213
0
LINE
8
BLACK
6
CONTINUOUS
10
1.00703
20
0.960213
11
1.00568
21
0.96291
0
LINE
8
BLACK
6
CONTINUOUS
10
1.00568
20
0.96291
11
1.00448
21
0.964107
0
LINE
8
BLACK
6
CONTINUOUS
10
1.00448
20
0.964107
11
1.00178
21
0.965456
0
LINE
8
BLACK
6
CONTINUOUS
10
1.00178
20
0.965456
11
0.990435
21
0.965456
0
LINE
8
BLACK
6
CONTINUOUS
10
0.990435
20
0.965456
11
0.990435
21
0.950739
0
LINE
8
BLACK
6
CONTINUOUS
10
1.05446
20
1.03475
11
1.05467
21
1.03458
0
LINE
8
BLACK
6
CONTINUOUS
10
1.05467
20
1.03458
11
1.05494
21
1.03453
0
LINE
8
BLACK
6
CONTINUOUS
10
1.05494
20
1.03453
11
1.05542
21
1.03395
0
LINE
8
BLACK
6
CONTINUOUS
10
1.05542
20
1.03395
11
1.05601
21
1.03346
0
LINE
8
BLACK
6
CONTINUOUS
10
1.05601
20
1.03346
11
1.05605
21
1.03319
0
LINE
8
BLACK
6
CONTINUOUS
10
1.05605
20
1.03319
11
1.05623
21
1.03298
0
LINE
8
BLACK
6
CONTINUOUS
10
1.05623
20
1.03298
11
1.05623
21
1.03222
0
LINE
8
BLACK
6
CONTINUOUS
10
1.05623
20
1.03222
11
1.05636
21
1.03147
0
LINE
8
BLACK
6
CONTINUOUS
10
1.05636
20
1.03147
11
1.05622
21
1.03123
0
LINE
8
BLACK
6
CONTINUOUS
10
1.05622
20
1.03123
11
1.05622
21
1.03096
0
LINE
8
BLACK
6
CONTINUOUS
10
1.05622
20
1.03096
11
1.05573
21
1.03038
0
LINE
8
BLACK
6
CONTINUOUS
10
1.05573
20
1.03038
11
1.05535
21
1.02972
0
LINE
8
BLACK
6
CONTINUOUS
10
1.05535
20
1.02972
11
1.05509
21
1.02962
0
LINE
8
BLACK
6
CONTINUOUS
10
1.05509
20
1.02962
11
1.05491
21
1.02942
0
LINE
8
BLACK
6
CONTINUOUS
10
1.05491
20
1.02942
11
1.0252
21
1.01244
0
LINE
8
BLACK
6
CONTINUOUS
10
1.0252
20
1.01244
11
1.05345
21
1.01244
0
LINE
8
BLACK
6
CONTINUOUS
10
1.05345
20
1.01244
11
1.05446
21
1.01226
0
LINE
8
BLACK
6
CONTINUOUS
10
1.05446
20
1.01226
11
1.05601
21
1.01096
0
LINE
8
BLACK
6
CONTINUOUS
10
1.05601
20
1.01096
11
1.05636
21
1.00897
0
LINE
8
BLACK
6
CONTINUOUS
10
1.05636
20
1.00897
11
1.05535
21
1.00722
0
LINE
8
BLACK
6
CONTINUOUS
10
1.05535
20
1.00722
11
1.05345
21
1.00653
0
LINE
8
BLACK
6
CONTINUOUS
10
1.05345
20
1.00653
11
1.01408
21
1.00653
0
LINE
8
BLACK
6
CONTINUOUS
10
1.01408
20
1.00653
11
1.01307
21
1.00671
0
LINE
8
BLACK
6
CONTINUOUS
10
1.01307
20
1.00671
11
1.01286
21
1.00688
0
LINE
8
BLACK
6
CONTINUOUS
10
1.01286
20
1.00688
11
1.01259
21
1.00693
0
LINE
8
BLACK
6
CONTINUOUS
10
1.01259
20
1.00693
11
1.01211
21
1.00752
0
LINE
8
BLACK
6
CONTINUOUS
10
1.01211
20
1.00752
11
1.01152
21
1.00801
0
LINE
8
BLACK
6
CONTINUOUS
10
1.01152
20
1.00801
11
1.01147
21
1.00828
0
LINE
8
BLACK
6
CONTINUOUS
10
1.01147
20
1.00828
11
1.0113
21
1.00849
0
LINE
8
BLACK
6
CONTINUOUS
10
1.0113
20
1.00849
11
1.0113
21
1.00925
0
LINE
8
BLACK
6
CONTINUOUS
10
1.0113
20
1.00925
11
1.01117
21
1.01
0
LINE
8
BLACK
6
CONTINUOUS
10
1.01117
20
1.01
11
1.01131
21
1.01023
0
LINE
8
BLACK
6
CONTINUOUS
10
1.01131
20
1.01023
11
1.01131
21
1.0105
0
LINE
8
BLACK
6
CONTINUOUS
10
1.01131
20
1.0105
11
1.0118
21
1.01109
0
LINE
8
BLACK
6
CONTINUOUS
10
1.0118
20
1.01109
11
1.01218
21
1.01174
0
LINE
8
BLACK
6
CONTINUOUS
10
1.01218
20
1.01174
11
1.01244
21
1.01184
0
LINE
8
BLACK
6
CONTINUOUS
10
1.01244
20
1.01184
11
1.01261
21
1.01205
0
LINE
8
BLACK
6
CONTINUOUS
10
1.01261
20
1.01205
11
1.04233
21
1.02903
0
LINE
8
BLACK
6
CONTINUOUS
10
1.04233
20
1.02903
11
1.01408
21
1.02903
0
LINE
8
BLACK
6
CONTINUOUS
10
1.01408
20
1.02903
11
1.01307
21
1.02921
0
LINE
8
BLACK
6
CONTINUOUS
10
1.01307
20
1.02921
11
1.01152
21
1.0305
0
LINE
8
BLACK
6
CONTINUOUS
10
1.01152
20
1.0305
11
1.01117
21
1.03249
0
LINE
8
BLACK
6
CONTINUOUS
10
1.01117
20
1.03249
11
1.01218
21
1.03424
0
LINE
8
BLACK
6
CONTINUOUS
10
1.01218
20
1.03424
11
1.01408
21
1.03493
0
LINE
8
BLACK
6
CONTINUOUS
10
1.01408
20
1.03493
11
1.05345
21
1.03493
0
LINE
8
BLACK
6
CONTINUOUS
10
1.05345
20
1.03493
11
1.05446
21
1.03475
0
LINE
8
BLACK
6
CONTINUOUS
10
1.03716
20
1.07608
11
1.03729
21
1.07609
0
LINE
8
BLACK
6
CONTINUOUS
10
1.03729
20
1.07609
11
1.04479
21
1.07421
0
LINE
8
BLACK
6
CONTINUOUS
10
1.04479
20
1.07421
11
1.04526
21
1.07401
0
LINE
8
BLACK
6
CONTINUOUS
10
1.04526
20
1.07401
11
1.0454
21
1.07399
0
LINE
8
BLACK
6
CONTINUOUS
10
1.0454
20
1.07399
11
1.04915
21
1.07212
0
LINE
8
BLACK
6
CONTINUOUS
10
1.04915
20
1.07212
11
1.04985
21
1.07159
0
LINE
8
BLACK
6
CONTINUOUS
10
1.04985
20
1.07159
11
1.04991
21
1.07156
0
LINE
8
BLACK
6
CONTINUOUS
10
1.04991
20
1.07156
11
1.05366
21
1.06781
0
LINE
8
BLACK
6
CONTINUOUS
10
1.05366
20
1.06781
11
1.05425
21
1.06697
0
LINE
8
BLACK
6
CONTINUOUS
10
1.05425
20
1.06697
11
1.05427
21
1.0668
0
LINE
8
BLACK
6
CONTINUOUS
10
1.05427
20
1.0668
11
1.05438
21
1.06666
0
LINE
8
BLACK
6
CONTINUOUS
10
1.05438
20
1.06666
11
1.05625
21
1.06104
0
LINE
8
BLACK
6
CONTINUOUS
10
1.05625
20
1.06104
11
1.05638
21
1.06016
0
LINE
8
BLACK
6
CONTINUOUS
10
1.05638
20
1.06016
11
1.0564
21
1.0601
0
LINE
8
BLACK
6
CONTINUOUS
10
1.0564
20
1.0601
11
1.0564
21
1.05073
0
LINE
8
BLACK
6
CONTINUOUS
10
1.0564
20
1.05073
11
1.05633
21
1.05034
0
LINE
8
BLACK
6
CONTINUOUS
10
1.05633
20
1.05034
11
1.05636
21
1.05021
0
LINE
8
BLACK
6
CONTINUOUS
10
1.05636
20
1.05021
11
1.05629
21
1.0501
0
LINE
8
BLACK
6
CONTINUOUS
10
1.05629
20
1.0501
11
1.05622
21
1.04972
0
LINE
8
BLACK
6
CONTINUOUS
10
1.05622
20
1.04972
11
1.05573
21
1.04913
0
LINE
8
BLACK
6
CONTINUOUS
10
1.05573
20
1.04913
11
1.05535
21
1.04847
0
LINE
8
BLACK
6
CONTINUOUS
10
1.05535
20
1.04847
11
1.0551
21
1.04837
0
LINE
8
BLACK
6
CONTINUOUS
10
1.0551
20
1.04837
11
1.05493
21
1.04817
0
LINE
8
BLACK
6
CONTINUOUS
10
1.05493
20
1.04817
11
1.05417
21
1.04804
0
LINE
8
BLACK
6
CONTINUOUS
10
1.05417
20
1.04804
11
1.05345
21
1.04777
0
LINE
8
BLACK
6
CONTINUOUS
10
1.05345
20
1.04777
11
1.01408
21
1.04777
0
LINE
8
BLACK
6
CONTINUOUS
10
1.01408
20
1.04777
11
1.0137
21
1.04784
0
LINE
8
BLACK
6
CONTINUOUS
10
1.0137
20
1.04784
11
1.01357
21
1.04782
0
LINE
8
BLACK
6
CONTINUOUS
10
1.01357
20
1.04782
11
1.01345
21
1.04789
0
LINE
8
BLACK
6
CONTINUOUS
10
1.01345
20
1.04789
11
1.01307
21
1.04795
0
LINE
8
BLACK
6
CONTINUOUS
10
1.01307
20
1.04795
11
1.01248
21
1.04845
0
LINE
8
BLACK
6
CONTINUOUS
10
1.01248
20
1.04845
11
1.01182
21
1.04883
0
LINE
8
BLACK
6
CONTINUOUS
10
1.01182
20
1.04883
11
1.01173
21
1.04908
0
LINE
8
BLACK
6
CONTINUOUS
10
1.01173
20
1.04908
11
1.01152
21
1.04925
0
LINE
8
BLACK
6
CONTINUOUS
10
1.01152
20
1.04925
11
1.01139
21
1.05001
0
LINE
8
BLACK
6
CONTINUOUS
10
1.01139
20
1.05001
11
1.01113
21
1.05073
0
LINE
8
BLACK
6
CONTINUOUS
10
1.01113
20
1.05073
11
1.01113
21
1.0601
0
LINE
8
BLACK
6
CONTINUOUS
10
1.01113
20
1.0601
11
1.01128
21
1.06097
0
LINE
8
BLACK
6
CONTINUOUS
10
1.01128
20
1.06097
11
1.01128
21
1.06103
0
LINE
8
BLACK
6
CONTINUOUS
10
1.01128
20
1.06103
11
1.01315
21
1.06666
0
LINE
8
BLACK
6
CONTINUOUS
10
1.01315
20
1.06666
11
1.01364
21
1.06756
0
LINE
8
BLACK
6
CONTINUOUS
10
1.01364
20
1.06756
11
1.01379
21
1.06765
0
LINE
8
BLACK
6
CONTINUOUS
10
1.01379
20
1.06765
11
1.01387
21
1.06781
0
LINE
8
BLACK
6
CONTINUOUS
10
1.01387
20
1.06781
11
1.01762
21
1.07156
0
LINE
8
BLACK
6
CONTINUOUS
10
1.01762
20
1.07156
11
1.01834
21
1.07207
0
LINE
8
BLACK
6
CONTINUOUS
10
1.01834
20
1.07207
11
1.01838
21
1.07212
0
LINE
8
BLACK
6
CONTINUOUS
10
1.01838
20
1.07212
11
1.02213
21
1.07399
0
LINE
8
BLACK
6
CONTINUOUS
10
1.02213
20
1.07399
11
1.02262
21
1.07414
0
LINE
8
BLACK
6
CONTINUOUS
10
1.02262
20
1.07414
11
1.02274
21
1.07421
0
LINE
8
BLACK
6
CONTINUOUS
10
1.02274
20
1.07421
11
1.03024
21
1.07609
0
LINE
8
BLACK
6
CONTINUOUS
10
1.03024
20
1.07609
11
1.03082
21
1.07613
0
LINE
8
BLACK
6
CONTINUOUS
10
1.03082
20
1.07613
11
1.03095
21
1.07618
0
LINE
8
BLACK
6
CONTINUOUS
10
1.03095
20
1.07618
11
1.03658
21
1.07618
0
LINE
8
BLACK
6
CONTINUOUS
10
1.03658
20
1.07618
11
1.03716
21
1.07608
0
LINE
8
BLACK
6
CONTINUOUS
10
1.02448
20
1.06856
11
1.02145
21
1.06705
0
LINE
8
BLACK
6
CONTINUOUS
10
1.02145
20
1.06705
11
1.01854
21
1.06413
0
LINE
8
BLACK
6
CONTINUOUS
10
1.01854
20
1.06413
11
1.01703
21
1.05962
0
LINE
8
BLACK
6
CONTINUOUS
10
1.01703
20
1.05962
11
1.01703
21
1.05368
0
LINE
8
BLACK
6
CONTINUOUS
10
1.01703
20
1.05368
11
1.0505
21
1.05368
0
LINE
8
BLACK
6
CONTINUOUS
10
1.0505
20
1.05368
11
1.0505
21
1.05962
0
LINE
8
BLACK
6
CONTINUOUS
10
1.0505
20
1.05962
11
1.04899
21
1.06413
0
LINE
8
BLACK
6
CONTINUOUS
10
1.04899
20
1.06413
11
1.04608
21
1.06705
0
LINE
8
BLACK
6
CONTINUOUS
10
1.04608
20
1.06705
11
1.04305
21
1.06856
0
LINE
8
BLACK
6
CONTINUOUS
10
1.04305
20
1.06856
11
1.03621
21
1.07027
0
LINE
8
BLACK
6
CONTINUOUS
10
1.03621
20
1.07027
11
1.03132
21
1.07027
0
LINE
8
BLACK
6
CONTINUOUS
10
1.03132
20
1.07027
11
1.02448
21
1.06856
0
LINE
8
BLACK
6
CONTINUOUS
10
0.414063
20
2.12481
11
0.427949
21
2.12245
0
LINE
8
BLACK
6
CONTINUOUS
10
0.427949
20
2.12245
11
0.441483
21
2.11855
0
LINE
8
BLACK
6
CONTINUOUS
10
0.441483
20
2.11855
11
0.454496
21
2.11316
0
LINE
8
BLACK
6
CONTINUOUS
10
0.454496
20
2.11316
11
0.466823
21
2.10635
0
LINE
8
BLACK
6
CONTINUOUS
10
0.466823
20
2.10635
11
0.47831
21
2.0982
0
LINE
8
BLACK
6
CONTINUOUS
10
0.47831
20
2.0982
11
0.488813
21
2.08881
0
LINE
8
BLACK
6
CONTINUOUS
10
0.488813
20
2.08881
11
0.498198
21
2.07831
0
LINE
8
BLACK
6
CONTINUOUS
10
0.498198
20
2.07831
11
0.506349
21
2.06682
0
LINE
8
BLACK
6
CONTINUOUS
10
0.506349
20
2.06682
11
0.513162
21
2.0545
0
LINE
8
BLACK
6
CONTINUOUS
10
0.513162
20
2.0545
11
0.518552
21
2.04148
0
LINE
8
BLACK
6
CONTINUOUS
10
0.518552
20
2.04148
11
0.522451
21
2.02795
0
LINE
8
BLACK
6
CONTINUOUS
10
0.522451
20
2.02795
11
0.52481
21
2.01406
0
LINE
8
BLACK
6
CONTINUOUS
10
0.52481
20
2.01406
11
0.5256
21
2
0
LINE
8
BLACK
6
CONTINUOUS
10
0.5256
20
2
11
0.52481
21
1.98594
0
LINE
8
BLACK
6
CONTINUOUS
10
0.52481
20
1.98594
11
0.522451
21
1.97205
0
LINE
8
BLACK
6
CONTINUOUS
10
0.522451
20
1.97205
11
0.518552
21
1.95852
0
LINE
8
BLACK
6
CONTINUOUS
10
0.518552
20
1.95852
11
0.513162
21
1.9455
0
LINE
8
BLACK
6
CONTINUOUS
10
0.513162
20
1.9455
11
0.506349
21
1.93318
0
LINE
8
BLACK
6
CONTINUOUS
10
0.506349
20
1.93318
11
0.498198
21
1.92169
0
LINE
8
BLACK
6
CONTINUOUS
10
0.498198
20
1.92169
11
0.488813
21
1.91119
0
LINE
8
BLACK
6
CONTINUOUS
10
0.488813
20
1.91119
11
0.47831
21
1.9018
0
LINE
8
BLACK
6
CONTINUOUS
10
0.47831
20
1.9018
11
0.466823
21
1.89365
0
LINE
8
BLACK
6
CONTINUOUS
10
0.466823
20
1.89365
11
0.454496
21
1.88684
0
LINE
8
BLACK
6
CONTINUOUS
10
0.454496
20
1.88684
11
0.441483
21
1.88145
0
LINE
8
BLACK
6
CONTINUOUS
10
0.441483
20
1.88145
11
0.427949
21
1.87755
0
LINE
8
BLACK
6
CONTINUOUS
10
0.427949
20
1.87755
11
0.414063
21
1.87519
0
LINE
8
BLACK
6
CONTINUOUS
10
0.414063
20
1.87519
11
0.4
21
1.8744
0
LINE
8
BLACK
6
CONTINUOUS
10
0.4
20
1.8744
11
0.385937
21
1.87519
0
LINE
8
BLACK
6
CONTINUOUS
10
0.385937
20
1.87519
11
0.372051
21
1.87755
0
LINE
8
BLACK
6
CONTINUOUS
10
0.372051
20
1.87755
11
0.358517
21
1.88145
0
LINE
8
BLACK
6
CONTINUOUS
10
0.358517
20
1.88145
11
0.345504
21
1.88684
0
LINE
8
BLACK
6
CONTINUOUS
10
0.345504
20
1.88684
11
0.333177
21
1.89365
0
LINE
8
BLACK
6
CONTINUOUS
10
0.333177
20
1.89365
11
0.32169
21
1.9018
0
LINE
8
BLACK
6
CONTINUOUS
10
0.32169
20
1.9018
11
0.311187
21
1.91119
0
LINE
8
BLACK
6
CONTINUOUS
10
0.311187
20
1.91119
11
0.301802
21
1.92169
0
LINE
8
BLACK
6
CONTINUOUS
10
0.301802
20
1.92169
11
0.293651
21
1.93318
0
LINE
8
BLACK
6
CONTINUOUS
10
0.293651
20
1.93318
11
0.286838
21
1.9455
0
LINE
8
BLACK
6
CONTINUOUS
10
0.286838
20
1.9455
11
0.281448
21
1.95852
0
LINE
8
BLACK
6
CONTINUOUS
10
0.281448
20
1.95852
11
0.277549
21
1.97205
0
LINE
8
BLACK
6
CONTINUOUS
10
0.277549
20
1.97205
11
0.27519
21
1.98594
0
LINE
8
BLACK
6
CONTINUOUS
10
0.27519
20
1.98594
11
0.2744
21
2
0
LINE
8
BLACK
6
CONTINUOUS
10
0.2744
20
2
11
0.27519
21
2.01406
0
LINE
8
BLACK
6
CONTINUOUS
10
0.27519
20
2.01406
11
0.277549
21
2.02795
0
LINE
8
BLACK
6
CONTINUOUS
10
0.277549
20
2.02795
11
0.281448
21
2.04148
0
LINE
8
BLACK
6
CONTINUOUS
10
0.281448
20
2.04148
11
0.286838
21
2.0545
0
LINE
8
BLACK
6
CONTINUOUS
10
0.286838
20
2.0545
11
0.293651
21
2.06682
0
LINE
8
BLACK
6
CONTINUOUS
10
0.293651
20
2.06682
11
0.301802
21
2.07831
0
LINE
8
BLACK
6
CONTINUOUS
10
0.301802
20
2.07831
11
0.311187
21
2.08881
0
LINE
8
BLACK
6
CONTINUOUS
10
0.311187
20
2.08881
11
0.32169
21
2.0982
0
LINE
8
BLACK
6
CONTINUOUS
10
0.32169
20
2.0982
11
0.333177
21
2.10635
0
LINE
8
BLACK
6
CONTINUOUS
10
0.333177
20
2.10635
11
0.345504
21
2.11316
0
LINE
8
BLACK
6
CONTINUOUS
10
0.345504
20
2.11316
11
0.358517
21
2.11855
0
LINE
8
BLACK
6
CONTINUOUS
10
0.358517
20
2.11855
11
0.372051
21
2.12245
0
LINE
8
BLACK
6
CONTINUOUS
10
0.372051
20
2.12245
11
0.385937
21
2.12481
0
LINE
8
BLACK
6
CONTINUOUS
10
0.385937
20
2.12481
11
0.4
21
2.1256
0
LINE
8
BLACK
6
CONTINUOUS
10
0.4
20
2.1256
11
0.414063
21
2.12481
0
LINE
8
BLACK
6
CONTINUOUS
10
0.289962
20
1.98714
11
0.292199
21
1.97445
0
LINE
8
BLACK
6
CONTINUOUS
10
0.292199
20
1.97445
11
0.295894
21
1.96211
0
LINE
8
BLACK
6
CONTINUOUS
10
0.295894
20
1.96211
11
0.300997
21
1.95028
0
LINE
8
BLACK
6
CONTINUOUS
10
0.300997
20
1.95028
11
0.307438
21
1.93912
0
LINE
8
BLACK
6
CONTINUOUS
10
0.307438
20
1.93912
11
0.315132
21
1.92879
0
LINE
8
BLACK
6
CONTINUOUS
10
0.315132
20
1.92879
11
0.323973
21
1.91942
0
LINE
8
BLACK
6
CONTINUOUS
10
0.323973
20
1.91942
11
0.333842
21
1.91113
0
LINE
8
BLACK
6
CONTINUOUS
10
0.333842
20
1.91113
11
0.344606
21
1.90406
0
LINE
8
BLACK
6
CONTINUOUS
10
0.344606
20
1.90406
11
0.356119
21
1.89827
0
LINE
8
BLACK
6
CONTINUOUS
10
0.356119
20
1.89827
11
0.368226
21
1.89387
0
LINE
8
BLACK
6
CONTINUOUS
10
0.368226
20
1.89387
11
0.380762
21
1.8909
0
LINE
8
BLACK
6
CONTINUOUS
10
0.380762
20
1.8909
11
0.393558
21
1.8894
0
LINE
8
BLACK
6
CONTINUOUS
10
0.393558
20
1.8894
11
0.406442
21
1.8894
0
LINE
8
BLACK
6
CONTINUOUS
10
0.406442
20
1.8894
11
0.419238
21
1.8909
0
LINE
8
BLACK
6
CONTINUOUS
10
0.419238
20
1.8909
11
0.431774
21
1.89387
0
LINE
8
BLACK
6
CONTINUOUS
10
0.431774
20
1.89387
11
0.443881
21
1.89827
0
LINE
8
BLACK
6
CONTINUOUS
10
0.443881
20
1.89827
11
0.455394
21
1.90406
0
LINE
8
BLACK
6
CONTINUOUS
10
0.455394
20
1.90406
11
0.466158
21
1.91113
0
LINE
8
BLACK
6
CONTINUOUS
10
0.466158
20
1.91113
11
0.476027
21
1.91942
0
LINE
8
BLACK
6
CONTINUOUS
10
0.476027
20
1.91942
11
0.484868
21
1.92879
0
LINE
8
BLACK
6
CONTINUOUS
10
0.484868
20
1.92879
11
0.492562
21
1.93912
0
LINE
8
BLACK
6
CONTINUOUS
10
0.492562
20
1.93912
11
0.499003
21
1.95028
0
LINE
8
BLACK
6
CONTINUOUS
10
0.499003
20
1.95028
11
0.504106
21
1.96211
0
LINE
8
BLACK
6
CONTINUOUS
10
0.504106
20
1.96211
11
0.507801
21
1.97445
0
LINE
8
BLACK
6
CONTINUOUS
10
0.507801
20
1.97445
11
0.510038
21
1.98714
0
LINE
8
BLACK
6
CONTINUOUS
10
0.510038
20
1.98714
11
0.510787
21
2
0
LINE
8
BLACK
6
CONTINUOUS
10
0.510787
20
2
11
0.510038
21
2.01286
0
LINE
8
BLACK
6
CONTINUOUS
10
0.510038
20
2.01286
11
0.507801
21
2.02555
0
LINE
8
BLACK
6
CONTINUOUS
10
0.507801
20
2.02555
11
0.504106
21
2.03789
0
LINE
8
BLACK
6
CONTINUOUS
10
0.504106
20
2.03789
11
0.499003
21
2.04972
0
LINE
8
BLACK
6
CONTINUOUS
10
0.499003
20
2.04972
11
0.492562
21
2.06088
0
LINE
8
BLACK
6
CONTINUOUS
10
0.492562
20
2.06088
11
0.484868
21
2.07121
0
LINE
8
BLACK
6
CONTINUOUS
10
0.484868
20
2.07121
11
0.476027
21
2.08058
0
LINE
8
BLACK
6
CONTINUOUS
10
0.476027
20
2.08058
11
0.466158
21
2.08887
0
LINE
8
BLACK
6
CONTINUOUS
10
0.466158
20
2.08887
11
0.455394
21
2.09594
0
LINE
8
BLACK
6
CONTINUOUS
10
0.455394
20
2.09594
11
0.443881
21
2.10173
0
LINE
8
BLACK
6
CONTINUOUS
10
0.443881
20
2.10173
11
0.431774
21
2.10613
0
LINE
8
BLACK
6
CONTINUOUS
10
0.431774
20
2.10613
11
0.419238
21
2.1091
0
LINE
8
BLACK
6
CONTINUOUS
10
0.419238
20
2.1091
11
0.406442
21
2.1106
0
LINE
8
BLACK
6
CONTINUOUS
10
0.406442
20
2.1106
11
0.393558
21
2.1106
0
LINE
8
BLACK
6
CONTINUOUS
10
0.393558
20
2.1106
11
0.380762
21
2.1091
0
LINE
8
BLACK
6
CONTINUOUS
10
0.380762
20
2.1091
11
0.368226
21
2.10613
0
LINE
8
BLACK
6
CONTINUOUS
10
0.368226
20
2.10613
11
0.356119
21
2.10173
0
LINE
8
BLACK
6
CONTINUOUS
10
0.356119
20
2.10173
11
0.344606
21
2.09594
0
LINE
8
BLACK
6
CONTINUOUS
10
0.344606
20
2.09594
11
0.333842
21
2.08887
0
LINE
8
BLACK
6
CONTINUOUS
10
0.333842
20
2.08887
11
0.323973
21
2.08058
0
LINE
8
BLACK
6
CONTINUOUS
10
0.323973
20
2.08058
11
0.315132
21
2.07121
0
LINE
8
BLACK
6
CONTINUOUS
10
0.315132
20
2.07121
11
0.307438
21
2.06088
0
LINE
8
BLACK
6
CONTINUOUS
10
0.307438
20
2.06088
11
0.300997
21
2.04972
0
LINE
8
BLACK
6
CONTINUOUS
10
0.300997
20
2.04972
11
0.295894
21
2.03789
0
LINE
8
BLACK
6
CONTINUOUS
10
0.295894
20
2.03789
11
0.292199
21
2.02555
0
LINE
8
BLACK
6
CONTINUOUS
10
0.292199
20
2.02555
11
0.289962
21
2.01286
0
LINE
8
BLACK
6
CONTINUOUS
10
0.289962
20
2.01286
11
0.289213
21
2
0
LINE
8
BLACK
6
CONTINUOUS
10
0.289213
20
2
11
0.289962
21
1.98714
0
LINE
8
BLACK
6
CONTINUOUS
10
2.81406
20
2.12481
11
2.82795
21
2.12245
0
LINE
8
BLACK
6
CONTINUOUS
10
2.82795
20
2.12245
11
2.84148
21
2.11855
0
LINE
8
BLACK
6
CONTINUOUS
10
2.84148
20
2.11855
11
2.8545
21
2.11316
0
LINE
8
BLACK
6
CONTINUOUS
10
2.8545
20
2.11316
11
2.86682
21
2.10635
0
LINE
8
BLACK
6
CONTINUOUS
10
2.86682
20
2.10635
11
2.87831
21
2.0982
0
LINE
8
BLACK
6
CONTINUOUS
10
2.87831
20
2.0982
11
2.88881
21
2.08881
0
LINE
8
BLACK
6
CONTINUOUS
10
2.88881
20
2.08881
11
2.8982
21
2.07831
0
LINE
8
BLACK
6
CONTINUOUS
10
2.8982
20
2.07831
11
2.90635
21
2.06682
0
LINE
8
BLACK
6
CONTINUOUS
10
2.90635
20
2.06682
11
2.91316
21
2.0545
0
LINE
8
BLACK
6
CONTINUOUS
10
2.91316
20
2.0545
11
2.91855
21
2.04148
0
LINE
8
BLACK
6
CONTINUOUS
10
2.91855
20
2.04148
11
2.92245
21
2.02795
0
LINE
8
BLACK
6
CONTINUOUS
10
2.92245
20
2.02795
11
2.92481
21
2.01406
0
LINE
8
BLACK
6
CONTINUOUS
10
2.92481
20
2.01406
11
2.9256
21
2
0
LINE
8
BLACK
6
CONTINUOUS
10
2.9256
20
2
11
2.92481
21
1.98594
0
LINE
8
BLACK
6
CONTINUOUS
10
2.92481
20
1.98594
11
2.92245
21
1.97205
0
LINE
8
BLACK
6
CONTINUOUS
10
2.92245
20
1.97205
11
2.91855
21
1.95852
0
LINE
8
BLACK
6
CONTINUOUS
10
2.91855
20
1.95852
11
2.91316
21
1.9455
0
LINE
8
BLACK
6
CONTINUOUS
10
2.91316
20
1.9455
11
2.90635
21
1.93318
0
LINE
8
BLACK
6
CONTINUOUS
10
2.90635
20
1.93318
11
2.8982
21
1.92169
0
LINE
8
BLACK
6
CONTINUOUS
10
2.8982
20
1.92169
11
2.88881
21
1.91119
0
LINE
8
BLACK
6
CONTINUOUS
10
2.88881
20
1.91119
11
2.87831
21
1.9018
0
LINE
8
BLACK
6
CONTINUOUS
10
2.87831
20
1.9018
11
2.86682
21
1.89365
0
LINE
8
BLACK
6
CONTINUOUS
10
2.86682
20
1.89365
11
2.8545
21
1.88684
0
LINE
8
BLACK
6
CONTINUOUS
10
2.8545
20
1.88684
11
2.84148
21
1.88145
0
LINE
8
BLACK
6
CONTINUOUS
10
2.84148
20
1.88145
11
2.82795
21
1.87755
0
LINE
8
BLACK
6
CONTINUOUS
10
2.82795
20
1.87755
11
2.81406
21
1.87519
0
LINE
8
BLACK
6
CONTINUOUS
10
2.81406
20
1.87519
11
2.8
21
1.8744
0
LINE
8
BLACK
6
CONTINUOUS
10
2.8
20
1.8744
11
2.78594
21
1.87519
0
LINE
8
BLACK
6
CONTINUOUS
10
2.78594
20
1.87519
11
2.77205
21
1.87755
0
LINE
8
BLACK
6
CONTINUOUS
10
2.77205
20
1.87755
11
2.75852
21
1.88145
0
LINE
8
BLACK
6
CONTINUOUS
10
2.75852
20
1.88145
11
2.7455
21
1.88684
0
LINE
8
BLACK
6
CONTINUOUS
10
2.7455
20
1.88684
11
2.73318
21
1.89365
0
LINE
8
BLACK
6
CONTINUOUS
10
2.73318
20
1.89365
11
2.72169
21
1.9018
0
LINE
8
BLACK
6
CONTINUOUS
10
2.72169
20
1.9018
11
2.71119
21
1.91119
0
LINE
8
BLACK
6
CONTINUOUS
10
2.71119
20
1.91119
11
2.7018
21
1.92169
0
LINE
8
BLACK
6
CONTINUOUS
10
2.7018
20
1.92169
11
2.69365
21
1.93318
0
LINE
8
BLACK
6
CONTINUOUS
10
2.69365
20
1.93318
11
2.68684
21
1.9455
0
LINE
8
BLACK
6
CONTINUOUS
10
2.68684
20
1.9455
11
2.68145
21
1.95852
0
LINE
8
BLACK
6
CONTINUOUS
10
2.68145
20
1.95852
11
2.67755
21
1.97205
0
LINE
8
BLACK
6
CONTINUOUS
10
2.67755
20
1.97205
11
2.67519
21
1.98594
0
LINE
8
BLACK
6
CONTINUOUS
10
2.67519
20
1.98594
11
2.6744
21
2
0
LINE
8
BLACK
6
CONTINUOUS
10
2.6744
20
2
11
2.67519
21
2.01406
0
LINE
8
BLACK
6
CONTINUOUS
10
2.67519
20
2.01406
11
2.67755
21
2.02795
0
LINE
8
BLACK
6
CONTINUOUS
10
2.67755
20
2.02795
11
2.68145
21
2.04148
0
LINE
8
BLACK
6
CONTINUOUS
10
2.68145
20
2.04148
11
2.68684
21
2.0545
0
LINE
8
BLACK
6
CONTINUOUS
10
2.68684
20
2.0545
11
2.69365
21
2.06682
0
LINE
8
BLACK
6
CONTINUOUS
10
2.69365
20
2.06682
11
2.7018
21
2.07831
0
LINE
8
BLACK
6
CONTINUOUS
10
2.7018
20
2.07831
11
2.71119
21
2.08881
0
LINE
8
BLACK
6
CONTINUOUS
10
2.71119
20
2.08881
11
2.72169
21
2.0982
0
LINE
8
BLACK
6
CONTINUOUS
10
2.72169
20
2.0982
11
2.73318
21
2.10635
0
LINE
8
BLACK
6
CONTINUOUS
10
2.73318
20
2.10635
11
2.7455
21
2.11316
0
LINE
8
BLACK
6
CONTINUOUS
10
2.7455
20
2.11316
11
2.75852
21
2.11855
0
LINE
8
BLACK
6
CONTINUOUS
10
2.75852
20
2.11855
11
2.77205
21
2.12245
0
LINE
8
BLACK
6
CONTINUOUS
10
2.77205
20
2.12245
11
2.78594
21
2.12481
0
LINE
8
BLACK
6
CONTINUOUS
10
2.78594
20
2.12481
11
2.8
21
2.1256
0
LINE
8
BLACK
6
CONTINUOUS
10
2.8
20
2.1256
11
2.81406
21
2.12481
0
LINE
8
BLACK
6
CONTINUOUS
10
2.68996
20
1.98714
11
2.6922
21
1.97445
0
LINE
8
BLACK
6
CONTINUOUS
10
2.6922
20
1.97445
11
2.69589
21
1.96211
0
LINE
8
BLACK
6
CONTINUOUS
10
2.69589
20
1.96211
11
2.701
21
1.95028
0
LINE
8
BLACK
6
CONTINUOUS
10
2.701
20
1.95028
11
2.70744
21
1.93912
0
LINE
8
BLACK
6
CONTINUOUS
10
2.70744
20
1.93912
11
2.71513
21
1.92879
0
LINE
8
BLACK
6
CONTINUOUS
10
2.71513
20
1.92879
11
2.72397
21
1.91942
0
LINE
8
BLACK
6
CONTINUOUS
10
2.72397
20
1.91942
11
2.73384
21
1.91113
0
LINE
8
BLACK
6
CONTINUOUS
10
2.73384
20
1.91113
11
2.74461
21
1.90406
0
LINE
8
BLACK
6
CONTINUOUS
10
2.74461
20
1.90406
11
2.75612
21
1.89827
0
LINE
8
BLACK
6
CONTINUOUS
10
2.75612
20
1.89827
11
2.76823
21
1.89387
0
LINE
8
BLACK
6
CONTINUOUS
10
2.76823
20
1.89387
11
2.78076
21
1.8909
0
LINE
8
BLACK
6
CONTINUOUS
10
2.78076
20
1.8909
11
2.79356
21
1.8894
0
LINE
8
BLACK
6
CONTINUOUS
10
2.79356
20
1.8894
11
2.80644
21
1.8894
0
LINE
8
BLACK
6
CONTINUOUS
10
2.80644
20
1.8894
11
2.81924
21
1.8909
0
LINE
8
BLACK
6
CONTINUOUS
10
2.81924
20
1.8909
11
2.83177
21
1.89387
0
LINE
8
BLACK
6
CONTINUOUS
10
2.83177
20
1.89387
11
2.84388
21
1.89827
0
LINE
8
BLACK
6
CONTINUOUS
10
2.84388
20
1.89827
11
2.85539
21
1.90406
0
LINE
8
BLACK
6
CONTINUOUS
10
2.85539
20
1.90406
11
2.86616
21
1.91113
0
LINE
8
BLACK
6
CONTINUOUS
10
2.86616
20
1.91113
11
2.87603
21
1.91942
0
LINE
8
BLACK
6
CONTINUOUS
10
2.87603
20
1.91942
11
2.88487
21
1.92879
0
LINE
8
BLACK
6
CONTINUOUS
10
2.88487
20
1.92879
11
2.89256
21
1.93912
0
LINE
8
BLACK
6
CONTINUOUS
10
2.89256
20
1.93912
11
2.899
21
1.95028
0
LINE
8
BLACK
6
CONTINUOUS
10
2.899
20
1.95028
11
2.90411
21
1.96211
0
LINE
8
BLACK
6
CONTINUOUS
10
2.90411
20
1.96211
11
2.9078
21
1.97445
0
LINE
8
BLACK
6
CONTINUOUS
10
2.9078
20
1.97445
11
2.91004
21
1.98714
0
LINE
8
BLACK
6
CONTINUOUS
10
2.91004
20
1.98714
11
2.91079
21
2
0
LINE
8
BLACK
6
CONTINUOUS
10
2.91079
20
2
11
2.91004
21
2.01286
0
LINE
8
BLACK
6
CONTINUOUS
10
2.91004
20
2.01286
11
2.9078
21
2.02555
0
LINE
8
BLACK
6
CONTINUOUS
10
2.9078
20
2.02555
11
2.90411
21
2.03789
0
LINE
8
BLACK
6
CONTINUOUS
10
2.90411
20
2.03789
11
2.899
21
2.04972
0
LINE
8
BLACK
6
CONTINUOUS
10
2.899
20
2.04972
11
2.89256
21
2.06088
0
LINE
8
BLACK
6
CONTINUOUS
10
2.89256
20
2.06088
11
2.88487
21
2.07121
0
LINE
8
BLACK
6
CONTINUOUS
10
2.88487
20
2.07121
11
2.87603
21
2.08058
0
LINE
8
BLACK
6
CONTINUOUS
10
2.87603
20
2.08058
11
2.86616
21
2.08887
0
LINE
8
BLACK
6
CONTINUOUS
10
2.86616
20
2.08887
11
2.85539
21
2.09594
0
LINE
8
BLACK
6
CONTINUOUS
10
2.85539
20
2.09594
11
2.84388
21
2.10173
0
LINE
8
BLACK
6
CONTINUOUS
10
2.84388
20
2.10173
11
2.83177
21
2.10613
0
LINE
8
BLACK
6
CONTINUOUS
10
2.83177
20
2.10613
11
2.81924
21
2.1091
0
LINE
8
BLACK
6
CONTINUOUS
10
2.81924
20
2.1091
11
2.80644
21
2.1106
0
LINE
8
BLACK
6
CONTINUOUS
10
2.80644
20
2.1106
11
2.79356
21
2.1106
0
LINE
8
BLACK
6
CONTINUOUS
10
2.79356
20
2.1106
11
2.78076
21
2.1091
0
LINE
8
BLACK
6
CONTINUOUS
10
2.78076
20
2.1091
11
2.76823
21
2.10613
0
LINE
8
BLACK
6
CONTINUOUS
10
2.76823
20
2.10613
11
2.75612
21
2.10173
0
LINE
8
BLACK
6
CONTINUOUS
10
2.75612
20
2.10173
11
2.74461
21
2.09594
0
LINE
8
BLACK
6
CONTINUOUS
10
2.74461
20
2.09594
11
2.73384
21
2.08887
0
LINE
8
BLACK
6
CONTINUOUS
10
2.73384
20
2.08887
11
2.72397
21
2.08058
0
LINE
8
BLACK
6
CONTINUOUS
10
2.72397
20
2.08058
11
2.71513
21
2.07121
0
LINE
8
BLACK
6
CONTINUOUS
10
2.71513
20
2.07121
11
2.70744
21
2.06088
0
LINE
8
BLACK
6
CONTINUOUS
10
2.70744
20
2.06088
11
2.701
21
2.04972
0
LINE
8
BLACK
6
CONTINUOUS
10
2.701
20
2.04972
11
2.69589
21
2.03789
0
LINE
8
BLACK
6
CONTINUOUS
10
2.69589
20
2.03789
11
2.6922
21
2.02555
0
LINE
8
BLACK
6
CONTINUOUS
10
2.6922
20
2.02555
11
2.68996
21
2.01286
0
LINE
8
BLACK
6
CONTINUOUS
10
2.68996
20
2.01286
11
2.68921
21
2
0
LINE
8
BLACK
6
CONTINUOUS
10
2.68921
20
2
11
2.68996
21
1.98714
  0
ENDSEC
  0
EOF
