  0
SECTION
  2
HEADER
  9
$ANGBASE
  50
0.0
  9
$ANGDIR
  70
1
  9
$MEASUREMENT
  70
0
  0
ENDSEC
  0
SECTION
  2
TABLES
  0
TABLE
  2
LTYPE
  70
4
  0
LTYPE
  5
40F
  2
CONTINUOUS
  70
0
  3
Solid line
  72
65
  73
0
  40
0.0
  0
LTYPE
  5
410
  2
DASHDOT
 70
0
  3
Dash Dot ____ _ ____ _
 72
65
 73
4
 40
2.0
 49
1.25
 49
-0.25
 49
0.25
 49
-0.25
  0
LTYPE
  5
411
  2
DASHED
 70
0
  3
Dashed __ __ __ __ __
 72
65
 73
2
 40
0.75
 49
0.5
 49
-0.25
  0
LTYPE
  5
43B
  2
DOTTED
 70
0
  3
Dotted .  .  .  .
 72
65
 73
2
 40
0.2
 49
0.0
 49
-0.2
  0
ENDTAB
  0
TABLE
  2
STYLE
  70
4
  0
STYLE
  2
KICAD
  70
0
  40
0
  41
1
  42
1
  50
0
  71
0
  3
isocp.shx
  0
STYLE
  2
KICADB
  70
0
  40
0
  41
1
  42
1
  50
0
  71
0
  3
isocp.shx
  0
STYLE
  2
KICADI
  70
0
  40
0
  41
1
  42
1
  50
15
  71
0
  3
isocp.shx
  0
STYLE
  2
KICADBI
  70
0
  40
0
  41
1
  42
1
  50
15
  71
0
  3
isocp.shx
  0
ENDTAB
  0
TABLE
  2
LAYER
  70
1
  0
LAYER
  2
BLACK
  70
0
  62
7
  6
CONTINUOUS
  0
ENDTAB
  0
ENDSEC
  0
SECTION
  2
ENTITIES
0
LINE
8
BLACK
6
CONTINUOUS
10
0.598717
20
0.329434
11
0.607168
21
0.32717
0
LINE
8
BLACK
6
CONTINUOUS
10
0.607168
20
0.32717
11
0.615098
21
0.323472
0
LINE
8
BLACK
6
CONTINUOUS
10
0.615098
20
0.323472
11
0.622266
21
0.318453
0
LINE
8
BLACK
6
CONTINUOUS
10
0.622266
20
0.318453
11
0.628453
21
0.312266
0
LINE
8
BLACK
6
CONTINUOUS
10
0.628453
20
0.312266
11
0.633472
21
0.305098
0
LINE
8
BLACK
6
CONTINUOUS
10
0.633472
20
0.305098
11
0.63717
21
0.297168
0
LINE
8
BLACK
6
CONTINUOUS
10
0.63717
20
0.297168
11
0.639434
21
0.288717
0
LINE
8
BLACK
6
CONTINUOUS
10
0.639434
20
0.288717
11
0.640197
21
0.28
0
LINE
8
BLACK
6
CONTINUOUS
10
0.640197
20
0.28
11
0.639434
21
0.271283
0
LINE
8
BLACK
6
CONTINUOUS
10
0.639434
20
0.271283
11
0.63717
21
0.262832
0
LINE
8
BLACK
6
CONTINUOUS
10
0.63717
20
0.262832
11
0.633472
21
0.254902
0
LINE
8
BLACK
6
CONTINUOUS
10
0.633472
20
0.254902
11
0.628453
21
0.247734
0
LINE
8
BLACK
6
CONTINUOUS
10
0.628453
20
0.247734
11
0.622266
21
0.241547
0
LINE
8
BLACK
6
CONTINUOUS
10
0.622266
20
0.241547
11
0.615098
21
0.236528
0
LINE
8
BLACK
6
CONTINUOUS
10
0.615098
20
0.236528
11
0.607168
21
0.23283
0
LINE
8
BLACK
6
CONTINUOUS
10
0.607168
20
0.23283
11
0.598717
21
0.230566
0
LINE
8
BLACK
6
CONTINUOUS
10
0.598717
20
0.230566
11
0.59
21
0.229803
0
LINE
8
BLACK
6
CONTINUOUS
10
0.59
20
0.229803
11
0.581283
21
0.230566
0
LINE
8
BLACK
6
CONTINUOUS
10
0.581283
20
0.230566
11
0.572832
21
0.23283
0
LINE
8
BLACK
6
CONTINUOUS
10
0.572832
20
0.23283
11
0.564902
21
0.236528
0
LINE
8
BLACK
6
CONTINUOUS
10
0.564902
20
0.236528
11
0.557734
21
0.241547
0
LINE
8
BLACK
6
CONTINUOUS
10
0.557734
20
0.241547
11
0.551547
21
0.247734
0
LINE
8
BLACK
6
CONTINUOUS
10
0.551547
20
0.247734
11
0.546528
21
0.254902
0
LINE
8
BLACK
6
CONTINUOUS
10
0.546528
20
0.254902
11
0.54283
21
0.262832
0
LINE
8
BLACK
6
CONTINUOUS
10
0.54283
20
0.262832
11
0.540566
21
0.271283
0
LINE
8
BLACK
6
CONTINUOUS
10
0.540566
20
0.271283
11
0.539803
21
0.28
0
LINE
8
BLACK
6
CONTINUOUS
10
0.539803
20
0.28
11
0.540566
21
0.288717
0
LINE
8
BLACK
6
CONTINUOUS
10
0.540566
20
0.288717
11
0.54283
21
0.297168
0
LINE
8
BLACK
6
CONTINUOUS
10
0.54283
20
0.297168
11
0.546528
21
0.305098
0
LINE
8
BLACK
6
CONTINUOUS
10
0.546528
20
0.305098
11
0.551547
21
0.312266
0
LINE
8
BLACK
6
CONTINUOUS
10
0.551547
20
0.312266
11
0.557734
21
0.318453
0
LINE
8
BLACK
6
CONTINUOUS
10
0.557734
20
0.318453
11
0.564902
21
0.323472
0
LINE
8
BLACK
6
CONTINUOUS
10
0.564902
20
0.323472
11
0.572832
21
0.32717
0
LINE
8
BLACK
6
CONTINUOUS
10
0.572832
20
0.32717
11
0.581283
21
0.329434
0
LINE
8
BLACK
6
CONTINUOUS
10
0.581283
20
0.329434
11
0.59
21
0.330197
0
LINE
8
BLACK
6
CONTINUOUS
10
0.59
20
0.330197
11
0.598717
21
0.329434
0
LINE
8
BLACK
6
CONTINUOUS
10
0.542323
20
0.271593
11
0.544507
21
0.263442
0
LINE
8
BLACK
6
CONTINUOUS
10
0.544507
20
0.263442
11
0.548074
21
0.255794
0
LINE
8
BLACK
6
CONTINUOUS
10
0.548074
20
0.255794
11
0.552914
21
0.248881
0
LINE
8
BLACK
6
CONTINUOUS
10
0.552914
20
0.248881
11
0.558881
21
0.242914
0
LINE
8
BLACK
6
CONTINUOUS
10
0.558881
20
0.242914
11
0.565794
21
0.238074
0
LINE
8
BLACK
6
CONTINUOUS
10
0.565794
20
0.238074
11
0.573442
21
0.234507
0
LINE
8
BLACK
6
CONTINUOUS
10
0.573442
20
0.234507
11
0.581593
21
0.232323
0
LINE
8
BLACK
6
CONTINUOUS
10
0.581593
20
0.232323
11
0.59
21
0.231587
0
LINE
8
BLACK
6
CONTINUOUS
10
0.59
20
0.231587
11
0.598407
21
0.232323
0
LINE
8
BLACK
6
CONTINUOUS
10
0.598407
20
0.232323
11
0.606558
21
0.234507
0
LINE
8
BLACK
6
CONTINUOUS
10
0.606558
20
0.234507
11
0.614206
21
0.238074
0
LINE
8
BLACK
6
CONTINUOUS
10
0.614206
20
0.238074
11
0.621119
21
0.242914
0
LINE
8
BLACK
6
CONTINUOUS
10
0.621119
20
0.242914
11
0.627086
21
0.248881
0
LINE
8
BLACK
6
CONTINUOUS
10
0.627086
20
0.248881
11
0.631926
21
0.255794
0
LINE
8
BLACK
6
CONTINUOUS
10
0.631926
20
0.255794
11
0.635493
21
0.263442
0
LINE
8
BLACK
6
CONTINUOUS
10
0.635493
20
0.263442
11
0.637677
21
0.271593
0
LINE
8
BLACK
6
CONTINUOUS
10
0.637677
20
0.271593
11
0.638413
21
0.28
0
LINE
8
BLACK
6
CONTINUOUS
10
0.638413
20
0.28
11
0.637677
21
0.288407
0
LINE
8
BLACK
6
CONTINUOUS
10
0.637677
20
0.288407
11
0.635493
21
0.296558
0
LINE
8
BLACK
6
CONTINUOUS
10
0.635493
20
0.296558
11
0.631926
21
0.304206
0
LINE
8
BLACK
6
CONTINUOUS
10
0.631926
20
0.304206
11
0.627086
21
0.311119
0
LINE
8
BLACK
6
CONTINUOUS
10
0.627086
20
0.311119
11
0.621119
21
0.317086
0
LINE
8
BLACK
6
CONTINUOUS
10
0.621119
20
0.317086
11
0.614206
21
0.321926
0
LINE
8
BLACK
6
CONTINUOUS
10
0.614206
20
0.321926
11
0.606558
21
0.325493
0
LINE
8
BLACK
6
CONTINUOUS
10
0.606558
20
0.325493
11
0.598407
21
0.327677
0
LINE
8
BLACK
6
CONTINUOUS
10
0.598407
20
0.327677
11
0.59
21
0.328413
0
LINE
8
BLACK
6
CONTINUOUS
10
0.59
20
0.328413
11
0.581593
21
0.327677
0
LINE
8
BLACK
6
CONTINUOUS
10
0.581593
20
0.327677
11
0.573442
21
0.325493
0
LINE
8
BLACK
6
CONTINUOUS
10
0.573442
20
0.325493
11
0.565794
21
0.321926
0
LINE
8
BLACK
6
CONTINUOUS
10
0.565794
20
0.321926
11
0.558881
21
0.317086
0
LINE
8
BLACK
6
CONTINUOUS
10
0.558881
20
0.317086
11
0.552914
21
0.311119
0
LINE
8
BLACK
6
CONTINUOUS
10
0.552914
20
0.311119
11
0.548074
21
0.304206
0
LINE
8
BLACK
6
CONTINUOUS
10
0.548074
20
0.304206
11
0.544507
21
0.296558
0
LINE
8
BLACK
6
CONTINUOUS
10
0.544507
20
0.296558
11
0.542323
21
0.288407
0
LINE
8
BLACK
6
CONTINUOUS
10
0.542323
20
0.288407
11
0.541587
21
0.28
0
LINE
8
BLACK
6
CONTINUOUS
10
0.541587
20
0.28
11
0.542323
21
0.271593
0
LINE
8
BLACK
6
CONTINUOUS
10
2.1133
20
0.54637
11
2.114
21
0.546082
0
LINE
8
BLACK
6
CONTINUOUS
10
2.114
20
0.546082
11
2.11428
21
0.545386
0
LINE
8
BLACK
6
CONTINUOUS
10
2.11428
20
0.545386
11
2.11428
21
0.470583
0
LINE
8
BLACK
6
CONTINUOUS
10
2.11428
20
0.470583
11
2.114
21
0.469887
0
LINE
8
BLACK
6
CONTINUOUS
10
2.114
20
0.469887
11
2.1133
21
0.469598
0
LINE
8
BLACK
6
CONTINUOUS
10
2.1133
20
0.469598
11
1.98102
21
0.469598
0
LINE
8
BLACK
6
CONTINUOUS
10
1.98102
20
0.469598
11
1.98032
21
0.469887
0
LINE
8
BLACK
6
CONTINUOUS
10
1.98032
20
0.469887
11
1.98003
21
0.470583
0
LINE
8
BLACK
6
CONTINUOUS
10
1.98003
20
0.470583
11
1.98003
21
0.545386
0
LINE
8
BLACK
6
CONTINUOUS
10
1.98003
20
0.545386
11
1.98032
21
0.546082
0
LINE
8
BLACK
6
CONTINUOUS
10
1.98032
20
0.546082
11
1.98102
21
0.54637
0
LINE
8
BLACK
6
CONTINUOUS
10
1.98102
20
0.54637
11
2.1133
21
0.54637
0
LINE
8
BLACK
6
CONTINUOUS
10
1.982
20
0.544402
11
1.982
21
0.471567
0
LINE
8
BLACK
6
CONTINUOUS
10
1.982
20
0.471567
11
2.11231
21
0.471567
0
LINE
8
BLACK
6
CONTINUOUS
10
2.11231
20
0.471567
11
2.11231
21
0.544402
0
LINE
8
BLACK
6
CONTINUOUS
10
2.11231
20
0.544402
11
1.982
21
0.544402
0
LINE
8
BLACK
6
CONTINUOUS
10
2.2085
20
0.65452
11
2.20919
21
0.654231
0
LINE
8
BLACK
6
CONTINUOUS
10
2.20919
20
0.654231
11
2.20948
21
0.653535
0
LINE
8
BLACK
6
CONTINUOUS
10
2.20948
20
0.653535
11
2.20948
21
0.472433
0
LINE
8
BLACK
6
CONTINUOUS
10
2.20948
20
0.472433
11
2.20919
21
0.471737
0
LINE
8
BLACK
6
CONTINUOUS
10
2.20919
20
0.471737
11
2.2085
21
0.471449
0
LINE
8
BLACK
6
CONTINUOUS
10
2.2085
20
0.471449
11
2.12582
21
0.471449
0
LINE
8
BLACK
6
CONTINUOUS
10
2.12582
20
0.471449
11
2.12512
21
0.471737
0
LINE
8
BLACK
6
CONTINUOUS
10
2.12512
20
0.471737
11
2.12483
21
0.472433
0
LINE
8
BLACK
6
CONTINUOUS
10
2.12483
20
0.472433
11
2.12483
21
0.653535
0
LINE
8
BLACK
6
CONTINUOUS
10
2.12483
20
0.653535
11
2.12512
21
0.654231
0
LINE
8
BLACK
6
CONTINUOUS
10
2.12512
20
0.654231
11
2.12582
21
0.65452
0
LINE
8
BLACK
6
CONTINUOUS
10
2.12582
20
0.65452
11
2.2085
21
0.65452
0
LINE
8
BLACK
6
CONTINUOUS
10
2.1268
20
0.652551
11
2.1268
21
0.473417
0
LINE
8
BLACK
6
CONTINUOUS
10
2.1268
20
0.473417
11
2.20751
21
0.473417
0
LINE
8
BLACK
6
CONTINUOUS
10
2.20751
20
0.473417
11
2.20751
21
0.652551
0
LINE
8
BLACK
6
CONTINUOUS
10
2.20751
20
0.652551
11
2.1268
21
0.652551
0
LINE
8
BLACK
6
CONTINUOUS
10
1.97218
20
0.65552
11
1.97288
21
0.655231
0
LINE
8
BLACK
6
CONTINUOUS
10
1.97288
20
0.655231
11
1.97317
21
0.654535
0
LINE
8
BLACK
6
CONTINUOUS
10
1.97317
20
0.654535
11
1.97317
21
0.473433
0
LINE
8
BLACK
6
CONTINUOUS
10
1.97317
20
0.473433
11
1.97288
21
0.472737
0
LINE
8
BLACK
6
CONTINUOUS
10
1.97288
20
0.472737
11
1.97218
21
0.472449
0
LINE
8
BLACK
6
CONTINUOUS
10
1.97218
20
0.472449
11
1.8895
21
0.472449
0
LINE
8
BLACK
6
CONTINUOUS
10
1.8895
20
0.472449
11
1.88881
21
0.472737
0
LINE
8
BLACK
6
CONTINUOUS
10
1.88881
20
0.472737
11
1.88852
21
0.473433
0
LINE
8
BLACK
6
CONTINUOUS
10
1.88852
20
0.473433
11
1.88852
21
0.654535
0
LINE
8
BLACK
6
CONTINUOUS
10
1.88852
20
0.654535
11
1.88881
21
0.655231
0
LINE
8
BLACK
6
CONTINUOUS
10
1.88881
20
0.655231
11
1.8895
21
0.65552
0
LINE
8
BLACK
6
CONTINUOUS
10
1.8895
20
0.65552
11
1.97218
21
0.65552
0
LINE
8
BLACK
6
CONTINUOUS
10
1.89049
20
0.653551
11
1.89049
21
0.474417
0
LINE
8
BLACK
6
CONTINUOUS
10
1.89049
20
0.474417
11
1.9712
21
0.474417
0
LINE
8
BLACK
6
CONTINUOUS
10
1.9712
20
0.474417
11
1.9712
21
0.653551
0
LINE
8
BLACK
6
CONTINUOUS
10
1.9712
20
0.653551
11
1.89049
21
0.653551
0
LINE
8
BLACK
6
CONTINUOUS
10
1.87798
20
0.55137
11
1.87868
21
0.551082
0
LINE
8
BLACK
6
CONTINUOUS
10
1.87868
20
0.551082
11
1.87897
21
0.550386
0
LINE
8
BLACK
6
CONTINUOUS
10
1.87897
20
0.550386
11
1.87897
21
0.475583
0
LINE
8
BLACK
6
CONTINUOUS
10
1.87897
20
0.475583
11
1.87868
21
0.474887
0
LINE
8
BLACK
6
CONTINUOUS
10
1.87868
20
0.474887
11
1.87798
21
0.474598
0
LINE
8
BLACK
6
CONTINUOUS
10
1.87798
20
0.474598
11
1.7457
21
0.474598
0
LINE
8
BLACK
6
CONTINUOUS
10
1.7457
20
0.474598
11
1.745
21
0.474887
0
LINE
8
BLACK
6
CONTINUOUS
10
1.745
20
0.474887
11
1.74472
21
0.475583
0
LINE
8
BLACK
6
CONTINUOUS
10
1.74472
20
0.475583
11
1.74472
21
0.550386
0
LINE
8
BLACK
6
CONTINUOUS
10
1.74472
20
0.550386
11
1.745
21
0.551082
0
LINE
8
BLACK
6
CONTINUOUS
10
1.745
20
0.551082
11
1.7457
21
0.55137
0
LINE
8
BLACK
6
CONTINUOUS
10
1.7457
20
0.55137
11
1.87798
21
0.55137
0
LINE
8
BLACK
6
CONTINUOUS
10
1.74669
20
0.549402
11
1.74669
21
0.476567
0
LINE
8
BLACK
6
CONTINUOUS
10
1.74669
20
0.476567
11
1.877
21
0.476567
0
LINE
8
BLACK
6
CONTINUOUS
10
1.877
20
0.476567
11
1.877
21
0.549402
0
LINE
8
BLACK
6
CONTINUOUS
10
1.877
20
0.549402
11
1.74669
21
0.549402
0
LINE
8
BLACK
6
CONTINUOUS
10
2.30074
20
0.610898
11
2.30144
21
0.610609
0
LINE
8
BLACK
6
CONTINUOUS
10
2.30144
20
0.610609
11
2.30172
21
0.609913
0
LINE
8
BLACK
6
CONTINUOUS
10
2.30172
20
0.609913
11
2.30172
21
0.476055
0
LINE
8
BLACK
6
CONTINUOUS
10
2.30172
20
0.476055
11
2.30144
21
0.475359
0
LINE
8
BLACK
6
CONTINUOUS
10
2.30144
20
0.475359
11
2.30074
21
0.475071
0
LINE
8
BLACK
6
CONTINUOUS
10
2.30074
20
0.475071
11
2.22357
21
0.475071
0
LINE
8
BLACK
6
CONTINUOUS
10
2.22357
20
0.475071
11
2.22288
21
0.475359
0
LINE
8
BLACK
6
CONTINUOUS
10
2.22288
20
0.475359
11
2.22259
21
0.476055
0
LINE
8
BLACK
6
CONTINUOUS
10
2.22259
20
0.476055
11
2.22259
21
0.609913
0
LINE
8
BLACK
6
CONTINUOUS
10
2.22259
20
0.609913
11
2.22288
21
0.610609
0
LINE
8
BLACK
6
CONTINUOUS
10
2.22288
20
0.610609
11
2.22357
21
0.610898
0
LINE
8
BLACK
6
CONTINUOUS
10
2.22357
20
0.610898
11
2.30074
21
0.610898
0
LINE
8
BLACK
6
CONTINUOUS
10
2.22456
20
0.608929
11
2.22456
21
0.477039
0
LINE
8
BLACK
6
CONTINUOUS
10
2.22456
20
0.477039
11
2.29976
21
0.477039
0
LINE
8
BLACK
6
CONTINUOUS
10
2.29976
20
0.477039
11
2.29976
21
0.608929
0
LINE
8
BLACK
6
CONTINUOUS
10
2.29976
20
0.608929
11
2.22456
21
0.608929
0
LINE
8
BLACK
6
CONTINUOUS
10
2.38956
20
0.61011
11
2.39026
21
0.609822
0
LINE
8
BLACK
6
CONTINUOUS
10
2.39026
20
0.609822
11
2.39054
21
0.609126
0
LINE
8
BLACK
6
CONTINUOUS
10
2.39054
20
0.609126
11
2.39054
21
0.476843
0
LINE
8
BLACK
6
CONTINUOUS
10
2.39054
20
0.476843
11
2.39026
21
0.476147
0
LINE
8
BLACK
6
CONTINUOUS
10
2.39026
20
0.476147
11
2.38956
21
0.475858
0
LINE
8
BLACK
6
CONTINUOUS
10
2.38956
20
0.475858
11
2.31476
21
0.475858
0
LINE
8
BLACK
6
CONTINUOUS
10
2.31476
20
0.475858
11
2.31406
21
0.476147
0
LINE
8
BLACK
6
CONTINUOUS
10
2.31406
20
0.476147
11
2.31377
21
0.476843
0
LINE
8
BLACK
6
CONTINUOUS
10
2.31377
20
0.476843
11
2.31377
21
0.609126
0
LINE
8
BLACK
6
CONTINUOUS
10
2.31377
20
0.609126
11
2.31406
21
0.609822
0
LINE
8
BLACK
6
CONTINUOUS
10
2.31406
20
0.609822
11
2.31476
21
0.61011
0
LINE
8
BLACK
6
CONTINUOUS
10
2.31476
20
0.61011
11
2.38956
21
0.61011
0
LINE
8
BLACK
6
CONTINUOUS
10
2.31574
20
0.608142
11
2.31574
21
0.477827
0
LINE
8
BLACK
6
CONTINUOUS
10
2.31574
20
0.477827
11
2.38857
21
0.477827
0
LINE
8
BLACK
6
CONTINUOUS
10
2.38857
20
0.477827
11
2.38857
21
0.608142
0
LINE
8
BLACK
6
CONTINUOUS
10
2.38857
20
0.608142
11
2.31574
21
0.608142
0
LINE
8
BLACK
6
CONTINUOUS
10
1.72374
20
0.615898
11
1.72444
21
0.615609
0
LINE
8
BLACK
6
CONTINUOUS
10
1.72444
20
0.615609
11
1.72472
21
0.614913
0
LINE
8
BLACK
6
CONTINUOUS
10
1.72472
20
0.614913
11
1.72472
21
0.481055
0
LINE
8
BLACK
6
CONTINUOUS
10
1.72472
20
0.481055
11
1.72444
21
0.480359
0
LINE
8
BLACK
6
CONTINUOUS
10
1.72444
20
0.480359
11
1.72374
21
0.480071
0
LINE
8
BLACK
6
CONTINUOUS
10
1.72374
20
0.480071
11
1.64657
21
0.480071
0
LINE
8
BLACK
6
CONTINUOUS
10
1.64657
20
0.480071
11
1.64588
21
0.480359
0
LINE
8
BLACK
6
CONTINUOUS
10
1.64588
20
0.480359
11
1.64559
21
0.481055
0
LINE
8
BLACK
6
CONTINUOUS
10
1.64559
20
0.481055
11
1.64559
21
0.614913
0
LINE
8
BLACK
6
CONTINUOUS
10
1.64559
20
0.614913
11
1.64588
21
0.615609
0
LINE
8
BLACK
6
CONTINUOUS
10
1.64588
20
0.615609
11
1.64657
21
0.615898
0
LINE
8
BLACK
6
CONTINUOUS
10
1.64657
20
0.615898
11
1.72374
21
0.615898
0
LINE
8
BLACK
6
CONTINUOUS
10
1.64756
20
0.613929
11
1.64756
21
0.482039
0
LINE
8
BLACK
6
CONTINUOUS
10
1.64756
20
0.482039
11
1.72276
21
0.482039
0
LINE
8
BLACK
6
CONTINUOUS
10
1.72276
20
0.482039
11
1.72276
21
0.613929
0
LINE
8
BLACK
6
CONTINUOUS
10
1.72276
20
0.613929
11
1.64756
21
0.613929
0
LINE
8
BLACK
6
CONTINUOUS
10
1.00558
20
0.602622
11
1.00628
21
0.602334
0
LINE
8
BLACK
6
CONTINUOUS
10
1.00628
20
0.602334
11
1.00657
21
0.601638
0
LINE
8
BLACK
6
CONTINUOUS
10
1.00657
20
0.601638
11
1.00657
21
0.503213
0
LINE
8
BLACK
6
CONTINUOUS
10
1.00657
20
0.503213
11
1.00628
21
0.502517
0
LINE
8
BLACK
6
CONTINUOUS
10
1.00628
20
0.502517
11
1.00558
21
0.502228
0
LINE
8
BLACK
6
CONTINUOUS
10
1.00558
20
0.502228
11
0.828417
21
0.502228
0
LINE
8
BLACK
6
CONTINUOUS
10
0.828417
20
0.502228
11
0.827721
21
0.502517
0
LINE
8
BLACK
6
CONTINUOUS
10
0.827721
20
0.502517
11
0.827433
21
0.503213
0
LINE
8
BLACK
6
CONTINUOUS
10
0.827433
20
0.503213
11
0.827433
21
0.601638
0
LINE
8
BLACK
6
CONTINUOUS
10
0.827433
20
0.601638
11
0.827721
21
0.602334
0
LINE
8
BLACK
6
CONTINUOUS
10
0.827721
20
0.602334
11
0.828417
21
0.602622
0
LINE
8
BLACK
6
CONTINUOUS
10
0.828417
20
0.602622
11
1.00558
21
0.602622
0
LINE
8
BLACK
6
CONTINUOUS
10
0.829402
20
0.600654
11
0.829402
21
0.504197
0
LINE
8
BLACK
6
CONTINUOUS
10
0.829402
20
0.504197
11
1.0046
21
0.504197
0
LINE
8
BLACK
6
CONTINUOUS
10
1.0046
20
0.504197
11
1.0046
21
0.600654
0
LINE
8
BLACK
6
CONTINUOUS
10
1.0046
20
0.600654
11
0.829402
21
0.600654
0
LINE
8
BLACK
6
CONTINUOUS
10
1.30455
20
0.592748
11
1.30525
21
0.59246
0
LINE
8
BLACK
6
CONTINUOUS
10
1.30525
20
0.59246
11
1.30554
21
0.591764
0
LINE
8
BLACK
6
CONTINUOUS
10
1.30554
20
0.591764
11
1.30554
21
0.509087
0
LINE
8
BLACK
6
CONTINUOUS
10
1.30554
20
0.509087
11
1.30525
21
0.508391
0
LINE
8
BLACK
6
CONTINUOUS
10
1.30525
20
0.508391
11
1.30455
21
0.508102
0
LINE
8
BLACK
6
CONTINUOUS
10
1.30455
20
0.508102
11
1.12345
21
0.508102
0
LINE
8
BLACK
6
CONTINUOUS
10
1.12345
20
0.508102
11
1.12275
21
0.508391
0
LINE
8
BLACK
6
CONTINUOUS
10
1.12275
20
0.508391
11
1.12246
21
0.509087
0
LINE
8
BLACK
6
CONTINUOUS
10
1.12246
20
0.509087
11
1.12246
21
0.591764
0
LINE
8
BLACK
6
CONTINUOUS
10
1.12246
20
0.591764
11
1.12275
21
0.59246
0
LINE
8
BLACK
6
CONTINUOUS
10
1.12275
20
0.59246
11
1.12345
21
0.592748
0
LINE
8
BLACK
6
CONTINUOUS
10
1.12345
20
0.592748
11
1.30455
21
0.592748
0
LINE
8
BLACK
6
CONTINUOUS
10
1.12443
20
0.59078
11
1.12443
21
0.510071
0
LINE
8
BLACK
6
CONTINUOUS
10
1.12443
20
0.510071
11
1.30357
21
0.510071
0
LINE
8
BLACK
6
CONTINUOUS
10
1.30357
20
0.510071
11
1.30357
21
0.59078
0
LINE
8
BLACK
6
CONTINUOUS
10
1.30357
20
0.59078
11
1.12443
21
0.59078
0
LINE
8
BLACK
6
CONTINUOUS
10
1.3904
20
0.658551
11
1.3911
21
0.658263
0
LINE
8
BLACK
6
CONTINUOUS
10
1.3911
20
0.658263
11
1.39139
21
0.657567
0
LINE
8
BLACK
6
CONTINUOUS
10
1.39139
20
0.657567
11
1.39139
21
0.525283
0
LINE
8
BLACK
6
CONTINUOUS
10
1.39139
20
0.525283
11
1.3911
21
0.524587
0
LINE
8
BLACK
6
CONTINUOUS
10
1.3911
20
0.524587
11
1.3904
21
0.524299
0
LINE
8
BLACK
6
CONTINUOUS
10
1.3904
20
0.524299
11
1.3156
21
0.524299
0
LINE
8
BLACK
6
CONTINUOUS
10
1.3156
20
0.524299
11
1.3149
21
0.524587
0
LINE
8
BLACK
6
CONTINUOUS
10
1.3149
20
0.524587
11
1.31461
21
0.525283
0
LINE
8
BLACK
6
CONTINUOUS
10
1.31461
20
0.525283
11
1.31461
21
0.657567
0
LINE
8
BLACK
6
CONTINUOUS
10
1.31461
20
0.657567
11
1.3149
21
0.658263
0
LINE
8
BLACK
6
CONTINUOUS
10
1.3149
20
0.658263
11
1.3156
21
0.658551
0
LINE
8
BLACK
6
CONTINUOUS
10
1.3156
20
0.658551
11
1.3904
21
0.658551
0
LINE
8
BLACK
6
CONTINUOUS
10
1.31658
20
0.656583
11
1.31658
21
0.526268
0
LINE
8
BLACK
6
CONTINUOUS
10
1.31658
20
0.526268
11
1.38942
21
0.526268
0
LINE
8
BLACK
6
CONTINUOUS
10
1.38942
20
0.526268
11
1.38942
21
0.656583
0
LINE
8
BLACK
6
CONTINUOUS
10
1.38942
20
0.656583
11
1.31658
21
0.656583
0
LINE
8
BLACK
6
CONTINUOUS
10
1.88358
20
0.718913
11
1.88428
21
0.718625
0
LINE
8
BLACK
6
CONTINUOUS
10
1.88428
20
0.718625
11
1.88457
21
0.717929
0
LINE
8
BLACK
6
CONTINUOUS
10
1.88457
20
0.717929
11
1.88457
21
0.584071
0
LINE
8
BLACK
6
CONTINUOUS
10
1.88457
20
0.584071
11
1.88428
21
0.583375
0
LINE
8
BLACK
6
CONTINUOUS
10
1.88428
20
0.583375
11
1.88358
21
0.583087
0
LINE
8
BLACK
6
CONTINUOUS
10
1.88358
20
0.583087
11
1.80642
21
0.583087
0
LINE
8
BLACK
6
CONTINUOUS
10
1.80642
20
0.583087
11
1.80572
21
0.583375
0
LINE
8
BLACK
6
CONTINUOUS
10
1.80572
20
0.583375
11
1.80543
21
0.584071
0
LINE
8
BLACK
6
CONTINUOUS
10
1.80543
20
0.584071
11
1.80543
21
0.717929
0
LINE
8
BLACK
6
CONTINUOUS
10
1.80543
20
0.717929
11
1.80572
21
0.718625
0
LINE
8
BLACK
6
CONTINUOUS
10
1.80572
20
0.718625
11
1.80642
21
0.718913
0
LINE
8
BLACK
6
CONTINUOUS
10
1.80642
20
0.718913
11
1.88358
21
0.718913
0
LINE
8
BLACK
6
CONTINUOUS
10
1.8074
20
0.716945
11
1.8074
21
0.585055
0
LINE
8
BLACK
6
CONTINUOUS
10
1.8074
20
0.585055
11
1.8826
21
0.585055
0
LINE
8
BLACK
6
CONTINUOUS
10
1.8826
20
0.585055
11
1.8826
21
0.716945
0
LINE
8
BLACK
6
CONTINUOUS
10
1.8826
20
0.716945
11
1.8074
21
0.716945
0
LINE
8
BLACK
6
CONTINUOUS
10
1.30393
20
0.674992
11
1.30463
21
0.674704
0
LINE
8
BLACK
6
CONTINUOUS
10
1.30463
20
0.674704
11
1.30491
21
0.674008
0
LINE
8
BLACK
6
CONTINUOUS
10
1.30491
20
0.674008
11
1.30491
21
0.596843
0
LINE
8
BLACK
6
CONTINUOUS
10
1.30491
20
0.596843
11
1.30463
21
0.596147
0
LINE
8
BLACK
6
CONTINUOUS
10
1.30463
20
0.596147
11
1.30393
21
0.595858
0
LINE
8
BLACK
6
CONTINUOUS
10
1.30393
20
0.595858
11
1.17007
21
0.595858
0
LINE
8
BLACK
6
CONTINUOUS
10
1.17007
20
0.595858
11
1.16937
21
0.596147
0
LINE
8
BLACK
6
CONTINUOUS
10
1.16937
20
0.596147
11
1.16909
21
0.596843
0
LINE
8
BLACK
6
CONTINUOUS
10
1.16909
20
0.596843
11
1.16909
21
0.674008
0
LINE
8
BLACK
6
CONTINUOUS
10
1.16909
20
0.674008
11
1.16937
21
0.674704
0
LINE
8
BLACK
6
CONTINUOUS
10
1.16937
20
0.674704
11
1.17007
21
0.674992
0
LINE
8
BLACK
6
CONTINUOUS
10
1.17007
20
0.674992
11
1.30393
21
0.674992
0
LINE
8
BLACK
6
CONTINUOUS
10
1.17106
20
0.673024
11
1.17106
21
0.597827
0
LINE
8
BLACK
6
CONTINUOUS
10
1.17106
20
0.597827
11
1.30294
21
0.597827
0
LINE
8
BLACK
6
CONTINUOUS
10
1.30294
20
0.597827
11
1.30294
21
0.673024
0
LINE
8
BLACK
6
CONTINUOUS
10
1.30294
20
0.673024
11
1.17106
21
0.673024
0
LINE
8
BLACK
6
CONTINUOUS
10
0.964929
20
0.690992
11
0.965625
21
0.690704
0
LINE
8
BLACK
6
CONTINUOUS
10
0.965625
20
0.690704
11
0.965913
21
0.690008
0
LINE
8
BLACK
6
CONTINUOUS
10
0.965913
20
0.690008
11
0.965913
21
0.612843
0
LINE
8
BLACK
6
CONTINUOUS
10
0.965913
20
0.612843
11
0.965625
21
0.612147
0
LINE
8
BLACK
6
CONTINUOUS
10
0.965625
20
0.612147
11
0.964929
21
0.611858
0
LINE
8
BLACK
6
CONTINUOUS
10
0.964929
20
0.611858
11
0.831071
21
0.611858
0
LINE
8
BLACK
6
CONTINUOUS
10
0.831071
20
0.611858
11
0.830375
21
0.612147
0
LINE
8
BLACK
6
CONTINUOUS
10
0.830375
20
0.612147
11
0.830087
21
0.612843
0
LINE
8
BLACK
6
CONTINUOUS
10
0.830087
20
0.612843
11
0.830087
21
0.690008
0
LINE
8
BLACK
6
CONTINUOUS
10
0.830087
20
0.690008
11
0.830375
21
0.690704
0
LINE
8
BLACK
6
CONTINUOUS
10
0.830375
20
0.690704
11
0.831071
21
0.690992
0
LINE
8
BLACK
6
CONTINUOUS
10
0.831071
20
0.690992
11
0.964929
21
0.690992
0
LINE
8
BLACK
6
CONTINUOUS
10
0.832055
20
0.689024
11
0.832055
21
0.613827
0
LINE
8
BLACK
6
CONTINUOUS
10
0.832055
20
0.613827
11
0.963945
21
0.613827
0
LINE
8
BLACK
6
CONTINUOUS
10
0.963945
20
0.613827
11
0.963945
21
0.689024
0
LINE
8
BLACK
6
CONTINUOUS
10
0.963945
20
0.689024
11
0.832055
21
0.689024
0
LINE
8
BLACK
6
CONTINUOUS
10
2.38314
20
0.703386
11
2.38384
21
0.703098
0
LINE
8
BLACK
6
CONTINUOUS
10
2.38384
20
0.703098
11
2.38413
21
0.702402
0
LINE
8
BLACK
6
CONTINUOUS
10
2.38413
20
0.702402
11
2.38413
21
0.627598
0
LINE
8
BLACK
6
CONTINUOUS
10
2.38413
20
0.627598
11
2.38384
21
0.626902
0
LINE
8
BLACK
6
CONTINUOUS
10
2.38384
20
0.626902
11
2.38314
21
0.626614
0
LINE
8
BLACK
6
CONTINUOUS
10
2.38314
20
0.626614
11
2.25086
21
0.626614
0
LINE
8
BLACK
6
CONTINUOUS
10
2.25086
20
0.626614
11
2.25016
21
0.626902
0
LINE
8
BLACK
6
CONTINUOUS
10
2.25016
20
0.626902
11
2.24987
21
0.627598
0
LINE
8
BLACK
6
CONTINUOUS
10
2.24987
20
0.627598
11
2.24987
21
0.702402
0
LINE
8
BLACK
6
CONTINUOUS
10
2.24987
20
0.702402
11
2.25016
21
0.703098
0
LINE
8
BLACK
6
CONTINUOUS
10
2.25016
20
0.703098
11
2.25086
21
0.703386
0
LINE
8
BLACK
6
CONTINUOUS
10
2.25086
20
0.703386
11
2.38314
21
0.703386
0
LINE
8
BLACK
6
CONTINUOUS
10
2.25184
20
0.701417
11
2.25184
21
0.628583
0
LINE
8
BLACK
6
CONTINUOUS
10
2.25184
20
0.628583
11
2.38216
21
0.628583
0
LINE
8
BLACK
6
CONTINUOUS
10
2.38216
20
0.628583
11
2.38216
21
0.701417
0
LINE
8
BLACK
6
CONTINUOUS
10
2.38216
20
0.701417
11
2.25184
21
0.701417
0
LINE
8
BLACK
6
CONTINUOUS
10
1.80022
20
0.718386
11
1.80091
21
0.718098
0
LINE
8
BLACK
6
CONTINUOUS
10
1.80091
20
0.718098
11
1.8012
21
0.717402
0
LINE
8
BLACK
6
CONTINUOUS
10
1.8012
20
0.717402
11
1.8012
21
0.642598
0
LINE
8
BLACK
6
CONTINUOUS
10
1.8012
20
0.642598
11
1.80091
21
0.641902
0
LINE
8
BLACK
6
CONTINUOUS
10
1.80091
20
0.641902
11
1.80022
21
0.641614
0
LINE
8
BLACK
6
CONTINUOUS
10
1.80022
20
0.641614
11
1.66793
21
0.641614
0
LINE
8
BLACK
6
CONTINUOUS
10
1.66793
20
0.641614
11
1.66724
21
0.641902
0
LINE
8
BLACK
6
CONTINUOUS
10
1.66724
20
0.641902
11
1.66695
21
0.642598
0
LINE
8
BLACK
6
CONTINUOUS
10
1.66695
20
0.642598
11
1.66695
21
0.717402
0
LINE
8
BLACK
6
CONTINUOUS
10
1.66695
20
0.717402
11
1.66724
21
0.718098
0
LINE
8
BLACK
6
CONTINUOUS
10
1.66724
20
0.718098
11
1.66793
21
0.718386
0
LINE
8
BLACK
6
CONTINUOUS
10
1.66793
20
0.718386
11
1.80022
21
0.718386
0
LINE
8
BLACK
6
CONTINUOUS
10
1.66892
20
0.716417
11
1.66892
21
0.643583
0
LINE
8
BLACK
6
CONTINUOUS
10
1.66892
20
0.643583
11
1.79923
21
0.643583
0
LINE
8
BLACK
6
CONTINUOUS
10
1.79923
20
0.643583
11
1.79923
21
0.716417
0
LINE
8
BLACK
6
CONTINUOUS
10
1.79923
20
0.716417
11
1.66892
21
0.716417
0
LINE
8
BLACK
6
CONTINUOUS
10
1.58655
20
0.74726
11
1.58725
21
0.746972
0
LINE
8
BLACK
6
CONTINUOUS
10
1.58725
20
0.746972
11
1.58754
21
0.746276
0
LINE
8
BLACK
6
CONTINUOUS
10
1.58754
20
0.746276
11
1.58754
21
0.671472
0
LINE
8
BLACK
6
CONTINUOUS
10
1.58754
20
0.671472
11
1.58725
21
0.670776
0
LINE
8
BLACK
6
CONTINUOUS
10
1.58725
20
0.670776
11
1.58655
21
0.670488
0
LINE
8
BLACK
6
CONTINUOUS
10
1.58655
20
0.670488
11
1.45427
21
0.670488
0
LINE
8
BLACK
6
CONTINUOUS
10
1.45427
20
0.670488
11
1.45357
21
0.670776
0
LINE
8
BLACK
6
CONTINUOUS
10
1.45357
20
0.670776
11
1.45328
21
0.671472
0
LINE
8
BLACK
6
CONTINUOUS
10
1.45328
20
0.671472
11
1.45328
21
0.746276
0
LINE
8
BLACK
6
CONTINUOUS
10
1.45328
20
0.746276
11
1.45357
21
0.746972
0
LINE
8
BLACK
6
CONTINUOUS
10
1.45357
20
0.746972
11
1.45427
21
0.74726
0
LINE
8
BLACK
6
CONTINUOUS
10
1.45427
20
0.74726
11
1.58655
21
0.74726
0
LINE
8
BLACK
6
CONTINUOUS
10
1.45525
20
0.745291
11
1.45525
21
0.672457
0
LINE
8
BLACK
6
CONTINUOUS
10
1.45525
20
0.672457
11
1.58557
21
0.672457
0
LINE
8
BLACK
6
CONTINUOUS
10
1.58557
20
0.672457
11
1.58557
21
0.745291
0
LINE
8
BLACK
6
CONTINUOUS
10
1.58557
20
0.745291
11
1.45525
21
0.745291
0
LINE
8
BLACK
6
CONTINUOUS
10
2.08334
20
0.862535
11
2.08403
21
0.862247
0
LINE
8
BLACK
6
CONTINUOUS
10
2.08403
20
0.862247
11
2.08432
21
0.861551
0
LINE
8
BLACK
6
CONTINUOUS
10
2.08432
20
0.861551
11
2.08432
21
0.680449
0
LINE
8
BLACK
6
CONTINUOUS
10
2.08432
20
0.680449
11
2.08403
21
0.679753
0
LINE
8
BLACK
6
CONTINUOUS
10
2.08403
20
0.679753
11
2.08334
21
0.679465
0
LINE
8
BLACK
6
CONTINUOUS
10
2.08334
20
0.679465
11
2.00066
21
0.679465
0
LINE
8
BLACK
6
CONTINUOUS
10
2.00066
20
0.679465
11
1.99997
21
0.679753
0
LINE
8
BLACK
6
CONTINUOUS
10
1.99997
20
0.679753
11
1.99968
21
0.680449
0
LINE
8
BLACK
6
CONTINUOUS
10
1.99968
20
0.680449
11
1.99968
21
0.861551
0
LINE
8
BLACK
6
CONTINUOUS
10
1.99968
20
0.861551
11
1.99997
21
0.862247
0
LINE
8
BLACK
6
CONTINUOUS
10
1.99997
20
0.862247
11
2.00066
21
0.862535
0
LINE
8
BLACK
6
CONTINUOUS
10
2.00066
20
0.862535
11
2.08334
21
0.862535
0
LINE
8
BLACK
6
CONTINUOUS
10
2.00165
20
0.860567
11
2.00165
21
0.681433
0
LINE
8
BLACK
6
CONTINUOUS
10
2.00165
20
0.681433
11
2.08235
21
0.681433
0
LINE
8
BLACK
6
CONTINUOUS
10
2.08235
20
0.681433
11
2.08235
21
0.860567
0
LINE
8
BLACK
6
CONTINUOUS
10
2.08235
20
0.860567
11
2.00165
21
0.860567
0
LINE
8
BLACK
6
CONTINUOUS
10
2.21899
20
0.862535
11
2.21969
21
0.862247
0
LINE
8
BLACK
6
CONTINUOUS
10
2.21969
20
0.862247
11
2.21998
21
0.861551
0
LINE
8
BLACK
6
CONTINUOUS
10
2.21998
20
0.861551
11
2.21998
21
0.680449
0
LINE
8
BLACK
6
CONTINUOUS
10
2.21998
20
0.680449
11
2.21969
21
0.679753
0
LINE
8
BLACK
6
CONTINUOUS
10
2.21969
20
0.679753
11
2.21899
21
0.679465
0
LINE
8
BLACK
6
CONTINUOUS
10
2.21899
20
0.679465
11
2.09301
21
0.679465
0
LINE
8
BLACK
6
CONTINUOUS
10
2.09301
20
0.679465
11
2.09231
21
0.679753
0
LINE
8
BLACK
6
CONTINUOUS
10
2.09231
20
0.679753
11
2.09202
21
0.680449
0
LINE
8
BLACK
6
CONTINUOUS
10
2.09202
20
0.680449
11
2.09202
21
0.861551
0
LINE
8
BLACK
6
CONTINUOUS
10
2.09202
20
0.861551
11
2.09231
21
0.862247
0
LINE
8
BLACK
6
CONTINUOUS
10
2.09231
20
0.862247
11
2.09301
21
0.862535
0
LINE
8
BLACK
6
CONTINUOUS
10
2.09301
20
0.862535
11
2.21899
21
0.862535
0
LINE
8
BLACK
6
CONTINUOUS
10
2.09399
20
0.860567
11
2.09399
21
0.681433
0
LINE
8
BLACK
6
CONTINUOUS
10
2.09399
20
0.681433
11
2.21801
21
0.681433
0
LINE
8
BLACK
6
CONTINUOUS
10
2.21801
20
0.681433
11
2.21801
21
0.860567
0
LINE
8
BLACK
6
CONTINUOUS
10
2.21801
20
0.860567
11
2.09399
21
0.860567
0
LINE
8
BLACK
6
CONTINUOUS
10
1.3037
20
0.823276
11
1.3044
21
0.822987
0
LINE
8
BLACK
6
CONTINUOUS
10
1.3044
20
0.822987
11
1.30469
21
0.822291
0
LINE
8
BLACK
6
CONTINUOUS
10
1.30469
20
0.822291
11
1.30469
21
0.680559
0
LINE
8
BLACK
6
CONTINUOUS
10
1.30469
20
0.680559
11
1.3044
21
0.679863
0
LINE
8
BLACK
6
CONTINUOUS
10
1.3044
20
0.679863
11
1.3037
21
0.679575
0
LINE
8
BLACK
6
CONTINUOUS
10
1.3037
20
0.679575
11
1.1163
21
0.679575
0
LINE
8
BLACK
6
CONTINUOUS
10
1.1163
20
0.679575
11
1.1156
21
0.679863
0
LINE
8
BLACK
6
CONTINUOUS
10
1.1156
20
0.679863
11
1.11531
21
0.680559
0
LINE
8
BLACK
6
CONTINUOUS
10
1.11531
20
0.680559
11
1.11531
21
0.822291
0
LINE
8
BLACK
6
CONTINUOUS
10
1.11531
20
0.822291
11
1.1156
21
0.822987
0
LINE
8
BLACK
6
CONTINUOUS
10
1.1156
20
0.822987
11
1.1163
21
0.823276
0
LINE
8
BLACK
6
CONTINUOUS
10
1.1163
20
0.823276
11
1.3037
21
0.823276
0
LINE
8
BLACK
6
CONTINUOUS
10
1.11728
20
0.821307
11
1.11728
21
0.681543
0
LINE
8
BLACK
6
CONTINUOUS
10
1.11728
20
0.681543
11
1.30272
21
0.681543
0
LINE
8
BLACK
6
CONTINUOUS
10
1.30272
20
0.681543
11
1.30272
21
0.821307
0
LINE
8
BLACK
6
CONTINUOUS
10
1.30272
20
0.821307
11
1.11728
21
0.821307
0
LINE
8
BLACK
6
CONTINUOUS
10
1.4154
20
0.831551
11
1.4161
21
0.831263
0
LINE
8
BLACK
6
CONTINUOUS
10
1.4161
20
0.831263
11
1.41639
21
0.830567
0
LINE
8
BLACK
6
CONTINUOUS
10
1.41639
20
0.830567
11
1.41639
21
0.698283
0
LINE
8
BLACK
6
CONTINUOUS
10
1.41639
20
0.698283
11
1.4161
21
0.697587
0
LINE
8
BLACK
6
CONTINUOUS
10
1.4161
20
0.697587
11
1.4154
21
0.697299
0
LINE
8
BLACK
6
CONTINUOUS
10
1.4154
20
0.697299
11
1.3406
21
0.697299
0
LINE
8
BLACK
6
CONTINUOUS
10
1.3406
20
0.697299
11
1.3399
21
0.697587
0
LINE
8
BLACK
6
CONTINUOUS
10
1.3399
20
0.697587
11
1.33961
21
0.698283
0
LINE
8
BLACK
6
CONTINUOUS
10
1.33961
20
0.698283
11
1.33961
21
0.830567
0
LINE
8
BLACK
6
CONTINUOUS
10
1.33961
20
0.830567
11
1.3399
21
0.831263
0
LINE
8
BLACK
6
CONTINUOUS
10
1.3399
20
0.831263
11
1.3406
21
0.831551
0
LINE
8
BLACK
6
CONTINUOUS
10
1.3406
20
0.831551
11
1.4154
21
0.831551
0
LINE
8
BLACK
6
CONTINUOUS
10
1.34158
20
0.829583
11
1.34158
21
0.699268
0
LINE
8
BLACK
6
CONTINUOUS
10
1.34158
20
0.699268
11
1.41442
21
0.699268
0
LINE
8
BLACK
6
CONTINUOUS
10
1.41442
20
0.699268
11
1.41442
21
0.829583
0
LINE
8
BLACK
6
CONTINUOUS
10
1.41442
20
0.829583
11
1.34158
21
0.829583
0
LINE
8
BLACK
6
CONTINUOUS
10
2.40755
20
0.838976
11
2.40825
21
0.838688
0
LINE
8
BLACK
6
CONTINUOUS
10
2.40825
20
0.838688
11
2.40854
21
0.837992
0
LINE
8
BLACK
6
CONTINUOUS
10
2.40854
20
0.837992
11
2.40854
21
0.712008
0
LINE
8
BLACK
6
CONTINUOUS
10
2.40854
20
0.712008
11
2.40825
21
0.711312
0
LINE
8
BLACK
6
CONTINUOUS
10
2.40825
20
0.711312
11
2.40755
21
0.711024
0
LINE
8
BLACK
6
CONTINUOUS
10
2.40755
20
0.711024
11
2.22645
21
0.711024
0
LINE
8
BLACK
6
CONTINUOUS
10
2.22645
20
0.711024
11
2.22575
21
0.711312
0
LINE
8
BLACK
6
CONTINUOUS
10
2.22575
20
0.711312
11
2.22546
21
0.712008
0
LINE
8
BLACK
6
CONTINUOUS
10
2.22546
20
0.712008
11
2.22546
21
0.837992
0
LINE
8
BLACK
6
CONTINUOUS
10
2.22546
20
0.837992
11
2.22575
21
0.838688
0
LINE
8
BLACK
6
CONTINUOUS
10
2.22575
20
0.838688
11
2.22645
21
0.838976
0
LINE
8
BLACK
6
CONTINUOUS
10
2.22645
20
0.838976
11
2.40755
21
0.838976
0
LINE
8
BLACK
6
CONTINUOUS
10
2.22743
20
0.837008
11
2.22743
21
0.712992
0
LINE
8
BLACK
6
CONTINUOUS
10
2.22743
20
0.712992
11
2.40657
21
0.712992
0
LINE
8
BLACK
6
CONTINUOUS
10
2.40657
20
0.712992
11
2.40657
21
0.837008
0
LINE
8
BLACK
6
CONTINUOUS
10
2.40657
20
0.837008
11
2.22743
21
0.837008
0
LINE
8
BLACK
6
CONTINUOUS
10
1.85859
20
0.855913
11
1.85929
21
0.855625
0
LINE
8
BLACK
6
CONTINUOUS
10
1.85929
20
0.855625
11
1.85957
21
0.854929
0
LINE
8
BLACK
6
CONTINUOUS
10
1.85957
20
0.854929
11
1.85957
21
0.721071
0
LINE
8
BLACK
6
CONTINUOUS
10
1.85957
20
0.721071
11
1.85929
21
0.720375
0
LINE
8
BLACK
6
CONTINUOUS
10
1.85929
20
0.720375
11
1.85859
21
0.720087
0
LINE
8
BLACK
6
CONTINUOUS
10
1.85859
20
0.720087
11
1.70741
21
0.720087
0
LINE
8
BLACK
6
CONTINUOUS
10
1.70741
20
0.720087
11
1.70671
21
0.720375
0
LINE
8
BLACK
6
CONTINUOUS
10
1.70671
20
0.720375
11
1.70643
21
0.721071
0
LINE
8
BLACK
6
CONTINUOUS
10
1.70643
20
0.721071
11
1.70643
21
0.854929
0
LINE
8
BLACK
6
CONTINUOUS
10
1.70643
20
0.854929
11
1.70671
21
0.855625
0
LINE
8
BLACK
6
CONTINUOUS
10
1.70671
20
0.855625
11
1.70741
21
0.855913
0
LINE
8
BLACK
6
CONTINUOUS
10
1.70741
20
0.855913
11
1.85859
21
0.855913
0
LINE
8
BLACK
6
CONTINUOUS
10
1.70839
20
0.853945
11
1.70839
21
0.722055
0
LINE
8
BLACK
6
CONTINUOUS
10
1.70839
20
0.722055
11
1.85761
21
0.722055
0
LINE
8
BLACK
6
CONTINUOUS
10
1.85761
20
0.722055
11
1.85761
21
0.853945
0
LINE
8
BLACK
6
CONTINUOUS
10
1.85761
20
0.853945
11
1.70839
21
0.853945
0
LINE
8
BLACK
6
CONTINUOUS
10
1.10793
20
0.816992
11
1.10863
21
0.816704
0
LINE
8
BLACK
6
CONTINUOUS
10
1.10863
20
0.816704
11
1.10891
21
0.816008
0
LINE
8
BLACK
6
CONTINUOUS
10
1.10891
20
0.816008
11
1.10891
21
0.738843
0
LINE
8
BLACK
6
CONTINUOUS
10
1.10891
20
0.738843
11
1.10863
21
0.738147
0
LINE
8
BLACK
6
CONTINUOUS
10
1.10863
20
0.738147
11
1.10793
21
0.737858
0
LINE
8
BLACK
6
CONTINUOUS
10
1.10793
20
0.737858
11
0.974071
21
0.737858
0
LINE
8
BLACK
6
CONTINUOUS
10
0.974071
20
0.737858
11
0.973375
21
0.738147
0
LINE
8
BLACK
6
CONTINUOUS
10
0.973375
20
0.738147
11
0.973087
21
0.738843
0
LINE
8
BLACK
6
CONTINUOUS
10
0.973087
20
0.738843
11
0.973087
21
0.816008
0
LINE
8
BLACK
6
CONTINUOUS
10
0.973087
20
0.816008
11
0.973375
21
0.816704
0
LINE
8
BLACK
6
CONTINUOUS
10
0.973375
20
0.816704
11
0.974071
21
0.816992
0
LINE
8
BLACK
6
CONTINUOUS
10
0.974071
20
0.816992
11
1.10793
21
0.816992
0
LINE
8
BLACK
6
CONTINUOUS
10
0.975055
20
0.815024
11
0.975055
21
0.739827
0
LINE
8
BLACK
6
CONTINUOUS
10
0.975055
20
0.739827
11
1.10694
21
0.739827
0
LINE
8
BLACK
6
CONTINUOUS
10
1.10694
20
0.739827
11
1.10694
21
0.815024
0
LINE
8
BLACK
6
CONTINUOUS
10
1.10694
20
0.815024
11
0.975055
21
0.815024
0
LINE
8
BLACK
6
CONTINUOUS
10
1.9744
20
0.882126
11
1.9751
21
0.881838
0
LINE
8
BLACK
6
CONTINUOUS
10
1.9751
20
0.881838
11
1.97539
21
0.881142
0
LINE
8
BLACK
6
CONTINUOUS
10
1.97539
20
0.881142
11
1.97539
21
0.748858
0
LINE
8
BLACK
6
CONTINUOUS
10
1.97539
20
0.748858
11
1.9751
21
0.748162
0
LINE
8
BLACK
6
CONTINUOUS
10
1.9751
20
0.748162
11
1.9744
21
0.747874
0
LINE
8
BLACK
6
CONTINUOUS
10
1.9744
20
0.747874
11
1.8996
21
0.747874
0
LINE
8
BLACK
6
CONTINUOUS
10
1.8996
20
0.747874
11
1.8989
21
0.748162
0
LINE
8
BLACK
6
CONTINUOUS
10
1.8989
20
0.748162
11
1.89861
21
0.748858
0
LINE
8
BLACK
6
CONTINUOUS
10
1.89861
20
0.748858
11
1.89861
21
0.881142
0
LINE
8
BLACK
6
CONTINUOUS
10
1.89861
20
0.881142
11
1.8989
21
0.881838
0
LINE
8
BLACK
6
CONTINUOUS
10
1.8989
20
0.881838
11
1.8996
21
0.882126
0
LINE
8
BLACK
6
CONTINUOUS
10
1.8996
20
0.882126
11
1.9744
21
0.882126
0
LINE
8
BLACK
6
CONTINUOUS
10
1.90058
20
0.880157
11
1.90058
21
0.749843
0
LINE
8
BLACK
6
CONTINUOUS
10
1.90058
20
0.749843
11
1.97342
21
0.749843
0
LINE
8
BLACK
6
CONTINUOUS
10
1.97342
20
0.749843
11
1.97342
21
0.880157
0
LINE
8
BLACK
6
CONTINUOUS
10
1.97342
20
0.880157
11
1.90058
21
0.880157
0
LINE
8
BLACK
6
CONTINUOUS
10
1.58793
20
0.827992
11
1.58863
21
0.827704
0
LINE
8
BLACK
6
CONTINUOUS
10
1.58863
20
0.827704
11
1.58891
21
0.827008
0
LINE
8
BLACK
6
CONTINUOUS
10
1.58891
20
0.827008
11
1.58891
21
0.749843
0
LINE
8
BLACK
6
CONTINUOUS
10
1.58891
20
0.749843
11
1.58863
21
0.749147
0
LINE
8
BLACK
6
CONTINUOUS
10
1.58863
20
0.749147
11
1.58793
21
0.748858
0
LINE
8
BLACK
6
CONTINUOUS
10
1.58793
20
0.748858
11
1.45407
21
0.748858
0
LINE
8
BLACK
6
CONTINUOUS
10
1.45407
20
0.748858
11
1.45337
21
0.749147
0
LINE
8
BLACK
6
CONTINUOUS
10
1.45337
20
0.749147
11
1.45309
21
0.749843
0
LINE
8
BLACK
6
CONTINUOUS
10
1.45309
20
0.749843
11
1.45309
21
0.827008
0
LINE
8
BLACK
6
CONTINUOUS
10
1.45309
20
0.827008
11
1.45337
21
0.827704
0
LINE
8
BLACK
6
CONTINUOUS
10
1.45337
20
0.827704
11
1.45407
21
0.827992
0
LINE
8
BLACK
6
CONTINUOUS
10
1.45407
20
0.827992
11
1.58793
21
0.827992
0
LINE
8
BLACK
6
CONTINUOUS
10
1.45506
20
0.826024
11
1.45506
21
0.750827
0
LINE
8
BLACK
6
CONTINUOUS
10
1.45506
20
0.750827
11
1.58694
21
0.750827
0
LINE
8
BLACK
6
CONTINUOUS
10
1.58694
20
0.750827
11
1.58694
21
0.826024
0
LINE
8
BLACK
6
CONTINUOUS
10
1.58694
20
0.826024
11
1.45506
21
0.826024
0
LINE
8
BLACK
6
CONTINUOUS
10
0.956339
20
0.970961
11
0.957035
21
0.970672
0
LINE
8
BLACK
6
CONTINUOUS
10
0.957035
20
0.970672
11
0.957323
21
0.969976
0
LINE
8
BLACK
6
CONTINUOUS
10
0.957323
20
0.969976
11
0.957323
21
0.788874
0
LINE
8
BLACK
6
CONTINUOUS
10
0.957323
20
0.788874
11
0.957035
21
0.788178
0
LINE
8
BLACK
6
CONTINUOUS
10
0.957035
20
0.788178
11
0.956339
21
0.78789
0
LINE
8
BLACK
6
CONTINUOUS
10
0.956339
20
0.78789
11
0.873661
21
0.78789
0
LINE
8
BLACK
6
CONTINUOUS
10
0.873661
20
0.78789
11
0.872965
21
0.788178
0
LINE
8
BLACK
6
CONTINUOUS
10
0.872965
20
0.788178
11
0.872677
21
0.788874
0
LINE
8
BLACK
6
CONTINUOUS
10
0.872677
20
0.788874
11
0.872677
21
0.969976
0
LINE
8
BLACK
6
CONTINUOUS
10
0.872677
20
0.969976
11
0.872965
21
0.970672
0
LINE
8
BLACK
6
CONTINUOUS
10
0.872965
20
0.970672
11
0.873661
21
0.970961
0
LINE
8
BLACK
6
CONTINUOUS
10
0.873661
20
0.970961
11
0.956339
21
0.970961
0
LINE
8
BLACK
6
CONTINUOUS
10
0.874646
20
0.968992
11
0.874646
21
0.789858
0
LINE
8
BLACK
6
CONTINUOUS
10
0.874646
20
0.789858
11
0.955354
21
0.789858
0
LINE
8
BLACK
6
CONTINUOUS
10
0.955354
20
0.789858
11
0.955354
21
0.968992
0
LINE
8
BLACK
6
CONTINUOUS
10
0.955354
20
0.968992
11
0.874646
21
0.968992
0
LINE
8
BLACK
6
CONTINUOUS
10
0.864583
20
0.942339
11
0.865279
21
0.94205
0
LINE
8
BLACK
6
CONTINUOUS
10
0.865279
20
0.94205
11
0.865567
21
0.941354
0
LINE
8
BLACK
6
CONTINUOUS
10
0.865567
20
0.941354
11
0.865567
21
0.807496
0
LINE
8
BLACK
6
CONTINUOUS
10
0.865567
20
0.807496
11
0.865279
21
0.8068
0
LINE
8
BLACK
6
CONTINUOUS
10
0.865279
20
0.8068
11
0.864583
21
0.806512
0
LINE
8
BLACK
6
CONTINUOUS
10
0.864583
20
0.806512
11
0.787417
21
0.806512
0
LINE
8
BLACK
6
CONTINUOUS
10
0.787417
20
0.806512
11
0.786721
21
0.8068
0
LINE
8
BLACK
6
CONTINUOUS
10
0.786721
20
0.8068
11
0.786433
21
0.807496
0
LINE
8
BLACK
6
CONTINUOUS
10
0.786433
20
0.807496
11
0.786433
21
0.941354
0
LINE
8
BLACK
6
CONTINUOUS
10
0.786433
20
0.941354
11
0.786721
21
0.94205
0
LINE
8
BLACK
6
CONTINUOUS
10
0.786721
20
0.94205
11
0.787417
21
0.942339
0
LINE
8
BLACK
6
CONTINUOUS
10
0.787417
20
0.942339
11
0.864583
21
0.942339
0
LINE
8
BLACK
6
CONTINUOUS
10
0.788402
20
0.94037
11
0.788402
21
0.80848
0
LINE
8
BLACK
6
CONTINUOUS
10
0.788402
20
0.80848
11
0.863598
21
0.80848
0
LINE
8
BLACK
6
CONTINUOUS
10
0.863598
20
0.80848
11
0.863598
21
0.94037
0
LINE
8
BLACK
6
CONTINUOUS
10
0.863598
20
0.94037
11
0.788402
21
0.94037
0
LINE
8
BLACK
6
CONTINUOUS
10
1.11559
20
0.967339
11
1.11629
21
0.96705
0
LINE
8
BLACK
6
CONTINUOUS
10
1.11629
20
0.96705
11
1.11657
21
0.966354
0
LINE
8
BLACK
6
CONTINUOUS
10
1.11657
20
0.966354
11
1.11657
21
0.832496
0
LINE
8
BLACK
6
CONTINUOUS
10
1.11657
20
0.832496
11
1.11629
21
0.8318
0
LINE
8
BLACK
6
CONTINUOUS
10
1.11629
20
0.8318
11
1.11559
21
0.831512
0
LINE
8
BLACK
6
CONTINUOUS
10
1.11559
20
0.831512
11
0.964409
21
0.831512
0
LINE
8
BLACK
6
CONTINUOUS
10
0.964409
20
0.831512
11
0.963713
21
0.8318
0
LINE
8
BLACK
6
CONTINUOUS
10
0.963713
20
0.8318
11
0.963425
21
0.832496
0
LINE
8
BLACK
6
CONTINUOUS
10
0.963425
20
0.832496
11
0.963425
21
0.966354
0
LINE
8
BLACK
6
CONTINUOUS
10
0.963425
20
0.966354
11
0.963713
21
0.96705
0
LINE
8
BLACK
6
CONTINUOUS
10
0.963713
20
0.96705
11
0.964409
21
0.967339
0
LINE
8
BLACK
6
CONTINUOUS
10
0.964409
20
0.967339
11
1.11559
21
0.967339
0
LINE
8
BLACK
6
CONTINUOUS
10
0.965394
20
0.96537
11
0.965394
21
0.83348
0
LINE
8
BLACK
6
CONTINUOUS
10
0.965394
20
0.83348
11
1.11461
21
0.83348
0
LINE
8
BLACK
6
CONTINUOUS
10
1.11461
20
0.83348
11
1.11461
21
0.96537
0
LINE
8
BLACK
6
CONTINUOUS
10
1.11461
20
0.96537
11
0.965394
21
0.96537
0
LINE
8
BLACK
6
CONTINUOUS
10
1.58793
20
1.07394
11
1.58863
21
1.07366
0
LINE
8
BLACK
6
CONTINUOUS
10
1.58863
20
1.07366
11
1.58891
21
1.07296
0
LINE
8
BLACK
6
CONTINUOUS
10
1.58891
20
1.07296
11
1.58891
21
0.83989
0
LINE
8
BLACK
6
CONTINUOUS
10
1.58891
20
0.83989
11
1.58863
21
0.839194
0
LINE
8
BLACK
6
CONTINUOUS
10
1.58863
20
0.839194
11
1.58793
21
0.838906
0
LINE
8
BLACK
6
CONTINUOUS
10
1.58793
20
0.838906
11
1.45407
21
0.838906
0
LINE
8
BLACK
6
CONTINUOUS
10
1.45407
20
0.838906
11
1.45337
21
0.839194
0
LINE
8
BLACK
6
CONTINUOUS
10
1.45337
20
0.839194
11
1.45309
21
0.83989
0
LINE
8
BLACK
6
CONTINUOUS
10
1.45309
20
0.83989
11
1.45309
21
1.07296
0
LINE
8
BLACK
6
CONTINUOUS
10
1.45309
20
1.07296
11
1.45337
21
1.07366
0
LINE
8
BLACK
6
CONTINUOUS
10
1.45337
20
1.07366
11
1.45407
21
1.07394
0
LINE
8
BLACK
6
CONTINUOUS
10
1.45407
20
1.07394
11
1.58793
21
1.07394
0
LINE
8
BLACK
6
CONTINUOUS
10
1.45506
20
1.07198
11
1.45506
21
0.840874
0
LINE
8
BLACK
6
CONTINUOUS
10
1.45506
20
0.840874
11
1.58694
21
0.840874
0
LINE
8
BLACK
6
CONTINUOUS
10
1.58694
20
0.840874
11
1.58694
21
1.07198
0
LINE
8
BLACK
6
CONTINUOUS
10
1.58694
20
1.07198
11
1.45506
21
1.07198
0
LINE
8
BLACK
6
CONTINUOUS
10
1.44758
20
0.976339
11
1.44828
21
0.97605
0
LINE
8
BLACK
6
CONTINUOUS
10
1.44828
20
0.97605
11
1.44857
21
0.975354
0
LINE
8
BLACK
6
CONTINUOUS
10
1.44857
20
0.975354
11
1.44857
21
0.841496
0
LINE
8
BLACK
6
CONTINUOUS
10
1.44857
20
0.841496
11
1.44828
21
0.8408
0
LINE
8
BLACK
6
CONTINUOUS
10
1.44828
20
0.8408
11
1.44758
21
0.840512
0
LINE
8
BLACK
6
CONTINUOUS
10
1.44758
20
0.840512
11
1.37042
21
0.840512
0
LINE
8
BLACK
6
CONTINUOUS
10
1.37042
20
0.840512
11
1.36972
21
0.8408
0
LINE
8
BLACK
6
CONTINUOUS
10
1.36972
20
0.8408
11
1.36943
21
0.841496
0
LINE
8
BLACK
6
CONTINUOUS
10
1.36943
20
0.841496
11
1.36943
21
0.975354
0
LINE
8
BLACK
6
CONTINUOUS
10
1.36943
20
0.975354
11
1.36972
21
0.97605
0
LINE
8
BLACK
6
CONTINUOUS
10
1.36972
20
0.97605
11
1.37042
21
0.976339
0
LINE
8
BLACK
6
CONTINUOUS
10
1.37042
20
0.976339
11
1.44758
21
0.976339
0
LINE
8
BLACK
6
CONTINUOUS
10
1.3714
20
0.97437
11
1.3714
21
0.84248
0
LINE
8
BLACK
6
CONTINUOUS
10
1.3714
20
0.84248
11
1.4466
21
0.84248
0
LINE
8
BLACK
6
CONTINUOUS
10
1.4466
20
0.84248
11
1.4466
21
0.97437
0
LINE
8
BLACK
6
CONTINUOUS
10
1.4466
20
0.97437
11
1.3714
21
0.97437
0
LINE
8
BLACK
6
CONTINUOUS
10
1.35734
20
1.02396
11
1.35803
21
1.02367
0
LINE
8
BLACK
6
CONTINUOUS
10
1.35803
20
1.02367
11
1.35832
21
1.02298
0
LINE
8
BLACK
6
CONTINUOUS
10
1.35832
20
1.02298
11
1.35832
21
0.841874
0
LINE
8
BLACK
6
CONTINUOUS
10
1.35832
20
0.841874
11
1.35803
21
0.841178
0
LINE
8
BLACK
6
CONTINUOUS
10
1.35803
20
0.841178
11
1.35734
21
0.84089
0
LINE
8
BLACK
6
CONTINUOUS
10
1.35734
20
0.84089
11
1.27466
21
0.84089
0
LINE
8
BLACK
6
CONTINUOUS
10
1.27466
20
0.84089
11
1.27397
21
0.841178
0
LINE
8
BLACK
6
CONTINUOUS
10
1.27397
20
0.841178
11
1.27368
21
0.841874
0
LINE
8
BLACK
6
CONTINUOUS
10
1.27368
20
0.841874
11
1.27368
21
1.02298
0
LINE
8
BLACK
6
CONTINUOUS
10
1.27368
20
1.02298
11
1.27397
21
1.02367
0
LINE
8
BLACK
6
CONTINUOUS
10
1.27397
20
1.02367
11
1.27466
21
1.02396
0
LINE
8
BLACK
6
CONTINUOUS
10
1.27466
20
1.02396
11
1.35734
21
1.02396
0
LINE
8
BLACK
6
CONTINUOUS
10
1.27565
20
1.02199
11
1.27565
21
0.842858
0
LINE
8
BLACK
6
CONTINUOUS
10
1.27565
20
0.842858
11
1.35635
21
0.842858
0
LINE
8
BLACK
6
CONTINUOUS
10
1.35635
20
0.842858
11
1.35635
21
1.02199
0
LINE
8
BLACK
6
CONTINUOUS
10
1.35635
20
1.02199
11
1.27565
21
1.02199
0
LINE
8
BLACK
6
CONTINUOUS
10
1.6714
20
0.987551
11
1.6721
21
0.987263
0
LINE
8
BLACK
6
CONTINUOUS
10
1.6721
20
0.987263
11
1.67239
21
0.986567
0
LINE
8
BLACK
6
CONTINUOUS
10
1.67239
20
0.986567
11
1.67239
21
0.854283
0
LINE
8
BLACK
6
CONTINUOUS
10
1.67239
20
0.854283
11
1.6721
21
0.853587
0
LINE
8
BLACK
6
CONTINUOUS
10
1.6721
20
0.853587
11
1.6714
21
0.853299
0
LINE
8
BLACK
6
CONTINUOUS
10
1.6714
20
0.853299
11
1.5966
21
0.853299
0
LINE
8
BLACK
6
CONTINUOUS
10
1.5966
20
0.853299
11
1.5959
21
0.853587
0
LINE
8
BLACK
6
CONTINUOUS
10
1.5959
20
0.853587
11
1.59561
21
0.854283
0
LINE
8
BLACK
6
CONTINUOUS
10
1.59561
20
0.854283
11
1.59561
21
0.986567
0
LINE
8
BLACK
6
CONTINUOUS
10
1.59561
20
0.986567
11
1.5959
21
0.987263
0
LINE
8
BLACK
6
CONTINUOUS
10
1.5959
20
0.987263
11
1.5966
21
0.987551
0
LINE
8
BLACK
6
CONTINUOUS
10
1.5966
20
0.987551
11
1.6714
21
0.987551
0
LINE
8
BLACK
6
CONTINUOUS
10
1.59758
20
0.985583
11
1.59758
21
0.855268
0
LINE
8
BLACK
6
CONTINUOUS
10
1.59758
20
0.855268
11
1.67042
21
0.855268
0
LINE
8
BLACK
6
CONTINUOUS
10
1.67042
20
0.855268
11
1.67042
21
0.985583
0
LINE
8
BLACK
6
CONTINUOUS
10
1.67042
20
0.985583
11
1.59758
21
0.985583
0
LINE
8
BLACK
6
CONTINUOUS
10
2.13552
20
0.946268
11
2.13622
21
0.945979
0
LINE
8
BLACK
6
CONTINUOUS
10
2.13622
20
0.945979
11
2.1365
21
0.945283
0
LINE
8
BLACK
6
CONTINUOUS
10
2.1365
20
0.945283
11
2.1365
21
0.868118
0
LINE
8
BLACK
6
CONTINUOUS
10
2.1365
20
0.868118
11
2.13622
21
0.867422
0
LINE
8
BLACK
6
CONTINUOUS
10
2.13622
20
0.867422
11
2.13552
21
0.867134
0
LINE
8
BLACK
6
CONTINUOUS
10
2.13552
20
0.867134
11
2.00166
21
0.867134
0
LINE
8
BLACK
6
CONTINUOUS
10
2.00166
20
0.867134
11
2.00097
21
0.867422
0
LINE
8
BLACK
6
CONTINUOUS
10
2.00097
20
0.867422
11
2.00068
21
0.868118
0
LINE
8
BLACK
6
CONTINUOUS
10
2.00068
20
0.868118
11
2.00068
21
0.945283
0
LINE
8
BLACK
6
CONTINUOUS
10
2.00068
20
0.945283
11
2.00097
21
0.945979
0
LINE
8
BLACK
6
CONTINUOUS
10
2.00097
20
0.945979
11
2.00166
21
0.946268
0
LINE
8
BLACK
6
CONTINUOUS
10
2.00166
20
0.946268
11
2.13552
21
0.946268
0
LINE
8
BLACK
6
CONTINUOUS
10
2.00265
20
0.944299
11
2.00265
21
0.869102
0
LINE
8
BLACK
6
CONTINUOUS
10
2.00265
20
0.869102
11
2.13454
21
0.869102
0
LINE
8
BLACK
6
CONTINUOUS
10
2.13454
20
0.869102
11
2.13454
21
0.944299
0
LINE
8
BLACK
6
CONTINUOUS
10
2.13454
20
0.944299
11
2.00265
21
0.944299
0
LINE
8
BLACK
6
CONTINUOUS
10
2.27414
20
0.944386
11
2.27484
21
0.944098
0
LINE
8
BLACK
6
CONTINUOUS
10
2.27484
20
0.944098
11
2.27513
21
0.943402
0
LINE
8
BLACK
6
CONTINUOUS
10
2.27513
20
0.943402
11
2.27513
21
0.868598
0
LINE
8
BLACK
6
CONTINUOUS
10
2.27513
20
0.868598
11
2.27484
21
0.867902
0
LINE
8
BLACK
6
CONTINUOUS
10
2.27484
20
0.867902
11
2.27414
21
0.867614
0
LINE
8
BLACK
6
CONTINUOUS
10
2.27414
20
0.867614
11
2.14186
21
0.867614
0
LINE
8
BLACK
6
CONTINUOUS
10
2.14186
20
0.867614
11
2.14116
21
0.867902
0
LINE
8
BLACK
6
CONTINUOUS
10
2.14116
20
0.867902
11
2.14087
21
0.868598
0
LINE
8
BLACK
6
CONTINUOUS
10
2.14087
20
0.868598
11
2.14087
21
0.943402
0
LINE
8
BLACK
6
CONTINUOUS
10
2.14087
20
0.943402
11
2.14116
21
0.944098
0
LINE
8
BLACK
6
CONTINUOUS
10
2.14116
20
0.944098
11
2.14186
21
0.944386
0
LINE
8
BLACK
6
CONTINUOUS
10
2.14186
20
0.944386
11
2.27414
21
0.944386
0
LINE
8
BLACK
6
CONTINUOUS
10
2.14284
20
0.942417
11
2.14284
21
0.869583
0
LINE
8
BLACK
6
CONTINUOUS
10
2.14284
20
0.869583
11
2.27316
21
0.869583
0
LINE
8
BLACK
6
CONTINUOUS
10
2.27316
20
0.869583
11
2.27316
21
0.942417
0
LINE
8
BLACK
6
CONTINUOUS
10
2.27316
20
0.942417
11
2.14284
21
0.942417
0
LINE
8
BLACK
6
CONTINUOUS
10
2.16971
20
1.08391
11
2.1704
21
1.08363
0
LINE
8
BLACK
6
CONTINUOUS
10
2.1704
20
1.08363
11
2.17069
21
1.08293
0
LINE
8
BLACK
6
CONTINUOUS
10
2.17069
20
1.08293
11
2.17069
21
0.949071
0
LINE
8
BLACK
6
CONTINUOUS
10
2.17069
20
0.949071
11
2.1704
21
0.948375
0
LINE
8
BLACK
6
CONTINUOUS
10
2.1704
20
0.948375
11
2.16971
21
0.948087
0
LINE
8
BLACK
6
CONTINUOUS
10
2.16971
20
0.948087
11
2.00829
21
0.948087
0
LINE
8
BLACK
6
CONTINUOUS
10
2.00829
20
0.948087
11
2.0076
21
0.948375
0
LINE
8
BLACK
6
CONTINUOUS
10
2.0076
20
0.948375
11
2.00731
21
0.949071
0
LINE
8
BLACK
6
CONTINUOUS
10
2.00731
20
0.949071
11
2.00731
21
1.08293
0
LINE
8
BLACK
6
CONTINUOUS
10
2.00731
20
1.08293
11
2.0076
21
1.08363
0
LINE
8
BLACK
6
CONTINUOUS
10
2.0076
20
1.08363
11
2.00829
21
1.08391
0
LINE
8
BLACK
6
CONTINUOUS
10
2.00829
20
1.08391
11
2.16971
21
1.08391
0
LINE
8
BLACK
6
CONTINUOUS
10
2.00928
20
1.08194
11
2.00928
21
0.950055
0
LINE
8
BLACK
6
CONTINUOUS
10
2.00928
20
0.950055
11
2.16872
21
0.950055
0
LINE
8
BLACK
6
CONTINUOUS
10
2.16872
20
0.950055
11
2.16872
21
1.08194
0
LINE
8
BLACK
6
CONTINUOUS
10
2.16872
20
1.08194
11
2.00928
21
1.08194
0
LINE
8
BLACK
6
CONTINUOUS
10
2.33159
20
1.08391
11
2.33229
21
1.08363
0
LINE
8
BLACK
6
CONTINUOUS
10
2.33229
20
1.08363
11
2.33257
21
1.08293
0
LINE
8
BLACK
6
CONTINUOUS
10
2.33257
20
1.08293
11
2.33257
21
0.949071
0
LINE
8
BLACK
6
CONTINUOUS
10
2.33257
20
0.949071
11
2.33229
21
0.948375
0
LINE
8
BLACK
6
CONTINUOUS
10
2.33229
20
0.948375
11
2.33159
21
0.948087
0
LINE
8
BLACK
6
CONTINUOUS
10
2.33159
20
0.948087
11
2.18041
21
0.948087
0
LINE
8
BLACK
6
CONTINUOUS
10
2.18041
20
0.948087
11
2.17971
21
0.948375
0
LINE
8
BLACK
6
CONTINUOUS
10
2.17971
20
0.948375
11
2.17943
21
0.949071
0
LINE
8
BLACK
6
CONTINUOUS
10
2.17943
20
0.949071
11
2.17943
21
1.08293
0
LINE
8
BLACK
6
CONTINUOUS
10
2.17943
20
1.08293
11
2.17971
21
1.08363
0
LINE
8
BLACK
6
CONTINUOUS
10
2.17971
20
1.08363
11
2.18041
21
1.08391
0
LINE
8
BLACK
6
CONTINUOUS
10
2.18041
20
1.08391
11
2.33159
21
1.08391
0
LINE
8
BLACK
6
CONTINUOUS
10
2.18139
20
1.08194
11
2.18139
21
0.950055
0
LINE
8
BLACK
6
CONTINUOUS
10
2.18139
20
0.950055
11
2.33061
21
0.950055
0
LINE
8
BLACK
6
CONTINUOUS
10
2.33061
20
0.950055
11
2.33061
21
1.08194
0
LINE
8
BLACK
6
CONTINUOUS
10
2.33061
20
1.08194
11
2.18139
21
1.08194
0
LINE
8
BLACK
6
CONTINUOUS
10
2.00155
20
1.08298
11
2.00225
21
1.08269
0
LINE
8
BLACK
6
CONTINUOUS
10
2.00225
20
1.08269
11
2.00254
21
1.08199
0
LINE
8
BLACK
6
CONTINUOUS
10
2.00254
20
1.08199
11
2.00254
21
0.956008
0
LINE
8
BLACK
6
CONTINUOUS
10
2.00254
20
0.956008
11
2.00225
21
0.955312
0
LINE
8
BLACK
6
CONTINUOUS
10
2.00225
20
0.955312
11
2.00155
21
0.955024
0
LINE
8
BLACK
6
CONTINUOUS
10
2.00155
20
0.955024
11
1.82045
21
0.955024
0
LINE
8
BLACK
6
CONTINUOUS
10
1.82045
20
0.955024
11
1.81975
21
0.955312
0
LINE
8
BLACK
6
CONTINUOUS
10
1.81975
20
0.955312
11
1.81946
21
0.956008
0
LINE
8
BLACK
6
CONTINUOUS
10
1.81946
20
0.956008
11
1.81946
21
1.08199
0
LINE
8
BLACK
6
CONTINUOUS
10
1.81946
20
1.08199
11
1.81975
21
1.08269
0
LINE
8
BLACK
6
CONTINUOUS
10
1.81975
20
1.08269
11
1.82045
21
1.08298
0
LINE
8
BLACK
6
CONTINUOUS
10
1.82045
20
1.08298
11
2.00155
21
1.08298
0
LINE
8
BLACK
6
CONTINUOUS
10
1.82143
20
1.08101
11
1.82143
21
0.956992
0
LINE
8
BLACK
6
CONTINUOUS
10
1.82143
20
0.956992
11
2.00057
21
0.956992
0
LINE
8
BLACK
6
CONTINUOUS
10
2.00057
20
0.956992
11
2.00057
21
1.08101
0
LINE
8
BLACK
6
CONTINUOUS
10
2.00057
20
1.08101
11
1.82143
21
1.08101
0
LINE
8
BLACK
6
CONTINUOUS
10
1.12402
20
1.12824
11
1.12471
21
1.12796
0
LINE
8
BLACK
6
CONTINUOUS
10
1.12471
20
1.12796
11
1.125
21
1.12726
0
LINE
8
BLACK
6
CONTINUOUS
10
1.125
20
1.12726
11
1.125
21
0.981591
0
LINE
8
BLACK
6
CONTINUOUS
10
1.125
20
0.981591
11
1.12471
21
0.980895
0
LINE
8
BLACK
6
CONTINUOUS
10
1.12471
20
0.980895
11
1.12402
21
0.980606
0
LINE
8
BLACK
6
CONTINUOUS
10
1.12402
20
0.980606
11
0.875984
21
0.980606
0
LINE
8
BLACK
6
CONTINUOUS
10
0.875984
20
0.980606
11
0.875288
21
0.980895
0
LINE
8
BLACK
6
CONTINUOUS
10
0.875288
20
0.980895
11
0.875
21
0.981591
0
LINE
8
BLACK
6
CONTINUOUS
10
0.875
20
0.981591
11
0.875
21
1.12726
0
LINE
8
BLACK
6
CONTINUOUS
10
0.875
20
1.12726
11
0.875288
21
1.12796
0
LINE
8
BLACK
6
CONTINUOUS
10
0.875288
20
1.12796
11
0.875984
21
1.12824
0
LINE
8
BLACK
6
CONTINUOUS
10
0.875984
20
1.12824
11
1.12402
21
1.12824
0
LINE
8
BLACK
6
CONTINUOUS
10
0.876969
20
1.12628
11
0.876969
21
0.982575
0
LINE
8
BLACK
6
CONTINUOUS
10
0.876969
20
0.982575
11
1.12303
21
0.982575
0
LINE
8
BLACK
6
CONTINUOUS
10
1.12303
20
0.982575
11
1.12303
21
1.12628
0
LINE
8
BLACK
6
CONTINUOUS
10
1.12303
20
1.12628
11
0.876969
21
1.12628
0
LINE
8
BLACK
6
CONTINUOUS
10
1.27114
20
1.11339
11
1.27184
21
1.1131
0
LINE
8
BLACK
6
CONTINUOUS
10
1.27184
20
1.1131
11
1.27213
21
1.1124
0
LINE
8
BLACK
6
CONTINUOUS
10
1.27213
20
1.1124
11
1.27213
21
1.0376
0
LINE
8
BLACK
6
CONTINUOUS
10
1.27213
20
1.0376
11
1.27184
21
1.0369
0
LINE
8
BLACK
6
CONTINUOUS
10
1.27184
20
1.0369
11
1.27114
21
1.03661
0
LINE
8
BLACK
6
CONTINUOUS
10
1.27114
20
1.03661
11
1.13886
21
1.03661
0
LINE
8
BLACK
6
CONTINUOUS
10
1.13886
20
1.03661
11
1.13816
21
1.0369
0
LINE
8
BLACK
6
CONTINUOUS
10
1.13816
20
1.0369
11
1.13787
21
1.0376
0
LINE
8
BLACK
6
CONTINUOUS
10
1.13787
20
1.0376
11
1.13787
21
1.1124
0
LINE
8
BLACK
6
CONTINUOUS
10
1.13787
20
1.1124
11
1.13816
21
1.1131
0
LINE
8
BLACK
6
CONTINUOUS
10
1.13816
20
1.1131
11
1.13886
21
1.11339
0
LINE
8
BLACK
6
CONTINUOUS
10
1.13886
20
1.11339
11
1.27114
21
1.11339
0
LINE
8
BLACK
6
CONTINUOUS
10
1.13984
20
1.11142
11
1.13984
21
1.03858
0
LINE
8
BLACK
6
CONTINUOUS
10
1.13984
20
1.03858
11
1.27016
21
1.03858
0
LINE
8
BLACK
6
CONTINUOUS
10
1.27016
20
1.03858
11
1.27016
21
1.11142
0
LINE
8
BLACK
6
CONTINUOUS
10
1.27016
20
1.11142
11
1.13984
21
1.11142
0
LINE
8
BLACK
6
CONTINUOUS
10
1.35458
20
1.19434
11
1.35528
21
1.19405
0
LINE
8
BLACK
6
CONTINUOUS
10
1.35528
20
1.19405
11
1.35557
21
1.19335
0
LINE
8
BLACK
6
CONTINUOUS
10
1.35557
20
1.19335
11
1.35557
21
1.0595
0
LINE
8
BLACK
6
CONTINUOUS
10
1.35557
20
1.0595
11
1.35528
21
1.0588
0
LINE
8
BLACK
6
CONTINUOUS
10
1.35528
20
1.0588
11
1.35458
21
1.05851
0
LINE
8
BLACK
6
CONTINUOUS
10
1.35458
20
1.05851
11
1.27742
21
1.05851
0
LINE
8
BLACK
6
CONTINUOUS
10
1.27742
20
1.05851
11
1.27672
21
1.0588
0
LINE
8
BLACK
6
CONTINUOUS
10
1.27672
20
1.0588
11
1.27643
21
1.0595
0
LINE
8
BLACK
6
CONTINUOUS
10
1.27643
20
1.0595
11
1.27643
21
1.19335
0
LINE
8
BLACK
6
CONTINUOUS
10
1.27643
20
1.19335
11
1.27672
21
1.19405
0
LINE
8
BLACK
6
CONTINUOUS
10
1.27672
20
1.19405
11
1.27742
21
1.19434
0
LINE
8
BLACK
6
CONTINUOUS
10
1.27742
20
1.19434
11
1.35458
21
1.19434
0
LINE
8
BLACK
6
CONTINUOUS
10
1.2784
20
1.19237
11
1.2784
21
1.06048
0
LINE
8
BLACK
6
CONTINUOUS
10
1.2784
20
1.06048
11
1.3536
21
1.06048
0
LINE
8
BLACK
6
CONTINUOUS
10
1.3536
20
1.06048
11
1.3536
21
1.19237
0
LINE
8
BLACK
6
CONTINUOUS
10
1.3536
20
1.19237
11
1.2784
21
1.19237
0
LINE
8
BLACK
6
CONTINUOUS
10
1.4374
20
1.19555
11
1.4381
21
1.19526
0
LINE
8
BLACK
6
CONTINUOUS
10
1.4381
20
1.19526
11
1.43839
21
1.19457
0
LINE
8
BLACK
6
CONTINUOUS
10
1.43839
20
1.19457
11
1.43839
21
1.06228
0
LINE
8
BLACK
6
CONTINUOUS
10
1.43839
20
1.06228
11
1.4381
21
1.06159
0
LINE
8
BLACK
6
CONTINUOUS
10
1.4381
20
1.06159
11
1.4374
21
1.0613
0
LINE
8
BLACK
6
CONTINUOUS
10
1.4374
20
1.0613
11
1.3626
21
1.0613
0
LINE
8
BLACK
6
CONTINUOUS
10
1.3626
20
1.0613
11
1.3619
21
1.06159
0
LINE
8
BLACK
6
CONTINUOUS
10
1.3619
20
1.06159
11
1.36161
21
1.06228
0
LINE
8
BLACK
6
CONTINUOUS
10
1.36161
20
1.06228
11
1.36161
21
1.19457
0
LINE
8
BLACK
6
CONTINUOUS
10
1.36161
20
1.19457
11
1.3619
21
1.19526
0
LINE
8
BLACK
6
CONTINUOUS
10
1.3619
20
1.19526
11
1.3626
21
1.19555
0
LINE
8
BLACK
6
CONTINUOUS
10
1.3626
20
1.19555
11
1.4374
21
1.19555
0
LINE
8
BLACK
6
CONTINUOUS
10
1.36358
20
1.19358
11
1.36358
21
1.06327
0
LINE
8
BLACK
6
CONTINUOUS
10
1.36358
20
1.06327
11
1.43642
21
1.06327
0
LINE
8
BLACK
6
CONTINUOUS
10
1.43642
20
1.06327
11
1.43642
21
1.19358
0
LINE
8
BLACK
6
CONTINUOUS
10
1.43642
20
1.19358
11
1.36358
21
1.19358
0
LINE
8
BLACK
6
CONTINUOUS
10
1.68258
20
1.19834
11
1.68328
21
1.19805
0
LINE
8
BLACK
6
CONTINUOUS
10
1.68328
20
1.19805
11
1.68357
21
1.19735
0
LINE
8
BLACK
6
CONTINUOUS
10
1.68357
20
1.19735
11
1.68357
21
1.0635
0
LINE
8
BLACK
6
CONTINUOUS
10
1.68357
20
1.0635
11
1.68328
21
1.0628
0
LINE
8
BLACK
6
CONTINUOUS
10
1.68328
20
1.0628
11
1.68258
21
1.06251
0
LINE
8
BLACK
6
CONTINUOUS
10
1.68258
20
1.06251
11
1.60542
21
1.06251
0
LINE
8
BLACK
6
CONTINUOUS
10
1.60542
20
1.06251
11
1.60472
21
1.0628
0
LINE
8
BLACK
6
CONTINUOUS
10
1.60472
20
1.0628
11
1.60443
21
1.0635
0
LINE
8
BLACK
6
CONTINUOUS
10
1.60443
20
1.0635
11
1.60443
21
1.19735
0
LINE
8
BLACK
6
CONTINUOUS
10
1.60443
20
1.19735
11
1.60472
21
1.19805
0
LINE
8
BLACK
6
CONTINUOUS
10
1.60472
20
1.19805
11
1.60542
21
1.19834
0
LINE
8
BLACK
6
CONTINUOUS
10
1.60542
20
1.19834
11
1.68258
21
1.19834
0
LINE
8
BLACK
6
CONTINUOUS
10
1.6064
20
1.19637
11
1.6064
21
1.06448
0
LINE
8
BLACK
6
CONTINUOUS
10
1.6064
20
1.06448
11
1.6816
21
1.06448
0
LINE
8
BLACK
6
CONTINUOUS
10
1.6816
20
1.06448
11
1.6816
21
1.19637
0
LINE
8
BLACK
6
CONTINUOUS
10
1.6816
20
1.19637
11
1.6064
21
1.19637
0
LINE
8
BLACK
6
CONTINUOUS
10
1.59593
20
1.16499
11
1.59663
21
1.1647
0
LINE
8
BLACK
6
CONTINUOUS
10
1.59663
20
1.1647
11
1.59691
21
1.16401
0
LINE
8
BLACK
6
CONTINUOUS
10
1.59691
20
1.16401
11
1.59691
21
1.08684
0
LINE
8
BLACK
6
CONTINUOUS
10
1.59691
20
1.08684
11
1.59663
21
1.08615
0
LINE
8
BLACK
6
CONTINUOUS
10
1.59663
20
1.08615
11
1.59593
21
1.08586
0
LINE
8
BLACK
6
CONTINUOUS
10
1.59593
20
1.08586
11
1.46207
21
1.08586
0
LINE
8
BLACK
6
CONTINUOUS
10
1.46207
20
1.08586
11
1.46137
21
1.08615
0
LINE
8
BLACK
6
CONTINUOUS
10
1.46137
20
1.08615
11
1.46109
21
1.08684
0
LINE
8
BLACK
6
CONTINUOUS
10
1.46109
20
1.08684
11
1.46109
21
1.16401
0
LINE
8
BLACK
6
CONTINUOUS
10
1.46109
20
1.16401
11
1.46137
21
1.1647
0
LINE
8
BLACK
6
CONTINUOUS
10
1.46137
20
1.1647
11
1.46207
21
1.16499
0
LINE
8
BLACK
6
CONTINUOUS
10
1.46207
20
1.16499
11
1.59593
21
1.16499
0
LINE
8
BLACK
6
CONTINUOUS
10
1.46306
20
1.16302
11
1.46306
21
1.08783
0
LINE
8
BLACK
6
CONTINUOUS
10
1.46306
20
1.08783
11
1.59494
21
1.08783
0
LINE
8
BLACK
6
CONTINUOUS
10
1.59494
20
1.08783
11
1.59494
21
1.16302
0
LINE
8
BLACK
6
CONTINUOUS
10
1.59494
20
1.16302
11
1.46306
21
1.16302
0
LINE
8
BLACK
6
CONTINUOUS
10
2.28152
20
1.17027
11
2.28222
21
1.16998
0
LINE
8
BLACK
6
CONTINUOUS
10
2.28222
20
1.16998
11
2.2825
21
1.16928
0
LINE
8
BLACK
6
CONTINUOUS
10
2.2825
20
1.16928
11
2.2825
21
1.09212
0
LINE
8
BLACK
6
CONTINUOUS
10
2.2825
20
1.09212
11
2.28222
21
1.09142
0
LINE
8
BLACK
6
CONTINUOUS
10
2.28222
20
1.09142
11
2.28152
21
1.09113
0
LINE
8
BLACK
6
CONTINUOUS
10
2.28152
20
1.09113
11
2.14766
21
1.09113
0
LINE
8
BLACK
6
CONTINUOUS
10
2.14766
20
1.09113
11
2.14697
21
1.09142
0
LINE
8
BLACK
6
CONTINUOUS
10
2.14697
20
1.09142
11
2.14668
21
1.09212
0
LINE
8
BLACK
6
CONTINUOUS
10
2.14668
20
1.09212
11
2.14668
21
1.16928
0
LINE
8
BLACK
6
CONTINUOUS
10
2.14668
20
1.16928
11
2.14697
21
1.16998
0
LINE
8
BLACK
6
CONTINUOUS
10
2.14697
20
1.16998
11
2.14766
21
1.17027
0
LINE
8
BLACK
6
CONTINUOUS
10
2.14766
20
1.17027
11
2.28152
21
1.17027
0
LINE
8
BLACK
6
CONTINUOUS
10
2.14865
20
1.1683
11
2.14865
21
1.0931
0
LINE
8
BLACK
6
CONTINUOUS
10
2.14865
20
1.0931
11
2.28054
21
1.0931
0
LINE
8
BLACK
6
CONTINUOUS
10
2.28054
20
1.0931
11
2.28054
21
1.1683
0
LINE
8
BLACK
6
CONTINUOUS
10
2.28054
20
1.1683
11
2.14865
21
1.1683
0
LINE
8
BLACK
6
CONTINUOUS
10
2.14152
20
1.17127
11
2.14222
21
1.17098
0
LINE
8
BLACK
6
CONTINUOUS
10
2.14222
20
1.17098
11
2.1425
21
1.17028
0
LINE
8
BLACK
6
CONTINUOUS
10
2.1425
20
1.17028
11
2.1425
21
1.09312
0
LINE
8
BLACK
6
CONTINUOUS
10
2.1425
20
1.09312
11
2.14222
21
1.09242
0
LINE
8
BLACK
6
CONTINUOUS
10
2.14222
20
1.09242
11
2.14152
21
1.09213
0
LINE
8
BLACK
6
CONTINUOUS
10
2.14152
20
1.09213
11
2.00766
21
1.09213
0
LINE
8
BLACK
6
CONTINUOUS
10
2.00766
20
1.09213
11
2.00697
21
1.09242
0
LINE
8
BLACK
6
CONTINUOUS
10
2.00697
20
1.09242
11
2.00668
21
1.09312
0
LINE
8
BLACK
6
CONTINUOUS
10
2.00668
20
1.09312
11
2.00668
21
1.17028
0
LINE
8
BLACK
6
CONTINUOUS
10
2.00668
20
1.17028
11
2.00697
21
1.17098
0
LINE
8
BLACK
6
CONTINUOUS
10
2.00697
20
1.17098
11
2.00766
21
1.17127
0
LINE
8
BLACK
6
CONTINUOUS
10
2.00766
20
1.17127
11
2.14152
21
1.17127
0
LINE
8
BLACK
6
CONTINUOUS
10
2.00865
20
1.1693
11
2.00865
21
1.0941
0
LINE
8
BLACK
6
CONTINUOUS
10
2.00865
20
1.0941
11
2.14054
21
1.0941
0
LINE
8
BLACK
6
CONTINUOUS
10
2.14054
20
1.0941
11
2.14054
21
1.1693
0
LINE
8
BLACK
6
CONTINUOUS
10
2.14054
20
1.1693
11
2.00865
21
1.1693
0
LINE
8
BLACK
6
CONTINUOUS
10
1.97093
20
1.19557
11
1.97163
21
1.19528
0
LINE
8
BLACK
6
CONTINUOUS
10
1.97163
20
1.19528
11
1.97191
21
1.19458
0
LINE
8
BLACK
6
CONTINUOUS
10
1.97191
20
1.19458
11
1.97191
21
1.11742
0
LINE
8
BLACK
6
CONTINUOUS
10
1.97191
20
1.11742
11
1.97163
21
1.11672
0
LINE
8
BLACK
6
CONTINUOUS
10
1.97163
20
1.11672
11
1.97093
21
1.11643
0
LINE
8
BLACK
6
CONTINUOUS
10
1.97093
20
1.11643
11
1.83707
21
1.11643
0
LINE
8
BLACK
6
CONTINUOUS
10
1.83707
20
1.11643
11
1.83637
21
1.11672
0
LINE
8
BLACK
6
CONTINUOUS
10
1.83637
20
1.11672
11
1.83609
21
1.11742
0
LINE
8
BLACK
6
CONTINUOUS
10
1.83609
20
1.11742
11
1.83609
21
1.19458
0
LINE
8
BLACK
6
CONTINUOUS
10
1.83609
20
1.19458
11
1.83637
21
1.19528
0
LINE
8
BLACK
6
CONTINUOUS
10
1.83637
20
1.19528
11
1.83707
21
1.19557
0
LINE
8
BLACK
6
CONTINUOUS
10
1.83707
20
1.19557
11
1.97093
21
1.19557
0
LINE
8
BLACK
6
CONTINUOUS
10
1.83806
20
1.1936
11
1.83806
21
1.1184
0
LINE
8
BLACK
6
CONTINUOUS
10
1.83806
20
1.1184
11
1.96994
21
1.1184
0
LINE
8
BLACK
6
CONTINUOUS
10
1.96994
20
1.1184
11
1.96994
21
1.1936
0
LINE
8
BLACK
6
CONTINUOUS
10
1.96994
20
1.1936
11
1.83806
21
1.1936
0
LINE
8
BLACK
6
CONTINUOUS
10
1.82514
20
1.19939
11
1.82584
21
1.1991
0
LINE
8
BLACK
6
CONTINUOUS
10
1.82584
20
1.1991
11
1.82613
21
1.1984
0
LINE
8
BLACK
6
CONTINUOUS
10
1.82613
20
1.1984
11
1.82613
21
1.1236
0
LINE
8
BLACK
6
CONTINUOUS
10
1.82613
20
1.1236
11
1.82584
21
1.1229
0
LINE
8
BLACK
6
CONTINUOUS
10
1.82584
20
1.1229
11
1.82514
21
1.12261
0
LINE
8
BLACK
6
CONTINUOUS
10
1.82514
20
1.12261
11
1.69286
21
1.12261
0
LINE
8
BLACK
6
CONTINUOUS
10
1.69286
20
1.12261
11
1.69216
21
1.1229
0
LINE
8
BLACK
6
CONTINUOUS
10
1.69216
20
1.1229
11
1.69187
21
1.1236
0
LINE
8
BLACK
6
CONTINUOUS
10
1.69187
20
1.1236
11
1.69187
21
1.1984
0
LINE
8
BLACK
6
CONTINUOUS
10
1.69187
20
1.1984
11
1.69216
21
1.1991
0
LINE
8
BLACK
6
CONTINUOUS
10
1.69216
20
1.1991
11
1.69286
21
1.19939
0
LINE
8
BLACK
6
CONTINUOUS
10
1.69286
20
1.19939
11
1.82514
21
1.19939
0
LINE
8
BLACK
6
CONTINUOUS
10
1.69384
20
1.19742
11
1.69384
21
1.12458
0
LINE
8
BLACK
6
CONTINUOUS
10
1.69384
20
1.12458
11
1.82416
21
1.12458
0
LINE
8
BLACK
6
CONTINUOUS
10
1.82416
20
1.12458
11
1.82416
21
1.19742
0
LINE
8
BLACK
6
CONTINUOUS
10
1.82416
20
1.19742
11
1.69384
21
1.19742
0
LINE
8
BLACK
6
CONTINUOUS
10
1.01893
20
1.22499
11
1.01963
21
1.2247
0
LINE
8
BLACK
6
CONTINUOUS
10
1.01963
20
1.2247
11
1.01991
21
1.22401
0
LINE
8
BLACK
6
CONTINUOUS
10
1.01991
20
1.22401
11
1.01991
21
1.14684
0
LINE
8
BLACK
6
CONTINUOUS
10
1.01991
20
1.14684
11
1.01963
21
1.14615
0
LINE
8
BLACK
6
CONTINUOUS
10
1.01963
20
1.14615
11
1.01893
21
1.14586
0
LINE
8
BLACK
6
CONTINUOUS
10
1.01893
20
1.14586
11
0.885071
21
1.14586
0
LINE
8
BLACK
6
CONTINUOUS
10
0.885071
20
1.14586
11
0.884375
21
1.14615
0
LINE
8
BLACK
6
CONTINUOUS
10
0.884375
20
1.14615
11
0.884087
21
1.14684
0
LINE
8
BLACK
6
CONTINUOUS
10
0.884087
20
1.14684
11
0.884087
21
1.22401
0
LINE
8
BLACK
6
CONTINUOUS
10
0.884087
20
1.22401
11
0.884375
21
1.2247
0
LINE
8
BLACK
6
CONTINUOUS
10
0.884375
20
1.2247
11
0.885071
21
1.22499
0
LINE
8
BLACK
6
CONTINUOUS
10
0.885071
20
1.22499
11
1.01893
21
1.22499
0
LINE
8
BLACK
6
CONTINUOUS
10
0.886055
20
1.22302
11
0.886055
21
1.14783
0
LINE
8
BLACK
6
CONTINUOUS
10
0.886055
20
1.14783
11
1.01794
21
1.14783
0
LINE
8
BLACK
6
CONTINUOUS
10
1.01794
20
1.14783
11
1.01794
21
1.22302
0
LINE
8
BLACK
6
CONTINUOUS
10
1.01794
20
1.22302
11
0.886055
21
1.22302
0
LINE
8
BLACK
6
CONTINUOUS
10
2.14014
20
1.25339
11
2.14084
21
1.2531
0
LINE
8
BLACK
6
CONTINUOUS
10
2.14084
20
1.2531
11
2.14113
21
1.2524
0
LINE
8
BLACK
6
CONTINUOUS
10
2.14113
20
1.2524
11
2.14113
21
1.1776
0
LINE
8
BLACK
6
CONTINUOUS
10
2.14113
20
1.1776
11
2.14084
21
1.1769
0
LINE
8
BLACK
6
CONTINUOUS
10
2.14084
20
1.1769
11
2.14014
21
1.17661
0
LINE
8
BLACK
6
CONTINUOUS
10
2.14014
20
1.17661
11
2.00786
21
1.17661
0
LINE
8
BLACK
6
CONTINUOUS
10
2.00786
20
1.17661
11
2.00716
21
1.1769
0
LINE
8
BLACK
6
CONTINUOUS
10
2.00716
20
1.1769
11
2.00687
21
1.1776
0
LINE
8
BLACK
6
CONTINUOUS
10
2.00687
20
1.1776
11
2.00687
21
1.2524
0
LINE
8
BLACK
6
CONTINUOUS
10
2.00687
20
1.2524
11
2.00716
21
1.2531
0
LINE
8
BLACK
6
CONTINUOUS
10
2.00716
20
1.2531
11
2.00786
21
1.25339
0
LINE
8
BLACK
6
CONTINUOUS
10
2.00786
20
1.25339
11
2.14014
21
1.25339
0
LINE
8
BLACK
6
CONTINUOUS
10
2.00884
20
1.25142
11
2.00884
21
1.17858
0
LINE
8
BLACK
6
CONTINUOUS
10
2.00884
20
1.17858
11
2.13916
21
1.17858
0
LINE
8
BLACK
6
CONTINUOUS
10
2.13916
20
1.17858
11
2.13916
21
1.25142
0
LINE
8
BLACK
6
CONTINUOUS
10
2.13916
20
1.25142
11
2.00884
21
1.25142
0
LINE
8
BLACK
6
CONTINUOUS
10
2.39155
20
1.27032
11
2.39225
21
1.27003
0
LINE
8
BLACK
6
CONTINUOUS
10
2.39225
20
1.27003
11
2.39254
21
1.26934
0
LINE
8
BLACK
6
CONTINUOUS
10
2.39254
20
1.26934
11
2.39254
21
1.18666
0
LINE
8
BLACK
6
CONTINUOUS
10
2.39254
20
1.18666
11
2.39225
21
1.18597
0
LINE
8
BLACK
6
CONTINUOUS
10
2.39225
20
1.18597
11
2.39155
21
1.18568
0
LINE
8
BLACK
6
CONTINUOUS
10
2.39155
20
1.18568
11
2.21045
21
1.18568
0
LINE
8
BLACK
6
CONTINUOUS
10
2.21045
20
1.18568
11
2.20975
21
1.18597
0
LINE
8
BLACK
6
CONTINUOUS
10
2.20975
20
1.18597
11
2.20946
21
1.18666
0
LINE
8
BLACK
6
CONTINUOUS
10
2.20946
20
1.18666
11
2.20946
21
1.26934
0
LINE
8
BLACK
6
CONTINUOUS
10
2.20946
20
1.26934
11
2.20975
21
1.27003
0
LINE
8
BLACK
6
CONTINUOUS
10
2.20975
20
1.27003
11
2.21045
21
1.27032
0
LINE
8
BLACK
6
CONTINUOUS
10
2.21045
20
1.27032
11
2.39155
21
1.27032
0
LINE
8
BLACK
6
CONTINUOUS
10
2.21143
20
1.26835
11
2.21143
21
1.18765
0
LINE
8
BLACK
6
CONTINUOUS
10
2.21143
20
1.18765
11
2.39057
21
1.18765
0
LINE
8
BLACK
6
CONTINUOUS
10
2.39057
20
1.18765
11
2.39057
21
1.26835
0
LINE
8
BLACK
6
CONTINUOUS
10
2.39057
20
1.26835
11
2.21143
21
1.26835
0
LINE
8
BLACK
6
CONTINUOUS
10
1.96475
20
1.39626
11
1.96544
21
1.39597
0
LINE
8
BLACK
6
CONTINUOUS
10
1.96544
20
1.39597
11
1.96573
21
1.39528
0
LINE
8
BLACK
6
CONTINUOUS
10
1.96573
20
1.39528
11
1.96573
21
1.21417
0
LINE
8
BLACK
6
CONTINUOUS
10
1.96573
20
1.21417
11
1.96544
21
1.21348
0
LINE
8
BLACK
6
CONTINUOUS
10
1.96544
20
1.21348
11
1.96475
21
1.21319
0
LINE
8
BLACK
6
CONTINUOUS
10
1.96475
20
1.21319
11
1.88207
21
1.21319
0
LINE
8
BLACK
6
CONTINUOUS
10
1.88207
20
1.21319
11
1.88137
21
1.21348
0
LINE
8
BLACK
6
CONTINUOUS
10
1.88137
20
1.21348
11
1.88109
21
1.21417
0
LINE
8
BLACK
6
CONTINUOUS
10
1.88109
20
1.21417
11
1.88109
21
1.39528
0
LINE
8
BLACK
6
CONTINUOUS
10
1.88109
20
1.39528
11
1.88137
21
1.39597
0
LINE
8
BLACK
6
CONTINUOUS
10
1.88137
20
1.39597
11
1.88207
21
1.39626
0
LINE
8
BLACK
6
CONTINUOUS
10
1.88207
20
1.39626
11
1.96475
21
1.39626
0
LINE
8
BLACK
6
CONTINUOUS
10
1.88306
20
1.39429
11
1.88306
21
1.21516
0
LINE
8
BLACK
6
CONTINUOUS
10
1.88306
20
1.21516
11
1.96376
21
1.21516
0
LINE
8
BLACK
6
CONTINUOUS
10
1.96376
20
1.21516
11
1.96376
21
1.39429
0
LINE
8
BLACK
6
CONTINUOUS
10
1.96376
20
1.39429
11
1.88306
21
1.39429
0
LINE
8
BLACK
6
CONTINUOUS
10
1.87634
20
1.44924
11
1.87703
21
1.44896
0
LINE
8
BLACK
6
CONTINUOUS
10
1.87703
20
1.44896
11
1.87732
21
1.44826
0
LINE
8
BLACK
6
CONTINUOUS
10
1.87732
20
1.44826
11
1.87732
21
1.21519
0
LINE
8
BLACK
6
CONTINUOUS
10
1.87732
20
1.21519
11
1.87703
21
1.21449
0
LINE
8
BLACK
6
CONTINUOUS
10
1.87703
20
1.21449
11
1.87634
21
1.2142
0
LINE
8
BLACK
6
CONTINUOUS
10
1.87634
20
1.2142
11
1.74248
21
1.2142
0
LINE
8
BLACK
6
CONTINUOUS
10
1.74248
20
1.2142
11
1.74178
21
1.21449
0
LINE
8
BLACK
6
CONTINUOUS
10
1.74178
20
1.21449
11
1.7415
21
1.21519
0
LINE
8
BLACK
6
CONTINUOUS
10
1.7415
20
1.21519
11
1.7415
21
1.44826
0
LINE
8
BLACK
6
CONTINUOUS
10
1.7415
20
1.44826
11
1.74178
21
1.44896
0
LINE
8
BLACK
6
CONTINUOUS
10
1.74178
20
1.44896
11
1.74248
21
1.44924
0
LINE
8
BLACK
6
CONTINUOUS
10
1.74248
20
1.44924
11
1.87634
21
1.44924
0
LINE
8
BLACK
6
CONTINUOUS
10
1.74346
20
1.44728
11
1.74346
21
1.21617
0
LINE
8
BLACK
6
CONTINUOUS
10
1.74346
20
1.21617
11
1.87535
21
1.21617
0
LINE
8
BLACK
6
CONTINUOUS
10
1.87535
20
1.21617
11
1.87535
21
1.44728
0
LINE
8
BLACK
6
CONTINUOUS
10
1.87535
20
1.44728
11
1.74346
21
1.44728
0
LINE
8
BLACK
6
CONTINUOUS
10
1.44754
20
1.35119
11
1.44823
21
1.3509
0
LINE
8
BLACK
6
CONTINUOUS
10
1.44823
20
1.3509
11
1.44852
21
1.3502
0
LINE
8
BLACK
6
CONTINUOUS
10
1.44852
20
1.3502
11
1.44852
21
1.21635
0
LINE
8
BLACK
6
CONTINUOUS
10
1.44852
20
1.21635
11
1.44823
21
1.21565
0
LINE
8
BLACK
6
CONTINUOUS
10
1.44823
20
1.21565
11
1.44754
21
1.21536
0
LINE
8
BLACK
6
CONTINUOUS
10
1.44754
20
1.21536
11
1.21446
21
1.21536
0
LINE
8
BLACK
6
CONTINUOUS
10
1.21446
20
1.21536
11
1.21377
21
1.21565
0
LINE
8
BLACK
6
CONTINUOUS
10
1.21377
20
1.21565
11
1.21348
21
1.21635
0
LINE
8
BLACK
6
CONTINUOUS
10
1.21348
20
1.21635
11
1.21348
21
1.3502
0
LINE
8
BLACK
6
CONTINUOUS
10
1.21348
20
1.3502
11
1.21377
21
1.3509
0
LINE
8
BLACK
6
CONTINUOUS
10
1.21377
20
1.3509
11
1.21446
21
1.35119
0
LINE
8
BLACK
6
CONTINUOUS
10
1.21446
20
1.35119
11
1.44754
21
1.35119
0
LINE
8
BLACK
6
CONTINUOUS
10
1.21545
20
1.34922
11
1.21545
21
1.21733
0
LINE
8
BLACK
6
CONTINUOUS
10
1.21545
20
1.21733
11
1.44655
21
1.21733
0
LINE
8
BLACK
6
CONTINUOUS
10
1.44655
20
1.21733
11
1.44655
21
1.34922
0
LINE
8
BLACK
6
CONTINUOUS
10
1.44655
20
1.34922
11
1.21545
21
1.34922
0
LINE
8
BLACK
6
CONTINUOUS
10
1.57458
20
1.37134
11
1.57528
21
1.37105
0
LINE
8
BLACK
6
CONTINUOUS
10
1.57528
20
1.37105
11
1.57557
21
1.37035
0
LINE
8
BLACK
6
CONTINUOUS
10
1.57557
20
1.37035
11
1.57557
21
1.2365
0
LINE
8
BLACK
6
CONTINUOUS
10
1.57557
20
1.2365
11
1.57528
21
1.2358
0
LINE
8
BLACK
6
CONTINUOUS
10
1.57528
20
1.2358
11
1.57458
21
1.23551
0
LINE
8
BLACK
6
CONTINUOUS
10
1.57458
20
1.23551
11
1.49742
21
1.23551
0
LINE
8
BLACK
6
CONTINUOUS
10
1.49742
20
1.23551
11
1.49672
21
1.2358
0
LINE
8
BLACK
6
CONTINUOUS
10
1.49672
20
1.2358
11
1.49643
21
1.2365
0
LINE
8
BLACK
6
CONTINUOUS
10
1.49643
20
1.2365
11
1.49643
21
1.37035
0
LINE
8
BLACK
6
CONTINUOUS
10
1.49643
20
1.37035
11
1.49672
21
1.37105
0
LINE
8
BLACK
6
CONTINUOUS
10
1.49672
20
1.37105
11
1.49742
21
1.37134
0
LINE
8
BLACK
6
CONTINUOUS
10
1.49742
20
1.37134
11
1.57458
21
1.37134
0
LINE
8
BLACK
6
CONTINUOUS
10
1.4984
20
1.36937
11
1.4984
21
1.23748
0
LINE
8
BLACK
6
CONTINUOUS
10
1.4984
20
1.23748
11
1.5736
21
1.23748
0
LINE
8
BLACK
6
CONTINUOUS
10
1.5736
20
1.23748
11
1.5736
21
1.36937
0
LINE
8
BLACK
6
CONTINUOUS
10
1.5736
20
1.36937
11
1.4984
21
1.36937
0
LINE
8
BLACK
6
CONTINUOUS
10
1.6554
20
1.37055
11
1.6561
21
1.37026
0
LINE
8
BLACK
6
CONTINUOUS
10
1.6561
20
1.37026
11
1.65639
21
1.36957
0
LINE
8
BLACK
6
CONTINUOUS
10
1.65639
20
1.36957
11
1.65639
21
1.23728
0
LINE
8
BLACK
6
CONTINUOUS
10
1.65639
20
1.23728
11
1.6561
21
1.23659
0
LINE
8
BLACK
6
CONTINUOUS
10
1.6561
20
1.23659
11
1.6554
21
1.2363
0
LINE
8
BLACK
6
CONTINUOUS
10
1.6554
20
1.2363
11
1.5806
21
1.2363
0
LINE
8
BLACK
6
CONTINUOUS
10
1.5806
20
1.2363
11
1.5799
21
1.23659
0
LINE
8
BLACK
6
CONTINUOUS
10
1.5799
20
1.23659
11
1.57961
21
1.23728
0
LINE
8
BLACK
6
CONTINUOUS
10
1.57961
20
1.23728
11
1.57961
21
1.36957
0
LINE
8
BLACK
6
CONTINUOUS
10
1.57961
20
1.36957
11
1.5799
21
1.37026
0
LINE
8
BLACK
6
CONTINUOUS
10
1.5799
20
1.37026
11
1.5806
21
1.37055
0
LINE
8
BLACK
6
CONTINUOUS
10
1.5806
20
1.37055
11
1.6554
21
1.37055
0
LINE
8
BLACK
6
CONTINUOUS
10
1.58158
20
1.36858
11
1.58158
21
1.23827
0
LINE
8
BLACK
6
CONTINUOUS
10
1.58158
20
1.23827
11
1.65442
21
1.23827
0
LINE
8
BLACK
6
CONTINUOUS
10
1.65442
20
1.23827
11
1.65442
21
1.36858
0
LINE
8
BLACK
6
CONTINUOUS
10
1.65442
20
1.36858
11
1.58158
21
1.36858
0
LINE
8
BLACK
6
CONTINUOUS
10
1.7374
20
1.37055
11
1.7381
21
1.37026
0
LINE
8
BLACK
6
CONTINUOUS
10
1.7381
20
1.37026
11
1.73839
21
1.36957
0
LINE
8
BLACK
6
CONTINUOUS
10
1.73839
20
1.36957
11
1.73839
21
1.23728
0
LINE
8
BLACK
6
CONTINUOUS
10
1.73839
20
1.23728
11
1.7381
21
1.23659
0
LINE
8
BLACK
6
CONTINUOUS
10
1.7381
20
1.23659
11
1.7374
21
1.2363
0
LINE
8
BLACK
6
CONTINUOUS
10
1.7374
20
1.2363
11
1.6626
21
1.2363
0
LINE
8
BLACK
6
CONTINUOUS
10
1.6626
20
1.2363
11
1.6619
21
1.23659
0
LINE
8
BLACK
6
CONTINUOUS
10
1.6619
20
1.23659
11
1.66161
21
1.23728
0
LINE
8
BLACK
6
CONTINUOUS
10
1.66161
20
1.23728
11
1.66161
21
1.36957
0
LINE
8
BLACK
6
CONTINUOUS
10
1.66161
20
1.36957
11
1.6619
21
1.37026
0
LINE
8
BLACK
6
CONTINUOUS
10
1.6619
20
1.37026
11
1.6626
21
1.37055
0
LINE
8
BLACK
6
CONTINUOUS
10
1.6626
20
1.37055
11
1.7374
21
1.37055
0
LINE
8
BLACK
6
CONTINUOUS
10
1.66358
20
1.36858
11
1.66358
21
1.23827
0
LINE
8
BLACK
6
CONTINUOUS
10
1.66358
20
1.23827
11
1.73642
21
1.23827
0
LINE
8
BLACK
6
CONTINUOUS
10
1.73642
20
1.23827
11
1.73642
21
1.36858
0
LINE
8
BLACK
6
CONTINUOUS
10
1.73642
20
1.36858
11
1.66358
21
1.36858
0
LINE
8
BLACK
6
CONTINUOUS
10
1.06755
20
1.32275
11
1.06825
21
1.32246
0
LINE
8
BLACK
6
CONTINUOUS
10
1.06825
20
1.32246
11
1.06854
21
1.32176
0
LINE
8
BLACK
6
CONTINUOUS
10
1.06854
20
1.32176
11
1.06854
21
1.23909
0
LINE
8
BLACK
6
CONTINUOUS
10
1.06854
20
1.23909
11
1.06825
21
1.23839
0
LINE
8
BLACK
6
CONTINUOUS
10
1.06825
20
1.23839
11
1.06755
21
1.2381
0
LINE
8
BLACK
6
CONTINUOUS
10
1.06755
20
1.2381
11
0.886449
21
1.2381
0
LINE
8
BLACK
6
CONTINUOUS
10
0.886449
20
1.2381
11
0.885753
21
1.23839
0
LINE
8
BLACK
6
CONTINUOUS
10
0.885753
20
1.23839
11
0.885465
21
1.23909
0
LINE
8
BLACK
6
CONTINUOUS
10
0.885465
20
1.23909
11
0.885465
21
1.32176
0
LINE
8
BLACK
6
CONTINUOUS
10
0.885465
20
1.32176
11
0.885753
21
1.32246
0
LINE
8
BLACK
6
CONTINUOUS
10
0.885753
20
1.32246
11
0.886449
21
1.32275
0
LINE
8
BLACK
6
CONTINUOUS
10
0.886449
20
1.32275
11
1.06755
21
1.32275
0
LINE
8
BLACK
6
CONTINUOUS
10
0.887433
20
1.32078
11
0.887433
21
1.24007
0
LINE
8
BLACK
6
CONTINUOUS
10
0.887433
20
1.24007
11
1.06657
21
1.24007
0
LINE
8
BLACK
6
CONTINUOUS
10
1.06657
20
1.24007
11
1.06657
21
1.32078
0
LINE
8
BLACK
6
CONTINUOUS
10
1.06657
20
1.32078
11
0.887433
21
1.32078
0
LINE
8
BLACK
6
CONTINUOUS
10
2.3064
20
1.41313
11
2.3071
21
1.41284
0
LINE
8
BLACK
6
CONTINUOUS
10
2.3071
20
1.41284
11
2.30739
21
1.41214
0
LINE
8
BLACK
6
CONTINUOUS
10
2.30739
20
1.41214
11
2.30739
21
1.27986
0
LINE
8
BLACK
6
CONTINUOUS
10
2.30739
20
1.27986
11
2.3071
21
1.27916
0
LINE
8
BLACK
6
CONTINUOUS
10
2.3071
20
1.27916
11
2.3064
21
1.27887
0
LINE
8
BLACK
6
CONTINUOUS
10
2.3064
20
1.27887
11
2.2316
21
1.27887
0
LINE
8
BLACK
6
CONTINUOUS
10
2.2316
20
1.27887
11
2.2309
21
1.27916
0
LINE
8
BLACK
6
CONTINUOUS
10
2.2309
20
1.27916
11
2.23061
21
1.27986
0
LINE
8
BLACK
6
CONTINUOUS
10
2.23061
20
1.27986
11
2.23061
21
1.41214
0
LINE
8
BLACK
6
CONTINUOUS
10
2.23061
20
1.41214
11
2.2309
21
1.41284
0
LINE
8
BLACK
6
CONTINUOUS
10
2.2309
20
1.41284
11
2.2316
21
1.41313
0
LINE
8
BLACK
6
CONTINUOUS
10
2.2316
20
1.41313
11
2.3064
21
1.41313
0
LINE
8
BLACK
6
CONTINUOUS
10
2.23258
20
1.41116
11
2.23258
21
1.28084
0
LINE
8
BLACK
6
CONTINUOUS
10
2.23258
20
1.28084
11
2.30542
21
1.28084
0
LINE
8
BLACK
6
CONTINUOUS
10
2.30542
20
1.28084
11
2.30542
21
1.41116
0
LINE
8
BLACK
6
CONTINUOUS
10
2.30542
20
1.41116
11
2.23258
21
1.41116
0
LINE
8
BLACK
6
CONTINUOUS
10
1.35993
20
1.43684
11
1.36063
21
1.43655
0
LINE
8
BLACK
6
CONTINUOUS
10
1.36063
20
1.43655
11
1.36091
21
1.43586
0
LINE
8
BLACK
6
CONTINUOUS
10
1.36091
20
1.43586
11
1.36091
21
1.35869
0
LINE
8
BLACK
6
CONTINUOUS
10
1.36091
20
1.35869
11
1.36063
21
1.358
0
LINE
8
BLACK
6
CONTINUOUS
10
1.36063
20
1.358
11
1.35993
21
1.35771
0
LINE
8
BLACK
6
CONTINUOUS
10
1.35993
20
1.35771
11
1.22607
21
1.35771
0
LINE
8
BLACK
6
CONTINUOUS
10
1.22607
20
1.35771
11
1.22537
21
1.358
0
LINE
8
BLACK
6
CONTINUOUS
10
1.22537
20
1.358
11
1.22509
21
1.35869
0
LINE
8
BLACK
6
CONTINUOUS
10
1.22509
20
1.35869
11
1.22509
21
1.43586
0
LINE
8
BLACK
6
CONTINUOUS
10
1.22509
20
1.43586
11
1.22537
21
1.43655
0
LINE
8
BLACK
6
CONTINUOUS
10
1.22537
20
1.43655
11
1.22607
21
1.43684
0
LINE
8
BLACK
6
CONTINUOUS
10
1.22607
20
1.43684
11
1.35993
21
1.43684
0
LINE
8
BLACK
6
CONTINUOUS
10
1.22706
20
1.43487
11
1.22706
21
1.35968
0
LINE
8
BLACK
6
CONTINUOUS
10
1.22706
20
1.35968
11
1.35894
21
1.35968
0
LINE
8
BLACK
6
CONTINUOUS
10
1.35894
20
1.35968
11
1.35894
21
1.43487
0
LINE
8
BLACK
6
CONTINUOUS
10
1.35894
20
1.43487
11
1.22706
21
1.43487
0
LINE
8
BLACK
6
CONTINUOUS
10
2.11999
20
1.50564
11
2.12069
21
1.50535
0
LINE
8
BLACK
6
CONTINUOUS
10
2.12069
20
1.50535
11
2.12098
21
1.50465
0
LINE
8
BLACK
6
CONTINUOUS
10
2.12098
20
1.50465
11
2.12098
21
1.3708
0
LINE
8
BLACK
6
CONTINUOUS
10
2.12098
20
1.3708
11
2.12069
21
1.3701
0
LINE
8
BLACK
6
CONTINUOUS
10
2.12069
20
1.3701
11
2.11999
21
1.36981
0
LINE
8
BLACK
6
CONTINUOUS
10
2.11999
20
1.36981
11
2.04283
21
1.36981
0
LINE
8
BLACK
6
CONTINUOUS
10
2.04283
20
1.36981
11
2.04213
21
1.3701
0
LINE
8
BLACK
6
CONTINUOUS
10
2.04213
20
1.3701
11
2.04184
21
1.3708
0
LINE
8
BLACK
6
CONTINUOUS
10
2.04184
20
1.3708
11
2.04184
21
1.50465
0
LINE
8
BLACK
6
CONTINUOUS
10
2.04184
20
1.50465
11
2.04213
21
1.50535
0
LINE
8
BLACK
6
CONTINUOUS
10
2.04213
20
1.50535
11
2.04283
21
1.50564
0
LINE
8
BLACK
6
CONTINUOUS
10
2.04283
20
1.50564
11
2.11999
21
1.50564
0
LINE
8
BLACK
6
CONTINUOUS
10
2.04381
20
1.50367
11
2.04381
21
1.37178
0
LINE
8
BLACK
6
CONTINUOUS
10
2.04381
20
1.37178
11
2.11901
21
1.37178
0
LINE
8
BLACK
6
CONTINUOUS
10
2.11901
20
1.37178
11
2.11901
21
1.50367
0
LINE
8
BLACK
6
CONTINUOUS
10
2.11901
20
1.50367
11
2.04381
21
1.50367
0
LINE
8
BLACK
6
CONTINUOUS
10
1.2134
20
1.5104
11
1.2141
21
1.51011
0
LINE
8
BLACK
6
CONTINUOUS
10
1.2141
20
1.51011
11
1.21439
21
1.50942
0
LINE
8
BLACK
6
CONTINUOUS
10
1.21439
20
1.50942
11
1.21439
21
1.37713
0
LINE
8
BLACK
6
CONTINUOUS
10
1.21439
20
1.37713
11
1.2141
21
1.37644
0
LINE
8
BLACK
6
CONTINUOUS
10
1.2141
20
1.37644
11
1.2134
21
1.37615
0
LINE
8
BLACK
6
CONTINUOUS
10
1.2134
20
1.37615
11
1.1386
21
1.37615
0
LINE
8
BLACK
6
CONTINUOUS
10
1.1386
20
1.37615
11
1.1379
21
1.37644
0
LINE
8
BLACK
6
CONTINUOUS
10
1.1379
20
1.37644
11
1.13761
21
1.37713
0
LINE
8
BLACK
6
CONTINUOUS
10
1.13761
20
1.37713
11
1.13761
21
1.50942
0
LINE
8
BLACK
6
CONTINUOUS
10
1.13761
20
1.50942
11
1.1379
21
1.51011
0
LINE
8
BLACK
6
CONTINUOUS
10
1.1379
20
1.51011
11
1.1386
21
1.5104
0
LINE
8
BLACK
6
CONTINUOUS
10
1.1386
20
1.5104
11
1.2134
21
1.5104
0
LINE
8
BLACK
6
CONTINUOUS
10
1.13958
20
1.50843
11
1.13958
21
1.37812
0
LINE
8
BLACK
6
CONTINUOUS
10
1.13958
20
1.37812
11
1.21242
21
1.37812
0
LINE
8
BLACK
6
CONTINUOUS
10
1.21242
20
1.37812
11
1.21242
21
1.50843
0
LINE
8
BLACK
6
CONTINUOUS
10
1.21242
20
1.50843
11
1.13958
21
1.50843
0
LINE
8
BLACK
6
CONTINUOUS
10
1.95681
20
1.53485
11
1.95751
21
1.53456
0
LINE
8
BLACK
6
CONTINUOUS
10
1.95751
20
1.53456
11
1.9578
21
1.53387
0
LINE
8
BLACK
6
CONTINUOUS
10
1.9578
20
1.53387
11
1.9578
21
1.40158
0
LINE
8
BLACK
6
CONTINUOUS
10
1.9578
20
1.40158
11
1.95751
21
1.40089
0
LINE
8
BLACK
6
CONTINUOUS
10
1.95751
20
1.40089
11
1.95681
21
1.4006
0
LINE
8
BLACK
6
CONTINUOUS
10
1.95681
20
1.4006
11
1.88201
21
1.4006
0
LINE
8
BLACK
6
CONTINUOUS
10
1.88201
20
1.4006
11
1.88131
21
1.40089
0
LINE
8
BLACK
6
CONTINUOUS
10
1.88131
20
1.40089
11
1.88102
21
1.40158
0
LINE
8
BLACK
6
CONTINUOUS
10
1.88102
20
1.40158
11
1.88102
21
1.53387
0
LINE
8
BLACK
6
CONTINUOUS
10
1.88102
20
1.53387
11
1.88131
21
1.53456
0
LINE
8
BLACK
6
CONTINUOUS
10
1.88131
20
1.53456
11
1.88201
21
1.53485
0
LINE
8
BLACK
6
CONTINUOUS
10
1.88201
20
1.53485
11
1.95681
21
1.53485
0
LINE
8
BLACK
6
CONTINUOUS
10
1.88299
20
1.53288
11
1.88299
21
1.40257
0
LINE
8
BLACK
6
CONTINUOUS
10
1.88299
20
1.40257
11
1.95583
21
1.40257
0
LINE
8
BLACK
6
CONTINUOUS
10
1.95583
20
1.40257
11
1.95583
21
1.53288
0
LINE
8
BLACK
6
CONTINUOUS
10
1.95583
20
1.53288
11
1.88299
21
1.53288
0
LINE
8
BLACK
6
CONTINUOUS
10
0.92474
20
1.54637
11
0.925436
21
1.54608
0
LINE
8
BLACK
6
CONTINUOUS
10
0.925436
20
1.54608
11
0.925724
21
1.54539
0
LINE
8
BLACK
6
CONTINUOUS
10
0.925724
20
1.54539
11
0.925724
21
1.41546
0
LINE
8
BLACK
6
CONTINUOUS
10
0.925724
20
1.41546
11
0.925436
21
1.41477
0
LINE
8
BLACK
6
CONTINUOUS
10
0.925436
20
1.41477
11
0.92474
21
1.41448
0
LINE
8
BLACK
6
CONTINUOUS
10
0.92474
20
1.41448
11
0.86726
21
1.41448
0
LINE
8
BLACK
6
CONTINUOUS
10
0.86726
20
1.41448
11
0.866564
21
1.41477
0
LINE
8
BLACK
6
CONTINUOUS
10
0.866564
20
1.41477
11
0.866276
21
1.41546
0
LINE
8
BLACK
6
CONTINUOUS
10
0.866276
20
1.41546
11
0.866276
21
1.54539
0
LINE
8
BLACK
6
CONTINUOUS
10
0.866276
20
1.54539
11
0.866564
21
1.54608
0
LINE
8
BLACK
6
CONTINUOUS
10
0.866564
20
1.54608
11
0.86726
21
1.54637
0
LINE
8
BLACK
6
CONTINUOUS
10
0.86726
20
1.54637
11
0.92474
21
1.54637
0
LINE
8
BLACK
6
CONTINUOUS
10
0.868244
20
1.5444
11
0.868244
21
1.41645
0
LINE
8
BLACK
6
CONTINUOUS
10
0.868244
20
1.41645
11
0.923756
21
1.41645
0
LINE
8
BLACK
6
CONTINUOUS
10
0.923756
20
1.41645
11
0.923756
21
1.5444
0
LINE
8
BLACK
6
CONTINUOUS
10
0.923756
20
1.5444
11
0.868244
21
1.5444
0
LINE
8
BLACK
6
CONTINUOUS
10
1.02258
20
1.55134
11
1.02328
21
1.55105
0
LINE
8
BLACK
6
CONTINUOUS
10
1.02328
20
1.55105
11
1.02357
21
1.55035
0
LINE
8
BLACK
6
CONTINUOUS
10
1.02357
20
1.55035
11
1.02357
21
1.4165
0
LINE
8
BLACK
6
CONTINUOUS
10
1.02357
20
1.4165
11
1.02328
21
1.4158
0
LINE
8
BLACK
6
CONTINUOUS
10
1.02328
20
1.4158
11
1.02258
21
1.41551
0
LINE
8
BLACK
6
CONTINUOUS
10
1.02258
20
1.41551
11
0.945417
21
1.41551
0
LINE
8
BLACK
6
CONTINUOUS
10
0.945417
20
1.41551
11
0.944721
21
1.4158
0
LINE
8
BLACK
6
CONTINUOUS
10
0.944721
20
1.4158
11
0.944433
21
1.4165
0
LINE
8
BLACK
6
CONTINUOUS
10
0.944433
20
1.4165
11
0.944433
21
1.55035
0
LINE
8
BLACK
6
CONTINUOUS
10
0.944433
20
1.55035
11
0.944721
21
1.55105
0
LINE
8
BLACK
6
CONTINUOUS
10
0.944721
20
1.55105
11
0.945417
21
1.55134
0
LINE
8
BLACK
6
CONTINUOUS
10
0.945417
20
1.55134
11
1.02258
21
1.55134
0
LINE
8
BLACK
6
CONTINUOUS
10
0.946402
20
1.54937
11
0.946402
21
1.41748
0
LINE
8
BLACK
6
CONTINUOUS
10
0.946402
20
1.41748
11
1.0216
21
1.41748
0
LINE
8
BLACK
6
CONTINUOUS
10
1.0216
20
1.41748
11
1.0216
21
1.54937
0
LINE
8
BLACK
6
CONTINUOUS
10
1.0216
20
1.54937
11
0.946402
21
1.54937
0
LINE
8
BLACK
6
CONTINUOUS
10
1.40855
20
1.52775
11
1.40925
21
1.52746
0
LINE
8
BLACK
6
CONTINUOUS
10
1.40925
20
1.52746
11
1.40954
21
1.52676
0
LINE
8
BLACK
6
CONTINUOUS
10
1.40954
20
1.52676
11
1.40954
21
1.44409
0
LINE
8
BLACK
6
CONTINUOUS
10
1.40954
20
1.44409
11
1.40925
21
1.44339
0
LINE
8
BLACK
6
CONTINUOUS
10
1.40925
20
1.44339
11
1.40855
21
1.4431
0
LINE
8
BLACK
6
CONTINUOUS
10
1.40855
20
1.4431
11
1.22745
21
1.4431
0
LINE
8
BLACK
6
CONTINUOUS
10
1.22745
20
1.4431
11
1.22675
21
1.44339
0
LINE
8
BLACK
6
CONTINUOUS
10
1.22675
20
1.44339
11
1.22646
21
1.44409
0
LINE
8
BLACK
6
CONTINUOUS
10
1.22646
20
1.44409
11
1.22646
21
1.52676
0
LINE
8
BLACK
6
CONTINUOUS
10
1.22646
20
1.52676
11
1.22675
21
1.52746
0
LINE
8
BLACK
6
CONTINUOUS
10
1.22675
20
1.52746
11
1.22745
21
1.52775
0
LINE
8
BLACK
6
CONTINUOUS
10
1.22745
20
1.52775
11
1.40855
21
1.52775
0
LINE
8
BLACK
6
CONTINUOUS
10
1.22843
20
1.52578
11
1.22843
21
1.44507
0
LINE
8
BLACK
6
CONTINUOUS
10
1.22843
20
1.44507
11
1.40757
21
1.44507
0
LINE
8
BLACK
6
CONTINUOUS
10
1.40757
20
1.44507
11
1.40757
21
1.52578
0
LINE
8
BLACK
6
CONTINUOUS
10
1.40757
20
1.52578
11
1.22843
21
1.52578
0
LINE
8
BLACK
6
CONTINUOUS
10
1.87334
20
1.54329
11
1.87403
21
1.543
0
LINE
8
BLACK
6
CONTINUOUS
10
1.87403
20
1.543
11
1.87432
21
1.54231
0
LINE
8
BLACK
6
CONTINUOUS
10
1.87432
20
1.54231
11
1.87432
21
1.46514
0
LINE
8
BLACK
6
CONTINUOUS
10
1.87432
20
1.46514
11
1.87403
21
1.46445
0
LINE
8
BLACK
6
CONTINUOUS
10
1.87403
20
1.46445
11
1.87334
21
1.46416
0
LINE
8
BLACK
6
CONTINUOUS
10
1.87334
20
1.46416
11
1.73948
21
1.46416
0
LINE
8
BLACK
6
CONTINUOUS
10
1.73948
20
1.46416
11
1.73878
21
1.46445
0
LINE
8
BLACK
6
CONTINUOUS
10
1.73878
20
1.46445
11
1.7385
21
1.46514
0
LINE
8
BLACK
6
CONTINUOUS
10
1.7385
20
1.46514
11
1.7385
21
1.54231
0
LINE
8
BLACK
6
CONTINUOUS
10
1.7385
20
1.54231
11
1.73878
21
1.543
0
LINE
8
BLACK
6
CONTINUOUS
10
1.73878
20
1.543
11
1.73948
21
1.54329
0
LINE
8
BLACK
6
CONTINUOUS
10
1.73948
20
1.54329
11
1.87334
21
1.54329
0
LINE
8
BLACK
6
CONTINUOUS
10
1.74046
20
1.54132
11
1.74046
21
1.46613
0
LINE
8
BLACK
6
CONTINUOUS
10
1.74046
20
1.46613
11
1.87235
21
1.46613
0
LINE
8
BLACK
6
CONTINUOUS
10
1.87235
20
1.46613
11
1.87235
21
1.54132
0
LINE
8
BLACK
6
CONTINUOUS
10
1.87235
20
1.54132
11
1.74046
21
1.54132
0
LINE
8
BLACK
6
CONTINUOUS
10
2.43268
20
1.58234
11
2.43337
21
1.58205
0
LINE
8
BLACK
6
CONTINUOUS
10
2.43337
20
1.58205
11
2.43366
21
1.58135
0
LINE
8
BLACK
6
CONTINUOUS
10
2.43366
20
1.58135
11
2.43366
21
0.447496
0
LINE
8
BLACK
6
CONTINUOUS
10
2.43366
20
0.447496
11
2.43337
21
0.4468
0
LINE
8
BLACK
6
CONTINUOUS
10
2.43337
20
0.4468
11
2.43268
21
0.446512
0
LINE
8
BLACK
6
CONTINUOUS
10
2.43268
20
0.446512
11
0.767323
21
0.446512
0
LINE
8
BLACK
6
CONTINUOUS
10
0.767323
20
0.446512
11
0.766627
21
0.4468
0
LINE
8
BLACK
6
CONTINUOUS
10
0.766627
20
0.4468
11
0.766339
21
0.447496
0
LINE
8
BLACK
6
CONTINUOUS
10
0.766339
20
0.447496
11
0.766339
21
1.58135
0
LINE
8
BLACK
6
CONTINUOUS
10
0.766339
20
1.58135
11
0.766627
21
1.58205
0
LINE
8
BLACK
6
CONTINUOUS
10
0.766627
20
1.58205
11
0.767323
21
1.58234
0
LINE
8
BLACK
6
CONTINUOUS
10
0.767323
20
1.58234
11
2.43268
21
1.58234
0
LINE
8
BLACK
6
CONTINUOUS
10
0.768307
20
1.58037
11
0.768307
21
0.44848
0
LINE
8
BLACK
6
CONTINUOUS
10
0.768307
20
0.44848
11
2.43169
21
0.44848
0
LINE
8
BLACK
6
CONTINUOUS
10
2.43169
20
0.44848
11
2.43169
21
1.58037
0
LINE
8
BLACK
6
CONTINUOUS
10
2.43169
20
1.58037
11
0.768307
21
1.58037
0
LINE
8
BLACK
6
CONTINUOUS
10
2.49173
20
1.64139
11
2.49243
21
1.64111
0
LINE
8
BLACK
6
CONTINUOUS
10
2.49243
20
1.64111
11
2.49272
21
1.64041
0
LINE
8
BLACK
6
CONTINUOUS
10
2.49272
20
1.64041
11
2.49272
21
0.388441
0
LINE
8
BLACK
6
CONTINUOUS
10
2.49272
20
0.388441
11
2.49243
21
0.387745
0
LINE
8
BLACK
6
CONTINUOUS
10
2.49243
20
0.387745
11
2.49173
21
0.387457
0
LINE
8
BLACK
6
CONTINUOUS
10
2.49173
20
0.387457
11
0.708268
21
0.387457
0
LINE
8
BLACK
6
CONTINUOUS
10
0.708268
20
0.387457
11
0.707572
21
0.387745
0
LINE
8
BLACK
6
CONTINUOUS
10
0.707572
20
0.387745
11
0.707283
21
0.388441
0
LINE
8
BLACK
6
CONTINUOUS
10
0.707283
20
0.388441
11
0.707283
21
1.64041
0
LINE
8
BLACK
6
CONTINUOUS
10
0.707283
20
1.64041
11
0.707572
21
1.64111
0
LINE
8
BLACK
6
CONTINUOUS
10
0.707572
20
1.64111
11
0.708268
21
1.64139
0
LINE
8
BLACK
6
CONTINUOUS
10
0.708268
20
1.64139
11
2.49173
21
1.64139
0
LINE
8
BLACK
6
CONTINUOUS
10
0.709252
20
1.63943
11
0.709252
21
0.389425
0
LINE
8
BLACK
6
CONTINUOUS
10
0.709252
20
0.389425
11
2.49075
21
0.389425
0
LINE
8
BLACK
6
CONTINUOUS
10
2.49075
20
0.389425
11
2.49075
21
1.63943
0
LINE
8
BLACK
6
CONTINUOUS
10
2.49075
20
1.63943
11
0.709252
21
1.63943
0
LINE
8
BLACK
6
CONTINUOUS
10
2.94272
20
0.616434
11
2.95117
21
0.61417
0
LINE
8
BLACK
6
CONTINUOUS
10
2.95117
20
0.61417
11
2.9591
21
0.610472
0
LINE
8
BLACK
6
CONTINUOUS
10
2.9591
20
0.610472
11
2.96627
21
0.605453
0
LINE
8
BLACK
6
CONTINUOUS
10
2.96627
20
0.605453
11
2.97245
21
0.599266
0
LINE
8
BLACK
6
CONTINUOUS
10
2.97245
20
0.599266
11
2.97747
21
0.592098
0
LINE
8
BLACK
6
CONTINUOUS
10
2.97747
20
0.592098
11
2.98117
21
0.584168
0
LINE
8
BLACK
6
CONTINUOUS
10
2.98117
20
0.584168
11
2.98343
21
0.575717
0
LINE
8
BLACK
6
CONTINUOUS
10
2.98343
20
0.575717
11
2.9842
21
0.567
0
LINE
8
BLACK
6
CONTINUOUS
10
2.9842
20
0.567
11
2.98343
21
0.558283
0
LINE
8
BLACK
6
CONTINUOUS
10
2.98343
20
0.558283
11
2.98117
21
0.549832
0
LINE
8
BLACK
6
CONTINUOUS
10
2.98117
20
0.549832
11
2.97747
21
0.541902
0
LINE
8
BLACK
6
CONTINUOUS
10
2.97747
20
0.541902
11
2.97245
21
0.534734
0
LINE
8
BLACK
6
CONTINUOUS
10
2.97245
20
0.534734
11
2.96627
21
0.528547
0
LINE
8
BLACK
6
CONTINUOUS
10
2.96627
20
0.528547
11
2.9591
21
0.523528
0
LINE
8
BLACK
6
CONTINUOUS
10
2.9591
20
0.523528
11
2.95117
21
0.51983
0
LINE
8
BLACK
6
CONTINUOUS
10
2.95117
20
0.51983
11
2.94272
21
0.517566
0
LINE
8
BLACK
6
CONTINUOUS
10
2.94272
20
0.517566
11
2.934
21
0.516803
0
LINE
8
BLACK
6
CONTINUOUS
10
2.934
20
0.516803
11
2.92528
21
0.517566
0
LINE
8
BLACK
6
CONTINUOUS
10
2.92528
20
0.517566
11
2.91683
21
0.51983
0
LINE
8
BLACK
6
CONTINUOUS
10
2.91683
20
0.51983
11
2.9089
21
0.523528
0
LINE
8
BLACK
6
CONTINUOUS
10
2.9089
20
0.523528
11
2.90173
21
0.528547
0
LINE
8
BLACK
6
CONTINUOUS
10
2.90173
20
0.528547
11
2.89555
21
0.534734
0
LINE
8
BLACK
6
CONTINUOUS
10
2.89555
20
0.534734
11
2.89053
21
0.541902
0
LINE
8
BLACK
6
CONTINUOUS
10
2.89053
20
0.541902
11
2.88683
21
0.549832
0
LINE
8
BLACK
6
CONTINUOUS
10
2.88683
20
0.549832
11
2.88457
21
0.558283
0
LINE
8
BLACK
6
CONTINUOUS
10
2.88457
20
0.558283
11
2.8838
21
0.567
0
LINE
8
BLACK
6
CONTINUOUS
10
2.8838
20
0.567
11
2.88457
21
0.575717
0
LINE
8
BLACK
6
CONTINUOUS
10
2.88457
20
0.575717
11
2.88683
21
0.584168
0
LINE
8
BLACK
6
CONTINUOUS
10
2.88683
20
0.584168
11
2.89053
21
0.592098
0
LINE
8
BLACK
6
CONTINUOUS
10
2.89053
20
0.592098
11
2.89555
21
0.599266
0
LINE
8
BLACK
6
CONTINUOUS
10
2.89555
20
0.599266
11
2.90173
21
0.605453
0
LINE
8
BLACK
6
CONTINUOUS
10
2.90173
20
0.605453
11
2.9089
21
0.610472
0
LINE
8
BLACK
6
CONTINUOUS
10
2.9089
20
0.610472
11
2.91683
21
0.61417
0
LINE
8
BLACK
6
CONTINUOUS
10
2.91683
20
0.61417
11
2.92528
21
0.616434
0
LINE
8
BLACK
6
CONTINUOUS
10
2.92528
20
0.616434
11
2.934
21
0.617197
0
LINE
8
BLACK
6
CONTINUOUS
10
2.934
20
0.617197
11
2.94272
21
0.616434
0
LINE
8
BLACK
6
CONTINUOUS
10
2.88632
20
0.558593
11
2.88851
21
0.550442
0
LINE
8
BLACK
6
CONTINUOUS
10
2.88851
20
0.550442
11
2.89207
21
0.542794
0
LINE
8
BLACK
6
CONTINUOUS
10
2.89207
20
0.542794
11
2.89691
21
0.535881
0
LINE
8
BLACK
6
CONTINUOUS
10
2.89691
20
0.535881
11
2.90288
21
0.529914
0
LINE
8
BLACK
6
CONTINUOUS
10
2.90288
20
0.529914
11
2.90979
21
0.525074
0
LINE
8
BLACK
6
CONTINUOUS
10
2.90979
20
0.525074
11
2.91744
21
0.521507
0
LINE
8
BLACK
6
CONTINUOUS
10
2.91744
20
0.521507
11
2.92559
21
0.519323
0
LINE
8
BLACK
6
CONTINUOUS
10
2.92559
20
0.519323
11
2.934
21
0.518587
0
LINE
8
BLACK
6
CONTINUOUS
10
2.934
20
0.518587
11
2.94241
21
0.519323
0
LINE
8
BLACK
6
CONTINUOUS
10
2.94241
20
0.519323
11
2.95056
21
0.521507
0
LINE
8
BLACK
6
CONTINUOUS
10
2.95056
20
0.521507
11
2.95821
21
0.525074
0
LINE
8
BLACK
6
CONTINUOUS
10
2.95821
20
0.525074
11
2.96512
21
0.529914
0
LINE
8
BLACK
6
CONTINUOUS
10
2.96512
20
0.529914
11
2.97109
21
0.535881
0
LINE
8
BLACK
6
CONTINUOUS
10
2.97109
20
0.535881
11
2.97593
21
0.542794
0
LINE
8
BLACK
6
CONTINUOUS
10
2.97593
20
0.542794
11
2.97949
21
0.550442
0
LINE
8
BLACK
6
CONTINUOUS
10
2.97949
20
0.550442
11
2.98168
21
0.558593
0
LINE
8
BLACK
6
CONTINUOUS
10
2.98168
20
0.558593
11
2.98241
21
0.567
0
LINE
8
BLACK
6
CONTINUOUS
10
2.98241
20
0.567
11
2.98168
21
0.575407
0
LINE
8
BLACK
6
CONTINUOUS
10
2.98168
20
0.575407
11
2.97949
21
0.583558
0
LINE
8
BLACK
6
CONTINUOUS
10
2.97949
20
0.583558
11
2.97593
21
0.591206
0
LINE
8
BLACK
6
CONTINUOUS
10
2.97593
20
0.591206
11
2.97109
21
0.598119
0
LINE
8
BLACK
6
CONTINUOUS
10
2.97109
20
0.598119
11
2.96512
21
0.604086
0
LINE
8
BLACK
6
CONTINUOUS
10
2.96512
20
0.604086
11
2.95821
21
0.608926
0
LINE
8
BLACK
6
CONTINUOUS
10
2.95821
20
0.608926
11
2.95056
21
0.612493
0
LINE
8
BLACK
6
CONTINUOUS
10
2.95056
20
0.612493
11
2.94241
21
0.614677
0
LINE
8
BLACK
6
CONTINUOUS
10
2.94241
20
0.614677
11
2.934
21
0.615413
0
LINE
8
BLACK
6
CONTINUOUS
10
2.934
20
0.615413
11
2.92559
21
0.614677
0
LINE
8
BLACK
6
CONTINUOUS
10
2.92559
20
0.614677
11
2.91744
21
0.612493
0
LINE
8
BLACK
6
CONTINUOUS
10
2.91744
20
0.612493
11
2.90979
21
0.608926
0
LINE
8
BLACK
6
CONTINUOUS
10
2.90979
20
0.608926
11
2.90288
21
0.604086
0
LINE
8
BLACK
6
CONTINUOUS
10
2.90288
20
0.604086
11
2.89691
21
0.598119
0
LINE
8
BLACK
6
CONTINUOUS
10
2.89691
20
0.598119
11
2.89207
21
0.591206
0
LINE
8
BLACK
6
CONTINUOUS
10
2.89207
20
0.591206
11
2.88851
21
0.583558
0
LINE
8
BLACK
6
CONTINUOUS
10
2.88851
20
0.583558
11
2.88632
21
0.575407
0
LINE
8
BLACK
6
CONTINUOUS
10
2.88632
20
0.575407
11
2.88559
21
0.567
0
LINE
8
BLACK
6
CONTINUOUS
10
2.88559
20
0.567
11
2.88632
21
0.558593
0
LINE
8
BLACK
6
CONTINUOUS
10
0.611583
20
0.753512
11
0.612279
21
0.753224
0
LINE
8
BLACK
6
CONTINUOUS
10
0.612279
20
0.753224
11
0.612567
21
0.752528
0
LINE
8
BLACK
6
CONTINUOUS
10
0.612567
20
0.752528
11
0.612567
21
0.618669
0
LINE
8
BLACK
6
CONTINUOUS
10
0.612567
20
0.618669
11
0.612279
21
0.617973
0
LINE
8
BLACK
6
CONTINUOUS
10
0.612279
20
0.617973
11
0.611583
21
0.617685
0
LINE
8
BLACK
6
CONTINUOUS
10
0.611583
20
0.617685
11
0.534417
21
0.617685
0
LINE
8
BLACK
6
CONTINUOUS
10
0.534417
20
0.617685
11
0.533721
21
0.617973
0
LINE
8
BLACK
6
CONTINUOUS
10
0.533721
20
0.617973
11
0.533433
21
0.618669
0
LINE
8
BLACK
6
CONTINUOUS
10
0.533433
20
0.618669
11
0.533433
21
0.752528
0
LINE
8
BLACK
6
CONTINUOUS
10
0.533433
20
0.752528
11
0.533721
21
0.753224
0
LINE
8
BLACK
6
CONTINUOUS
10
0.533721
20
0.753224
11
0.534417
21
0.753512
0
LINE
8
BLACK
6
CONTINUOUS
10
0.534417
20
0.753512
11
0.611583
21
0.753512
0
LINE
8
BLACK
6
CONTINUOUS
10
0.535402
20
0.751543
11
0.535402
21
0.619654
0
LINE
8
BLACK
6
CONTINUOUS
10
0.535402
20
0.619654
11
0.610598
21
0.619654
0
LINE
8
BLACK
6
CONTINUOUS
10
0.610598
20
0.619654
11
0.610598
21
0.751543
0
LINE
8
BLACK
6
CONTINUOUS
10
0.610598
20
0.751543
11
0.535402
21
0.751543
0
LINE
8
BLACK
6
CONTINUOUS
10
2.74193
20
0.703126
11
2.74263
21
0.702838
0
LINE
8
BLACK
6
CONTINUOUS
10
2.74263
20
0.702838
11
2.74291
21
0.702142
0
LINE
8
BLACK
6
CONTINUOUS
10
2.74291
20
0.702142
11
2.74291
21
0.624976
0
LINE
8
BLACK
6
CONTINUOUS
10
2.74291
20
0.624976
11
2.74263
21
0.62428
0
LINE
8
BLACK
6
CONTINUOUS
10
2.74263
20
0.62428
11
2.74193
21
0.623992
0
LINE
8
BLACK
6
CONTINUOUS
10
2.74193
20
0.623992
11
2.60807
21
0.623992
0
LINE
8
BLACK
6
CONTINUOUS
10
2.60807
20
0.623992
11
2.60737
21
0.62428
0
LINE
8
BLACK
6
CONTINUOUS
10
2.60737
20
0.62428
11
2.60709
21
0.624976
0
LINE
8
BLACK
6
CONTINUOUS
10
2.60709
20
0.624976
11
2.60709
21
0.702142
0
LINE
8
BLACK
6
CONTINUOUS
10
2.60709
20
0.702142
11
2.60737
21
0.702838
0
LINE
8
BLACK
6
CONTINUOUS
10
2.60737
20
0.702838
11
2.60807
21
0.703126
0
LINE
8
BLACK
6
CONTINUOUS
10
2.60807
20
0.703126
11
2.74193
21
0.703126
0
LINE
8
BLACK
6
CONTINUOUS
10
2.60906
20
0.701157
11
2.60906
21
0.625961
0
LINE
8
BLACK
6
CONTINUOUS
10
2.60906
20
0.625961
11
2.74094
21
0.625961
0
LINE
8
BLACK
6
CONTINUOUS
10
2.74094
20
0.625961
11
2.74094
21
0.701157
0
LINE
8
BLACK
6
CONTINUOUS
10
2.74094
20
0.701157
11
2.60906
21
0.701157
0
LINE
8
BLACK
6
CONTINUOUS
10
0.480929
20
0.703165
11
0.481625
21
0.702877
0
LINE
8
BLACK
6
CONTINUOUS
10
0.481625
20
0.702877
11
0.481913
21
0.702181
0
LINE
8
BLACK
6
CONTINUOUS
10
0.481913
20
0.702181
11
0.481913
21
0.625016
0
LINE
8
BLACK
6
CONTINUOUS
10
0.481913
20
0.625016
11
0.481625
21
0.62432
0
LINE
8
BLACK
6
CONTINUOUS
10
0.481625
20
0.62432
11
0.480929
21
0.624031
0
LINE
8
BLACK
6
CONTINUOUS
10
0.480929
20
0.624031
11
0.347071
21
0.624031
0
LINE
8
BLACK
6
CONTINUOUS
10
0.347071
20
0.624031
11
0.346375
21
0.62432
0
LINE
8
BLACK
6
CONTINUOUS
10
0.346375
20
0.62432
11
0.346087
21
0.625016
0
LINE
8
BLACK
6
CONTINUOUS
10
0.346087
20
0.625016
11
0.346087
21
0.702181
0
LINE
8
BLACK
6
CONTINUOUS
10
0.346087
20
0.702181
11
0.346375
21
0.702877
0
LINE
8
BLACK
6
CONTINUOUS
10
0.346375
20
0.702877
11
0.347071
21
0.703165
0
LINE
8
BLACK
6
CONTINUOUS
10
0.347071
20
0.703165
11
0.480929
21
0.703165
0
LINE
8
BLACK
6
CONTINUOUS
10
0.348055
20
0.701197
11
0.348055
21
0.626
0
LINE
8
BLACK
6
CONTINUOUS
10
0.348055
20
0.626
11
0.479945
21
0.626
0
LINE
8
BLACK
6
CONTINUOUS
10
0.479945
20
0.626
11
0.479945
21
0.701197
0
LINE
8
BLACK
6
CONTINUOUS
10
0.479945
20
0.701197
11
0.348055
21
0.701197
0
LINE
8
BLACK
6
CONTINUOUS
10
2.73906
20
0.848472
11
2.73975
21
0.848184
0
LINE
8
BLACK
6
CONTINUOUS
10
2.73975
20
0.848184
11
2.74004
21
0.847488
0
LINE
8
BLACK
6
CONTINUOUS
10
2.74004
20
0.847488
11
2.74004
21
0.71363
0
LINE
8
BLACK
6
CONTINUOUS
10
2.74004
20
0.71363
11
2.73975
21
0.712934
0
LINE
8
BLACK
6
CONTINUOUS
10
2.73975
20
0.712934
11
2.73906
21
0.712646
0
LINE
8
BLACK
6
CONTINUOUS
10
2.73906
20
0.712646
11
2.62094
21
0.712646
0
LINE
8
BLACK
6
CONTINUOUS
10
2.62094
20
0.712646
11
2.62025
21
0.712934
0
LINE
8
BLACK
6
CONTINUOUS
10
2.62025
20
0.712934
11
2.61996
21
0.71363
0
LINE
8
BLACK
6
CONTINUOUS
10
2.61996
20
0.71363
11
2.61996
21
0.847488
0
LINE
8
BLACK
6
CONTINUOUS
10
2.61996
20
0.847488
11
2.62025
21
0.848184
0
LINE
8
BLACK
6
CONTINUOUS
10
2.62025
20
0.848184
11
2.62094
21
0.848472
0
LINE
8
BLACK
6
CONTINUOUS
10
2.62094
20
0.848472
11
2.73906
21
0.848472
0
LINE
8
BLACK
6
CONTINUOUS
10
2.62193
20
0.846504
11
2.62193
21
0.714614
0
LINE
8
BLACK
6
CONTINUOUS
10
2.62193
20
0.714614
11
2.73807
21
0.714614
0
LINE
8
BLACK
6
CONTINUOUS
10
2.73807
20
0.714614
11
2.73807
21
0.846504
0
LINE
8
BLACK
6
CONTINUOUS
10
2.73807
20
0.846504
11
2.62193
21
0.846504
0
LINE
8
BLACK
6
CONTINUOUS
10
0.524583
20
0.813795
11
0.525279
21
0.813507
0
LINE
8
BLACK
6
CONTINUOUS
10
0.525279
20
0.813507
11
0.525567
21
0.812811
0
LINE
8
BLACK
6
CONTINUOUS
10
0.525567
20
0.812811
11
0.525567
21
0.714386
0
LINE
8
BLACK
6
CONTINUOUS
10
0.525567
20
0.714386
11
0.525279
21
0.71369
0
LINE
8
BLACK
6
CONTINUOUS
10
0.525279
20
0.71369
11
0.524583
21
0.713402
0
LINE
8
BLACK
6
CONTINUOUS
10
0.524583
20
0.713402
11
0.347417
21
0.713402
0
LINE
8
BLACK
6
CONTINUOUS
10
0.347417
20
0.713402
11
0.346721
21
0.71369
0
LINE
8
BLACK
6
CONTINUOUS
10
0.346721
20
0.71369
11
0.346433
21
0.714386
0
LINE
8
BLACK
6
CONTINUOUS
10
0.346433
20
0.714386
11
0.346433
21
0.812811
0
LINE
8
BLACK
6
CONTINUOUS
10
0.346433
20
0.812811
11
0.346721
21
0.813507
0
LINE
8
BLACK
6
CONTINUOUS
10
0.346721
20
0.813507
11
0.347417
21
0.813795
0
LINE
8
BLACK
6
CONTINUOUS
10
0.347417
20
0.813795
11
0.524583
21
0.813795
0
LINE
8
BLACK
6
CONTINUOUS
10
0.348402
20
0.811827
11
0.348402
21
0.71537
0
LINE
8
BLACK
6
CONTINUOUS
10
0.348402
20
0.71537
11
0.523598
21
0.71537
0
LINE
8
BLACK
6
CONTINUOUS
10
0.523598
20
0.71537
11
0.523598
21
0.811827
0
LINE
8
BLACK
6
CONTINUOUS
10
0.523598
20
0.811827
11
0.348402
21
0.811827
0
LINE
8
BLACK
6
CONTINUOUS
10
0.604583
20
0.987512
11
0.605279
21
0.987224
0
LINE
8
BLACK
6
CONTINUOUS
10
0.605279
20
0.987224
11
0.605567
21
0.986528
0
LINE
8
BLACK
6
CONTINUOUS
10
0.605567
20
0.986528
11
0.605567
21
0.852669
0
LINE
8
BLACK
6
CONTINUOUS
10
0.605567
20
0.852669
11
0.605279
21
0.851973
0
LINE
8
BLACK
6
CONTINUOUS
10
0.605279
20
0.851973
11
0.604583
21
0.851685
0
LINE
8
BLACK
6
CONTINUOUS
10
0.604583
20
0.851685
11
0.527417
21
0.851685
0
LINE
8
BLACK
6
CONTINUOUS
10
0.527417
20
0.851685
11
0.526721
21
0.851973
0
LINE
8
BLACK
6
CONTINUOUS
10
0.526721
20
0.851973
11
0.526433
21
0.852669
0
LINE
8
BLACK
6
CONTINUOUS
10
0.526433
20
0.852669
11
0.526433
21
0.986528
0
LINE
8
BLACK
6
CONTINUOUS
10
0.526433
20
0.986528
11
0.526721
21
0.987224
0
LINE
8
BLACK
6
CONTINUOUS
10
0.526721
20
0.987224
11
0.527417
21
0.987512
0
LINE
8
BLACK
6
CONTINUOUS
10
0.527417
20
0.987512
11
0.604583
21
0.987512
0
LINE
8
BLACK
6
CONTINUOUS
10
0.528402
20
0.985543
11
0.528402
21
0.853654
0
LINE
8
BLACK
6
CONTINUOUS
10
0.528402
20
0.853654
11
0.603598
21
0.853654
0
LINE
8
BLACK
6
CONTINUOUS
10
0.603598
20
0.853654
11
0.603598
21
0.985543
0
LINE
8
BLACK
6
CONTINUOUS
10
0.603598
20
0.985543
11
0.528402
21
0.985543
0
LINE
8
BLACK
6
CONTINUOUS
10
0.474929
20
0.939165
11
0.475625
21
0.938877
0
LINE
8
BLACK
6
CONTINUOUS
10
0.475625
20
0.938877
11
0.475913
21
0.938181
0
LINE
8
BLACK
6
CONTINUOUS
10
0.475913
20
0.938181
11
0.475913
21
0.861016
0
LINE
8
BLACK
6
CONTINUOUS
10
0.475913
20
0.861016
11
0.475625
21
0.86032
0
LINE
8
BLACK
6
CONTINUOUS
10
0.475625
20
0.86032
11
0.474929
21
0.860031
0
LINE
8
BLACK
6
CONTINUOUS
10
0.474929
20
0.860031
11
0.341071
21
0.860031
0
LINE
8
BLACK
6
CONTINUOUS
10
0.341071
20
0.860031
11
0.340375
21
0.86032
0
LINE
8
BLACK
6
CONTINUOUS
10
0.340375
20
0.86032
11
0.340087
21
0.861016
0
LINE
8
BLACK
6
CONTINUOUS
10
0.340087
20
0.861016
11
0.340087
21
0.938181
0
LINE
8
BLACK
6
CONTINUOUS
10
0.340087
20
0.938181
11
0.340375
21
0.938877
0
LINE
8
BLACK
6
CONTINUOUS
10
0.340375
20
0.938877
11
0.341071
21
0.939165
0
LINE
8
BLACK
6
CONTINUOUS
10
0.341071
20
0.939165
11
0.474929
21
0.939165
0
LINE
8
BLACK
6
CONTINUOUS
10
0.342055
20
0.937197
11
0.342055
21
0.862
0
LINE
8
BLACK
6
CONTINUOUS
10
0.342055
20
0.862
11
0.473945
21
0.862
0
LINE
8
BLACK
6
CONTINUOUS
10
0.473945
20
0.862
11
0.473945
21
0.937197
0
LINE
8
BLACK
6
CONTINUOUS
10
0.473945
20
0.937197
11
0.342055
21
0.937197
0
LINE
8
BLACK
6
CONTINUOUS
10
2.75014
20
1.00794
11
2.75084
21
1.00766
0
LINE
8
BLACK
6
CONTINUOUS
10
2.75084
20
1.00766
11
2.75113
21
1.00696
0
LINE
8
BLACK
6
CONTINUOUS
10
2.75113
20
1.00696
11
2.75113
21
0.932157
0
LINE
8
BLACK
6
CONTINUOUS
10
2.75113
20
0.932157
11
2.75084
21
0.931461
0
LINE
8
BLACK
6
CONTINUOUS
10
2.75084
20
0.931461
11
2.75014
21
0.931173
0
LINE
8
BLACK
6
CONTINUOUS
10
2.75014
20
0.931173
11
2.61786
21
0.931173
0
LINE
8
BLACK
6
CONTINUOUS
10
2.61786
20
0.931173
11
2.61716
21
0.931461
0
LINE
8
BLACK
6
CONTINUOUS
10
2.61716
20
0.931461
11
2.61687
21
0.932157
0
LINE
8
BLACK
6
CONTINUOUS
10
2.61687
20
0.932157
11
2.61687
21
1.00696
0
LINE
8
BLACK
6
CONTINUOUS
10
2.61687
20
1.00696
11
2.61716
21
1.00766
0
LINE
8
BLACK
6
CONTINUOUS
10
2.61716
20
1.00766
11
2.61786
21
1.00794
0
LINE
8
BLACK
6
CONTINUOUS
10
2.61786
20
1.00794
11
2.75014
21
1.00794
0
LINE
8
BLACK
6
CONTINUOUS
10
2.61884
20
1.00598
11
2.61884
21
0.933142
0
LINE
8
BLACK
6
CONTINUOUS
10
2.61884
20
0.933142
11
2.74916
21
0.933142
0
LINE
8
BLACK
6
CONTINUOUS
10
2.74916
20
0.933142
11
2.74916
21
1.00598
0
LINE
8
BLACK
6
CONTINUOUS
10
2.74916
20
1.00598
11
2.61884
21
1.00598
0
LINE
8
BLACK
6
CONTINUOUS
10
0.517583
20
1.0478
11
0.518279
21
1.04751
0
LINE
8
BLACK
6
CONTINUOUS
10
0.518279
20
1.04751
11
0.518567
21
1.04681
0
LINE
8
BLACK
6
CONTINUOUS
10
0.518567
20
1.04681
11
0.518567
21
0.948386
0
LINE
8
BLACK
6
CONTINUOUS
10
0.518567
20
0.948386
11
0.518279
21
0.94769
0
LINE
8
BLACK
6
CONTINUOUS
10
0.518279
20
0.94769
11
0.517583
21
0.947402
0
LINE
8
BLACK
6
CONTINUOUS
10
0.517583
20
0.947402
11
0.340417
21
0.947402
0
LINE
8
BLACK
6
CONTINUOUS
10
0.340417
20
0.947402
11
0.339721
21
0.94769
0
LINE
8
BLACK
6
CONTINUOUS
10
0.339721
20
0.94769
11
0.339433
21
0.948386
0
LINE
8
BLACK
6
CONTINUOUS
10
0.339433
20
0.948386
11
0.339433
21
1.04681
0
LINE
8
BLACK
6
CONTINUOUS
10
0.339433
20
1.04681
11
0.339721
21
1.04751
0
LINE
8
BLACK
6
CONTINUOUS
10
0.339721
20
1.04751
11
0.340417
21
1.0478
0
LINE
8
BLACK
6
CONTINUOUS
10
0.340417
20
1.0478
11
0.517583
21
1.0478
0
LINE
8
BLACK
6
CONTINUOUS
10
0.341402
20
1.04583
11
0.341402
21
0.94937
0
LINE
8
BLACK
6
CONTINUOUS
10
0.341402
20
0.94937
11
0.516598
21
0.94937
0
LINE
8
BLACK
6
CONTINUOUS
10
0.516598
20
0.94937
11
0.516598
21
1.04583
0
LINE
8
BLACK
6
CONTINUOUS
10
0.516598
20
1.04583
11
0.341402
21
1.04583
0
LINE
8
BLACK
6
CONTINUOUS
10
2.75014
20
1.09694
11
2.75084
21
1.09666
0
LINE
8
BLACK
6
CONTINUOUS
10
2.75084
20
1.09666
11
2.75113
21
1.09596
0
LINE
8
BLACK
6
CONTINUOUS
10
2.75113
20
1.09596
11
2.75113
21
1.02116
0
LINE
8
BLACK
6
CONTINUOUS
10
2.75113
20
1.02116
11
2.75084
21
1.02046
0
LINE
8
BLACK
6
CONTINUOUS
10
2.75084
20
1.02046
11
2.75014
21
1.02017
0
LINE
8
BLACK
6
CONTINUOUS
10
2.75014
20
1.02017
11
2.61786
21
1.02017
0
LINE
8
BLACK
6
CONTINUOUS
10
2.61786
20
1.02017
11
2.61716
21
1.02046
0
LINE
8
BLACK
6
CONTINUOUS
10
2.61716
20
1.02046
11
2.61687
21
1.02116
0
LINE
8
BLACK
6
CONTINUOUS
10
2.61687
20
1.02116
11
2.61687
21
1.09596
0
LINE
8
BLACK
6
CONTINUOUS
10
2.61687
20
1.09596
11
2.61716
21
1.09666
0
LINE
8
BLACK
6
CONTINUOUS
10
2.61716
20
1.09666
11
2.61786
21
1.09694
0
LINE
8
BLACK
6
CONTINUOUS
10
2.61786
20
1.09694
11
2.75014
21
1.09694
0
LINE
8
BLACK
6
CONTINUOUS
10
2.61884
20
1.09498
11
2.61884
21
1.02214
0
LINE
8
BLACK
6
CONTINUOUS
10
2.61884
20
1.02214
11
2.74916
21
1.02214
0
LINE
8
BLACK
6
CONTINUOUS
10
2.74916
20
1.02214
11
2.74916
21
1.09498
0
LINE
8
BLACK
6
CONTINUOUS
10
2.74916
20
1.09498
11
2.61884
21
1.09498
0
LINE
8
BLACK
6
CONTINUOUS
10
0.609583
20
1.20451
11
0.610279
21
1.20422
0
LINE
8
BLACK
6
CONTINUOUS
10
0.610279
20
1.20422
11
0.610567
21
1.20353
0
LINE
8
BLACK
6
CONTINUOUS
10
0.610567
20
1.20353
11
0.610567
21
1.06967
0
LINE
8
BLACK
6
CONTINUOUS
10
0.610567
20
1.06967
11
0.610279
21
1.06897
0
LINE
8
BLACK
6
CONTINUOUS
10
0.610279
20
1.06897
11
0.609583
21
1.06869
0
LINE
8
BLACK
6
CONTINUOUS
10
0.609583
20
1.06869
11
0.532417
21
1.06869
0
LINE
8
BLACK
6
CONTINUOUS
10
0.532417
20
1.06869
11
0.531721
21
1.06897
0
LINE
8
BLACK
6
CONTINUOUS
10
0.531721
20
1.06897
11
0.531433
21
1.06967
0
LINE
8
BLACK
6
CONTINUOUS
10
0.531433
20
1.06967
11
0.531433
21
1.20353
0
LINE
8
BLACK
6
CONTINUOUS
10
0.531433
20
1.20353
11
0.531721
21
1.20422
0
LINE
8
BLACK
6
CONTINUOUS
10
0.531721
20
1.20422
11
0.532417
21
1.20451
0
LINE
8
BLACK
6
CONTINUOUS
10
0.532417
20
1.20451
11
0.609583
21
1.20451
0
LINE
8
BLACK
6
CONTINUOUS
10
0.533402
20
1.20254
11
0.533402
21
1.07065
0
LINE
8
BLACK
6
CONTINUOUS
10
0.533402
20
1.07065
11
0.608598
21
1.07065
0
LINE
8
BLACK
6
CONTINUOUS
10
0.608598
20
1.07065
11
0.608598
21
1.20254
0
LINE
8
BLACK
6
CONTINUOUS
10
0.608598
20
1.20254
11
0.533402
21
1.20254
0
LINE
8
BLACK
6
CONTINUOUS
10
0.478929
20
1.16017
11
0.479625
21
1.15988
0
LINE
8
BLACK
6
CONTINUOUS
10
0.479625
20
1.15988
11
0.479913
21
1.15918
0
LINE
8
BLACK
6
CONTINUOUS
10
0.479913
20
1.15918
11
0.479913
21
1.08202
0
LINE
8
BLACK
6
CONTINUOUS
10
0.479913
20
1.08202
11
0.479625
21
1.08132
0
LINE
8
BLACK
6
CONTINUOUS
10
0.479625
20
1.08132
11
0.478929
21
1.08103
0
LINE
8
BLACK
6
CONTINUOUS
10
0.478929
20
1.08103
11
0.345071
21
1.08103
0
LINE
8
BLACK
6
CONTINUOUS
10
0.345071
20
1.08103
11
0.344375
21
1.08132
0
LINE
8
BLACK
6
CONTINUOUS
10
0.344375
20
1.08132
11
0.344087
21
1.08202
0
LINE
8
BLACK
6
CONTINUOUS
10
0.344087
20
1.08202
11
0.344087
21
1.15918
0
LINE
8
BLACK
6
CONTINUOUS
10
0.344087
20
1.15918
11
0.344375
21
1.15988
0
LINE
8
BLACK
6
CONTINUOUS
10
0.344375
20
1.15988
11
0.345071
21
1.16017
0
LINE
8
BLACK
6
CONTINUOUS
10
0.345071
20
1.16017
11
0.478929
21
1.16017
0
LINE
8
BLACK
6
CONTINUOUS
10
0.346055
20
1.1582
11
0.346055
21
1.083
0
LINE
8
BLACK
6
CONTINUOUS
10
0.346055
20
1.083
11
0.477945
21
1.083
0
LINE
8
BLACK
6
CONTINUOUS
10
0.477945
20
1.083
11
0.477945
21
1.1582
0
LINE
8
BLACK
6
CONTINUOUS
10
0.477945
20
1.1582
11
0.346055
21
1.1582
0
LINE
8
BLACK
6
CONTINUOUS
10
2.7773
20
1.41021
11
2.778
21
1.40992
0
LINE
8
BLACK
6
CONTINUOUS
10
2.778
20
1.40992
11
2.77828
21
1.40923
0
LINE
8
BLACK
6
CONTINUOUS
10
2.77828
20
1.40923
11
2.77828
21
1.11789
0
LINE
8
BLACK
6
CONTINUOUS
10
2.77828
20
1.11789
11
2.778
21
1.11719
0
LINE
8
BLACK
6
CONTINUOUS
10
2.778
20
1.11719
11
2.7773
21
1.11691
0
LINE
8
BLACK
6
CONTINUOUS
10
2.7773
20
1.11691
11
2.5647
21
1.11691
0
LINE
8
BLACK
6
CONTINUOUS
10
2.5647
20
1.11691
11
2.564
21
1.11719
0
LINE
8
BLACK
6
CONTINUOUS
10
2.564
20
1.11719
11
2.56372
21
1.11789
0
LINE
8
BLACK
6
CONTINUOUS
10
2.56372
20
1.11789
11
2.56372
21
1.40923
0
LINE
8
BLACK
6
CONTINUOUS
10
2.56372
20
1.40923
11
2.564
21
1.40992
0
LINE
8
BLACK
6
CONTINUOUS
10
2.564
20
1.40992
11
2.5647
21
1.41021
0
LINE
8
BLACK
6
CONTINUOUS
10
2.5647
20
1.41021
11
2.7773
21
1.41021
0
LINE
8
BLACK
6
CONTINUOUS
10
2.56569
20
1.40824
11
2.56569
21
1.11887
0
LINE
8
BLACK
6
CONTINUOUS
10
2.56569
20
1.11887
11
2.77631
21
1.11887
0
LINE
8
BLACK
6
CONTINUOUS
10
2.77631
20
1.11887
11
2.77631
21
1.40824
0
LINE
8
BLACK
6
CONTINUOUS
10
2.77631
20
1.40824
11
2.56569
21
1.40824
0
LINE
8
BLACK
6
CONTINUOUS
10
0.522583
20
1.26718
11
0.523279
21
1.26689
0
LINE
8
BLACK
6
CONTINUOUS
10
0.523279
20
1.26689
11
0.523567
21
1.2662
0
LINE
8
BLACK
6
CONTINUOUS
10
0.523567
20
1.2662
11
0.523567
21
1.16777
0
LINE
8
BLACK
6
CONTINUOUS
10
0.523567
20
1.16777
11
0.523279
21
1.16708
0
LINE
8
BLACK
6
CONTINUOUS
10
0.523279
20
1.16708
11
0.522583
21
1.16679
0
LINE
8
BLACK
6
CONTINUOUS
10
0.522583
20
1.16679
11
0.345417
21
1.16679
0
LINE
8
BLACK
6
CONTINUOUS
10
0.345417
20
1.16679
11
0.344721
21
1.16708
0
LINE
8
BLACK
6
CONTINUOUS
10
0.344721
20
1.16708
11
0.344433
21
1.16777
0
LINE
8
BLACK
6
CONTINUOUS
10
0.344433
20
1.16777
11
0.344433
21
1.2662
0
LINE
8
BLACK
6
CONTINUOUS
10
0.344433
20
1.2662
11
0.344721
21
1.26689
0
LINE
8
BLACK
6
CONTINUOUS
10
0.344721
20
1.26689
11
0.345417
21
1.26718
0
LINE
8
BLACK
6
CONTINUOUS
10
0.345417
20
1.26718
11
0.522583
21
1.26718
0
LINE
8
BLACK
6
CONTINUOUS
10
0.346402
20
1.26521
11
0.346402
21
1.16876
0
LINE
8
BLACK
6
CONTINUOUS
10
0.346402
20
1.16876
11
0.521598
21
1.16876
0
LINE
8
BLACK
6
CONTINUOUS
10
0.521598
20
1.16876
11
0.521598
21
1.26521
0
LINE
8
BLACK
6
CONTINUOUS
10
0.521598
20
1.26521
11
0.346402
21
1.26521
0
LINE
8
BLACK
6
CONTINUOUS
10
2.69793
20
1.49913
11
2.69863
21
1.49884
0
LINE
8
BLACK
6
CONTINUOUS
10
2.69863
20
1.49884
11
2.69891
21
1.49814
0
LINE
8
BLACK
6
CONTINUOUS
10
2.69891
20
1.49814
11
2.69891
21
1.42098
0
LINE
8
BLACK
6
CONTINUOUS
10
2.69891
20
1.42098
11
2.69863
21
1.42028
0
LINE
8
BLACK
6
CONTINUOUS
10
2.69863
20
1.42028
11
2.69793
21
1.41999
0
LINE
8
BLACK
6
CONTINUOUS
10
2.69793
20
1.41999
11
2.56407
21
1.41999
0
LINE
8
BLACK
6
CONTINUOUS
10
2.56407
20
1.41999
11
2.56337
21
1.42028
0
LINE
8
BLACK
6
CONTINUOUS
10
2.56337
20
1.42028
11
2.56309
21
1.42098
0
LINE
8
BLACK
6
CONTINUOUS
10
2.56309
20
1.42098
11
2.56309
21
1.49814
0
LINE
8
BLACK
6
CONTINUOUS
10
2.56309
20
1.49814
11
2.56337
21
1.49884
0
LINE
8
BLACK
6
CONTINUOUS
10
2.56337
20
1.49884
11
2.56407
21
1.49913
0
LINE
8
BLACK
6
CONTINUOUS
10
2.56407
20
1.49913
11
2.69793
21
1.49913
0
LINE
8
BLACK
6
CONTINUOUS
10
2.56506
20
1.49716
11
2.56506
21
1.42196
0
LINE
8
BLACK
6
CONTINUOUS
10
2.56506
20
1.42196
11
2.69694
21
1.42196
0
LINE
8
BLACK
6
CONTINUOUS
10
2.69694
20
1.42196
11
2.69694
21
1.49716
0
LINE
8
BLACK
6
CONTINUOUS
10
2.69694
20
1.49716
11
2.56506
21
1.49716
0
LINE
8
BLACK
6
CONTINUOUS
10
2.69693
20
1.58313
11
2.69763
21
1.58284
0
LINE
8
BLACK
6
CONTINUOUS
10
2.69763
20
1.58284
11
2.69791
21
1.58214
0
LINE
8
BLACK
6
CONTINUOUS
10
2.69791
20
1.58214
11
2.69791
21
1.50498
0
LINE
8
BLACK
6
CONTINUOUS
10
2.69791
20
1.50498
11
2.69763
21
1.50428
0
LINE
8
BLACK
6
CONTINUOUS
10
2.69763
20
1.50428
11
2.69693
21
1.50399
0
LINE
8
BLACK
6
CONTINUOUS
10
2.69693
20
1.50399
11
2.56307
21
1.50399
0
LINE
8
BLACK
6
CONTINUOUS
10
2.56307
20
1.50399
11
2.56237
21
1.50428
0
LINE
8
BLACK
6
CONTINUOUS
10
2.56237
20
1.50428
11
2.56209
21
1.50498
0
LINE
8
BLACK
6
CONTINUOUS
10
2.56209
20
1.50498
11
2.56209
21
1.58214
0
LINE
8
BLACK
6
CONTINUOUS
10
2.56209
20
1.58214
11
2.56237
21
1.58284
0
LINE
8
BLACK
6
CONTINUOUS
10
2.56237
20
1.58284
11
2.56307
21
1.58313
0
LINE
8
BLACK
6
CONTINUOUS
10
2.56307
20
1.58313
11
2.69693
21
1.58313
0
LINE
8
BLACK
6
CONTINUOUS
10
2.56406
20
1.58116
11
2.56406
21
1.50596
0
LINE
8
BLACK
6
CONTINUOUS
10
2.56406
20
1.50596
11
2.69594
21
1.50596
0
LINE
8
BLACK
6
CONTINUOUS
10
2.69594
20
1.50596
11
2.69594
21
1.58116
0
LINE
8
BLACK
6
CONTINUOUS
10
2.69594
20
1.58116
11
2.56406
21
1.58116
0
LINE
8
BLACK
6
CONTINUOUS
10
0.632528
20
1.65057
11
0.633224
21
1.65028
0
LINE
8
BLACK
6
CONTINUOUS
10
0.633224
20
1.65028
11
0.633512
21
1.64958
0
LINE
8
BLACK
6
CONTINUOUS
10
0.633512
20
1.64958
11
0.633512
21
1.57242
0
LINE
8
BLACK
6
CONTINUOUS
10
0.633512
20
1.57242
11
0.633224
21
1.57172
0
LINE
8
BLACK
6
CONTINUOUS
10
0.633224
20
1.57172
11
0.632528
21
1.57143
0
LINE
8
BLACK
6
CONTINUOUS
10
0.632528
20
1.57143
11
0.498669
21
1.57143
0
LINE
8
BLACK
6
CONTINUOUS
10
0.498669
20
1.57143
11
0.497973
21
1.57172
0
LINE
8
BLACK
6
CONTINUOUS
10
0.497973
20
1.57172
11
0.497685
21
1.57242
0
LINE
8
BLACK
6
CONTINUOUS
10
0.497685
20
1.57242
11
0.497685
21
1.64958
0
LINE
8
BLACK
6
CONTINUOUS
10
0.497685
20
1.64958
11
0.497973
21
1.65028
0
LINE
8
BLACK
6
CONTINUOUS
10
0.497973
20
1.65028
11
0.498669
21
1.65057
0
LINE
8
BLACK
6
CONTINUOUS
10
0.498669
20
1.65057
11
0.632528
21
1.65057
0
LINE
8
BLACK
6
CONTINUOUS
10
0.499654
20
1.6486
11
0.499654
21
1.5734
0
LINE
8
BLACK
6
CONTINUOUS
10
0.499654
20
1.5734
11
0.631543
21
1.5734
0
LINE
8
BLACK
6
CONTINUOUS
10
0.631543
20
1.5734
11
0.631543
21
1.6486
0
LINE
8
BLACK
6
CONTINUOUS
10
0.631543
20
1.6486
11
0.499654
21
1.6486
0
LINE
8
BLACK
6
CONTINUOUS
10
0.631528
20
1.74357
11
0.632224
21
1.74328
0
LINE
8
BLACK
6
CONTINUOUS
10
0.632224
20
1.74328
11
0.632512
21
1.74258
0
LINE
8
BLACK
6
CONTINUOUS
10
0.632512
20
1.74258
11
0.632512
21
1.66542
0
LINE
8
BLACK
6
CONTINUOUS
10
0.632512
20
1.66542
11
0.632224
21
1.66472
0
LINE
8
BLACK
6
CONTINUOUS
10
0.632224
20
1.66472
11
0.631528
21
1.66443
0
LINE
8
BLACK
6
CONTINUOUS
10
0.631528
20
1.66443
11
0.497669
21
1.66443
0
LINE
8
BLACK
6
CONTINUOUS
10
0.497669
20
1.66443
11
0.496973
21
1.66472
0
LINE
8
BLACK
6
CONTINUOUS
10
0.496973
20
1.66472
11
0.496685
21
1.66542
0
LINE
8
BLACK
6
CONTINUOUS
10
0.496685
20
1.66542
11
0.496685
21
1.74258
0
LINE
8
BLACK
6
CONTINUOUS
10
0.496685
20
1.74258
11
0.496973
21
1.74328
0
LINE
8
BLACK
6
CONTINUOUS
10
0.496973
20
1.74328
11
0.497669
21
1.74357
0
LINE
8
BLACK
6
CONTINUOUS
10
0.497669
20
1.74357
11
0.631528
21
1.74357
0
LINE
8
BLACK
6
CONTINUOUS
10
0.498654
20
1.7416
11
0.498654
21
1.6664
0
LINE
8
BLACK
6
CONTINUOUS
10
0.498654
20
1.6664
11
0.630543
21
1.6664
0
LINE
8
BLACK
6
CONTINUOUS
10
0.630543
20
1.6664
11
0.630543
21
1.7416
0
LINE
8
BLACK
6
CONTINUOUS
10
0.630543
20
1.7416
11
0.498654
21
1.7416
0
LINE
8
BLACK
6
CONTINUOUS
10
2.88672
20
1.80743
11
2.89517
21
1.80517
0
LINE
8
BLACK
6
CONTINUOUS
10
2.89517
20
1.80517
11
2.9031
21
1.80147
0
LINE
8
BLACK
6
CONTINUOUS
10
2.9031
20
1.80147
11
2.91027
21
1.79645
0
LINE
8
BLACK
6
CONTINUOUS
10
2.91027
20
1.79645
11
2.91645
21
1.79027
0
LINE
8
BLACK
6
CONTINUOUS
10
2.91645
20
1.79027
11
2.92147
21
1.7831
0
LINE
8
BLACK
6
CONTINUOUS
10
2.92147
20
1.7831
11
2.92517
21
1.77517
0
LINE
8
BLACK
6
CONTINUOUS
10
2.92517
20
1.77517
11
2.92743
21
1.76672
0
LINE
8
BLACK
6
CONTINUOUS
10
2.92743
20
1.76672
11
2.9282
21
1.758
0
LINE
8
BLACK
6
CONTINUOUS
10
2.9282
20
1.758
11
2.92743
21
1.74928
0
LINE
8
BLACK
6
CONTINUOUS
10
2.92743
20
1.74928
11
2.92517
21
1.74083
0
LINE
8
BLACK
6
CONTINUOUS
10
2.92517
20
1.74083
11
2.92147
21
1.7329
0
LINE
8
BLACK
6
CONTINUOUS
10
2.92147
20
1.7329
11
2.91645
21
1.72573
0
LINE
8
BLACK
6
CONTINUOUS
10
2.91645
20
1.72573
11
2.91027
21
1.71955
0
LINE
8
BLACK
6
CONTINUOUS
10
2.91027
20
1.71955
11
2.9031
21
1.71453
0
LINE
8
BLACK
6
CONTINUOUS
10
2.9031
20
1.71453
11
2.89517
21
1.71083
0
LINE
8
BLACK
6
CONTINUOUS
10
2.89517
20
1.71083
11
2.88672
21
1.70857
0
LINE
8
BLACK
6
CONTINUOUS
10
2.88672
20
1.70857
11
2.878
21
1.7078
0
LINE
8
BLACK
6
CONTINUOUS
10
2.878
20
1.7078
11
2.86928
21
1.70857
0
LINE
8
BLACK
6
CONTINUOUS
10
2.86928
20
1.70857
11
2.86083
21
1.71083
0
LINE
8
BLACK
6
CONTINUOUS
10
2.86083
20
1.71083
11
2.8529
21
1.71453
0
LINE
8
BLACK
6
CONTINUOUS
10
2.8529
20
1.71453
11
2.84573
21
1.71955
0
LINE
8
BLACK
6
CONTINUOUS
10
2.84573
20
1.71955
11
2.83955
21
1.72573
0
LINE
8
BLACK
6
CONTINUOUS
10
2.83955
20
1.72573
11
2.83453
21
1.7329
0
LINE
8
BLACK
6
CONTINUOUS
10
2.83453
20
1.7329
11
2.83083
21
1.74083
0
LINE
8
BLACK
6
CONTINUOUS
10
2.83083
20
1.74083
11
2.82857
21
1.74928
0
LINE
8
BLACK
6
CONTINUOUS
10
2.82857
20
1.74928
11
2.8278
21
1.758
0
LINE
8
BLACK
6
CONTINUOUS
10
2.8278
20
1.758
11
2.82857
21
1.76672
0
LINE
8
BLACK
6
CONTINUOUS
10
2.82857
20
1.76672
11
2.83083
21
1.77517
0
LINE
8
BLACK
6
CONTINUOUS
10
2.83083
20
1.77517
11
2.83453
21
1.7831
0
LINE
8
BLACK
6
CONTINUOUS
10
2.83453
20
1.7831
11
2.83955
21
1.79027
0
LINE
8
BLACK
6
CONTINUOUS
10
2.83955
20
1.79027
11
2.84573
21
1.79645
0
LINE
8
BLACK
6
CONTINUOUS
10
2.84573
20
1.79645
11
2.8529
21
1.80147
0
LINE
8
BLACK
6
CONTINUOUS
10
2.8529
20
1.80147
11
2.86083
21
1.80517
0
LINE
8
BLACK
6
CONTINUOUS
10
2.86083
20
1.80517
11
2.86928
21
1.80743
0
LINE
8
BLACK
6
CONTINUOUS
10
2.86928
20
1.80743
11
2.878
21
1.8082
0
LINE
8
BLACK
6
CONTINUOUS
10
2.878
20
1.8082
11
2.88672
21
1.80743
0
LINE
8
BLACK
6
CONTINUOUS
10
2.83032
20
1.74959
11
2.83251
21
1.74144
0
LINE
8
BLACK
6
CONTINUOUS
10
2.83251
20
1.74144
11
2.83607
21
1.73379
0
LINE
8
BLACK
6
CONTINUOUS
10
2.83607
20
1.73379
11
2.84091
21
1.72688
0
LINE
8
BLACK
6
CONTINUOUS
10
2.84091
20
1.72688
11
2.84688
21
1.72091
0
LINE
8
BLACK
6
CONTINUOUS
10
2.84688
20
1.72091
11
2.85379
21
1.71607
0
LINE
8
BLACK
6
CONTINUOUS
10
2.85379
20
1.71607
11
2.86144
21
1.71251
0
LINE
8
BLACK
6
CONTINUOUS
10
2.86144
20
1.71251
11
2.86959
21
1.71032
0
LINE
8
BLACK
6
CONTINUOUS
10
2.86959
20
1.71032
11
2.878
21
1.70959
0
LINE
8
BLACK
6
CONTINUOUS
10
2.878
20
1.70959
11
2.88641
21
1.71032
0
LINE
8
BLACK
6
CONTINUOUS
10
2.88641
20
1.71032
11
2.89456
21
1.71251
0
LINE
8
BLACK
6
CONTINUOUS
10
2.89456
20
1.71251
11
2.90221
21
1.71607
0
LINE
8
BLACK
6
CONTINUOUS
10
2.90221
20
1.71607
11
2.90912
21
1.72091
0
LINE
8
BLACK
6
CONTINUOUS
10
2.90912
20
1.72091
11
2.91509
21
1.72688
0
LINE
8
BLACK
6
CONTINUOUS
10
2.91509
20
1.72688
11
2.91993
21
1.73379
0
LINE
8
BLACK
6
CONTINUOUS
10
2.91993
20
1.73379
11
2.92349
21
1.74144
0
LINE
8
BLACK
6
CONTINUOUS
10
2.92349
20
1.74144
11
2.92568
21
1.74959
0
LINE
8
BLACK
6
CONTINUOUS
10
2.92568
20
1.74959
11
2.92641
21
1.758
0
LINE
8
BLACK
6
CONTINUOUS
10
2.92641
20
1.758
11
2.92568
21
1.76641
0
LINE
8
BLACK
6
CONTINUOUS
10
2.92568
20
1.76641
11
2.92349
21
1.77456
0
LINE
8
BLACK
6
CONTINUOUS
10
2.92349
20
1.77456
11
2.91993
21
1.78221
0
LINE
8
BLACK
6
CONTINUOUS
10
2.91993
20
1.78221
11
2.91509
21
1.78912
0
LINE
8
BLACK
6
CONTINUOUS
10
2.91509
20
1.78912
11
2.90912
21
1.79509
0
LINE
8
BLACK
6
CONTINUOUS
10
2.90912
20
1.79509
11
2.90221
21
1.79993
0
LINE
8
BLACK
6
CONTINUOUS
10
2.90221
20
1.79993
11
2.89456
21
1.80349
0
LINE
8
BLACK
6
CONTINUOUS
10
2.89456
20
1.80349
11
2.88641
21
1.80568
0
LINE
8
BLACK
6
CONTINUOUS
10
2.88641
20
1.80568
11
2.878
21
1.80641
0
LINE
8
BLACK
6
CONTINUOUS
10
2.878
20
1.80641
11
2.86959
21
1.80568
0
LINE
8
BLACK
6
CONTINUOUS
10
2.86959
20
1.80568
11
2.86144
21
1.80349
0
LINE
8
BLACK
6
CONTINUOUS
10
2.86144
20
1.80349
11
2.85379
21
1.79993
0
LINE
8
BLACK
6
CONTINUOUS
10
2.85379
20
1.79993
11
2.84688
21
1.79509
0
LINE
8
BLACK
6
CONTINUOUS
10
2.84688
20
1.79509
11
2.84091
21
1.78912
0
LINE
8
BLACK
6
CONTINUOUS
10
2.84091
20
1.78912
11
2.83607
21
1.78221
0
LINE
8
BLACK
6
CONTINUOUS
10
2.83607
20
1.78221
11
2.83251
21
1.77456
0
LINE
8
BLACK
6
CONTINUOUS
10
2.83251
20
1.77456
11
2.83032
21
1.76641
0
LINE
8
BLACK
6
CONTINUOUS
10
2.83032
20
1.76641
11
2.82959
21
1.758
0
LINE
8
BLACK
6
CONTINUOUS
10
2.82959
20
1.758
11
2.83032
21
1.74959
0
LINE
8
BLACK
6
CONTINUOUS
10
0.663717
20
2.11443
11
0.672168
21
2.11217
0
LINE
8
BLACK
6
CONTINUOUS
10
0.672168
20
2.11217
11
0.680098
21
2.10847
0
LINE
8
BLACK
6
CONTINUOUS
10
0.680098
20
2.10847
11
0.687266
21
2.10345
0
LINE
8
BLACK
6
CONTINUOUS
10
0.687266
20
2.10345
11
0.693453
21
2.09727
0
LINE
8
BLACK
6
CONTINUOUS
10
0.693453
20
2.09727
11
0.698472
21
2.0901
0
LINE
8
BLACK
6
CONTINUOUS
10
0.698472
20
2.0901
11
0.70217
21
2.08217
0
LINE
8
BLACK
6
CONTINUOUS
10
0.70217
20
2.08217
11
0.704434
21
2.07372
0
LINE
8
BLACK
6
CONTINUOUS
10
0.704434
20
2.07372
11
0.705197
21
2.065
0
LINE
8
BLACK
6
CONTINUOUS
10
0.705197
20
2.065
11
0.704434
21
2.05628
0
LINE
8
BLACK
6
CONTINUOUS
10
0.704434
20
2.05628
11
0.70217
21
2.04783
0
LINE
8
BLACK
6
CONTINUOUS
10
0.70217
20
2.04783
11
0.698472
21
2.0399
0
LINE
8
BLACK
6
CONTINUOUS
10
0.698472
20
2.0399
11
0.693453
21
2.03273
0
LINE
8
BLACK
6
CONTINUOUS
10
0.693453
20
2.03273
11
0.687266
21
2.02655
0
LINE
8
BLACK
6
CONTINUOUS
10
0.687266
20
2.02655
11
0.680098
21
2.02153
0
LINE
8
BLACK
6
CONTINUOUS
10
0.680098
20
2.02153
11
0.672168
21
2.01783
0
LINE
8
BLACK
6
CONTINUOUS
10
0.672168
20
2.01783
11
0.663717
21
2.01557
0
LINE
8
BLACK
6
CONTINUOUS
10
0.663717
20
2.01557
11
0.655
21
2.0148
0
LINE
8
BLACK
6
CONTINUOUS
10
0.655
20
2.0148
11
0.646283
21
2.01557
0
LINE
8
BLACK
6
CONTINUOUS
10
0.646283
20
2.01557
11
0.637832
21
2.01783
0
LINE
8
BLACK
6
CONTINUOUS
10
0.637832
20
2.01783
11
0.629902
21
2.02153
0
LINE
8
BLACK
6
CONTINUOUS
10
0.629902
20
2.02153
11
0.622734
21
2.02655
0
LINE
8
BLACK
6
CONTINUOUS
10
0.622734
20
2.02655
11
0.616547
21
2.03273
0
LINE
8
BLACK
6
CONTINUOUS
10
0.616547
20
2.03273
11
0.611528
21
2.0399
0
LINE
8
BLACK
6
CONTINUOUS
10
0.611528
20
2.0399
11
0.60783
21
2.04783
0
LINE
8
BLACK
6
CONTINUOUS
10
0.60783
20
2.04783
11
0.605566
21
2.05628
0
LINE
8
BLACK
6
CONTINUOUS
10
0.605566
20
2.05628
11
0.604803
21
2.065
0
LINE
8
BLACK
6
CONTINUOUS
10
0.604803
20
2.065
11
0.605566
21
2.07372
0
LINE
8
BLACK
6
CONTINUOUS
10
0.605566
20
2.07372
11
0.60783
21
2.08217
0
LINE
8
BLACK
6
CONTINUOUS
10
0.60783
20
2.08217
11
0.611528
21
2.0901
0
LINE
8
BLACK
6
CONTINUOUS
10
0.611528
20
2.0901
11
0.616547
21
2.09727
0
LINE
8
BLACK
6
CONTINUOUS
10
0.616547
20
2.09727
11
0.622734
21
2.10345
0
LINE
8
BLACK
6
CONTINUOUS
10
0.622734
20
2.10345
11
0.629902
21
2.10847
0
LINE
8
BLACK
6
CONTINUOUS
10
0.629902
20
2.10847
11
0.637832
21
2.11217
0
LINE
8
BLACK
6
CONTINUOUS
10
0.637832
20
2.11217
11
0.646283
21
2.11443
0
LINE
8
BLACK
6
CONTINUOUS
10
0.646283
20
2.11443
11
0.655
21
2.1152
0
LINE
8
BLACK
6
CONTINUOUS
10
0.655
20
2.1152
11
0.663717
21
2.11443
0
LINE
8
BLACK
6
CONTINUOUS
10
0.607323
20
2.05659
11
0.609507
21
2.04844
0
LINE
8
BLACK
6
CONTINUOUS
10
0.609507
20
2.04844
11
0.613074
21
2.04079
0
LINE
8
BLACK
6
CONTINUOUS
10
0.613074
20
2.04079
11
0.617914
21
2.03388
0
LINE
8
BLACK
6
CONTINUOUS
10
0.617914
20
2.03388
11
0.623881
21
2.02791
0
LINE
8
BLACK
6
CONTINUOUS
10
0.623881
20
2.02791
11
0.630794
21
2.02307
0
LINE
8
BLACK
6
CONTINUOUS
10
0.630794
20
2.02307
11
0.638442
21
2.01951
0
LINE
8
BLACK
6
CONTINUOUS
10
0.638442
20
2.01951
11
0.646593
21
2.01732
0
LINE
8
BLACK
6
CONTINUOUS
10
0.646593
20
2.01732
11
0.655
21
2.01659
0
LINE
8
BLACK
6
CONTINUOUS
10
0.655
20
2.01659
11
0.663407
21
2.01732
0
LINE
8
BLACK
6
CONTINUOUS
10
0.663407
20
2.01732
11
0.671558
21
2.01951
0
LINE
8
BLACK
6
CONTINUOUS
10
0.671558
20
2.01951
11
0.679206
21
2.02307
0
LINE
8
BLACK
6
CONTINUOUS
10
0.679206
20
2.02307
11
0.686119
21
2.02791
0
LINE
8
BLACK
6
CONTINUOUS
10
0.686119
20
2.02791
11
0.692086
21
2.03388
0
LINE
8
BLACK
6
CONTINUOUS
10
0.692086
20
2.03388
11
0.696926
21
2.04079
0
LINE
8
BLACK
6
CONTINUOUS
10
0.696926
20
2.04079
11
0.700493
21
2.04844
0
LINE
8
BLACK
6
CONTINUOUS
10
0.700493
20
2.04844
11
0.702677
21
2.05659
0
LINE
8
BLACK
6
CONTINUOUS
10
0.702677
20
2.05659
11
0.703413
21
2.065
0
LINE
8
BLACK
6
CONTINUOUS
10
0.703413
20
2.065
11
0.702677
21
2.07341
0
LINE
8
BLACK
6
CONTINUOUS
10
0.702677
20
2.07341
11
0.700493
21
2.08156
0
LINE
8
BLACK
6
CONTINUOUS
10
0.700493
20
2.08156
11
0.696926
21
2.08921
0
LINE
8
BLACK
6
CONTINUOUS
10
0.696926
20
2.08921
11
0.692086
21
2.09612
0
LINE
8
BLACK
6
CONTINUOUS
10
0.692086
20
2.09612
11
0.686119
21
2.10209
0
LINE
8
BLACK
6
CONTINUOUS
10
0.686119
20
2.10209
11
0.679206
21
2.10693
0
LINE
8
BLACK
6
CONTINUOUS
10
0.679206
20
2.10693
11
0.671558
21
2.11049
0
LINE
8
BLACK
6
CONTINUOUS
10
0.671558
20
2.11049
11
0.663407
21
2.11268
0
LINE
8
BLACK
6
CONTINUOUS
10
0.663407
20
2.11268
11
0.655
21
2.11341
0
LINE
8
BLACK
6
CONTINUOUS
10
0.655
20
2.11341
11
0.646593
21
2.11268
0
LINE
8
BLACK
6
CONTINUOUS
10
0.646593
20
2.11268
11
0.638442
21
2.11049
0
LINE
8
BLACK
6
CONTINUOUS
10
0.638442
20
2.11049
11
0.630794
21
2.10693
0
LINE
8
BLACK
6
CONTINUOUS
10
0.630794
20
2.10693
11
0.623881
21
2.10209
0
LINE
8
BLACK
6
CONTINUOUS
10
0.623881
20
2.10209
11
0.617914
21
2.09612
0
LINE
8
BLACK
6
CONTINUOUS
10
0.617914
20
2.09612
11
0.613074
21
2.08921
0
LINE
8
BLACK
6
CONTINUOUS
10
0.613074
20
2.08921
11
0.609507
21
2.08156
0
LINE
8
BLACK
6
CONTINUOUS
10
0.609507
20
2.08156
11
0.607323
21
2.07341
0
LINE
8
BLACK
6
CONTINUOUS
10
0.607323
20
2.07341
11
0.606587
21
2.065
0
LINE
8
BLACK
6
CONTINUOUS
10
0.606587
20
2.065
11
0.607323
21
2.05659
  0
ENDSEC
  0
EOF
