  0
SECTION
  2
HEADER
  9
$ANGBASE
  50
0.0
  9
$ANGDIR
  70
1
  9
$MEASUREMENT
  70
0
  0
ENDSEC
  0
SECTION
  2
TABLES
  0
TABLE
  2
LTYPE
  70
4
  0
LTYPE
  5
40F
  2
CONTINUOUS
  70
0
  3
Solid line
  72
65
  73
0
  40
0.0
  0
LTYPE
  5
410
  2
DASHDOT
 70
0
  3
Dash Dot ____ _ ____ _
 72
65
 73
4
 40
2.0
 49
1.25
 49
-0.25
 49
0.25
 49
-0.25
  0
LTYPE
  5
411
  2
DASHED
 70
0
  3
Dashed __ __ __ __ __
 72
65
 73
2
 40
0.75
 49
0.5
 49
-0.25
  0
LTYPE
  5
43B
  2
DOTTED
 70
0
  3
Dotted .  .  .  .
 72
65
 73
2
 40
0.2
 49
0.0
 49
-0.2
  0
ENDTAB
  0
TABLE
  2
STYLE
  70
4
  0
STYLE
  2
KICAD
  70
0
  40
0
  41
1
  42
1
  50
0
  71
0
  3
isocp.shx
  0
STYLE
  2
KICADB
  70
0
  40
0
  41
1
  42
1
  50
0
  71
0
  3
isocp.shx
  0
STYLE
  2
KICADI
  70
0
  40
0
  41
1
  42
1
  50
15
  71
0
  3
isocp.shx
  0
STYLE
  2
KICADBI
  70
0
  40
0
  41
1
  42
1
  50
15
  71
0
  3
isocp.shx
  0
ENDTAB
  0
TABLE
  2
LAYER
  70
1
  0
LAYER
  2
BLACK
  70
0
  62
7
  6
CONTINUOUS
  0
ENDTAB
  0
ENDSEC
  0
SECTION
  2
ENTITIES
0
LINE
8
BLACK
6
CONTINUOUS
10
0.309026
20
0.594036
11
0.31143
21
0.592149
0
LINE
8
BLACK
6
CONTINUOUS
10
0.31143
20
0.592149
11
0.312569
21
0.589312
0
LINE
8
BLACK
6
CONTINUOUS
10
0.312569
20
0.589312
11
0.312137
21
0.586285
0
LINE
8
BLACK
6
CONTINUOUS
10
0.312137
20
0.586285
11
0.310249
21
0.583881
0
LINE
8
BLACK
6
CONTINUOUS
10
0.310249
20
0.583881
11
0.294426
21
0.572014
0
LINE
8
BLACK
6
CONTINUOUS
10
0.294426
20
0.572014
11
0.306706
21
0.572014
0
LINE
8
BLACK
6
CONTINUOUS
10
0.306706
20
0.572014
11
0.309659
21
0.571222
0
LINE
8
BLACK
6
CONTINUOUS
10
0.309659
20
0.571222
11
0.31182
21
0.569061
0
LINE
8
BLACK
6
CONTINUOUS
10
0.31182
20
0.569061
11
0.312611
21
0.566108
0
LINE
8
BLACK
6
CONTINUOUS
10
0.312611
20
0.566108
11
0.31182
21
0.563155
0
LINE
8
BLACK
6
CONTINUOUS
10
0.31182
20
0.563155
11
0.309659
21
0.560994
0
LINE
8
BLACK
6
CONTINUOUS
10
0.309659
20
0.560994
11
0.306706
21
0.560202
0
LINE
8
BLACK
6
CONTINUOUS
10
0.306706
20
0.560202
11
0.247651
21
0.560202
0
LINE
8
BLACK
6
CONTINUOUS
10
0.247651
20
0.560202
11
0.244698
21
0.560994
0
LINE
8
BLACK
6
CONTINUOUS
10
0.244698
20
0.560994
11
0.242536
21
0.563155
0
LINE
8
BLACK
6
CONTINUOUS
10
0.242536
20
0.563155
11
0.241745
21
0.566108
0
LINE
8
BLACK
6
CONTINUOUS
10
0.241745
20
0.566108
11
0.242536
21
0.569061
0
LINE
8
BLACK
6
CONTINUOUS
10
0.242536
20
0.569061
11
0.244698
21
0.571222
0
LINE
8
BLACK
6
CONTINUOUS
10
0.244698
20
0.571222
11
0.247651
21
0.572014
0
LINE
8
BLACK
6
CONTINUOUS
10
0.247651
20
0.572014
11
0.275576
21
0.572014
0
LINE
8
BLACK
6
CONTINUOUS
10
0.275576
20
0.572014
11
0.26316
21
0.584429
0
LINE
8
BLACK
6
CONTINUOUS
10
0.26316
20
0.584429
11
0.261631
21
0.587077
0
LINE
8
BLACK
6
CONTINUOUS
10
0.261631
20
0.587077
11
0.261631
21
0.590134
0
LINE
8
BLACK
6
CONTINUOUS
10
0.261631
20
0.590134
11
0.26316
21
0.592781
0
LINE
8
BLACK
6
CONTINUOUS
10
0.26316
20
0.592781
11
0.265807
21
0.594309
0
LINE
8
BLACK
6
CONTINUOUS
10
0.265807
20
0.594309
11
0.268864
21
0.594309
0
LINE
8
BLACK
6
CONTINUOUS
10
0.268864
20
0.594309
11
0.271512
21
0.592781
0
LINE
8
BLACK
6
CONTINUOUS
10
0.271512
20
0.592781
11
0.284763
21
0.57953
0
LINE
8
BLACK
6
CONTINUOUS
10
0.284763
20
0.57953
11
0.303163
21
0.59333
0
LINE
8
BLACK
6
CONTINUOUS
10
0.303163
20
0.59333
11
0.305999
21
0.594468
0
LINE
8
BLACK
6
CONTINUOUS
10
0.305999
20
0.594468
11
0.309026
21
0.594036
0
LINE
8
BLACK
6
CONTINUOUS
10
0.309659
20
0.644338
11
0.31182
21
0.642177
0
LINE
8
BLACK
6
CONTINUOUS
10
0.31182
20
0.642177
11
0.312611
21
0.639224
0
LINE
8
BLACK
6
CONTINUOUS
10
0.312611
20
0.639224
11
0.311873
21
0.63647
0
LINE
8
BLACK
6
CONTINUOUS
10
0.311873
20
0.63647
11
0.311988
21
0.636241
0
LINE
8
BLACK
6
CONTINUOUS
10
0.311988
20
0.636241
11
0.31226
21
0.634911
0
LINE
8
BLACK
6
CONTINUOUS
10
0.31226
20
0.634911
11
0.312611
21
0.6336
0
LINE
8
BLACK
6
CONTINUOUS
10
0.312611
20
0.6336
11
0.312611
21
0.619539
0
LINE
8
BLACK
6
CONTINUOUS
10
0.312611
20
0.619539
11
0.31226
21
0.618228
0
LINE
8
BLACK
6
CONTINUOUS
10
0.31226
20
0.618228
11
0.311988
21
0.616898
0
LINE
8
BLACK
6
CONTINUOUS
10
0.311988
20
0.616898
11
0.309176
21
0.611274
0
LINE
8
BLACK
6
CONTINUOUS
10
0.309176
20
0.611274
11
0.308936
21
0.611003
0
LINE
8
BLACK
6
CONTINUOUS
10
0.308936
20
0.611003
11
0.308822
21
0.610661
0
LINE
8
BLACK
6
CONTINUOUS
10
0.308822
20
0.610661
11
0.307934
21
0.609874
0
LINE
8
BLACK
6
CONTINUOUS
10
0.307934
20
0.609874
11
0.307148
21
0.608986
0
LINE
8
BLACK
6
CONTINUOUS
10
0.307148
20
0.608986
11
0.306805
21
0.608872
0
LINE
8
BLACK
6
CONTINUOUS
10
0.306805
20
0.608872
11
0.306535
21
0.608632
0
LINE
8
BLACK
6
CONTINUOUS
10
0.306535
20
0.608632
11
0.30091
21
0.60582
0
LINE
8
BLACK
6
CONTINUOUS
10
0.30091
20
0.60582
11
0.299581
21
0.605548
0
LINE
8
BLACK
6
CONTINUOUS
10
0.299581
20
0.605548
11
0.298269
21
0.605197
0
LINE
8
BLACK
6
CONTINUOUS
10
0.298269
20
0.605197
11
0.292645
21
0.605197
0
LINE
8
BLACK
6
CONTINUOUS
10
0.292645
20
0.605197
11
0.291334
21
0.605548
0
LINE
8
BLACK
6
CONTINUOUS
10
0.291334
20
0.605548
11
0.290004
21
0.60582
0
LINE
8
BLACK
6
CONTINUOUS
10
0.290004
20
0.60582
11
0.28438
21
0.608632
0
LINE
8
BLACK
6
CONTINUOUS
10
0.28438
20
0.608632
11
0.28411
21
0.608872
0
LINE
8
BLACK
6
CONTINUOUS
10
0.28411
20
0.608872
11
0.283767
21
0.608986
0
LINE
8
BLACK
6
CONTINUOUS
10
0.283767
20
0.608986
11
0.28298
21
0.609874
0
LINE
8
BLACK
6
CONTINUOUS
10
0.28298
20
0.609874
11
0.282093
21
0.610661
0
LINE
8
BLACK
6
CONTINUOUS
10
0.282093
20
0.610661
11
0.281978
21
0.611003
0
LINE
8
BLACK
6
CONTINUOUS
10
0.281978
20
0.611003
11
0.281739
21
0.611274
0
LINE
8
BLACK
6
CONTINUOUS
10
0.281739
20
0.611274
11
0.278927
21
0.616898
0
LINE
8
BLACK
6
CONTINUOUS
10
0.278927
20
0.616898
11
0.278654
21
0.618228
0
LINE
8
BLACK
6
CONTINUOUS
10
0.278654
20
0.618228
11
0.278303
21
0.619539
0
LINE
8
BLACK
6
CONTINUOUS
10
0.278303
20
0.619539
11
0.278303
21
0.632205
0
LINE
8
BLACK
6
CONTINUOUS
10
0.278303
20
0.632205
11
0.277747
21
0.633318
0
LINE
8
BLACK
6
CONTINUOUS
10
0.277747
20
0.633318
11
0.277166
21
0.633318
0
LINE
8
BLACK
6
CONTINUOUS
10
0.277166
20
0.633318
11
0.27455
21
0.63201
0
LINE
8
BLACK
6
CONTINUOUS
10
0.27455
20
0.63201
11
0.273241
21
0.629393
0
LINE
8
BLACK
6
CONTINUOUS
10
0.273241
20
0.629393
11
0.273241
21
0.620933
0
LINE
8
BLACK
6
CONTINUOUS
10
0.273241
20
0.620933
11
0.27543
21
0.616556
0
LINE
8
BLACK
6
CONTINUOUS
10
0.27543
20
0.616556
11
0.276043
21
0.613561
0
LINE
8
BLACK
6
CONTINUOUS
10
0.276043
20
0.613561
11
0.275076
21
0.610661
0
LINE
8
BLACK
6
CONTINUOUS
10
0.275076
20
0.610661
11
0.272789
21
0.608632
0
LINE
8
BLACK
6
CONTINUOUS
10
0.272789
20
0.608632
11
0.269794
21
0.60802
0
LINE
8
BLACK
6
CONTINUOUS
10
0.269794
20
0.60802
11
0.266894
21
0.608986
0
LINE
8
BLACK
6
CONTINUOUS
10
0.266894
20
0.608986
11
0.264866
21
0.611274
0
LINE
8
BLACK
6
CONTINUOUS
10
0.264866
20
0.611274
11
0.262054
21
0.616898
0
LINE
8
BLACK
6
CONTINUOUS
10
0.262054
20
0.616898
11
0.261782
21
0.618228
0
LINE
8
BLACK
6
CONTINUOUS
10
0.261782
20
0.618228
11
0.26143
21
0.619539
0
LINE
8
BLACK
6
CONTINUOUS
10
0.26143
20
0.619539
11
0.26143
21
0.630787
0
LINE
8
BLACK
6
CONTINUOUS
10
0.26143
20
0.630787
11
0.261782
21
0.632099
0
LINE
8
BLACK
6
CONTINUOUS
10
0.261782
20
0.632099
11
0.262054
21
0.633428
0
LINE
8
BLACK
6
CONTINUOUS
10
0.262054
20
0.633428
11
0.264866
21
0.639053
0
LINE
8
BLACK
6
CONTINUOUS
10
0.264866
20
0.639053
11
0.265105
21
0.639323
0
LINE
8
BLACK
6
CONTINUOUS
10
0.265105
20
0.639323
11
0.26522
21
0.639666
0
LINE
8
BLACK
6
CONTINUOUS
10
0.26522
20
0.639666
11
0.266107
21
0.640453
0
LINE
8
BLACK
6
CONTINUOUS
10
0.266107
20
0.640453
11
0.266894
21
0.64134
0
LINE
8
BLACK
6
CONTINUOUS
10
0.266894
20
0.64134
11
0.267237
21
0.641454
0
LINE
8
BLACK
6
CONTINUOUS
10
0.267237
20
0.641454
11
0.267507
21
0.641694
0
LINE
8
BLACK
6
CONTINUOUS
10
0.267507
20
0.641694
11
0.273131
21
0.644506
0
LINE
8
BLACK
6
CONTINUOUS
10
0.273131
20
0.644506
11
0.274461
21
0.644778
0
LINE
8
BLACK
6
CONTINUOUS
10
0.274461
20
0.644778
11
0.275772
21
0.645129
0
LINE
8
BLACK
6
CONTINUOUS
10
0.275772
20
0.645129
11
0.306706
21
0.645129
0
LINE
8
BLACK
6
CONTINUOUS
10
0.306706
20
0.645129
11
0.309659
21
0.644338
0
LINE
8
BLACK
6
CONTINUOUS
10
0.290114
20
0.620933
11
0.291422
21
0.618316
0
LINE
8
BLACK
6
CONTINUOUS
10
0.291422
20
0.618316
11
0.294039
21
0.617008
0
LINE
8
BLACK
6
CONTINUOUS
10
0.294039
20
0.617008
11
0.296875
21
0.617008
0
LINE
8
BLACK
6
CONTINUOUS
10
0.296875
20
0.617008
11
0.299492
21
0.618316
0
LINE
8
BLACK
6
CONTINUOUS
10
0.299492
20
0.618316
11
0.3008
21
0.620933
0
LINE
8
BLACK
6
CONTINUOUS
10
0.3008
20
0.620933
11
0.3008
21
0.632206
0
LINE
8
BLACK
6
CONTINUOUS
10
0.3008
20
0.632206
11
0.300244
21
0.633318
0
LINE
8
BLACK
6
CONTINUOUS
10
0.300244
20
0.633318
11
0.290114
21
0.633318
0
LINE
8
BLACK
6
CONTINUOUS
10
0.290114
20
0.633318
11
0.290114
21
0.620933
0
LINE
8
BLACK
6
CONTINUOUS
10
2.89362
20
0.676602
11
2.89531
21
0.674051
0
LINE
8
BLACK
6
CONTINUOUS
10
2.89531
20
0.674051
11
2.89549
21
0.670999
0
LINE
8
BLACK
6
CONTINUOUS
10
2.89549
20
0.670999
11
2.89412
21
0.668265
0
LINE
8
BLACK
6
CONTINUOUS
10
2.89412
20
0.668265
11
2.89157
21
0.666581
0
LINE
8
BLACK
6
CONTINUOUS
10
2.89157
20
0.666581
11
2.87874
21
0.662303
0
LINE
8
BLACK
6
CONTINUOUS
10
2.87874
20
0.662303
11
2.87874
21
0.642694
0
LINE
8
BLACK
6
CONTINUOUS
10
2.87874
20
0.642694
11
2.89157
21
0.638416
0
LINE
8
BLACK
6
CONTINUOUS
10
2.89157
20
0.638416
11
2.89412
21
0.636731
0
LINE
8
BLACK
6
CONTINUOUS
10
2.89412
20
0.636731
11
2.89549
21
0.633997
0
LINE
8
BLACK
6
CONTINUOUS
10
2.89549
20
0.633997
11
2.89531
21
0.630946
0
LINE
8
BLACK
6
CONTINUOUS
10
2.89531
20
0.630946
11
2.89362
21
0.628395
0
LINE
8
BLACK
6
CONTINUOUS
10
2.89362
20
0.628395
11
2.89089
21
0.627028
0
LINE
8
BLACK
6
CONTINUOUS
10
2.89089
20
0.627028
11
2.88784
21
0.627211
0
LINE
8
BLACK
6
CONTINUOUS
10
2.88784
20
0.627211
11
2.82878
21
0.646896
0
LINE
8
BLACK
6
CONTINUOUS
10
2.82878
20
0.646896
11
2.82779
21
0.647549
0
LINE
8
BLACK
6
CONTINUOUS
10
2.82779
20
0.647549
11
2.82673
21
0.64808
0
LINE
8
BLACK
6
CONTINUOUS
10
2.82673
20
0.64808
11
2.82653
21
0.648381
0
LINE
8
BLACK
6
CONTINUOUS
10
2.82653
20
0.648381
11
2.82623
21
0.64858
0
LINE
8
BLACK
6
CONTINUOUS
10
2.82623
20
0.64858
11
2.8257
21
0.649641
0
LINE
8
BLACK
6
CONTINUOUS
10
2.8257
20
0.649641
11
2.82505
21
0.650631
0
LINE
8
BLACK
6
CONTINUOUS
10
2.82505
20
0.650631
11
2.82503
21
0.650991
0
LINE
8
BLACK
6
CONTINUOUS
10
2.82503
20
0.650991
11
2.82487
21
0.651314
0
LINE
8
BLACK
6
CONTINUOUS
10
2.82487
20
0.651314
11
2.82494
21
0.652498
0
LINE
8
BLACK
6
CONTINUOUS
10
2.82494
20
0.652498
11
2.82487
21
0.653682
0
LINE
8
BLACK
6
CONTINUOUS
10
2.82487
20
0.653682
11
2.82503
21
0.654005
0
LINE
8
BLACK
6
CONTINUOUS
10
2.82503
20
0.654005
11
2.82505
21
0.654366
0
LINE
8
BLACK
6
CONTINUOUS
10
2.82505
20
0.654366
11
2.8257
21
0.655356
0
LINE
8
BLACK
6
CONTINUOUS
10
2.8257
20
0.655356
11
2.82623
21
0.656417
0
LINE
8
BLACK
6
CONTINUOUS
10
2.82623
20
0.656417
11
2.82653
21
0.656616
0
LINE
8
BLACK
6
CONTINUOUS
10
2.82653
20
0.656616
11
2.82673
21
0.656917
0
LINE
8
BLACK
6
CONTINUOUS
10
2.82673
20
0.656917
11
2.82779
21
0.657447
0
LINE
8
BLACK
6
CONTINUOUS
10
2.82779
20
0.657447
11
2.82878
21
0.658101
0
LINE
8
BLACK
6
CONTINUOUS
10
2.82878
20
0.658101
11
2.88784
21
0.677786
0
LINE
8
BLACK
6
CONTINUOUS
10
2.88784
20
0.677786
11
2.89089
21
0.677969
0
LINE
8
BLACK
6
CONTINUOUS
10
2.89089
20
0.677969
11
2.89362
21
0.676602
0
LINE
8
BLACK
6
CONTINUOUS
10
2.84933
20
0.652498
11
2.86693
21
0.646631
0
LINE
8
BLACK
6
CONTINUOUS
10
2.86693
20
0.646631
11
2.86693
21
0.658366
0
LINE
8
BLACK
6
CONTINUOUS
10
2.86693
20
0.658366
11
2.84933
21
0.652498
0
LINE
8
BLACK
6
CONTINUOUS
10
0.309026
20
0.695273
11
0.31143
21
0.693386
0
LINE
8
BLACK
6
CONTINUOUS
10
0.31143
20
0.693386
11
0.312569
21
0.690549
0
LINE
8
BLACK
6
CONTINUOUS
10
0.312569
20
0.690549
11
0.312137
21
0.687523
0
LINE
8
BLACK
6
CONTINUOUS
10
0.312137
20
0.687523
11
0.310249
21
0.685118
0
LINE
8
BLACK
6
CONTINUOUS
10
0.310249
20
0.685118
11
0.294426
21
0.673251
0
LINE
8
BLACK
6
CONTINUOUS
10
0.294426
20
0.673251
11
0.306706
21
0.673251
0
LINE
8
BLACK
6
CONTINUOUS
10
0.306706
20
0.673251
11
0.309659
21
0.67246
0
LINE
8
BLACK
6
CONTINUOUS
10
0.309659
20
0.67246
11
0.31182
21
0.670298
0
LINE
8
BLACK
6
CONTINUOUS
10
0.31182
20
0.670298
11
0.312611
21
0.667345
0
LINE
8
BLACK
6
CONTINUOUS
10
0.312611
20
0.667345
11
0.31182
21
0.664393
0
LINE
8
BLACK
6
CONTINUOUS
10
0.31182
20
0.664393
11
0.309659
21
0.662231
0
LINE
8
BLACK
6
CONTINUOUS
10
0.309659
20
0.662231
11
0.306706
21
0.66144
0
LINE
8
BLACK
6
CONTINUOUS
10
0.306706
20
0.66144
11
0.247651
21
0.66144
0
LINE
8
BLACK
6
CONTINUOUS
10
0.247651
20
0.66144
11
0.244698
21
0.662231
0
LINE
8
BLACK
6
CONTINUOUS
10
0.244698
20
0.662231
11
0.242536
21
0.664393
0
LINE
8
BLACK
6
CONTINUOUS
10
0.242536
20
0.664393
11
0.241745
21
0.667345
0
LINE
8
BLACK
6
CONTINUOUS
10
0.241745
20
0.667345
11
0.242536
21
0.670298
0
LINE
8
BLACK
6
CONTINUOUS
10
0.242536
20
0.670298
11
0.244698
21
0.67246
0
LINE
8
BLACK
6
CONTINUOUS
10
0.244698
20
0.67246
11
0.247651
21
0.673251
0
LINE
8
BLACK
6
CONTINUOUS
10
0.247651
20
0.673251
11
0.275576
21
0.673251
0
LINE
8
BLACK
6
CONTINUOUS
10
0.275576
20
0.673251
11
0.26316
21
0.685667
0
LINE
8
BLACK
6
CONTINUOUS
10
0.26316
20
0.685667
11
0.261631
21
0.688314
0
LINE
8
BLACK
6
CONTINUOUS
10
0.261631
20
0.688314
11
0.261631
21
0.691371
0
LINE
8
BLACK
6
CONTINUOUS
10
0.261631
20
0.691371
11
0.26316
21
0.694018
0
LINE
8
BLACK
6
CONTINUOUS
10
0.26316
20
0.694018
11
0.265807
21
0.695547
0
LINE
8
BLACK
6
CONTINUOUS
10
0.265807
20
0.695547
11
0.268864
21
0.695547
0
LINE
8
BLACK
6
CONTINUOUS
10
0.268864
20
0.695547
11
0.271512
21
0.694018
0
LINE
8
BLACK
6
CONTINUOUS
10
0.271512
20
0.694018
11
0.284763
21
0.680767
0
LINE
8
BLACK
6
CONTINUOUS
10
0.284763
20
0.680767
11
0.303163
21
0.694567
0
LINE
8
BLACK
6
CONTINUOUS
10
0.303163
20
0.694567
11
0.305999
21
0.695706
0
LINE
8
BLACK
6
CONTINUOUS
10
0.305999
20
0.695706
11
0.309026
21
0.695273
0
LINE
8
BLACK
6
CONTINUOUS
10
2.89266
20
0.696983
11
2.89482
21
0.694821
0
LINE
8
BLACK
6
CONTINUOUS
10
2.89482
20
0.694821
11
2.89561
21
0.691868
0
LINE
8
BLACK
6
CONTINUOUS
10
2.89561
20
0.691868
11
2.89482
21
0.688916
0
LINE
8
BLACK
6
CONTINUOUS
10
2.89482
20
0.688916
11
2.89266
21
0.686754
0
LINE
8
BLACK
6
CONTINUOUS
10
2.89266
20
0.686754
11
2.88971
21
0.685963
0
LINE
8
BLACK
6
CONTINUOUS
10
2.88971
20
0.685963
11
2.83065
21
0.685963
0
LINE
8
BLACK
6
CONTINUOUS
10
2.83065
20
0.685963
11
2.8277
21
0.686754
0
LINE
8
BLACK
6
CONTINUOUS
10
2.8277
20
0.686754
11
2.82554
21
0.688916
0
LINE
8
BLACK
6
CONTINUOUS
10
2.82554
20
0.688916
11
2.82475
21
0.691868
0
LINE
8
BLACK
6
CONTINUOUS
10
2.82475
20
0.691868
11
2.82554
21
0.694821
0
LINE
8
BLACK
6
CONTINUOUS
10
2.82554
20
0.694821
11
2.8277
21
0.696983
0
LINE
8
BLACK
6
CONTINUOUS
10
2.8277
20
0.696983
11
2.83065
21
0.697774
0
LINE
8
BLACK
6
CONTINUOUS
10
2.83065
20
0.697774
11
2.88971
21
0.697774
0
LINE
8
BLACK
6
CONTINUOUS
10
2.88971
20
0.697774
11
2.89266
21
0.696983
0
LINE
8
BLACK
6
CONTINUOUS
10
0.309347
20
0.72887
11
0.311634
21
0.726842
0
LINE
8
BLACK
6
CONTINUOUS
10
0.311634
20
0.726842
11
0.312601
21
0.723942
0
LINE
8
BLACK
6
CONTINUOUS
10
0.312601
20
0.723942
11
0.311988
21
0.720947
0
LINE
8
BLACK
6
CONTINUOUS
10
0.311988
20
0.720947
11
0.309176
21
0.715323
0
LINE
8
BLACK
6
CONTINUOUS
10
0.309176
20
0.715323
11
0.308936
21
0.715053
0
LINE
8
BLACK
6
CONTINUOUS
10
0.308936
20
0.715053
11
0.308822
21
0.71471
0
LINE
8
BLACK
6
CONTINUOUS
10
0.308822
20
0.71471
11
0.307934
21
0.713923
0
LINE
8
BLACK
6
CONTINUOUS
10
0.307934
20
0.713923
11
0.307148
21
0.713036
0
LINE
8
BLACK
6
CONTINUOUS
10
0.307148
20
0.713036
11
0.306805
21
0.712922
0
LINE
8
BLACK
6
CONTINUOUS
10
0.306805
20
0.712922
11
0.306535
21
0.712682
0
LINE
8
BLACK
6
CONTINUOUS
10
0.306535
20
0.712682
11
0.30091
21
0.70987
0
LINE
8
BLACK
6
CONTINUOUS
10
0.30091
20
0.70987
11
0.29958
21
0.709598
0
LINE
8
BLACK
6
CONTINUOUS
10
0.29958
20
0.709598
11
0.298269
21
0.709246
0
LINE
8
BLACK
6
CONTINUOUS
10
0.298269
20
0.709246
11
0.247651
21
0.709246
0
LINE
8
BLACK
6
CONTINUOUS
10
0.247651
20
0.709246
11
0.244698
21
0.710038
0
LINE
8
BLACK
6
CONTINUOUS
10
0.244698
20
0.710038
11
0.242536
21
0.712199
0
LINE
8
BLACK
6
CONTINUOUS
10
0.242536
20
0.712199
11
0.241745
21
0.715152
0
LINE
8
BLACK
6
CONTINUOUS
10
0.241745
20
0.715152
11
0.242536
21
0.718105
0
LINE
8
BLACK
6
CONTINUOUS
10
0.242536
20
0.718105
11
0.244698
21
0.720266
0
LINE
8
BLACK
6
CONTINUOUS
10
0.244698
20
0.720266
11
0.247651
21
0.721057
0
LINE
8
BLACK
6
CONTINUOUS
10
0.247651
20
0.721057
11
0.296875
21
0.721057
0
LINE
8
BLACK
6
CONTINUOUS
10
0.296875
20
0.721057
11
0.299492
21
0.722366
0
LINE
8
BLACK
6
CONTINUOUS
10
0.299492
20
0.722366
11
0.301424
21
0.726229
0
LINE
8
BLACK
6
CONTINUOUS
10
0.301424
20
0.726229
11
0.303452
21
0.728517
0
LINE
8
BLACK
6
CONTINUOUS
10
0.303452
20
0.728517
11
0.306352
21
0.729483
0
LINE
8
BLACK
6
CONTINUOUS
10
0.306352
20
0.729483
11
0.309347
21
0.72887
0
LINE
8
BLACK
6
CONTINUOUS
10
2.85165
20
0.75929
11
2.85298
21
0.759018
0
LINE
8
BLACK
6
CONTINUOUS
10
2.85298
20
0.759018
11
2.8586
21
0.756206
0
LINE
8
BLACK
6
CONTINUOUS
10
2.8586
20
0.756206
11
2.85931
21
0.755575
0
LINE
8
BLACK
6
CONTINUOUS
10
2.85931
20
0.755575
11
2.86014
21
0.755099
0
LINE
8
BLACK
6
CONTINUOUS
10
2.86014
20
0.755099
11
2.86295
21
0.752287
0
LINE
8
BLACK
6
CONTINUOUS
10
2.86295
20
0.752287
11
2.86342
21
0.751464
0
LINE
8
BLACK
6
CONTINUOUS
10
2.86342
20
0.751464
11
2.86405
21
0.750752
0
LINE
8
BLACK
6
CONTINUOUS
10
2.86405
20
0.750752
11
2.86687
21
0.745128
0
LINE
8
BLACK
6
CONTINUOUS
10
2.86687
20
0.745128
11
2.8669
21
0.744978
0
LINE
8
BLACK
6
CONTINUOUS
10
2.8669
20
0.744978
11
2.88632
21
0.758574
0
LINE
8
BLACK
6
CONTINUOUS
10
2.88632
20
0.758574
11
2.88919
21
0.759619
0
LINE
8
BLACK
6
CONTINUOUS
10
2.88919
20
0.759619
11
2.8922
21
0.759088
0
LINE
8
BLACK
6
CONTINUOUS
10
2.8922
20
0.759088
11
2.89454
21
0.757122
0
LINE
8
BLACK
6
CONTINUOUS
10
2.89454
20
0.757122
11
2.89559
21
0.75425
0
LINE
8
BLACK
6
CONTINUOUS
10
2.89559
20
0.75425
11
2.89506
21
0.751239
0
LINE
8
BLACK
6
CONTINUOUS
10
2.89506
20
0.751239
11
2.89309
21
0.748898
0
LINE
8
BLACK
6
CONTINUOUS
10
2.89309
20
0.748898
11
2.86749
21
0.730976
0
LINE
8
BLACK
6
CONTINUOUS
10
2.86749
20
0.730976
11
2.86749
21
0.725895
0
LINE
8
BLACK
6
CONTINUOUS
10
2.86749
20
0.725895
11
2.88971
21
0.725895
0
LINE
8
BLACK
6
CONTINUOUS
10
2.88971
20
0.725895
11
2.89266
21
0.725104
0
LINE
8
BLACK
6
CONTINUOUS
10
2.89266
20
0.725104
11
2.89482
21
0.722943
0
LINE
8
BLACK
6
CONTINUOUS
10
2.89482
20
0.722943
11
2.89561
21
0.71999
0
LINE
8
BLACK
6
CONTINUOUS
10
2.89561
20
0.71999
11
2.89482
21
0.717037
0
LINE
8
BLACK
6
CONTINUOUS
10
2.89482
20
0.717037
11
2.89266
21
0.714876
0
LINE
8
BLACK
6
CONTINUOUS
10
2.89266
20
0.714876
11
2.88971
21
0.714084
0
LINE
8
BLACK
6
CONTINUOUS
10
2.88971
20
0.714084
11
2.86158
21
0.714084
0
LINE
8
BLACK
6
CONTINUOUS
10
2.86158
20
0.714084
11
2.83065
21
0.714084
0
LINE
8
BLACK
6
CONTINUOUS
10
2.83065
20
0.714084
11
2.8277
21
0.714876
0
LINE
8
BLACK
6
CONTINUOUS
10
2.8277
20
0.714876
11
2.82554
21
0.717037
0
LINE
8
BLACK
6
CONTINUOUS
10
2.82554
20
0.717037
11
2.82475
21
0.71999
0
LINE
8
BLACK
6
CONTINUOUS
10
2.82475
20
0.71999
11
2.82475
21
0.742487
0
LINE
8
BLACK
6
CONTINUOUS
10
2.82475
20
0.742487
11
2.8251
21
0.743798
0
LINE
8
BLACK
6
CONTINUOUS
10
2.8251
20
0.743798
11
2.82537
21
0.745128
0
LINE
8
BLACK
6
CONTINUOUS
10
2.82537
20
0.745128
11
2.82818
21
0.750752
0
LINE
8
BLACK
6
CONTINUOUS
10
2.82818
20
0.750752
11
2.82881
21
0.751464
0
LINE
8
BLACK
6
CONTINUOUS
10
2.82881
20
0.751464
11
2.82929
21
0.752287
0
LINE
8
BLACK
6
CONTINUOUS
10
2.82929
20
0.752287
11
2.8321
21
0.755099
0
LINE
8
BLACK
6
CONTINUOUS
10
2.8321
20
0.755099
11
2.83292
21
0.755575
0
LINE
8
BLACK
6
CONTINUOUS
10
2.83292
20
0.755575
11
2.83363
21
0.756206
0
LINE
8
BLACK
6
CONTINUOUS
10
2.83363
20
0.756206
11
2.83926
21
0.759018
0
LINE
8
BLACK
6
CONTINUOUS
10
2.83926
20
0.759018
11
2.84059
21
0.75929
0
LINE
8
BLACK
6
CONTINUOUS
10
2.84059
20
0.75929
11
2.8419
21
0.759641
0
LINE
8
BLACK
6
CONTINUOUS
10
2.8419
20
0.759641
11
2.85034
21
0.759641
0
LINE
8
BLACK
6
CONTINUOUS
10
2.85034
20
0.759641
11
2.85165
21
0.75929
0
LINE
8
BLACK
6
CONTINUOUS
10
2.83977
20
0.74607
11
2.83832
21
0.744613
0
LINE
8
BLACK
6
CONTINUOUS
10
2.83832
20
0.744613
11
2.83656
21
0.741093
0
LINE
8
BLACK
6
CONTINUOUS
10
2.83656
20
0.741093
11
2.83656
21
0.725895
0
LINE
8
BLACK
6
CONTINUOUS
10
2.83656
20
0.725895
11
2.85568
21
0.725895
0
LINE
8
BLACK
6
CONTINUOUS
10
2.85568
20
0.725895
11
2.85568
21
0.741093
0
LINE
8
BLACK
6
CONTINUOUS
10
2.85568
20
0.741093
11
2.85392
21
0.744613
0
LINE
8
BLACK
6
CONTINUOUS
10
2.85392
20
0.744613
11
2.85246
21
0.74607
0
LINE
8
BLACK
6
CONTINUOUS
10
2.85246
20
0.74607
11
2.84894
21
0.74783
0
LINE
8
BLACK
6
CONTINUOUS
10
2.84894
20
0.74783
11
2.84329
21
0.74783
0
LINE
8
BLACK
6
CONTINUOUS
10
2.84329
20
0.74783
11
2.83977
21
0.74607
0
LINE
8
BLACK
6
CONTINUOUS
10
2.26859
20
0.878699
11
2.28365
21
0.863637
0
LINE
8
BLACK
6
CONTINUOUS
10
2.28365
20
0.863637
11
2.3041
21
0.878973
0
LINE
8
BLACK
6
CONTINUOUS
10
2.3041
20
0.878973
11
2.30502
21
0.879437
0
LINE
8
BLACK
6
CONTINUOUS
10
2.30502
20
0.879437
11
2.30703
21
0.879327
0
LINE
8
BLACK
6
CONTINUOUS
10
2.30703
20
0.879327
11
2.30851
21
0.877946
0
LINE
8
BLACK
6
CONTINUOUS
10
2.30851
20
0.877946
11
2.30875
21
0.87594
0
LINE
8
BLACK
6
CONTINUOUS
10
2.30875
20
0.87594
11
2.30765
21
0.874249
0
LINE
8
BLACK
6
CONTINUOUS
10
2.30765
20
0.874249
11
2.28787
21
0.859419
0
LINE
8
BLACK
6
CONTINUOUS
10
2.28787
20
0.859419
11
2.29022
21
0.857067
0
LINE
8
BLACK
6
CONTINUOUS
10
2.29022
20
0.857067
11
2.30587
21
0.857067
0
LINE
8
BLACK
6
CONTINUOUS
10
2.30587
20
0.857067
11
2.30688
21
0.856889
0
LINE
8
BLACK
6
CONTINUOUS
10
2.30688
20
0.856889
11
2.30843
21
0.85559
0
LINE
8
BLACK
6
CONTINUOUS
10
2.30843
20
0.85559
11
2.30878
21
0.853601
0
LINE
8
BLACK
6
CONTINUOUS
10
2.30878
20
0.853601
11
2.30777
21
0.851852
0
LINE
8
BLACK
6
CONTINUOUS
10
2.30777
20
0.851852
11
2.30587
21
0.851161
0
LINE
8
BLACK
6
CONTINUOUS
10
2.30587
20
0.851161
11
2.2665
21
0.851161
0
LINE
8
BLACK
6
CONTINUOUS
10
2.2665
20
0.851161
11
2.26549
21
0.851339
0
LINE
8
BLACK
6
CONTINUOUS
10
2.26549
20
0.851339
11
2.26395
21
0.852638
0
LINE
8
BLACK
6
CONTINUOUS
10
2.26395
20
0.852638
11
2.2636
21
0.854627
0
LINE
8
BLACK
6
CONTINUOUS
10
2.2636
20
0.854627
11
2.26461
21
0.856376
0
LINE
8
BLACK
6
CONTINUOUS
10
2.26461
20
0.856376
11
2.2665
21
0.857067
0
LINE
8
BLACK
6
CONTINUOUS
10
2.2665
20
0.857067
11
2.28187
21
0.857067
0
LINE
8
BLACK
6
CONTINUOUS
10
2.28187
20
0.857067
11
2.26442
21
0.874523
0
LINE
8
BLACK
6
CONTINUOUS
10
2.26442
20
0.874523
11
2.26383
21
0.875363
0
LINE
8
BLACK
6
CONTINUOUS
10
2.26383
20
0.875363
11
2.26365
21
0.877375
0
LINE
8
BLACK
6
CONTINUOUS
10
2.26365
20
0.877375
11
2.26481
21
0.87903
0
LINE
8
BLACK
6
CONTINUOUS
10
2.26481
20
0.87903
11
2.26676
21
0.879553
0
LINE
8
BLACK
6
CONTINUOUS
10
2.26676
20
0.879553
11
2.26859
21
0.878699
0
LINE
8
BLACK
6
CONTINUOUS
10
2.13958
20
1.01071
11
2.13972
21
1.01073
0
LINE
8
BLACK
6
CONTINUOUS
10
2.13972
20
1.01073
11
2.14722
21
1.00885
0
LINE
8
BLACK
6
CONTINUOUS
10
2.14722
20
1.00885
11
2.14768
21
1.00865
0
LINE
8
BLACK
6
CONTINUOUS
10
2.14768
20
1.00865
11
2.14782
21
1.00863
0
LINE
8
BLACK
6
CONTINUOUS
10
2.14782
20
1.00863
11
2.15157
21
1.00676
0
LINE
8
BLACK
6
CONTINUOUS
10
2.15157
20
1.00676
11
2.15228
21
1.00623
0
LINE
8
BLACK
6
CONTINUOUS
10
2.15228
20
1.00623
11
2.15234
21
1.0062
0
LINE
8
BLACK
6
CONTINUOUS
10
2.15234
20
1.0062
11
2.15609
21
1.00245
0
LINE
8
BLACK
6
CONTINUOUS
10
2.15609
20
1.00245
11
2.15668
21
1.00161
0
LINE
8
BLACK
6
CONTINUOUS
10
2.15668
20
1.00161
11
2.15669
21
1.00144
0
LINE
8
BLACK
6
CONTINUOUS
10
2.15669
20
1.00144
11
2.1568
21
1.0013
0
LINE
8
BLACK
6
CONTINUOUS
10
2.1568
20
1.0013
11
2.15868
21
0.995674
0
LINE
8
BLACK
6
CONTINUOUS
10
2.15868
20
0.995674
11
2.15881
21
0.994801
0
LINE
8
BLACK
6
CONTINUOUS
10
2.15881
20
0.994801
11
2.15883
21
0.99474
0
LINE
8
BLACK
6
CONTINUOUS
10
2.15883
20
0.99474
11
2.15883
21
0.985366
0
LINE
8
BLACK
6
CONTINUOUS
10
2.15883
20
0.985366
11
2.15876
21
0.984983
0
LINE
8
BLACK
6
CONTINUOUS
10
2.15876
20
0.984983
11
2.15878
21
0.984854
0
LINE
8
BLACK
6
CONTINUOUS
10
2.15878
20
0.984854
11
2.15872
21
0.98474
0
LINE
8
BLACK
6
CONTINUOUS
10
2.15872
20
0.98474
11
2.15865
21
0.984356
0
LINE
8
BLACK
6
CONTINUOUS
10
2.15865
20
0.984356
11
2.15816
21
0.983769
0
LINE
8
BLACK
6
CONTINUOUS
10
2.15816
20
0.983769
11
2.15777
21
0.983104
0
LINE
8
BLACK
6
CONTINUOUS
10
2.15777
20
0.983104
11
2.15752
21
0.983013
0
LINE
8
BLACK
6
CONTINUOUS
10
2.15752
20
0.983013
11
2.15735
21
0.982809
0
LINE
8
BLACK
6
CONTINUOUS
10
2.15735
20
0.982809
11
2.1566
21
0.982676
0
LINE
8
BLACK
6
CONTINUOUS
10
2.1566
20
0.982676
11
2.15587
21
0.982414
0
LINE
8
BLACK
6
CONTINUOUS
10
2.15587
20
0.982414
11
2.1165
21
0.982414
0
LINE
8
BLACK
6
CONTINUOUS
10
2.1165
20
0.982414
11
2.11612
21
0.982481
0
LINE
8
BLACK
6
CONTINUOUS
10
2.11612
20
0.982481
11
2.11599
21
0.982458
0
LINE
8
BLACK
6
CONTINUOUS
10
2.11599
20
0.982458
11
2.11588
21
0.982524
0
LINE
8
BLACK
6
CONTINUOUS
10
2.11588
20
0.982524
11
2.11549
21
0.982592
0
LINE
8
BLACK
6
CONTINUOUS
10
2.11549
20
0.982592
11
2.11491
21
0.983085
0
LINE
8
BLACK
6
CONTINUOUS
10
2.11491
20
0.983085
11
2.11424
21
0.983468
0
LINE
8
BLACK
6
CONTINUOUS
10
2.11424
20
0.983468
11
2.11415
21
0.983719
0
LINE
8
BLACK
6
CONTINUOUS
10
2.11415
20
0.983719
11
2.11395
21
0.98389
0
LINE
8
BLACK
6
CONTINUOUS
10
2.11395
20
0.98389
11
2.11381
21
0.984646
0
LINE
8
BLACK
6
CONTINUOUS
10
2.11381
20
0.984646
11
2.11355
21
0.985366
0
LINE
8
BLACK
6
CONTINUOUS
10
2.11355
20
0.985366
11
2.11355
21
0.99474
0
LINE
8
BLACK
6
CONTINUOUS
10
2.11355
20
0.99474
11
2.11371
21
0.99561
0
LINE
8
BLACK
6
CONTINUOUS
10
2.11371
20
0.99561
11
2.1137
21
0.995674
0
LINE
8
BLACK
6
CONTINUOUS
10
2.1137
20
0.995674
11
2.11558
21
1.0013
0
LINE
8
BLACK
6
CONTINUOUS
10
2.11558
20
1.0013
11
2.11607
21
1.0022
0
LINE
8
BLACK
6
CONTINUOUS
10
2.11607
20
1.0022
11
2.11622
21
1.00229
0
LINE
8
BLACK
6
CONTINUOUS
10
2.11622
20
1.00229
11
2.11629
21
1.00245
0
LINE
8
BLACK
6
CONTINUOUS
10
2.11629
20
1.00245
11
2.12004
21
1.0062
0
LINE
8
BLACK
6
CONTINUOUS
10
2.12004
20
1.0062
11
2.12076
21
1.00671
0
LINE
8
BLACK
6
CONTINUOUS
10
2.12076
20
1.00671
11
2.12081
21
1.00676
0
LINE
8
BLACK
6
CONTINUOUS
10
2.12081
20
1.00676
11
2.12456
21
1.00863
0
LINE
8
BLACK
6
CONTINUOUS
10
2.12456
20
1.00863
11
2.12505
21
1.00878
0
LINE
8
BLACK
6
CONTINUOUS
10
2.12505
20
1.00878
11
2.12516
21
1.00885
0
LINE
8
BLACK
6
CONTINUOUS
10
2.12516
20
1.00885
11
2.13266
21
1.01073
0
LINE
8
BLACK
6
CONTINUOUS
10
2.13266
20
1.01073
11
2.13325
21
1.01077
0
LINE
8
BLACK
6
CONTINUOUS
10
2.13325
20
1.01077
11
2.13338
21
1.01082
0
LINE
8
BLACK
6
CONTINUOUS
10
2.13338
20
1.01082
11
2.139
21
1.01082
0
LINE
8
BLACK
6
CONTINUOUS
10
2.139
20
1.01082
11
2.13958
21
1.01071
0
LINE
8
BLACK
6
CONTINUOUS
10
2.12691
20
1.0032
11
2.12388
21
1.00169
0
LINE
8
BLACK
6
CONTINUOUS
10
2.12388
20
1.00169
11
2.12096
21
0.998769
0
LINE
8
BLACK
6
CONTINUOUS
10
2.12096
20
0.998769
11
2.11946
21
0.994261
0
LINE
8
BLACK
6
CONTINUOUS
10
2.11946
20
0.994261
11
2.11946
21
0.988319
0
LINE
8
BLACK
6
CONTINUOUS
10
2.11946
20
0.988319
11
2.15292
21
0.988319
0
LINE
8
BLACK
6
CONTINUOUS
10
2.15292
20
0.988319
11
2.15292
21
0.994261
0
LINE
8
BLACK
6
CONTINUOUS
10
2.15292
20
0.994261
11
2.15142
21
0.998769
0
LINE
8
BLACK
6
CONTINUOUS
10
2.15142
20
0.998769
11
2.1485
21
1.00169
0
LINE
8
BLACK
6
CONTINUOUS
10
2.1485
20
1.00169
11
2.14547
21
1.0032
0
LINE
8
BLACK
6
CONTINUOUS
10
2.14547
20
1.0032
11
2.13864
21
1.00491
0
LINE
8
BLACK
6
CONTINUOUS
10
2.13864
20
1.00491
11
2.13374
21
1.00491
0
LINE
8
BLACK
6
CONTINUOUS
10
2.13374
20
1.00491
11
2.12691
21
1.0032
0
LINE
8
BLACK
6
CONTINUOUS
10
2.15814
20
1.04726
11
2.15883
21
1.04536
0
LINE
8
BLACK
6
CONTINUOUS
10
2.15883
20
1.04536
11
2.15883
21
1.02286
0
LINE
8
BLACK
6
CONTINUOUS
10
2.15883
20
1.02286
11
2.15865
21
1.02185
0
LINE
8
BLACK
6
CONTINUOUS
10
2.15865
20
1.02185
11
2.15735
21
1.0203
0
LINE
8
BLACK
6
CONTINUOUS
10
2.15735
20
1.0203
11
2.15536
21
1.01995
0
LINE
8
BLACK
6
CONTINUOUS
10
2.15536
20
1.01995
11
2.15361
21
1.02096
0
LINE
8
BLACK
6
CONTINUOUS
10
2.15361
20
1.02096
11
2.15292
21
1.02286
0
LINE
8
BLACK
6
CONTINUOUS
10
2.15292
20
1.02286
11
2.15292
21
1.03116
0
LINE
8
BLACK
6
CONTINUOUS
10
2.15292
20
1.03116
11
2.12551
21
1.03116
0
LINE
8
BLACK
6
CONTINUOUS
10
2.12551
20
1.03116
11
2.12797
21
1.0287
0
LINE
8
BLACK
6
CONTINUOUS
10
2.12797
20
1.0287
11
2.12847
21
1.02798
0
LINE
8
BLACK
6
CONTINUOUS
10
2.12847
20
1.02798
11
2.12852
21
1.02793
0
LINE
8
BLACK
6
CONTINUOUS
10
2.12852
20
1.02793
11
2.13039
21
1.02418
0
LINE
8
BLACK
6
CONTINUOUS
10
2.13039
20
1.02418
11
2.13069
21
1.0232
0
LINE
8
BLACK
6
CONTINUOUS
10
2.13069
20
1.0232
11
2.13022
21
1.02123
0
LINE
8
BLACK
6
CONTINUOUS
10
2.13022
20
1.02123
11
2.1286
21
1.02003
0
LINE
8
BLACK
6
CONTINUOUS
10
2.1286
20
1.02003
11
2.12658
21
1.02015
0
LINE
8
BLACK
6
CONTINUOUS
10
2.12658
20
1.02015
11
2.12511
21
1.02154
0
LINE
8
BLACK
6
CONTINUOUS
10
2.12511
20
1.02154
11
2.12345
21
1.02486
0
LINE
8
BLACK
6
CONTINUOUS
10
2.12345
20
1.02486
11
2.12025
21
1.02807
0
LINE
8
BLACK
6
CONTINUOUS
10
2.12025
20
1.02807
11
2.11487
21
1.03165
0
LINE
8
BLACK
6
CONTINUOUS
10
2.11487
20
1.03165
11
2.11413
21
1.03236
0
LINE
8
BLACK
6
CONTINUOUS
10
2.11413
20
1.03236
11
2.11408
21
1.03252
0
LINE
8
BLACK
6
CONTINUOUS
10
2.11408
20
1.03252
11
2.11395
21
1.03263
0
LINE
8
BLACK
6
CONTINUOUS
10
2.11395
20
1.03263
11
2.1138
21
1.03348
0
LINE
8
BLACK
6
CONTINUOUS
10
2.1138
20
1.03348
11
2.11356
21
1.0343
0
LINE
8
BLACK
6
CONTINUOUS
10
2.11356
20
1.0343
11
2.11363
21
1.03446
0
LINE
8
BLACK
6
CONTINUOUS
10
2.11363
20
1.03446
11
2.1136
21
1.03462
0
LINE
8
BLACK
6
CONTINUOUS
10
2.1136
20
1.03462
11
2.11403
21
1.03537
0
LINE
8
BLACK
6
CONTINUOUS
10
2.11403
20
1.03537
11
2.11437
21
1.03615
0
LINE
8
BLACK
6
CONTINUOUS
10
2.11437
20
1.03615
11
2.11452
21
1.03623
0
LINE
8
BLACK
6
CONTINUOUS
10
2.11452
20
1.03623
11
2.11461
21
1.03637
0
LINE
8
BLACK
6
CONTINUOUS
10
2.11461
20
1.03637
11
2.11541
21
1.03667
0
LINE
8
BLACK
6
CONTINUOUS
10
2.11541
20
1.03667
11
2.11618
21
1.03705
0
LINE
8
BLACK
6
CONTINUOUS
10
2.11618
20
1.03705
11
2.11635
21
1.037
0
LINE
8
BLACK
6
CONTINUOUS
10
2.11635
20
1.037
11
2.1165
21
1.03706
0
LINE
8
BLACK
6
CONTINUOUS
10
2.1165
20
1.03706
11
2.15292
21
1.03706
0
LINE
8
BLACK
6
CONTINUOUS
10
2.15292
20
1.03706
11
2.15292
21
1.04536
0
LINE
8
BLACK
6
CONTINUOUS
10
2.15292
20
1.04536
11
2.1531
21
1.04637
0
LINE
8
BLACK
6
CONTINUOUS
10
2.1531
20
1.04637
11
2.1544
21
1.04792
0
LINE
8
BLACK
6
CONTINUOUS
10
2.1544
20
1.04792
11
2.15639
21
1.04827
0
LINE
8
BLACK
6
CONTINUOUS
10
2.15639
20
1.04827
11
2.15814
21
1.04726
0
LINE
8
BLACK
6
CONTINUOUS
10
2.43797
20
1.29592
11
2.43936
21
1.29534
0
LINE
8
BLACK
6
CONTINUOUS
10
2.43936
20
1.29534
11
2.43994
21
1.29395
0
LINE
8
BLACK
6
CONTINUOUS
10
2.43994
20
1.29395
11
2.43994
21
0.734898
0
LINE
8
BLACK
6
CONTINUOUS
10
2.43994
20
0.734898
11
2.43936
21
0.733506
0
LINE
8
BLACK
6
CONTINUOUS
10
2.43936
20
0.733506
11
2.43797
21
0.732929
0
LINE
8
BLACK
6
CONTINUOUS
10
2.43797
20
0.732929
11
1.37498
21
0.732929
0
LINE
8
BLACK
6
CONTINUOUS
10
1.37498
20
0.732929
11
1.37358
21
0.733506
0
LINE
8
BLACK
6
CONTINUOUS
10
1.37358
20
0.733506
11
1.37301
21
0.734898
0
LINE
8
BLACK
6
CONTINUOUS
10
1.37301
20
0.734898
11
1.37301
21
1.29395
0
LINE
8
BLACK
6
CONTINUOUS
10
1.37301
20
1.29395
11
1.37358
21
1.29534
0
LINE
8
BLACK
6
CONTINUOUS
10
1.37358
20
1.29534
11
1.37498
21
1.29592
0
LINE
8
BLACK
6
CONTINUOUS
10
1.37498
20
1.29592
11
2.43797
21
1.29592
0
LINE
8
BLACK
6
CONTINUOUS
10
1.37694
20
1.29198
11
1.37694
21
0.736866
0
LINE
8
BLACK
6
CONTINUOUS
10
1.37694
20
0.736866
11
2.436
21
0.736866
0
LINE
8
BLACK
6
CONTINUOUS
10
2.436
20
0.736866
11
2.436
21
1.29198
0
LINE
8
BLACK
6
CONTINUOUS
10
2.436
20
1.29198
11
1.37694
21
1.29198
0
LINE
8
BLACK
6
CONTINUOUS
10
0.25352
20
0.753719
11
0.254639
21
0.753074
0
LINE
8
BLACK
6
CONTINUOUS
10
0.254639
20
0.753074
11
0.254639
21
0.753073
0
LINE
8
BLACK
6
CONTINUOUS
10
0.254639
20
0.753073
11
0.257451
21
0.750261
0
LINE
8
BLACK
6
CONTINUOUS
10
0.257451
20
0.750261
11
0.25784
21
0.749588
0
LINE
8
BLACK
6
CONTINUOUS
10
0.25784
20
0.749588
11
0.258389
21
0.749038
0
LINE
8
BLACK
6
CONTINUOUS
10
0.258389
20
0.749038
11
0.258591
21
0.748287
0
LINE
8
BLACK
6
CONTINUOUS
10
0.258591
20
0.748287
11
0.258979
21
0.747614
0
LINE
8
BLACK
6
CONTINUOUS
10
0.258979
20
0.747614
11
0.258979
21
0.747614
0
LINE
8
BLACK
6
CONTINUOUS
10
0.258979
20
0.747614
11
0.258979
21
0.746836
0
LINE
8
BLACK
6
CONTINUOUS
10
0.258979
20
0.746836
11
0.259181
21
0.746086
0
LINE
8
BLACK
6
CONTINUOUS
10
0.259181
20
0.746086
11
0.258979
21
0.745335
0
LINE
8
BLACK
6
CONTINUOUS
10
0.258979
20
0.745335
11
0.258979
21
0.744557
0
LINE
8
BLACK
6
CONTINUOUS
10
0.258979
20
0.744557
11
0.258591
21
0.743884
0
LINE
8
BLACK
6
CONTINUOUS
10
0.258591
20
0.743884
11
0.258389
21
0.743133
0
LINE
8
BLACK
6
CONTINUOUS
10
0.258389
20
0.743133
11
0.25784
21
0.742583
0
LINE
8
BLACK
6
CONTINUOUS
10
0.25784
20
0.742583
11
0.257451
21
0.74191
0
LINE
8
BLACK
6
CONTINUOUS
10
0.257451
20
0.74191
11
0.254639
21
0.739098
0
LINE
8
BLACK
6
CONTINUOUS
10
0.254639
20
0.739098
11
0.254639
21
0.739098
0
LINE
8
BLACK
6
CONTINUOUS
10
0.254639
20
0.739098
11
0.251991
21
0.737569
0
LINE
8
BLACK
6
CONTINUOUS
10
0.251991
20
0.737569
11
0.248934
21
0.737569
0
LINE
8
BLACK
6
CONTINUOUS
10
0.248934
20
0.737569
11
0.248934
21
0.737569
0
LINE
8
BLACK
6
CONTINUOUS
10
0.248934
20
0.737569
11
0.247406
21
0.738452
0
LINE
8
BLACK
6
CONTINUOUS
10
0.247406
20
0.738452
11
0.246287
21
0.739098
0
LINE
8
BLACK
6
CONTINUOUS
10
0.246287
20
0.739098
11
0.243475
21
0.74191
0
LINE
8
BLACK
6
CONTINUOUS
10
0.243475
20
0.74191
11
0.243475
21
0.74191
0
LINE
8
BLACK
6
CONTINUOUS
10
0.243475
20
0.74191
11
0.243086
21
0.742583
0
LINE
8
BLACK
6
CONTINUOUS
10
0.243086
20
0.742583
11
0.242536
21
0.743133
0
LINE
8
BLACK
6
CONTINUOUS
10
0.242536
20
0.743133
11
0.242335
21
0.743884
0
LINE
8
BLACK
6
CONTINUOUS
10
0.242335
20
0.743884
11
0.241946
21
0.744557
0
LINE
8
BLACK
6
CONTINUOUS
10
0.241946
20
0.744557
11
0.241946
21
0.745335
0
LINE
8
BLACK
6
CONTINUOUS
10
0.241946
20
0.745335
11
0.241745
21
0.746086
0
LINE
8
BLACK
6
CONTINUOUS
10
0.241745
20
0.746086
11
0.241946
21
0.746836
0
LINE
8
BLACK
6
CONTINUOUS
10
0.241946
20
0.746836
11
0.241946
21
0.747614
0
LINE
8
BLACK
6
CONTINUOUS
10
0.241946
20
0.747614
11
0.241946
21
0.747614
0
LINE
8
BLACK
6
CONTINUOUS
10
0.241946
20
0.747614
11
0.242335
21
0.748287
0
LINE
8
BLACK
6
CONTINUOUS
10
0.242335
20
0.748287
11
0.242536
21
0.749038
0
LINE
8
BLACK
6
CONTINUOUS
10
0.242536
20
0.749038
11
0.243086
21
0.749588
0
LINE
8
BLACK
6
CONTINUOUS
10
0.243086
20
0.749588
11
0.243475
21
0.750261
0
LINE
8
BLACK
6
CONTINUOUS
10
0.243475
20
0.750261
11
0.246287
21
0.753074
0
LINE
8
BLACK
6
CONTINUOUS
10
0.246287
20
0.753074
11
0.246287
21
0.753074
0
LINE
8
BLACK
6
CONTINUOUS
10
0.246287
20
0.753074
11
0.246287
21
0.753074
0
LINE
8
BLACK
6
CONTINUOUS
10
0.246287
20
0.753074
11
0.247406
21
0.75372
0
LINE
8
BLACK
6
CONTINUOUS
10
0.247406
20
0.75372
11
0.248934
21
0.754602
0
LINE
8
BLACK
6
CONTINUOUS
10
0.248934
20
0.754602
11
0.251991
21
0.754602
0
LINE
8
BLACK
6
CONTINUOUS
10
0.251991
20
0.754602
11
0.251991
21
0.754602
0
LINE
8
BLACK
6
CONTINUOUS
10
0.251991
20
0.754602
11
0.25352
21
0.753719
0
LINE
8
BLACK
6
CONTINUOUS
10
0.309659
20
0.7512
11
0.31182
21
0.749038
0
LINE
8
BLACK
6
CONTINUOUS
10
0.31182
20
0.749038
11
0.312611
21
0.746086
0
LINE
8
BLACK
6
CONTINUOUS
10
0.312611
20
0.746086
11
0.31182
21
0.743133
0
LINE
8
BLACK
6
CONTINUOUS
10
0.31182
20
0.743133
11
0.309659
21
0.740971
0
LINE
8
BLACK
6
CONTINUOUS
10
0.309659
20
0.740971
11
0.306706
21
0.74018
0
LINE
8
BLACK
6
CONTINUOUS
10
0.306706
20
0.74018
11
0.267336
21
0.74018
0
LINE
8
BLACK
6
CONTINUOUS
10
0.267336
20
0.74018
11
0.264383
21
0.740971
0
LINE
8
BLACK
6
CONTINUOUS
10
0.264383
20
0.740971
11
0.262221
21
0.743133
0
LINE
8
BLACK
6
CONTINUOUS
10
0.262221
20
0.743133
11
0.26143
21
0.746086
0
LINE
8
BLACK
6
CONTINUOUS
10
0.26143
20
0.746086
11
0.262221
21
0.749038
0
LINE
8
BLACK
6
CONTINUOUS
10
0.262221
20
0.749038
11
0.264383
21
0.7512
0
LINE
8
BLACK
6
CONTINUOUS
10
0.264383
20
0.7512
11
0.267336
21
0.751991
0
LINE
8
BLACK
6
CONTINUOUS
10
0.267336
20
0.751991
11
0.306706
21
0.751991
0
LINE
8
BLACK
6
CONTINUOUS
10
0.306706
20
0.751991
11
0.309659
21
0.7512
0
LINE
8
BLACK
6
CONTINUOUS
10
0.309026
20
0.802135
11
0.31143
21
0.800248
0
LINE
8
BLACK
6
CONTINUOUS
10
0.31143
20
0.800248
11
0.312569
21
0.797411
0
LINE
8
BLACK
6
CONTINUOUS
10
0.312569
20
0.797411
11
0.312137
21
0.794384
0
LINE
8
BLACK
6
CONTINUOUS
10
0.312137
20
0.794384
11
0.310249
21
0.79198
0
LINE
8
BLACK
6
CONTINUOUS
10
0.310249
20
0.79198
11
0.294426
21
0.780113
0
LINE
8
BLACK
6
CONTINUOUS
10
0.294426
20
0.780113
11
0.306706
21
0.780113
0
LINE
8
BLACK
6
CONTINUOUS
10
0.306706
20
0.780113
11
0.309659
21
0.779321
0
LINE
8
BLACK
6
CONTINUOUS
10
0.309659
20
0.779321
11
0.31182
21
0.77716
0
LINE
8
BLACK
6
CONTINUOUS
10
0.31182
20
0.77716
11
0.312611
21
0.774207
0
LINE
8
BLACK
6
CONTINUOUS
10
0.312611
20
0.774207
11
0.31182
21
0.771254
0
LINE
8
BLACK
6
CONTINUOUS
10
0.31182
20
0.771254
11
0.309659
21
0.769093
0
LINE
8
BLACK
6
CONTINUOUS
10
0.309659
20
0.769093
11
0.306706
21
0.768301
0
LINE
8
BLACK
6
CONTINUOUS
10
0.306706
20
0.768301
11
0.247651
21
0.768301
0
LINE
8
BLACK
6
CONTINUOUS
10
0.247651
20
0.768301
11
0.244698
21
0.769093
0
LINE
8
BLACK
6
CONTINUOUS
10
0.244698
20
0.769093
11
0.242536
21
0.771254
0
LINE
8
BLACK
6
CONTINUOUS
10
0.242536
20
0.771254
11
0.241745
21
0.774207
0
LINE
8
BLACK
6
CONTINUOUS
10
0.241745
20
0.774207
11
0.242536
21
0.77716
0
LINE
8
BLACK
6
CONTINUOUS
10
0.242536
20
0.77716
11
0.244698
21
0.779321
0
LINE
8
BLACK
6
CONTINUOUS
10
0.244698
20
0.779321
11
0.247651
21
0.780113
0
LINE
8
BLACK
6
CONTINUOUS
10
0.247651
20
0.780113
11
0.275576
21
0.780113
0
LINE
8
BLACK
6
CONTINUOUS
10
0.275576
20
0.780113
11
0.26316
21
0.792528
0
LINE
8
BLACK
6
CONTINUOUS
10
0.26316
20
0.792528
11
0.261631
21
0.795176
0
LINE
8
BLACK
6
CONTINUOUS
10
0.261631
20
0.795176
11
0.261631
21
0.798233
0
LINE
8
BLACK
6
CONTINUOUS
10
0.261631
20
0.798233
11
0.26316
21
0.80088
0
LINE
8
BLACK
6
CONTINUOUS
10
0.26316
20
0.80088
11
0.265807
21
0.802409
0
LINE
8
BLACK
6
CONTINUOUS
10
0.265807
20
0.802409
11
0.268864
21
0.802409
0
LINE
8
BLACK
6
CONTINUOUS
10
0.268864
20
0.802409
11
0.271512
21
0.80088
0
LINE
8
BLACK
6
CONTINUOUS
10
0.271512
20
0.80088
11
0.284763
21
0.787629
0
LINE
8
BLACK
6
CONTINUOUS
10
0.284763
20
0.787629
11
0.303163
21
0.801429
0
LINE
8
BLACK
6
CONTINUOUS
10
0.303163
20
0.801429
11
0.305999
21
0.802567
0
LINE
8
BLACK
6
CONTINUOUS
10
0.305999
20
0.802567
11
0.309026
21
0.802135
0
LINE
8
BLACK
6
CONTINUOUS
10
2.8651
20
0.818508
11
2.86583
21
0.81852
0
LINE
8
BLACK
6
CONTINUOUS
10
2.86583
20
0.81852
11
2.87708
21
0.815708
0
LINE
8
BLACK
6
CONTINUOUS
10
2.87708
20
0.815708
11
2.87765
21
0.815391
0
LINE
8
BLACK
6
CONTINUOUS
10
2.87765
20
0.815391
11
2.87829
21
0.815261
0
LINE
8
BLACK
6
CONTINUOUS
10
2.87829
20
0.815261
11
2.88391
21
0.812449
0
LINE
8
BLACK
6
CONTINUOUS
10
2.88391
20
0.812449
11
2.88462
21
0.811818
0
LINE
8
BLACK
6
CONTINUOUS
10
2.88462
20
0.811818
11
2.88545
21
0.811342
0
LINE
8
BLACK
6
CONTINUOUS
10
2.88545
20
0.811342
11
2.89107
21
0.805718
0
LINE
8
BLACK
6
CONTINUOUS
10
2.89107
20
0.805718
11
2.89175
21
0.804543
0
LINE
8
BLACK
6
CONTINUOUS
10
2.89175
20
0.804543
11
2.8925
21
0.80341
0
LINE
8
BLACK
6
CONTINUOUS
10
2.8925
20
0.80341
11
2.89531
21
0.794973
0
LINE
8
BLACK
6
CONTINUOUS
10
2.89531
20
0.794973
11
2.89537
21
0.794024
0
LINE
8
BLACK
6
CONTINUOUS
10
2.89537
20
0.794024
11
2.89561
21
0.793106
0
LINE
8
BLACK
6
CONTINUOUS
10
2.89561
20
0.793106
11
2.89561
21
0.779045
0
LINE
8
BLACK
6
CONTINUOUS
10
2.89561
20
0.779045
11
2.89482
21
0.776092
0
LINE
8
BLACK
6
CONTINUOUS
10
2.89482
20
0.776092
11
2.89266
21
0.773931
0
LINE
8
BLACK
6
CONTINUOUS
10
2.89266
20
0.773931
11
2.88971
21
0.77314
0
LINE
8
BLACK
6
CONTINUOUS
10
2.88971
20
0.77314
11
2.83065
21
0.77314
0
LINE
8
BLACK
6
CONTINUOUS
10
2.83065
20
0.77314
11
2.8277
21
0.773931
0
LINE
8
BLACK
6
CONTINUOUS
10
2.8277
20
0.773931
11
2.82554
21
0.776092
0
LINE
8
BLACK
6
CONTINUOUS
10
2.82554
20
0.776092
11
2.82475
21
0.779045
0
LINE
8
BLACK
6
CONTINUOUS
10
2.82475
20
0.779045
11
2.82475
21
0.793106
0
LINE
8
BLACK
6
CONTINUOUS
10
2.82475
20
0.793106
11
2.82499
21
0.794024
0
LINE
8
BLACK
6
CONTINUOUS
10
2.82499
20
0.794024
11
2.82505
21
0.794973
0
LINE
8
BLACK
6
CONTINUOUS
10
2.82505
20
0.794973
11
2.82786
21
0.80341
0
LINE
8
BLACK
6
CONTINUOUS
10
2.82786
20
0.80341
11
2.82861
21
0.804543
0
LINE
8
BLACK
6
CONTINUOUS
10
2.82861
20
0.804543
11
2.82929
21
0.805718
0
LINE
8
BLACK
6
CONTINUOUS
10
2.82929
20
0.805718
11
2.83491
21
0.811342
0
LINE
8
BLACK
6
CONTINUOUS
10
2.83491
20
0.811342
11
2.83573
21
0.811818
0
LINE
8
BLACK
6
CONTINUOUS
10
2.83573
20
0.811818
11
2.83645
21
0.812449
0
LINE
8
BLACK
6
CONTINUOUS
10
2.83645
20
0.812449
11
2.84207
21
0.815261
0
LINE
8
BLACK
6
CONTINUOUS
10
2.84207
20
0.815261
11
2.84271
21
0.815391
0
LINE
8
BLACK
6
CONTINUOUS
10
2.84271
20
0.815391
11
2.84328
21
0.815708
0
LINE
8
BLACK
6
CONTINUOUS
10
2.84328
20
0.815708
11
2.85453
21
0.81852
0
LINE
8
BLACK
6
CONTINUOUS
10
2.85453
20
0.81852
11
2.85526
21
0.818508
0
LINE
8
BLACK
6
CONTINUOUS
10
2.85526
20
0.818508
11
2.85596
21
0.818696
0
LINE
8
BLACK
6
CONTINUOUS
10
2.85596
20
0.818696
11
2.8644
21
0.818696
0
LINE
8
BLACK
6
CONTINUOUS
10
2.8644
20
0.818696
11
2.8651
21
0.818508
0
LINE
8
BLACK
6
CONTINUOUS
10
2.84677
20
0.804407
11
2.84259
21
0.802313
0
LINE
8
BLACK
6
CONTINUOUS
10
2.84259
20
0.802313
11
2.83862
21
0.798352
0
LINE
8
BLACK
6
CONTINUOUS
10
2.83862
20
0.798352
11
2.83656
21
0.792148
0
LINE
8
BLACK
6
CONTINUOUS
10
2.83656
20
0.792148
11
2.83656
21
0.784951
0
LINE
8
BLACK
6
CONTINUOUS
10
2.83656
20
0.784951
11
2.8838
21
0.784951
0
LINE
8
BLACK
6
CONTINUOUS
10
2.8838
20
0.784951
11
2.8838
21
0.792147
0
LINE
8
BLACK
6
CONTINUOUS
10
2.8838
20
0.792147
11
2.88173
21
0.798352
0
LINE
8
BLACK
6
CONTINUOUS
10
2.88173
20
0.798352
11
2.87777
21
0.802313
0
LINE
8
BLACK
6
CONTINUOUS
10
2.87777
20
0.802313
11
2.87358
21
0.804407
0
LINE
8
BLACK
6
CONTINUOUS
10
2.87358
20
0.804407
11
2.86367
21
0.806885
0
LINE
8
BLACK
6
CONTINUOUS
10
2.86367
20
0.806885
11
2.85669
21
0.806885
0
LINE
8
BLACK
6
CONTINUOUS
10
2.85669
20
0.806885
11
2.84677
21
0.804407
0
LINE
8
BLACK
6
CONTINUOUS
10
2.87072
20
0.880375
11
2.87145
21
0.880387
0
LINE
8
BLACK
6
CONTINUOUS
10
2.87145
20
0.880387
11
2.8827
21
0.877575
0
LINE
8
BLACK
6
CONTINUOUS
10
2.8827
20
0.877575
11
2.88275
21
0.87755
0
LINE
8
BLACK
6
CONTINUOUS
10
2.88275
20
0.87755
11
2.8828
21
0.87755
0
LINE
8
BLACK
6
CONTINUOUS
10
2.8828
20
0.87755
11
2.88408
21
0.87681
0
LINE
8
BLACK
6
CONTINUOUS
10
2.88408
20
0.87681
11
2.88537
21
0.876091
0
LINE
8
BLACK
6
CONTINUOUS
10
2.88537
20
0.876091
11
2.8854
21
0.876047
0
LINE
8
BLACK
6
CONTINUOUS
10
2.8854
20
0.876047
11
2.88545
21
0.876022
0
LINE
8
BLACK
6
CONTINUOUS
10
2.88545
20
0.876022
11
2.89107
21
0.870397
0
LINE
8
BLACK
6
CONTINUOUS
10
2.89107
20
0.870397
11
2.89154
21
0.869574
0
LINE
8
BLACK
6
CONTINUOUS
10
2.89154
20
0.869574
11
2.89218
21
0.868863
0
LINE
8
BLACK
6
CONTINUOUS
10
2.89218
20
0.868863
11
2.89499
21
0.863238
0
LINE
8
BLACK
6
CONTINUOUS
10
2.89499
20
0.863238
11
2.89526
21
0.861909
0
LINE
8
BLACK
6
CONTINUOUS
10
2.89526
20
0.861909
11
2.89561
21
0.860597
0
LINE
8
BLACK
6
CONTINUOUS
10
2.89561
20
0.860597
11
2.89561
21
0.849349
0
LINE
8
BLACK
6
CONTINUOUS
10
2.89561
20
0.849349
11
2.89526
21
0.848038
0
LINE
8
BLACK
6
CONTINUOUS
10
2.89526
20
0.848038
11
2.89499
21
0.846708
0
LINE
8
BLACK
6
CONTINUOUS
10
2.89499
20
0.846708
11
2.89218
21
0.841083
0
LINE
8
BLACK
6
CONTINUOUS
10
2.89218
20
0.841083
11
2.89154
21
0.840372
0
LINE
8
BLACK
6
CONTINUOUS
10
2.89154
20
0.840372
11
2.89107
21
0.839549
0
LINE
8
BLACK
6
CONTINUOUS
10
2.89107
20
0.839549
11
2.88545
21
0.833924
0
LINE
8
BLACK
6
CONTINUOUS
10
2.88545
20
0.833924
11
2.8854
21
0.833899
0
LINE
8
BLACK
6
CONTINUOUS
10
2.8854
20
0.833899
11
2.88537
21
0.833855
0
LINE
8
BLACK
6
CONTINUOUS
10
2.88537
20
0.833855
11
2.88408
21
0.833136
0
LINE
8
BLACK
6
CONTINUOUS
10
2.88408
20
0.833136
11
2.8828
21
0.832396
0
LINE
8
BLACK
6
CONTINUOUS
10
2.8828
20
0.832396
11
2.88275
21
0.832396
0
LINE
8
BLACK
6
CONTINUOUS
10
2.88275
20
0.832396
11
2.8827
21
0.832371
0
LINE
8
BLACK
6
CONTINUOUS
10
2.8827
20
0.832371
11
2.87145
21
0.829559
0
LINE
8
BLACK
6
CONTINUOUS
10
2.87145
20
0.829559
11
2.87072
21
0.829571
0
LINE
8
BLACK
6
CONTINUOUS
10
2.87072
20
0.829571
11
2.87002
21
0.829383
0
LINE
8
BLACK
6
CONTINUOUS
10
2.87002
20
0.829383
11
2.85034
21
0.829383
0
LINE
8
BLACK
6
CONTINUOUS
10
2.85034
20
0.829383
11
2.84963
21
0.829571
0
LINE
8
BLACK
6
CONTINUOUS
10
2.84963
20
0.829571
11
2.8489
21
0.829559
0
LINE
8
BLACK
6
CONTINUOUS
10
2.8489
20
0.829559
11
2.83765
21
0.832371
0
LINE
8
BLACK
6
CONTINUOUS
10
2.83765
20
0.832371
11
2.83761
21
0.832396
0
LINE
8
BLACK
6
CONTINUOUS
10
2.83761
20
0.832396
11
2.83756
21
0.832396
0
LINE
8
BLACK
6
CONTINUOUS
10
2.83756
20
0.832396
11
2.83628
21
0.833137
0
LINE
8
BLACK
6
CONTINUOUS
10
2.83628
20
0.833137
11
2.83498
21
0.833855
0
LINE
8
BLACK
6
CONTINUOUS
10
2.83498
20
0.833855
11
2.83496
21
0.833899
0
LINE
8
BLACK
6
CONTINUOUS
10
2.83496
20
0.833899
11
2.83491
21
0.833924
0
LINE
8
BLACK
6
CONTINUOUS
10
2.83491
20
0.833924
11
2.82929
21
0.839549
0
LINE
8
BLACK
6
CONTINUOUS
10
2.82929
20
0.839549
11
2.82881
21
0.840372
0
LINE
8
BLACK
6
CONTINUOUS
10
2.82881
20
0.840372
11
2.82818
21
0.841083
0
LINE
8
BLACK
6
CONTINUOUS
10
2.82818
20
0.841083
11
2.82537
21
0.846708
0
LINE
8
BLACK
6
CONTINUOUS
10
2.82537
20
0.846708
11
2.8251
21
0.848038
0
LINE
8
BLACK
6
CONTINUOUS
10
2.8251
20
0.848038
11
2.82475
21
0.849349
0
LINE
8
BLACK
6
CONTINUOUS
10
2.82475
20
0.849349
11
2.82475
21
0.860597
0
LINE
8
BLACK
6
CONTINUOUS
10
2.82475
20
0.860597
11
2.8251
21
0.861908
0
LINE
8
BLACK
6
CONTINUOUS
10
2.8251
20
0.861908
11
2.82537
21
0.863238
0
LINE
8
BLACK
6
CONTINUOUS
10
2.82537
20
0.863238
11
2.82818
21
0.868863
0
LINE
8
BLACK
6
CONTINUOUS
10
2.82818
20
0.868863
11
2.82881
21
0.869574
0
LINE
8
BLACK
6
CONTINUOUS
10
2.82881
20
0.869574
11
2.82929
21
0.870397
0
LINE
8
BLACK
6
CONTINUOUS
10
2.82929
20
0.870397
11
2.83491
21
0.876022
0
LINE
8
BLACK
6
CONTINUOUS
10
2.83491
20
0.876022
11
2.83496
21
0.876047
0
LINE
8
BLACK
6
CONTINUOUS
10
2.83496
20
0.876047
11
2.83498
21
0.876091
0
LINE
8
BLACK
6
CONTINUOUS
10
2.83498
20
0.876091
11
2.83628
21
0.87681
0
LINE
8
BLACK
6
CONTINUOUS
10
2.83628
20
0.87681
11
2.83756
21
0.87755
0
LINE
8
BLACK
6
CONTINUOUS
10
2.83756
20
0.87755
11
2.83761
21
0.87755
0
LINE
8
BLACK
6
CONTINUOUS
10
2.83761
20
0.87755
11
2.83765
21
0.877575
0
LINE
8
BLACK
6
CONTINUOUS
10
2.83765
20
0.877575
11
2.8489
21
0.880387
0
LINE
8
BLACK
6
CONTINUOUS
10
2.8489
20
0.880387
11
2.84963
21
0.880375
0
LINE
8
BLACK
6
CONTINUOUS
10
2.84963
20
0.880375
11
2.85034
21
0.880564
0
LINE
8
BLACK
6
CONTINUOUS
10
2.85034
20
0.880564
11
2.87002
21
0.880564
0
LINE
8
BLACK
6
CONTINUOUS
10
2.87002
20
0.880564
11
2.87072
21
0.880375
0
LINE
8
BLACK
6
CONTINUOUS
10
2.84211
20
0.866514
11
2.83832
21
0.862724
0
LINE
8
BLACK
6
CONTINUOUS
10
2.83832
20
0.862724
11
2.83656
21
0.859203
0
LINE
8
BLACK
6
CONTINUOUS
10
2.83656
20
0.859203
11
2.83656
21
0.850743
0
LINE
8
BLACK
6
CONTINUOUS
10
2.83656
20
0.850743
11
2.83832
21
0.847223
0
LINE
8
BLACK
6
CONTINUOUS
10
2.83832
20
0.847223
11
2.84211
21
0.843433
0
LINE
8
BLACK
6
CONTINUOUS
10
2.84211
20
0.843433
11
2.85106
21
0.841194
0
LINE
8
BLACK
6
CONTINUOUS
10
2.85106
20
0.841194
11
2.86929
21
0.841194
0
LINE
8
BLACK
6
CONTINUOUS
10
2.86929
20
0.841194
11
2.87825
21
0.843433
0
LINE
8
BLACK
6
CONTINUOUS
10
2.87825
20
0.843433
11
2.88204
21
0.847223
0
LINE
8
BLACK
6
CONTINUOUS
10
2.88204
20
0.847223
11
2.8838
21
0.850743
0
LINE
8
BLACK
6
CONTINUOUS
10
2.8838
20
0.850743
11
2.8838
21
0.859203
0
LINE
8
BLACK
6
CONTINUOUS
10
2.8838
20
0.859203
11
2.88204
21
0.862723
0
LINE
8
BLACK
6
CONTINUOUS
10
2.88204
20
0.862723
11
2.87825
21
0.866514
0
LINE
8
BLACK
6
CONTINUOUS
10
2.87825
20
0.866514
11
2.86929
21
0.868753
0
LINE
8
BLACK
6
CONTINUOUS
10
2.86929
20
0.868753
11
2.85106
21
0.868753
0
LINE
8
BLACK
6
CONTINUOUS
10
2.85106
20
0.868753
11
2.84211
21
0.866514
0
LINE
8
BLACK
6
CONTINUOUS
10
0.265442
20
0.938168
11
0.266391
21
0.938111
0
LINE
8
BLACK
6
CONTINUOUS
10
0.266391
20
0.938111
11
0.274828
21
0.935299
0
LINE
8
BLACK
6
CONTINUOUS
10
0.274828
20
0.935299
11
0.27596
21
0.934551
0
LINE
8
BLACK
6
CONTINUOUS
10
0.27596
20
0.934551
11
0.277136
21
0.933872
0
LINE
8
BLACK
6
CONTINUOUS
10
0.277136
20
0.933872
11
0.3008
21
0.910208
0
LINE
8
BLACK
6
CONTINUOUS
10
0.3008
20
0.910208
11
0.3008
21
0.932509
0
LINE
8
BLACK
6
CONTINUOUS
10
0.3008
20
0.932509
11
0.301591
21
0.935461
0
LINE
8
BLACK
6
CONTINUOUS
10
0.301591
20
0.935461
11
0.303753
21
0.937623
0
LINE
8
BLACK
6
CONTINUOUS
10
0.303753
20
0.937623
11
0.306706
21
0.938414
0
LINE
8
BLACK
6
CONTINUOUS
10
0.306706
20
0.938414
11
0.309659
21
0.937623
0
LINE
8
BLACK
6
CONTINUOUS
10
0.309659
20
0.937623
11
0.31182
21
0.935461
0
LINE
8
BLACK
6
CONTINUOUS
10
0.31182
20
0.935461
11
0.312611
21
0.932509
0
LINE
8
BLACK
6
CONTINUOUS
10
0.312611
20
0.932509
11
0.312611
21
0.895951
0
LINE
8
BLACK
6
CONTINUOUS
10
0.312611
20
0.895951
11
0.31241
21
0.8952
0
LINE
8
BLACK
6
CONTINUOUS
10
0.31241
20
0.8952
11
0.31241
21
0.894422
0
LINE
8
BLACK
6
CONTINUOUS
10
0.31241
20
0.894422
11
0.312021
21
0.893749
0
LINE
8
BLACK
6
CONTINUOUS
10
0.312021
20
0.893749
11
0.31182
21
0.892998
0
LINE
8
BLACK
6
CONTINUOUS
10
0.31182
20
0.892998
11
0.31127
21
0.892448
0
LINE
8
BLACK
6
CONTINUOUS
10
0.31127
20
0.892448
11
0.310882
21
0.891775
0
LINE
8
BLACK
6
CONTINUOUS
10
0.310882
20
0.891775
11
0.310208
21
0.891386
0
LINE
8
BLACK
6
CONTINUOUS
10
0.310208
20
0.891386
11
0.309659
21
0.890836
0
LINE
8
BLACK
6
CONTINUOUS
10
0.309659
20
0.890836
11
0.308908
21
0.890635
0
LINE
8
BLACK
6
CONTINUOUS
10
0.308908
20
0.890635
11
0.308234
21
0.890246
0
LINE
8
BLACK
6
CONTINUOUS
10
0.308234
20
0.890246
11
0.307457
21
0.890246
0
LINE
8
BLACK
6
CONTINUOUS
10
0.307457
20
0.890246
11
0.306706
21
0.890045
0
LINE
8
BLACK
6
CONTINUOUS
10
0.306706
20
0.890045
11
0.305955
21
0.890246
0
LINE
8
BLACK
6
CONTINUOUS
10
0.305955
20
0.890246
11
0.305177
21
0.890246
0
LINE
8
BLACK
6
CONTINUOUS
10
0.305177
20
0.890246
11
0.304504
21
0.890635
0
LINE
8
BLACK
6
CONTINUOUS
10
0.304504
20
0.890635
11
0.303753
21
0.890836
0
LINE
8
BLACK
6
CONTINUOUS
10
0.303753
20
0.890836
11
0.303203
21
0.891386
0
LINE
8
BLACK
6
CONTINUOUS
10
0.303203
20
0.891386
11
0.30253
21
0.891775
0
LINE
8
BLACK
6
CONTINUOUS
10
0.30253
20
0.891775
11
0.26977
21
0.924535
0
LINE
8
BLACK
6
CONTINUOUS
10
0.26977
20
0.924535
11
0.263565
21
0.926603
0
LINE
8
BLACK
6
CONTINUOUS
10
0.263565
20
0.926603
11
0.260293
21
0.926603
0
LINE
8
BLACK
6
CONTINUOUS
10
0.260293
20
0.926603
11
0.256773
21
0.924843
0
LINE
8
BLACK
6
CONTINUOUS
10
0.256773
20
0.924843
11
0.255316
21
0.923386
0
LINE
8
BLACK
6
CONTINUOUS
10
0.255316
20
0.923386
11
0.253556
21
0.919866
0
LINE
8
BLACK
6
CONTINUOUS
10
0.253556
20
0.919866
11
0.253556
21
0.908593
0
LINE
8
BLACK
6
CONTINUOUS
10
0.253556
20
0.908593
11
0.255316
21
0.905073
0
LINE
8
BLACK
6
CONTINUOUS
10
0.255316
20
0.905073
11
0.257451
21
0.902939
0
LINE
8
BLACK
6
CONTINUOUS
10
0.257451
20
0.902939
11
0.258979
21
0.900291
0
LINE
8
BLACK
6
CONTINUOUS
10
0.258979
20
0.900291
11
0.258979
21
0.897234
0
LINE
8
BLACK
6
CONTINUOUS
10
0.258979
20
0.897234
11
0.257451
21
0.894587
0
LINE
8
BLACK
6
CONTINUOUS
10
0.257451
20
0.894587
11
0.254803
21
0.893058
0
LINE
8
BLACK
6
CONTINUOUS
10
0.254803
20
0.893058
11
0.251747
21
0.893058
0
LINE
8
BLACK
6
CONTINUOUS
10
0.251747
20
0.893058
11
0.249099
21
0.894587
0
LINE
8
BLACK
6
CONTINUOUS
10
0.249099
20
0.894587
11
0.246287
21
0.897399
0
LINE
8
BLACK
6
CONTINUOUS
10
0.246287
20
0.897399
11
0.245812
21
0.898222
0
LINE
8
BLACK
6
CONTINUOUS
10
0.245812
20
0.898222
11
0.245181
21
0.898934
0
LINE
8
BLACK
6
CONTINUOUS
10
0.245181
20
0.898934
11
0.242369
21
0.904558
0
LINE
8
BLACK
6
CONTINUOUS
10
0.242369
20
0.904558
11
0.242096
21
0.905888
0
LINE
8
BLACK
6
CONTINUOUS
10
0.242096
20
0.905888
11
0.241745
21
0.907199
0
LINE
8
BLACK
6
CONTINUOUS
10
0.241745
20
0.907199
11
0.241745
21
0.92126
0
LINE
8
BLACK
6
CONTINUOUS
10
0.241745
20
0.92126
11
0.242096
21
0.922571
0
LINE
8
BLACK
6
CONTINUOUS
10
0.242096
20
0.922571
11
0.242369
21
0.923901
0
LINE
8
BLACK
6
CONTINUOUS
10
0.242369
20
0.923901
11
0.245181
21
0.929525
0
LINE
8
BLACK
6
CONTINUOUS
10
0.245181
20
0.929525
11
0.245812
21
0.930237
0
LINE
8
BLACK
6
CONTINUOUS
10
0.245812
20
0.930237
11
0.246287
21
0.93106
0
LINE
8
BLACK
6
CONTINUOUS
10
0.246287
20
0.93106
11
0.249099
21
0.933872
0
LINE
8
BLACK
6
CONTINUOUS
10
0.249099
20
0.933872
11
0.249923
21
0.934348
0
LINE
8
BLACK
6
CONTINUOUS
10
0.249923
20
0.934348
11
0.250634
21
0.934978
0
LINE
8
BLACK
6
CONTINUOUS
10
0.250634
20
0.934978
11
0.256258
21
0.937791
0
LINE
8
BLACK
6
CONTINUOUS
10
0.256258
20
0.937791
11
0.257588
21
0.938063
0
LINE
8
BLACK
6
CONTINUOUS
10
0.257588
20
0.938063
11
0.258899
21
0.938414
0
LINE
8
BLACK
6
CONTINUOUS
10
0.258899
20
0.938414
11
0.264524
21
0.938414
0
LINE
8
BLACK
6
CONTINUOUS
10
0.264524
20
0.938414
11
0.265442
21
0.938168
0
LINE
8
BLACK
6
CONTINUOUS
10
2.87977
20
0.936455
11
2.8811
21
0.936183
0
LINE
8
BLACK
6
CONTINUOUS
10
2.8811
20
0.936183
11
2.88672
21
0.933371
0
LINE
8
BLACK
6
CONTINUOUS
10
2.88672
20
0.933371
11
2.88743
21
0.93274
0
LINE
8
BLACK
6
CONTINUOUS
10
2.88743
20
0.93274
11
2.88826
21
0.932265
0
LINE
8
BLACK
6
CONTINUOUS
10
2.88826
20
0.932265
11
2.89107
21
0.929453
0
LINE
8
BLACK
6
CONTINUOUS
10
2.89107
20
0.929453
11
2.89154
21
0.928629
0
LINE
8
BLACK
6
CONTINUOUS
10
2.89154
20
0.928629
11
2.89218
21
0.927918
0
LINE
8
BLACK
6
CONTINUOUS
10
2.89218
20
0.927918
11
2.89499
21
0.922293
0
LINE
8
BLACK
6
CONTINUOUS
10
2.89499
20
0.922293
11
2.89526
21
0.920964
0
LINE
8
BLACK
6
CONTINUOUS
10
2.89526
20
0.920964
11
2.89561
21
0.919652
0
LINE
8
BLACK
6
CONTINUOUS
10
2.89561
20
0.919652
11
2.89561
21
0.905592
0
LINE
8
BLACK
6
CONTINUOUS
10
2.89561
20
0.905592
11
2.89537
21
0.904673
0
LINE
8
BLACK
6
CONTINUOUS
10
2.89537
20
0.904673
11
2.89531
21
0.903724
0
LINE
8
BLACK
6
CONTINUOUS
10
2.89531
20
0.903724
11
2.8925
21
0.895288
0
LINE
8
BLACK
6
CONTINUOUS
10
2.8925
20
0.895288
11
2.89081
21
0.892737
0
LINE
8
BLACK
6
CONTINUOUS
10
2.89081
20
0.892737
11
2.88808
21
0.89137
0
LINE
8
BLACK
6
CONTINUOUS
10
2.88808
20
0.89137
11
2.88503
21
0.891553
0
LINE
8
BLACK
6
CONTINUOUS
10
2.88503
20
0.891553
11
2.88248
21
0.893237
0
LINE
8
BLACK
6
CONTINUOUS
10
2.88248
20
0.893237
11
2.88111
21
0.895971
0
LINE
8
BLACK
6
CONTINUOUS
10
2.88111
20
0.895971
11
2.88129
21
0.899023
0
LINE
8
BLACK
6
CONTINUOUS
10
2.88129
20
0.899023
11
2.8838
21
0.90655
0
LINE
8
BLACK
6
CONTINUOUS
10
2.8838
20
0.90655
11
2.8838
21
0.918258
0
LINE
8
BLACK
6
CONTINUOUS
10
2.8838
20
0.918258
11
2.88204
21
0.921779
0
LINE
8
BLACK
6
CONTINUOUS
10
2.88204
20
0.921779
11
2.88058
21
0.923235
0
LINE
8
BLACK
6
CONTINUOUS
10
2.88058
20
0.923235
11
2.87706
21
0.924996
0
LINE
8
BLACK
6
CONTINUOUS
10
2.87706
20
0.924996
11
2.87423
21
0.924996
0
LINE
8
BLACK
6
CONTINUOUS
10
2.87423
20
0.924996
11
2.87071
21
0.923236
0
LINE
8
BLACK
6
CONTINUOUS
10
2.87071
20
0.923236
11
2.86925
21
0.921779
0
LINE
8
BLACK
6
CONTINUOUS
10
2.86925
20
0.921779
11
2.86716
21
0.917591
0
LINE
8
BLACK
6
CONTINUOUS
10
2.86716
20
0.917591
11
2.8645
21
0.906972
0
LINE
8
BLACK
6
CONTINUOUS
10
2.8645
20
0.906972
11
2.86418
21
0.906402
0
LINE
8
BLACK
6
CONTINUOUS
10
2.86418
20
0.906402
11
2.86405
21
0.905763
0
LINE
8
BLACK
6
CONTINUOUS
10
2.86405
20
0.905763
11
2.86124
21
0.900139
0
LINE
8
BLACK
6
CONTINUOUS
10
2.86124
20
0.900139
11
2.86061
21
0.899427
0
LINE
8
BLACK
6
CONTINUOUS
10
2.86061
20
0.899427
11
2.86014
21
0.898604
0
LINE
8
BLACK
6
CONTINUOUS
10
2.86014
20
0.898604
11
2.85732
21
0.895792
0
LINE
8
BLACK
6
CONTINUOUS
10
2.85732
20
0.895792
11
2.8565
21
0.895316
0
LINE
8
BLACK
6
CONTINUOUS
10
2.8565
20
0.895316
11
2.85579
21
0.894685
0
LINE
8
BLACK
6
CONTINUOUS
10
2.85579
20
0.894685
11
2.85016
21
0.891873
0
LINE
8
BLACK
6
CONTINUOUS
10
2.85016
20
0.891873
11
2.84883
21
0.891601
0
LINE
8
BLACK
6
CONTINUOUS
10
2.84883
20
0.891601
11
2.84752
21
0.89125
0
LINE
8
BLACK
6
CONTINUOUS
10
2.84752
20
0.89125
11
2.8419
21
0.89125
0
LINE
8
BLACK
6
CONTINUOUS
10
2.8419
20
0.89125
11
2.84059
21
0.891601
0
LINE
8
BLACK
6
CONTINUOUS
10
2.84059
20
0.891601
11
2.83926
21
0.891873
0
LINE
8
BLACK
6
CONTINUOUS
10
2.83926
20
0.891873
11
2.83363
21
0.894685
0
LINE
8
BLACK
6
CONTINUOUS
10
2.83363
20
0.894685
11
2.83292
21
0.895316
0
LINE
8
BLACK
6
CONTINUOUS
10
2.83292
20
0.895316
11
2.8321
21
0.895792
0
LINE
8
BLACK
6
CONTINUOUS
10
2.8321
20
0.895792
11
2.82929
21
0.898604
0
LINE
8
BLACK
6
CONTINUOUS
10
2.82929
20
0.898604
11
2.82881
21
0.899427
0
LINE
8
BLACK
6
CONTINUOUS
10
2.82881
20
0.899427
11
2.82818
21
0.900139
0
LINE
8
BLACK
6
CONTINUOUS
10
2.82818
20
0.900139
11
2.82537
21
0.905763
0
LINE
8
BLACK
6
CONTINUOUS
10
2.82537
20
0.905763
11
2.8251
21
0.907093
0
LINE
8
BLACK
6
CONTINUOUS
10
2.8251
20
0.907093
11
2.82475
21
0.908404
0
LINE
8
BLACK
6
CONTINUOUS
10
2.82475
20
0.908404
11
2.82475
21
0.922465
0
LINE
8
BLACK
6
CONTINUOUS
10
2.82475
20
0.922465
11
2.82499
21
0.923383
0
LINE
8
BLACK
6
CONTINUOUS
10
2.82499
20
0.923383
11
2.82505
21
0.924332
0
LINE
8
BLACK
6
CONTINUOUS
10
2.82505
20
0.924332
11
2.82786
21
0.932769
0
LINE
8
BLACK
6
CONTINUOUS
10
2.82786
20
0.932769
11
2.82954
21
0.93532
0
LINE
8
BLACK
6
CONTINUOUS
10
2.82954
20
0.93532
11
2.83228
21
0.936687
0
LINE
8
BLACK
6
CONTINUOUS
10
2.83228
20
0.936687
11
2.83533
21
0.936504
0
LINE
8
BLACK
6
CONTINUOUS
10
2.83533
20
0.936504
11
2.83788
21
0.934819
0
LINE
8
BLACK
6
CONTINUOUS
10
2.83788
20
0.934819
11
2.83925
21
0.932085
0
LINE
8
BLACK
6
CONTINUOUS
10
2.83925
20
0.932085
11
2.83907
21
0.929034
0
LINE
8
BLACK
6
CONTINUOUS
10
2.83907
20
0.929034
11
2.83656
21
0.921506
0
LINE
8
BLACK
6
CONTINUOUS
10
2.83656
20
0.921506
11
2.83656
21
0.909798
0
LINE
8
BLACK
6
CONTINUOUS
10
2.83656
20
0.909798
11
2.83832
21
0.906278
0
LINE
8
BLACK
6
CONTINUOUS
10
2.83832
20
0.906278
11
2.83977
21
0.904821
0
LINE
8
BLACK
6
CONTINUOUS
10
2.83977
20
0.904821
11
2.84329
21
0.903061
0
LINE
8
BLACK
6
CONTINUOUS
10
2.84329
20
0.903061
11
2.84613
21
0.903061
0
LINE
8
BLACK
6
CONTINUOUS
10
2.84613
20
0.903061
11
2.84965
21
0.904821
0
LINE
8
BLACK
6
CONTINUOUS
10
2.84965
20
0.904821
11
2.85111
21
0.906278
0
LINE
8
BLACK
6
CONTINUOUS
10
2.85111
20
0.906278
11
2.8532
21
0.910465
0
LINE
8
BLACK
6
CONTINUOUS
10
2.8532
20
0.910465
11
2.85586
21
0.921085
0
LINE
8
BLACK
6
CONTINUOUS
10
2.85586
20
0.921085
11
2.85617
21
0.921655
0
LINE
8
BLACK
6
CONTINUOUS
10
2.85617
20
0.921655
11
2.8563
21
0.922294
0
LINE
8
BLACK
6
CONTINUOUS
10
2.8563
20
0.922294
11
2.85911
21
0.927918
0
LINE
8
BLACK
6
CONTINUOUS
10
2.85911
20
0.927918
11
2.85975
21
0.928629
0
LINE
8
BLACK
6
CONTINUOUS
10
2.85975
20
0.928629
11
2.86022
21
0.929453
0
LINE
8
BLACK
6
CONTINUOUS
10
2.86022
20
0.929453
11
2.86303
21
0.932265
0
LINE
8
BLACK
6
CONTINUOUS
10
2.86303
20
0.932265
11
2.86386
21
0.93274
0
LINE
8
BLACK
6
CONTINUOUS
10
2.86386
20
0.93274
11
2.86457
21
0.933371
0
LINE
8
BLACK
6
CONTINUOUS
10
2.86457
20
0.933371
11
2.87019
21
0.936183
0
LINE
8
BLACK
6
CONTINUOUS
10
2.87019
20
0.936183
11
2.87152
21
0.936455
0
LINE
8
BLACK
6
CONTINUOUS
10
2.87152
20
0.936455
11
2.87283
21
0.936807
0
LINE
8
BLACK
6
CONTINUOUS
10
2.87283
20
0.936807
11
2.87846
21
0.936807
0
LINE
8
BLACK
6
CONTINUOUS
10
2.87846
20
0.936807
11
2.87977
21
0.936455
0
LINE
8
BLACK
6
CONTINUOUS
10
2.86791
20
0.992861
11
2.86864
21
0.992873
0
LINE
8
BLACK
6
CONTINUOUS
10
2.86864
20
0.992873
11
2.87989
21
0.990061
0
LINE
8
BLACK
6
CONTINUOUS
10
2.87989
20
0.990061
11
2.88046
21
0.989745
0
LINE
8
BLACK
6
CONTINUOUS
10
2.88046
20
0.989745
11
2.8811
21
0.989614
0
LINE
8
BLACK
6
CONTINUOUS
10
2.8811
20
0.989614
11
2.88672
21
0.986802
0
LINE
8
BLACK
6
CONTINUOUS
10
2.88672
20
0.986802
11
2.88743
21
0.986171
0
LINE
8
BLACK
6
CONTINUOUS
10
2.88743
20
0.986171
11
2.88826
21
0.985696
0
LINE
8
BLACK
6
CONTINUOUS
10
2.88826
20
0.985696
11
2.89107
21
0.982883
0
LINE
8
BLACK
6
CONTINUOUS
10
2.89107
20
0.982883
11
2.89154
21
0.98206
0
LINE
8
BLACK
6
CONTINUOUS
10
2.89154
20
0.98206
11
2.89218
21
0.981349
0
LINE
8
BLACK
6
CONTINUOUS
10
2.89218
20
0.981349
11
2.89499
21
0.975724
0
LINE
8
BLACK
6
CONTINUOUS
10
2.89499
20
0.975724
11
2.89526
21
0.974395
0
LINE
8
BLACK
6
CONTINUOUS
10
2.89526
20
0.974395
11
2.89561
21
0.973083
0
LINE
8
BLACK
6
CONTINUOUS
10
2.89561
20
0.973083
11
2.89561
21
0.967459
0
LINE
8
BLACK
6
CONTINUOUS
10
2.89561
20
0.967459
11
2.89526
21
0.966148
0
LINE
8
BLACK
6
CONTINUOUS
10
2.89526
20
0.966148
11
2.89499
21
0.964818
0
LINE
8
BLACK
6
CONTINUOUS
10
2.89499
20
0.964818
11
2.89218
21
0.959194
0
LINE
8
BLACK
6
CONTINUOUS
10
2.89218
20
0.959194
11
2.89154
21
0.958482
0
LINE
8
BLACK
6
CONTINUOUS
10
2.89154
20
0.958482
11
2.89107
21
0.957659
0
LINE
8
BLACK
6
CONTINUOUS
10
2.89107
20
0.957659
11
2.88826
21
0.954847
0
LINE
8
BLACK
6
CONTINUOUS
10
2.88826
20
0.954847
11
2.88743
21
0.954371
0
LINE
8
BLACK
6
CONTINUOUS
10
2.88743
20
0.954371
11
2.88672
21
0.953741
0
LINE
8
BLACK
6
CONTINUOUS
10
2.88672
20
0.953741
11
2.8811
21
0.950928
0
LINE
8
BLACK
6
CONTINUOUS
10
2.8811
20
0.950928
11
2.88046
21
0.950798
0
LINE
8
BLACK
6
CONTINUOUS
10
2.88046
20
0.950798
11
2.87989
21
0.950481
0
LINE
8
BLACK
6
CONTINUOUS
10
2.87989
20
0.950481
11
2.86864
21
0.947669
0
LINE
8
BLACK
6
CONTINUOUS
10
2.86864
20
0.947669
11
2.86791
21
0.947681
0
LINE
8
BLACK
6
CONTINUOUS
10
2.86791
20
0.947681
11
2.86721
21
0.947493
0
LINE
8
BLACK
6
CONTINUOUS
10
2.86721
20
0.947493
11
2.85315
21
0.947493
0
LINE
8
BLACK
6
CONTINUOUS
10
2.85315
20
0.947493
11
2.85244
21
0.947681
0
LINE
8
BLACK
6
CONTINUOUS
10
2.85244
20
0.947681
11
2.85172
21
0.947669
0
LINE
8
BLACK
6
CONTINUOUS
10
2.85172
20
0.947669
11
2.84047
21
0.950481
0
LINE
8
BLACK
6
CONTINUOUS
10
2.84047
20
0.950481
11
2.8399
21
0.950798
0
LINE
8
BLACK
6
CONTINUOUS
10
2.8399
20
0.950798
11
2.83926
21
0.950928
0
LINE
8
BLACK
6
CONTINUOUS
10
2.83926
20
0.950928
11
2.83363
21
0.953741
0
LINE
8
BLACK
6
CONTINUOUS
10
2.83363
20
0.953741
11
2.83292
21
0.954371
0
LINE
8
BLACK
6
CONTINUOUS
10
2.83292
20
0.954371
11
2.8321
21
0.954847
0
LINE
8
BLACK
6
CONTINUOUS
10
2.8321
20
0.954847
11
2.82929
21
0.957659
0
LINE
8
BLACK
6
CONTINUOUS
10
2.82929
20
0.957659
11
2.82881
21
0.958482
0
LINE
8
BLACK
6
CONTINUOUS
10
2.82881
20
0.958482
11
2.82818
21
0.959194
0
LINE
8
BLACK
6
CONTINUOUS
10
2.82818
20
0.959194
11
2.82537
21
0.964818
0
LINE
8
BLACK
6
CONTINUOUS
10
2.82537
20
0.964818
11
2.8251
21
0.966148
0
LINE
8
BLACK
6
CONTINUOUS
10
2.8251
20
0.966148
11
2.82475
21
0.967459
0
LINE
8
BLACK
6
CONTINUOUS
10
2.82475
20
0.967459
11
2.82475
21
0.973083
0
LINE
8
BLACK
6
CONTINUOUS
10
2.82475
20
0.973083
11
2.8251
21
0.974394
0
LINE
8
BLACK
6
CONTINUOUS
10
2.8251
20
0.974394
11
2.82537
21
0.975724
0
LINE
8
BLACK
6
CONTINUOUS
10
2.82537
20
0.975724
11
2.82818
21
0.981349
0
LINE
8
BLACK
6
CONTINUOUS
10
2.82818
20
0.981349
11
2.82881
21
0.98206
0
LINE
8
BLACK
6
CONTINUOUS
10
2.82881
20
0.98206
11
2.82929
21
0.982883
0
LINE
8
BLACK
6
CONTINUOUS
10
2.82929
20
0.982883
11
2.8321
21
0.985696
0
LINE
8
BLACK
6
CONTINUOUS
10
2.8321
20
0.985696
11
2.83292
21
0.986171
0
LINE
8
BLACK
6
CONTINUOUS
10
2.83292
20
0.986171
11
2.83363
21
0.986802
0
LINE
8
BLACK
6
CONTINUOUS
10
2.83363
20
0.986802
11
2.83926
21
0.989614
0
LINE
8
BLACK
6
CONTINUOUS
10
2.83926
20
0.989614
11
2.8399
21
0.989745
0
LINE
8
BLACK
6
CONTINUOUS
10
2.8399
20
0.989745
11
2.84047
21
0.990061
0
LINE
8
BLACK
6
CONTINUOUS
10
2.84047
20
0.990061
11
2.85172
21
0.992873
0
LINE
8
BLACK
6
CONTINUOUS
10
2.85172
20
0.992873
11
2.85244
21
0.992861
0
LINE
8
BLACK
6
CONTINUOUS
10
2.85244
20
0.992861
11
2.85315
21
0.99305
0
LINE
8
BLACK
6
CONTINUOUS
10
2.85315
20
0.99305
11
2.86721
21
0.99305
0
LINE
8
BLACK
6
CONTINUOUS
10
2.86721
20
0.99305
11
2.86791
21
0.992861
0
LINE
8
BLACK
6
CONTINUOUS
10
2.84396
20
0.97876
11
2.83977
21
0.976666
0
LINE
8
BLACK
6
CONTINUOUS
10
2.83977
20
0.976666
11
2.83832
21
0.975209
0
LINE
8
BLACK
6
CONTINUOUS
10
2.83832
20
0.975209
11
2.83656
21
0.971689
0
LINE
8
BLACK
6
CONTINUOUS
10
2.83656
20
0.971689
11
2.83656
21
0.968853
0
LINE
8
BLACK
6
CONTINUOUS
10
2.83656
20
0.968853
11
2.83832
21
0.965333
0
LINE
8
BLACK
6
CONTINUOUS
10
2.83832
20
0.965333
11
2.83977
21
0.963876
0
LINE
8
BLACK
6
CONTINUOUS
10
2.83977
20
0.963876
11
2.84396
21
0.961782
0
LINE
8
BLACK
6
CONTINUOUS
10
2.84396
20
0.961782
11
2.85387
21
0.959304
0
LINE
8
BLACK
6
CONTINUOUS
10
2.85387
20
0.959304
11
2.86648
21
0.959304
0
LINE
8
BLACK
6
CONTINUOUS
10
2.86648
20
0.959304
11
2.8764
21
0.961782
0
LINE
8
BLACK
6
CONTINUOUS
10
2.8764
20
0.961782
11
2.88058
21
0.963876
0
LINE
8
BLACK
6
CONTINUOUS
10
2.88058
20
0.963876
11
2.88204
21
0.965333
0
LINE
8
BLACK
6
CONTINUOUS
10
2.88204
20
0.965333
11
2.8838
21
0.968853
0
LINE
8
BLACK
6
CONTINUOUS
10
2.8838
20
0.968853
11
2.8838
21
0.971689
0
LINE
8
BLACK
6
CONTINUOUS
10
2.8838
20
0.971689
11
2.88204
21
0.975209
0
LINE
8
BLACK
6
CONTINUOUS
10
2.88204
20
0.975209
11
2.88058
21
0.976666
0
LINE
8
BLACK
6
CONTINUOUS
10
2.88058
20
0.976666
11
2.8764
21
0.97876
0
LINE
8
BLACK
6
CONTINUOUS
10
2.8764
20
0.97876
11
2.86648
21
0.981239
0
LINE
8
BLACK
6
CONTINUOUS
10
2.86648
20
0.981239
11
2.85387
21
0.981239
0
LINE
8
BLACK
6
CONTINUOUS
10
2.85387
20
0.981239
11
2.84396
21
0.97876
0
LINE
8
BLACK
6
CONTINUOUS
10
0.284912
20
0.994468
11
0.285641
21
0.994481
0
LINE
8
BLACK
6
CONTINUOUS
10
0.285641
20
0.994481
11
0.29689
21
0.991668
0
LINE
8
BLACK
6
CONTINUOUS
10
0.29689
20
0.991668
11
0.297459
21
0.991352
0
LINE
8
BLACK
6
CONTINUOUS
10
0.297459
20
0.991352
11
0.298098
21
0.991221
0
LINE
8
BLACK
6
CONTINUOUS
10
0.298098
20
0.991221
11
0.303723
21
0.988409
0
LINE
8
BLACK
6
CONTINUOUS
10
0.303723
20
0.988409
11
0.304434
21
0.987778
0
LINE
8
BLACK
6
CONTINUOUS
10
0.304434
20
0.987778
11
0.305257
21
0.987303
0
LINE
8
BLACK
6
CONTINUOUS
10
0.305257
20
0.987303
11
0.308069
21
0.984491
0
LINE
8
BLACK
6
CONTINUOUS
10
0.308069
20
0.984491
11
0.308545
21
0.983667
0
LINE
8
BLACK
6
CONTINUOUS
10
0.308545
20
0.983667
11
0.309176
21
0.982956
0
LINE
8
BLACK
6
CONTINUOUS
10
0.309176
20
0.982956
11
0.311988
21
0.977332
0
LINE
8
BLACK
6
CONTINUOUS
10
0.311988
20
0.977332
11
0.31226
21
0.976002
0
LINE
8
BLACK
6
CONTINUOUS
10
0.31226
20
0.976002
11
0.312611
21
0.974691
0
LINE
8
BLACK
6
CONTINUOUS
10
0.312611
20
0.974691
11
0.312611
21
0.969066
0
LINE
8
BLACK
6
CONTINUOUS
10
0.312611
20
0.969066
11
0.31226
21
0.967756
0
LINE
8
BLACK
6
CONTINUOUS
10
0.31226
20
0.967756
11
0.311988
21
0.966425
0
LINE
8
BLACK
6
CONTINUOUS
10
0.311988
20
0.966425
11
0.309176
21
0.960801
0
LINE
8
BLACK
6
CONTINUOUS
10
0.309176
20
0.960801
11
0.308545
21
0.96009
0
LINE
8
BLACK
6
CONTINUOUS
10
0.308545
20
0.96009
11
0.308069
21
0.959266
0
LINE
8
BLACK
6
CONTINUOUS
10
0.308069
20
0.959266
11
0.305257
21
0.956454
0
LINE
8
BLACK
6
CONTINUOUS
10
0.305257
20
0.956454
11
0.304434
21
0.955979
0
LINE
8
BLACK
6
CONTINUOUS
10
0.304434
20
0.955979
11
0.303723
21
0.955348
0
LINE
8
BLACK
6
CONTINUOUS
10
0.303723
20
0.955348
11
0.298098
21
0.952536
0
LINE
8
BLACK
6
CONTINUOUS
10
0.298098
20
0.952536
11
0.297459
21
0.952405
0
LINE
8
BLACK
6
CONTINUOUS
10
0.297459
20
0.952405
11
0.29689
21
0.952089
0
LINE
8
BLACK
6
CONTINUOUS
10
0.29689
20
0.952089
11
0.285641
21
0.949276
0
LINE
8
BLACK
6
CONTINUOUS
10
0.285641
20
0.949276
11
0.284912
21
0.949289
0
LINE
8
BLACK
6
CONTINUOUS
10
0.284912
20
0.949289
11
0.284209
21
0.9491
0
LINE
8
BLACK
6
CONTINUOUS
10
0.284209
20
0.9491
11
0.270148
21
0.9491
0
LINE
8
BLACK
6
CONTINUOUS
10
0.270148
20
0.9491
11
0.269444
21
0.949289
0
LINE
8
BLACK
6
CONTINUOUS
10
0.269444
20
0.949289
11
0.268716
21
0.949276
0
LINE
8
BLACK
6
CONTINUOUS
10
0.268716
20
0.949276
11
0.257467
21
0.952089
0
LINE
8
BLACK
6
CONTINUOUS
10
0.257467
20
0.952089
11
0.256897
21
0.952405
0
LINE
8
BLACK
6
CONTINUOUS
10
0.256897
20
0.952405
11
0.256258
21
0.952536
0
LINE
8
BLACK
6
CONTINUOUS
10
0.256258
20
0.952536
11
0.250634
21
0.955348
0
LINE
8
BLACK
6
CONTINUOUS
10
0.250634
20
0.955348
11
0.249923
21
0.955979
0
LINE
8
BLACK
6
CONTINUOUS
10
0.249923
20
0.955979
11
0.249099
21
0.956454
0
LINE
8
BLACK
6
CONTINUOUS
10
0.249099
20
0.956454
11
0.246287
21
0.959266
0
LINE
8
BLACK
6
CONTINUOUS
10
0.246287
20
0.959266
11
0.245812
21
0.96009
0
LINE
8
BLACK
6
CONTINUOUS
10
0.245812
20
0.96009
11
0.245181
21
0.960801
0
LINE
8
BLACK
6
CONTINUOUS
10
0.245181
20
0.960801
11
0.242369
21
0.966425
0
LINE
8
BLACK
6
CONTINUOUS
10
0.242369
20
0.966425
11
0.242096
21
0.967755
0
LINE
8
BLACK
6
CONTINUOUS
10
0.242096
20
0.967755
11
0.241745
21
0.969066
0
LINE
8
BLACK
6
CONTINUOUS
10
0.241745
20
0.969066
11
0.241745
21
0.974691
0
LINE
8
BLACK
6
CONTINUOUS
10
0.241745
20
0.974691
11
0.242096
21
0.976002
0
LINE
8
BLACK
6
CONTINUOUS
10
0.242096
20
0.976002
11
0.242369
21
0.977332
0
LINE
8
BLACK
6
CONTINUOUS
10
0.242369
20
0.977332
11
0.245181
21
0.982956
0
LINE
8
BLACK
6
CONTINUOUS
10
0.245181
20
0.982956
11
0.245812
21
0.983667
0
LINE
8
BLACK
6
CONTINUOUS
10
0.245812
20
0.983667
11
0.246287
21
0.984491
0
LINE
8
BLACK
6
CONTINUOUS
10
0.246287
20
0.984491
11
0.249099
21
0.987303
0
LINE
8
BLACK
6
CONTINUOUS
10
0.249099
20
0.987303
11
0.249923
21
0.987778
0
LINE
8
BLACK
6
CONTINUOUS
10
0.249923
20
0.987778
11
0.250634
21
0.988409
0
LINE
8
BLACK
6
CONTINUOUS
10
0.250634
20
0.988409
11
0.256258
21
0.991221
0
LINE
8
BLACK
6
CONTINUOUS
10
0.256258
20
0.991221
11
0.256897
21
0.991352
0
LINE
8
BLACK
6
CONTINUOUS
10
0.256897
20
0.991352
11
0.257467
21
0.991668
0
LINE
8
BLACK
6
CONTINUOUS
10
0.257467
20
0.991668
11
0.268716
21
0.994481
0
LINE
8
BLACK
6
CONTINUOUS
10
0.268716
20
0.994481
11
0.269444
21
0.994468
0
LINE
8
BLACK
6
CONTINUOUS
10
0.269444
20
0.994468
11
0.270148
21
0.994657
0
LINE
8
BLACK
6
CONTINUOUS
10
0.270148
20
0.994657
11
0.284209
21
0.994657
0
LINE
8
BLACK
6
CONTINUOUS
10
0.284209
20
0.994657
11
0.284912
21
0.994468
0
LINE
8
BLACK
6
CONTINUOUS
10
0.260961
20
0.980367
11
0.256773
21
0.978274
0
LINE
8
BLACK
6
CONTINUOUS
10
0.256773
20
0.978274
11
0.255316
21
0.976817
0
LINE
8
BLACK
6
CONTINUOUS
10
0.255316
20
0.976817
11
0.253556
21
0.973297
0
LINE
8
BLACK
6
CONTINUOUS
10
0.253556
20
0.973297
11
0.253556
21
0.970461
0
LINE
8
BLACK
6
CONTINUOUS
10
0.253556
20
0.970461
11
0.255316
21
0.96694
0
LINE
8
BLACK
6
CONTINUOUS
10
0.255316
20
0.96694
11
0.256773
21
0.965483
0
LINE
8
BLACK
6
CONTINUOUS
10
0.256773
20
0.965483
11
0.260961
21
0.96339
0
LINE
8
BLACK
6
CONTINUOUS
10
0.260961
20
0.96339
11
0.270875
21
0.960911
0
LINE
8
BLACK
6
CONTINUOUS
10
0.270875
20
0.960911
11
0.283482
21
0.960911
0
LINE
8
BLACK
6
CONTINUOUS
10
0.283482
20
0.960911
11
0.293396
21
0.96339
0
LINE
8
BLACK
6
CONTINUOUS
10
0.293396
20
0.96339
11
0.297583
21
0.965483
0
LINE
8
BLACK
6
CONTINUOUS
10
0.297583
20
0.965483
11
0.29904
21
0.96694
0
LINE
8
BLACK
6
CONTINUOUS
10
0.29904
20
0.96694
11
0.3008
21
0.970461
0
LINE
8
BLACK
6
CONTINUOUS
10
0.3008
20
0.970461
11
0.3008
21
0.973297
0
LINE
8
BLACK
6
CONTINUOUS
10
0.3008
20
0.973297
11
0.29904
21
0.976817
0
LINE
8
BLACK
6
CONTINUOUS
10
0.29904
20
0.976817
11
0.297583
21
0.978274
0
LINE
8
BLACK
6
CONTINUOUS
10
0.297583
20
0.978274
11
0.293396
21
0.980367
0
LINE
8
BLACK
6
CONTINUOUS
10
0.293396
20
0.980367
11
0.283482
21
0.982846
0
LINE
8
BLACK
6
CONTINUOUS
10
0.283482
20
0.982846
11
0.270875
21
0.982846
0
LINE
8
BLACK
6
CONTINUOUS
10
0.270875
20
0.982846
11
0.260961
21
0.980367
0
LINE
8
BLACK
6
CONTINUOUS
10
0.265442
20
1.05065
11
0.266391
21
1.0506
0
LINE
8
BLACK
6
CONTINUOUS
10
0.266391
20
1.0506
11
0.274828
21
1.04778
0
LINE
8
BLACK
6
CONTINUOUS
10
0.274828
20
1.04778
11
0.27596
21
1.04704
0
LINE
8
BLACK
6
CONTINUOUS
10
0.27596
20
1.04704
11
0.277136
21
1.04636
0
LINE
8
BLACK
6
CONTINUOUS
10
0.277136
20
1.04636
11
0.3008
21
1.02269
0
LINE
8
BLACK
6
CONTINUOUS
10
0.3008
20
1.02269
11
0.3008
21
1.04499
0
LINE
8
BLACK
6
CONTINUOUS
10
0.3008
20
1.04499
11
0.301591
21
1.04795
0
LINE
8
BLACK
6
CONTINUOUS
10
0.301591
20
1.04795
11
0.303753
21
1.05011
0
LINE
8
BLACK
6
CONTINUOUS
10
0.303753
20
1.05011
11
0.306706
21
1.0509
0
LINE
8
BLACK
6
CONTINUOUS
10
0.306706
20
1.0509
11
0.309659
21
1.05011
0
LINE
8
BLACK
6
CONTINUOUS
10
0.309659
20
1.05011
11
0.31182
21
1.04795
0
LINE
8
BLACK
6
CONTINUOUS
10
0.31182
20
1.04795
11
0.312611
21
1.04499
0
LINE
8
BLACK
6
CONTINUOUS
10
0.312611
20
1.04499
11
0.312611
21
1.00844
0
LINE
8
BLACK
6
CONTINUOUS
10
0.312611
20
1.00844
11
0.31241
21
1.00769
0
LINE
8
BLACK
6
CONTINUOUS
10
0.31241
20
1.00769
11
0.31241
21
1.00691
0
LINE
8
BLACK
6
CONTINUOUS
10
0.31241
20
1.00691
11
0.312021
21
1.00623
0
LINE
8
BLACK
6
CONTINUOUS
10
0.312021
20
1.00623
11
0.31182
21
1.00548
0
LINE
8
BLACK
6
CONTINUOUS
10
0.31182
20
1.00548
11
0.31127
21
1.00493
0
LINE
8
BLACK
6
CONTINUOUS
10
0.31127
20
1.00493
11
0.310882
21
1.00426
0
LINE
8
BLACK
6
CONTINUOUS
10
0.310882
20
1.00426
11
0.310208
21
1.00387
0
LINE
8
BLACK
6
CONTINUOUS
10
0.310208
20
1.00387
11
0.309659
21
1.00332
0
LINE
8
BLACK
6
CONTINUOUS
10
0.309659
20
1.00332
11
0.308908
21
1.00312
0
LINE
8
BLACK
6
CONTINUOUS
10
0.308908
20
1.00312
11
0.308234
21
1.00273
0
LINE
8
BLACK
6
CONTINUOUS
10
0.308234
20
1.00273
11
0.307457
21
1.00273
0
LINE
8
BLACK
6
CONTINUOUS
10
0.307457
20
1.00273
11
0.306706
21
1.00253
0
LINE
8
BLACK
6
CONTINUOUS
10
0.306706
20
1.00253
11
0.305955
21
1.00273
0
LINE
8
BLACK
6
CONTINUOUS
10
0.305955
20
1.00273
11
0.305177
21
1.00273
0
LINE
8
BLACK
6
CONTINUOUS
10
0.305177
20
1.00273
11
0.304504
21
1.00312
0
LINE
8
BLACK
6
CONTINUOUS
10
0.304504
20
1.00312
11
0.303753
21
1.00332
0
LINE
8
BLACK
6
CONTINUOUS
10
0.303753
20
1.00332
11
0.303203
21
1.00387
0
LINE
8
BLACK
6
CONTINUOUS
10
0.303203
20
1.00387
11
0.30253
21
1.00426
0
LINE
8
BLACK
6
CONTINUOUS
10
0.30253
20
1.00426
11
0.26977
21
1.03702
0
LINE
8
BLACK
6
CONTINUOUS
10
0.26977
20
1.03702
11
0.263565
21
1.03909
0
LINE
8
BLACK
6
CONTINUOUS
10
0.263565
20
1.03909
11
0.260293
21
1.03909
0
LINE
8
BLACK
6
CONTINUOUS
10
0.260293
20
1.03909
11
0.256773
21
1.03733
0
LINE
8
BLACK
6
CONTINUOUS
10
0.256773
20
1.03733
11
0.255316
21
1.03587
0
LINE
8
BLACK
6
CONTINUOUS
10
0.255316
20
1.03587
11
0.253556
21
1.03235
0
LINE
8
BLACK
6
CONTINUOUS
10
0.253556
20
1.03235
11
0.253556
21
1.02108
0
LINE
8
BLACK
6
CONTINUOUS
10
0.253556
20
1.02108
11
0.255316
21
1.01756
0
LINE
8
BLACK
6
CONTINUOUS
10
0.255316
20
1.01756
11
0.257451
21
1.01542
0
LINE
8
BLACK
6
CONTINUOUS
10
0.257451
20
1.01542
11
0.258979
21
1.01278
0
LINE
8
BLACK
6
CONTINUOUS
10
0.258979
20
1.01278
11
0.258979
21
1.00972
0
LINE
8
BLACK
6
CONTINUOUS
10
0.258979
20
1.00972
11
0.257451
21
1.00707
0
LINE
8
BLACK
6
CONTINUOUS
10
0.257451
20
1.00707
11
0.254803
21
1.00554
0
LINE
8
BLACK
6
CONTINUOUS
10
0.254803
20
1.00554
11
0.251747
21
1.00554
0
LINE
8
BLACK
6
CONTINUOUS
10
0.251747
20
1.00554
11
0.249099
21
1.00707
0
LINE
8
BLACK
6
CONTINUOUS
10
0.249099
20
1.00707
11
0.246287
21
1.00988
0
LINE
8
BLACK
6
CONTINUOUS
10
0.246287
20
1.00988
11
0.245812
21
1.01071
0
LINE
8
BLACK
6
CONTINUOUS
10
0.245812
20
1.01071
11
0.245181
21
1.01142
0
LINE
8
BLACK
6
CONTINUOUS
10
0.245181
20
1.01142
11
0.242369
21
1.01704
0
LINE
8
BLACK
6
CONTINUOUS
10
0.242369
20
1.01704
11
0.242096
21
1.01837
0
LINE
8
BLACK
6
CONTINUOUS
10
0.242096
20
1.01837
11
0.241745
21
1.01969
0
LINE
8
BLACK
6
CONTINUOUS
10
0.241745
20
1.01969
11
0.241745
21
1.03375
0
LINE
8
BLACK
6
CONTINUOUS
10
0.241745
20
1.03375
11
0.242096
21
1.03506
0
LINE
8
BLACK
6
CONTINUOUS
10
0.242096
20
1.03506
11
0.242369
21
1.03639
0
LINE
8
BLACK
6
CONTINUOUS
10
0.242369
20
1.03639
11
0.245181
21
1.04201
0
LINE
8
BLACK
6
CONTINUOUS
10
0.245181
20
1.04201
11
0.245812
21
1.04272
0
LINE
8
BLACK
6
CONTINUOUS
10
0.245812
20
1.04272
11
0.246287
21
1.04355
0
LINE
8
BLACK
6
CONTINUOUS
10
0.246287
20
1.04355
11
0.249099
21
1.04636
0
LINE
8
BLACK
6
CONTINUOUS
10
0.249099
20
1.04636
11
0.249923
21
1.04683
0
LINE
8
BLACK
6
CONTINUOUS
10
0.249923
20
1.04683
11
0.250634
21
1.04746
0
LINE
8
BLACK
6
CONTINUOUS
10
0.250634
20
1.04746
11
0.256258
21
1.05028
0
LINE
8
BLACK
6
CONTINUOUS
10
0.256258
20
1.05028
11
0.257588
21
1.05055
0
LINE
8
BLACK
6
CONTINUOUS
10
0.257588
20
1.05055
11
0.258899
21
1.0509
0
LINE
8
BLACK
6
CONTINUOUS
10
0.258899
20
1.0509
11
0.264524
21
1.0509
0
LINE
8
BLACK
6
CONTINUOUS
10
0.264524
20
1.0509
11
0.265442
21
1.05065
0
LINE
8
BLACK
6
CONTINUOUS
10
2.87297
20
1.05131
11
2.87514
21
1.04915
0
LINE
8
BLACK
6
CONTINUOUS
10
2.87514
20
1.04915
11
2.87593
21
1.0462
0
LINE
8
BLACK
6
CONTINUOUS
10
2.87593
20
1.0462
11
2.87593
21
1.04367
0
LINE
8
BLACK
6
CONTINUOUS
10
2.87593
20
1.04367
11
2.88971
21
1.04367
0
LINE
8
BLACK
6
CONTINUOUS
10
2.88971
20
1.04367
11
2.89266
21
1.04288
0
LINE
8
BLACK
6
CONTINUOUS
10
2.89266
20
1.04288
11
2.89482
21
1.04072
0
LINE
8
BLACK
6
CONTINUOUS
10
2.89482
20
1.04072
11
2.89561
21
1.03776
0
LINE
8
BLACK
6
CONTINUOUS
10
2.89561
20
1.03776
11
2.89482
21
1.03481
0
LINE
8
BLACK
6
CONTINUOUS
10
2.89482
20
1.03481
11
2.89266
21
1.03265
0
LINE
8
BLACK
6
CONTINUOUS
10
2.89266
20
1.03265
11
2.88971
21
1.03186
0
LINE
8
BLACK
6
CONTINUOUS
10
2.88971
20
1.03186
11
2.87593
21
1.03186
0
LINE
8
BLACK
6
CONTINUOUS
10
2.87593
20
1.03186
11
2.87593
21
1.00964
0
LINE
8
BLACK
6
CONTINUOUS
10
2.87593
20
1.00964
11
2.87568
21
1.00872
0
LINE
8
BLACK
6
CONTINUOUS
10
2.87568
20
1.00872
11
2.87562
21
1.00777
0
LINE
8
BLACK
6
CONTINUOUS
10
2.87562
20
1.00777
11
2.87529
21
1.00727
0
LINE
8
BLACK
6
CONTINUOUS
10
2.87529
20
1.00727
11
2.87514
21
1.00669
0
LINE
8
BLACK
6
CONTINUOUS
10
2.87514
20
1.00669
11
2.87446
21
1.00602
0
LINE
8
BLACK
6
CONTINUOUS
10
2.87446
20
1.00602
11
2.87394
21
1.00522
0
LINE
8
BLACK
6
CONTINUOUS
10
2.87394
20
1.00522
11
2.8734
21
1.00495
0
LINE
8
BLACK
6
CONTINUOUS
10
2.8734
20
1.00495
11
2.87297
21
1.00453
0
LINE
8
BLACK
6
CONTINUOUS
10
2.87297
20
1.00453
11
2.87206
21
1.00428
0
LINE
8
BLACK
6
CONTINUOUS
10
2.87206
20
1.00428
11
2.8712
21
1.00386
0
LINE
8
BLACK
6
CONTINUOUS
10
2.8712
20
1.00386
11
2.8706
21
1.00389
0
LINE
8
BLACK
6
CONTINUOUS
10
2.8706
20
1.00389
11
2.87002
21
1.00374
0
LINE
8
BLACK
6
CONTINUOUS
10
2.87002
20
1.00374
11
2.8691
21
1.00398
0
LINE
8
BLACK
6
CONTINUOUS
10
2.8691
20
1.00398
11
2.86815
21
1.00404
0
LINE
8
BLACK
6
CONTINUOUS
10
2.86815
20
1.00404
11
2.82597
21
1.0181
0
LINE
8
BLACK
6
CONTINUOUS
10
2.82597
20
1.0181
11
2.82342
21
1.01978
0
LINE
8
BLACK
6
CONTINUOUS
10
2.82342
20
1.01978
11
2.82205
21
1.02252
0
LINE
8
BLACK
6
CONTINUOUS
10
2.82205
20
1.02252
11
2.82224
21
1.02557
0
LINE
8
BLACK
6
CONTINUOUS
10
2.82224
20
1.02557
11
2.82392
21
1.02812
0
LINE
8
BLACK
6
CONTINUOUS
10
2.82392
20
1.02812
11
2.82665
21
1.02949
0
LINE
8
BLACK
6
CONTINUOUS
10
2.82665
20
1.02949
11
2.82971
21
1.0293
0
LINE
8
BLACK
6
CONTINUOUS
10
2.82971
20
1.0293
11
2.86412
21
1.01783
0
LINE
8
BLACK
6
CONTINUOUS
10
2.86412
20
1.01783
11
2.86412
21
1.03186
0
LINE
8
BLACK
6
CONTINUOUS
10
2.86412
20
1.03186
11
2.85034
21
1.03186
0
LINE
8
BLACK
6
CONTINUOUS
10
2.85034
20
1.03186
11
2.84738
21
1.03265
0
LINE
8
BLACK
6
CONTINUOUS
10
2.84738
20
1.03265
11
2.84522
21
1.03481
0
LINE
8
BLACK
6
CONTINUOUS
10
2.84522
20
1.03481
11
2.84443
21
1.03776
0
LINE
8
BLACK
6
CONTINUOUS
10
2.84443
20
1.03776
11
2.84522
21
1.04072
0
LINE
8
BLACK
6
CONTINUOUS
10
2.84522
20
1.04072
11
2.84738
21
1.04288
0
LINE
8
BLACK
6
CONTINUOUS
10
2.84738
20
1.04288
11
2.85034
21
1.04367
0
LINE
8
BLACK
6
CONTINUOUS
10
2.85034
20
1.04367
11
2.86412
21
1.04367
0
LINE
8
BLACK
6
CONTINUOUS
10
2.86412
20
1.04367
11
2.86412
21
1.0462
0
LINE
8
BLACK
6
CONTINUOUS
10
2.86412
20
1.0462
11
2.86491
21
1.04915
0
LINE
8
BLACK
6
CONTINUOUS
10
2.86491
20
1.04915
11
2.86707
21
1.05131
0
LINE
8
BLACK
6
CONTINUOUS
10
2.86707
20
1.05131
11
2.87002
21
1.0521
0
LINE
8
BLACK
6
CONTINUOUS
10
2.87002
20
1.0521
11
2.87297
21
1.05131
0
LINE
8
BLACK
6
CONTINUOUS
10
2.89362
20
1.10405
11
2.89531
21
1.1015
0
LINE
8
BLACK
6
CONTINUOUS
10
2.89531
20
1.1015
11
2.89549
21
1.09845
0
LINE
8
BLACK
6
CONTINUOUS
10
2.89549
20
1.09845
11
2.89412
21
1.09571
0
LINE
8
BLACK
6
CONTINUOUS
10
2.89412
20
1.09571
11
2.89157
21
1.09403
0
LINE
8
BLACK
6
CONTINUOUS
10
2.89157
20
1.09403
11
2.87874
21
1.08975
0
LINE
8
BLACK
6
CONTINUOUS
10
2.87874
20
1.08975
11
2.87874
21
1.07014
0
LINE
8
BLACK
6
CONTINUOUS
10
2.87874
20
1.07014
11
2.89157
21
1.06586
0
LINE
8
BLACK
6
CONTINUOUS
10
2.89157
20
1.06586
11
2.89412
21
1.06418
0
LINE
8
BLACK
6
CONTINUOUS
10
2.89412
20
1.06418
11
2.89549
21
1.06144
0
LINE
8
BLACK
6
CONTINUOUS
10
2.89549
20
1.06144
11
2.89531
21
1.05839
0
LINE
8
BLACK
6
CONTINUOUS
10
2.89531
20
1.05839
11
2.89362
21
1.05584
0
LINE
8
BLACK
6
CONTINUOUS
10
2.89362
20
1.05584
11
2.89089
21
1.05447
0
LINE
8
BLACK
6
CONTINUOUS
10
2.89089
20
1.05447
11
2.88784
21
1.05466
0
LINE
8
BLACK
6
CONTINUOUS
10
2.88784
20
1.05466
11
2.82878
21
1.07434
0
LINE
8
BLACK
6
CONTINUOUS
10
2.82878
20
1.07434
11
2.82779
21
1.075
0
LINE
8
BLACK
6
CONTINUOUS
10
2.82779
20
1.075
11
2.82673
21
1.07553
0
LINE
8
BLACK
6
CONTINUOUS
10
2.82673
20
1.07553
11
2.82653
21
1.07583
0
LINE
8
BLACK
6
CONTINUOUS
10
2.82653
20
1.07583
11
2.82623
21
1.07603
0
LINE
8
BLACK
6
CONTINUOUS
10
2.82623
20
1.07603
11
2.8257
21
1.07709
0
LINE
8
BLACK
6
CONTINUOUS
10
2.8257
20
1.07709
11
2.82505
21
1.07808
0
LINE
8
BLACK
6
CONTINUOUS
10
2.82505
20
1.07808
11
2.82503
21
1.07844
0
LINE
8
BLACK
6
CONTINUOUS
10
2.82503
20
1.07844
11
2.82487
21
1.07876
0
LINE
8
BLACK
6
CONTINUOUS
10
2.82487
20
1.07876
11
2.82494
21
1.07994
0
LINE
8
BLACK
6
CONTINUOUS
10
2.82494
20
1.07994
11
2.82487
21
1.08113
0
LINE
8
BLACK
6
CONTINUOUS
10
2.82487
20
1.08113
11
2.82503
21
1.08145
0
LINE
8
BLACK
6
CONTINUOUS
10
2.82503
20
1.08145
11
2.82505
21
1.08181
0
LINE
8
BLACK
6
CONTINUOUS
10
2.82505
20
1.08181
11
2.8257
21
1.0828
0
LINE
8
BLACK
6
CONTINUOUS
10
2.8257
20
1.0828
11
2.82623
21
1.08386
0
LINE
8
BLACK
6
CONTINUOUS
10
2.82623
20
1.08386
11
2.82653
21
1.08406
0
LINE
8
BLACK
6
CONTINUOUS
10
2.82653
20
1.08406
11
2.82673
21
1.08436
0
LINE
8
BLACK
6
CONTINUOUS
10
2.82673
20
1.08436
11
2.82779
21
1.08489
0
LINE
8
BLACK
6
CONTINUOUS
10
2.82779
20
1.08489
11
2.82878
21
1.08555
0
LINE
8
BLACK
6
CONTINUOUS
10
2.82878
20
1.08555
11
2.88784
21
1.10523
0
LINE
8
BLACK
6
CONTINUOUS
10
2.88784
20
1.10523
11
2.89089
21
1.10542
0
LINE
8
BLACK
6
CONTINUOUS
10
2.89089
20
1.10542
11
2.89362
21
1.10405
0
LINE
8
BLACK
6
CONTINUOUS
10
2.84933
20
1.07994
11
2.86693
21
1.07408
0
LINE
8
BLACK
6
CONTINUOUS
10
2.86693
20
1.07408
11
2.86693
21
1.08581
0
LINE
8
BLACK
6
CONTINUOUS
10
2.86693
20
1.08581
11
2.84933
21
1.07994
0
LINE
8
BLACK
6
CONTINUOUS
10
0.296768
20
1.10679
11
0.298098
21
1.10652
0
LINE
8
BLACK
6
CONTINUOUS
10
0.298098
20
1.10652
11
0.303723
21
1.10371
0
LINE
8
BLACK
6
CONTINUOUS
10
0.303723
20
1.10371
11
0.304434
21
1.10308
0
LINE
8
BLACK
6
CONTINUOUS
10
0.304434
20
1.10308
11
0.305257
21
1.1026
0
LINE
8
BLACK
6
CONTINUOUS
10
0.305257
20
1.1026
11
0.30807
21
1.09979
0
LINE
8
BLACK
6
CONTINUOUS
10
0.30807
20
1.09979
11
0.308545
21
1.09897
0
LINE
8
BLACK
6
CONTINUOUS
10
0.308545
20
1.09897
11
0.309176
21
1.09825
0
LINE
8
BLACK
6
CONTINUOUS
10
0.309176
20
1.09825
11
0.311988
21
1.09263
0
LINE
8
BLACK
6
CONTINUOUS
10
0.311988
20
1.09263
11
0.31226
21
1.0913
0
LINE
8
BLACK
6
CONTINUOUS
10
0.31226
20
1.0913
11
0.312611
21
1.08999
0
LINE
8
BLACK
6
CONTINUOUS
10
0.312611
20
1.08999
11
0.312611
21
1.07312
0
LINE
8
BLACK
6
CONTINUOUS
10
0.312611
20
1.07312
11
0.31226
21
1.0718
0
LINE
8
BLACK
6
CONTINUOUS
10
0.31226
20
1.0718
11
0.311988
21
1.07047
0
LINE
8
BLACK
6
CONTINUOUS
10
0.311988
20
1.07047
11
0.309176
21
1.06485
0
LINE
8
BLACK
6
CONTINUOUS
10
0.309176
20
1.06485
11
0.308545
21
1.06414
0
LINE
8
BLACK
6
CONTINUOUS
10
0.308545
20
1.06414
11
0.30807
21
1.06332
0
LINE
8
BLACK
6
CONTINUOUS
10
0.30807
20
1.06332
11
0.305257
21
1.0605
0
LINE
8
BLACK
6
CONTINUOUS
10
0.305257
20
1.0605
11
0.30261
21
1.05898
0
LINE
8
BLACK
6
CONTINUOUS
10
0.30261
20
1.05898
11
0.299553
21
1.05898
0
LINE
8
BLACK
6
CONTINUOUS
10
0.299553
20
1.05898
11
0.296906
21
1.0605
0
LINE
8
BLACK
6
CONTINUOUS
10
0.296906
20
1.0605
11
0.295377
21
1.06315
0
LINE
8
BLACK
6
CONTINUOUS
10
0.295377
20
1.06315
11
0.295377
21
1.06621
0
LINE
8
BLACK
6
CONTINUOUS
10
0.295377
20
1.06621
11
0.296906
21
1.06886
0
LINE
8
BLACK
6
CONTINUOUS
10
0.296906
20
1.06886
11
0.29904
21
1.07099
0
LINE
8
BLACK
6
CONTINUOUS
10
0.29904
20
1.07099
11
0.3008
21
1.07451
0
LINE
8
BLACK
6
CONTINUOUS
10
0.3008
20
1.07451
11
0.3008
21
1.08859
0
LINE
8
BLACK
6
CONTINUOUS
10
0.3008
20
1.08859
11
0.29904
21
1.09211
0
LINE
8
BLACK
6
CONTINUOUS
10
0.29904
20
1.09211
11
0.297583
21
1.09357
0
LINE
8
BLACK
6
CONTINUOUS
10
0.297583
20
1.09357
11
0.294063
21
1.09533
0
LINE
8
BLACK
6
CONTINUOUS
10
0.294063
20
1.09533
11
0.282791
21
1.09533
0
LINE
8
BLACK
6
CONTINUOUS
10
0.282791
20
1.09533
11
0.27927
21
1.09357
0
LINE
8
BLACK
6
CONTINUOUS
10
0.27927
20
1.09357
11
0.277813
21
1.09211
0
LINE
8
BLACK
6
CONTINUOUS
10
0.277813
20
1.09211
11
0.276053
21
1.08859
0
LINE
8
BLACK
6
CONTINUOUS
10
0.276053
20
1.08859
11
0.276053
21
1.08155
0
LINE
8
BLACK
6
CONTINUOUS
10
0.276053
20
1.08155
11
0.275902
21
1.08099
0
LINE
8
BLACK
6
CONTINUOUS
10
0.275902
20
1.08099
11
0.275941
21
1.08041
0
LINE
8
BLACK
6
CONTINUOUS
10
0.275941
20
1.08041
11
0.275513
21
1.07954
0
LINE
8
BLACK
6
CONTINUOUS
10
0.275513
20
1.07954
11
0.275262
21
1.0786
0
LINE
8
BLACK
6
CONTINUOUS
10
0.275262
20
1.0786
11
0.27485
21
1.07819
0
LINE
8
BLACK
6
CONTINUOUS
10
0.27485
20
1.07819
11
0.274592
21
1.07766
0
LINE
8
BLACK
6
CONTINUOUS
10
0.274592
20
1.07766
11
0.273787
21
1.07712
0
LINE
8
BLACK
6
CONTINUOUS
10
0.273787
20
1.07712
11
0.273101
21
1.07644
0
LINE
8
BLACK
6
CONTINUOUS
10
0.273101
20
1.07644
11
0.272537
21
1.07629
0
LINE
8
BLACK
6
CONTINUOUS
10
0.272537
20
1.07629
11
0.272052
21
1.07596
0
LINE
8
BLACK
6
CONTINUOUS
10
0.272052
20
1.07596
11
0.271085
21
1.0759
0
LINE
8
BLACK
6
CONTINUOUS
10
0.271085
20
1.0759
11
0.270148
21
1.07565
0
LINE
8
BLACK
6
CONTINUOUS
10
0.270148
20
1.07565
11
0.269584
21
1.0758
0
LINE
8
BLACK
6
CONTINUOUS
10
0.269584
20
1.0758
11
0.269002
21
1.07576
0
LINE
8
BLACK
6
CONTINUOUS
10
0.269002
20
1.07576
11
0.268132
21
1.07619
0
LINE
8
BLACK
6
CONTINUOUS
10
0.268132
20
1.07619
11
0.267195
21
1.07644
0
LINE
8
BLACK
6
CONTINUOUS
10
0.267195
20
1.07644
11
0.266783
21
1.07685
0
LINE
8
BLACK
6
CONTINUOUS
10
0.266783
20
1.07685
11
0.266259
21
1.07711
0
LINE
8
BLACK
6
CONTINUOUS
10
0.266259
20
1.07711
11
0.253556
21
1.08822
0
LINE
8
BLACK
6
CONTINUOUS
10
0.253556
20
1.08822
11
0.253556
21
1.06468
0
LINE
8
BLACK
6
CONTINUOUS
10
0.253556
20
1.06468
11
0.252765
21
1.06173
0
LINE
8
BLACK
6
CONTINUOUS
10
0.252765
20
1.06173
11
0.250603
21
1.05957
0
LINE
8
BLACK
6
CONTINUOUS
10
0.250603
20
1.05957
11
0.247651
21
1.05877
0
LINE
8
BLACK
6
CONTINUOUS
10
0.247651
20
1.05877
11
0.244698
21
1.05957
0
LINE
8
BLACK
6
CONTINUOUS
10
0.244698
20
1.05957
11
0.242536
21
1.06173
0
LINE
8
BLACK
6
CONTINUOUS
10
0.242536
20
1.06173
11
0.241745
21
1.06468
0
LINE
8
BLACK
6
CONTINUOUS
10
0.241745
20
1.06468
11
0.241745
21
1.10124
0
LINE
8
BLACK
6
CONTINUOUS
10
0.241745
20
1.10124
11
0.241896
21
1.1018
0
LINE
8
BLACK
6
CONTINUOUS
10
0.241896
20
1.1018
11
0.241857
21
1.10238
0
LINE
8
BLACK
6
CONTINUOUS
10
0.241857
20
1.10238
11
0.242285
21
1.10325
0
LINE
8
BLACK
6
CONTINUOUS
10
0.242285
20
1.10325
11
0.242536
21
1.10419
0
LINE
8
BLACK
6
CONTINUOUS
10
0.242536
20
1.10419
11
0.242949
21
1.1046
0
LINE
8
BLACK
6
CONTINUOUS
10
0.242949
20
1.1046
11
0.243206
21
1.10513
0
LINE
8
BLACK
6
CONTINUOUS
10
0.243206
20
1.10513
11
0.244012
21
1.10567
0
LINE
8
BLACK
6
CONTINUOUS
10
0.244012
20
1.10567
11
0.244698
21
1.10635
0
LINE
8
BLACK
6
CONTINUOUS
10
0.244698
20
1.10635
11
0.245261
21
1.1065
0
LINE
8
BLACK
6
CONTINUOUS
10
0.245261
20
1.1065
11
0.245746
21
1.10683
0
LINE
8
BLACK
6
CONTINUOUS
10
0.245746
20
1.10683
11
0.246714
21
1.10689
0
LINE
8
BLACK
6
CONTINUOUS
10
0.246714
20
1.10689
11
0.247651
21
1.10714
0
LINE
8
BLACK
6
CONTINUOUS
10
0.247651
20
1.10714
11
0.248214
21
1.10699
0
LINE
8
BLACK
6
CONTINUOUS
10
0.248214
20
1.10699
11
0.248796
21
1.10703
0
LINE
8
BLACK
6
CONTINUOUS
10
0.248796
20
1.10703
11
0.249667
21
1.1066
0
LINE
8
BLACK
6
CONTINUOUS
10
0.249667
20
1.1066
11
0.250603
21
1.10635
0
LINE
8
BLACK
6
CONTINUOUS
10
0.250603
20
1.10635
11
0.251016
21
1.10594
0
LINE
8
BLACK
6
CONTINUOUS
10
0.251016
20
1.10594
11
0.25154
21
1.10568
0
LINE
8
BLACK
6
CONTINUOUS
10
0.25154
20
1.10568
11
0.26535
21
1.0936
0
LINE
8
BLACK
6
CONTINUOUS
10
0.26535
20
1.0936
11
0.267678
21
1.09825
0
LINE
8
BLACK
6
CONTINUOUS
10
0.267678
20
1.09825
11
0.268309
21
1.09897
0
LINE
8
BLACK
6
CONTINUOUS
10
0.268309
20
1.09897
11
0.268784
21
1.09979
0
LINE
8
BLACK
6
CONTINUOUS
10
0.268784
20
1.09979
11
0.271596
21
1.1026
0
LINE
8
BLACK
6
CONTINUOUS
10
0.271596
20
1.1026
11
0.27242
21
1.10308
0
LINE
8
BLACK
6
CONTINUOUS
10
0.27242
20
1.10308
11
0.273131
21
1.10371
0
LINE
8
BLACK
6
CONTINUOUS
10
0.273131
20
1.10371
11
0.278755
21
1.10652
0
LINE
8
BLACK
6
CONTINUOUS
10
0.278755
20
1.10652
11
0.280085
21
1.10679
0
LINE
8
BLACK
6
CONTINUOUS
10
0.280085
20
1.10679
11
0.281396
21
1.10714
0
LINE
8
BLACK
6
CONTINUOUS
10
0.281396
20
1.10714
11
0.295457
21
1.10714
0
LINE
8
BLACK
6
CONTINUOUS
10
0.295457
20
1.10714
11
0.296768
21
1.10679
0
LINE
8
BLACK
6
CONTINUOUS
10
2.87977
20
1.19799
11
2.8811
21
1.19771
0
LINE
8
BLACK
6
CONTINUOUS
10
2.8811
20
1.19771
11
2.88672
21
1.1949
0
LINE
8
BLACK
6
CONTINUOUS
10
2.88672
20
1.1949
11
2.88743
21
1.19427
0
LINE
8
BLACK
6
CONTINUOUS
10
2.88743
20
1.19427
11
2.88826
21
1.19379
0
LINE
8
BLACK
6
CONTINUOUS
10
2.88826
20
1.19379
11
2.89107
21
1.19098
0
LINE
8
BLACK
6
CONTINUOUS
10
2.89107
20
1.19098
11
2.89154
21
1.19016
0
LINE
8
BLACK
6
CONTINUOUS
10
2.89154
20
1.19016
11
2.89218
21
1.18945
0
LINE
8
BLACK
6
CONTINUOUS
10
2.89218
20
1.18945
11
2.89499
21
1.18382
0
LINE
8
BLACK
6
CONTINUOUS
10
2.89499
20
1.18382
11
2.89526
21
1.18249
0
LINE
8
BLACK
6
CONTINUOUS
10
2.89526
20
1.18249
11
2.89561
21
1.18118
0
LINE
8
BLACK
6
CONTINUOUS
10
2.89561
20
1.18118
11
2.89561
21
1.16993
0
LINE
8
BLACK
6
CONTINUOUS
10
2.89561
20
1.16993
11
2.89526
21
1.16862
0
LINE
8
BLACK
6
CONTINUOUS
10
2.89526
20
1.16862
11
2.89499
21
1.16729
0
LINE
8
BLACK
6
CONTINUOUS
10
2.89499
20
1.16729
11
2.89487
21
1.16706
0
LINE
8
BLACK
6
CONTINUOUS
10
2.89487
20
1.16706
11
2.89561
21
1.16431
0
LINE
8
BLACK
6
CONTINUOUS
10
2.89561
20
1.16431
11
2.89482
21
1.16136
0
LINE
8
BLACK
6
CONTINUOUS
10
2.89482
20
1.16136
11
2.89266
21
1.15919
0
LINE
8
BLACK
6
CONTINUOUS
10
2.89266
20
1.15919
11
2.88971
21
1.1584
0
LINE
8
BLACK
6
CONTINUOUS
10
2.88971
20
1.1584
11
2.83065
21
1.1584
0
LINE
8
BLACK
6
CONTINUOUS
10
2.83065
20
1.1584
11
2.8277
21
1.15919
0
LINE
8
BLACK
6
CONTINUOUS
10
2.8277
20
1.15919
11
2.82554
21
1.16136
0
LINE
8
BLACK
6
CONTINUOUS
10
2.82554
20
1.16136
11
2.82475
21
1.16431
0
LINE
8
BLACK
6
CONTINUOUS
10
2.82475
20
1.16431
11
2.82554
21
1.16726
0
LINE
8
BLACK
6
CONTINUOUS
10
2.82554
20
1.16726
11
2.8277
21
1.16942
0
LINE
8
BLACK
6
CONTINUOUS
10
2.8277
20
1.16942
11
2.83065
21
1.17021
0
LINE
8
BLACK
6
CONTINUOUS
10
2.83065
20
1.17021
11
2.84443
21
1.17021
0
LINE
8
BLACK
6
CONTINUOUS
10
2.84443
20
1.17021
11
2.84443
21
1.18118
0
LINE
8
BLACK
6
CONTINUOUS
10
2.84443
20
1.18118
11
2.84478
21
1.18249
0
LINE
8
BLACK
6
CONTINUOUS
10
2.84478
20
1.18249
11
2.84505
21
1.18382
0
LINE
8
BLACK
6
CONTINUOUS
10
2.84505
20
1.18382
11
2.84787
21
1.18945
0
LINE
8
BLACK
6
CONTINUOUS
10
2.84787
20
1.18945
11
2.8485
21
1.19016
0
LINE
8
BLACK
6
CONTINUOUS
10
2.8485
20
1.19016
11
2.84897
21
1.19098
0
LINE
8
BLACK
6
CONTINUOUS
10
2.84897
20
1.19098
11
2.85178
21
1.19379
0
LINE
8
BLACK
6
CONTINUOUS
10
2.85178
20
1.19379
11
2.85261
21
1.19427
0
LINE
8
BLACK
6
CONTINUOUS
10
2.85261
20
1.19427
11
2.85332
21
1.1949
0
LINE
8
BLACK
6
CONTINUOUS
10
2.85332
20
1.1949
11
2.85894
21
1.19771
0
LINE
8
BLACK
6
CONTINUOUS
10
2.85894
20
1.19771
11
2.86027
21
1.19799
0
LINE
8
BLACK
6
CONTINUOUS
10
2.86027
20
1.19799
11
2.86158
21
1.19834
0
LINE
8
BLACK
6
CONTINUOUS
10
2.86158
20
1.19834
11
2.87846
21
1.19834
0
LINE
8
BLACK
6
CONTINUOUS
10
2.87846
20
1.19834
11
2.87977
21
1.19799
0
LINE
8
BLACK
6
CONTINUOUS
10
2.85946
20
1.18477
11
2.858
21
1.18331
0
LINE
8
BLACK
6
CONTINUOUS
10
2.858
20
1.18331
11
2.85624
21
1.17979
0
LINE
8
BLACK
6
CONTINUOUS
10
2.85624
20
1.17979
11
2.85624
21
1.17133
0
LINE
8
BLACK
6
CONTINUOUS
10
2.85624
20
1.17133
11
2.8568
21
1.17021
0
LINE
8
BLACK
6
CONTINUOUS
10
2.8568
20
1.17021
11
2.88324
21
1.17021
0
LINE
8
BLACK
6
CONTINUOUS
10
2.88324
20
1.17021
11
2.8838
21
1.17133
0
LINE
8
BLACK
6
CONTINUOUS
10
2.8838
20
1.17133
11
2.8838
21
1.17979
0
LINE
8
BLACK
6
CONTINUOUS
10
2.8838
20
1.17979
11
2.88204
21
1.18331
0
LINE
8
BLACK
6
CONTINUOUS
10
2.88204
20
1.18331
11
2.88058
21
1.18477
0
LINE
8
BLACK
6
CONTINUOUS
10
2.88058
20
1.18477
11
2.87706
21
1.18653
0
LINE
8
BLACK
6
CONTINUOUS
10
2.87706
20
1.18653
11
2.86298
21
1.18653
0
LINE
8
BLACK
6
CONTINUOUS
10
2.86298
20
1.18653
11
2.85946
21
1.18477
0
LINE
8
BLACK
6
CONTINUOUS
10
2.89266
20
1.24816
11
2.89482
21
1.246
0
LINE
8
BLACK
6
CONTINUOUS
10
2.89482
20
1.246
11
2.89561
21
1.24305
0
LINE
8
BLACK
6
CONTINUOUS
10
2.89561
20
1.24305
11
2.89487
21
1.2403
0
LINE
8
BLACK
6
CONTINUOUS
10
2.89487
20
1.2403
11
2.89499
21
1.24007
0
LINE
8
BLACK
6
CONTINUOUS
10
2.89499
20
1.24007
11
2.89526
21
1.23874
0
LINE
8
BLACK
6
CONTINUOUS
10
2.89526
20
1.23874
11
2.89561
21
1.23743
0
LINE
8
BLACK
6
CONTINUOUS
10
2.89561
20
1.23743
11
2.89561
21
1.22336
0
LINE
8
BLACK
6
CONTINUOUS
10
2.89561
20
1.22336
11
2.89526
21
1.22205
0
LINE
8
BLACK
6
CONTINUOUS
10
2.89526
20
1.22205
11
2.89499
21
1.22072
0
LINE
8
BLACK
6
CONTINUOUS
10
2.89499
20
1.22072
11
2.89218
21
1.2151
0
LINE
8
BLACK
6
CONTINUOUS
10
2.89218
20
1.2151
11
2.89194
21
1.21483
0
LINE
8
BLACK
6
CONTINUOUS
10
2.89194
20
1.21483
11
2.89182
21
1.21449
0
LINE
8
BLACK
6
CONTINUOUS
10
2.89182
20
1.21449
11
2.89093
21
1.2137
0
LINE
8
BLACK
6
CONTINUOUS
10
2.89093
20
1.2137
11
2.89015
21
1.21281
0
LINE
8
BLACK
6
CONTINUOUS
10
2.89015
20
1.21281
11
2.8898
21
1.2127
0
LINE
8
BLACK
6
CONTINUOUS
10
2.8898
20
1.2127
11
2.88953
21
1.21246
0
LINE
8
BLACK
6
CONTINUOUS
10
2.88953
20
1.21246
11
2.88391
21
1.20965
0
LINE
8
BLACK
6
CONTINUOUS
10
2.88391
20
1.20965
11
2.88258
21
1.20937
0
LINE
8
BLACK
6
CONTINUOUS
10
2.88258
20
1.20937
11
2.88127
21
1.20902
0
LINE
8
BLACK
6
CONTINUOUS
10
2.88127
20
1.20902
11
2.87565
21
1.20902
0
LINE
8
BLACK
6
CONTINUOUS
10
2.87565
20
1.20902
11
2.87433
21
1.20937
0
LINE
8
BLACK
6
CONTINUOUS
10
2.87433
20
1.20937
11
2.873
21
1.20965
0
LINE
8
BLACK
6
CONTINUOUS
10
2.873
20
1.20965
11
2.86738
21
1.21246
0
LINE
8
BLACK
6
CONTINUOUS
10
2.86738
20
1.21246
11
2.86711
21
1.2127
0
LINE
8
BLACK
6
CONTINUOUS
10
2.86711
20
1.2127
11
2.86677
21
1.21281
0
LINE
8
BLACK
6
CONTINUOUS
10
2.86677
20
1.21281
11
2.86598
21
1.2137
0
LINE
8
BLACK
6
CONTINUOUS
10
2.86598
20
1.2137
11
2.86509
21
1.21449
0
LINE
8
BLACK
6
CONTINUOUS
10
2.86509
20
1.21449
11
2.86498
21
1.21483
0
LINE
8
BLACK
6
CONTINUOUS
10
2.86498
20
1.21483
11
2.86474
21
1.2151
0
LINE
8
BLACK
6
CONTINUOUS
10
2.86474
20
1.2151
11
2.86193
21
1.22072
0
LINE
8
BLACK
6
CONTINUOUS
10
2.86193
20
1.22072
11
2.86165
21
1.22205
0
LINE
8
BLACK
6
CONTINUOUS
10
2.86165
20
1.22205
11
2.8613
21
1.22336
0
LINE
8
BLACK
6
CONTINUOUS
10
2.8613
20
1.22336
11
2.8613
21
1.23603
0
LINE
8
BLACK
6
CONTINUOUS
10
2.8613
20
1.23603
11
2.86075
21
1.23714
0
LINE
8
BLACK
6
CONTINUOUS
10
2.86075
20
1.23714
11
2.86017
21
1.23714
0
LINE
8
BLACK
6
CONTINUOUS
10
2.86017
20
1.23714
11
2.85755
21
1.23584
0
LINE
8
BLACK
6
CONTINUOUS
10
2.85755
20
1.23584
11
2.85624
21
1.23322
0
LINE
8
BLACK
6
CONTINUOUS
10
2.85624
20
1.23322
11
2.85624
21
1.22476
0
LINE
8
BLACK
6
CONTINUOUS
10
2.85624
20
1.22476
11
2.85843
21
1.22038
0
LINE
8
BLACK
6
CONTINUOUS
10
2.85843
20
1.22038
11
2.85904
21
1.21739
0
LINE
8
BLACK
6
CONTINUOUS
10
2.85904
20
1.21739
11
2.85808
21
1.21449
0
LINE
8
BLACK
6
CONTINUOUS
10
2.85808
20
1.21449
11
2.85579
21
1.21246
0
LINE
8
BLACK
6
CONTINUOUS
10
2.85579
20
1.21246
11
2.85279
21
1.21185
0
LINE
8
BLACK
6
CONTINUOUS
10
2.85279
20
1.21185
11
2.84989
21
1.21281
0
LINE
8
BLACK
6
CONTINUOUS
10
2.84989
20
1.21281
11
2.84787
21
1.2151
0
LINE
8
BLACK
6
CONTINUOUS
10
2.84787
20
1.2151
11
2.84505
21
1.22072
0
LINE
8
BLACK
6
CONTINUOUS
10
2.84505
20
1.22072
11
2.84478
21
1.22205
0
LINE
8
BLACK
6
CONTINUOUS
10
2.84478
20
1.22205
11
2.84443
21
1.22336
0
LINE
8
BLACK
6
CONTINUOUS
10
2.84443
20
1.22336
11
2.84443
21
1.23461
0
LINE
8
BLACK
6
CONTINUOUS
10
2.84443
20
1.23461
11
2.84478
21
1.23592
0
LINE
8
BLACK
6
CONTINUOUS
10
2.84478
20
1.23592
11
2.84505
21
1.23725
0
LINE
8
BLACK
6
CONTINUOUS
10
2.84505
20
1.23725
11
2.84787
21
1.24288
0
LINE
8
BLACK
6
CONTINUOUS
10
2.84787
20
1.24288
11
2.84811
21
1.24315
0
LINE
8
BLACK
6
CONTINUOUS
10
2.84811
20
1.24315
11
2.84822
21
1.24349
0
LINE
8
BLACK
6
CONTINUOUS
10
2.84822
20
1.24349
11
2.84911
21
1.24428
0
LINE
8
BLACK
6
CONTINUOUS
10
2.84911
20
1.24428
11
2.84989
21
1.24517
0
LINE
8
BLACK
6
CONTINUOUS
10
2.84989
20
1.24517
11
2.85024
21
1.24528
0
LINE
8
BLACK
6
CONTINUOUS
10
2.85024
20
1.24528
11
2.85051
21
1.24552
0
LINE
8
BLACK
6
CONTINUOUS
10
2.85051
20
1.24552
11
2.85613
21
1.24833
0
LINE
8
BLACK
6
CONTINUOUS
10
2.85613
20
1.24833
11
2.85746
21
1.2486
0
LINE
8
BLACK
6
CONTINUOUS
10
2.85746
20
1.2486
11
2.85877
21
1.24896
0
LINE
8
BLACK
6
CONTINUOUS
10
2.85877
20
1.24896
11
2.88971
21
1.24896
0
LINE
8
BLACK
6
CONTINUOUS
10
2.88971
20
1.24896
11
2.89266
21
1.24816
0
LINE
8
BLACK
6
CONTINUOUS
10
2.87311
20
1.22476
11
2.87442
21
1.22214
0
LINE
8
BLACK
6
CONTINUOUS
10
2.87442
20
1.22214
11
2.87704
21
1.22083
0
LINE
8
BLACK
6
CONTINUOUS
10
2.87704
20
1.22083
11
2.87988
21
1.22083
0
LINE
8
BLACK
6
CONTINUOUS
10
2.87988
20
1.22083
11
2.88249
21
1.22214
0
LINE
8
BLACK
6
CONTINUOUS
10
2.88249
20
1.22214
11
2.8838
21
1.22476
0
LINE
8
BLACK
6
CONTINUOUS
10
2.8838
20
1.22476
11
2.8838
21
1.23603
0
LINE
8
BLACK
6
CONTINUOUS
10
2.8838
20
1.23603
11
2.88324
21
1.23714
0
LINE
8
BLACK
6
CONTINUOUS
10
2.88324
20
1.23714
11
2.87311
21
1.23714
0
LINE
8
BLACK
6
CONTINUOUS
10
2.87311
20
1.23714
11
2.87311
21
1.22476
0
LINE
8
BLACK
6
CONTINUOUS
10
2.88258
20
1.29922
11
2.88391
21
1.29895
0
LINE
8
BLACK
6
CONTINUOUS
10
2.88391
20
1.29895
11
2.88953
21
1.29614
0
LINE
8
BLACK
6
CONTINUOUS
10
2.88953
20
1.29614
11
2.8898
21
1.2959
0
LINE
8
BLACK
6
CONTINUOUS
10
2.8898
20
1.2959
11
2.89015
21
1.29578
0
LINE
8
BLACK
6
CONTINUOUS
10
2.89015
20
1.29578
11
2.89093
21
1.2949
0
LINE
8
BLACK
6
CONTINUOUS
10
2.89093
20
1.2949
11
2.89182
21
1.29411
0
LINE
8
BLACK
6
CONTINUOUS
10
2.89182
20
1.29411
11
2.89194
21
1.29377
0
LINE
8
BLACK
6
CONTINUOUS
10
2.89194
20
1.29377
11
2.89218
21
1.2935
0
LINE
8
BLACK
6
CONTINUOUS
10
2.89218
20
1.2935
11
2.89499
21
1.28787
0
LINE
8
BLACK
6
CONTINUOUS
10
2.89499
20
1.28787
11
2.89526
21
1.28654
0
LINE
8
BLACK
6
CONTINUOUS
10
2.89526
20
1.28654
11
2.89561
21
1.28523
0
LINE
8
BLACK
6
CONTINUOUS
10
2.89561
20
1.28523
11
2.89561
21
1.27398
0
LINE
8
BLACK
6
CONTINUOUS
10
2.89561
20
1.27398
11
2.89526
21
1.27267
0
LINE
8
BLACK
6
CONTINUOUS
10
2.89526
20
1.27267
11
2.89499
21
1.27134
0
LINE
8
BLACK
6
CONTINUOUS
10
2.89499
20
1.27134
11
2.89218
21
1.26572
0
LINE
8
BLACK
6
CONTINUOUS
10
2.89218
20
1.26572
11
2.89015
21
1.26343
0
LINE
8
BLACK
6
CONTINUOUS
10
2.89015
20
1.26343
11
2.88725
21
1.26246
0
LINE
8
BLACK
6
CONTINUOUS
10
2.88725
20
1.26246
11
2.88425
21
1.26308
0
LINE
8
BLACK
6
CONTINUOUS
10
2.88425
20
1.26308
11
2.88197
21
1.2651
0
LINE
8
BLACK
6
CONTINUOUS
10
2.88197
20
1.2651
11
2.881
21
1.26801
0
LINE
8
BLACK
6
CONTINUOUS
10
2.881
20
1.26801
11
2.88161
21
1.271
0
LINE
8
BLACK
6
CONTINUOUS
10
2.88161
20
1.271
11
2.8838
21
1.27538
0
LINE
8
BLACK
6
CONTINUOUS
10
2.8838
20
1.27538
11
2.8838
21
1.28384
0
LINE
8
BLACK
6
CONTINUOUS
10
2.8838
20
1.28384
11
2.88249
21
1.28645
0
LINE
8
BLACK
6
CONTINUOUS
10
2.88249
20
1.28645
11
2.87988
21
1.28776
0
LINE
8
BLACK
6
CONTINUOUS
10
2.87988
20
1.28776
11
2.87985
21
1.28776
0
LINE
8
BLACK
6
CONTINUOUS
10
2.87985
20
1.28776
11
2.87723
21
1.28645
0
LINE
8
BLACK
6
CONTINUOUS
10
2.87723
20
1.28645
11
2.87593
21
1.28384
0
LINE
8
BLACK
6
CONTINUOUS
10
2.87593
20
1.28384
11
2.87593
21
1.2768
0
LINE
8
BLACK
6
CONTINUOUS
10
2.87593
20
1.2768
11
2.87557
21
1.27548
0
LINE
8
BLACK
6
CONTINUOUS
10
2.87557
20
1.27548
11
2.8753
21
1.27415
0
LINE
8
BLACK
6
CONTINUOUS
10
2.8753
20
1.27415
11
2.87249
21
1.26853
0
LINE
8
BLACK
6
CONTINUOUS
10
2.87249
20
1.26853
11
2.87225
21
1.26826
0
LINE
8
BLACK
6
CONTINUOUS
10
2.87225
20
1.26826
11
2.87214
21
1.26792
0
LINE
8
BLACK
6
CONTINUOUS
10
2.87214
20
1.26792
11
2.87125
21
1.26713
0
LINE
8
BLACK
6
CONTINUOUS
10
2.87125
20
1.26713
11
2.87046
21
1.26624
0
LINE
8
BLACK
6
CONTINUOUS
10
2.87046
20
1.26624
11
2.87012
21
1.26613
0
LINE
8
BLACK
6
CONTINUOUS
10
2.87012
20
1.26613
11
2.86985
21
1.26589
0
LINE
8
BLACK
6
CONTINUOUS
10
2.86985
20
1.26589
11
2.86423
21
1.26308
0
LINE
8
BLACK
6
CONTINUOUS
10
2.86423
20
1.26308
11
2.8629
21
1.2628
0
LINE
8
BLACK
6
CONTINUOUS
10
2.8629
20
1.2628
11
2.86158
21
1.26245
0
LINE
8
BLACK
6
CONTINUOUS
10
2.86158
20
1.26245
11
2.85877
21
1.26245
0
LINE
8
BLACK
6
CONTINUOUS
10
2.85877
20
1.26245
11
2.85746
21
1.2628
0
LINE
8
BLACK
6
CONTINUOUS
10
2.85746
20
1.2628
11
2.85613
21
1.26308
0
LINE
8
BLACK
6
CONTINUOUS
10
2.85613
20
1.26308
11
2.85051
21
1.26589
0
LINE
8
BLACK
6
CONTINUOUS
10
2.85051
20
1.26589
11
2.85024
21
1.26613
0
LINE
8
BLACK
6
CONTINUOUS
10
2.85024
20
1.26613
11
2.84989
21
1.26624
0
LINE
8
BLACK
6
CONTINUOUS
10
2.84989
20
1.26624
11
2.84911
21
1.26713
0
LINE
8
BLACK
6
CONTINUOUS
10
2.84911
20
1.26713
11
2.84822
21
1.26792
0
LINE
8
BLACK
6
CONTINUOUS
10
2.84822
20
1.26792
11
2.84811
21
1.26826
0
LINE
8
BLACK
6
CONTINUOUS
10
2.84811
20
1.26826
11
2.84787
21
1.26853
0
LINE
8
BLACK
6
CONTINUOUS
10
2.84787
20
1.26853
11
2.84505
21
1.27415
0
LINE
8
BLACK
6
CONTINUOUS
10
2.84505
20
1.27415
11
2.84478
21
1.27548
0
LINE
8
BLACK
6
CONTINUOUS
10
2.84478
20
1.27548
11
2.84443
21
1.2768
0
LINE
8
BLACK
6
CONTINUOUS
10
2.84443
20
1.2768
11
2.84443
21
1.28523
0
LINE
8
BLACK
6
CONTINUOUS
10
2.84443
20
1.28523
11
2.84478
21
1.28654
0
LINE
8
BLACK
6
CONTINUOUS
10
2.84478
20
1.28654
11
2.84505
21
1.28787
0
LINE
8
BLACK
6
CONTINUOUS
10
2.84505
20
1.28787
11
2.84787
21
1.2935
0
LINE
8
BLACK
6
CONTINUOUS
10
2.84787
20
1.2935
11
2.84989
21
1.29578
0
LINE
8
BLACK
6
CONTINUOUS
10
2.84989
20
1.29578
11
2.85279
21
1.29675
0
LINE
8
BLACK
6
CONTINUOUS
10
2.85279
20
1.29675
11
2.85579
21
1.29614
0
LINE
8
BLACK
6
CONTINUOUS
10
2.85579
20
1.29614
11
2.85808
21
1.29411
0
LINE
8
BLACK
6
CONTINUOUS
10
2.85808
20
1.29411
11
2.85904
21
1.29121
0
LINE
8
BLACK
6
CONTINUOUS
10
2.85904
20
1.29121
11
2.85843
21
1.28821
0
LINE
8
BLACK
6
CONTINUOUS
10
2.85843
20
1.28821
11
2.85624
21
1.28384
0
LINE
8
BLACK
6
CONTINUOUS
10
2.85624
20
1.28384
11
2.85624
21
1.27819
0
LINE
8
BLACK
6
CONTINUOUS
10
2.85624
20
1.27819
11
2.85755
21
1.27557
0
LINE
8
BLACK
6
CONTINUOUS
10
2.85755
20
1.27557
11
2.86017
21
1.27426
0
LINE
8
BLACK
6
CONTINUOUS
10
2.86017
20
1.27426
11
2.86019
21
1.27426
0
LINE
8
BLACK
6
CONTINUOUS
10
2.86019
20
1.27426
11
2.86281
21
1.27557
0
LINE
8
BLACK
6
CONTINUOUS
10
2.86281
20
1.27557
11
2.86412
21
1.27819
0
LINE
8
BLACK
6
CONTINUOUS
10
2.86412
20
1.27819
11
2.86412
21
1.28523
0
LINE
8
BLACK
6
CONTINUOUS
10
2.86412
20
1.28523
11
2.86447
21
1.28654
0
LINE
8
BLACK
6
CONTINUOUS
10
2.86447
20
1.28654
11
2.86474
21
1.28787
0
LINE
8
BLACK
6
CONTINUOUS
10
2.86474
20
1.28787
11
2.86755
21
1.2935
0
LINE
8
BLACK
6
CONTINUOUS
10
2.86755
20
1.2935
11
2.86779
21
1.29377
0
LINE
8
BLACK
6
CONTINUOUS
10
2.86779
20
1.29377
11
2.8679
21
1.29411
0
LINE
8
BLACK
6
CONTINUOUS
10
2.8679
20
1.29411
11
2.86879
21
1.2949
0
LINE
8
BLACK
6
CONTINUOUS
10
2.86879
20
1.2949
11
2.86958
21
1.29578
0
LINE
8
BLACK
6
CONTINUOUS
10
2.86958
20
1.29578
11
2.86992
21
1.2959
0
LINE
8
BLACK
6
CONTINUOUS
10
2.86992
20
1.2959
11
2.87019
21
1.29614
0
LINE
8
BLACK
6
CONTINUOUS
10
2.87019
20
1.29614
11
2.87582
21
1.29895
0
LINE
8
BLACK
6
CONTINUOUS
10
2.87582
20
1.29895
11
2.87715
21
1.29922
0
LINE
8
BLACK
6
CONTINUOUS
10
2.87715
20
1.29922
11
2.87846
21
1.29957
0
LINE
8
BLACK
6
CONTINUOUS
10
2.87846
20
1.29957
11
2.88127
21
1.29957
0
LINE
8
BLACK
6
CONTINUOUS
10
2.88127
20
1.29957
11
2.88258
21
1.29922
0
LINE
8
BLACK
6
CONTINUOUS
10
2.86533
20
1.34994
11
2.86629
21
1.34988
0
LINE
8
BLACK
6
CONTINUOUS
10
2.86629
20
1.34988
11
2.86678
21
1.34955
0
LINE
8
BLACK
6
CONTINUOUS
10
2.86678
20
1.34955
11
2.86735
21
1.3494
0
LINE
8
BLACK
6
CONTINUOUS
10
2.86735
20
1.3494
11
2.86803
21
1.34872
0
LINE
8
BLACK
6
CONTINUOUS
10
2.86803
20
1.34872
11
2.86883
21
1.34819
0
LINE
8
BLACK
6
CONTINUOUS
10
2.86883
20
1.34819
11
2.86909
21
1.34766
0
LINE
8
BLACK
6
CONTINUOUS
10
2.86909
20
1.34766
11
2.86951
21
1.34724
0
LINE
8
BLACK
6
CONTINUOUS
10
2.86951
20
1.34724
11
2.86976
21
1.34631
0
LINE
8
BLACK
6
CONTINUOUS
10
2.86976
20
1.34631
11
2.87019
21
1.34545
0
LINE
8
BLACK
6
CONTINUOUS
10
2.87019
20
1.34545
11
2.87486
21
1.32207
0
LINE
8
BLACK
6
CONTINUOUS
10
2.87486
20
1.32207
11
2.87988
21
1.32207
0
LINE
8
BLACK
6
CONTINUOUS
10
2.87988
20
1.32207
11
2.88249
21
1.32338
0
LINE
8
BLACK
6
CONTINUOUS
10
2.88249
20
1.32338
11
2.8838
21
1.326
0
LINE
8
BLACK
6
CONTINUOUS
10
2.8838
20
1.326
11
2.8838
21
1.33446
0
LINE
8
BLACK
6
CONTINUOUS
10
2.8838
20
1.33446
11
2.88161
21
1.33883
0
LINE
8
BLACK
6
CONTINUOUS
10
2.88161
20
1.33883
11
2.881
21
1.34183
0
LINE
8
BLACK
6
CONTINUOUS
10
2.881
20
1.34183
11
2.88197
21
1.34473
0
LINE
8
BLACK
6
CONTINUOUS
10
2.88197
20
1.34473
11
2.88425
21
1.34676
0
LINE
8
BLACK
6
CONTINUOUS
10
2.88425
20
1.34676
11
2.88725
21
1.34737
0
LINE
8
BLACK
6
CONTINUOUS
10
2.88725
20
1.34737
11
2.89015
21
1.3464
0
LINE
8
BLACK
6
CONTINUOUS
10
2.89015
20
1.3464
11
2.89218
21
1.34412
0
LINE
8
BLACK
6
CONTINUOUS
10
2.89218
20
1.34412
11
2.89499
21
1.33849
0
LINE
8
BLACK
6
CONTINUOUS
10
2.89499
20
1.33849
11
2.89526
21
1.33716
0
LINE
8
BLACK
6
CONTINUOUS
10
2.89526
20
1.33716
11
2.89561
21
1.33585
0
LINE
8
BLACK
6
CONTINUOUS
10
2.89561
20
1.33585
11
2.89561
21
1.3246
0
LINE
8
BLACK
6
CONTINUOUS
10
2.89561
20
1.3246
11
2.89526
21
1.32329
0
LINE
8
BLACK
6
CONTINUOUS
10
2.89526
20
1.32329
11
2.89499
21
1.32196
0
LINE
8
BLACK
6
CONTINUOUS
10
2.89499
20
1.32196
11
2.89218
21
1.31634
0
LINE
8
BLACK
6
CONTINUOUS
10
2.89218
20
1.31634
11
2.89194
21
1.31607
0
LINE
8
BLACK
6
CONTINUOUS
10
2.89194
20
1.31607
11
2.89182
21
1.31572
0
LINE
8
BLACK
6
CONTINUOUS
10
2.89182
20
1.31572
11
2.89093
21
1.31494
0
LINE
8
BLACK
6
CONTINUOUS
10
2.89093
20
1.31494
11
2.89015
21
1.31405
0
LINE
8
BLACK
6
CONTINUOUS
10
2.89015
20
1.31405
11
2.8898
21
1.31394
0
LINE
8
BLACK
6
CONTINUOUS
10
2.8898
20
1.31394
11
2.88953
21
1.3137
0
LINE
8
BLACK
6
CONTINUOUS
10
2.88953
20
1.3137
11
2.88391
21
1.31088
0
LINE
8
BLACK
6
CONTINUOUS
10
2.88391
20
1.31088
11
2.88258
21
1.31061
0
LINE
8
BLACK
6
CONTINUOUS
10
2.88258
20
1.31061
11
2.88127
21
1.31026
0
LINE
8
BLACK
6
CONTINUOUS
10
2.88127
20
1.31026
11
2.85877
21
1.31026
0
LINE
8
BLACK
6
CONTINUOUS
10
2.85877
20
1.31026
11
2.85746
21
1.31061
0
LINE
8
BLACK
6
CONTINUOUS
10
2.85746
20
1.31061
11
2.85613
21
1.31088
0
LINE
8
BLACK
6
CONTINUOUS
10
2.85613
20
1.31088
11
2.85051
21
1.3137
0
LINE
8
BLACK
6
CONTINUOUS
10
2.85051
20
1.3137
11
2.85024
21
1.31394
0
LINE
8
BLACK
6
CONTINUOUS
10
2.85024
20
1.31394
11
2.84989
21
1.31405
0
LINE
8
BLACK
6
CONTINUOUS
10
2.84989
20
1.31405
11
2.84911
21
1.31494
0
LINE
8
BLACK
6
CONTINUOUS
10
2.84911
20
1.31494
11
2.84822
21
1.31572
0
LINE
8
BLACK
6
CONTINUOUS
10
2.84822
20
1.31572
11
2.84811
21
1.31607
0
LINE
8
BLACK
6
CONTINUOUS
10
2.84811
20
1.31607
11
2.84787
21
1.31634
0
LINE
8
BLACK
6
CONTINUOUS
10
2.84787
20
1.31634
11
2.84505
21
1.32196
0
LINE
8
BLACK
6
CONTINUOUS
10
2.84505
20
1.32196
11
2.84478
21
1.32329
0
LINE
8
BLACK
6
CONTINUOUS
10
2.84478
20
1.32329
11
2.84443
21
1.3246
0
LINE
8
BLACK
6
CONTINUOUS
10
2.84443
20
1.3246
11
2.84443
21
1.33585
0
LINE
8
BLACK
6
CONTINUOUS
10
2.84443
20
1.33585
11
2.84478
21
1.33716
0
LINE
8
BLACK
6
CONTINUOUS
10
2.84478
20
1.33716
11
2.84505
21
1.33849
0
LINE
8
BLACK
6
CONTINUOUS
10
2.84505
20
1.33849
11
2.84787
21
1.34412
0
LINE
8
BLACK
6
CONTINUOUS
10
2.84787
20
1.34412
11
2.84811
21
1.34439
0
LINE
8
BLACK
6
CONTINUOUS
10
2.84811
20
1.34439
11
2.84822
21
1.34473
0
LINE
8
BLACK
6
CONTINUOUS
10
2.84822
20
1.34473
11
2.84911
21
1.34552
0
LINE
8
BLACK
6
CONTINUOUS
10
2.84911
20
1.34552
11
2.84989
21
1.3464
0
LINE
8
BLACK
6
CONTINUOUS
10
2.84989
20
1.3464
11
2.85024
21
1.34652
0
LINE
8
BLACK
6
CONTINUOUS
10
2.85024
20
1.34652
11
2.85051
21
1.34676
0
LINE
8
BLACK
6
CONTINUOUS
10
2.85051
20
1.34676
11
2.85613
21
1.34957
0
LINE
8
BLACK
6
CONTINUOUS
10
2.85613
20
1.34957
11
2.85746
21
1.34984
0
LINE
8
BLACK
6
CONTINUOUS
10
2.85746
20
1.34984
11
2.85877
21
1.35019
0
LINE
8
BLACK
6
CONTINUOUS
10
2.85877
20
1.35019
11
2.8644
21
1.35019
0
LINE
8
BLACK
6
CONTINUOUS
10
2.8644
20
1.35019
11
2.86533
21
1.34994
0
LINE
8
BLACK
6
CONTINUOUS
10
2.85755
20
1.33707
11
2.85624
21
1.33446
0
LINE
8
BLACK
6
CONTINUOUS
10
2.85624
20
1.33446
11
2.85624
21
1.326
0
LINE
8
BLACK
6
CONTINUOUS
10
2.85624
20
1.326
11
2.85755
21
1.32338
0
LINE
8
BLACK
6
CONTINUOUS
10
2.85755
20
1.32338
11
2.86017
21
1.32207
0
LINE
8
BLACK
6
CONTINUOUS
10
2.86017
20
1.32207
11
2.86282
21
1.32207
0
LINE
8
BLACK
6
CONTINUOUS
10
2.86282
20
1.32207
11
2.85961
21
1.3381
0
LINE
8
BLACK
6
CONTINUOUS
10
2.85961
20
1.3381
11
2.85755
21
1.33707
0
LINE
8
BLACK
6
CONTINUOUS
10
2.87977
20
1.44827
11
2.8811
21
1.44799
0
LINE
8
BLACK
6
CONTINUOUS
10
2.8811
20
1.44799
11
2.88672
21
1.44518
0
LINE
8
BLACK
6
CONTINUOUS
10
2.88672
20
1.44518
11
2.88743
21
1.44455
0
LINE
8
BLACK
6
CONTINUOUS
10
2.88743
20
1.44455
11
2.88826
21
1.44408
0
LINE
8
BLACK
6
CONTINUOUS
10
2.88826
20
1.44408
11
2.89107
21
1.44126
0
LINE
8
BLACK
6
CONTINUOUS
10
2.89107
20
1.44126
11
2.89154
21
1.44044
0
LINE
8
BLACK
6
CONTINUOUS
10
2.89154
20
1.44044
11
2.89218
21
1.43973
0
LINE
8
BLACK
6
CONTINUOUS
10
2.89218
20
1.43973
11
2.89499
21
1.4341
0
LINE
8
BLACK
6
CONTINUOUS
10
2.89499
20
1.4341
11
2.89526
21
1.43277
0
LINE
8
BLACK
6
CONTINUOUS
10
2.89526
20
1.43277
11
2.89561
21
1.43146
0
LINE
8
BLACK
6
CONTINUOUS
10
2.89561
20
1.43146
11
2.89561
21
1.42021
0
LINE
8
BLACK
6
CONTINUOUS
10
2.89561
20
1.42021
11
2.89526
21
1.4189
0
LINE
8
BLACK
6
CONTINUOUS
10
2.89526
20
1.4189
11
2.89499
21
1.41757
0
LINE
8
BLACK
6
CONTINUOUS
10
2.89499
20
1.41757
11
2.89487
21
1.41734
0
LINE
8
BLACK
6
CONTINUOUS
10
2.89487
20
1.41734
11
2.89561
21
1.41459
0
LINE
8
BLACK
6
CONTINUOUS
10
2.89561
20
1.41459
11
2.89482
21
1.41164
0
LINE
8
BLACK
6
CONTINUOUS
10
2.89482
20
1.41164
11
2.89266
21
1.40948
0
LINE
8
BLACK
6
CONTINUOUS
10
2.89266
20
1.40948
11
2.88971
21
1.40869
0
LINE
8
BLACK
6
CONTINUOUS
10
2.88971
20
1.40869
11
2.83065
21
1.40869
0
LINE
8
BLACK
6
CONTINUOUS
10
2.83065
20
1.40869
11
2.8277
21
1.40948
0
LINE
8
BLACK
6
CONTINUOUS
10
2.8277
20
1.40948
11
2.82554
21
1.41164
0
LINE
8
BLACK
6
CONTINUOUS
10
2.82554
20
1.41164
11
2.82475
21
1.41459
0
LINE
8
BLACK
6
CONTINUOUS
10
2.82475
20
1.41459
11
2.82554
21
1.41754
0
LINE
8
BLACK
6
CONTINUOUS
10
2.82554
20
1.41754
11
2.8277
21
1.4197
0
LINE
8
BLACK
6
CONTINUOUS
10
2.8277
20
1.4197
11
2.83065
21
1.4205
0
LINE
8
BLACK
6
CONTINUOUS
10
2.83065
20
1.4205
11
2.84443
21
1.4205
0
LINE
8
BLACK
6
CONTINUOUS
10
2.84443
20
1.4205
11
2.84443
21
1.43146
0
LINE
8
BLACK
6
CONTINUOUS
10
2.84443
20
1.43146
11
2.84478
21
1.43277
0
LINE
8
BLACK
6
CONTINUOUS
10
2.84478
20
1.43277
11
2.84505
21
1.4341
0
LINE
8
BLACK
6
CONTINUOUS
10
2.84505
20
1.4341
11
2.84787
21
1.43973
0
LINE
8
BLACK
6
CONTINUOUS
10
2.84787
20
1.43973
11
2.8485
21
1.44044
0
LINE
8
BLACK
6
CONTINUOUS
10
2.8485
20
1.44044
11
2.84897
21
1.44126
0
LINE
8
BLACK
6
CONTINUOUS
10
2.84897
20
1.44126
11
2.85178
21
1.44408
0
LINE
8
BLACK
6
CONTINUOUS
10
2.85178
20
1.44408
11
2.85261
21
1.44455
0
LINE
8
BLACK
6
CONTINUOUS
10
2.85261
20
1.44455
11
2.85332
21
1.44518
0
LINE
8
BLACK
6
CONTINUOUS
10
2.85332
20
1.44518
11
2.85894
21
1.44799
0
LINE
8
BLACK
6
CONTINUOUS
10
2.85894
20
1.44799
11
2.86027
21
1.44827
0
LINE
8
BLACK
6
CONTINUOUS
10
2.86027
20
1.44827
11
2.86158
21
1.44862
0
LINE
8
BLACK
6
CONTINUOUS
10
2.86158
20
1.44862
11
2.87846
21
1.44862
0
LINE
8
BLACK
6
CONTINUOUS
10
2.87846
20
1.44862
11
2.87977
21
1.44827
0
LINE
8
BLACK
6
CONTINUOUS
10
2.85946
20
1.43505
11
2.858
21
1.43359
0
LINE
8
BLACK
6
CONTINUOUS
10
2.858
20
1.43359
11
2.85624
21
1.43007
0
LINE
8
BLACK
6
CONTINUOUS
10
2.85624
20
1.43007
11
2.85624
21
1.42161
0
LINE
8
BLACK
6
CONTINUOUS
10
2.85624
20
1.42161
11
2.8568
21
1.4205
0
LINE
8
BLACK
6
CONTINUOUS
10
2.8568
20
1.4205
11
2.88324
21
1.4205
0
LINE
8
BLACK
6
CONTINUOUS
10
2.88324
20
1.4205
11
2.8838
21
1.42161
0
LINE
8
BLACK
6
CONTINUOUS
10
2.8838
20
1.42161
11
2.8838
21
1.43007
0
LINE
8
BLACK
6
CONTINUOUS
10
2.8838
20
1.43007
11
2.88204
21
1.43359
0
LINE
8
BLACK
6
CONTINUOUS
10
2.88204
20
1.43359
11
2.88058
21
1.43505
0
LINE
8
BLACK
6
CONTINUOUS
10
2.88058
20
1.43505
11
2.87706
21
1.43681
0
LINE
8
BLACK
6
CONTINUOUS
10
2.87706
20
1.43681
11
2.86298
21
1.43681
0
LINE
8
BLACK
6
CONTINUOUS
10
2.86298
20
1.43681
11
2.85946
21
1.43505
0
LINE
8
BLACK
6
CONTINUOUS
10
2.87977
20
1.5017
11
2.8811
21
1.50142
0
LINE
8
BLACK
6
CONTINUOUS
10
2.8811
20
1.50142
11
2.88672
21
1.49861
0
LINE
8
BLACK
6
CONTINUOUS
10
2.88672
20
1.49861
11
2.88743
21
1.49798
0
LINE
8
BLACK
6
CONTINUOUS
10
2.88743
20
1.49798
11
2.88826
21
1.49751
0
LINE
8
BLACK
6
CONTINUOUS
10
2.88826
20
1.49751
11
2.89107
21
1.49469
0
LINE
8
BLACK
6
CONTINUOUS
10
2.89107
20
1.49469
11
2.89154
21
1.49387
0
LINE
8
BLACK
6
CONTINUOUS
10
2.89154
20
1.49387
11
2.89218
21
1.49316
0
LINE
8
BLACK
6
CONTINUOUS
10
2.89218
20
1.49316
11
2.89499
21
1.48754
0
LINE
8
BLACK
6
CONTINUOUS
10
2.89499
20
1.48754
11
2.89526
21
1.48621
0
LINE
8
BLACK
6
CONTINUOUS
10
2.89526
20
1.48621
11
2.89561
21
1.48489
0
LINE
8
BLACK
6
CONTINUOUS
10
2.89561
20
1.48489
11
2.89561
21
1.47646
0
LINE
8
BLACK
6
CONTINUOUS
10
2.89561
20
1.47646
11
2.89526
21
1.47515
0
LINE
8
BLACK
6
CONTINUOUS
10
2.89526
20
1.47515
11
2.89499
21
1.47382
0
LINE
8
BLACK
6
CONTINUOUS
10
2.89499
20
1.47382
11
2.89218
21
1.46819
0
LINE
8
BLACK
6
CONTINUOUS
10
2.89218
20
1.46819
11
2.89154
21
1.46748
0
LINE
8
BLACK
6
CONTINUOUS
10
2.89154
20
1.46748
11
2.89107
21
1.46666
0
LINE
8
BLACK
6
CONTINUOUS
10
2.89107
20
1.46666
11
2.88826
21
1.46385
0
LINE
8
BLACK
6
CONTINUOUS
10
2.88826
20
1.46385
11
2.88743
21
1.46337
0
LINE
8
BLACK
6
CONTINUOUS
10
2.88743
20
1.46337
11
2.88672
21
1.46274
0
LINE
8
BLACK
6
CONTINUOUS
10
2.88672
20
1.46274
11
2.8811
21
1.45993
0
LINE
8
BLACK
6
CONTINUOUS
10
2.8811
20
1.45993
11
2.87977
21
1.45966
0
LINE
8
BLACK
6
CONTINUOUS
10
2.87977
20
1.45966
11
2.87846
21
1.4593
0
LINE
8
BLACK
6
CONTINUOUS
10
2.87846
20
1.4593
11
2.86158
21
1.4593
0
LINE
8
BLACK
6
CONTINUOUS
10
2.86158
20
1.4593
11
2.86027
21
1.45966
0
LINE
8
BLACK
6
CONTINUOUS
10
2.86027
20
1.45966
11
2.85894
21
1.45993
0
LINE
8
BLACK
6
CONTINUOUS
10
2.85894
20
1.45993
11
2.85332
21
1.46274
0
LINE
8
BLACK
6
CONTINUOUS
10
2.85332
20
1.46274
11
2.85261
21
1.46337
0
LINE
8
BLACK
6
CONTINUOUS
10
2.85261
20
1.46337
11
2.85178
21
1.46385
0
LINE
8
BLACK
6
CONTINUOUS
10
2.85178
20
1.46385
11
2.84897
21
1.46666
0
LINE
8
BLACK
6
CONTINUOUS
10
2.84897
20
1.46666
11
2.8485
21
1.46748
0
LINE
8
BLACK
6
CONTINUOUS
10
2.8485
20
1.46748
11
2.84787
21
1.46819
0
LINE
8
BLACK
6
CONTINUOUS
10
2.84787
20
1.46819
11
2.84505
21
1.47382
0
LINE
8
BLACK
6
CONTINUOUS
10
2.84505
20
1.47382
11
2.84478
21
1.47515
0
LINE
8
BLACK
6
CONTINUOUS
10
2.84478
20
1.47515
11
2.84443
21
1.47646
0
LINE
8
BLACK
6
CONTINUOUS
10
2.84443
20
1.47646
11
2.84443
21
1.48489
0
LINE
8
BLACK
6
CONTINUOUS
10
2.84443
20
1.48489
11
2.84478
21
1.48621
0
LINE
8
BLACK
6
CONTINUOUS
10
2.84478
20
1.48621
11
2.84505
21
1.48754
0
LINE
8
BLACK
6
CONTINUOUS
10
2.84505
20
1.48754
11
2.84787
21
1.49316
0
LINE
8
BLACK
6
CONTINUOUS
10
2.84787
20
1.49316
11
2.8485
21
1.49387
0
LINE
8
BLACK
6
CONTINUOUS
10
2.8485
20
1.49387
11
2.84897
21
1.49469
0
LINE
8
BLACK
6
CONTINUOUS
10
2.84897
20
1.49469
11
2.85178
21
1.49751
0
LINE
8
BLACK
6
CONTINUOUS
10
2.85178
20
1.49751
11
2.85261
21
1.49798
0
LINE
8
BLACK
6
CONTINUOUS
10
2.85261
20
1.49798
11
2.85332
21
1.49861
0
LINE
8
BLACK
6
CONTINUOUS
10
2.85332
20
1.49861
11
2.85894
21
1.50142
0
LINE
8
BLACK
6
CONTINUOUS
10
2.85894
20
1.50142
11
2.86027
21
1.5017
0
LINE
8
BLACK
6
CONTINUOUS
10
2.86027
20
1.5017
11
2.86158
21
1.50205
0
LINE
8
BLACK
6
CONTINUOUS
10
2.86158
20
1.50205
11
2.87846
21
1.50205
0
LINE
8
BLACK
6
CONTINUOUS
10
2.87846
20
1.50205
11
2.87977
21
1.5017
0
LINE
8
BLACK
6
CONTINUOUS
10
2.85946
20
1.48848
11
2.858
21
1.48702
0
LINE
8
BLACK
6
CONTINUOUS
10
2.858
20
1.48702
11
2.85624
21
1.4835
0
LINE
8
BLACK
6
CONTINUOUS
10
2.85624
20
1.4835
11
2.85624
21
1.47785
0
LINE
8
BLACK
6
CONTINUOUS
10
2.85624
20
1.47785
11
2.858
21
1.47433
0
LINE
8
BLACK
6
CONTINUOUS
10
2.858
20
1.47433
11
2.85946
21
1.47287
0
LINE
8
BLACK
6
CONTINUOUS
10
2.85946
20
1.47287
11
2.86298
21
1.47111
0
LINE
8
BLACK
6
CONTINUOUS
10
2.86298
20
1.47111
11
2.87706
21
1.47111
0
LINE
8
BLACK
6
CONTINUOUS
10
2.87706
20
1.47111
11
2.88058
21
1.47287
0
LINE
8
BLACK
6
CONTINUOUS
10
2.88058
20
1.47287
11
2.88204
21
1.47433
0
LINE
8
BLACK
6
CONTINUOUS
10
2.88204
20
1.47433
11
2.8838
21
1.47785
0
LINE
8
BLACK
6
CONTINUOUS
10
2.8838
20
1.47785
11
2.8838
21
1.4835
0
LINE
8
BLACK
6
CONTINUOUS
10
2.8838
20
1.4835
11
2.88204
21
1.48702
0
LINE
8
BLACK
6
CONTINUOUS
10
2.88204
20
1.48702
11
2.88058
21
1.48848
0
LINE
8
BLACK
6
CONTINUOUS
10
2.88058
20
1.48848
11
2.87706
21
1.49024
0
LINE
8
BLACK
6
CONTINUOUS
10
2.87706
20
1.49024
11
2.86298
21
1.49024
0
LINE
8
BLACK
6
CONTINUOUS
10
2.86298
20
1.49024
11
2.85946
21
1.48848
0
LINE
8
BLACK
6
CONTINUOUS
10
2.89266
20
1.55188
11
2.89482
21
1.54971
0
LINE
8
BLACK
6
CONTINUOUS
10
2.89482
20
1.54971
11
2.89561
21
1.54676
0
LINE
8
BLACK
6
CONTINUOUS
10
2.89561
20
1.54676
11
2.89487
21
1.54401
0
LINE
8
BLACK
6
CONTINUOUS
10
2.89487
20
1.54401
11
2.89499
21
1.54378
0
LINE
8
BLACK
6
CONTINUOUS
10
2.89499
20
1.54378
11
2.89526
21
1.54245
0
LINE
8
BLACK
6
CONTINUOUS
10
2.89526
20
1.54245
11
2.89561
21
1.54114
0
LINE
8
BLACK
6
CONTINUOUS
10
2.89561
20
1.54114
11
2.89561
21
1.52708
0
LINE
8
BLACK
6
CONTINUOUS
10
2.89561
20
1.52708
11
2.89526
21
1.52577
0
LINE
8
BLACK
6
CONTINUOUS
10
2.89526
20
1.52577
11
2.89499
21
1.52444
0
LINE
8
BLACK
6
CONTINUOUS
10
2.89499
20
1.52444
11
2.89218
21
1.51881
0
LINE
8
BLACK
6
CONTINUOUS
10
2.89218
20
1.51881
11
2.89194
21
1.51854
0
LINE
8
BLACK
6
CONTINUOUS
10
2.89194
20
1.51854
11
2.89182
21
1.5182
0
LINE
8
BLACK
6
CONTINUOUS
10
2.89182
20
1.5182
11
2.89093
21
1.51741
0
LINE
8
BLACK
6
CONTINUOUS
10
2.89093
20
1.51741
11
2.89015
21
1.51652
0
LINE
8
BLACK
6
CONTINUOUS
10
2.89015
20
1.51652
11
2.8898
21
1.51641
0
LINE
8
BLACK
6
CONTINUOUS
10
2.8898
20
1.51641
11
2.88953
21
1.51617
0
LINE
8
BLACK
6
CONTINUOUS
10
2.88953
20
1.51617
11
2.88391
21
1.51336
0
LINE
8
BLACK
6
CONTINUOUS
10
2.88391
20
1.51336
11
2.88258
21
1.51309
0
LINE
8
BLACK
6
CONTINUOUS
10
2.88258
20
1.51309
11
2.88127
21
1.51273
0
LINE
8
BLACK
6
CONTINUOUS
10
2.88127
20
1.51273
11
2.87565
21
1.51273
0
LINE
8
BLACK
6
CONTINUOUS
10
2.87565
20
1.51273
11
2.87433
21
1.51309
0
LINE
8
BLACK
6
CONTINUOUS
10
2.87433
20
1.51309
11
2.873
21
1.51336
0
LINE
8
BLACK
6
CONTINUOUS
10
2.873
20
1.51336
11
2.86738
21
1.51617
0
LINE
8
BLACK
6
CONTINUOUS
10
2.86738
20
1.51617
11
2.86711
21
1.51641
0
LINE
8
BLACK
6
CONTINUOUS
10
2.86711
20
1.51641
11
2.86677
21
1.51652
0
LINE
8
BLACK
6
CONTINUOUS
10
2.86677
20
1.51652
11
2.86598
21
1.51741
0
LINE
8
BLACK
6
CONTINUOUS
10
2.86598
20
1.51741
11
2.86509
21
1.5182
0
LINE
8
BLACK
6
CONTINUOUS
10
2.86509
20
1.5182
11
2.86498
21
1.51854
0
LINE
8
BLACK
6
CONTINUOUS
10
2.86498
20
1.51854
11
2.86474
21
1.51881
0
LINE
8
BLACK
6
CONTINUOUS
10
2.86474
20
1.51881
11
2.86193
21
1.52444
0
LINE
8
BLACK
6
CONTINUOUS
10
2.86193
20
1.52444
11
2.86165
21
1.52577
0
LINE
8
BLACK
6
CONTINUOUS
10
2.86165
20
1.52577
11
2.8613
21
1.52708
0
LINE
8
BLACK
6
CONTINUOUS
10
2.8613
20
1.52708
11
2.8613
21
1.53974
0
LINE
8
BLACK
6
CONTINUOUS
10
2.8613
20
1.53974
11
2.86075
21
1.54086
0
LINE
8
BLACK
6
CONTINUOUS
10
2.86075
20
1.54086
11
2.86017
21
1.54086
0
LINE
8
BLACK
6
CONTINUOUS
10
2.86017
20
1.54086
11
2.85755
21
1.53955
0
LINE
8
BLACK
6
CONTINUOUS
10
2.85755
20
1.53955
11
2.85624
21
1.53693
0
LINE
8
BLACK
6
CONTINUOUS
10
2.85624
20
1.53693
11
2.85624
21
1.52847
0
LINE
8
BLACK
6
CONTINUOUS
10
2.85624
20
1.52847
11
2.85843
21
1.52409
0
LINE
8
BLACK
6
CONTINUOUS
10
2.85843
20
1.52409
11
2.85904
21
1.5211
0
LINE
8
BLACK
6
CONTINUOUS
10
2.85904
20
1.5211
11
2.85808
21
1.5182
0
LINE
8
BLACK
6
CONTINUOUS
10
2.85808
20
1.5182
11
2.85579
21
1.51617
0
LINE
8
BLACK
6
CONTINUOUS
10
2.85579
20
1.51617
11
2.85279
21
1.51556
0
LINE
8
BLACK
6
CONTINUOUS
10
2.85279
20
1.51556
11
2.84989
21
1.51652
0
LINE
8
BLACK
6
CONTINUOUS
10
2.84989
20
1.51652
11
2.84787
21
1.51881
0
LINE
8
BLACK
6
CONTINUOUS
10
2.84787
20
1.51881
11
2.84505
21
1.52444
0
LINE
8
BLACK
6
CONTINUOUS
10
2.84505
20
1.52444
11
2.84478
21
1.52577
0
LINE
8
BLACK
6
CONTINUOUS
10
2.84478
20
1.52577
11
2.84443
21
1.52708
0
LINE
8
BLACK
6
CONTINUOUS
10
2.84443
20
1.52708
11
2.84443
21
1.53833
0
LINE
8
BLACK
6
CONTINUOUS
10
2.84443
20
1.53833
11
2.84478
21
1.53964
0
LINE
8
BLACK
6
CONTINUOUS
10
2.84478
20
1.53964
11
2.84505
21
1.54097
0
LINE
8
BLACK
6
CONTINUOUS
10
2.84505
20
1.54097
11
2.84787
21
1.54659
0
LINE
8
BLACK
6
CONTINUOUS
10
2.84787
20
1.54659
11
2.84811
21
1.54686
0
LINE
8
BLACK
6
CONTINUOUS
10
2.84811
20
1.54686
11
2.84822
21
1.5472
0
LINE
8
BLACK
6
CONTINUOUS
10
2.84822
20
1.5472
11
2.84911
21
1.54799
0
LINE
8
BLACK
6
CONTINUOUS
10
2.84911
20
1.54799
11
2.84989
21
1.54888
0
LINE
8
BLACK
6
CONTINUOUS
10
2.84989
20
1.54888
11
2.85024
21
1.54899
0
LINE
8
BLACK
6
CONTINUOUS
10
2.85024
20
1.54899
11
2.85051
21
1.54923
0
LINE
8
BLACK
6
CONTINUOUS
10
2.85051
20
1.54923
11
2.85613
21
1.55204
0
LINE
8
BLACK
6
CONTINUOUS
10
2.85613
20
1.55204
11
2.85746
21
1.55232
0
LINE
8
BLACK
6
CONTINUOUS
10
2.85746
20
1.55232
11
2.85877
21
1.55267
0
LINE
8
BLACK
6
CONTINUOUS
10
2.85877
20
1.55267
11
2.88971
21
1.55267
0
LINE
8
BLACK
6
CONTINUOUS
10
2.88971
20
1.55267
11
2.89266
21
1.55188
0
LINE
8
BLACK
6
CONTINUOUS
10
2.87311
20
1.52847
11
2.87442
21
1.52585
0
LINE
8
BLACK
6
CONTINUOUS
10
2.87442
20
1.52585
11
2.87704
21
1.52455
0
LINE
8
BLACK
6
CONTINUOUS
10
2.87704
20
1.52455
11
2.87988
21
1.52455
0
LINE
8
BLACK
6
CONTINUOUS
10
2.87988
20
1.52455
11
2.88249
21
1.52585
0
LINE
8
BLACK
6
CONTINUOUS
10
2.88249
20
1.52585
11
2.8838
21
1.52847
0
LINE
8
BLACK
6
CONTINUOUS
10
2.8838
20
1.52847
11
2.8838
21
1.53974
0
LINE
8
BLACK
6
CONTINUOUS
10
2.8838
20
1.53974
11
2.88324
21
1.54086
0
LINE
8
BLACK
6
CONTINUOUS
10
2.88324
20
1.54086
11
2.87311
21
1.54086
0
LINE
8
BLACK
6
CONTINUOUS
10
2.87311
20
1.54086
11
2.87311
21
1.52847
0
LINE
8
BLACK
6
CONTINUOUS
10
2.85329
20
1.59687
11
2.85545
21
1.59471
0
LINE
8
BLACK
6
CONTINUOUS
10
2.85545
20
1.59471
11
2.85624
21
1.59176
0
LINE
8
BLACK
6
CONTINUOUS
10
2.85624
20
1.59176
11
2.85624
21
1.58753
0
LINE
8
BLACK
6
CONTINUOUS
10
2.85624
20
1.58753
11
2.858
21
1.58401
0
LINE
8
BLACK
6
CONTINUOUS
10
2.858
20
1.58401
11
2.85946
21
1.58255
0
LINE
8
BLACK
6
CONTINUOUS
10
2.85946
20
1.58255
11
2.86298
21
1.58079
0
LINE
8
BLACK
6
CONTINUOUS
10
2.86298
20
1.58079
11
2.88971
21
1.58079
0
LINE
8
BLACK
6
CONTINUOUS
10
2.88971
20
1.58079
11
2.89266
21
1.58
0
LINE
8
BLACK
6
CONTINUOUS
10
2.89266
20
1.58
11
2.89482
21
1.57784
0
LINE
8
BLACK
6
CONTINUOUS
10
2.89482
20
1.57784
11
2.89561
21
1.57488
0
LINE
8
BLACK
6
CONTINUOUS
10
2.89561
20
1.57488
11
2.89482
21
1.57193
0
LINE
8
BLACK
6
CONTINUOUS
10
2.89482
20
1.57193
11
2.89266
21
1.56977
0
LINE
8
BLACK
6
CONTINUOUS
10
2.89266
20
1.56977
11
2.88971
21
1.56898
0
LINE
8
BLACK
6
CONTINUOUS
10
2.88971
20
1.56898
11
2.85034
21
1.56898
0
LINE
8
BLACK
6
CONTINUOUS
10
2.85034
20
1.56898
11
2.84738
21
1.56977
0
LINE
8
BLACK
6
CONTINUOUS
10
2.84738
20
1.56977
11
2.84522
21
1.57193
0
LINE
8
BLACK
6
CONTINUOUS
10
2.84522
20
1.57193
11
2.84443
21
1.57488
0
LINE
8
BLACK
6
CONTINUOUS
10
2.84443
20
1.57488
11
2.84522
21
1.57784
0
LINE
8
BLACK
6
CONTINUOUS
10
2.84522
20
1.57784
11
2.84699
21
1.57961
0
LINE
8
BLACK
6
CONTINUOUS
10
2.84699
20
1.57961
11
2.84505
21
1.58349
0
LINE
8
BLACK
6
CONTINUOUS
10
2.84505
20
1.58349
11
2.84478
21
1.58482
0
LINE
8
BLACK
6
CONTINUOUS
10
2.84478
20
1.58482
11
2.84443
21
1.58613
0
LINE
8
BLACK
6
CONTINUOUS
10
2.84443
20
1.58613
11
2.84443
21
1.59176
0
LINE
8
BLACK
6
CONTINUOUS
10
2.84443
20
1.59176
11
2.84522
21
1.59471
0
LINE
8
BLACK
6
CONTINUOUS
10
2.84522
20
1.59471
11
2.84738
21
1.59687
0
LINE
8
BLACK
6
CONTINUOUS
10
2.84738
20
1.59687
11
2.85034
21
1.59766
0
LINE
8
BLACK
6
CONTINUOUS
10
2.85034
20
1.59766
11
2.85329
21
1.59687
0
LINE
8
BLACK
6
CONTINUOUS
10
2.89266
20
1.64186
11
2.89482
21
1.6397
0
LINE
8
BLACK
6
CONTINUOUS
10
2.89482
20
1.6397
11
2.89561
21
1.63675
0
LINE
8
BLACK
6
CONTINUOUS
10
2.89561
20
1.63675
11
2.89487
21
1.634
0
LINE
8
BLACK
6
CONTINUOUS
10
2.89487
20
1.634
11
2.89499
21
1.63377
0
LINE
8
BLACK
6
CONTINUOUS
10
2.89499
20
1.63377
11
2.89526
21
1.63244
0
LINE
8
BLACK
6
CONTINUOUS
10
2.89526
20
1.63244
11
2.89561
21
1.63113
0
LINE
8
BLACK
6
CONTINUOUS
10
2.89561
20
1.63113
11
2.89561
21
1.61988
0
LINE
8
BLACK
6
CONTINUOUS
10
2.89561
20
1.61988
11
2.89526
21
1.61857
0
LINE
8
BLACK
6
CONTINUOUS
10
2.89526
20
1.61857
11
2.89499
21
1.61724
0
LINE
8
BLACK
6
CONTINUOUS
10
2.89499
20
1.61724
11
2.89218
21
1.61161
0
LINE
8
BLACK
6
CONTINUOUS
10
2.89218
20
1.61161
11
2.89154
21
1.6109
0
LINE
8
BLACK
6
CONTINUOUS
10
2.89154
20
1.6109
11
2.89107
21
1.61008
0
LINE
8
BLACK
6
CONTINUOUS
10
2.89107
20
1.61008
11
2.88826
21
1.60727
0
LINE
8
BLACK
6
CONTINUOUS
10
2.88826
20
1.60727
11
2.88743
21
1.60679
0
LINE
8
BLACK
6
CONTINUOUS
10
2.88743
20
1.60679
11
2.88672
21
1.60616
0
LINE
8
BLACK
6
CONTINUOUS
10
2.88672
20
1.60616
11
2.8811
21
1.60335
0
LINE
8
BLACK
6
CONTINUOUS
10
2.8811
20
1.60335
11
2.87977
21
1.60307
0
LINE
8
BLACK
6
CONTINUOUS
10
2.87977
20
1.60307
11
2.87846
21
1.60272
0
LINE
8
BLACK
6
CONTINUOUS
10
2.87846
20
1.60272
11
2.86158
21
1.60272
0
LINE
8
BLACK
6
CONTINUOUS
10
2.86158
20
1.60272
11
2.86027
21
1.60307
0
LINE
8
BLACK
6
CONTINUOUS
10
2.86027
20
1.60307
11
2.85894
21
1.60335
0
LINE
8
BLACK
6
CONTINUOUS
10
2.85894
20
1.60335
11
2.85332
21
1.60616
0
LINE
8
BLACK
6
CONTINUOUS
10
2.85332
20
1.60616
11
2.85261
21
1.60679
0
LINE
8
BLACK
6
CONTINUOUS
10
2.85261
20
1.60679
11
2.85178
21
1.60727
0
LINE
8
BLACK
6
CONTINUOUS
10
2.85178
20
1.60727
11
2.84897
21
1.61008
0
LINE
8
BLACK
6
CONTINUOUS
10
2.84897
20
1.61008
11
2.8485
21
1.6109
0
LINE
8
BLACK
6
CONTINUOUS
10
2.8485
20
1.6109
11
2.84787
21
1.61161
0
LINE
8
BLACK
6
CONTINUOUS
10
2.84787
20
1.61161
11
2.84505
21
1.61724
0
LINE
8
BLACK
6
CONTINUOUS
10
2.84505
20
1.61724
11
2.84478
21
1.61857
0
LINE
8
BLACK
6
CONTINUOUS
10
2.84478
20
1.61857
11
2.84443
21
1.61988
0
LINE
8
BLACK
6
CONTINUOUS
10
2.84443
20
1.61988
11
2.84443
21
1.63084
0
LINE
8
BLACK
6
CONTINUOUS
10
2.84443
20
1.63084
11
2.83065
21
1.63084
0
LINE
8
BLACK
6
CONTINUOUS
10
2.83065
20
1.63084
11
2.8277
21
1.63164
0
LINE
8
BLACK
6
CONTINUOUS
10
2.8277
20
1.63164
11
2.82554
21
1.6338
0
LINE
8
BLACK
6
CONTINUOUS
10
2.82554
20
1.6338
11
2.82475
21
1.63675
0
LINE
8
BLACK
6
CONTINUOUS
10
2.82475
20
1.63675
11
2.82554
21
1.6397
0
LINE
8
BLACK
6
CONTINUOUS
10
2.82554
20
1.6397
11
2.8277
21
1.64186
0
LINE
8
BLACK
6
CONTINUOUS
10
2.8277
20
1.64186
11
2.83065
21
1.64266
0
LINE
8
BLACK
6
CONTINUOUS
10
2.83065
20
1.64266
11
2.88971
21
1.64266
0
LINE
8
BLACK
6
CONTINUOUS
10
2.88971
20
1.64266
11
2.89266
21
1.64186
0
LINE
8
BLACK
6
CONTINUOUS
10
2.85624
20
1.62973
11
2.85624
21
1.62127
0
LINE
8
BLACK
6
CONTINUOUS
10
2.85624
20
1.62127
11
2.858
21
1.61775
0
LINE
8
BLACK
6
CONTINUOUS
10
2.858
20
1.61775
11
2.85946
21
1.61629
0
LINE
8
BLACK
6
CONTINUOUS
10
2.85946
20
1.61629
11
2.86298
21
1.61453
0
LINE
8
BLACK
6
CONTINUOUS
10
2.86298
20
1.61453
11
2.87706
21
1.61453
0
LINE
8
BLACK
6
CONTINUOUS
10
2.87706
20
1.61453
11
2.88058
21
1.61629
0
LINE
8
BLACK
6
CONTINUOUS
10
2.88058
20
1.61629
11
2.88204
21
1.61775
0
LINE
8
BLACK
6
CONTINUOUS
10
2.88204
20
1.61775
11
2.8838
21
1.62127
0
LINE
8
BLACK
6
CONTINUOUS
10
2.8838
20
1.62127
11
2.8838
21
1.62973
0
LINE
8
BLACK
6
CONTINUOUS
10
2.8838
20
1.62973
11
2.88324
21
1.63084
0
LINE
8
BLACK
6
CONTINUOUS
10
2.88324
20
1.63084
11
2.8568
21
1.63084
0
LINE
8
BLACK
6
CONTINUOUS
10
2.8568
20
1.63084
11
2.85624
21
1.62973
0
LINE
8
BLACK
6
CONTINUOUS
10
2.43156
20
2.13378
11
2.43372
21
2.13162
0
LINE
8
BLACK
6
CONTINUOUS
10
2.43372
20
2.13162
11
2.43451
21
2.12866
0
LINE
8
BLACK
6
CONTINUOUS
10
2.43451
20
2.12866
11
2.43451
21
2.08929
0
LINE
8
BLACK
6
CONTINUOUS
10
2.43451
20
2.08929
11
2.43372
21
2.08634
0
LINE
8
BLACK
6
CONTINUOUS
10
2.43372
20
2.08634
11
2.43156
21
2.08418
0
LINE
8
BLACK
6
CONTINUOUS
10
2.43156
20
2.08418
11
2.42861
21
2.08339
0
LINE
8
BLACK
6
CONTINUOUS
10
2.42861
20
2.08339
11
2.42565
21
2.08418
0
LINE
8
BLACK
6
CONTINUOUS
10
2.42565
20
2.08418
11
2.42482
21
2.08502
0
LINE
8
BLACK
6
CONTINUOUS
10
2.42482
20
2.08502
11
2.42281
21
2.08401
0
LINE
8
BLACK
6
CONTINUOUS
10
2.42281
20
2.08401
11
2.42148
21
2.08374
0
LINE
8
BLACK
6
CONTINUOUS
10
2.42148
20
2.08374
11
2.42017
21
2.08339
0
LINE
8
BLACK
6
CONTINUOUS
10
2.42017
20
2.08339
11
2.41173
21
2.08339
0
LINE
8
BLACK
6
CONTINUOUS
10
2.41173
20
2.08339
11
2.41042
21
2.08374
0
LINE
8
BLACK
6
CONTINUOUS
10
2.41042
20
2.08374
11
2.40909
21
2.08401
0
LINE
8
BLACK
6
CONTINUOUS
10
2.40909
20
2.08401
11
2.40347
21
2.08682
0
LINE
8
BLACK
6
CONTINUOUS
10
2.40347
20
2.08682
11
2.4032
21
2.08706
0
LINE
8
BLACK
6
CONTINUOUS
10
2.4032
20
2.08706
11
2.40285
21
2.08718
0
LINE
8
BLACK
6
CONTINUOUS
10
2.40285
20
2.08718
11
2.40207
21
2.08807
0
LINE
8
BLACK
6
CONTINUOUS
10
2.40207
20
2.08807
11
2.40118
21
2.08885
0
LINE
8
BLACK
6
CONTINUOUS
10
2.40118
20
2.08885
11
2.40107
21
2.0892
0
LINE
8
BLACK
6
CONTINUOUS
10
2.40107
20
2.0892
11
2.40083
21
2.08947
0
LINE
8
BLACK
6
CONTINUOUS
10
2.40083
20
2.08947
11
2.39801
21
2.09509
0
LINE
8
BLACK
6
CONTINUOUS
10
2.39801
20
2.09509
11
2.39774
21
2.09642
0
LINE
8
BLACK
6
CONTINUOUS
10
2.39774
20
2.09642
11
2.39739
21
2.09773
0
LINE
8
BLACK
6
CONTINUOUS
10
2.39739
20
2.09773
11
2.39739
21
2.12866
0
LINE
8
BLACK
6
CONTINUOUS
10
2.39739
20
2.12866
11
2.39818
21
2.13162
0
LINE
8
BLACK
6
CONTINUOUS
10
2.39818
20
2.13162
11
2.40034
21
2.13378
0
LINE
8
BLACK
6
CONTINUOUS
10
2.40034
20
2.13378
11
2.4033
21
2.13457
0
LINE
8
BLACK
6
CONTINUOUS
10
2.4033
20
2.13457
11
2.40625
21
2.13378
0
LINE
8
BLACK
6
CONTINUOUS
10
2.40625
20
2.13378
11
2.40841
21
2.13162
0
LINE
8
BLACK
6
CONTINUOUS
10
2.40841
20
2.13162
11
2.4092
21
2.12866
0
LINE
8
BLACK
6
CONTINUOUS
10
2.4092
20
2.12866
11
2.4092
21
2.09912
0
LINE
8
BLACK
6
CONTINUOUS
10
2.4092
20
2.09912
11
2.41051
21
2.09651
0
LINE
8
BLACK
6
CONTINUOUS
10
2.41051
20
2.09651
11
2.41313
21
2.0952
0
LINE
8
BLACK
6
CONTINUOUS
10
2.41313
20
2.0952
11
2.41877
21
2.0952
0
LINE
8
BLACK
6
CONTINUOUS
10
2.41877
20
2.0952
11
2.42229
21
2.09696
0
LINE
8
BLACK
6
CONTINUOUS
10
2.42229
20
2.09696
11
2.4227
21
2.09736
0
LINE
8
BLACK
6
CONTINUOUS
10
2.4227
20
2.09736
11
2.4227
21
2.12866
0
LINE
8
BLACK
6
CONTINUOUS
10
2.4227
20
2.12866
11
2.42349
21
2.13162
0
LINE
8
BLACK
6
CONTINUOUS
10
2.42349
20
2.13162
11
2.42565
21
2.13378
0
LINE
8
BLACK
6
CONTINUOUS
10
2.42565
20
2.13378
11
2.42861
21
2.13457
0
LINE
8
BLACK
6
CONTINUOUS
10
2.42861
20
2.13457
11
2.43156
21
2.13378
0
LINE
8
BLACK
6
CONTINUOUS
10
2.4721
20
2.13422
11
2.47343
21
2.13395
0
LINE
8
BLACK
6
CONTINUOUS
10
2.47343
20
2.13395
11
2.47905
21
2.13113
0
LINE
8
BLACK
6
CONTINUOUS
10
2.47905
20
2.13113
11
2.48134
21
2.12911
0
LINE
8
BLACK
6
CONTINUOUS
10
2.48134
20
2.12911
11
2.48231
21
2.12621
0
LINE
8
BLACK
6
CONTINUOUS
10
2.48231
20
2.12621
11
2.48169
21
2.12321
0
LINE
8
BLACK
6
CONTINUOUS
10
2.48169
20
2.12321
11
2.47967
21
2.12092
0
LINE
8
BLACK
6
CONTINUOUS
10
2.47967
20
2.12092
11
2.47677
21
2.11996
0
LINE
8
BLACK
6
CONTINUOUS
10
2.47677
20
2.11996
11
2.47377
21
2.12057
0
LINE
8
BLACK
6
CONTINUOUS
10
2.47377
20
2.12057
11
2.46939
21
2.12276
0
LINE
8
BLACK
6
CONTINUOUS
10
2.46939
20
2.12276
11
2.46375
21
2.12276
0
LINE
8
BLACK
6
CONTINUOUS
10
2.46375
20
2.12276
11
2.46113
21
2.12145
0
LINE
8
BLACK
6
CONTINUOUS
10
2.46113
20
2.12145
11
2.45982
21
2.11883
0
LINE
8
BLACK
6
CONTINUOUS
10
2.45982
20
2.11883
11
2.45982
21
2.11881
0
LINE
8
BLACK
6
CONTINUOUS
10
2.45982
20
2.11881
11
2.46113
21
2.11619
0
LINE
8
BLACK
6
CONTINUOUS
10
2.46113
20
2.11619
11
2.46374
21
2.11488
0
LINE
8
BLACK
6
CONTINUOUS
10
2.46374
20
2.11488
11
2.47079
21
2.11488
0
LINE
8
BLACK
6
CONTINUOUS
10
2.47079
20
2.11488
11
2.4721
21
2.11453
0
LINE
8
BLACK
6
CONTINUOUS
10
2.4721
20
2.11453
11
2.47343
21
2.11426
0
LINE
8
BLACK
6
CONTINUOUS
10
2.47343
20
2.11426
11
2.47905
21
2.11145
0
LINE
8
BLACK
6
CONTINUOUS
10
2.47905
20
2.11145
11
2.47932
21
2.11121
0
LINE
8
BLACK
6
CONTINUOUS
10
2.47932
20
2.11121
11
2.47967
21
2.1111
0
LINE
8
BLACK
6
CONTINUOUS
10
2.47967
20
2.1111
11
2.48045
21
2.11021
0
LINE
8
BLACK
6
CONTINUOUS
10
2.48045
20
2.11021
11
2.48134
21
2.10942
0
LINE
8
BLACK
6
CONTINUOUS
10
2.48134
20
2.10942
11
2.48145
21
2.10908
0
LINE
8
BLACK
6
CONTINUOUS
10
2.48145
20
2.10908
11
2.48169
21
2.10881
0
LINE
8
BLACK
6
CONTINUOUS
10
2.48169
20
2.10881
11
2.48451
21
2.10318
0
LINE
8
BLACK
6
CONTINUOUS
10
2.48451
20
2.10318
11
2.48478
21
2.10185
0
LINE
8
BLACK
6
CONTINUOUS
10
2.48478
20
2.10185
11
2.48513
21
2.10054
0
LINE
8
BLACK
6
CONTINUOUS
10
2.48513
20
2.10054
11
2.48513
21
2.09773
0
LINE
8
BLACK
6
CONTINUOUS
10
2.48513
20
2.09773
11
2.48478
21
2.09642
0
LINE
8
BLACK
6
CONTINUOUS
10
2.48478
20
2.09642
11
2.48451
21
2.09509
0
LINE
8
BLACK
6
CONTINUOUS
10
2.48451
20
2.09509
11
2.48169
21
2.08947
0
LINE
8
BLACK
6
CONTINUOUS
10
2.48169
20
2.08947
11
2.48145
21
2.0892
0
LINE
8
BLACK
6
CONTINUOUS
10
2.48145
20
2.0892
11
2.48134
21
2.08885
0
LINE
8
BLACK
6
CONTINUOUS
10
2.48134
20
2.08885
11
2.48045
21
2.08807
0
LINE
8
BLACK
6
CONTINUOUS
10
2.48045
20
2.08807
11
2.47967
21
2.08718
0
LINE
8
BLACK
6
CONTINUOUS
10
2.47967
20
2.08718
11
2.47932
21
2.08706
0
LINE
8
BLACK
6
CONTINUOUS
10
2.47932
20
2.08706
11
2.47905
21
2.08682
0
LINE
8
BLACK
6
CONTINUOUS
10
2.47905
20
2.08682
11
2.47343
21
2.08401
0
LINE
8
BLACK
6
CONTINUOUS
10
2.47343
20
2.08401
11
2.4721
21
2.08374
0
LINE
8
BLACK
6
CONTINUOUS
10
2.4721
20
2.08374
11
2.47079
21
2.08339
0
LINE
8
BLACK
6
CONTINUOUS
10
2.47079
20
2.08339
11
2.45954
21
2.08339
0
LINE
8
BLACK
6
CONTINUOUS
10
2.45954
20
2.08339
11
2.45823
21
2.08374
0
LINE
8
BLACK
6
CONTINUOUS
10
2.45823
20
2.08374
11
2.4569
21
2.08401
0
LINE
8
BLACK
6
CONTINUOUS
10
2.4569
20
2.08401
11
2.45127
21
2.08682
0
LINE
8
BLACK
6
CONTINUOUS
10
2.45127
20
2.08682
11
2.44899
21
2.08885
0
LINE
8
BLACK
6
CONTINUOUS
10
2.44899
20
2.08885
11
2.44802
21
2.09175
0
LINE
8
BLACK
6
CONTINUOUS
10
2.44802
20
2.09175
11
2.44863
21
2.09475
0
LINE
8
BLACK
6
CONTINUOUS
10
2.44863
20
2.09475
11
2.45066
21
2.09703
0
LINE
8
BLACK
6
CONTINUOUS
10
2.45066
20
2.09703
11
2.45356
21
2.098
0
LINE
8
BLACK
6
CONTINUOUS
10
2.45356
20
2.098
11
2.45656
21
2.09739
0
LINE
8
BLACK
6
CONTINUOUS
10
2.45656
20
2.09739
11
2.46093
21
2.0952
0
LINE
8
BLACK
6
CONTINUOUS
10
2.46093
20
2.0952
11
2.46939
21
2.0952
0
LINE
8
BLACK
6
CONTINUOUS
10
2.46939
20
2.0952
11
2.47201
21
2.09651
0
LINE
8
BLACK
6
CONTINUOUS
10
2.47201
20
2.09651
11
2.47332
21
2.09912
0
LINE
8
BLACK
6
CONTINUOUS
10
2.47332
20
2.09912
11
2.47332
21
2.09915
0
LINE
8
BLACK
6
CONTINUOUS
10
2.47332
20
2.09915
11
2.47201
21
2.10177
0
LINE
8
BLACK
6
CONTINUOUS
10
2.47201
20
2.10177
11
2.46939
21
2.10307
0
LINE
8
BLACK
6
CONTINUOUS
10
2.46939
20
2.10307
11
2.46235
21
2.10307
0
LINE
8
BLACK
6
CONTINUOUS
10
2.46235
20
2.10307
11
2.46104
21
2.10342
0
LINE
8
BLACK
6
CONTINUOUS
10
2.46104
20
2.10342
11
2.45971
21
2.1037
0
LINE
8
BLACK
6
CONTINUOUS
10
2.45971
20
2.1037
11
2.45409
21
2.10651
0
LINE
8
BLACK
6
CONTINUOUS
10
2.45409
20
2.10651
11
2.45382
21
2.10675
0
LINE
8
BLACK
6
CONTINUOUS
10
2.45382
20
2.10675
11
2.45347
21
2.10686
0
LINE
8
BLACK
6
CONTINUOUS
10
2.45347
20
2.10686
11
2.45269
21
2.10775
0
LINE
8
BLACK
6
CONTINUOUS
10
2.45269
20
2.10775
11
2.4518
21
2.10854
0
LINE
8
BLACK
6
CONTINUOUS
10
2.4518
20
2.10854
11
2.45168
21
2.10888
0
LINE
8
BLACK
6
CONTINUOUS
10
2.45168
20
2.10888
11
2.45144
21
2.10915
0
LINE
8
BLACK
6
CONTINUOUS
10
2.45144
20
2.10915
11
2.44863
21
2.11477
0
LINE
8
BLACK
6
CONTINUOUS
10
2.44863
20
2.11477
11
2.44836
21
2.1161
0
LINE
8
BLACK
6
CONTINUOUS
10
2.44836
20
2.1161
11
2.44801
21
2.11742
0
LINE
8
BLACK
6
CONTINUOUS
10
2.44801
20
2.11742
11
2.44801
21
2.12023
0
LINE
8
BLACK
6
CONTINUOUS
10
2.44801
20
2.12023
11
2.44836
21
2.12154
0
LINE
8
BLACK
6
CONTINUOUS
10
2.44836
20
2.12154
11
2.44863
21
2.12287
0
LINE
8
BLACK
6
CONTINUOUS
10
2.44863
20
2.12287
11
2.45144
21
2.12849
0
LINE
8
BLACK
6
CONTINUOUS
10
2.45144
20
2.12849
11
2.45168
21
2.12876
0
LINE
8
BLACK
6
CONTINUOUS
10
2.45168
20
2.12876
11
2.4518
21
2.12911
0
LINE
8
BLACK
6
CONTINUOUS
10
2.4518
20
2.12911
11
2.45269
21
2.12989
0
LINE
8
BLACK
6
CONTINUOUS
10
2.45269
20
2.12989
11
2.45347
21
2.13078
0
LINE
8
BLACK
6
CONTINUOUS
10
2.45347
20
2.13078
11
2.45382
21
2.13089
0
LINE
8
BLACK
6
CONTINUOUS
10
2.45382
20
2.13089
11
2.45409
21
2.13113
0
LINE
8
BLACK
6
CONTINUOUS
10
2.45409
20
2.13113
11
2.45971
21
2.13395
0
LINE
8
BLACK
6
CONTINUOUS
10
2.45971
20
2.13395
11
2.46104
21
2.13422
0
LINE
8
BLACK
6
CONTINUOUS
10
2.46104
20
2.13422
11
2.46235
21
2.13457
0
LINE
8
BLACK
6
CONTINUOUS
10
2.46235
20
2.13457
11
2.47079
21
2.13457
0
LINE
8
BLACK
6
CONTINUOUS
10
2.47079
20
2.13457
11
2.4721
21
2.13422
0
LINE
8
BLACK
6
CONTINUOUS
10
2.50749
20
2.15346
11
2.50965
21
2.1513
0
LINE
8
BLACK
6
CONTINUOUS
10
2.50965
20
2.1513
11
2.51044
21
2.14835
0
LINE
8
BLACK
6
CONTINUOUS
10
2.51044
20
2.14835
11
2.51044
21
2.13457
0
LINE
8
BLACK
6
CONTINUOUS
10
2.51044
20
2.13457
11
2.51859
21
2.13457
0
LINE
8
BLACK
6
CONTINUOUS
10
2.51859
20
2.13457
11
2.52155
21
2.13378
0
LINE
8
BLACK
6
CONTINUOUS
10
2.52155
20
2.13378
11
2.52371
21
2.13162
0
LINE
8
BLACK
6
CONTINUOUS
10
2.52371
20
2.13162
11
2.5245
21
2.12866
0
LINE
8
BLACK
6
CONTINUOUS
10
2.5245
20
2.12866
11
2.52371
21
2.12571
0
LINE
8
BLACK
6
CONTINUOUS
10
2.52371
20
2.12571
11
2.52155
21
2.12355
0
LINE
8
BLACK
6
CONTINUOUS
10
2.52155
20
2.12355
11
2.51859
21
2.12276
0
LINE
8
BLACK
6
CONTINUOUS
10
2.51859
20
2.12276
11
2.51044
21
2.12276
0
LINE
8
BLACK
6
CONTINUOUS
10
2.51044
20
2.12276
11
2.51044
21
2.09912
0
LINE
8
BLACK
6
CONTINUOUS
10
2.51044
20
2.09912
11
2.51175
21
2.09651
0
LINE
8
BLACK
6
CONTINUOUS
10
2.51175
20
2.09651
11
2.51436
21
2.0952
0
LINE
8
BLACK
6
CONTINUOUS
10
2.51436
20
2.0952
11
2.51859
21
2.0952
0
LINE
8
BLACK
6
CONTINUOUS
10
2.51859
20
2.0952
11
2.52155
21
2.09441
0
LINE
8
BLACK
6
CONTINUOUS
10
2.52155
20
2.09441
11
2.52371
21
2.09225
0
LINE
8
BLACK
6
CONTINUOUS
10
2.52371
20
2.09225
11
2.5245
21
2.08929
0
LINE
8
BLACK
6
CONTINUOUS
10
2.5245
20
2.08929
11
2.52371
21
2.08634
0
LINE
8
BLACK
6
CONTINUOUS
10
2.52371
20
2.08634
11
2.52155
21
2.08418
0
LINE
8
BLACK
6
CONTINUOUS
10
2.52155
20
2.08418
11
2.51859
21
2.08339
0
LINE
8
BLACK
6
CONTINUOUS
10
2.51859
20
2.08339
11
2.51297
21
2.08339
0
LINE
8
BLACK
6
CONTINUOUS
10
2.51297
20
2.08339
11
2.51166
21
2.08374
0
LINE
8
BLACK
6
CONTINUOUS
10
2.51166
20
2.08374
11
2.51033
21
2.08401
0
LINE
8
BLACK
6
CONTINUOUS
10
2.51033
20
2.08401
11
2.5047
21
2.08682
0
LINE
8
BLACK
6
CONTINUOUS
10
2.5047
20
2.08682
11
2.50443
21
2.08706
0
LINE
8
BLACK
6
CONTINUOUS
10
2.50443
20
2.08706
11
2.50409
21
2.08718
0
LINE
8
BLACK
6
CONTINUOUS
10
2.50409
20
2.08718
11
2.5033
21
2.08807
0
LINE
8
BLACK
6
CONTINUOUS
10
2.5033
20
2.08807
11
2.50242
21
2.08885
0
LINE
8
BLACK
6
CONTINUOUS
10
2.50242
20
2.08885
11
2.5023
21
2.0892
0
LINE
8
BLACK
6
CONTINUOUS
10
2.5023
20
2.0892
11
2.50206
21
2.08947
0
LINE
8
BLACK
6
CONTINUOUS
10
2.50206
20
2.08947
11
2.49925
21
2.09509
0
LINE
8
BLACK
6
CONTINUOUS
10
2.49925
20
2.09509
11
2.49898
21
2.09642
0
LINE
8
BLACK
6
CONTINUOUS
10
2.49898
20
2.09642
11
2.49863
21
2.09773
0
LINE
8
BLACK
6
CONTINUOUS
10
2.49863
20
2.09773
11
2.49863
21
2.12276
0
LINE
8
BLACK
6
CONTINUOUS
10
2.49863
20
2.12276
11
2.4961
21
2.12276
0
LINE
8
BLACK
6
CONTINUOUS
10
2.4961
20
2.12276
11
2.49314
21
2.12355
0
LINE
8
BLACK
6
CONTINUOUS
10
2.49314
20
2.12355
11
2.49098
21
2.12571
0
LINE
8
BLACK
6
CONTINUOUS
10
2.49098
20
2.12571
11
2.49019
21
2.12866
0
LINE
8
BLACK
6
CONTINUOUS
10
2.49019
20
2.12866
11
2.49098
21
2.13162
0
LINE
8
BLACK
6
CONTINUOUS
10
2.49098
20
2.13162
11
2.49314
21
2.13378
0
LINE
8
BLACK
6
CONTINUOUS
10
2.49314
20
2.13378
11
2.4961
21
2.13457
0
LINE
8
BLACK
6
CONTINUOUS
10
2.4961
20
2.13457
11
2.49863
21
2.13457
0
LINE
8
BLACK
6
CONTINUOUS
10
2.49863
20
2.13457
11
2.49863
21
2.14835
0
LINE
8
BLACK
6
CONTINUOUS
10
2.49863
20
2.14835
11
2.49942
21
2.1513
0
LINE
8
BLACK
6
CONTINUOUS
10
2.49942
20
2.1513
11
2.50158
21
2.15346
0
LINE
8
BLACK
6
CONTINUOUS
10
2.50158
20
2.15346
11
2.50453
21
2.15425
0
LINE
8
BLACK
6
CONTINUOUS
10
2.50453
20
2.15425
11
2.50749
21
2.15346
0
LINE
8
BLACK
6
CONTINUOUS
10
2.53903
20
2.10062
11
2.53981
21
2.10062
0
LINE
8
BLACK
6
CONTINUOUS
10
2.53981
20
2.10062
11
2.53981
21
2.10062
0
LINE
8
BLACK
6
CONTINUOUS
10
2.53981
20
2.10062
11
2.54048
21
2.10023
0
LINE
8
BLACK
6
CONTINUOUS
10
2.54048
20
2.10023
11
2.54123
21
2.10003
0
LINE
8
BLACK
6
CONTINUOUS
10
2.54123
20
2.10003
11
2.54178
21
2.09948
0
LINE
8
BLACK
6
CONTINUOUS
10
2.54178
20
2.09948
11
2.54245
21
2.09909
0
LINE
8
BLACK
6
CONTINUOUS
10
2.54245
20
2.09909
11
2.54245
21
2.09909
0
LINE
8
BLACK
6
CONTINUOUS
10
2.54245
20
2.09909
11
2.54527
21
2.09628
0
LINE
8
BLACK
6
CONTINUOUS
10
2.54527
20
2.09628
11
2.5468
21
2.09363
0
LINE
8
BLACK
6
CONTINUOUS
10
2.5468
20
2.09363
11
2.5468
21
2.09363
0
LINE
8
BLACK
6
CONTINUOUS
10
2.5468
20
2.09363
11
2.5468
21
2.09058
0
LINE
8
BLACK
6
CONTINUOUS
10
2.5468
20
2.09058
11
2.54615
21
2.08947
0
LINE
8
BLACK
6
CONTINUOUS
10
2.54615
20
2.08947
11
2.54527
21
2.08793
0
LINE
8
BLACK
6
CONTINUOUS
10
2.54527
20
2.08793
11
2.54527
21
2.08793
0
LINE
8
BLACK
6
CONTINUOUS
10
2.54527
20
2.08793
11
2.54245
21
2.08512
0
LINE
8
BLACK
6
CONTINUOUS
10
2.54245
20
2.08512
11
2.54178
21
2.08473
0
LINE
8
BLACK
6
CONTINUOUS
10
2.54178
20
2.08473
11
2.54123
21
2.08418
0
LINE
8
BLACK
6
CONTINUOUS
10
2.54123
20
2.08418
11
2.54048
21
2.08398
0
LINE
8
BLACK
6
CONTINUOUS
10
2.54048
20
2.08398
11
2.53981
21
2.08359
0
LINE
8
BLACK
6
CONTINUOUS
10
2.53981
20
2.08359
11
2.53903
21
2.08359
0
LINE
8
BLACK
6
CONTINUOUS
10
2.53903
20
2.08359
11
2.53828
21
2.08339
0
LINE
8
BLACK
6
CONTINUOUS
10
2.53828
20
2.08339
11
2.53753
21
2.08359
0
LINE
8
BLACK
6
CONTINUOUS
10
2.53753
20
2.08359
11
2.53675
21
2.08359
0
LINE
8
BLACK
6
CONTINUOUS
10
2.53675
20
2.08359
11
2.53675
21
2.08359
0
LINE
8
BLACK
6
CONTINUOUS
10
2.53675
20
2.08359
11
2.53608
21
2.08398
0
LINE
8
BLACK
6
CONTINUOUS
10
2.53608
20
2.08398
11
2.53533
21
2.08418
0
LINE
8
BLACK
6
CONTINUOUS
10
2.53533
20
2.08418
11
2.53478
21
2.08473
0
LINE
8
BLACK
6
CONTINUOUS
10
2.53478
20
2.08473
11
2.5341
21
2.08512
0
LINE
8
BLACK
6
CONTINUOUS
10
2.5341
20
2.08512
11
2.5341
21
2.08512
0
LINE
8
BLACK
6
CONTINUOUS
10
2.5341
20
2.08512
11
2.53129
21
2.08793
0
LINE
8
BLACK
6
CONTINUOUS
10
2.53129
20
2.08793
11
2.5304
21
2.08947
0
LINE
8
BLACK
6
CONTINUOUS
10
2.5304
20
2.08947
11
2.52976
21
2.09058
0
LINE
8
BLACK
6
CONTINUOUS
10
2.52976
20
2.09058
11
2.52976
21
2.09363
0
LINE
8
BLACK
6
CONTINUOUS
10
2.52976
20
2.09363
11
2.52976
21
2.09363
0
LINE
8
BLACK
6
CONTINUOUS
10
2.52976
20
2.09363
11
2.53129
21
2.09628
0
LINE
8
BLACK
6
CONTINUOUS
10
2.53129
20
2.09628
11
2.5341
21
2.09909
0
LINE
8
BLACK
6
CONTINUOUS
10
2.5341
20
2.09909
11
2.5341
21
2.09909
0
LINE
8
BLACK
6
CONTINUOUS
10
2.5341
20
2.09909
11
2.5341
21
2.09909
0
LINE
8
BLACK
6
CONTINUOUS
10
2.5341
20
2.09909
11
2.53478
21
2.09948
0
LINE
8
BLACK
6
CONTINUOUS
10
2.53478
20
2.09948
11
2.53533
21
2.10003
0
LINE
8
BLACK
6
CONTINUOUS
10
2.53533
20
2.10003
11
2.53608
21
2.10023
0
LINE
8
BLACK
6
CONTINUOUS
10
2.53608
20
2.10023
11
2.53675
21
2.10062
0
LINE
8
BLACK
6
CONTINUOUS
10
2.53675
20
2.10062
11
2.53753
21
2.10062
0
LINE
8
BLACK
6
CONTINUOUS
10
2.53753
20
2.10062
11
2.53828
21
2.10082
0
LINE
8
BLACK
6
CONTINUOUS
10
2.53828
20
2.10082
11
2.53903
21
2.10062
0
LINE
8
BLACK
6
CONTINUOUS
10
2.5874
20
2.13422
11
2.58873
21
2.13395
0
LINE
8
BLACK
6
CONTINUOUS
10
2.58873
20
2.13395
11
2.59435
21
2.13113
0
LINE
8
BLACK
6
CONTINUOUS
10
2.59435
20
2.13113
11
2.59664
21
2.12911
0
LINE
8
BLACK
6
CONTINUOUS
10
2.59664
20
2.12911
11
2.5976
21
2.12621
0
LINE
8
BLACK
6
CONTINUOUS
10
2.5976
20
2.12621
11
2.59699
21
2.12321
0
LINE
8
BLACK
6
CONTINUOUS
10
2.59699
20
2.12321
11
2.59496
21
2.12092
0
LINE
8
BLACK
6
CONTINUOUS
10
2.59496
20
2.12092
11
2.59206
21
2.11996
0
LINE
8
BLACK
6
CONTINUOUS
10
2.59206
20
2.11996
11
2.58907
21
2.12057
0
LINE
8
BLACK
6
CONTINUOUS
10
2.58907
20
2.12057
11
2.58469
21
2.12276
0
LINE
8
BLACK
6
CONTINUOUS
10
2.58469
20
2.12276
11
2.57623
21
2.12276
0
LINE
8
BLACK
6
CONTINUOUS
10
2.57623
20
2.12276
11
2.57271
21
2.121
0
LINE
8
BLACK
6
CONTINUOUS
10
2.57271
20
2.121
11
2.57125
21
2.11954
0
LINE
8
BLACK
6
CONTINUOUS
10
2.57125
20
2.11954
11
2.56949
21
2.11602
0
LINE
8
BLACK
6
CONTINUOUS
10
2.56949
20
2.11602
11
2.56949
21
2.10194
0
LINE
8
BLACK
6
CONTINUOUS
10
2.56949
20
2.10194
11
2.57125
21
2.09842
0
LINE
8
BLACK
6
CONTINUOUS
10
2.57125
20
2.09842
11
2.57271
21
2.09696
0
LINE
8
BLACK
6
CONTINUOUS
10
2.57271
20
2.09696
11
2.57623
21
2.0952
0
LINE
8
BLACK
6
CONTINUOUS
10
2.57623
20
2.0952
11
2.58469
21
2.0952
0
LINE
8
BLACK
6
CONTINUOUS
10
2.58469
20
2.0952
11
2.58907
21
2.09739
0
LINE
8
BLACK
6
CONTINUOUS
10
2.58907
20
2.09739
11
2.59206
21
2.098
0
LINE
8
BLACK
6
CONTINUOUS
10
2.59206
20
2.098
11
2.59496
21
2.09703
0
LINE
8
BLACK
6
CONTINUOUS
10
2.59496
20
2.09703
11
2.59699
21
2.09475
0
LINE
8
BLACK
6
CONTINUOUS
10
2.59699
20
2.09475
11
2.5976
21
2.09175
0
LINE
8
BLACK
6
CONTINUOUS
10
2.5976
20
2.09175
11
2.59664
21
2.08885
0
LINE
8
BLACK
6
CONTINUOUS
10
2.59664
20
2.08885
11
2.59435
21
2.08682
0
LINE
8
BLACK
6
CONTINUOUS
10
2.59435
20
2.08682
11
2.58873
21
2.08401
0
LINE
8
BLACK
6
CONTINUOUS
10
2.58873
20
2.08401
11
2.5874
21
2.08374
0
LINE
8
BLACK
6
CONTINUOUS
10
2.5874
20
2.08374
11
2.58609
21
2.08339
0
LINE
8
BLACK
6
CONTINUOUS
10
2.58609
20
2.08339
11
2.57484
21
2.08339
0
LINE
8
BLACK
6
CONTINUOUS
10
2.57484
20
2.08339
11
2.57353
21
2.08374
0
LINE
8
BLACK
6
CONTINUOUS
10
2.57353
20
2.08374
11
2.5722
21
2.08401
0
LINE
8
BLACK
6
CONTINUOUS
10
2.5722
20
2.08401
11
2.56657
21
2.08682
0
LINE
8
BLACK
6
CONTINUOUS
10
2.56657
20
2.08682
11
2.56586
21
2.08746
0
LINE
8
BLACK
6
CONTINUOUS
10
2.56586
20
2.08746
11
2.56504
21
2.08793
0
LINE
8
BLACK
6
CONTINUOUS
10
2.56504
20
2.08793
11
2.56222
21
2.09074
0
LINE
8
BLACK
6
CONTINUOUS
10
2.56222
20
2.09074
11
2.56175
21
2.09157
0
LINE
8
BLACK
6
CONTINUOUS
10
2.56175
20
2.09157
11
2.56112
21
2.09228
0
LINE
8
BLACK
6
CONTINUOUS
10
2.56112
20
2.09228
11
2.55831
21
2.0979
0
LINE
8
BLACK
6
CONTINUOUS
10
2.55831
20
2.0979
11
2.55803
21
2.09923
0
LINE
8
BLACK
6
CONTINUOUS
10
2.55803
20
2.09923
11
2.55768
21
2.10054
0
LINE
8
BLACK
6
CONTINUOUS
10
2.55768
20
2.10054
11
2.55768
21
2.11742
0
LINE
8
BLACK
6
CONTINUOUS
10
2.55768
20
2.11742
11
2.55803
21
2.11873
0
LINE
8
BLACK
6
CONTINUOUS
10
2.55803
20
2.11873
11
2.55831
21
2.12006
0
LINE
8
BLACK
6
CONTINUOUS
10
2.55831
20
2.12006
11
2.56112
21
2.12568
0
LINE
8
BLACK
6
CONTINUOUS
10
2.56112
20
2.12568
11
2.56175
21
2.12639
0
LINE
8
BLACK
6
CONTINUOUS
10
2.56175
20
2.12639
11
2.56222
21
2.12722
0
LINE
8
BLACK
6
CONTINUOUS
10
2.56222
20
2.12722
11
2.56504
21
2.13003
0
LINE
8
BLACK
6
CONTINUOUS
10
2.56504
20
2.13003
11
2.56586
21
2.1305
0
LINE
8
BLACK
6
CONTINUOUS
10
2.56586
20
2.1305
11
2.56657
21
2.13113
0
LINE
8
BLACK
6
CONTINUOUS
10
2.56657
20
2.13113
11
2.5722
21
2.13395
0
LINE
8
BLACK
6
CONTINUOUS
10
2.5722
20
2.13395
11
2.57353
21
2.13422
0
LINE
8
BLACK
6
CONTINUOUS
10
2.57353
20
2.13422
11
2.57484
21
2.13457
0
LINE
8
BLACK
6
CONTINUOUS
10
2.57484
20
2.13457
11
2.58609
21
2.13457
0
LINE
8
BLACK
6
CONTINUOUS
10
2.58609
20
2.13457
11
2.5874
21
2.13422
0
LINE
8
BLACK
6
CONTINUOUS
10
2.64274
20
2.13446
11
2.64317
21
2.13451
0
LINE
8
BLACK
6
CONTINUOUS
10
2.64317
20
2.13451
11
2.6442
21
2.13407
0
LINE
8
BLACK
6
CONTINUOUS
10
2.6442
20
2.13407
11
2.64528
21
2.13378
0
LINE
8
BLACK
6
CONTINUOUS
10
2.64528
20
2.13378
11
2.64558
21
2.13348
0
LINE
8
BLACK
6
CONTINUOUS
10
2.64558
20
2.13348
11
2.64598
21
2.13331
0
LINE
8
BLACK
6
CONTINUOUS
10
2.64598
20
2.13331
11
2.64665
21
2.13241
0
LINE
8
BLACK
6
CONTINUOUS
10
2.64665
20
2.13241
11
2.64744
21
2.13162
0
LINE
8
BLACK
6
CONTINUOUS
10
2.64744
20
2.13162
11
2.64755
21
2.1312
0
LINE
8
BLACK
6
CONTINUOUS
10
2.64755
20
2.1312
11
2.64781
21
2.13086
0
LINE
8
BLACK
6
CONTINUOUS
10
2.64781
20
2.13086
11
2.64794
21
2.12975
0
LINE
8
BLACK
6
CONTINUOUS
10
2.64794
20
2.12975
11
2.64823
21
2.12866
0
LINE
8
BLACK
6
CONTINUOUS
10
2.64823
20
2.12866
11
2.64812
21
2.12825
0
LINE
8
BLACK
6
CONTINUOUS
10
2.64812
20
2.12825
11
2.64817
21
2.12783
0
LINE
8
BLACK
6
CONTINUOUS
10
2.64817
20
2.12783
11
2.64773
21
2.12679
0
LINE
8
BLACK
6
CONTINUOUS
10
2.64773
20
2.12679
11
2.64744
21
2.12571
0
LINE
8
BLACK
6
CONTINUOUS
10
2.64744
20
2.12571
11
2.64714
21
2.12541
0
LINE
8
BLACK
6
CONTINUOUS
10
2.64714
20
2.12541
11
2.64697
21
2.12502
0
LINE
8
BLACK
6
CONTINUOUS
10
2.64697
20
2.12502
11
2.62355
21
2.0952
0
LINE
8
BLACK
6
CONTINUOUS
10
2.62355
20
2.0952
11
2.64233
21
2.0952
0
LINE
8
BLACK
6
CONTINUOUS
10
2.64233
20
2.0952
11
2.64528
21
2.09441
0
LINE
8
BLACK
6
CONTINUOUS
10
2.64528
20
2.09441
11
2.64744
21
2.09225
0
LINE
8
BLACK
6
CONTINUOUS
10
2.64744
20
2.09225
11
2.64823
21
2.08929
0
LINE
8
BLACK
6
CONTINUOUS
10
2.64823
20
2.08929
11
2.64744
21
2.08634
0
LINE
8
BLACK
6
CONTINUOUS
10
2.64744
20
2.08634
11
2.64528
21
2.08418
0
LINE
8
BLACK
6
CONTINUOUS
10
2.64528
20
2.08418
11
2.64233
21
2.08339
0
LINE
8
BLACK
6
CONTINUOUS
10
2.64233
20
2.08339
11
2.61139
21
2.08339
0
LINE
8
BLACK
6
CONTINUOUS
10
2.61139
20
2.08339
11
2.61098
21
2.0835
0
LINE
8
BLACK
6
CONTINUOUS
10
2.61098
20
2.0835
11
2.61056
21
2.08345
0
LINE
8
BLACK
6
CONTINUOUS
10
2.61056
20
2.08345
11
2.60953
21
2.08389
0
LINE
8
BLACK
6
CONTINUOUS
10
2.60953
20
2.08389
11
2.60844
21
2.08418
0
LINE
8
BLACK
6
CONTINUOUS
10
2.60844
20
2.08418
11
2.60814
21
2.08448
0
LINE
8
BLACK
6
CONTINUOUS
10
2.60814
20
2.08448
11
2.60775
21
2.08465
0
LINE
8
BLACK
6
CONTINUOUS
10
2.60775
20
2.08465
11
2.60707
21
2.08555
0
LINE
8
BLACK
6
CONTINUOUS
10
2.60707
20
2.08555
11
2.60628
21
2.08634
0
LINE
8
BLACK
6
CONTINUOUS
10
2.60628
20
2.08634
11
2.60617
21
2.08675
0
LINE
8
BLACK
6
CONTINUOUS
10
2.60617
20
2.08675
11
2.60591
21
2.0871
0
LINE
8
BLACK
6
CONTINUOUS
10
2.60591
20
2.0871
11
2.60578
21
2.08821
0
LINE
8
BLACK
6
CONTINUOUS
10
2.60578
20
2.08821
11
2.60549
21
2.08929
0
LINE
8
BLACK
6
CONTINUOUS
10
2.60549
20
2.08929
11
2.6056
21
2.08971
0
LINE
8
BLACK
6
CONTINUOUS
10
2.6056
20
2.08971
11
2.60555
21
2.09013
0
LINE
8
BLACK
6
CONTINUOUS
10
2.60555
20
2.09013
11
2.60599
21
2.09116
0
LINE
8
BLACK
6
CONTINUOUS
10
2.60599
20
2.09116
11
2.60628
21
2.09225
0
LINE
8
BLACK
6
CONTINUOUS
10
2.60628
20
2.09225
11
2.60658
21
2.09255
0
LINE
8
BLACK
6
CONTINUOUS
10
2.60658
20
2.09255
11
2.60675
21
2.09294
0
LINE
8
BLACK
6
CONTINUOUS
10
2.60675
20
2.09294
11
2.63018
21
2.12276
0
LINE
8
BLACK
6
CONTINUOUS
10
2.63018
20
2.12276
11
2.61139
21
2.12276
0
LINE
8
BLACK
6
CONTINUOUS
10
2.61139
20
2.12276
11
2.60844
21
2.12355
0
LINE
8
BLACK
6
CONTINUOUS
10
2.60844
20
2.12355
11
2.60628
21
2.12571
0
LINE
8
BLACK
6
CONTINUOUS
10
2.60628
20
2.12571
11
2.60549
21
2.12866
0
LINE
8
BLACK
6
CONTINUOUS
10
2.60549
20
2.12866
11
2.60628
21
2.13162
0
LINE
8
BLACK
6
CONTINUOUS
10
2.60628
20
2.13162
11
2.60844
21
2.13378
0
LINE
8
BLACK
6
CONTINUOUS
10
2.60844
20
2.13378
11
2.61139
21
2.13457
0
LINE
8
BLACK
6
CONTINUOUS
10
2.61139
20
2.13457
11
2.64233
21
2.13457
0
LINE
8
BLACK
6
CONTINUOUS
10
2.64233
20
2.13457
11
2.64274
21
2.13446
0
CIRCLE
8
BLACK
10
0.4
20
2
40
0.00688976
0
CIRCLE
8
BLACK
10
2.8
20
2
40
0.00688976
0
CIRCLE
8
BLACK
10
0.4
20
0.4
40
0.00688976
0
CIRCLE
8
BLACK
10
2.8
20
0.4
40
0.00688976
0
CIRCLE
8
BLACK
10
2.33954
20
0.916
40
0.00688976
0
CIRCLE
8
BLACK
10
2.33954
20
1.11285
40
0.00688976
0
CIRCLE
8
BLACK
10
0.9
20
2.1
40
0.00688976
0
CIRCLE
8
BLACK
10
0.9
20
2
40
0.00688976
0
CIRCLE
8
BLACK
10
1
20
2.1
40
0.00688976
0
CIRCLE
8
BLACK
10
1
20
2
40
0.00688976
0
CIRCLE
8
BLACK
10
1.1
20
2.1
40
0.00688976
0
CIRCLE
8
BLACK
10
1.1
20
2
40
0.00688976
0
CIRCLE
8
BLACK
10
1.2
20
2.1
40
0.00688976
0
CIRCLE
8
BLACK
10
1.2
20
2
40
0.00688976
0
CIRCLE
8
BLACK
10
1.3
20
2.1
40
0.00688976
0
CIRCLE
8
BLACK
10
1.3
20
2
40
0.00688976
0
CIRCLE
8
BLACK
10
1.4
20
2.1
40
0.00688976
0
CIRCLE
8
BLACK
10
1.4
20
2
40
0.00688976
0
CIRCLE
8
BLACK
10
1.5
20
2.1
40
0.00688976
0
CIRCLE
8
BLACK
10
1.5
20
2
40
0.00688976
0
CIRCLE
8
BLACK
10
1.6
20
2.1
40
0.00688976
0
CIRCLE
8
BLACK
10
1.6
20
2
40
0.00688976
0
CIRCLE
8
BLACK
10
1.7
20
2.1
40
0.00688976
0
CIRCLE
8
BLACK
10
1.7
20
2
40
0.00688976
0
CIRCLE
8
BLACK
10
1.8
20
2.1
40
0.00688976
0
CIRCLE
8
BLACK
10
1.8
20
2
40
0.00688976
0
CIRCLE
8
BLACK
10
1.9
20
2.1
40
0.00688976
0
CIRCLE
8
BLACK
10
1.9
20
2
40
0.00688976
0
CIRCLE
8
BLACK
10
2
20
2.1
40
0.00688976
0
CIRCLE
8
BLACK
10
2
20
2
40
0.00688976
0
CIRCLE
8
BLACK
10
2.1
20
2.1
40
0.00688976
0
CIRCLE
8
BLACK
10
2.1
20
2
40
0.00688976
0
CIRCLE
8
BLACK
10
2.2
20
2.1
40
0.00688976
0
CIRCLE
8
BLACK
10
2.2
20
2
40
0.00688976
0
CIRCLE
8
BLACK
10
2.3
20
2.1
40
0.00688976
0
CIRCLE
8
BLACK
10
2.3
20
2
40
0.00688976
  0
ENDSEC
  0
EOF
