  0
SECTION
  2
HEADER
  9
$ANGBASE
  50
0.0
  9
$ANGDIR
  70
1
  9
$MEASUREMENT
  70
0
  0
ENDSEC
  0
SECTION
  2
TABLES
  0
TABLE
  2
LTYPE
  70
4
  0
LTYPE
  5
40F
  2
CONTINUOUS
  70
0
  3
Solid line
  72
65
  73
0
  40
0.0
  0
LTYPE
  5
410
  2
DASHDOT
 70
0
  3
Dash Dot ____ _ ____ _
 72
65
 73
4
 40
2.0
 49
1.25
 49
-0.25
 49
0.25
 49
-0.25
  0
LTYPE
  5
411
  2
DASHED
 70
0
  3
Dashed __ __ __ __ __
 72
65
 73
2
 40
0.75
 49
0.5
 49
-0.25
  0
LTYPE
  5
43B
  2
DOTTED
 70
0
  3
Dotted .  .  .  .
 72
65
 73
2
 40
0.2
 49
0.0
 49
-0.2
  0
ENDTAB
  0
TABLE
  2
STYLE
  70
4
  0
STYLE
  2
KICAD
  70
0
  40
0
  41
1
  42
1
  50
0
  71
0
  3
isocp.shx
  0
STYLE
  2
KICADB
  70
0
  40
0
  41
1
  42
1
  50
0
  71
0
  3
isocp.shx
  0
STYLE
  2
KICADI
  70
0
  40
0
  41
1
  42
1
  50
15
  71
0
  3
isocp.shx
  0
STYLE
  2
KICADBI
  70
0
  40
0
  41
1
  42
1
  50
15
  71
0
  3
isocp.shx
  0
ENDTAB
  0
TABLE
  2
LAYER
  70
1
  0
LAYER
  2
BLACK
  70
0
  62
7
  6
CONTINUOUS
  0
ENDTAB
  0
ENDSEC
  0
SECTION
  2
ENTITIES
0
LINE
8
BLACK
6
CONTINUOUS
10
2.99038
20
2.19289
11
2.99051
21
2.19291
0
LINE
8
BLACK
6
CONTINUOUS
10
2.99051
20
2.19291
11
2.99063
21
2.19284
0
LINE
8
BLACK
6
CONTINUOUS
10
2.99063
20
2.19284
11
2.99101
21
2.19277
0
LINE
8
BLACK
6
CONTINUOUS
10
2.99101
20
2.19277
11
2.9916
21
2.19228
0
LINE
8
BLACK
6
CONTINUOUS
10
2.9916
20
2.19228
11
2.99226
21
2.1919
0
LINE
8
BLACK
6
CONTINUOUS
10
2.99226
20
2.1919
11
2.99235
21
2.19165
0
LINE
8
BLACK
6
CONTINUOUS
10
2.99235
20
2.19165
11
2.99256
21
2.19148
0
LINE
8
BLACK
6
CONTINUOUS
10
2.99256
20
2.19148
11
2.99269
21
2.19072
0
LINE
8
BLACK
6
CONTINUOUS
10
2.99269
20
2.19072
11
2.99295
21
2.19
0
LINE
8
BLACK
6
CONTINUOUS
10
2.99295
20
2.19
11
2.99295
21
0.21
0
LINE
8
BLACK
6
CONTINUOUS
10
2.99295
20
0.21
11
2.99289
21
0.209617
0
LINE
8
BLACK
6
CONTINUOUS
10
2.99289
20
0.209617
11
2.99291
21
0.209487
0
LINE
8
BLACK
6
CONTINUOUS
10
2.99291
20
0.209487
11
2.99284
21
0.209374
0
LINE
8
BLACK
6
CONTINUOUS
10
2.99284
20
0.209374
11
2.99277
21
0.20899
0
LINE
8
BLACK
6
CONTINUOUS
10
2.99277
20
0.20899
11
2.99228
21
0.208402
0
LINE
8
BLACK
6
CONTINUOUS
10
2.99228
20
0.208402
11
2.9919
21
0.207738
0
LINE
8
BLACK
6
CONTINUOUS
10
2.9919
20
0.207738
11
2.99165
21
0.207647
0
LINE
8
BLACK
6
CONTINUOUS
10
2.99165
20
0.207647
11
2.99148
21
0.207443
0
LINE
8
BLACK
6
CONTINUOUS
10
2.99148
20
0.207443
11
2.99072
21
0.20731
0
LINE
8
BLACK
6
CONTINUOUS
10
2.99072
20
0.20731
11
2.99
21
0.207047
0
LINE
8
BLACK
6
CONTINUOUS
10
2.99
20
0.207047
11
0.21
21
0.207047
0
LINE
8
BLACK
6
CONTINUOUS
10
0.21
20
0.207047
11
0.209616
21
0.207115
0
LINE
8
BLACK
6
CONTINUOUS
10
0.209616
20
0.207115
11
0.209487
21
0.207092
0
LINE
8
BLACK
6
CONTINUOUS
10
0.209487
20
0.207092
11
0.209374
21
0.207158
0
LINE
8
BLACK
6
CONTINUOUS
10
0.209374
20
0.207158
11
0.20899
21
0.207225
0
LINE
8
BLACK
6
CONTINUOUS
10
0.20899
20
0.207225
11
0.208402
21
0.207719
0
LINE
8
BLACK
6
CONTINUOUS
10
0.208402
20
0.207719
11
0.207738
21
0.208102
0
LINE
8
BLACK
6
CONTINUOUS
10
0.207738
20
0.208102
11
0.207647
21
0.208352
0
LINE
8
BLACK
6
CONTINUOUS
10
0.207647
20
0.208352
11
0.207443
21
0.208524
0
LINE
8
BLACK
6
CONTINUOUS
10
0.207443
20
0.208524
11
0.20731
21
0.209279
0
LINE
8
BLACK
6
CONTINUOUS
10
0.20731
20
0.209279
11
0.207047
21
0.21
0
LINE
8
BLACK
6
CONTINUOUS
10
0.207047
20
0.21
11
0.207047
21
2.19
0
LINE
8
BLACK
6
CONTINUOUS
10
0.207047
20
2.19
11
0.207115
21
2.19038
0
LINE
8
BLACK
6
CONTINUOUS
10
0.207115
20
2.19038
11
0.207092
21
2.19051
0
LINE
8
BLACK
6
CONTINUOUS
10
0.207092
20
2.19051
11
0.207158
21
2.19063
0
LINE
8
BLACK
6
CONTINUOUS
10
0.207158
20
2.19063
11
0.207225
21
2.19101
0
LINE
8
BLACK
6
CONTINUOUS
10
0.207225
20
2.19101
11
0.207718
21
2.1916
0
LINE
8
BLACK
6
CONTINUOUS
10
0.207718
20
2.1916
11
0.208102
21
2.19226
0
LINE
8
BLACK
6
CONTINUOUS
10
0.208102
20
2.19226
11
0.208352
21
2.19235
0
LINE
8
BLACK
6
CONTINUOUS
10
0.208352
20
2.19235
11
0.208524
21
2.19256
0
LINE
8
BLACK
6
CONTINUOUS
10
0.208524
20
2.19256
11
0.209279
21
2.19269
0
LINE
8
BLACK
6
CONTINUOUS
10
0.209279
20
2.19269
11
0.21
21
2.19295
0
LINE
8
BLACK
6
CONTINUOUS
10
0.21
20
2.19295
11
2.99
21
2.19295
0
LINE
8
BLACK
6
CONTINUOUS
10
2.99
20
2.19295
11
2.99038
21
2.19289
0
LINE
8
BLACK
6
CONTINUOUS
10
0.212953
20
2.18705
11
0.212953
21
0.212953
0
LINE
8
BLACK
6
CONTINUOUS
10
0.212953
20
0.212953
11
2.98705
21
0.212953
0
LINE
8
BLACK
6
CONTINUOUS
10
2.98705
20
0.212953
11
2.98705
21
2.18705
0
LINE
8
BLACK
6
CONTINUOUS
10
2.98705
20
2.18705
11
0.212953
21
2.18705
  0
ENDSEC
  0
EOF
