  0
SECTION
  2
HEADER
  9
$ANGBASE
  50
0.0
  9
$ANGDIR
  70
1
  9
$MEASUREMENT
  70
0
  0
ENDSEC
  0
SECTION
  2
TABLES
  0
TABLE
  2
LTYPE
  70
4
  0
LTYPE
  5
40F
  2
CONTINUOUS
  70
0
  3
Solid line
  72
65
  73
0
  40
0.0
  0
LTYPE
  5
410
  2
DASHDOT
 70
0
  3
Dash Dot ____ _ ____ _
 72
65
 73
4
 40
2.0
 49
1.25
 49
-0.25
 49
0.25
 49
-0.25
  0
LTYPE
  5
411
  2
DASHED
 70
0
  3
Dashed __ __ __ __ __
 72
65
 73
2
 40
0.75
 49
0.5
 49
-0.25
  0
LTYPE
  5
43B
  2
DOTTED
 70
0
  3
Dotted .  .  .  .
 72
65
 73
2
 40
0.2
 49
0.0
 49
-0.2
  0
ENDTAB
  0
TABLE
  2
STYLE
  70
4
  0
STYLE
  2
KICAD
  70
0
  40
0
  41
1
  42
1
  50
0
  71
0
  3
isocp.shx
  0
STYLE
  2
KICADB
  70
0
  40
0
  41
1
  42
1
  50
0
  71
0
  3
isocp.shx
  0
STYLE
  2
KICADI
  70
0
  40
0
  41
1
  42
1
  50
15
  71
0
  3
isocp.shx
  0
STYLE
  2
KICADBI
  70
0
  40
0
  41
1
  42
1
  50
15
  71
0
  3
isocp.shx
  0
ENDTAB
  0
TABLE
  2
LAYER
  70
1
  0
LAYER
  2
BLACK
  70
0
  62
7
  6
CONTINUOUS
  0
ENDTAB
  0
ENDSEC
  0
SECTION
  2
ENTITIES
0
LINE
8
BLACK
6
CONTINUOUS
10
0.414106
20
0.525192
11
0.428034
21
0.522826
0
LINE
8
BLACK
6
CONTINUOUS
10
0.428034
20
0.522826
11
0.44161
21
0.518914
0
LINE
8
BLACK
6
CONTINUOUS
10
0.44161
20
0.518914
11
0.454663
21
0.513508
0
LINE
8
BLACK
6
CONTINUOUS
10
0.454663
20
0.513508
11
0.467028
21
0.506674
0
LINE
8
BLACK
6
CONTINUOUS
10
0.467028
20
0.506674
11
0.47855
21
0.498498
0
LINE
8
BLACK
6
CONTINUOUS
10
0.47855
20
0.498498
11
0.489084
21
0.489084
0
LINE
8
BLACK
6
CONTINUOUS
10
0.489084
20
0.489084
11
0.498498
21
0.47855
0
LINE
8
BLACK
6
CONTINUOUS
10
0.498498
20
0.47855
11
0.506674
21
0.467028
0
LINE
8
BLACK
6
CONTINUOUS
10
0.506674
20
0.467028
11
0.513508
21
0.454663
0
LINE
8
BLACK
6
CONTINUOUS
10
0.513508
20
0.454663
11
0.518914
21
0.44161
0
LINE
8
BLACK
6
CONTINUOUS
10
0.518914
20
0.44161
11
0.522826
21
0.428034
0
LINE
8
BLACK
6
CONTINUOUS
10
0.522826
20
0.428034
11
0.525192
21
0.414106
0
LINE
8
BLACK
6
CONTINUOUS
10
0.525192
20
0.414106
11
0.525984
21
0.4
0
LINE
8
BLACK
6
CONTINUOUS
10
0.525984
20
0.4
11
0.525192
21
0.385894
0
LINE
8
BLACK
6
CONTINUOUS
10
0.525192
20
0.385894
11
0.522826
21
0.371966
0
LINE
8
BLACK
6
CONTINUOUS
10
0.522826
20
0.371966
11
0.518914
21
0.35839
0
LINE
8
BLACK
6
CONTINUOUS
10
0.518914
20
0.35839
11
0.513508
21
0.345337
0
LINE
8
BLACK
6
CONTINUOUS
10
0.513508
20
0.345337
11
0.506674
21
0.332972
0
LINE
8
BLACK
6
CONTINUOUS
10
0.506674
20
0.332972
11
0.498498
21
0.32145
0
LINE
8
BLACK
6
CONTINUOUS
10
0.498498
20
0.32145
11
0.489084
21
0.310916
0
LINE
8
BLACK
6
CONTINUOUS
10
0.489084
20
0.310916
11
0.47855
21
0.301502
0
LINE
8
BLACK
6
CONTINUOUS
10
0.47855
20
0.301502
11
0.467028
21
0.293326
0
LINE
8
BLACK
6
CONTINUOUS
10
0.467028
20
0.293326
11
0.454663
21
0.286492
0
LINE
8
BLACK
6
CONTINUOUS
10
0.454663
20
0.286492
11
0.44161
21
0.281086
0
LINE
8
BLACK
6
CONTINUOUS
10
0.44161
20
0.281086
11
0.428034
21
0.277174
0
LINE
8
BLACK
6
CONTINUOUS
10
0.428034
20
0.277174
11
0.414106
21
0.274808
0
LINE
8
BLACK
6
CONTINUOUS
10
0.414106
20
0.274808
11
0.4
21
0.274016
0
LINE
8
BLACK
6
CONTINUOUS
10
0.4
20
0.274016
11
0.385894
21
0.274808
0
LINE
8
BLACK
6
CONTINUOUS
10
0.385894
20
0.274808
11
0.371966
21
0.277174
0
LINE
8
BLACK
6
CONTINUOUS
10
0.371966
20
0.277174
11
0.35839
21
0.281086
0
LINE
8
BLACK
6
CONTINUOUS
10
0.35839
20
0.281086
11
0.345337
21
0.286492
0
LINE
8
BLACK
6
CONTINUOUS
10
0.345337
20
0.286492
11
0.332972
21
0.293326
0
LINE
8
BLACK
6
CONTINUOUS
10
0.332972
20
0.293326
11
0.32145
21
0.301502
0
LINE
8
BLACK
6
CONTINUOUS
10
0.32145
20
0.301502
11
0.310916
21
0.310916
0
LINE
8
BLACK
6
CONTINUOUS
10
0.310916
20
0.310916
11
0.301502
21
0.32145
0
LINE
8
BLACK
6
CONTINUOUS
10
0.301502
20
0.32145
11
0.293326
21
0.332972
0
LINE
8
BLACK
6
CONTINUOUS
10
0.293326
20
0.332972
11
0.286492
21
0.345337
0
LINE
8
BLACK
6
CONTINUOUS
10
0.286492
20
0.345337
11
0.281086
21
0.35839
0
LINE
8
BLACK
6
CONTINUOUS
10
0.281086
20
0.35839
11
0.277174
21
0.371966
0
LINE
8
BLACK
6
CONTINUOUS
10
0.277174
20
0.371966
11
0.274808
21
0.385894
0
LINE
8
BLACK
6
CONTINUOUS
10
0.274808
20
0.385894
11
0.274016
21
0.4
0
LINE
8
BLACK
6
CONTINUOUS
10
0.274016
20
0.4
11
0.274808
21
0.414106
0
LINE
8
BLACK
6
CONTINUOUS
10
0.274808
20
0.414106
11
0.277174
21
0.428034
0
LINE
8
BLACK
6
CONTINUOUS
10
0.277174
20
0.428034
11
0.281086
21
0.44161
0
LINE
8
BLACK
6
CONTINUOUS
10
0.281086
20
0.44161
11
0.286492
21
0.454663
0
LINE
8
BLACK
6
CONTINUOUS
10
0.286492
20
0.454663
11
0.293326
21
0.467028
0
LINE
8
BLACK
6
CONTINUOUS
10
0.293326
20
0.467028
11
0.301502
21
0.47855
0
LINE
8
BLACK
6
CONTINUOUS
10
0.301502
20
0.47855
11
0.310916
21
0.489084
0
LINE
8
BLACK
6
CONTINUOUS
10
0.310916
20
0.489084
11
0.32145
21
0.498498
0
LINE
8
BLACK
6
CONTINUOUS
10
0.32145
20
0.498498
11
0.332972
21
0.506674
0
LINE
8
BLACK
6
CONTINUOUS
10
0.332972
20
0.506674
11
0.345337
21
0.513508
0
LINE
8
BLACK
6
CONTINUOUS
10
0.345337
20
0.513508
11
0.35839
21
0.518914
0
LINE
8
BLACK
6
CONTINUOUS
10
0.35839
20
0.518914
11
0.371966
21
0.522826
0
LINE
8
BLACK
6
CONTINUOUS
10
0.371966
20
0.522826
11
0.385894
21
0.525192
0
LINE
8
BLACK
6
CONTINUOUS
10
0.385894
20
0.525192
11
0.4
21
0.525984
0
LINE
8
BLACK
6
CONTINUOUS
10
0.4
20
0.525984
11
0.414106
21
0.525192
0
LINE
8
BLACK
6
CONTINUOUS
10
2.75276
20
1.60922
11
2.75456
21
1.60715
0
LINE
8
BLACK
6
CONTINUOUS
10
2.75456
20
1.60715
11
2.755
21
1.60512
0
LINE
8
BLACK
6
CONTINUOUS
10
2.755
20
1.60512
11
2.755
21
0.51751
0
LINE
8
BLACK
6
CONTINUOUS
10
2.755
20
0.51751
11
2.75839
21
0.518914
0
LINE
8
BLACK
6
CONTINUOUS
10
2.75839
20
0.518914
11
2.77197
21
0.522826
0
LINE
8
BLACK
6
CONTINUOUS
10
2.77197
20
0.522826
11
2.78589
21
0.525192
0
LINE
8
BLACK
6
CONTINUOUS
10
2.78589
20
0.525192
11
2.8
21
0.525984
0
LINE
8
BLACK
6
CONTINUOUS
10
2.8
20
0.525984
11
2.81411
21
0.525192
0
LINE
8
BLACK
6
CONTINUOUS
10
2.81411
20
0.525192
11
2.82803
21
0.522826
0
LINE
8
BLACK
6
CONTINUOUS
10
2.82803
20
0.522826
11
2.84161
21
0.518914
0
LINE
8
BLACK
6
CONTINUOUS
10
2.84161
20
0.518914
11
2.85466
21
0.513508
0
LINE
8
BLACK
6
CONTINUOUS
10
2.85466
20
0.513508
11
2.86703
21
0.506674
0
LINE
8
BLACK
6
CONTINUOUS
10
2.86703
20
0.506674
11
2.87855
21
0.498498
0
LINE
8
BLACK
6
CONTINUOUS
10
2.87855
20
0.498498
11
2.88908
21
0.489084
0
LINE
8
BLACK
6
CONTINUOUS
10
2.88908
20
0.489084
11
2.8985
21
0.47855
0
LINE
8
BLACK
6
CONTINUOUS
10
2.8985
20
0.47855
11
2.90667
21
0.467028
0
LINE
8
BLACK
6
CONTINUOUS
10
2.90667
20
0.467028
11
2.91351
21
0.454663
0
LINE
8
BLACK
6
CONTINUOUS
10
2.91351
20
0.454663
11
2.91891
21
0.44161
0
LINE
8
BLACK
6
CONTINUOUS
10
2.91891
20
0.44161
11
2.92283
21
0.428034
0
LINE
8
BLACK
6
CONTINUOUS
10
2.92283
20
0.428034
11
2.92519
21
0.414106
0
LINE
8
BLACK
6
CONTINUOUS
10
2.92519
20
0.414106
11
2.92598
21
0.4
0
LINE
8
BLACK
6
CONTINUOUS
10
2.92598
20
0.4
11
2.92519
21
0.385894
0
LINE
8
BLACK
6
CONTINUOUS
10
2.92519
20
0.385894
11
2.92283
21
0.371966
0
LINE
8
BLACK
6
CONTINUOUS
10
2.92283
20
0.371966
11
2.91891
21
0.35839
0
LINE
8
BLACK
6
CONTINUOUS
10
2.91891
20
0.35839
11
2.91351
21
0.345337
0
LINE
8
BLACK
6
CONTINUOUS
10
2.91351
20
0.345337
11
2.90667
21
0.332972
0
LINE
8
BLACK
6
CONTINUOUS
10
2.90667
20
0.332972
11
2.8985
21
0.32145
0
LINE
8
BLACK
6
CONTINUOUS
10
2.8985
20
0.32145
11
2.88908
21
0.310916
0
LINE
8
BLACK
6
CONTINUOUS
10
2.88908
20
0.310916
11
2.87855
21
0.301502
0
LINE
8
BLACK
6
CONTINUOUS
10
2.87855
20
0.301502
11
2.86703
21
0.293326
0
LINE
8
BLACK
6
CONTINUOUS
10
2.86703
20
0.293326
11
2.85466
21
0.286492
0
LINE
8
BLACK
6
CONTINUOUS
10
2.85466
20
0.286492
11
2.84161
21
0.281086
0
LINE
8
BLACK
6
CONTINUOUS
10
2.84161
20
0.281086
11
2.82803
21
0.277174
0
LINE
8
BLACK
6
CONTINUOUS
10
2.82803
20
0.277174
11
2.81411
21
0.274808
0
LINE
8
BLACK
6
CONTINUOUS
10
2.81411
20
0.274808
11
2.8
21
0.274016
0
LINE
8
BLACK
6
CONTINUOUS
10
2.8
20
0.274016
11
2.78589
21
0.274808
0
LINE
8
BLACK
6
CONTINUOUS
10
2.78589
20
0.274808
11
2.77197
21
0.277174
0
LINE
8
BLACK
6
CONTINUOUS
10
2.77197
20
0.277174
11
2.75839
21
0.281086
0
LINE
8
BLACK
6
CONTINUOUS
10
2.75839
20
0.281086
11
2.74534
21
0.286492
0
LINE
8
BLACK
6
CONTINUOUS
10
2.74534
20
0.286492
11
2.73297
21
0.293326
0
LINE
8
BLACK
6
CONTINUOUS
10
2.73297
20
0.293326
11
2.72145
21
0.301502
0
LINE
8
BLACK
6
CONTINUOUS
10
2.72145
20
0.301502
11
2.71092
21
0.310916
0
LINE
8
BLACK
6
CONTINUOUS
10
2.71092
20
0.310916
11
2.7015
21
0.32145
0
LINE
8
BLACK
6
CONTINUOUS
10
2.7015
20
0.32145
11
2.69333
21
0.332972
0
LINE
8
BLACK
6
CONTINUOUS
10
2.69333
20
0.332972
11
2.68649
21
0.345337
0
LINE
8
BLACK
6
CONTINUOUS
10
2.68649
20
0.345337
11
2.68109
21
0.35839
0
LINE
8
BLACK
6
CONTINUOUS
10
2.68109
20
0.35839
11
2.67717
21
0.371966
0
LINE
8
BLACK
6
CONTINUOUS
10
2.67717
20
0.371966
11
2.67481
21
0.385894
0
LINE
8
BLACK
6
CONTINUOUS
10
2.67481
20
0.385894
11
2.67402
21
0.4
0
LINE
8
BLACK
6
CONTINUOUS
10
2.67402
20
0.4
11
2.67481
21
0.414106
0
LINE
8
BLACK
6
CONTINUOUS
10
2.67481
20
0.414106
11
2.67581
21
0.42
0
LINE
8
BLACK
6
CONTINUOUS
10
2.67581
20
0.42
11
1.06488
21
0.42
0
LINE
8
BLACK
6
CONTINUOUS
10
1.06488
20
0.42
11
1.06224
21
0.420775
0
LINE
8
BLACK
6
CONTINUOUS
10
1.06224
20
0.420775
11
1.06044
21
0.422854
0
LINE
8
BLACK
6
CONTINUOUS
10
1.06044
20
0.422854
11
1.06
21
0.424882
0
LINE
8
BLACK
6
CONTINUOUS
10
1.06
20
0.424882
11
1.06
21
1.60512
0
LINE
8
BLACK
6
CONTINUOUS
10
1.06
20
1.60512
11
1.06078
21
1.60776
0
LINE
8
BLACK
6
CONTINUOUS
10
1.06078
20
1.60776
11
1.06285
21
1.60956
0
LINE
8
BLACK
6
CONTINUOUS
10
1.06285
20
1.60956
11
1.06488
21
1.61
0
LINE
8
BLACK
6
CONTINUOUS
10
1.06488
20
1.61
11
2.75012
21
1.61
0
LINE
8
BLACK
6
CONTINUOUS
10
2.75012
20
1.61
11
2.75276
21
1.60922
0
LINE
8
BLACK
6
CONTINUOUS
10
0.414106
20
2.12519
11
0.428034
21
2.12283
0
LINE
8
BLACK
6
CONTINUOUS
10
0.428034
20
2.12283
11
0.44161
21
2.11891
0
LINE
8
BLACK
6
CONTINUOUS
10
0.44161
20
2.11891
11
0.454663
21
2.11351
0
LINE
8
BLACK
6
CONTINUOUS
10
0.454663
20
2.11351
11
0.467028
21
2.10667
0
LINE
8
BLACK
6
CONTINUOUS
10
0.467028
20
2.10667
11
0.47855
21
2.0985
0
LINE
8
BLACK
6
CONTINUOUS
10
0.47855
20
2.0985
11
0.489084
21
2.08908
0
LINE
8
BLACK
6
CONTINUOUS
10
0.489084
20
2.08908
11
0.498498
21
2.07855
0
LINE
8
BLACK
6
CONTINUOUS
10
0.498498
20
2.07855
11
0.506674
21
2.06703
0
LINE
8
BLACK
6
CONTINUOUS
10
0.506674
20
2.06703
11
0.513508
21
2.05466
0
LINE
8
BLACK
6
CONTINUOUS
10
0.513508
20
2.05466
11
0.518914
21
2.04161
0
LINE
8
BLACK
6
CONTINUOUS
10
0.518914
20
2.04161
11
0.522826
21
2.02803
0
LINE
8
BLACK
6
CONTINUOUS
10
0.522826
20
2.02803
11
0.525192
21
2.01411
0
LINE
8
BLACK
6
CONTINUOUS
10
0.525192
20
2.01411
11
0.525984
21
2
0
LINE
8
BLACK
6
CONTINUOUS
10
0.525984
20
2
11
0.525192
21
1.98589
0
LINE
8
BLACK
6
CONTINUOUS
10
0.525192
20
1.98589
11
0.522826
21
1.97197
0
LINE
8
BLACK
6
CONTINUOUS
10
0.522826
20
1.97197
11
0.518914
21
1.95839
0
LINE
8
BLACK
6
CONTINUOUS
10
0.518914
20
1.95839
11
0.513508
21
1.94534
0
LINE
8
BLACK
6
CONTINUOUS
10
0.513508
20
1.94534
11
0.506674
21
1.93297
0
LINE
8
BLACK
6
CONTINUOUS
10
0.506674
20
1.93297
11
0.498498
21
1.92145
0
LINE
8
BLACK
6
CONTINUOUS
10
0.498498
20
1.92145
11
0.489084
21
1.91092
0
LINE
8
BLACK
6
CONTINUOUS
10
0.489084
20
1.91092
11
0.47855
21
1.9015
0
LINE
8
BLACK
6
CONTINUOUS
10
0.47855
20
1.9015
11
0.467028
21
1.89333
0
LINE
8
BLACK
6
CONTINUOUS
10
0.467028
20
1.89333
11
0.454663
21
1.88649
0
LINE
8
BLACK
6
CONTINUOUS
10
0.454663
20
1.88649
11
0.44161
21
1.88109
0
LINE
8
BLACK
6
CONTINUOUS
10
0.44161
20
1.88109
11
0.428034
21
1.87717
0
LINE
8
BLACK
6
CONTINUOUS
10
0.428034
20
1.87717
11
0.414106
21
1.87481
0
LINE
8
BLACK
6
CONTINUOUS
10
0.414106
20
1.87481
11
0.4
21
1.87402
0
LINE
8
BLACK
6
CONTINUOUS
10
0.4
20
1.87402
11
0.385894
21
1.87481
0
LINE
8
BLACK
6
CONTINUOUS
10
0.385894
20
1.87481
11
0.371966
21
1.87717
0
LINE
8
BLACK
6
CONTINUOUS
10
0.371966
20
1.87717
11
0.35839
21
1.88109
0
LINE
8
BLACK
6
CONTINUOUS
10
0.35839
20
1.88109
11
0.345337
21
1.88649
0
LINE
8
BLACK
6
CONTINUOUS
10
0.345337
20
1.88649
11
0.332972
21
1.89333
0
LINE
8
BLACK
6
CONTINUOUS
10
0.332972
20
1.89333
11
0.32145
21
1.9015
0
LINE
8
BLACK
6
CONTINUOUS
10
0.32145
20
1.9015
11
0.310916
21
1.91092
0
LINE
8
BLACK
6
CONTINUOUS
10
0.310916
20
1.91092
11
0.301502
21
1.92145
0
LINE
8
BLACK
6
CONTINUOUS
10
0.301502
20
1.92145
11
0.293326
21
1.93297
0
LINE
8
BLACK
6
CONTINUOUS
10
0.293326
20
1.93297
11
0.286492
21
1.94534
0
LINE
8
BLACK
6
CONTINUOUS
10
0.286492
20
1.94534
11
0.281086
21
1.95839
0
LINE
8
BLACK
6
CONTINUOUS
10
0.281086
20
1.95839
11
0.277174
21
1.97197
0
LINE
8
BLACK
6
CONTINUOUS
10
0.277174
20
1.97197
11
0.274808
21
1.98589
0
LINE
8
BLACK
6
CONTINUOUS
10
0.274808
20
1.98589
11
0.274016
21
2
0
LINE
8
BLACK
6
CONTINUOUS
10
0.274016
20
2
11
0.274808
21
2.01411
0
LINE
8
BLACK
6
CONTINUOUS
10
0.274808
20
2.01411
11
0.277174
21
2.02803
0
LINE
8
BLACK
6
CONTINUOUS
10
0.277174
20
2.02803
11
0.281086
21
2.04161
0
LINE
8
BLACK
6
CONTINUOUS
10
0.281086
20
2.04161
11
0.286492
21
2.05466
0
LINE
8
BLACK
6
CONTINUOUS
10
0.286492
20
2.05466
11
0.293326
21
2.06703
0
LINE
8
BLACK
6
CONTINUOUS
10
0.293326
20
2.06703
11
0.301502
21
2.07855
0
LINE
8
BLACK
6
CONTINUOUS
10
0.301502
20
2.07855
11
0.310916
21
2.08908
0
LINE
8
BLACK
6
CONTINUOUS
10
0.310916
20
2.08908
11
0.32145
21
2.0985
0
LINE
8
BLACK
6
CONTINUOUS
10
0.32145
20
2.0985
11
0.332972
21
2.10667
0
LINE
8
BLACK
6
CONTINUOUS
10
0.332972
20
2.10667
11
0.345337
21
2.11351
0
LINE
8
BLACK
6
CONTINUOUS
10
0.345337
20
2.11351
11
0.35839
21
2.11891
0
LINE
8
BLACK
6
CONTINUOUS
10
0.35839
20
2.11891
11
0.371966
21
2.12283
0
LINE
8
BLACK
6
CONTINUOUS
10
0.371966
20
2.12283
11
0.385894
21
2.12519
0
LINE
8
BLACK
6
CONTINUOUS
10
0.385894
20
2.12519
11
0.4
21
2.12598
0
LINE
8
BLACK
6
CONTINUOUS
10
0.4
20
2.12598
11
0.414106
21
2.12519
0
LINE
8
BLACK
6
CONTINUOUS
10
2.81411
20
2.12519
11
2.82803
21
2.12283
0
LINE
8
BLACK
6
CONTINUOUS
10
2.82803
20
2.12283
11
2.84161
21
2.11891
0
LINE
8
BLACK
6
CONTINUOUS
10
2.84161
20
2.11891
11
2.85466
21
2.11351
0
LINE
8
BLACK
6
CONTINUOUS
10
2.85466
20
2.11351
11
2.86703
21
2.10667
0
LINE
8
BLACK
6
CONTINUOUS
10
2.86703
20
2.10667
11
2.87855
21
2.0985
0
LINE
8
BLACK
6
CONTINUOUS
10
2.87855
20
2.0985
11
2.88908
21
2.08908
0
LINE
8
BLACK
6
CONTINUOUS
10
2.88908
20
2.08908
11
2.8985
21
2.07855
0
LINE
8
BLACK
6
CONTINUOUS
10
2.8985
20
2.07855
11
2.90667
21
2.06703
0
LINE
8
BLACK
6
CONTINUOUS
10
2.90667
20
2.06703
11
2.91351
21
2.05466
0
LINE
8
BLACK
6
CONTINUOUS
10
2.91351
20
2.05466
11
2.91891
21
2.04161
0
LINE
8
BLACK
6
CONTINUOUS
10
2.91891
20
2.04161
11
2.92283
21
2.02803
0
LINE
8
BLACK
6
CONTINUOUS
10
2.92283
20
2.02803
11
2.92519
21
2.01411
0
LINE
8
BLACK
6
CONTINUOUS
10
2.92519
20
2.01411
11
2.92598
21
2
0
LINE
8
BLACK
6
CONTINUOUS
10
2.92598
20
2
11
2.92519
21
1.98589
0
LINE
8
BLACK
6
CONTINUOUS
10
2.92519
20
1.98589
11
2.92283
21
1.97197
0
LINE
8
BLACK
6
CONTINUOUS
10
2.92283
20
1.97197
11
2.91891
21
1.95839
0
LINE
8
BLACK
6
CONTINUOUS
10
2.91891
20
1.95839
11
2.91351
21
1.94534
0
LINE
8
BLACK
6
CONTINUOUS
10
2.91351
20
1.94534
11
2.90667
21
1.93297
0
LINE
8
BLACK
6
CONTINUOUS
10
2.90667
20
1.93297
11
2.8985
21
1.92145
0
LINE
8
BLACK
6
CONTINUOUS
10
2.8985
20
1.92145
11
2.88908
21
1.91092
0
LINE
8
BLACK
6
CONTINUOUS
10
2.88908
20
1.91092
11
2.87855
21
1.9015
0
LINE
8
BLACK
6
CONTINUOUS
10
2.87855
20
1.9015
11
2.86703
21
1.89333
0
LINE
8
BLACK
6
CONTINUOUS
10
2.86703
20
1.89333
11
2.85466
21
1.88649
0
LINE
8
BLACK
6
CONTINUOUS
10
2.85466
20
1.88649
11
2.84161
21
1.88109
0
LINE
8
BLACK
6
CONTINUOUS
10
2.84161
20
1.88109
11
2.82803
21
1.87717
0
LINE
8
BLACK
6
CONTINUOUS
10
2.82803
20
1.87717
11
2.81411
21
1.87481
0
LINE
8
BLACK
6
CONTINUOUS
10
2.81411
20
1.87481
11
2.8
21
1.87402
0
LINE
8
BLACK
6
CONTINUOUS
10
2.8
20
1.87402
11
2.78589
21
1.87481
0
LINE
8
BLACK
6
CONTINUOUS
10
2.78589
20
1.87481
11
2.77197
21
1.87717
0
LINE
8
BLACK
6
CONTINUOUS
10
2.77197
20
1.87717
11
2.75839
21
1.88109
0
LINE
8
BLACK
6
CONTINUOUS
10
2.75839
20
1.88109
11
2.74534
21
1.88649
0
LINE
8
BLACK
6
CONTINUOUS
10
2.74534
20
1.88649
11
2.73297
21
1.89333
0
LINE
8
BLACK
6
CONTINUOUS
10
2.73297
20
1.89333
11
2.72145
21
1.9015
0
LINE
8
BLACK
6
CONTINUOUS
10
2.72145
20
1.9015
11
2.71092
21
1.91092
0
LINE
8
BLACK
6
CONTINUOUS
10
2.71092
20
1.91092
11
2.7015
21
1.92145
0
LINE
8
BLACK
6
CONTINUOUS
10
2.7015
20
1.92145
11
2.69333
21
1.93297
0
LINE
8
BLACK
6
CONTINUOUS
10
2.69333
20
1.93297
11
2.68649
21
1.94534
0
LINE
8
BLACK
6
CONTINUOUS
10
2.68649
20
1.94534
11
2.68109
21
1.95839
0
LINE
8
BLACK
6
CONTINUOUS
10
2.68109
20
1.95839
11
2.67717
21
1.97197
0
LINE
8
BLACK
6
CONTINUOUS
10
2.67717
20
1.97197
11
2.67481
21
1.98589
0
LINE
8
BLACK
6
CONTINUOUS
10
2.67481
20
1.98589
11
2.67402
21
2
0
LINE
8
BLACK
6
CONTINUOUS
10
2.67402
20
2
11
2.67481
21
2.01411
0
LINE
8
BLACK
6
CONTINUOUS
10
2.67481
20
2.01411
11
2.67717
21
2.02803
0
LINE
8
BLACK
6
CONTINUOUS
10
2.67717
20
2.02803
11
2.68109
21
2.04161
0
LINE
8
BLACK
6
CONTINUOUS
10
2.68109
20
2.04161
11
2.68649
21
2.05466
0
LINE
8
BLACK
6
CONTINUOUS
10
2.68649
20
2.05466
11
2.69333
21
2.06703
0
LINE
8
BLACK
6
CONTINUOUS
10
2.69333
20
2.06703
11
2.7015
21
2.07855
0
LINE
8
BLACK
6
CONTINUOUS
10
2.7015
20
2.07855
11
2.71092
21
2.08908
0
LINE
8
BLACK
6
CONTINUOUS
10
2.71092
20
2.08908
11
2.72145
21
2.0985
0
LINE
8
BLACK
6
CONTINUOUS
10
2.72145
20
2.0985
11
2.73297
21
2.10667
0
LINE
8
BLACK
6
CONTINUOUS
10
2.73297
20
2.10667
11
2.74534
21
2.11351
0
LINE
8
BLACK
6
CONTINUOUS
10
2.74534
20
2.11351
11
2.75839
21
2.11891
0
LINE
8
BLACK
6
CONTINUOUS
10
2.75839
20
2.11891
11
2.77197
21
2.12283
0
LINE
8
BLACK
6
CONTINUOUS
10
2.77197
20
2.12283
11
2.78589
21
2.12519
0
LINE
8
BLACK
6
CONTINUOUS
10
2.78589
20
2.12519
11
2.8
21
2.12598
0
LINE
8
BLACK
6
CONTINUOUS
10
2.8
20
2.12598
11
2.81411
21
2.12519
0
LINE
8
BLACK
6
CONTINUOUS
10
0.933013
20
2.03727
11
0.935568
21
2.03557
0
LINE
8
BLACK
6
CONTINUOUS
10
0.935568
20
2.03557
11
0.937275
21
2.03301
0
LINE
8
BLACK
6
CONTINUOUS
10
0.937275
20
2.03301
11
0.937874
21
2.03
0
LINE
8
BLACK
6
CONTINUOUS
10
0.937874
20
2.03
11
0.937874
21
1.97
0
LINE
8
BLACK
6
CONTINUOUS
10
0.937874
20
1.97
11
0.937275
21
1.96699
0
LINE
8
BLACK
6
CONTINUOUS
10
0.937275
20
1.96699
11
0.935568
21
1.96443
0
LINE
8
BLACK
6
CONTINUOUS
10
0.935568
20
1.96443
11
0.933013
21
1.96273
0
LINE
8
BLACK
6
CONTINUOUS
10
0.933013
20
1.96273
11
0.93
21
1.96213
0
LINE
8
BLACK
6
CONTINUOUS
10
0.93
20
1.96213
11
0.87
21
1.96213
0
LINE
8
BLACK
6
CONTINUOUS
10
0.87
20
1.96213
11
0.866987
21
1.96273
0
LINE
8
BLACK
6
CONTINUOUS
10
0.866987
20
1.96273
11
0.864432
21
1.96443
0
LINE
8
BLACK
6
CONTINUOUS
10
0.864432
20
1.96443
11
0.862725
21
1.96699
0
LINE
8
BLACK
6
CONTINUOUS
10
0.862725
20
1.96699
11
0.862126
21
1.97
0
LINE
8
BLACK
6
CONTINUOUS
10
0.862126
20
1.97
11
0.862126
21
2.03
0
LINE
8
BLACK
6
CONTINUOUS
10
0.862126
20
2.03
11
0.862725
21
2.03301
0
LINE
8
BLACK
6
CONTINUOUS
10
0.862725
20
2.03301
11
0.864432
21
2.03557
0
LINE
8
BLACK
6
CONTINUOUS
10
0.864432
20
2.03557
11
0.866987
21
2.03727
0
LINE
8
BLACK
6
CONTINUOUS
10
0.866987
20
2.03727
11
0.87
21
2.03787
0
LINE
8
BLACK
6
CONTINUOUS
10
0.87
20
2.03787
11
0.93
21
2.03787
0
LINE
8
BLACK
6
CONTINUOUS
10
0.93
20
2.03787
11
0.933013
21
2.03727
0
LINE
8
BLACK
6
CONTINUOUS
10
1.03301
20
2.03727
11
1.03557
21
2.03557
0
LINE
8
BLACK
6
CONTINUOUS
10
1.03557
20
2.03557
11
1.03727
21
2.03301
0
LINE
8
BLACK
6
CONTINUOUS
10
1.03727
20
2.03301
11
1.03787
21
2.03
0
LINE
8
BLACK
6
CONTINUOUS
10
1.03787
20
2.03
11
1.03787
21
1.97
0
LINE
8
BLACK
6
CONTINUOUS
10
1.03787
20
1.97
11
1.03727
21
1.96699
0
LINE
8
BLACK
6
CONTINUOUS
10
1.03727
20
1.96699
11
1.03557
21
1.96443
0
LINE
8
BLACK
6
CONTINUOUS
10
1.03557
20
1.96443
11
1.03301
21
1.96273
0
LINE
8
BLACK
6
CONTINUOUS
10
1.03301
20
1.96273
11
1.03
21
1.96213
0
LINE
8
BLACK
6
CONTINUOUS
10
1.03
20
1.96213
11
0.97
21
1.96213
0
LINE
8
BLACK
6
CONTINUOUS
10
0.97
20
1.96213
11
0.966987
21
1.96273
0
LINE
8
BLACK
6
CONTINUOUS
10
0.966987
20
1.96273
11
0.964432
21
1.96443
0
LINE
8
BLACK
6
CONTINUOUS
10
0.964432
20
1.96443
11
0.962725
21
1.96699
0
LINE
8
BLACK
6
CONTINUOUS
10
0.962725
20
1.96699
11
0.962126
21
1.97
0
LINE
8
BLACK
6
CONTINUOUS
10
0.962126
20
1.97
11
0.962126
21
2.03
0
LINE
8
BLACK
6
CONTINUOUS
10
0.962126
20
2.03
11
0.962725
21
2.03301
0
LINE
8
BLACK
6
CONTINUOUS
10
0.962725
20
2.03301
11
0.964432
21
2.03557
0
LINE
8
BLACK
6
CONTINUOUS
10
0.964432
20
2.03557
11
0.966987
21
2.03727
0
LINE
8
BLACK
6
CONTINUOUS
10
0.966987
20
2.03727
11
0.97
21
2.03787
0
LINE
8
BLACK
6
CONTINUOUS
10
0.97
20
2.03787
11
1.03
21
2.03787
0
LINE
8
BLACK
6
CONTINUOUS
10
1.03
20
2.03787
11
1.03301
21
2.03727
0
LINE
8
BLACK
6
CONTINUOUS
10
1.13301
20
2.03727
11
1.13557
21
2.03557
0
LINE
8
BLACK
6
CONTINUOUS
10
1.13557
20
2.03557
11
1.13727
21
2.03301
0
LINE
8
BLACK
6
CONTINUOUS
10
1.13727
20
2.03301
11
1.13787
21
2.03
0
LINE
8
BLACK
6
CONTINUOUS
10
1.13787
20
2.03
11
1.13787
21
1.97
0
LINE
8
BLACK
6
CONTINUOUS
10
1.13787
20
1.97
11
1.13727
21
1.96699
0
LINE
8
BLACK
6
CONTINUOUS
10
1.13727
20
1.96699
11
1.13557
21
1.96443
0
LINE
8
BLACK
6
CONTINUOUS
10
1.13557
20
1.96443
11
1.13301
21
1.96273
0
LINE
8
BLACK
6
CONTINUOUS
10
1.13301
20
1.96273
11
1.13
21
1.96213
0
LINE
8
BLACK
6
CONTINUOUS
10
1.13
20
1.96213
11
1.07
21
1.96213
0
LINE
8
BLACK
6
CONTINUOUS
10
1.07
20
1.96213
11
1.06699
21
1.96273
0
LINE
8
BLACK
6
CONTINUOUS
10
1.06699
20
1.96273
11
1.06443
21
1.96443
0
LINE
8
BLACK
6
CONTINUOUS
10
1.06443
20
1.96443
11
1.06273
21
1.96699
0
LINE
8
BLACK
6
CONTINUOUS
10
1.06273
20
1.96699
11
1.06213
21
1.97
0
LINE
8
BLACK
6
CONTINUOUS
10
1.06213
20
1.97
11
1.06213
21
2.03
0
LINE
8
BLACK
6
CONTINUOUS
10
1.06213
20
2.03
11
1.06273
21
2.03301
0
LINE
8
BLACK
6
CONTINUOUS
10
1.06273
20
2.03301
11
1.06443
21
2.03557
0
LINE
8
BLACK
6
CONTINUOUS
10
1.06443
20
2.03557
11
1.06699
21
2.03727
0
LINE
8
BLACK
6
CONTINUOUS
10
1.06699
20
2.03727
11
1.07
21
2.03787
0
LINE
8
BLACK
6
CONTINUOUS
10
1.07
20
2.03787
11
1.13
21
2.03787
0
LINE
8
BLACK
6
CONTINUOUS
10
1.13
20
2.03787
11
1.13301
21
2.03727
0
LINE
8
BLACK
6
CONTINUOUS
10
1.23301
20
2.03727
11
1.23557
21
2.03557
0
LINE
8
BLACK
6
CONTINUOUS
10
1.23557
20
2.03557
11
1.23727
21
2.03301
0
LINE
8
BLACK
6
CONTINUOUS
10
1.23727
20
2.03301
11
1.23787
21
2.03
0
LINE
8
BLACK
6
CONTINUOUS
10
1.23787
20
2.03
11
1.23787
21
1.97
0
LINE
8
BLACK
6
CONTINUOUS
10
1.23787
20
1.97
11
1.23727
21
1.96699
0
LINE
8
BLACK
6
CONTINUOUS
10
1.23727
20
1.96699
11
1.23557
21
1.96443
0
LINE
8
BLACK
6
CONTINUOUS
10
1.23557
20
1.96443
11
1.23301
21
1.96273
0
LINE
8
BLACK
6
CONTINUOUS
10
1.23301
20
1.96273
11
1.23
21
1.96213
0
LINE
8
BLACK
6
CONTINUOUS
10
1.23
20
1.96213
11
1.17
21
1.96213
0
LINE
8
BLACK
6
CONTINUOUS
10
1.17
20
1.96213
11
1.16699
21
1.96273
0
LINE
8
BLACK
6
CONTINUOUS
10
1.16699
20
1.96273
11
1.16443
21
1.96443
0
LINE
8
BLACK
6
CONTINUOUS
10
1.16443
20
1.96443
11
1.16273
21
1.96699
0
LINE
8
BLACK
6
CONTINUOUS
10
1.16273
20
1.96699
11
1.16213
21
1.97
0
LINE
8
BLACK
6
CONTINUOUS
10
1.16213
20
1.97
11
1.16213
21
2.03
0
LINE
8
BLACK
6
CONTINUOUS
10
1.16213
20
2.03
11
1.16273
21
2.03301
0
LINE
8
BLACK
6
CONTINUOUS
10
1.16273
20
2.03301
11
1.16443
21
2.03557
0
LINE
8
BLACK
6
CONTINUOUS
10
1.16443
20
2.03557
11
1.16699
21
2.03727
0
LINE
8
BLACK
6
CONTINUOUS
10
1.16699
20
2.03727
11
1.17
21
2.03787
0
LINE
8
BLACK
6
CONTINUOUS
10
1.17
20
2.03787
11
1.23
21
2.03787
0
LINE
8
BLACK
6
CONTINUOUS
10
1.23
20
2.03787
11
1.23301
21
2.03727
0
LINE
8
BLACK
6
CONTINUOUS
10
1.33301
20
2.03727
11
1.33557
21
2.03557
0
LINE
8
BLACK
6
CONTINUOUS
10
1.33557
20
2.03557
11
1.33727
21
2.03301
0
LINE
8
BLACK
6
CONTINUOUS
10
1.33727
20
2.03301
11
1.33787
21
2.03
0
LINE
8
BLACK
6
CONTINUOUS
10
1.33787
20
2.03
11
1.33787
21
1.97
0
LINE
8
BLACK
6
CONTINUOUS
10
1.33787
20
1.97
11
1.33727
21
1.96699
0
LINE
8
BLACK
6
CONTINUOUS
10
1.33727
20
1.96699
11
1.33557
21
1.96443
0
LINE
8
BLACK
6
CONTINUOUS
10
1.33557
20
1.96443
11
1.33301
21
1.96273
0
LINE
8
BLACK
6
CONTINUOUS
10
1.33301
20
1.96273
11
1.33
21
1.96213
0
LINE
8
BLACK
6
CONTINUOUS
10
1.33
20
1.96213
11
1.27
21
1.96213
0
LINE
8
BLACK
6
CONTINUOUS
10
1.27
20
1.96213
11
1.26699
21
1.96273
0
LINE
8
BLACK
6
CONTINUOUS
10
1.26699
20
1.96273
11
1.26443
21
1.96443
0
LINE
8
BLACK
6
CONTINUOUS
10
1.26443
20
1.96443
11
1.26273
21
1.96699
0
LINE
8
BLACK
6
CONTINUOUS
10
1.26273
20
1.96699
11
1.26213
21
1.97
0
LINE
8
BLACK
6
CONTINUOUS
10
1.26213
20
1.97
11
1.26213
21
2.03
0
LINE
8
BLACK
6
CONTINUOUS
10
1.26213
20
2.03
11
1.26273
21
2.03301
0
LINE
8
BLACK
6
CONTINUOUS
10
1.26273
20
2.03301
11
1.26443
21
2.03557
0
LINE
8
BLACK
6
CONTINUOUS
10
1.26443
20
2.03557
11
1.26699
21
2.03727
0
LINE
8
BLACK
6
CONTINUOUS
10
1.26699
20
2.03727
11
1.27
21
2.03787
0
LINE
8
BLACK
6
CONTINUOUS
10
1.27
20
2.03787
11
1.33
21
2.03787
0
LINE
8
BLACK
6
CONTINUOUS
10
1.33
20
2.03787
11
1.33301
21
2.03727
0
LINE
8
BLACK
6
CONTINUOUS
10
1.43301
20
2.03727
11
1.43557
21
2.03557
0
LINE
8
BLACK
6
CONTINUOUS
10
1.43557
20
2.03557
11
1.43727
21
2.03301
0
LINE
8
BLACK
6
CONTINUOUS
10
1.43727
20
2.03301
11
1.43787
21
2.03
0
LINE
8
BLACK
6
CONTINUOUS
10
1.43787
20
2.03
11
1.43787
21
1.97
0
LINE
8
BLACK
6
CONTINUOUS
10
1.43787
20
1.97
11
1.43727
21
1.96699
0
LINE
8
BLACK
6
CONTINUOUS
10
1.43727
20
1.96699
11
1.43557
21
1.96443
0
LINE
8
BLACK
6
CONTINUOUS
10
1.43557
20
1.96443
11
1.43301
21
1.96273
0
LINE
8
BLACK
6
CONTINUOUS
10
1.43301
20
1.96273
11
1.43
21
1.96213
0
LINE
8
BLACK
6
CONTINUOUS
10
1.43
20
1.96213
11
1.37
21
1.96213
0
LINE
8
BLACK
6
CONTINUOUS
10
1.37
20
1.96213
11
1.36699
21
1.96273
0
LINE
8
BLACK
6
CONTINUOUS
10
1.36699
20
1.96273
11
1.36443
21
1.96443
0
LINE
8
BLACK
6
CONTINUOUS
10
1.36443
20
1.96443
11
1.36273
21
1.96699
0
LINE
8
BLACK
6
CONTINUOUS
10
1.36273
20
1.96699
11
1.36213
21
1.97
0
LINE
8
BLACK
6
CONTINUOUS
10
1.36213
20
1.97
11
1.36213
21
2.03
0
LINE
8
BLACK
6
CONTINUOUS
10
1.36213
20
2.03
11
1.36273
21
2.03301
0
LINE
8
BLACK
6
CONTINUOUS
10
1.36273
20
2.03301
11
1.36443
21
2.03557
0
LINE
8
BLACK
6
CONTINUOUS
10
1.36443
20
2.03557
11
1.36699
21
2.03727
0
LINE
8
BLACK
6
CONTINUOUS
10
1.36699
20
2.03727
11
1.37
21
2.03787
0
LINE
8
BLACK
6
CONTINUOUS
10
1.37
20
2.03787
11
1.43
21
2.03787
0
LINE
8
BLACK
6
CONTINUOUS
10
1.43
20
2.03787
11
1.43301
21
2.03727
0
LINE
8
BLACK
6
CONTINUOUS
10
1.53301
20
2.03727
11
1.53557
21
2.03557
0
LINE
8
BLACK
6
CONTINUOUS
10
1.53557
20
2.03557
11
1.53727
21
2.03301
0
LINE
8
BLACK
6
CONTINUOUS
10
1.53727
20
2.03301
11
1.53787
21
2.03
0
LINE
8
BLACK
6
CONTINUOUS
10
1.53787
20
2.03
11
1.53787
21
1.97
0
LINE
8
BLACK
6
CONTINUOUS
10
1.53787
20
1.97
11
1.53727
21
1.96699
0
LINE
8
BLACK
6
CONTINUOUS
10
1.53727
20
1.96699
11
1.53557
21
1.96443
0
LINE
8
BLACK
6
CONTINUOUS
10
1.53557
20
1.96443
11
1.53301
21
1.96273
0
LINE
8
BLACK
6
CONTINUOUS
10
1.53301
20
1.96273
11
1.53
21
1.96213
0
LINE
8
BLACK
6
CONTINUOUS
10
1.53
20
1.96213
11
1.47
21
1.96213
0
LINE
8
BLACK
6
CONTINUOUS
10
1.47
20
1.96213
11
1.46699
21
1.96273
0
LINE
8
BLACK
6
CONTINUOUS
10
1.46699
20
1.96273
11
1.46443
21
1.96443
0
LINE
8
BLACK
6
CONTINUOUS
10
1.46443
20
1.96443
11
1.46273
21
1.96699
0
LINE
8
BLACK
6
CONTINUOUS
10
1.46273
20
1.96699
11
1.46213
21
1.97
0
LINE
8
BLACK
6
CONTINUOUS
10
1.46213
20
1.97
11
1.46213
21
2.03
0
LINE
8
BLACK
6
CONTINUOUS
10
1.46213
20
2.03
11
1.46273
21
2.03301
0
LINE
8
BLACK
6
CONTINUOUS
10
1.46273
20
2.03301
11
1.46443
21
2.03557
0
LINE
8
BLACK
6
CONTINUOUS
10
1.46443
20
2.03557
11
1.46699
21
2.03727
0
LINE
8
BLACK
6
CONTINUOUS
10
1.46699
20
2.03727
11
1.47
21
2.03787
0
LINE
8
BLACK
6
CONTINUOUS
10
1.47
20
2.03787
11
1.53
21
2.03787
0
LINE
8
BLACK
6
CONTINUOUS
10
1.53
20
2.03787
11
1.53301
21
2.03727
0
LINE
8
BLACK
6
CONTINUOUS
10
1.63301
20
2.03727
11
1.63557
21
2.03557
0
LINE
8
BLACK
6
CONTINUOUS
10
1.63557
20
2.03557
11
1.63727
21
2.03301
0
LINE
8
BLACK
6
CONTINUOUS
10
1.63727
20
2.03301
11
1.63787
21
2.03
0
LINE
8
BLACK
6
CONTINUOUS
10
1.63787
20
2.03
11
1.63787
21
1.97
0
LINE
8
BLACK
6
CONTINUOUS
10
1.63787
20
1.97
11
1.63727
21
1.96699
0
LINE
8
BLACK
6
CONTINUOUS
10
1.63727
20
1.96699
11
1.63557
21
1.96443
0
LINE
8
BLACK
6
CONTINUOUS
10
1.63557
20
1.96443
11
1.63301
21
1.96273
0
LINE
8
BLACK
6
CONTINUOUS
10
1.63301
20
1.96273
11
1.63
21
1.96213
0
LINE
8
BLACK
6
CONTINUOUS
10
1.63
20
1.96213
11
1.57
21
1.96213
0
LINE
8
BLACK
6
CONTINUOUS
10
1.57
20
1.96213
11
1.56699
21
1.96273
0
LINE
8
BLACK
6
CONTINUOUS
10
1.56699
20
1.96273
11
1.56443
21
1.96443
0
LINE
8
BLACK
6
CONTINUOUS
10
1.56443
20
1.96443
11
1.56273
21
1.96699
0
LINE
8
BLACK
6
CONTINUOUS
10
1.56273
20
1.96699
11
1.56213
21
1.97
0
LINE
8
BLACK
6
CONTINUOUS
10
1.56213
20
1.97
11
1.56213
21
2.03
0
LINE
8
BLACK
6
CONTINUOUS
10
1.56213
20
2.03
11
1.56273
21
2.03301
0
LINE
8
BLACK
6
CONTINUOUS
10
1.56273
20
2.03301
11
1.56443
21
2.03557
0
LINE
8
BLACK
6
CONTINUOUS
10
1.56443
20
2.03557
11
1.56699
21
2.03727
0
LINE
8
BLACK
6
CONTINUOUS
10
1.56699
20
2.03727
11
1.57
21
2.03787
0
LINE
8
BLACK
6
CONTINUOUS
10
1.57
20
2.03787
11
1.63
21
2.03787
0
LINE
8
BLACK
6
CONTINUOUS
10
1.63
20
2.03787
11
1.63301
21
2.03727
0
LINE
8
BLACK
6
CONTINUOUS
10
1.73301
20
2.03727
11
1.73557
21
2.03557
0
LINE
8
BLACK
6
CONTINUOUS
10
1.73557
20
2.03557
11
1.73727
21
2.03301
0
LINE
8
BLACK
6
CONTINUOUS
10
1.73727
20
2.03301
11
1.73787
21
2.03
0
LINE
8
BLACK
6
CONTINUOUS
10
1.73787
20
2.03
11
1.73787
21
1.97
0
LINE
8
BLACK
6
CONTINUOUS
10
1.73787
20
1.97
11
1.73727
21
1.96699
0
LINE
8
BLACK
6
CONTINUOUS
10
1.73727
20
1.96699
11
1.73557
21
1.96443
0
LINE
8
BLACK
6
CONTINUOUS
10
1.73557
20
1.96443
11
1.73301
21
1.96273
0
LINE
8
BLACK
6
CONTINUOUS
10
1.73301
20
1.96273
11
1.73
21
1.96213
0
LINE
8
BLACK
6
CONTINUOUS
10
1.73
20
1.96213
11
1.67
21
1.96213
0
LINE
8
BLACK
6
CONTINUOUS
10
1.67
20
1.96213
11
1.66699
21
1.96273
0
LINE
8
BLACK
6
CONTINUOUS
10
1.66699
20
1.96273
11
1.66443
21
1.96443
0
LINE
8
BLACK
6
CONTINUOUS
10
1.66443
20
1.96443
11
1.66273
21
1.96699
0
LINE
8
BLACK
6
CONTINUOUS
10
1.66273
20
1.96699
11
1.66213
21
1.97
0
LINE
8
BLACK
6
CONTINUOUS
10
1.66213
20
1.97
11
1.66213
21
2.03
0
LINE
8
BLACK
6
CONTINUOUS
10
1.66213
20
2.03
11
1.66273
21
2.03301
0
LINE
8
BLACK
6
CONTINUOUS
10
1.66273
20
2.03301
11
1.66443
21
2.03557
0
LINE
8
BLACK
6
CONTINUOUS
10
1.66443
20
2.03557
11
1.66699
21
2.03727
0
LINE
8
BLACK
6
CONTINUOUS
10
1.66699
20
2.03727
11
1.67
21
2.03787
0
LINE
8
BLACK
6
CONTINUOUS
10
1.67
20
2.03787
11
1.73
21
2.03787
0
LINE
8
BLACK
6
CONTINUOUS
10
1.73
20
2.03787
11
1.73301
21
2.03727
0
LINE
8
BLACK
6
CONTINUOUS
10
1.83301
20
2.03727
11
1.83557
21
2.03557
0
LINE
8
BLACK
6
CONTINUOUS
10
1.83557
20
2.03557
11
1.83727
21
2.03301
0
LINE
8
BLACK
6
CONTINUOUS
10
1.83727
20
2.03301
11
1.83787
21
2.03
0
LINE
8
BLACK
6
CONTINUOUS
10
1.83787
20
2.03
11
1.83787
21
1.97
0
LINE
8
BLACK
6
CONTINUOUS
10
1.83787
20
1.97
11
1.83727
21
1.96699
0
LINE
8
BLACK
6
CONTINUOUS
10
1.83727
20
1.96699
11
1.83557
21
1.96443
0
LINE
8
BLACK
6
CONTINUOUS
10
1.83557
20
1.96443
11
1.83301
21
1.96273
0
LINE
8
BLACK
6
CONTINUOUS
10
1.83301
20
1.96273
11
1.83
21
1.96213
0
LINE
8
BLACK
6
CONTINUOUS
10
1.83
20
1.96213
11
1.77
21
1.96213
0
LINE
8
BLACK
6
CONTINUOUS
10
1.77
20
1.96213
11
1.76699
21
1.96273
0
LINE
8
BLACK
6
CONTINUOUS
10
1.76699
20
1.96273
11
1.76443
21
1.96443
0
LINE
8
BLACK
6
CONTINUOUS
10
1.76443
20
1.96443
11
1.76273
21
1.96699
0
LINE
8
BLACK
6
CONTINUOUS
10
1.76273
20
1.96699
11
1.76213
21
1.97
0
LINE
8
BLACK
6
CONTINUOUS
10
1.76213
20
1.97
11
1.76213
21
2.03
0
LINE
8
BLACK
6
CONTINUOUS
10
1.76213
20
2.03
11
1.76273
21
2.03301
0
LINE
8
BLACK
6
CONTINUOUS
10
1.76273
20
2.03301
11
1.76443
21
2.03557
0
LINE
8
BLACK
6
CONTINUOUS
10
1.76443
20
2.03557
11
1.76699
21
2.03727
0
LINE
8
BLACK
6
CONTINUOUS
10
1.76699
20
2.03727
11
1.77
21
2.03787
0
LINE
8
BLACK
6
CONTINUOUS
10
1.77
20
2.03787
11
1.83
21
2.03787
0
LINE
8
BLACK
6
CONTINUOUS
10
1.83
20
2.03787
11
1.83301
21
2.03727
0
LINE
8
BLACK
6
CONTINUOUS
10
1.93301
20
2.03727
11
1.93557
21
2.03557
0
LINE
8
BLACK
6
CONTINUOUS
10
1.93557
20
2.03557
11
1.93727
21
2.03301
0
LINE
8
BLACK
6
CONTINUOUS
10
1.93727
20
2.03301
11
1.93787
21
2.03
0
LINE
8
BLACK
6
CONTINUOUS
10
1.93787
20
2.03
11
1.93787
21
1.97
0
LINE
8
BLACK
6
CONTINUOUS
10
1.93787
20
1.97
11
1.93727
21
1.96699
0
LINE
8
BLACK
6
CONTINUOUS
10
1.93727
20
1.96699
11
1.93557
21
1.96443
0
LINE
8
BLACK
6
CONTINUOUS
10
1.93557
20
1.96443
11
1.93301
21
1.96273
0
LINE
8
BLACK
6
CONTINUOUS
10
1.93301
20
1.96273
11
1.93
21
1.96213
0
LINE
8
BLACK
6
CONTINUOUS
10
1.93
20
1.96213
11
1.87
21
1.96213
0
LINE
8
BLACK
6
CONTINUOUS
10
1.87
20
1.96213
11
1.86699
21
1.96273
0
LINE
8
BLACK
6
CONTINUOUS
10
1.86699
20
1.96273
11
1.86443
21
1.96443
0
LINE
8
BLACK
6
CONTINUOUS
10
1.86443
20
1.96443
11
1.86273
21
1.96699
0
LINE
8
BLACK
6
CONTINUOUS
10
1.86273
20
1.96699
11
1.86213
21
1.97
0
LINE
8
BLACK
6
CONTINUOUS
10
1.86213
20
1.97
11
1.86213
21
2.03
0
LINE
8
BLACK
6
CONTINUOUS
10
1.86213
20
2.03
11
1.86273
21
2.03301
0
LINE
8
BLACK
6
CONTINUOUS
10
1.86273
20
2.03301
11
1.86443
21
2.03557
0
LINE
8
BLACK
6
CONTINUOUS
10
1.86443
20
2.03557
11
1.86699
21
2.03727
0
LINE
8
BLACK
6
CONTINUOUS
10
1.86699
20
2.03727
11
1.87
21
2.03787
0
LINE
8
BLACK
6
CONTINUOUS
10
1.87
20
2.03787
11
1.93
21
2.03787
0
LINE
8
BLACK
6
CONTINUOUS
10
1.93
20
2.03787
11
1.93301
21
2.03727
0
LINE
8
BLACK
6
CONTINUOUS
10
2.03301
20
2.03727
11
2.03557
21
2.03557
0
LINE
8
BLACK
6
CONTINUOUS
10
2.03557
20
2.03557
11
2.03727
21
2.03301
0
LINE
8
BLACK
6
CONTINUOUS
10
2.03727
20
2.03301
11
2.03787
21
2.03
0
LINE
8
BLACK
6
CONTINUOUS
10
2.03787
20
2.03
11
2.03787
21
1.97
0
LINE
8
BLACK
6
CONTINUOUS
10
2.03787
20
1.97
11
2.03727
21
1.96699
0
LINE
8
BLACK
6
CONTINUOUS
10
2.03727
20
1.96699
11
2.03557
21
1.96443
0
LINE
8
BLACK
6
CONTINUOUS
10
2.03557
20
1.96443
11
2.03301
21
1.96273
0
LINE
8
BLACK
6
CONTINUOUS
10
2.03301
20
1.96273
11
2.03
21
1.96213
0
LINE
8
BLACK
6
CONTINUOUS
10
2.03
20
1.96213
11
1.97
21
1.96213
0
LINE
8
BLACK
6
CONTINUOUS
10
1.97
20
1.96213
11
1.96699
21
1.96273
0
LINE
8
BLACK
6
CONTINUOUS
10
1.96699
20
1.96273
11
1.96443
21
1.96443
0
LINE
8
BLACK
6
CONTINUOUS
10
1.96443
20
1.96443
11
1.96273
21
1.96699
0
LINE
8
BLACK
6
CONTINUOUS
10
1.96273
20
1.96699
11
1.96213
21
1.97
0
LINE
8
BLACK
6
CONTINUOUS
10
1.96213
20
1.97
11
1.96213
21
2.03
0
LINE
8
BLACK
6
CONTINUOUS
10
1.96213
20
2.03
11
1.96273
21
2.03301
0
LINE
8
BLACK
6
CONTINUOUS
10
1.96273
20
2.03301
11
1.96443
21
2.03557
0
LINE
8
BLACK
6
CONTINUOUS
10
1.96443
20
2.03557
11
1.96699
21
2.03727
0
LINE
8
BLACK
6
CONTINUOUS
10
1.96699
20
2.03727
11
1.97
21
2.03787
0
LINE
8
BLACK
6
CONTINUOUS
10
1.97
20
2.03787
11
2.03
21
2.03787
0
LINE
8
BLACK
6
CONTINUOUS
10
2.03
20
2.03787
11
2.03301
21
2.03727
0
LINE
8
BLACK
6
CONTINUOUS
10
2.13301
20
2.03727
11
2.13557
21
2.03557
0
LINE
8
BLACK
6
CONTINUOUS
10
2.13557
20
2.03557
11
2.13727
21
2.03301
0
LINE
8
BLACK
6
CONTINUOUS
10
2.13727
20
2.03301
11
2.13787
21
2.03
0
LINE
8
BLACK
6
CONTINUOUS
10
2.13787
20
2.03
11
2.13787
21
1.97
0
LINE
8
BLACK
6
CONTINUOUS
10
2.13787
20
1.97
11
2.13727
21
1.96699
0
LINE
8
BLACK
6
CONTINUOUS
10
2.13727
20
1.96699
11
2.13557
21
1.96443
0
LINE
8
BLACK
6
CONTINUOUS
10
2.13557
20
1.96443
11
2.13301
21
1.96273
0
LINE
8
BLACK
6
CONTINUOUS
10
2.13301
20
1.96273
11
2.13
21
1.96213
0
LINE
8
BLACK
6
CONTINUOUS
10
2.13
20
1.96213
11
2.07
21
1.96213
0
LINE
8
BLACK
6
CONTINUOUS
10
2.07
20
1.96213
11
2.06699
21
1.96273
0
LINE
8
BLACK
6
CONTINUOUS
10
2.06699
20
1.96273
11
2.06443
21
1.96443
0
LINE
8
BLACK
6
CONTINUOUS
10
2.06443
20
1.96443
11
2.06273
21
1.96699
0
LINE
8
BLACK
6
CONTINUOUS
10
2.06273
20
1.96699
11
2.06213
21
1.97
0
LINE
8
BLACK
6
CONTINUOUS
10
2.06213
20
1.97
11
2.06213
21
2.03
0
LINE
8
BLACK
6
CONTINUOUS
10
2.06213
20
2.03
11
2.06273
21
2.03301
0
LINE
8
BLACK
6
CONTINUOUS
10
2.06273
20
2.03301
11
2.06443
21
2.03557
0
LINE
8
BLACK
6
CONTINUOUS
10
2.06443
20
2.03557
11
2.06699
21
2.03727
0
LINE
8
BLACK
6
CONTINUOUS
10
2.06699
20
2.03727
11
2.07
21
2.03787
0
LINE
8
BLACK
6
CONTINUOUS
10
2.07
20
2.03787
11
2.13
21
2.03787
0
LINE
8
BLACK
6
CONTINUOUS
10
2.13
20
2.03787
11
2.13301
21
2.03727
0
LINE
8
BLACK
6
CONTINUOUS
10
2.23301
20
2.03727
11
2.23557
21
2.03557
0
LINE
8
BLACK
6
CONTINUOUS
10
2.23557
20
2.03557
11
2.23727
21
2.03301
0
LINE
8
BLACK
6
CONTINUOUS
10
2.23727
20
2.03301
11
2.23787
21
2.03
0
LINE
8
BLACK
6
CONTINUOUS
10
2.23787
20
2.03
11
2.23787
21
1.97
0
LINE
8
BLACK
6
CONTINUOUS
10
2.23787
20
1.97
11
2.23727
21
1.96699
0
LINE
8
BLACK
6
CONTINUOUS
10
2.23727
20
1.96699
11
2.23557
21
1.96443
0
LINE
8
BLACK
6
CONTINUOUS
10
2.23557
20
1.96443
11
2.23301
21
1.96273
0
LINE
8
BLACK
6
CONTINUOUS
10
2.23301
20
1.96273
11
2.23
21
1.96213
0
LINE
8
BLACK
6
CONTINUOUS
10
2.23
20
1.96213
11
2.17
21
1.96213
0
LINE
8
BLACK
6
CONTINUOUS
10
2.17
20
1.96213
11
2.16699
21
1.96273
0
LINE
8
BLACK
6
CONTINUOUS
10
2.16699
20
1.96273
11
2.16443
21
1.96443
0
LINE
8
BLACK
6
CONTINUOUS
10
2.16443
20
1.96443
11
2.16273
21
1.96699
0
LINE
8
BLACK
6
CONTINUOUS
10
2.16273
20
1.96699
11
2.16213
21
1.97
0
LINE
8
BLACK
6
CONTINUOUS
10
2.16213
20
1.97
11
2.16213
21
2.03
0
LINE
8
BLACK
6
CONTINUOUS
10
2.16213
20
2.03
11
2.16273
21
2.03301
0
LINE
8
BLACK
6
CONTINUOUS
10
2.16273
20
2.03301
11
2.16443
21
2.03557
0
LINE
8
BLACK
6
CONTINUOUS
10
2.16443
20
2.03557
11
2.16699
21
2.03727
0
LINE
8
BLACK
6
CONTINUOUS
10
2.16699
20
2.03727
11
2.17
21
2.03787
0
LINE
8
BLACK
6
CONTINUOUS
10
2.17
20
2.03787
11
2.23
21
2.03787
0
LINE
8
BLACK
6
CONTINUOUS
10
2.23
20
2.03787
11
2.23301
21
2.03727
0
LINE
8
BLACK
6
CONTINUOUS
10
2.33301
20
2.03727
11
2.33557
21
2.03557
0
LINE
8
BLACK
6
CONTINUOUS
10
2.33557
20
2.03557
11
2.33727
21
2.03301
0
LINE
8
BLACK
6
CONTINUOUS
10
2.33727
20
2.03301
11
2.33787
21
2.03
0
LINE
8
BLACK
6
CONTINUOUS
10
2.33787
20
2.03
11
2.33787
21
1.97
0
LINE
8
BLACK
6
CONTINUOUS
10
2.33787
20
1.97
11
2.33727
21
1.96699
0
LINE
8
BLACK
6
CONTINUOUS
10
2.33727
20
1.96699
11
2.33557
21
1.96443
0
LINE
8
BLACK
6
CONTINUOUS
10
2.33557
20
1.96443
11
2.33301
21
1.96273
0
LINE
8
BLACK
6
CONTINUOUS
10
2.33301
20
1.96273
11
2.33
21
1.96213
0
LINE
8
BLACK
6
CONTINUOUS
10
2.33
20
1.96213
11
2.27
21
1.96213
0
LINE
8
BLACK
6
CONTINUOUS
10
2.27
20
1.96213
11
2.26699
21
1.96273
0
LINE
8
BLACK
6
CONTINUOUS
10
2.26699
20
1.96273
11
2.26443
21
1.96443
0
LINE
8
BLACK
6
CONTINUOUS
10
2.26443
20
1.96443
11
2.26273
21
1.96699
0
LINE
8
BLACK
6
CONTINUOUS
10
2.26273
20
1.96699
11
2.26213
21
1.97
0
LINE
8
BLACK
6
CONTINUOUS
10
2.26213
20
1.97
11
2.26213
21
2.03
0
LINE
8
BLACK
6
CONTINUOUS
10
2.26213
20
2.03
11
2.26273
21
2.03301
0
LINE
8
BLACK
6
CONTINUOUS
10
2.26273
20
2.03301
11
2.26443
21
2.03557
0
LINE
8
BLACK
6
CONTINUOUS
10
2.26443
20
2.03557
11
2.26699
21
2.03727
0
LINE
8
BLACK
6
CONTINUOUS
10
2.26699
20
2.03727
11
2.27
21
2.03787
0
LINE
8
BLACK
6
CONTINUOUS
10
2.27
20
2.03787
11
2.33
21
2.03787
0
LINE
8
BLACK
6
CONTINUOUS
10
2.33
20
2.03787
11
2.33301
21
2.03727
0
LINE
8
BLACK
6
CONTINUOUS
10
0.933013
20
2.13727
11
0.935568
21
2.13557
0
LINE
8
BLACK
6
CONTINUOUS
10
0.935568
20
2.13557
11
0.937275
21
2.13301
0
LINE
8
BLACK
6
CONTINUOUS
10
0.937275
20
2.13301
11
0.937874
21
2.13
0
LINE
8
BLACK
6
CONTINUOUS
10
0.937874
20
2.13
11
0.937874
21
2.07
0
LINE
8
BLACK
6
CONTINUOUS
10
0.937874
20
2.07
11
0.937275
21
2.06699
0
LINE
8
BLACK
6
CONTINUOUS
10
0.937275
20
2.06699
11
0.935568
21
2.06443
0
LINE
8
BLACK
6
CONTINUOUS
10
0.935568
20
2.06443
11
0.933013
21
2.06273
0
LINE
8
BLACK
6
CONTINUOUS
10
0.933013
20
2.06273
11
0.93
21
2.06213
0
LINE
8
BLACK
6
CONTINUOUS
10
0.93
20
2.06213
11
0.87
21
2.06213
0
LINE
8
BLACK
6
CONTINUOUS
10
0.87
20
2.06213
11
0.866987
21
2.06273
0
LINE
8
BLACK
6
CONTINUOUS
10
0.866987
20
2.06273
11
0.864432
21
2.06443
0
LINE
8
BLACK
6
CONTINUOUS
10
0.864432
20
2.06443
11
0.862725
21
2.06699
0
LINE
8
BLACK
6
CONTINUOUS
10
0.862725
20
2.06699
11
0.862126
21
2.07
0
LINE
8
BLACK
6
CONTINUOUS
10
0.862126
20
2.07
11
0.862126
21
2.13
0
LINE
8
BLACK
6
CONTINUOUS
10
0.862126
20
2.13
11
0.862725
21
2.13301
0
LINE
8
BLACK
6
CONTINUOUS
10
0.862725
20
2.13301
11
0.864432
21
2.13557
0
LINE
8
BLACK
6
CONTINUOUS
10
0.864432
20
2.13557
11
0.866987
21
2.13727
0
LINE
8
BLACK
6
CONTINUOUS
10
0.866987
20
2.13727
11
0.87
21
2.13787
0
LINE
8
BLACK
6
CONTINUOUS
10
0.87
20
2.13787
11
0.93
21
2.13787
0
LINE
8
BLACK
6
CONTINUOUS
10
0.93
20
2.13787
11
0.933013
21
2.13727
0
LINE
8
BLACK
6
CONTINUOUS
10
1.03301
20
2.13727
11
1.03557
21
2.13557
0
LINE
8
BLACK
6
CONTINUOUS
10
1.03557
20
2.13557
11
1.03727
21
2.13301
0
LINE
8
BLACK
6
CONTINUOUS
10
1.03727
20
2.13301
11
1.03787
21
2.13
0
LINE
8
BLACK
6
CONTINUOUS
10
1.03787
20
2.13
11
1.03787
21
2.07
0
LINE
8
BLACK
6
CONTINUOUS
10
1.03787
20
2.07
11
1.03727
21
2.06699
0
LINE
8
BLACK
6
CONTINUOUS
10
1.03727
20
2.06699
11
1.03557
21
2.06443
0
LINE
8
BLACK
6
CONTINUOUS
10
1.03557
20
2.06443
11
1.03301
21
2.06273
0
LINE
8
BLACK
6
CONTINUOUS
10
1.03301
20
2.06273
11
1.03
21
2.06213
0
LINE
8
BLACK
6
CONTINUOUS
10
1.03
20
2.06213
11
0.97
21
2.06213
0
LINE
8
BLACK
6
CONTINUOUS
10
0.97
20
2.06213
11
0.966987
21
2.06273
0
LINE
8
BLACK
6
CONTINUOUS
10
0.966987
20
2.06273
11
0.964432
21
2.06443
0
LINE
8
BLACK
6
CONTINUOUS
10
0.964432
20
2.06443
11
0.962725
21
2.06699
0
LINE
8
BLACK
6
CONTINUOUS
10
0.962725
20
2.06699
11
0.962126
21
2.07
0
LINE
8
BLACK
6
CONTINUOUS
10
0.962126
20
2.07
11
0.962126
21
2.13
0
LINE
8
BLACK
6
CONTINUOUS
10
0.962126
20
2.13
11
0.962725
21
2.13301
0
LINE
8
BLACK
6
CONTINUOUS
10
0.962725
20
2.13301
11
0.964432
21
2.13557
0
LINE
8
BLACK
6
CONTINUOUS
10
0.964432
20
2.13557
11
0.966987
21
2.13727
0
LINE
8
BLACK
6
CONTINUOUS
10
0.966987
20
2.13727
11
0.97
21
2.13787
0
LINE
8
BLACK
6
CONTINUOUS
10
0.97
20
2.13787
11
1.03
21
2.13787
0
LINE
8
BLACK
6
CONTINUOUS
10
1.03
20
2.13787
11
1.03301
21
2.13727
0
LINE
8
BLACK
6
CONTINUOUS
10
1.13301
20
2.13727
11
1.13557
21
2.13557
0
LINE
8
BLACK
6
CONTINUOUS
10
1.13557
20
2.13557
11
1.13727
21
2.13301
0
LINE
8
BLACK
6
CONTINUOUS
10
1.13727
20
2.13301
11
1.13787
21
2.13
0
LINE
8
BLACK
6
CONTINUOUS
10
1.13787
20
2.13
11
1.13787
21
2.07
0
LINE
8
BLACK
6
CONTINUOUS
10
1.13787
20
2.07
11
1.13727
21
2.06699
0
LINE
8
BLACK
6
CONTINUOUS
10
1.13727
20
2.06699
11
1.13557
21
2.06443
0
LINE
8
BLACK
6
CONTINUOUS
10
1.13557
20
2.06443
11
1.13301
21
2.06273
0
LINE
8
BLACK
6
CONTINUOUS
10
1.13301
20
2.06273
11
1.13
21
2.06213
0
LINE
8
BLACK
6
CONTINUOUS
10
1.13
20
2.06213
11
1.07
21
2.06213
0
LINE
8
BLACK
6
CONTINUOUS
10
1.07
20
2.06213
11
1.06699
21
2.06273
0
LINE
8
BLACK
6
CONTINUOUS
10
1.06699
20
2.06273
11
1.06443
21
2.06443
0
LINE
8
BLACK
6
CONTINUOUS
10
1.06443
20
2.06443
11
1.06273
21
2.06699
0
LINE
8
BLACK
6
CONTINUOUS
10
1.06273
20
2.06699
11
1.06213
21
2.07
0
LINE
8
BLACK
6
CONTINUOUS
10
1.06213
20
2.07
11
1.06213
21
2.13
0
LINE
8
BLACK
6
CONTINUOUS
10
1.06213
20
2.13
11
1.06273
21
2.13301
0
LINE
8
BLACK
6
CONTINUOUS
10
1.06273
20
2.13301
11
1.06443
21
2.13557
0
LINE
8
BLACK
6
CONTINUOUS
10
1.06443
20
2.13557
11
1.06699
21
2.13727
0
LINE
8
BLACK
6
CONTINUOUS
10
1.06699
20
2.13727
11
1.07
21
2.13787
0
LINE
8
BLACK
6
CONTINUOUS
10
1.07
20
2.13787
11
1.13
21
2.13787
0
LINE
8
BLACK
6
CONTINUOUS
10
1.13
20
2.13787
11
1.13301
21
2.13727
0
LINE
8
BLACK
6
CONTINUOUS
10
1.23301
20
2.13727
11
1.23557
21
2.13557
0
LINE
8
BLACK
6
CONTINUOUS
10
1.23557
20
2.13557
11
1.23727
21
2.13301
0
LINE
8
BLACK
6
CONTINUOUS
10
1.23727
20
2.13301
11
1.23787
21
2.13
0
LINE
8
BLACK
6
CONTINUOUS
10
1.23787
20
2.13
11
1.23787
21
2.07
0
LINE
8
BLACK
6
CONTINUOUS
10
1.23787
20
2.07
11
1.23727
21
2.06699
0
LINE
8
BLACK
6
CONTINUOUS
10
1.23727
20
2.06699
11
1.23557
21
2.06443
0
LINE
8
BLACK
6
CONTINUOUS
10
1.23557
20
2.06443
11
1.23301
21
2.06273
0
LINE
8
BLACK
6
CONTINUOUS
10
1.23301
20
2.06273
11
1.23
21
2.06213
0
LINE
8
BLACK
6
CONTINUOUS
10
1.23
20
2.06213
11
1.17
21
2.06213
0
LINE
8
BLACK
6
CONTINUOUS
10
1.17
20
2.06213
11
1.16699
21
2.06273
0
LINE
8
BLACK
6
CONTINUOUS
10
1.16699
20
2.06273
11
1.16443
21
2.06443
0
LINE
8
BLACK
6
CONTINUOUS
10
1.16443
20
2.06443
11
1.16273
21
2.06699
0
LINE
8
BLACK
6
CONTINUOUS
10
1.16273
20
2.06699
11
1.16213
21
2.07
0
LINE
8
BLACK
6
CONTINUOUS
10
1.16213
20
2.07
11
1.16213
21
2.13
0
LINE
8
BLACK
6
CONTINUOUS
10
1.16213
20
2.13
11
1.16273
21
2.13301
0
LINE
8
BLACK
6
CONTINUOUS
10
1.16273
20
2.13301
11
1.16443
21
2.13557
0
LINE
8
BLACK
6
CONTINUOUS
10
1.16443
20
2.13557
11
1.16699
21
2.13727
0
LINE
8
BLACK
6
CONTINUOUS
10
1.16699
20
2.13727
11
1.17
21
2.13787
0
LINE
8
BLACK
6
CONTINUOUS
10
1.17
20
2.13787
11
1.23
21
2.13787
0
LINE
8
BLACK
6
CONTINUOUS
10
1.23
20
2.13787
11
1.23301
21
2.13727
0
LINE
8
BLACK
6
CONTINUOUS
10
1.33301
20
2.13727
11
1.33557
21
2.13557
0
LINE
8
BLACK
6
CONTINUOUS
10
1.33557
20
2.13557
11
1.33727
21
2.13301
0
LINE
8
BLACK
6
CONTINUOUS
10
1.33727
20
2.13301
11
1.33787
21
2.13
0
LINE
8
BLACK
6
CONTINUOUS
10
1.33787
20
2.13
11
1.33787
21
2.07
0
LINE
8
BLACK
6
CONTINUOUS
10
1.33787
20
2.07
11
1.33727
21
2.06699
0
LINE
8
BLACK
6
CONTINUOUS
10
1.33727
20
2.06699
11
1.33557
21
2.06443
0
LINE
8
BLACK
6
CONTINUOUS
10
1.33557
20
2.06443
11
1.33301
21
2.06273
0
LINE
8
BLACK
6
CONTINUOUS
10
1.33301
20
2.06273
11
1.33
21
2.06213
0
LINE
8
BLACK
6
CONTINUOUS
10
1.33
20
2.06213
11
1.27
21
2.06213
0
LINE
8
BLACK
6
CONTINUOUS
10
1.27
20
2.06213
11
1.26699
21
2.06273
0
LINE
8
BLACK
6
CONTINUOUS
10
1.26699
20
2.06273
11
1.26443
21
2.06443
0
LINE
8
BLACK
6
CONTINUOUS
10
1.26443
20
2.06443
11
1.26273
21
2.06699
0
LINE
8
BLACK
6
CONTINUOUS
10
1.26273
20
2.06699
11
1.26213
21
2.07
0
LINE
8
BLACK
6
CONTINUOUS
10
1.26213
20
2.07
11
1.26213
21
2.13
0
LINE
8
BLACK
6
CONTINUOUS
10
1.26213
20
2.13
11
1.26273
21
2.13301
0
LINE
8
BLACK
6
CONTINUOUS
10
1.26273
20
2.13301
11
1.26443
21
2.13557
0
LINE
8
BLACK
6
CONTINUOUS
10
1.26443
20
2.13557
11
1.26699
21
2.13727
0
LINE
8
BLACK
6
CONTINUOUS
10
1.26699
20
2.13727
11
1.27
21
2.13787
0
LINE
8
BLACK
6
CONTINUOUS
10
1.27
20
2.13787
11
1.33
21
2.13787
0
LINE
8
BLACK
6
CONTINUOUS
10
1.33
20
2.13787
11
1.33301
21
2.13727
0
LINE
8
BLACK
6
CONTINUOUS
10
1.43301
20
2.13727
11
1.43557
21
2.13557
0
LINE
8
BLACK
6
CONTINUOUS
10
1.43557
20
2.13557
11
1.43727
21
2.13301
0
LINE
8
BLACK
6
CONTINUOUS
10
1.43727
20
2.13301
11
1.43787
21
2.13
0
LINE
8
BLACK
6
CONTINUOUS
10
1.43787
20
2.13
11
1.43787
21
2.07
0
LINE
8
BLACK
6
CONTINUOUS
10
1.43787
20
2.07
11
1.43727
21
2.06699
0
LINE
8
BLACK
6
CONTINUOUS
10
1.43727
20
2.06699
11
1.43557
21
2.06443
0
LINE
8
BLACK
6
CONTINUOUS
10
1.43557
20
2.06443
11
1.43301
21
2.06273
0
LINE
8
BLACK
6
CONTINUOUS
10
1.43301
20
2.06273
11
1.43
21
2.06213
0
LINE
8
BLACK
6
CONTINUOUS
10
1.43
20
2.06213
11
1.37
21
2.06213
0
LINE
8
BLACK
6
CONTINUOUS
10
1.37
20
2.06213
11
1.36699
21
2.06273
0
LINE
8
BLACK
6
CONTINUOUS
10
1.36699
20
2.06273
11
1.36443
21
2.06443
0
LINE
8
BLACK
6
CONTINUOUS
10
1.36443
20
2.06443
11
1.36273
21
2.06699
0
LINE
8
BLACK
6
CONTINUOUS
10
1.36273
20
2.06699
11
1.36213
21
2.07
0
LINE
8
BLACK
6
CONTINUOUS
10
1.36213
20
2.07
11
1.36213
21
2.13
0
LINE
8
BLACK
6
CONTINUOUS
10
1.36213
20
2.13
11
1.36273
21
2.13301
0
LINE
8
BLACK
6
CONTINUOUS
10
1.36273
20
2.13301
11
1.36443
21
2.13557
0
LINE
8
BLACK
6
CONTINUOUS
10
1.36443
20
2.13557
11
1.36699
21
2.13727
0
LINE
8
BLACK
6
CONTINUOUS
10
1.36699
20
2.13727
11
1.37
21
2.13787
0
LINE
8
BLACK
6
CONTINUOUS
10
1.37
20
2.13787
11
1.43
21
2.13787
0
LINE
8
BLACK
6
CONTINUOUS
10
1.43
20
2.13787
11
1.43301
21
2.13727
0
LINE
8
BLACK
6
CONTINUOUS
10
1.53301
20
2.13727
11
1.53557
21
2.13557
0
LINE
8
BLACK
6
CONTINUOUS
10
1.53557
20
2.13557
11
1.53727
21
2.13301
0
LINE
8
BLACK
6
CONTINUOUS
10
1.53727
20
2.13301
11
1.53787
21
2.13
0
LINE
8
BLACK
6
CONTINUOUS
10
1.53787
20
2.13
11
1.53787
21
2.07
0
LINE
8
BLACK
6
CONTINUOUS
10
1.53787
20
2.07
11
1.53727
21
2.06699
0
LINE
8
BLACK
6
CONTINUOUS
10
1.53727
20
2.06699
11
1.53557
21
2.06443
0
LINE
8
BLACK
6
CONTINUOUS
10
1.53557
20
2.06443
11
1.53301
21
2.06273
0
LINE
8
BLACK
6
CONTINUOUS
10
1.53301
20
2.06273
11
1.53
21
2.06213
0
LINE
8
BLACK
6
CONTINUOUS
10
1.53
20
2.06213
11
1.47
21
2.06213
0
LINE
8
BLACK
6
CONTINUOUS
10
1.47
20
2.06213
11
1.46699
21
2.06273
0
LINE
8
BLACK
6
CONTINUOUS
10
1.46699
20
2.06273
11
1.46443
21
2.06443
0
LINE
8
BLACK
6
CONTINUOUS
10
1.46443
20
2.06443
11
1.46273
21
2.06699
0
LINE
8
BLACK
6
CONTINUOUS
10
1.46273
20
2.06699
11
1.46213
21
2.07
0
LINE
8
BLACK
6
CONTINUOUS
10
1.46213
20
2.07
11
1.46213
21
2.13
0
LINE
8
BLACK
6
CONTINUOUS
10
1.46213
20
2.13
11
1.46273
21
2.13301
0
LINE
8
BLACK
6
CONTINUOUS
10
1.46273
20
2.13301
11
1.46443
21
2.13557
0
LINE
8
BLACK
6
CONTINUOUS
10
1.46443
20
2.13557
11
1.46699
21
2.13727
0
LINE
8
BLACK
6
CONTINUOUS
10
1.46699
20
2.13727
11
1.47
21
2.13787
0
LINE
8
BLACK
6
CONTINUOUS
10
1.47
20
2.13787
11
1.53
21
2.13787
0
LINE
8
BLACK
6
CONTINUOUS
10
1.53
20
2.13787
11
1.53301
21
2.13727
0
LINE
8
BLACK
6
CONTINUOUS
10
1.63301
20
2.13727
11
1.63557
21
2.13557
0
LINE
8
BLACK
6
CONTINUOUS
10
1.63557
20
2.13557
11
1.63727
21
2.13301
0
LINE
8
BLACK
6
CONTINUOUS
10
1.63727
20
2.13301
11
1.63787
21
2.13
0
LINE
8
BLACK
6
CONTINUOUS
10
1.63787
20
2.13
11
1.63787
21
2.07
0
LINE
8
BLACK
6
CONTINUOUS
10
1.63787
20
2.07
11
1.63727
21
2.06699
0
LINE
8
BLACK
6
CONTINUOUS
10
1.63727
20
2.06699
11
1.63557
21
2.06443
0
LINE
8
BLACK
6
CONTINUOUS
10
1.63557
20
2.06443
11
1.63301
21
2.06273
0
LINE
8
BLACK
6
CONTINUOUS
10
1.63301
20
2.06273
11
1.63
21
2.06213
0
LINE
8
BLACK
6
CONTINUOUS
10
1.63
20
2.06213
11
1.57
21
2.06213
0
LINE
8
BLACK
6
CONTINUOUS
10
1.57
20
2.06213
11
1.56699
21
2.06273
0
LINE
8
BLACK
6
CONTINUOUS
10
1.56699
20
2.06273
11
1.56443
21
2.06443
0
LINE
8
BLACK
6
CONTINUOUS
10
1.56443
20
2.06443
11
1.56273
21
2.06699
0
LINE
8
BLACK
6
CONTINUOUS
10
1.56273
20
2.06699
11
1.56213
21
2.07
0
LINE
8
BLACK
6
CONTINUOUS
10
1.56213
20
2.07
11
1.56213
21
2.13
0
LINE
8
BLACK
6
CONTINUOUS
10
1.56213
20
2.13
11
1.56273
21
2.13301
0
LINE
8
BLACK
6
CONTINUOUS
10
1.56273
20
2.13301
11
1.56443
21
2.13557
0
LINE
8
BLACK
6
CONTINUOUS
10
1.56443
20
2.13557
11
1.56699
21
2.13727
0
LINE
8
BLACK
6
CONTINUOUS
10
1.56699
20
2.13727
11
1.57
21
2.13787
0
LINE
8
BLACK
6
CONTINUOUS
10
1.57
20
2.13787
11
1.63
21
2.13787
0
LINE
8
BLACK
6
CONTINUOUS
10
1.63
20
2.13787
11
1.63301
21
2.13727
0
LINE
8
BLACK
6
CONTINUOUS
10
1.73301
20
2.13727
11
1.73557
21
2.13557
0
LINE
8
BLACK
6
CONTINUOUS
10
1.73557
20
2.13557
11
1.73727
21
2.13301
0
LINE
8
BLACK
6
CONTINUOUS
10
1.73727
20
2.13301
11
1.73787
21
2.13
0
LINE
8
BLACK
6
CONTINUOUS
10
1.73787
20
2.13
11
1.73787
21
2.07
0
LINE
8
BLACK
6
CONTINUOUS
10
1.73787
20
2.07
11
1.73727
21
2.06699
0
LINE
8
BLACK
6
CONTINUOUS
10
1.73727
20
2.06699
11
1.73557
21
2.06443
0
LINE
8
BLACK
6
CONTINUOUS
10
1.73557
20
2.06443
11
1.73301
21
2.06273
0
LINE
8
BLACK
6
CONTINUOUS
10
1.73301
20
2.06273
11
1.73
21
2.06213
0
LINE
8
BLACK
6
CONTINUOUS
10
1.73
20
2.06213
11
1.67
21
2.06213
0
LINE
8
BLACK
6
CONTINUOUS
10
1.67
20
2.06213
11
1.66699
21
2.06273
0
LINE
8
BLACK
6
CONTINUOUS
10
1.66699
20
2.06273
11
1.66443
21
2.06443
0
LINE
8
BLACK
6
CONTINUOUS
10
1.66443
20
2.06443
11
1.66273
21
2.06699
0
LINE
8
BLACK
6
CONTINUOUS
10
1.66273
20
2.06699
11
1.66213
21
2.07
0
LINE
8
BLACK
6
CONTINUOUS
10
1.66213
20
2.07
11
1.66213
21
2.13
0
LINE
8
BLACK
6
CONTINUOUS
10
1.66213
20
2.13
11
1.66273
21
2.13301
0
LINE
8
BLACK
6
CONTINUOUS
10
1.66273
20
2.13301
11
1.66443
21
2.13557
0
LINE
8
BLACK
6
CONTINUOUS
10
1.66443
20
2.13557
11
1.66699
21
2.13727
0
LINE
8
BLACK
6
CONTINUOUS
10
1.66699
20
2.13727
11
1.67
21
2.13787
0
LINE
8
BLACK
6
CONTINUOUS
10
1.67
20
2.13787
11
1.73
21
2.13787
0
LINE
8
BLACK
6
CONTINUOUS
10
1.73
20
2.13787
11
1.73301
21
2.13727
0
LINE
8
BLACK
6
CONTINUOUS
10
1.83301
20
2.13727
11
1.83557
21
2.13557
0
LINE
8
BLACK
6
CONTINUOUS
10
1.83557
20
2.13557
11
1.83727
21
2.13301
0
LINE
8
BLACK
6
CONTINUOUS
10
1.83727
20
2.13301
11
1.83787
21
2.13
0
LINE
8
BLACK
6
CONTINUOUS
10
1.83787
20
2.13
11
1.83787
21
2.07
0
LINE
8
BLACK
6
CONTINUOUS
10
1.83787
20
2.07
11
1.83727
21
2.06699
0
LINE
8
BLACK
6
CONTINUOUS
10
1.83727
20
2.06699
11
1.83557
21
2.06443
0
LINE
8
BLACK
6
CONTINUOUS
10
1.83557
20
2.06443
11
1.83301
21
2.06273
0
LINE
8
BLACK
6
CONTINUOUS
10
1.83301
20
2.06273
11
1.83
21
2.06213
0
LINE
8
BLACK
6
CONTINUOUS
10
1.83
20
2.06213
11
1.77
21
2.06213
0
LINE
8
BLACK
6
CONTINUOUS
10
1.77
20
2.06213
11
1.76699
21
2.06273
0
LINE
8
BLACK
6
CONTINUOUS
10
1.76699
20
2.06273
11
1.76443
21
2.06443
0
LINE
8
BLACK
6
CONTINUOUS
10
1.76443
20
2.06443
11
1.76273
21
2.06699
0
LINE
8
BLACK
6
CONTINUOUS
10
1.76273
20
2.06699
11
1.76213
21
2.07
0
LINE
8
BLACK
6
CONTINUOUS
10
1.76213
20
2.07
11
1.76213
21
2.13
0
LINE
8
BLACK
6
CONTINUOUS
10
1.76213
20
2.13
11
1.76273
21
2.13301
0
LINE
8
BLACK
6
CONTINUOUS
10
1.76273
20
2.13301
11
1.76443
21
2.13557
0
LINE
8
BLACK
6
CONTINUOUS
10
1.76443
20
2.13557
11
1.76699
21
2.13727
0
LINE
8
BLACK
6
CONTINUOUS
10
1.76699
20
2.13727
11
1.77
21
2.13787
0
LINE
8
BLACK
6
CONTINUOUS
10
1.77
20
2.13787
11
1.83
21
2.13787
0
LINE
8
BLACK
6
CONTINUOUS
10
1.83
20
2.13787
11
1.83301
21
2.13727
0
LINE
8
BLACK
6
CONTINUOUS
10
1.93301
20
2.13727
11
1.93557
21
2.13557
0
LINE
8
BLACK
6
CONTINUOUS
10
1.93557
20
2.13557
11
1.93727
21
2.13301
0
LINE
8
BLACK
6
CONTINUOUS
10
1.93727
20
2.13301
11
1.93787
21
2.13
0
LINE
8
BLACK
6
CONTINUOUS
10
1.93787
20
2.13
11
1.93787
21
2.07
0
LINE
8
BLACK
6
CONTINUOUS
10
1.93787
20
2.07
11
1.93727
21
2.06699
0
LINE
8
BLACK
6
CONTINUOUS
10
1.93727
20
2.06699
11
1.93557
21
2.06443
0
LINE
8
BLACK
6
CONTINUOUS
10
1.93557
20
2.06443
11
1.93301
21
2.06273
0
LINE
8
BLACK
6
CONTINUOUS
10
1.93301
20
2.06273
11
1.93
21
2.06213
0
LINE
8
BLACK
6
CONTINUOUS
10
1.93
20
2.06213
11
1.87
21
2.06213
0
LINE
8
BLACK
6
CONTINUOUS
10
1.87
20
2.06213
11
1.86699
21
2.06273
0
LINE
8
BLACK
6
CONTINUOUS
10
1.86699
20
2.06273
11
1.86443
21
2.06443
0
LINE
8
BLACK
6
CONTINUOUS
10
1.86443
20
2.06443
11
1.86273
21
2.06699
0
LINE
8
BLACK
6
CONTINUOUS
10
1.86273
20
2.06699
11
1.86213
21
2.07
0
LINE
8
BLACK
6
CONTINUOUS
10
1.86213
20
2.07
11
1.86213
21
2.13
0
LINE
8
BLACK
6
CONTINUOUS
10
1.86213
20
2.13
11
1.86273
21
2.13301
0
LINE
8
BLACK
6
CONTINUOUS
10
1.86273
20
2.13301
11
1.86443
21
2.13557
0
LINE
8
BLACK
6
CONTINUOUS
10
1.86443
20
2.13557
11
1.86699
21
2.13727
0
LINE
8
BLACK
6
CONTINUOUS
10
1.86699
20
2.13727
11
1.87
21
2.13787
0
LINE
8
BLACK
6
CONTINUOUS
10
1.87
20
2.13787
11
1.93
21
2.13787
0
LINE
8
BLACK
6
CONTINUOUS
10
1.93
20
2.13787
11
1.93301
21
2.13727
0
LINE
8
BLACK
6
CONTINUOUS
10
2.03301
20
2.13727
11
2.03557
21
2.13557
0
LINE
8
BLACK
6
CONTINUOUS
10
2.03557
20
2.13557
11
2.03727
21
2.13301
0
LINE
8
BLACK
6
CONTINUOUS
10
2.03727
20
2.13301
11
2.03787
21
2.13
0
LINE
8
BLACK
6
CONTINUOUS
10
2.03787
20
2.13
11
2.03787
21
2.07
0
LINE
8
BLACK
6
CONTINUOUS
10
2.03787
20
2.07
11
2.03727
21
2.06699
0
LINE
8
BLACK
6
CONTINUOUS
10
2.03727
20
2.06699
11
2.03557
21
2.06443
0
LINE
8
BLACK
6
CONTINUOUS
10
2.03557
20
2.06443
11
2.03301
21
2.06273
0
LINE
8
BLACK
6
CONTINUOUS
10
2.03301
20
2.06273
11
2.03
21
2.06213
0
LINE
8
BLACK
6
CONTINUOUS
10
2.03
20
2.06213
11
1.97
21
2.06213
0
LINE
8
BLACK
6
CONTINUOUS
10
1.97
20
2.06213
11
1.96699
21
2.06273
0
LINE
8
BLACK
6
CONTINUOUS
10
1.96699
20
2.06273
11
1.96443
21
2.06443
0
LINE
8
BLACK
6
CONTINUOUS
10
1.96443
20
2.06443
11
1.96273
21
2.06699
0
LINE
8
BLACK
6
CONTINUOUS
10
1.96273
20
2.06699
11
1.96213
21
2.07
0
LINE
8
BLACK
6
CONTINUOUS
10
1.96213
20
2.07
11
1.96213
21
2.13
0
LINE
8
BLACK
6
CONTINUOUS
10
1.96213
20
2.13
11
1.96273
21
2.13301
0
LINE
8
BLACK
6
CONTINUOUS
10
1.96273
20
2.13301
11
1.96443
21
2.13557
0
LINE
8
BLACK
6
CONTINUOUS
10
1.96443
20
2.13557
11
1.96699
21
2.13727
0
LINE
8
BLACK
6
CONTINUOUS
10
1.96699
20
2.13727
11
1.97
21
2.13787
0
LINE
8
BLACK
6
CONTINUOUS
10
1.97
20
2.13787
11
2.03
21
2.13787
0
LINE
8
BLACK
6
CONTINUOUS
10
2.03
20
2.13787
11
2.03301
21
2.13727
0
LINE
8
BLACK
6
CONTINUOUS
10
2.13301
20
2.13727
11
2.13557
21
2.13557
0
LINE
8
BLACK
6
CONTINUOUS
10
2.13557
20
2.13557
11
2.13727
21
2.13301
0
LINE
8
BLACK
6
CONTINUOUS
10
2.13727
20
2.13301
11
2.13787
21
2.13
0
LINE
8
BLACK
6
CONTINUOUS
10
2.13787
20
2.13
11
2.13787
21
2.07
0
LINE
8
BLACK
6
CONTINUOUS
10
2.13787
20
2.07
11
2.13727
21
2.06699
0
LINE
8
BLACK
6
CONTINUOUS
10
2.13727
20
2.06699
11
2.13557
21
2.06443
0
LINE
8
BLACK
6
CONTINUOUS
10
2.13557
20
2.06443
11
2.13301
21
2.06273
0
LINE
8
BLACK
6
CONTINUOUS
10
2.13301
20
2.06273
11
2.13
21
2.06213
0
LINE
8
BLACK
6
CONTINUOUS
10
2.13
20
2.06213
11
2.07
21
2.06213
0
LINE
8
BLACK
6
CONTINUOUS
10
2.07
20
2.06213
11
2.06699
21
2.06273
0
LINE
8
BLACK
6
CONTINUOUS
10
2.06699
20
2.06273
11
2.06443
21
2.06443
0
LINE
8
BLACK
6
CONTINUOUS
10
2.06443
20
2.06443
11
2.06273
21
2.06699
0
LINE
8
BLACK
6
CONTINUOUS
10
2.06273
20
2.06699
11
2.06213
21
2.07
0
LINE
8
BLACK
6
CONTINUOUS
10
2.06213
20
2.07
11
2.06213
21
2.13
0
LINE
8
BLACK
6
CONTINUOUS
10
2.06213
20
2.13
11
2.06273
21
2.13301
0
LINE
8
BLACK
6
CONTINUOUS
10
2.06273
20
2.13301
11
2.06443
21
2.13557
0
LINE
8
BLACK
6
CONTINUOUS
10
2.06443
20
2.13557
11
2.06699
21
2.13727
0
LINE
8
BLACK
6
CONTINUOUS
10
2.06699
20
2.13727
11
2.07
21
2.13787
0
LINE
8
BLACK
6
CONTINUOUS
10
2.07
20
2.13787
11
2.13
21
2.13787
0
LINE
8
BLACK
6
CONTINUOUS
10
2.13
20
2.13787
11
2.13301
21
2.13727
0
LINE
8
BLACK
6
CONTINUOUS
10
2.23301
20
2.13727
11
2.23557
21
2.13557
0
LINE
8
BLACK
6
CONTINUOUS
10
2.23557
20
2.13557
11
2.23727
21
2.13301
0
LINE
8
BLACK
6
CONTINUOUS
10
2.23727
20
2.13301
11
2.23787
21
2.13
0
LINE
8
BLACK
6
CONTINUOUS
10
2.23787
20
2.13
11
2.23787
21
2.07
0
LINE
8
BLACK
6
CONTINUOUS
10
2.23787
20
2.07
11
2.23727
21
2.06699
0
LINE
8
BLACK
6
CONTINUOUS
10
2.23727
20
2.06699
11
2.23557
21
2.06443
0
LINE
8
BLACK
6
CONTINUOUS
10
2.23557
20
2.06443
11
2.23301
21
2.06273
0
LINE
8
BLACK
6
CONTINUOUS
10
2.23301
20
2.06273
11
2.23
21
2.06213
0
LINE
8
BLACK
6
CONTINUOUS
10
2.23
20
2.06213
11
2.17
21
2.06213
0
LINE
8
BLACK
6
CONTINUOUS
10
2.17
20
2.06213
11
2.16699
21
2.06273
0
LINE
8
BLACK
6
CONTINUOUS
10
2.16699
20
2.06273
11
2.16443
21
2.06443
0
LINE
8
BLACK
6
CONTINUOUS
10
2.16443
20
2.06443
11
2.16273
21
2.06699
0
LINE
8
BLACK
6
CONTINUOUS
10
2.16273
20
2.06699
11
2.16213
21
2.07
0
LINE
8
BLACK
6
CONTINUOUS
10
2.16213
20
2.07
11
2.16213
21
2.13
0
LINE
8
BLACK
6
CONTINUOUS
10
2.16213
20
2.13
11
2.16273
21
2.13301
0
LINE
8
BLACK
6
CONTINUOUS
10
2.16273
20
2.13301
11
2.16443
21
2.13557
0
LINE
8
BLACK
6
CONTINUOUS
10
2.16443
20
2.13557
11
2.16699
21
2.13727
0
LINE
8
BLACK
6
CONTINUOUS
10
2.16699
20
2.13727
11
2.17
21
2.13787
0
LINE
8
BLACK
6
CONTINUOUS
10
2.17
20
2.13787
11
2.23
21
2.13787
0
LINE
8
BLACK
6
CONTINUOUS
10
2.23
20
2.13787
11
2.23301
21
2.13727
0
LINE
8
BLACK
6
CONTINUOUS
10
2.33301
20
2.13727
11
2.33557
21
2.13557
0
LINE
8
BLACK
6
CONTINUOUS
10
2.33557
20
2.13557
11
2.33727
21
2.13301
0
LINE
8
BLACK
6
CONTINUOUS
10
2.33727
20
2.13301
11
2.33787
21
2.13
0
LINE
8
BLACK
6
CONTINUOUS
10
2.33787
20
2.13
11
2.33787
21
2.07
0
LINE
8
BLACK
6
CONTINUOUS
10
2.33787
20
2.07
11
2.33727
21
2.06699
0
LINE
8
BLACK
6
CONTINUOUS
10
2.33727
20
2.06699
11
2.33557
21
2.06443
0
LINE
8
BLACK
6
CONTINUOUS
10
2.33557
20
2.06443
11
2.33301
21
2.06273
0
LINE
8
BLACK
6
CONTINUOUS
10
2.33301
20
2.06273
11
2.33
21
2.06213
0
LINE
8
BLACK
6
CONTINUOUS
10
2.33
20
2.06213
11
2.27
21
2.06213
0
LINE
8
BLACK
6
CONTINUOUS
10
2.27
20
2.06213
11
2.26699
21
2.06273
0
LINE
8
BLACK
6
CONTINUOUS
10
2.26699
20
2.06273
11
2.26443
21
2.06443
0
LINE
8
BLACK
6
CONTINUOUS
10
2.26443
20
2.06443
11
2.26273
21
2.06699
0
LINE
8
BLACK
6
CONTINUOUS
10
2.26273
20
2.06699
11
2.26213
21
2.07
0
LINE
8
BLACK
6
CONTINUOUS
10
2.26213
20
2.07
11
2.26213
21
2.13
0
LINE
8
BLACK
6
CONTINUOUS
10
2.26213
20
2.13
11
2.26273
21
2.13301
0
LINE
8
BLACK
6
CONTINUOUS
10
2.26273
20
2.13301
11
2.26443
21
2.13557
0
LINE
8
BLACK
6
CONTINUOUS
10
2.26443
20
2.13557
11
2.26699
21
2.13727
0
LINE
8
BLACK
6
CONTINUOUS
10
2.26699
20
2.13727
11
2.27
21
2.13787
0
LINE
8
BLACK
6
CONTINUOUS
10
2.27
20
2.13787
11
2.33
21
2.13787
0
LINE
8
BLACK
6
CONTINUOUS
10
2.33
20
2.13787
11
2.33301
21
2.13727
  0
ENDSEC
  0
EOF
